<svg xmlns="http://www.w3.org/2000/svg" viewBox="0 0 486 538"><title>fairemain</title><g id="Layer_13" data-name="Layer 13"><path d="M241.44,237.36c-2.55-.56-3.48-2.46-3.45-4.72,0-3.43.4-6.85.62-10.27a13.54,13.54,0,0,0,.19-3.89c-1.71-7.24-1.48-14.63-1.94-22-.33-5.21-.46-10.45-.49-15.68A119.61,119.61,0,0,0,235,163.71c-.49-3.23-.76-6.5-1-9.77-.54-9.31-1-18.63-1.5-27.95-.83-14.56-1.15-29.11.3-43.66.31-3.09.45-6.21.75-9.3a28.58,28.58,0,0,1,.73-3.38l3.58-.11c.13-1,.25-1.94.38-2.91-2.65-3.61-2-7.25-.08-10.89.84-2.86,1.69-5.71,2.53-8.57l-2.69-.37-.93,1.71c-.49,1-1,2-1.54,3.13-.7-1.79-.7-1.79-.38-4,.1-3.91.15-7.81.33-11.71.35-7.78.77-15.54,1.15-23.32a5.06,5.06,0,0,1-1.81.14,5.14,5.14,0,0,1-1.84-.52l0,.4c-.57,11-.79,21.93-1.24,32.88-.39,9.33-.87,18.64-1.37,28-.49,9.15-1.42,18.3-1.47,27.46-.06,10.3.62,20.61,1,30.91.32,8,.71,16,1.1,24a52.16,52.16,0,0,0,.44,5.87c1.41,8.78,1.29,17.61,1.49,26.46.16,7.51.77,15,1.36,22.53a79.36,79.36,0,0,1-.44,18.61,16.2,16.2,0,0,1,0,2.31c-.31,2.54-.61,2.74-3.66,2.77a24.38,24.38,0,0,0-3.22.94,7.4,7.4,0,0,1-6.06.06c-.32,1-.65,2.06-1,3.14a23.43,23.43,0,0,1-3.06.2c-3.2-.2-6.4-.49-9.59-.75-1.34-.11-2.56-.41-2.88-2a15.69,15.69,0,0,1-3.2.87c-7.66.42-15.33.48-23,.53-5.07,0-10.13.35-15.2.58-6.26.29-12.39-.8-18.57-1.52-3.73-.44-7.48-.78-11.22-1.16l-20.5-2.12c-3.08.81-6.13,0-9.18-.22-4.51-.34-9-.88-13.5-1.34l-6.77-.33A7.57,7.57,0,0,1,78.1,231c-12.77-.47-25.54-.72-38.32-.16-4.56.2-9.15-.07-13.73-.13l-3.14,0-12-.07a4.53,4.53,0,0,1,3.9,3.62c1.45,0,2.9,0,4.35.07s2.26,1.1,2.09,2.68a6.67,6.67,0,0,1-.37,1.91,12,12,0,0,0-.65,6.25,25.86,25.86,0,0,1,.12,4.4,11.42,11.42,0,0,0,1.7,6.52c1.62,2.82,3.17,5.68,4.75,8.52l3.31,1.69,1.65-1.53c-1.06-.73-2.27-1.29-2.8-2.62A8.62,8.62,0,0,0,28,260.5c-4.94-7.19-5.56-14.84-2.44-22.89.23-.61.44-1.23.68-1.84a4.81,4.81,0,0,1,.59-.69,10.92,10.92,0,0,1,2.45-.55c12.28-.26,24.56-.66,36.83-.6,6.7,0,13.39.95,20.09,1.38,9.8.64,19.62,1.08,29.41,1.81,8.49.63,17,1.36,25.43,2.42A172.27,172.27,0,0,0,172.43,241a94.54,94.54,0,0,1,13.25.2c8,.66,16,0,24,.38,1.8.07,3.6.14,5.39.32a58.63,58.63,0,0,0,13.24.24c1.6-.2,3.25-.44,4.81.38,2.44,1.29,4.05.23,5.23-1.93l.84-1.31c.45-.08.89-.17,1.34-.22C241.89,238.91,241.89,238.92,241.44,237.36Z" style="fill:#5d536c"/><path d="M218.55,487.93c1.62-1,1.65-2.72,1.75-4.34a117.3,117.3,0,0,1,2.31-15.5,22.86,22.86,0,0,1,4.18-8.78,9.87,9.87,0,0,1,2.09-2,4.31,4.31,0,0,1,6.78,2.08,8.52,8.52,0,0,1,.47,2.39c.22,3.91.55,7.83.5,11.73a129.06,129.06,0,0,1-.81,14.18c-.56,4.53-1.78,9-2.58,13.46a25.31,25.31,0,0,1-3.06,8.74,11.37,11.37,0,0,1-1.25,1.46c-.33-2.35-.63-4.71-1-7.05a7.55,7.55,0,0,0-1-1.79c-1.42,2.26-2.49,4.37-5.16,4.32a27.1,27.1,0,0,1-1.2-9.34c0-1.47-.1-2.88-1.52-3.77C217.66,491.86,218.68,489.85,218.55,487.93Zm8.64,8.14c3.17-7.44,2.65-15.34,3.47-23.05.14-1.36.54-2.81-.33-4.5a6.18,6.18,0,0,0-2.17,4.41C227.39,480.63,225.84,488.3,227.19,496.07Z" style="fill:#7d7285"/><path d="M179.09,483.81c-.17.65-.34,1.29-.5,1.93-1.79.75-1.29,2.89-2.46,4a9.83,9.83,0,0,0-2.64,4,37.07,37.07,0,0,1-3.73,8.4c-2.21,3.3-2.68,6.84-2.93,10.57a12.49,12.49,0,0,1-.37,2.88c-.16.53-.8.9-1.23,1.35.05-3.24.1-6.47.15-10.11-1.75-1.14-3.75-2.63-4.38-5.12a10.13,10.13,0,0,1,.1-2.79,2.75,2.75,0,0,0,.85-.45c2-2.15,3.6-4.55,6.36-5.93a5.68,5.68,0,0,0,2.32-3c1.31-3.49,2.36-7.07,3.52-10.62,2.38-6.79,4.71-13.59,7.18-20.35,1.35-3.69,2.93-7.29,4.42-10.93,1.06-2.57,2-5.19,3.3-7.66a6,6,0,0,0,.32-4.74c1.07-1.26,2.11-2.49,3.3-3.87a7.5,7.5,0,0,1,1.8.19c4.2,1.46,5.09,2.93,3.6,7a67.6,67.6,0,0,1-4.77,10.75c-4.15,7.14-6.88,14.85-9.75,22.52-1.26,3.37-2.48,6.75-3.72,10.13C179,482.29,178.43,482.83,179.09,483.81Z" style="fill:#5d536c"/><path d="M304.9,499.12c2.37-.7,4.13.16,5.45,2.13a14.6,14.6,0,0,1,2.62,7.27A88.17,88.17,0,0,1,312,529a24.77,24.77,0,0,1-1.35,4.68c-1.3,3.38-4.93,4-7.34,1.27a42,42,0,0,1-3-4.39l-.29.06c0-.31.16-.68,0-.93-1.55-3.36-3.09-6.73-4.77-10-.31-.6-1.28-.85-1.94-1.26-.35-.88-.69-1.76-1-2.51.3-.47.41-.84.65-1,2.83-1.84,3-4.43,1.9-7.23a5.57,5.57,0,0,1-.35-4.21c1.06,2.19,2.17,4.35,3.17,6.56,2.1,4.6,4.14,9.22,6.22,13.82.34.74.77,1.46,2,1.08.91-4.07.85-8.3.91-12.52,0-2.81-.17-5.51-2.11-7.84a8.55,8.55,0,0,1-1-2.74Z" style="fill:#706578"/><path d="M276.17,503.71c.35,7.81,1,15.57,4.41,22.79.57,1.16,1.16,2.3,1.69,3.47a12.79,12.79,0,0,1,1,2.69,2.6,2.6,0,0,1-2.9,3.38,22.38,22.38,0,0,1-2.83-.61c-1.42-3.17-2.93-6.2-4.13-9.35s-2.1-6.45-3.13-9.69c.11-1.38-.11-2.7-1.52-3.29-1.85-.78-4.8-.22-5.88,1.21a14.45,14.45,0,0,0-1.35,3.08c-.58,1-1.17,1.91-1.77,2.86-.76-1.68-2.57-3-1.88-5.35a34.57,34.57,0,0,1,3.26-2,6.45,6.45,0,0,0,4-5.64c1.38-.36,3-.3,3.84-1.71-.12-4.53-.19-4.74-2.21-6.81-.24.18-.64.32-.69.55-.6,2.51-1.14,5-1.7,7.55l-3.49-.62c.87-4.94,1.22-9.72,6.27-11.87-.06-1.91-.11-3.53-.16-5.14a6.87,6.87,0,0,1,4.29,3.63,74.7,74.7,0,0,1,3.51,7.33C275.33,501.32,275.72,502.53,276.17,503.71Z" style="fill:#706578"/><path d="M174.15,478.89c-1.16,3.55-2.21,7.13-3.52,10.62a5.68,5.68,0,0,1-2.32,3c-2.76,1.38-4.41,3.78-6.36,5.93a2.75,2.75,0,0,1-.85.45l-2.78-.16c.19-4.23.66-8.38,2.75-12.2.5-.9.43-2.11.68-3.5l-2.07,1a31.57,31.57,0,0,1,.74-3.78c1.45-4.5,3-9,4.53-13.44a10.44,10.44,0,0,1,1.29-2c.31.73.95,1.49.88,2.18-.27,2.91-.72,5.8-1.16,8.68-.29,1.92-.73,3.83-1,5.75-.07.5.36,1.05.87,2.36a31.92,31.92,0,0,0,3.73-10.18,26.79,26.79,0,0,1,1.16-4.71,25.46,25.46,0,0,0,2-7,10.31,10.31,0,0,1,.9-2.77c1.42-3.64,2.82-7.28,4.31-10.89a8.18,8.18,0,0,1,1.45-1.81c.23,3.83-1.28,7.34-2.08,11-1.17,5.25-2.6,10.43-3.86,15.66a14,14,0,0,0-.47,3.86C173.06,477.56,173.76,478.22,174.15,478.89Zm-9.41,9.45a4.66,4.66,0,0,0-.66-.35c-.05,0-.27.24-.25.29a4,4,0,0,0,.41.6Z" style="fill:#706578"/><path d="M165.23,516.94c.43-.45,1.07-.82,1.23-1.35a12.49,12.49,0,0,0,.37-2.88c.25-3.73.72-7.27,2.93-10.57a37.07,37.07,0,0,0,3.73-8.4,9.83,9.83,0,0,1,2.64-4c1.17-1.13.67-3.27,2.46-4,.54,1.73-.42,3.19-.88,4.73-1.6,5.32-3.46,10.57-4.83,15.95a66.34,66.34,0,0,0-1.51,10.64,11,11,0,0,0,.7,4.32,6.4,6.4,0,0,0,8.13,4.35A52.16,52.16,0,0,0,187,523c1.91-.83,3.56-2.27,6-2.76.08.82.35,1.48.17,1.95-3.19,8.16-13.82,12.18-21.26,7.86C167,527.18,164.56,522.78,165.23,516.94Z" style="fill:#7d7285"/><path d="M159.68,484l2.07-1c-.25,1.39-.18,2.6-.68,3.5-2.09,3.82-2.56,8-2.75,12.2-.15.29-.31.58-.46.88a1.86,1.86,0,0,0-1.67,2.16,12.19,12.19,0,0,1-10.16,5,7.92,7.92,0,0,0-6.38,3.07c-1.93,2.19-2.45,3.75-2.34,7.36l3.95.38c.32.48.67.74.66,1a14.28,14.28,0,0,1-.35,3.83,3.25,3.25,0,0,1-5.48,1.61c-3.09-2.49-4.92-5.41-4-9.79a20.81,20.81,0,0,1,6.3-11.38c2.13-2,4.54-3.26,7.57-2.53s4.91-.57,6.69-2.88a43.07,43.07,0,0,0,5.74-10.22C158.85,486.15,159.26,485.09,159.68,484Z" style="fill:#5d536c"/><path d="M179.45,446.4a8.18,8.18,0,0,0-1.45,1.81c-1.49,3.61-2.89,7.25-4.31,10.89a10.31,10.31,0,0,0-.9,2.77,25.46,25.46,0,0,1-2,7,26.79,26.79,0,0,0-1.16,4.71,31.92,31.92,0,0,1-3.73,10.18c-.51-1.31-.94-1.86-.87-2.36.23-1.92.67-3.83,1-5.75.44-2.88.89-5.77,1.16-8.68.07-.69-.57-1.45-.88-2.18.57-1.87,1.15-3.74,1.72-5.6.83-.4,1.21-1,.61-1.84.26-.66.51-1.32.77-2,.83-.41,1.17-1,.57-1.84,1.72-5.64,3.38-11.29,5.2-16.89a15,15,0,0,1,2.15-3.84c.94-1.34,2.24-1.63,3.92-1.12a2.36,2.36,0,0,1,1.88,2.52,7.77,7.77,0,0,1-.3,1.93C181.68,439.56,180.56,443,179.45,446.4Z" style="fill:#5d536c"/><path d="M199.2,516.21c-2.24-.07-3.71-1.44-5-3-.81-.94-1.6-1.88-2.4-2.83l-.57-6.84a12,12,0,0,0,.76-6.16c-.34-1.61-1.4-1.49-2.58-1.05a10,10,0,0,0-2.05-1.66,2.94,2.94,0,0,1-1.83-2.38c2-3.37,5.42-3,8.83-3a8,8,0,0,1,1.36-1.92,5.39,5.39,0,0,1,2.5-1.2c2.1-.26,3.61,1,3.35,3.11-.45,3.69-1.25,7.34-1.93,11a67.25,67.25,0,0,0-1.22,6.67c-.19,2.42.35,2.88,3.21,4C201.39,512.92,201.57,515.14,199.2,516.21Z" style="fill:#5d536c"/><path d="M287.33,531c-2.32-1.19-1.77-3.3-1.69-5.26.1-1.65.2-3.3.31-4.95.09-1,.19-1.92.29-2.88a44.29,44.29,0,0,0,.68-5.23c.07-4,0-8.06-.08-12.09,0-3.37.43-3.88,4.12-4.55a12.09,12.09,0,0,1,3.59,7.37,5.57,5.57,0,0,0,.35,4.21c1.11,2.8.93,5.39-1.9,7.23-.24.15-.35.52-.65,1,.3.75.64,1.63,1,2.51q-.76,5.46-1.52,10.91a2,2,0,0,0-1,2.11h0Z" style="fill:#5d536c"/><path d="M218.55,487.93c.13,1.92-.89,3.93.46,5.75-.38,2.05-.75,4.1-1.13,6.15l-2.44-3.45c-1,3.22-2,5.69.64,7.89a6.06,6.06,0,0,1-2.74,4.67c-2.33-.8-2.35-.8-2.19-2.35.08-.72.26-1.43.43-2.36l-7.41,2.83c-1.51-4.28-1.21-8.53,0-12.85,1-3.7,3.57-6.06,6.52-8.15a5.87,5.87,0,0,1,4.66-.77A4.06,4.06,0,0,1,218.55,487.93Zm-4.86,3.13a12,12,0,0,0-4,8.8c0,.5.37,1,.88,2.36C212.88,498.63,214.52,495.75,213.69,491.06ZM204.91,501a5.05,5.05,0,0,0-.34,1.61c.08.37.52.66.8,1,.15-.41.45-.83.39-1.21S205.32,501.64,204.91,501Z" style="fill:#706578"/><path d="M185.48,492.27a2.94,2.94,0,0,0,1.83,2.38,10,10,0,0,1,2.05,1.66c-.78,1.24-1.64,2.43-2.33,3.72-1.13,2.13-2.23,4.31-1.6,7.18a6.56,6.56,0,0,0,2-.58c1.31-1,2.53-2.06,3.79-3.11l.57,6.84c-1.43,1.05-2.73,2.4-4.32,3.08a6,6,0,0,1-8.49-4.63,10,10,0,0,1-.18-3.4C179.61,500.34,181.2,495.6,185.48,492.27Z" style="fill:#706578"/><path d="M228.49,515.44c.34.89.72,1.76,1,2.66.52,1.53.91,3.12,1.52,4.61,1,2.56,2.78,3.95,5.72,3.11a3,3,0,0,1,1,.08c1.25,1.42.58,2.75-.25,4a3.86,3.86,0,0,1-3.32,1.72,6.93,6.93,0,0,1-5.63-2.44,47.46,47.46,0,0,1-3.84-5.57,39.92,39.92,0,0,1-2-4.24l-5.14,1a21.39,21.39,0,0,0,.17-3.19,20,20,0,0,0-.72-3l4-2.77a6.43,6.43,0,0,0,3.8,6.42Z" style="fill:#7d7285"/><path d="M217,514.18a20,20,0,0,1,.72,3,21.39,21.39,0,0,1-.17,3.19.79.79,0,0,1-.66.18c-1.45-.57-2.9-.92-4.35,0a8.55,8.55,0,0,1-4.75-3,4.94,4.94,0,0,0-3.74-1.84c.34-2,.29-3.86-1.77-5a5.91,5.91,0,0,0,1.85-3.65l7.41-2.83c-.17.93-.35,1.64-.43,2.36-.16,1.55-.14,1.55,2.19,2.35-.33.71-.69,1.41-1,2.14-.87,2.17.44,4.7,3.37,3.61Z" style="fill:#5d536c"/><path d="M228.49,515.44l-3.62,2.39a6.43,6.43,0,0,1-3.8-6.42l.66-4.62c2.67,0,3.74-2.06,5.16-4.32a7.55,7.55,0,0,1,1,1.79c.4,2.34.7,4.7,1,7.05C228.78,512.69,228.64,514.07,228.49,515.44Z" style="fill:#5d536c"/><path d="M245.1,508.64a2.59,2.59,0,0,1,1.25,3.26,2.78,2.78,0,0,1-3.09,1.77c-2.21-.19-4.41-.59-6.61-.91-.34-.35-.71-.67-1-1.05-2.42-3-1.89-4.36,2-5.19a5.29,5.29,0,0,1,1,0l2.69.91Z" style="fill:#706578"/><path d="M257.26,496.36q.69-2.44,1.36-4.89a3.78,3.78,0,0,1,.85,3.21c-.24,2.45-.59,4.89-.67,7.34s-1.41,3.53-3.53,4.06c.55-2.52,1.09-5,1.64-7.56C257,497.8,257.15,497.08,257.26,496.36Z" style="fill:#706578"/><path d="M202.32,510.71c2.06,1.15,2.11,3,1.77,5-1.53,1.12-3.1,1.84-4.89.49,2.37-1.07,2.19-3.29,2.38-5.33A.7.7,0,0,1,202.32,510.71Z" style="fill:#706578"/><path d="M258.34,524.33c-1.43.17-2.91.49-3.67-1.26,1.33-1.47,3-.9,4.59-.75a1.22,1.22,0,0,1,.6,0Z" style="fill:#706578"/><path d="M212.58,520.57c1.45-.93,2.9-.58,4.35,0A3.06,3.06,0,0,1,212.58,520.57Z" style="fill:#7d7285"/><path d="M169.91,453.52c.6.86.26,1.43-.57,1.84Z" style="fill:#706578"/><path d="M168.57,457.35c.6.88.22,1.44-.61,1.84C168.16,458.57,168.37,458,168.57,457.35Z" style="fill:#706578"/><path d="M156.19,501.8a1.86,1.86,0,0,1,1.67-2.16A2.15,2.15,0,0,1,156.19,501.8Z" style="fill:#706578"/><path d="M179.09,483.81c-.66-1-.14-1.52.74-1.92A1.36,1.36,0,0,1,179.09,483.81Z" style="fill:#7d7285"/><path d="M44.23,271.24l1.47-.5Z" style="fill:#d5cbbe"/><path d="M322.35,528.88a10.84,10.84,0,0,0,9.16,1c1.1-.3,2.13-.83,3.22-1.2,1.87-.62,2.88-.22,3.61,1.36a2.77,2.77,0,0,1-1,3.85c-7.16,5.11-13,3.45-19-.66a3.75,3.75,0,0,1-1.25-1.49c-.76-1.8-1.9-3.61-2-5.47-.46-7.73.18-15.32,3.87-22.39,1.23-2.34,2.9-3.33,5.51-3s4.26,1.43,4.59,4.15c-.43,1.52-1.8,1.8-3,2.27a3.69,3.69,0,0,0-2.33,2.34C321.82,515.93,321,522.33,322.35,528.88Z" style="fill:#706578"/><path d="M420.33,96.94q1.64-8.11,3.26-16.24c.79-3.94,1-4.35,3.42-7.43a14.21,14.21,0,0,1,8.46,1.38c2.66,1.2,5.29,2.46,7.93,3.69l12.34,8.36,3.15,2.38,3.78,3.23L467,96.83l.27.18c2.1,3.91,5.15,7.07,8.1,10.32l-.1.09a5.53,5.53,0,0,0,.66,1.79c2.18,2.55,3.09,5.64,3.94,8.77l-1.69,1.36a68.21,68.21,0,0,0-10-16.74c-9-10.75-20.27-18.35-32.66-24.5a22.49,22.49,0,0,0-3.2-1.23c-3.16-1-4.68-.34-5.63,2.75-.76,2.49-1.11,5.1-1.75,7.63-.84,3.31-1.78,6.6-2.68,9.89Z" style="fill:#706578"/><path d="M422.24,97.14c.9-3.29,1.84-6.58,2.68-9.89.64-2.53,1-5.14,1.75-7.63.95-3.09,2.47-3.74,5.63-2.75a22.49,22.49,0,0,1,3.2,1.23c12.39,6.15,23.68,13.75,32.66,24.5a68.21,68.21,0,0,1,10,16.74c.34,1.42.63,2.86,1,4.27a93.3,93.3,0,0,1,3.71,24.67A79.48,79.48,0,0,1,479.35,172a57.64,57.64,0,0,1-15.44,24.75,93.26,93.26,0,0,1-31.86,19.92c-8.4,3.25-16.87,6.33-25.25,9.62a101.74,101.74,0,0,0-35,23.07c-8.85,8.85-16.68,18.48-22.35,29.7a76.83,76.83,0,0,0-3.89,9c-3.05,8.72-1.46,17.15,2.18,25.3a58.63,58.63,0,0,0,8,13.43c-.31,1.1-.63,2.19-.94,3.29-.61,2.16-.31,3.1,1.82,3.76a8.76,8.76,0,0,1,5.54,4.46,13.44,13.44,0,0,0,2.52,2.68c0,.57,0,.89,0,1.21-.35,3.17.38,3.81,3.33,2.53a3.4,3.4,0,0,1,4.38.93c1.4,1.6,2.67,3.32,4.13,4.86a7.84,7.84,0,0,0,3,2.32c2.11.65,3.14,2.08,4.16,3.85,3,5.16,3,5.13-2.87,5.81-3.13.36-6.15.38-8.89-1.71a4.24,4.24,0,0,0-3.23-.49c-2.48.64-5.17,1.07-6.61,3.55l-6.4.26a5.83,5.83,0,0,1-2.63-3.58c-.77-2.59-2.52-3.62-5.11-3.7a21,21,0,0,1-3.4-.66c-1.13-3.17-3.53-4.66-6.58-5.28l.27-.28c.68-.91,1.45-1.77,2-2.75a3.1,3.1,0,0,0-.67-4.37c-1.09-1-2.29-1.83-3.45-2.74-.09-.62-.19-1.24-.29-1.86.77-.14,1.62-.34,1.49-1.33-.16-1.33-.18-2.79-1.64-3.54-.41-3.41-.89-6.81-1.2-10.23-.55-6-.92-12.06-1.49-18.08-.5-5.37-1.17-10.73-1.8-16.08a6.64,6.64,0,0,0-.55-1.88,2.39,2.39,0,0,0-3.62-1.27c-3.36,1.84-5.65,4.54-6,8.44a58.31,58.31,0,0,0,0,7.82c.51,10.29,1.09,20.58,1.62,30.87a14.37,14.37,0,0,1-.15,2.93,6.41,6.41,0,0,1-.67,1.6,3.77,3.77,0,0,1-3.64-1.53,55.52,55.52,0,0,1-5.53-6.84c-3.5-5.44-5.39-11.56-6.7-17.83-.9-4.32-1.37-8.72-2.13-13.07a57.92,57.92,0,0,0-1.61-7.16,2.2,2.2,0,0,0-3.65-.73c-3.54,3.73-6.52,7.76-6.92,13.18a26.9,26.9,0,0,0,.94,9.71,87.74,87.74,0,0,1,3.2,23.28,69.28,69.28,0,0,1-.4,7.34,6.92,6.92,0,0,1-.82,2,4.68,4.68,0,0,1-1.31,0,4.83,4.83,0,0,1-1.3-.66,22.27,22.27,0,0,1-8.32-11.26c-1-2.94-1.89-5.89-2.84-8.84-.21-4.83-.4-9.65-.66-14.48a11.22,11.22,0,0,0-4.79-9.05c-2.07-1.6-2.47-1.62-4.48-.25-1.64.79-2.85,2.56-5,2.19l-1.3,0-1.17,1.74.09,1.54c-.05,2.44-.23,4.9-.1,7.34.27,5.23.67,10.45,1.09,15.67.24,2.94.63,5.86,1,8.79.49,4.39,1,8.77,1.49,13.16-1.41-.22-2.9-.95-4,.65s-.71,3.12.09,4.62c.69,1.31,1.44,2.58,2.2,3.84,7.39,12.2,11.76,25.56,15.09,39.3,1.54,6.36,2.8,12.8,4.15,19.21a59.77,59.77,0,0,0,9.68,21.87c2.81,4,5.54,8.12,8.4,12.11,1.34,1.86,2.92,3.54,4.37,5.32a3.17,3.17,0,0,0,4,.87,13.15,13.15,0,0,0,3.32-2c2.07-1.77,3-4.18,3.7-6.78a70.29,70.29,0,0,0,2.14-17.53c0-5.77,1.84-11,4.26-16,1.49-3.11,3.45-6,6.82-7.46,2.81,3.05,5,6.3,4.64,10.8-.23,2.79.35,3.3,3.18,4,1.41.33,3,.25,3.65,2.24-.56,1.14-1.6,2.38-1.75,3.73-.44,3.82-1.83,7.7.2,11.51a3.34,3.34,0,0,1,.25,1.91,10.87,10.87,0,0,0,1.84,8.3,5.44,5.44,0,0,1-.57,7.2,8,8,0,0,0-1.74,2.91,4.33,4.33,0,0,1-3.64,3.46,6.19,6.19,0,0,0-1.85.61c-1.36.75-2.5,1.84-2,3.51.63,2.19-.31,3.82-1.44,5.44-1.57,2.26-3.2,4.49-4.93,6.92a6.88,6.88,0,0,0-5.55.08,24.21,24.21,0,0,1-8.34-3.73c.91-1.46,1-2.34,0-2.72-1.18-.49-2.42-.84-3.56-1.23a7,7,0,0,1-.65-1.46,7.38,7.38,0,0,0-4.82-5.7c-3.45-1.37-7-2.51-10.57-3.55-.81-.23-1.86.37-2.81.58a56.5,56.5,0,0,1-11.16-10.23c-12.3-14-20.66-30.2-26-48.05a165.1,165.1,0,0,1-5.46-23.93,104.06,104.06,0,0,1-.39-25c.74-7.67,1.74-15.3,2.91-22.92,1.39-9.06,2.22-18.23,2.74-27.38a50.42,50.42,0,0,0-3-19.34,32.88,32.88,0,0,0-7.46-12,19.6,19.6,0,0,0-11.63-5.84c-7.51-1.14-14.72.12-21.72,2.68a58.82,58.82,0,0,0-21.26,13.77,113.36,113.36,0,0,0-19,25.55,71.45,71.45,0,0,0-8.55,26.51c-1,8.17-.64,16.36-.82,24.54-.23,10.34-.87,20.65-3.51,30.71a60.08,60.08,0,0,1-17.52,29.09,73.33,73.33,0,0,1-29.06,16.93,53.77,53.77,0,0,1-25.27,1.55,16.09,16.09,0,0,0-1.95-.29c-11.78-.64-22.32-5.26-32.38-10.81a85.43,85.43,0,0,1-21-16A136.8,136.8,0,0,1,9.79,389.36,77.52,77.52,0,0,1,1.52,370c-2-7.57-1.21-15,.87-22.31,3.36-11.91,10.19-21.56,19.67-29.35,3.79-3.12,7.75-6.07,11.83-8.8,7.19-4.81,15.32-7.36,23.66-9.31l29.68-6.94A39.65,39.65,0,0,0,105.43,283c6.23-5.87,7.47-14.14,3.18-21.52-3-5.15-7.25-8.9-13.17-10.32a19.44,19.44,0,0,0-6.3-.58,37.3,37.3,0,0,0-15.33,4.89c-5,2.88-10,5.55-15.1,8.24a39,39,0,0,1-12.66,3.78A20.19,20.19,0,0,1,35,266.1c-1.06-.45-2.13-.85-3.2-1.27-1.06-.73-2.27-1.29-2.8-2.62A8.62,8.62,0,0,0,28,260.5c-4.94-7.19-5.56-14.84-2.44-22.89.23-.61.44-1.23.68-1.84a4.81,4.81,0,0,1,.59-.69,10.92,10.92,0,0,1,2.45-.55c12.28-.26,24.56-.66,36.83-.6,6.7,0,13.39.95,20.09,1.38,9.8.64,19.62,1.08,29.41,1.81,8.49.63,17,1.36,25.43,2.42A172.27,172.27,0,0,0,172.43,241a94.54,94.54,0,0,1,13.25.2c8,.66,16,0,24,.38,1.8.07,3.6.14,5.39.32a58.63,58.63,0,0,0,13.24.24c1.6-.2,3.25-.44,4.81.38,2.44,1.29,4.05.23,5.23-1.93l.84-1.31c.45-.08.89-.17,1.34-.22,1.32-.13,1.32-.12.87-1.68,1-4.27.47-8.81,2.28-13,.35-.81,0-1.92,0-2.89q-.14-6.57-.29-13.14c0-1.46-.11-2.92-.2-4.38-.16-2.75-.49-5.51-.5-8.27,0-4.71.16-9.42.24-14.13a3.16,3.16,0,0,0-.08-1,12.38,12.38,0,0,1,.56-7.67c-.77-2.09-1.88-3.74-1.88-5.39,0-5.68-.5-11.39.48-17.06.25-1.44.29-2.92.43-4.38,1-1.25.92-1.36-.73-2.06.08-1,.17-2,.25-2.94,1.62-1.49,1.44-3.47,1.24-5.35-.06-.58-1-1.07-1.52-1.6,0-.65.11-1.3.16-2a2.24,2.24,0,0,0,2.14-2.27c.16-2.76.35-5.52.32-8.29,0-1.18-.13-2.28.69-3.22,1.53-1.76,1.59-3.83,1.39-6a19,19,0,0,1,2.2-10.3c1.1-2.18,1.75-4.19,1.25-6.51a4.17,4.17,0,0,1,.68-3.72,9.3,9.3,0,0,0,1.9-7.78,4.54,4.54,0,0,1,.12-1.46,12,12,0,0,0-1-7.17,7.14,7.14,0,0,1-.67-5.24c.45-1.41.31-2.93.63-4.26.89-3.75,1.76-7.68,5.45-10a9.77,9.77,0,0,0,4.65-6.06,8.67,8.67,0,0,1,3.62-5.09,39.57,39.57,0,0,1,6.58-4.2c4.2-1.82,8.58-3.2,13.3-2.09,1.46.34,3,.68,3.54,2.24s-.62,2.74-1.79,3.7a2.91,2.91,0,0,1-.42.25c-4.53-2.54-8.46-1-12.17,1.84a27,27,0,0,0-2.16,2,54.47,54.47,0,0,1-4.89,4.73c-3.28,2.48-5.57,5.45-6,9.65l-.92,1.44c1,1.93.32,4,.45,6-.24,1.17-.45,2.34.37,3.39a116.74,116.74,0,0,0-1.72,18c0,10.87,1.4,21.56,2.94,32.25a176.39,176.39,0,0,0,7.4,29.52,28.45,28.45,0,0,0,7.1,11.63,8.49,8.49,0,0,0,12.64-.3,19.81,19.81,0,0,0,2.82-4,39.13,39.13,0,0,0,4.44-14c1.18-10.59,2.38-21.19.27-31.81-.1-.48-.08-1-.14-1.47-1.49-11.71-2-23.49-2.41-35.28-.19-5.73-.43-11.46-.64-17.18,1.26-.11,2.2-.6,2.28-2a2.35,2.35,0,0,0-1.24-2.44A12.62,12.62,0,0,0,292.6,56l-4-9c5.72.09,5.72.09,7,5.32,2.32.5,4.51,1,6.7,1.46a1.87,1.87,0,0,0,2.37-1.8c0-.81-.25-1.62-.24-2.43a8.94,8.94,0,0,1,.29-3.37,22.63,22.63,0,0,0,1.37-7.2c.3-3.71,2.72-6.17,5-8.67.28-.3.93-.24,1.41-.34a23.76,23.76,0,0,1,.78,2.83A95.34,95.34,0,0,1,313,66.52c-3.32,16.89-3.73,33.75-.28,50.64,1.84,9,4.7,17.66,9.88,25.41,8.71,13,25.23,18.74,39.59,13.05a51.89,51.89,0,0,0,6.08-1.8A78.45,78.45,0,0,0,386,143.42c4.11-3.26,8.21-6.54,12.11-10a91.32,91.32,0,0,0,21.39-27.89C420.79,102.9,421.35,99.94,422.24,97.14ZM195.72,256l-.05-.07c-.43-1.2-1.15-1.37-2.12-.57l-1.88.34-2.13.26-1.9.28a3,3,0,0,0-3.09.27l-2.82-.05a23.82,23.82,0,0,0-2.85-.63c-5.38-.52-10.78-.94-16.16-1.46-8.81-.85-17.63-1.63-26.41-2.67-6.51-.77-13-1.92-19.44-2.89a10.42,10.42,0,0,0-1.47-.13,2.26,2.26,0,0,0-2.33,2.55,18.09,18.09,0,0,0,1.39,4.15c1.44,3.12,3.15,6.13,4.48,9.29a59.85,59.85,0,0,1,3,8.82c1.11,4.5-1,8.31-3.24,12a2.25,2.25,0,0,1-1.1.95c-3.82,1.14-5.54,4.39-7.57,7.36-5.4,7.88-12.65,13.58-21,18.13a12.14,12.14,0,0,1-11.29.5c-3-1.29-6.12-2.34-9.23-3.38-9.19-3.07-16.65.43-23.44,6.3a5.77,5.77,0,0,0-.94,1.14c-1.61,2.28-1.59,4.22.39,6.16a25.22,25.22,0,0,0,4.66,3.56,54.11,54.11,0,0,0,5.33,2.51C59.48,331,62.39,335,64,340a7.7,7.7,0,0,1-1.17,7.46c-1.94,2.42-4,4.73-6.12,7-2.56,2.78-5.68,3.11-9,1.6a46.85,46.85,0,0,1-6.92-3.7,9.68,9.68,0,0,0-11.51-.17,68.85,68.85,0,0,0-9.89,7.25c-5.2,4.85-7.26,10.79-4.64,17.83a58,58,0,0,0,7.59,14.27c3.51,4.8,8.47,7.08,14.08,8.22a6,6,0,0,0,1.77-.13c.33-.4.66-.63.72-.91.3-1.43.61-2.87.79-4.33a48.16,48.16,0,0,1,2.39-10.52,27.63,27.63,0,0,1,9.4-12.32,6.55,6.55,0,0,1,8.81,1,10.16,10.16,0,0,1,2.57,6.73A23.59,23.59,0,0,1,61.25,387c-.86,2.5-1.57,5-1,7.7.4,2.06.46,4.26,1.26,6.15a40.74,40.74,0,0,0,8.94,13.31,34.12,34.12,0,0,0,20.06,9.3,39.24,39.24,0,0,0,21-3.43c4.14-.83,7.48-3.17,10.74-5.67,4.81-3.68,5.52-8.69,4.33-14.12a7.71,7.71,0,0,0-6.65-6.38c-1.13-.19-2.25-.43-3.38-.56q-9.27-1.08-18.54-2.11c-6.55-.72-10.42-5.09-9.81-11.66a26.27,26.27,0,0,1,7.39-16.21c1.24-1.29,2.62-2.45,3.94-3.68a21.5,21.5,0,0,1,13.59,3.09c2.9,1.77,5.82,3.66,9.28,4.28l3.65,1.4,1.25.53a11.09,11.09,0,0,0,5.87.56l1.27-.34c6.5-1.89,10.39-6.41,10.94-12.87.41-5-.06-9.83-2.5-14.31a76.44,76.44,0,0,0-4.88-8.5,42.17,42.17,0,0,1-6.19-12.74,21.25,21.25,0,0,1,1.77-17.54,67,67,0,0,1,7.4-10.36A97.56,97.56,0,0,1,159,277a236.25,236.25,0,0,1,20.62-12.37c1.68-.91,3.7-1.46,4.62-3.43l2.11-1-.15.08a6.9,6.9,0,0,1,4.53-1.26c1.12.05,2.24.07,3.36.09,1.09.69,1.85.47,2.21-.81.08-.39.17-.78.25-1.17Zm185.65-56.34a71.34,71.34,0,0,1-24.71,5.19c-1.3.05-2.6.08-3.89.25a1.61,1.61,0,0,0-1.43,1.69,1.41,1.41,0,0,0,1.5,1.56c3.25-.09,6.5-.19,9.72-.52,3.88-.41,7.76-.92,11.59-1.65A6.06,6.06,0,0,1,380.3,208l4.66-1.85a49.61,49.61,0,0,1,12.05.42,19.5,19.5,0,0,0,8.63-.19l2-.16,2-.29a8.19,8.19,0,0,0,2.4.13,121.66,121.66,0,0,0,11.79-3.28,70.28,70.28,0,0,0,23.58-14.67,33.81,33.81,0,0,0,8.28-10.77l.79-1.29a25.14,25.14,0,0,0,7.32-15.74c.24-1.56.48-3.12.73-4.67,1-4.35.27-8.7,0-13,0-.3-.28-.57-.43-.85,0-5-2.14-9.49-3.82-14a22.13,22.13,0,0,0-11-12.6c-.87-.44-1.68-1-2.51-1.5a16.22,16.22,0,0,0-6.16-3.56l-2.37-1.09c-1.66-1.4-3.39-2.53-5.73-1.65a8.06,8.06,0,0,1-.89,2.35c-1.48,1.81-1,3.56-.35,5.52a48.65,48.65,0,0,1,1.52,24.68c-.45,2.24-1.16,4.42-1.67,6.65A32,32,0,0,1,424.44,160c-3.34,4-6.83,7.92-10.38,11.75-7.56,8.16-15.29,16.14-24.19,22.87Zm-60.76,48.08c-.05-2.18,0-3.82-.11-5.45-.27-5.76-1.76-11.29-3.19-16.84a42.13,42.13,0,0,0-8.8-16.81,14.22,14.22,0,0,0-12.09-5.4,42.19,42.19,0,0,0-7.25,1c-4.46,1-8.82,2.71-13.32,3.34s-8.76,2.62-13.14,3.87a5.06,5.06,0,0,0-3.83,5.61c.2,3.1.39,6.2.84,9.26a13.63,13.63,0,0,1,0,4.85c-3.12,15.07.78,28.13,11.13,39.43A44.91,44.91,0,0,0,281.67,279a13.29,13.29,0,0,0,11.35,1.1,29.81,29.81,0,0,0,11.38-6.59c3.57-3.36,7.13-6.8,9.61-11.09,1.72-3,3.31-6,4.74-9.12A47.45,47.45,0,0,0,320.61,247.71ZM49.68,257.15a20.64,20.64,0,0,0,2.1-.06c3.87-.44,5.83-3,5.09-6.8a40,40,0,0,0-1.66-5.64,6.92,6.92,0,0,0-3-3.78c-1-.59-1.86-1.29-2.8-1.93-1.52-1-2.88-.94-3.83.46A19.41,19.41,0,0,0,42.07,249C41.75,253.56,44.66,256.74,49.68,257.15Zm209-191.59a4.57,4.57,0,0,0-.66-.47s-.29.2-.27.26a3.23,3.23,0,0,0,.33.64Z" style="fill:#d9d0c3"/><path d="M321.41,482.93a6.88,6.88,0,0,1,5.55-.08c1.73-2.43,3.36-4.66,4.93-6.92,1.13-1.62,2.07-3.25,1.44-5.44-.48-1.67.66-2.76,2-3.51a6.19,6.19,0,0,1,1.85-.61,4.33,4.33,0,0,0,3.64-3.46,8,8,0,0,1,1.74-2.91,5.44,5.44,0,0,0,.57-7.2,10.87,10.87,0,0,1-1.84-8.3,3.34,3.34,0,0,0-.25-1.91c-2-3.81-.64-7.69-.2-11.51.15-1.35,1.19-2.59,1.75-3.73-.66-2-2.24-1.91-3.65-2.24-2.83-.67-3.41-1.18-3.18-4,.37-4.5-1.83-7.75-4.64-10.8a9,9,0,0,1,9.73,1.14,17.42,17.42,0,0,1,6.17,8.64,60.16,60.16,0,0,1,2.51,23.29,60.77,60.77,0,0,0-.17,10.79,21.18,21.18,0,0,0,9,16.11c5.55,4.09,11.55,4.26,17.72,2.14,3.67-1.26,5.27-5.13,4.06-8.87a27.7,27.7,0,0,0-1.21-2.67,24.19,24.19,0,0,1-1.18-16.34,8.53,8.53,0,0,1,4.46-5.57,11.82,11.82,0,0,1,6.63-1.45,14.16,14.16,0,0,1,8.92,3.68c2.88,2.66,5.61,5.49,8.3,8.34,6.82,7.22,14.93,10.92,25.06,9.83,6.28-.67,10.66-3.44,13.15-9.43,4.19-10.12,6-20.43,3.07-31.16-1.33-4.89-3-9.69-4.83-14.42a30.06,30.06,0,0,0-10.16-13.62,57.3,57.3,0,0,0-5.7-3.83c-6.84-4-14.28-6.56-21.86-8.69-5.51-1.55-11.09-2.84-16.66-4.18-9.72-2.32-19.45-4.57-29.17-6.89-2.7-.65-5.41-1.32-8-2.23-6.82-2.36-11.41-6.86-13-14.1,3.05.62,5.45,2.11,6.58,5.28a21,21,0,0,0,3.4.66c2.59.08,4.34,1.11,5.11,3.7a5.83,5.83,0,0,0,2.63,3.58l6.4-.26c1.44-2.48,4.13-2.91,6.61-3.55a4.24,4.24,0,0,1,3.23.49c2.74,2.09,5.76,2.07,8.89,1.71,5.89-.68,5.83-.65,2.87-5.81-1-1.77-2.05-3.2-4.16-3.85a7.84,7.84,0,0,1-3-2.32c-1.46-1.54-2.73-3.26-4.13-4.86a3.4,3.4,0,0,0-4.38-.93c-2.95,1.28-3.68.64-3.33-2.53,0-.32,0-.64,0-1.21a13.44,13.44,0,0,1-2.52-2.68,8.76,8.76,0,0,0-5.54-4.46c-2.13-.66-2.43-1.6-1.82-3.76.31-1.1.63-2.19.94-3.29,7.06,7.32,15.32,13.05,24.05,18.13,11.59,6.76,23.27,13.34,34.92,20,14.65,8.35,29.59,16.21,43.69,25.48a77.39,77.39,0,0,1,18.09,15.73,38.5,38.5,0,0,1,7,13.4c3.24,11,1.1,21.05-5.81,30.12a76.28,76.28,0,0,1-20,17.93c-8,5.14-16.67,9-25.33,13A152.06,152.06,0,0,1,384.58,493a138.67,138.67,0,0,1-31.34-.69A115.72,115.72,0,0,1,323,484,9.82,9.82,0,0,1,321.41,482.93Zm37.86-6.44-3.65-3c-5.7,1-6.14,1.16-9.25,4.13.92,2.74,1,3.13,2.7,4.37,2.49,1.8,5.18,3.32,7.76,5a7.9,7.9,0,0,0,6,1.23,14.17,14.17,0,0,1,4.36-.09c2.55.34,4-.72,4.83-3,.3-.89.55-1.8.88-2.89-3.52-2-7-3.73-9.34-7.11ZM338.9,416.61c-.29.21-.89.4-1,.74-.37,1.32,1.05,3.51,2.36,3.65a1.41,1.41,0,0,0,1.08-.74C341.86,418.8,340.67,417,338.9,416.61Z" style="fill:#ded4c6"/><path d="M290.69,465.12c.95-.21,2-.81,2.81-.58,3.57,1,7.12,2.18,10.57,3.55a7.38,7.38,0,0,1,4.82,5.7,7,7,0,0,0,.65,1.46c1.14.39,2.38.74,3.56,1.23.93.38.88,1.26,0,2.72A97.77,97.77,0,0,1,290.69,465.12Z" style="fill:#ded4c6"/><path d="M286.48,44.74a2.91,2.91,0,0,0,.42-.25c1.17-1,2.32-2.07,1.79-3.7s-2.08-1.9-3.54-2.24c-4.72-1.11-9.1.27-13.3,2.09a39.57,39.57,0,0,0-6.58,4.2,8.67,8.67,0,0,0-3.62,5.09A9.77,9.77,0,0,1,257,56c-3.69,2.3-4.56,6.23-5.45,10-.32,1.33-.18,2.85-.63,4.26a7.14,7.14,0,0,0,.67,5.24,12,12,0,0,1,1,7.17,4.54,4.54,0,0,0-.12,1.46,9.3,9.3,0,0,1-1.9,7.78,4.17,4.17,0,0,0-.68,3.72c.5,2.32-.15,4.33-1.25,6.51a19,19,0,0,0-2.2,10.3c.2,2.18.14,4.25-1.39,6-.82.94-.7,2-.69,3.22,0,2.77-.16,5.53-.32,8.29a2.24,2.24,0,0,1-2.14,2.27,19.91,19.91,0,0,1-2-1.34c-1.53-1.29-1.68-2.16-.79-3.79.54-1,1.11-2,1.64-2.95a7.81,7.81,0,0,0,.16-7.5,6.41,6.41,0,0,1-.2-6,7.49,7.49,0,0,0,.21-2.86c0-2-.12-3.89,0-5.83.18-2.76.54-5.51.82-8.26l2.28.87c1.88.7,3.13-.07,4.09-1.84-.71-1.58-1.67-2.74-3.68-2.36l-2.41.42c-.35-3.84-.62-7.7-1.09-11.52-.27-2.11-.5-4.08.41-6.15.62-1.42,0-2.33-1.47-3.09a8.73,8.73,0,0,0-1.88-.42c.13-1,.25-1.94.38-2.91,2-3,1.7-6.42,1.37-9.77,0-.42-.95-.75-1.45-1.12.84-2.86,1.69-5.71,2.53-8.57l1.21-3c.76-1.75,1.53-3.5,2.29-5.26,1.26-1.85,2.56-3.68,3.77-5.57,2.86-4.47,5.7-8.95,10-12.21a14.86,14.86,0,0,0,3.16-1.06,30.85,30.85,0,0,0,3.45-2.73c2.51-2,4.76-4.59,8.52-4a2.49,2.49,0,0,0,1.35-.54,4.15,4.15,0,0,1,3.73-.12,5,5,0,0,0,3.27.23c3.42-1.65,6.61-.89,9.95.16a10.77,10.77,0,0,0,5.27.54c2.95-.66,4.63.6,6.32,3-1.82,2.31-1.72,5-1.48,7.8,0,.32-.06.65-.06,1,0,.95-.23,2.2,1.07,2.29.59.05,1.36-.77,1.83-1.36a4.47,4.47,0,0,0,1-2.18c.24-2.56,1.83-3.67,4.07-4.22A30.94,30.94,0,0,1,312.58,30c-.48.1-1.13,0-1.41.34-2.32,2.5-4.74,5-5,8.67a22.63,22.63,0,0,1-1.37,7.2,8.94,8.94,0,0,0-.29,3.37c0,.81.24,1.62.24,2.43a1.87,1.87,0,0,1-2.37,1.8c-2.19-.46-4.38-1-6.7-1.46-1.27-5.23-1.27-5.23-7-5.32Z" style="fill:#d5cbbe"/><path d="M237.92,69.54a8.73,8.73,0,0,1,1.88.42c1.51.76,2.09,1.67,1.47,3.09-.91,2.07-.68,4-.41,6.15.47,3.82.74,7.68,1.09,11.52-.1,1-.19,1.94-.28,2.91-.28,2.75-.64,5.5-.82,8.26-.12,1.94,0,3.88,0,5.83a7.49,7.49,0,0,1-.21,2.86,6.41,6.41,0,0,0,.2,6,7.81,7.81,0,0,1-.16,7.5c-.53,1-1.1,2-1.64,2.95-.89,1.63-.74,2.5.79,3.79a19.91,19.91,0,0,0,2,1.34c-.05.66-.11,1.31-.16,2a38.47,38.47,0,0,0-.38,4.27,11.92,11.92,0,0,0,.66,2.68c-.08,1-.17,2-.25,2.94.24.68.48,1.37.73,2.06-.14,1.46-.18,2.94-.43,4.38-1,5.67-.47,11.38-.48,17.06,0,1.65,1.11,3.3,1.88,5.39a12.38,12.38,0,0,0-.56,7.67,3.16,3.16,0,0,1,.08,1c-.08,4.71-.26,9.42-.24,14.13,0,2.76.34,5.52.5,8.27.09,1.46.16,2.92.2,4.38q.17,6.57.29,13.14c0,1,.36,2.08,0,2.89-1.81,4.16-1.26,8.7-2.28,13-2.55-.56-3.48-2.46-3.45-4.72,0-3.43.4-6.85.62-10.27a13.59,13.59,0,0,0,.19-3.9c-1.71-7.23-1.48-14.62-1.94-22-.33-5.21-.46-10.45-.49-15.68A119.61,119.61,0,0,0,235,163.71c-.49-3.23-.76-6.5-1-9.77-.54-9.31-1-18.63-1.5-27.95-.83-14.56-1.15-29.11.3-43.66.31-3.09.45-6.21.75-9.3a28.58,28.58,0,0,1,.73-3.38Z" style="fill:#c3bbb2"/><path d="M238.22,55.74c.5.37,1.41.7,1.45,1.12.33,3.35.64,6.74-1.37,9.77C235.65,63,236.3,59.38,238.22,55.74Z" style="fill:#c3bbb2"/><path d="M242,44.19l-1.21,3-2.69-.37a6.37,6.37,0,0,1,2-4.23Z" style="fill:#706578"/><path d="M235.21,47.63l1.92.88c-.49,1-1,2-1.54,3.13C234.89,49.85,234.89,49.85,235.21,47.63Z" style="fill:#706578"/><path d="M239.23,239.26l-.84,1.31Z" style="fill:#c3bbb2"/><path d="M259.26,522.32c-1.59-.15-3.26-.72-4.59.75-2.48-1.25-2.1-3.25-1.39-5.33.87-.47,1.13-1.08.42-1.9.13-.64.27-1.29.41-1.94,1.63-.76,1.65-1,.18-2a7.06,7.06,0,0,1,1-5.77c2.12-.53,3.44-1.64,3.53-4.06s.43-4.89.67-7.34a3.78,3.78,0,0,0-.85-3.21,27.87,27.87,0,0,1,.28-3.32c.43-2,2-2.95,4-2a27.54,27.54,0,0,1,4.15,3.06c.05,1.61.1,3.23.16,5.14-5.05,2.15-5.4,6.93-6.27,11.87l3.49.62a2.27,2.27,0,0,1,.76.42,6.45,6.45,0,0,1-4,5.64,34.57,34.57,0,0,0-3.26,2c-.69,2.35,1.12,3.67,1.88,5.35Z" style="fill:#5d536c"/><path d="M164.74,488.34l-.5.54a4,4,0,0,1-.41-.6s.2-.31.25-.29A4.66,4.66,0,0,1,164.74,488.34Z" style="fill:#5d536c"/><path d="M287.33,531l3.41.38C289.17,532.65,288.76,532.6,287.33,531Z" style="fill:#706578"/><path d="M290.78,531.41a2,2,0,0,1,1-2.11C292.36,530.44,292.05,531.16,290.78,531.41Z" style="fill:#706578"/><path d="M204.91,501c.41.64.8,1,.85,1.39s-.24.8-.39,1.21c-.28-.33-.72-.62-.8-1A5.05,5.05,0,0,1,204.91,501Z" style="fill:#5d536c"/><path d="M253.7,515.84c.71.82.45,1.43-.42,1.9Z" style="fill:#706578"/><path d="M254.29,511.85c1.47,1,1.45,1.29-.18,2Z" style="fill:#706578"/><path d="M258.05,21.15c-4.33,3.26-7.17,7.74-10,12.21-1.21,1.89-2.51,3.72-3.77,5.57l-1.32-1.57a23.31,23.31,0,0,1,1.58-3.56c5.18-7.81,10.81-15.25,18.4-20.94A96,96,0,0,1,277.37,3.6c6.46-3.23,13.1-3.93,20-1.48.76.27,1.58.41,2.37.61l3.35,1.41-.13.29a53.5,53.5,0,0,1,8.1,11c.3.69.59,1.37.89,2l2.13,6.18.63,2.13c.24,1,.49,1.93.73,2.89.28,1.37.55,2.74.83,4.11.07.6.14,1.21.2,1.82.14,1.36.27,2.71.41,4.06,0,.64.07,1.28.11,1.92.14,1.34.27,2.68.41,4s0,2.62,0,3.93c-.29,3.58-.42,7.18-.9,10.73-.84,6.16-2,12.28-2.86,18.43a82,82,0,0,0-.61,19l.15,2.77a33.2,33.2,0,0,0,.9,10l.39,2c.1,1.11-.22,2.35,1,3.12l-.09,0a6.73,6.73,0,0,0,.68,4.91c.25,1,.5,1.95.76,2.93l.69,2.16a41,41,0,0,0,7.24,16c7.86,11.2,18.7,15.85,32.29,14,1.29-.17,2.58-.39,3.87-.59l1.33,1.5c-14.36,5.69-30.88,0-39.59-13.05-5.18-7.75-8-16.39-9.88-25.41-3.45-16.89-3-33.75.28-50.64a95.34,95.34,0,0,0,.37-33.65,23.76,23.76,0,0,0-.78-2.83,30.82,30.82,0,0,0-3.05-10.15L308.9,18l-.57-1.12c-1.41-2.17-2.83-4.33-4.23-6.5A11.45,11.45,0,0,0,299,6.07c-6.39-2.72-13-3.45-19.53-.61a68.81,68.81,0,0,0-20.2,13.62A8.94,8.94,0,0,0,258.05,21.15Z" style="fill:#706578"/><path d="M362.18,155.62l-1.33-1.5a12.3,12.3,0,0,1,2.09-1.23c18.42-6.71,32.77-18.86,45-33.74a71.41,71.41,0,0,0,11-19.1c.42-1,.93-2.07,1.4-3.11l1.91.2c-.89,2.8-1.45,5.76-2.73,8.36a91.32,91.32,0,0,1-21.39,27.89c-3.9,3.49-8,6.77-12.11,10a78.45,78.45,0,0,1-17.75,10.4A51.89,51.89,0,0,1,362.18,155.62Z" style="fill:#7d7285"/><path d="M337.94,350.85c1.58,7.24,6.17,11.74,13,14.1,2.62.91,5.33,1.58,8,2.23,9.72,2.32,19.45,4.57,29.17,6.89,5.57,1.34,11.15,2.63,16.66,4.18,7.58,2.13,15,4.7,21.86,8.69a57.3,57.3,0,0,1,5.7,3.83,30.06,30.06,0,0,1,10.16,13.62c1.8,4.73,3.5,9.53,4.83,14.42,2.94,10.73,1.12,21-3.07,31.16-2.49,6-6.87,8.76-13.15,9.43-10.13,1.09-18.24-2.61-25.06-9.83-2.69-2.85-5.42-5.68-8.3-8.34a14.16,14.16,0,0,0-8.92-3.68,11.82,11.82,0,0,0-6.63,1.45,8.53,8.53,0,0,0-4.46,5.57,24.19,24.19,0,0,0,1.18,16.34,27.7,27.7,0,0,1,1.21,2.67c1.21,3.74-.39,7.61-4.06,8.87-6.17,2.12-12.17,1.95-17.72-2.14a21.18,21.18,0,0,1-9-16.11,60.77,60.77,0,0,1,.17-10.79A60.16,60.16,0,0,0,347,420.12a17.42,17.42,0,0,0-6.17-8.64,9,9,0,0,0-9.73-1.14c-3.37,1.48-5.33,4.35-6.82,7.46-2.42,5-4.24,10.22-4.26,16a70.29,70.29,0,0,1-2.14,17.53c-.69,2.6-1.63,5-3.7,6.78a13.15,13.15,0,0,1-3.32,2,3.17,3.17,0,0,1-4-.87c-1.45-1.78-3-3.46-4.37-5.32-2.86-4-5.59-8.07-8.4-12.11A59.77,59.77,0,0,1,284.45,420c-1.35-6.41-2.61-12.85-4.15-19.21-3.33-13.74-7.7-27.1-15.09-39.3-.76-1.26-1.51-2.53-2.2-3.84-.8-1.5-1.2-3.06-.09-4.62s2.61-.87,4-.65a15.58,15.58,0,0,1,.57,1.71c.39,1.66,1.5,1.64,2.79,1.25,1.14,2.11-1.3,2.63-2,4.19,1.18,2.25,2.51,4.5,3.57,6.86a151.24,151.24,0,0,1,9.22,25.85q3.32,13.57,6.35,27.23a57.35,57.35,0,0,0,8.8,20.1q4.74,6.86,9.58,13.64a21.9,21.9,0,0,0,2.58,2.95,2.11,2.11,0,0,0,3.09,0,9.77,9.77,0,0,0,2.33-3.06,27.86,27.86,0,0,0,1.75-6.11,105.86,105.86,0,0,0,1.32-11.2,68.08,68.08,0,0,1,1.92-13.57l3.5-7.56.63-1.76c.68-.67,1.4-1.29,2-2,3.08-3.63,6.75-5.47,11.66-4.41A16.09,16.09,0,0,1,349,417.29c2.37,6.47,4,13.16,3.68,20.16-.18,4.25-.28,8.5-.45,12.75-.28,6.88,2.56,12.42,7.51,16.92,3.66,3.33,8.09,4.14,12.85,3a8.46,8.46,0,0,0,2.59-1.28,3.6,3.6,0,0,0,1.58-4.28c-.36-1.25-.93-2.45-1.35-3.68a27.92,27.92,0,0,1-.49-17.83c1.53-4.89,5.17-7.43,10-8.24,6.1-1,11.34,1.09,15.8,5.11,2.54,2.29,4.82,4.88,7.19,7.37,6.47,6.82,14.11,10.37,23.74,9.09,4.33-.58,7.4-2.66,9.17-6.48a54,54,0,0,0,3.57-9.64c1.76-7.08,2.1-14.28,0-21.36-1.42-4.69-3.23-9.27-4.9-13.89a25.44,25.44,0,0,0-4.52-7.54c-4.75-5.73-11-9.22-17.73-11.91-10.55-4.18-21.52-6.82-32.58-9.15-4.8-1-9.55-2.25-14.34-3.31-6.55-1.46-13.11-2.86-19.67-4.28L348,368c-1.62-1.08-3.27-2.12-4.86-3.26a21,21,0,0,1-6.75-8.09c-1.59-3.28-2.24-6.75-3.31-10.13-.28-5.72-.42-11.45-.88-17.16-.64-8-1.46-16-2.31-23.94-.41-3.91-1-7.8-1.62-11.68a16.14,16.14,0,0,0-1-2.74,4.58,4.58,0,0,0-3.24,4.2,52.8,52.8,0,0,0-.44,8.79c.33,6.54,1,13.06,1.43,19.59.26,3.59.57,7.18.65,10.78a46.16,46.16,0,0,1-.47,6.84,1.84,1.84,0,0,1-2.55,1.56,14.34,14.34,0,0,1-3.52-1.65,27,27,0,0,1-7.26-7.24A54.74,54.74,0,0,1,304,316c-1.22-5.26-2.08-10.6-3.17-15.89-.27-1.36-.24-2.89-1.21-3.89a3.08,3.08,0,0,0-.79.11,3.42,3.42,0,0,0-.79.56c-2.92,2.87-3.78,6.52-3.48,10.37a73,73,0,0,0,1.67,10.16,92,92,0,0,1,2.08,29.25,21.82,21.82,0,0,1-.32,2.43c-.44,2.11-1.68,2.89-3.56,1.85a29.14,29.14,0,0,1-6-4.16,28.55,28.55,0,0,1-9.55-22.28l2,1.18c.95,2.95,1.88,5.9,2.84,8.84A22.27,22.27,0,0,0,292,345.76a4.83,4.83,0,0,0,1.3.66,4.68,4.68,0,0,0,1.31,0,6.92,6.92,0,0,0,.82-2,69.28,69.28,0,0,0,.4-7.34,87.74,87.74,0,0,0-3.2-23.28,26.9,26.9,0,0,1-.94-9.71c.4-5.42,3.38-9.45,6.92-13.18a2.2,2.2,0,0,1,3.65.73,57.92,57.92,0,0,1,1.61,7.16c.76,4.35,1.23,8.75,2.13,13.07,1.31,6.27,3.2,12.39,6.7,17.83a55.52,55.52,0,0,0,5.53,6.84,3.77,3.77,0,0,0,3.64,1.53,6.41,6.41,0,0,0,.67-1.6,14.37,14.37,0,0,0,.15-2.93c-.53-10.29-1.11-20.58-1.62-30.87a58.31,58.31,0,0,1,0-7.82c.35-3.9,2.64-6.6,6-8.44a2.39,2.39,0,0,1,3.62,1.27,6.64,6.64,0,0,1,.55,1.88c.63,5.35,1.3,10.71,1.8,16.08.57,6,.94,12.06,1.49,18.08.31,3.42.79,6.82,1.2,10.23l.15,4.87.3,1.86a47.38,47.38,0,0,0,.08,5.2c.19,1.71.44,3.49,2,4.66Z" style="fill:#706578"/><path d="M464.51,155.61c-.25,1.55-.49,3.11-.73,4.67-1.14-.05-2.28-.18-3.41-.12a2.7,2.7,0,0,0-2.9,2.69c-.21,1.59-.15,3.22-.21,4.88a13.13,13.13,0,0,0-6.21,8.7l-.61,1.44c-1.82.53-2.14,2.26-3,3.61-1.34,2.16-3,3.84-5.89,3.37,1-1.26,2.73-2.3,1.59-4.8-2.78,1.69-4.38,4.19-6.44,6.16a6.57,6.57,0,0,0-.91,1.69l2.18.41a2.29,2.29,0,0,1-1.83,2c-1.77.54-3.62,1.55-4.11,3.19-.91,3-3.33,4.37-5.58,5.78-4.43,2.78-9.12,5-14.62,4.49a11.87,11.87,0,0,0,1.92-1.41,9.9,9.9,0,0,1,6.87-3.08,6.77,6.77,0,0,0,2.3-.68c.32-.16.45-.71.92-1.52a35.29,35.29,0,0,0-3.54.07,3.51,3.51,0,0,1-2.71-.51c-2.05-1.41-2.1-1.33-4.3.44-2.91-1-2.91-1-1.74-4.41a38.72,38.72,0,0,0,4.93-1.9A43.94,43.94,0,0,0,421,187.6c.13-1.76-1.1-2.38-2.12-3.15,2.06-1.5,4.15-3,6.17-4.54a1.26,1.26,0,0,0,.15-2.14l-3.82,1.52-.31-.36c0-.84.83-1.94-1-2.45l-5.55,7.79a2.57,2.57,0,0,0-2.09,1.79c-2.2.08-3.87,1-5.45,3.37l2.41-.33c-.79,1.58-2.18,3.14-2.24,4.75-.14,3.58-1.85,5.29-5.09,6.1a12.86,12.86,0,0,0-3.09,1.47,12.73,12.73,0,0,0-1.7,1.55,10,10,0,0,0,2.8.66,15.62,15.62,0,0,1,6.24.2c.23.06.58-.25.87-.38l4.68.31-2.23,2.14-2,.29c-.75-1-1.41-.74-2,.16a19.5,19.5,0,0,1-8.63.19,49.61,49.61,0,0,0-12.05-.42,6,6,0,0,0-1.22-.75,1.75,1.75,0,0,1-1.32-2.22c2.66-1.56,5.38-3.05,7.95-4.75.7-.46,1-1.58,1.43-2.4a9.85,9.85,0,0,0,6-4,17.74,17.74,0,0,1,5.24-4.35c1.54-.88,3.44-1.92,4.1-3.37,1.25-2.78,3.63-4.12,5.72-5.9,1.25-1.05,2.45-2.16,3.62-3.31,2.49-2.45,3.84-6.15,7.76-7.05.27-.06.51-.42.67-.69,2-3.51,5-6.56,5.6-10.82a30.34,30.34,0,0,1,1.1-3.76c.77-2.71,1.69-5.31,4.36-6.84a3.44,3.44,0,0,0,1.59-2.9c.07-1,.07-2,.11-2.94l-.12-9.59c0-1.6.44-3.36-.08-4.76-1.07-2.86-.81-5.73-.86-8.62l0-4.83a3.35,3.35,0,0,1,1.65-3.34l2.37,1.09c1.31,3.39,1.07,7.21,3,11.25a10.2,10.2,0,0,0,.75-2.19c0-2.17.34-4.2,2.37-5.5.83.5,1.64,1.06,2.51,1.5a22.13,22.13,0,0,1,11,12.6c1.68,4.56,3.85,9,3.82,14-2.69,3.53-2.86,7.45-1.79,11.56A3,3,0,0,0,464.51,155.61Zm-62.3,36.53,1.06-.9.17-.38-.27.26-1.08.88-.31.21.16.19Zm52.48-42.46c2.1-1.41,2.4-2.41,1.2-4.08a1,1,0,0,0-.83-.23c-.26,0-.67.35-.67.53,0,1.24.15,2.49.24,3.73-.32,0-.64.06-1,.06-.87,0-1.71.19-1.76,1.19s.71,1.44,1.58,1.46a5.8,5.8,0,0,0,1.68-.49C455,150.93,454.82,150.3,454.69,149.68ZM440,147.8a3,3,0,0,0,.09,3.27c1.77-.1,2-1.22,1.74-2.67a5.68,5.68,0,0,0,1.3-5c-.14-.65-.05-1.63-.94-1.57Zm19-15.51c-1,4.54-1,4.85,1.6,7.87a3.58,3.58,0,0,0,.86-3.57C461.16,135.05,461.21,133.3,459,132.29Zm-17.22,27.78c-1.56,2.19-2.43,3.64-2.19,5.5a1.43,1.43,0,0,0,.86,1,1.33,1.33,0,0,0,1.18-.47C442.57,164.51,442.72,162.85,441.75,160.07Zm6.1-17.31c1.52-6.31,1.38-7.32-1.57-9.43C446.89,136.49,446.37,139.19,447.85,142.76ZM428,188.7c-1.24.94-2.16,1.57-3,2.3a4.9,4.9,0,0,0-.72,1.28c1.05,1.17,2.08.76,3,0S429.28,190.67,428,188.7ZM444.89,152a6.78,6.78,0,0,0,.63-4.95c-.09-.44-.56-.81-.86-1.21C444.19,147.93,443.07,149.94,444.89,152Zm-9.15,5.17c1.75-1.09,2.71-2.31,2.88-4A1.67,1.67,0,0,0,438,152a.93.93,0,0,0-.88.13A4.69,4.69,0,0,0,435.74,157.14Zm-39.9,40.59a5.17,5.17,0,0,0,4.27-2c.22-.29.11-.86,0-1.28,0-.11-.62-.23-.84-.13A6.29,6.29,0,0,0,395.84,197.73Zm52.5-75.85a1.57,1.57,0,0,0-.39.19c-.1.1-.22.3-.19.39.28.68.59,1.35.89,2,.12-.08.34-.16.33-.24,0-.73-.11-1.47-.21-2.2C448.76,122,448.49,121.93,448.34,121.88Z" style="fill:#2f2e3a"/><path d="M60.23,394.67c-.55-2.68.16-5.2,1-7.7a23.59,23.59,0,0,0,1.59-7.66,10.16,10.16,0,0,0-2.57-6.73,6.55,6.55,0,0,0-8.81-1,27.63,27.63,0,0,0-9.4,12.32,48.16,48.16,0,0,0-2.39,10.52c-.18,1.46-.49,2.9-.79,4.33-.06.28-.39.51-.72.91a6,6,0,0,1-1.77.13c-5.61-1.14-10.57-3.42-14.08-8.22a58,58,0,0,1-7.59-14.27c-2.62-7-.56-13,4.64-17.83a68.85,68.85,0,0,1,9.89-7.25,9.68,9.68,0,0,1,11.51.17,46.85,46.85,0,0,0,6.92,3.7c3.31,1.51,6.43,1.18,9-1.6,2.1-2.29,4.18-4.6,6.12-7A7.7,7.7,0,0,0,64,340c-1.57-5.08-4.48-9.08-9.43-11.36a54.11,54.11,0,0,1-5.33-2.51,25.22,25.22,0,0,1-4.66-3.56c-2-1.94-2-3.88-.39-6.16a5.77,5.77,0,0,1,.94-1.14c6.79-5.87,14.25-9.37,23.44-6.3,3.11,1,6.22,2.09,9.23,3.38a12.14,12.14,0,0,0,11.29-.5c8.32-4.55,15.57-10.25,21-18.13,2-3,3.75-6.22,7.57-7.36a2.25,2.25,0,0,0,1.1-.95c2.27-3.67,4.35-7.48,3.24-12a59.85,59.85,0,0,0-3-8.82c-1.33-3.16-3-6.17-4.48-9.29a18.09,18.09,0,0,1-1.39-4.15,2.26,2.26,0,0,1,2.33-2.55,10.42,10.42,0,0,1,1.47.13c6.47,1,12.93,2.12,19.44,2.89,8.78,1,17.6,1.82,26.41,2.67,5.38.52,10.78.94,16.16,1.46a23.82,23.82,0,0,1,2.85.63c.63,1.7.41,3.84,2.5,4.77-.92,2-2.94,2.52-4.62,3.43A236.25,236.25,0,0,0,159,277a97.56,97.56,0,0,0-18.05,15.81,67,67,0,0,0-7.4,10.36,21.25,21.25,0,0,0-1.77,17.54A42.17,42.17,0,0,0,138,333.45a76.44,76.44,0,0,1,4.88,8.5c2.44,4.48,2.91,9.34,2.5,14.31-.55,6.46-4.44,11-10.94,12.87l-1.27.34a11.09,11.09,0,0,1-5.87-.56l-1.25-.53-3.64-1.4,1.88-1.67a48.92,48.92,0,0,0,6.7,1.39,8.51,8.51,0,0,0,4.71-.9c3.66-2.14,6.45-5.11,6.68-9.68a33.2,33.2,0,0,0-.14-5.37c-.63-5.37-3.26-9.94-6.22-14.29a52.59,52.59,0,0,1-6.54-12.06c-2.84-8.14-2.66-16.1,2-23.61a84.59,84.59,0,0,1,17.25-19.38,105.1,105.1,0,0,1,18.95-13.15c3.77-2,7.39-4.25,11.05-6.43.83-.49,1.7-1.1,1-2.47-1.87-.89-4-.74-6.13-1q-20.06-2.08-40.11-4.13c-3.26-.34-6.51-.76-9.78-1-1.73-.14-3.58-.55-5.07.75,0,.3-.1.48-.05.62,2,5.18,4,10.32,5.91,15.54,2.23,6.21.72,12-2.68,17.31a5.49,5.49,0,0,1-2.49,2.27c-3.54,1.17-5.58,3.89-7.61,6.69A65.49,65.49,0,0,1,95,312.18a80.6,80.6,0,0,1-7.28,4.06,8.4,8.4,0,0,1-6.21.7c-1.58-.4-3.11-1-4.65-1.52-3.71-1.29-7.35-2.82-11.13-3.87-7.15-2-12.73,1.36-17.8,5.87a2.21,2.21,0,0,0-.15,3.48,14.88,14.88,0,0,0,3,2.49,42.91,42.91,0,0,0,4.4,2.19c6.08,2.77,9.62,7.66,11.62,13.86a10.12,10.12,0,0,1-1.42,9.34A60.08,60.08,0,0,1,57.29,358a7.64,7.64,0,0,1-4.83,2.12,12.09,12.09,0,0,1-7.12-1.46c-2-1.09-4.07-2.12-6-3.35a8.68,8.68,0,0,0-10.56.44,78.64,78.64,0,0,0-9,7.63,10.09,10.09,0,0,0-3,9.9A44.32,44.32,0,0,0,18,378a47.61,47.61,0,0,0,7.22,12.23,17.36,17.36,0,0,0,7.52,5.34c2,.82,3.21.25,3.7-1.81.57-2.39,1-4.82,1.43-7.23,1.51-8.1,6.45-13.84,12.9-18.45a7.07,7.07,0,0,1,8.75.06c4.15,3.06,7,6.95,6.17,12.53-.23,1.62-.42,3.25-.73,4.85-.59,3.05-1.25,6.08-1.89,9.12Z" style="fill:#5d536c"/><path d="M286.48,44.74l2.18,2.33q2,4.49,3.94,9c.42,1.71.85,3.41,1.28,5.12.21,5.72.45,11.45.64,17.18.39,11.79.92,23.57,2.41,35.28.06.49,0,1,.14,1.47,2.11,10.62.91,21.22-.27,31.81a39.13,39.13,0,0,1-4.44,14,19.81,19.81,0,0,1-2.82,4,8.49,8.49,0,0,1-12.64.3,28.45,28.45,0,0,1-7.1-11.63A176.39,176.39,0,0,1,262.4,124c-1.54-10.69-3-21.38-2.94-32.25a116.74,116.74,0,0,1,1.72-18,3.41,3.41,0,0,0-.37-3.39c-.13-2,.51-4-.45-6l.92-1.44c.41-4.2,2.7-7.17,6-9.65a54.47,54.47,0,0,0,4.89-4.73,27,27,0,0,1,2.16-2C278,43.71,282,42.2,286.48,44.74ZM295,139.15c1.15-7.7.67-15.36-.36-23C293,103.8,292.26,91.39,291.73,79c-.23-5.56-.8-11.1-1.22-16.65A31.6,31.6,0,0,0,287.61,52a8.88,8.88,0,0,0-3.4-4.09c-1.51-1-3.15-1.26-4.6-.17-4.23,3.2-9.29,5.72-10.22,11.81a8.38,8.38,0,0,1-.84,1.77,71.58,71.58,0,0,0-5.13,18.38,111.93,111.93,0,0,0-.3,28.39,187.5,187.5,0,0,0,4.76,28c1.56,6,3.4,11.94,5.22,17.87a21,21,0,0,0,5.23,8.23c3.69,3.85,7.58,3.42,10.57-1.06a4.64,4.64,0,0,0,.25-.42c2-3.76,4-7.54,4.51-11.86C294.06,145.62,294.55,142.39,295,139.15Z" style="fill:#706578"/><path d="M320.61,247.71a47.45,47.45,0,0,1-1.86,5.54c-1.43,3.11-3,6.15-4.74,9.12-2.48,4.29-6,7.73-9.61,11.09A29.81,29.81,0,0,1,293,280.05a13.29,13.29,0,0,1-11.35-1.1,44.91,44.91,0,0,1-10.83-8.36c-10.35-11.3-14.25-24.36-11.13-39.43a13.63,13.63,0,0,0,0-4.85c-.45-3.06-.64-6.16-.84-9.26a5.06,5.06,0,0,1,3.83-5.61c4.38-1.25,8.51-3.21,13.14-3.87s8.86-2.3,13.32-3.34a42.19,42.19,0,0,1,7.25-1,14.22,14.22,0,0,1,12.09,5.4,42.13,42.13,0,0,1,8.8,16.81c1.43,5.55,2.92,11.08,3.19,16.84C320.57,243.89,320.56,245.53,320.61,247.71Zm-5.47,5.93a4,4,0,0,0,2.18-3.1c1.18-5.19,1.55-10.35-1.1-15.28-.52-1.54-1.05-3.08-1.56-4.63-1.06-3.25-1.35-6.74-3.07-9.78a8.46,8.46,0,0,0-1.41-5.38c-.95-1.43-1.85-3-3.87-3.1l-.73-1.06c-.52-2.61-.67-2.76-3.35-3.22-1.8-1.72-4.05-1.49-6.24-1.42-1.57.06-3.14.23-4.71.35-3.23.81-6.49,1.54-9.68,2.51-.77.23-1.31,1.25-2,1.91-1.85,1.3-3.9.83-5.92.7a1.43,1.43,0,0,0-2.15-.17,16.1,16.1,0,0,0-4.43,6.33q-2.32,6.66-4.55,13.36c-2,5.85-1.42,11.46-.42,17.22,1.41,4.35,2.74,8.66,5.26,12.62a66.21,66.21,0,0,0,7.08,8.7,17.12,17.12,0,0,0,9.59,5.5,9.2,9.2,0,0,1,1.88.53c4.44,2,8.36.66,11.93-2.06,4.16-3.17,8.3-6.42,11.12-11,2.56-1.21,3.72-3.56,4.85-5.94C314.31,256,314.72,254.84,315.14,253.64Zm-48.6-40c-3.41.77-3.74.83-4.14,1.72a10.81,10.81,0,0,0-.4,8.43C264.36,220.6,265.09,217.36,266.54,213.64Z" style="fill:#5d536c"/><path d="M436.59,117.09c.05,2.89-.21,5.76.86,8.62.52,1.4.08,3.16.08,4.76-1.67,2.51-1.3,5.42-1.52,8.19-.07.9.86,1.2,1.64,1.4,0,1,0,2-.11,2.94a3.44,3.44,0,0,1-1.59,2.9c-2.67,1.53-3.59,4.13-4.36,6.84a30.34,30.34,0,0,0-1.1,3.76c-.64,4.26-3.56,7.31-5.6,10.82-.16.27-.4.63-.67.69-3.92.9-5.27,4.6-7.76,7.05-1.17,1.15-2.37,2.26-3.62,3.31-2.09,1.78-4.47,3.12-5.72,5.9-.66,1.45-2.56,2.49-4.1,3.37a17.74,17.74,0,0,0-5.24,4.35,9.85,9.85,0,0,1-6,4l-1.93-1.39c8.9-6.73,16.63-14.71,24.19-22.87,3.55-3.83,7-7.73,10.38-11.75a32,32,0,0,0,6.66-13.52c.51-2.23,1.22-4.41,1.67-6.65a48.65,48.65,0,0,0-1.52-24.68c-.63-2-1.13-3.71.35-5.52a8.06,8.06,0,0,0,.89-2.35c2.34-.88,4.07.25,5.73,1.65a3.35,3.35,0,0,0-1.65,3.34l-2.7-.64C435.15,113.88,434.28,116.06,436.59,117.09Z" style="fill:#5d536c"/><path d="M99.49,359.61c-1.32,1.23-2.7,2.39-3.94,3.68a26.27,26.27,0,0,0-7.39,16.21c-.61,6.57,3.26,10.94,9.81,11.66q9.27,1,18.54,2.11c1.13.13,2.25.37,3.38.56a7.71,7.71,0,0,1,6.65,6.38c1.19,5.43.48,10.44-4.33,14.12-3.26,2.5-6.6,4.84-10.74,5.67a1.64,1.64,0,0,1,.38-2.06,7.26,7.26,0,0,0,1-1.5,21.85,21.85,0,0,0,8.87-6c4.72-5.13,2.47-12-4.29-13.5q-1.44-.3-2.91-.48c-5.19-.63-10.38-1.22-15.57-1.86-1.3-.16-2.58-.47-3.88-.63a10.36,10.36,0,0,1-7.22-4.64A14.31,14.31,0,0,1,85,379.67a30.28,30.28,0,0,1,5.8-15.43c2-2.8,4-5.64,7.38-7l2.44.58C100.25,358.43,99.87,359,99.49,359.61Z" style="fill:#706578"/><path d="M409.62,205.9l2.23-2.14v0c5.5.55,10.19-1.71,14.62-4.49,2.25-1.41,4.67-2.75,5.58-5.78.49-1.64,2.34-2.65,4.11-3.19a2.29,2.29,0,0,0,1.83-2v.23l1.12-.92-.05,0c.38-.3.75-.61,1.12-.92l0,.05,1.17-1.41-.05-.34.31-.18c2.87.47,4.55-1.21,5.89-3.37.83-1.35,1.15-3.08,3-3.61.24.54,0,1.35,1.05,1.59.62-1.11,1.19-2.16-.44-3a13.13,13.13,0,0,1,6.21-8.7c.06-1.66,0-3.29.21-4.88a2.7,2.7,0,0,1,2.9-2.69c1.13-.06,2.27.07,3.41.12A25.14,25.14,0,0,1,456.46,176a5.44,5.44,0,0,0-.32-.88c-.13-.24-.44-.66-.51-.62-.39.17-.88.37-1,.71-.51,1.08,0,1.75,1.08,2.08a33.81,33.81,0,0,1-8.28,10.77,70.28,70.28,0,0,1-23.58,14.67A121.66,121.66,0,0,1,412,206,8.19,8.19,0,0,1,409.62,205.9Z" style="fill:#4a435b"/><path d="M280.81,325.66l-2-1.18a41.34,41.34,0,0,1-.86-12,.91.91,0,0,0-.13-.91,17,17,0,0,0-3.11-6.47,1.26,1.26,0,0,0-1.65-.95,8.24,8.24,0,0,0-5.45,6.41,23.34,23.34,0,0,0-.68,6.75c.36,5.69,1,11.36,1.55,17,.7,7,2.18,13.86,1.81,20.91-1.29.39-2.4.41-2.79-1.25a15.58,15.58,0,0,0-.57-1.71c-.49-4.39-1-8.77-1.49-13.16-.33-2.93-.72-5.85-1-8.79-.42-5.22-.82-10.44-1.09-15.67-.13-2.44.05-4.9.1-7.34l-.09-1.54,1.17-1.74,1.3,0c2.15.37,3.36-1.4,5-2.19l4.47.25a11.22,11.22,0,0,1,4.79,9.05C280.41,316,280.6,320.83,280.81,325.66Z" style="fill:#4a435b"/><path d="M49.68,257.15c-5-.41-7.93-3.59-7.61-8.19a19.41,19.41,0,0,1,3.53-9.56c.95-1.4,2.31-1.5,3.83-.46.94.64,1.83,1.34,2.8,1.93a6.92,6.92,0,0,1,3,3.78,40,40,0,0,1,1.66,5.64c.74,3.83-1.22,6.36-5.09,6.8A20.64,20.64,0,0,1,49.68,257.15Z" style="fill:#4a435b"/><path d="M112.85,416.44a7.26,7.26,0,0,1-1,1.5,1.64,1.64,0,0,0-.38,2.06,39.24,39.24,0,0,1-21,3.43,34.12,34.12,0,0,1-20.06-9.3,40.74,40.74,0,0,1-8.94-13.31c-.8-1.89-.86-4.09-1.26-6.15h2.86a28.57,28.57,0,0,0,11.35,18.77c7.36,5.37,15.71,8.4,25.25,6.55C104.19,419.12,108.47,417.66,112.85,416.44Z" style="fill:#7d7285"/><path d="M382.42,203.15a1.75,1.75,0,0,0,1.32,2.22,6,6,0,0,1,1.22.75L380.3,208a6.06,6.06,0,0,0-6.15-1.82c-3.83.73-7.71,1.24-11.59,1.65-3.22.33-6.47.43-9.72.52a1.41,1.41,0,0,1-1.5-1.56,1.61,1.61,0,0,1,1.43-1.69c1.29-.17,2.59-.2,3.89-.25a71.34,71.34,0,0,0,24.71-5.19,4.64,4.64,0,0,1,.35,1.62A1.75,1.75,0,0,0,382.42,203.15Z" style="fill:#5d536c"/><path d="M99.49,359.61c.38-.59.76-1.18,1.13-1.77l.07,0c1.23.13,2.45.27,3.68.38a2,2,0,0,0,2.22-1.29,9.66,9.66,0,0,1,2.8.52c5,2.58,9.91,5.26,14.86,7.91L122.37,367c-3.47-.62-6.39-2.51-9.29-4.28A21.5,21.5,0,0,0,99.49,359.61Z" style="fill:#7d7285"/><path d="M382.42,203.15a1.75,1.75,0,0,1-.7-1.9,4.64,4.64,0,0,0-.35-1.62l8.5-5L391.8,196c-.47.82-.73,1.94-1.43,2.4C387.8,200.1,385.08,201.59,382.42,203.15Z" style="fill:#7d7285"/><path d="M184.23,261.2c-2.09-.93-1.87-3.07-2.5-4.77l2.82.05c1.14,1.18,2.15.83,3.09-.27l1.9-.28c.84,1,1.52.64,2.13-.26l1.88-.34,2.12.57.05.07.82,1.2c-.08.39-.17.78-.25,1.17a2.13,2.13,0,0,0-2.21.81c-1.12,0-2.24,0-3.36-.09a6.9,6.9,0,0,0-4.53,1.26l.15-.08Z" style="fill:#2f2e3a"/><path d="M464.51,155.61a3,3,0,0,1-2.24-2.33c-1.07-4.11-.9-8,1.79-11.56.15.28.41.55.43.85C464.78,146.91,465.47,151.26,464.51,155.61Z" style="fill:#4a435b"/><path d="M446.75,113.57c-2,1.3-2.33,3.33-2.37,5.5a10.2,10.2,0,0,1-.75,2.19c-2-4-1.73-7.86-3-11.25A16.22,16.22,0,0,1,446.75,113.57Z" style="fill:#5d536c"/><path d="M338.21,350.57c-1.55-1.17-1.8-2.95-2-4.66a47.38,47.38,0,0,1-.08-5.2c1.15.91,2.35,1.76,3.44,2.74a3.1,3.1,0,0,1,.67,4.37C339.66,348.8,338.89,349.66,338.21,350.57Z" style="fill:#ded4c6"/><path d="M293.88,61.16c-.43-1.71-.86-3.41-1.28-5.12a12.62,12.62,0,0,1,2.32.65,2.35,2.35,0,0,1,1.24,2.44C296.08,60.56,295.14,61.05,293.88,61.16Z" style="fill:#d5cbbe"/><path d="M242,141.11a11.92,11.92,0,0,1-.66-2.68,38.47,38.47,0,0,1,.38-4.27c.53.53,1.46,1,1.52,1.6C243.43,137.64,243.61,139.62,242,141.11Z" style="fill:#d5cbbe"/><path d="M455.67,177.31c-1.06-.33-1.59-1-1.08-2.08.16-.34.65-.54,1-.71.07,0,.38.38.51.62a5.44,5.44,0,0,1,.32.88C456.19,176.45,455.93,176.88,455.67,177.31Z" style="fill:#2f2e3a"/><path d="M335.84,338.85l-.15-4.87c1.46.75,1.48,2.21,1.64,3.54C337.46,338.51,336.61,338.71,335.84,338.85Z" style="fill:#ded4c6"/><path d="M275.36,302.13l-4.47-.25C272.89,300.51,273.29,300.53,275.36,302.13Z" style="fill:#706578"/><path d="M187.64,256.21c-.94,1.1-1.95,1.45-3.09.27A3,3,0,0,1,187.64,256.21Z" style="fill:#5d536c"/><path d="M405.64,206.35c.61-.9,1.27-1.19,2-.16Z" style="fill:#4a435b"/><path d="M258.68,65.56l-.6.43a3.23,3.23,0,0,1-.33-.64c0-.06.23-.28.27-.26A4.57,4.57,0,0,1,258.68,65.56Z" style="fill:#d5cbbe"/><path d="M194.08,259.15a2.13,2.13,0,0,1,2.21-.81C195.93,259.62,195.17,259.84,194.08,259.15Z" style="fill:#5d536c"/><path d="M195.67,255.9l-2.12-.57C194.52,254.53,195.24,254.7,195.67,255.9Z" style="fill:#5d536c"/><path d="M191.67,255.67c-.61.9-1.29,1.22-2.13.26Z" style="fill:#5d536c"/><path d="M242.47,146.11c-.25-.69-.49-1.38-.73-2.06C243.39,144.75,243.43,144.86,242.47,146.11Z" style="fill:#d5cbbe"/><path d="M260.81,70.34a3.41,3.41,0,0,1,.37,3.39C260.36,72.68,260.57,71.51,260.81,70.34Z" style="fill:#d5cbbe"/><path d="M126,368.38l1.25.53Z" style="fill:#7d7285"/><path d="M133.13,369.47l1.27-.34Z" style="fill:#7d7285"/><path d="M261.28,62.94l-.92,1.44Z" style="fill:#d5cbbe"/><path d="M196.54,257.17l-.82-1.2Z" style="fill:#5d536c"/><path d="M186.34,260.24l-.15.08Z" style="fill:#5d536c"/><path d="M265.88,304.07l-1.3,0Z" style="fill:#706578"/><path d="M263.41,305.84l.09,1.54Z" style="fill:#706578"/><path d="M359.27,476.49l4.33-1.36c2.3,3.38,5.82,5.11,9.34,7.11-.33,1.09-.58,2-.88,2.89-.78,2.32-2.28,3.38-4.83,3a14.17,14.17,0,0,0-4.36.09,7.9,7.9,0,0,1-6-1.23c-2.58-1.69-5.27-3.21-7.76-5-1.74-1.24-1.78-1.63-2.7-4.37,3.11-3,3.55-3.18,9.25-4.13Z" style="fill:#d9d0c3"/><path d="M338.9,416.61c1.77.41,3,2.19,2.46,3.65a1.41,1.41,0,0,1-1.08.74c-1.31-.14-2.73-2.33-2.36-3.65C338,417,338.61,416.82,338.9,416.61Z" style="fill:#d9d0c3"/><path d="M242.93,37.36l1.32,1.57c-.76,1.76-1.53,3.51-2.29,5.26l-1.87-1.62A11.35,11.35,0,0,1,242.93,37.36Z" style="fill:#5d536c"/><path d="M308.9,18l.63,1.89c-2.24.54-3.83,1.65-4.07,4.21a4.47,4.47,0,0,1-1,2.18c-.47.59-1.24,1.41-1.83,1.36-1.3-.09-1.07-1.34-1.07-2.29,0-.33.09-.66.06-1-.24-2.76-.34-5.49,1.48-7.8-1.69-2.36-3.37-3.62-6.32-3a10.77,10.77,0,0,1-5.27-.54c-3.34-1.05-6.53-1.81-9.95-.16a5,5,0,0,1-3.27-.23,4.15,4.15,0,0,0-3.73.12,2.49,2.49,0,0,1-1.35.54c-3.76-.57-6,2-8.52,4a30.85,30.85,0,0,1-3.45,2.73,14.86,14.86,0,0,1-3.16,1.06,8.57,8.57,0,0,1,1.2-2.07,68.81,68.81,0,0,1,20.2-13.62C286,2.62,292.6,3.35,299,6.07a11.45,11.45,0,0,1,5.11,4.31c1.4,2.17,2.82,4.33,4.23,6.5Z" style="fill:#d9d0c3"/><path d="M241.67,93.63c.09-1,.18-1.94.28-2.91l2.41-.42c2-.38,3,.78,3.68,2.36-1,1.77-2.21,2.54-4.09,1.84Z" style="fill:#d9d0c3"/><path d="M308.9,18l-.57-1.12Z" style="fill:#d5cbbe"/><path d="M407.17,203.45c-.29.13-.64.44-.87.38a15.62,15.62,0,0,0-6.24-.2,10,10,0,0,1-2.8-.66,12.73,12.73,0,0,1,1.7-1.55,12.86,12.86,0,0,1,3.09-1.47c3.24-.81,4.95-2.52,5.09-6.1.06-1.61,1.45-3.17,2.24-4.75l3-3a2.57,2.57,0,0,1,2.09-1.79,8.43,8.43,0,0,0,2.08.59,10.32,10.32,0,0,0,2.29-.41c1,.77,2.25,1.39,2.12,3.15a43.94,43.94,0,0,1-4.49,3.18,38.72,38.72,0,0,1-4.93,1.9c-1.17,3.42-1.17,3.42,1.74,4.41.44,2.42-.54,3.85-2.9,4.59A17.75,17.75,0,0,0,407.17,203.45Z" style="fill:#4a435b"/><path d="M418.88,184.45a10.32,10.32,0,0,1-2.29.41,8.43,8.43,0,0,1-2.08-.59l5.55-7.79c1.84.51,1,1.61,1,2.45l-.33.56.64-.2,3.82-1.52a1.26,1.26,0,0,1-.15,2.14C423,181.47,420.94,183,418.88,184.45Z" style="fill:#706578"/><path d="M407.17,203.45a17.75,17.75,0,0,1,3.25-1.77c2.36-.74,3.34-2.17,2.9-4.59,2.2-1.77,2.25-1.85,4.3-.44a3.51,3.51,0,0,0,2.71.51,35.29,35.29,0,0,1,3.54-.07c-.47.81-.6,1.36-.92,1.52a6.77,6.77,0,0,1-2.3.68,9.9,9.9,0,0,0-6.87,3.08,11.87,11.87,0,0,1-1.92,1.41v0Z" style="fill:#7d7285"/><path d="M441.75,160.07c1,2.78.82,4.44-.15,6a1.33,1.33,0,0,1-1.18.47,1.43,1.43,0,0,1-.86-1C439.32,163.71,440.19,162.26,441.75,160.07Z" style="fill:#706578"/><path d="M447.85,142.76c-1.48-3.57-1-6.27-1.57-9.43C449.23,135.44,449.37,136.45,447.85,142.76Z" style="fill:#5d536c"/><path d="M428,188.7c1.27,2,.21,2.84-.75,3.62s-1.91,1.13-3,0A4.9,4.9,0,0,1,425,191C425.85,190.27,426.77,189.64,428,188.7Z" style="fill:#5d536c"/><path d="M440,147.8l2.19-6c.89-.06.8.92.94,1.57a5.68,5.68,0,0,1-1.3,5Z" style="fill:#5d536c"/><path d="M454.63,149.63c-.09-1.24-.21-2.49-.24-3.73,0-.18.41-.48.67-.53a1,1,0,0,1,.83.23c1.2,1.67.9,2.67-1.2,4.08Z" style="fill:#5d536c"/><path d="M444.89,152c-1.82-2-.7-4-.23-6.16.3.4.77.77.86,1.21A6.78,6.78,0,0,1,444.89,152Z" style="fill:#5d536c"/><path d="M435.74,157.14a4.69,4.69,0,0,1,1.36-5A.93.93,0,0,1,438,152a1.67,1.67,0,0,1,.64,1.1C438.45,154.83,437.49,156.05,435.74,157.14Z" style="fill:#7d7285"/><path d="M412.42,186.06l-3,3-2.41.33C408.55,187.07,410.22,186.14,412.42,186.06Z" style="fill:#706578"/><path d="M395.84,197.73a6.29,6.29,0,0,1,3.45-3.4c.22-.1.81,0,.84.13.09.42.2,1,0,1.28A5.17,5.17,0,0,1,395.84,197.73Z" style="fill:#4a435b"/><path d="M454.69,149.68c.13.62.27,1.25.47,2.17a5.8,5.8,0,0,1-1.68.49c-.87,0-1.63-.51-1.58-1.46s.89-1.2,1.76-1.19c.33,0,.65,0,1-.06Z" style="fill:#5d536c"/><path d="M448.34,121.88c.15.05.42.09.43.16.1.73.17,1.47.21,2.2,0,.08-.21.16-.33.24-.3-.67-.61-1.34-.89-2,0-.09.09-.29.19-.39A1.57,1.57,0,0,1,448.34,121.88Z" style="fill:#706578"/><path d="M403.17,191.12l.27-.26-.17.38Z" style="fill:#4a435b"/><path d="M402.09,192l1.08-.88.1.12-1.06.9Z" style="fill:#4a435b"/><path d="M402.21,192.14l-.27.26-.16-.19.31-.21Z" style="fill:#4a435b"/><path d="M273.73,212.14c2,.13,4.07.6,5.92-.7,2.91-.62,5.81-1.27,8.65-2.17a9.45,9.45,0,0,0,2.26-.69c.41-.25.5-1,.72-1.56,1.57-.12,3.14-.29,4.71-.35,2.19-.07,4.44-.3,6.24,1.43.19,2,2,2.36,3.35,3.21l.73,1.06c1.23,2.47,2.43,5,3.75,7.4.26.49,1,.73,1.53,1.08,1.72,3,2,6.53,3.07,9.78.51,1.55,1,3.09,1.56,4.63,0,5.54.25,11.09-1.4,16.49-.17.54.2,1.25.32,1.89l-1.25,3.6c-.43-.08-1.05-.38-1.28-.2-2,1.58-3.65,3.37-3.57,6.15-2.82,4.56-7,7.81-11.12,11-3.57,2.72-7.49,4-11.93,2.06a9.2,9.2,0,0,0-1.88-.53,17.12,17.12,0,0,1-9.59-5.5,66.21,66.21,0,0,1-7.08-8.7c-2.52-4-3.85-8.27-5.26-12.62.45-4.68,1-9.35,1.33-14,.23-3.29.73-6.41,2.71-9.19a12.21,12.21,0,0,0,1.32-3.12,23,23,0,0,1,4.27-7.59A28.83,28.83,0,0,0,273.73,212.14Zm26.19,36.21,2.11-.23v0c.54-3.62.31-7-2.66-9.71a9.13,9.13,0,0,1-1.29-2c0-3.18.53-6.16,2.95-8.54a3.61,3.61,0,0,0,.69-3.68c.72-.46,1.36-1,.41-1.74-.25-.19-1.05.25-1.53.52-.16.09-.08.58-.12.89l-2.81-.33c-.81-1.31-2-1.32-3.28-1-.87-.91-1.69-1.89-2.64-2.71a2.16,2.16,0,0,0-1.67-.58c-.63.25-1.07,1-1.58,1.49-.31.08-.76.06-.91.27a15.07,15.07,0,0,1-8.79,5.57,8.43,8.43,0,0,0-1.37.53,3.47,3.47,0,0,0-1.67,5.23,10.87,10.87,0,0,0,1.86,2.25c1.19,1.1,2.47,2.1,3.72,3.15-.34,2.39-.78,4.76-1,7.16s1,3.53,3.52,3.25a16.24,16.24,0,0,0,2.57-.67l2.2-4.55,1.94-.1,2.09.5c1.84,1.68,3.64,3.4,5.55,5C298.54,248.69,299.34,248.39,299.92,248.35Zm8.77,4.76c2.25-1.75,2.31-2.25.38-3.9Z" style="fill:#a22818"/><path d="M98.18,357.26a2.59,2.59,0,0,1,2.67-1c0,.51-.1,1-.16,1.54l-.07,0Z" style="fill:#7d7285"/><path d="M440.15,186.78l1.17-1.41Z" style="fill:#2f2e3a"/><path d="M439.07,187.65c0-.77.38-1.06,1.12-.92C439.82,187,439.45,187.35,439.07,187.65Z" style="fill:#2f2e3a"/><path d="M438,188.54c0-.81.37-1.08,1.12-.92Z" style="fill:#2f2e3a"/><path d="M274.72,305.15l-1.65-.95A1.26,1.26,0,0,1,274.72,305.15Z" style="fill:#706578"/><path d="M278,312.53a3.89,3.89,0,0,1-.31-.61c0-.08.12-.2.18-.3A.91.91,0,0,1,278,312.53Z" style="fill:#706578"/><path d="M100.69,357.79c.06-.52.11-1,.16-1.54a9.35,9.35,0,0,1,5.74.63,2,2,0,0,1-2.22,1.29C103.14,358.06,101.92,357.92,100.69,357.79Z" style="fill:#706578"/><path d="M421.38,179.29l-.64.2.33-.56Z" style="fill:#2f2e3a"/><path d="M297.66,223.58l2.81.33,1.24.33a3.61,3.61,0,0,1-.69,3.68c-2.42,2.38-2.93,5.36-2.95,8.54l-1.37,0c-.47-.64-1-1.62-1.86-1.06-1.29.86-2.69,1.86-2.48,3.8l-1.71,2.33-2,1.44-2.21,4.56a16.24,16.24,0,0,1-2.57.67c-2.49.28-3.73-.81-3.52-3.25s.65-4.77,1-7.16c1.32-1.36.95-3.09,1-4.72,2.19-.32,2-2.22,2.42-3.69a7,7,0,0,1,1.74-3.84,6.47,6.47,0,0,0,2-4.75c.52-.52,1-1.24,1.59-1.49a2.16,2.16,0,0,1,1.67.58c.95.82,1.77,1.8,2.64,2.71C295.28,225.27,296,225.47,297.66,223.58Zm-11.18,10.26c.24.57.37,1.45.88,1.9a1.8,1.8,0,0,0,2.6-.24c1.07-1.19,2-2.49,3-3.75.63-.8,1.07-1.7.38-2.62s-1.68-.72-2.66-.66a3.4,3.4,0,0,0-3.28,2.39C287.11,231.76,286.84,232.69,286.48,233.84Zm-2.6,6.72c.34.36.66.9,1.13,1.11.22.09.94-.39,1.05-.74a3.23,3.23,0,0,0,0-1.77.89.89,0,0,0-1.53-.16A13.79,13.79,0,0,0,283.88,240.56Z" style="fill:#4a435b"/><path d="M282.37,233.11c-.09,1.63.28,3.36-1,4.72-1.25-1.05-2.53-2.05-3.72-3.15a10.87,10.87,0,0,1-1.86-2.25,3.47,3.47,0,0,1,1.67-5.23,8.43,8.43,0,0,1,1.37-.53,15.07,15.07,0,0,0,8.79-5.57c.15-.21.6-.19.9-.27a6.47,6.47,0,0,1-2,4.75,7,7,0,0,0-1.74,3.84,3.76,3.76,0,0,0-4.86,1.24Z" style="fill:#5d536c"/><path d="M296.7,236.5l1.37,0a9.13,9.13,0,0,0,1.29,2c3,2.69,3.2,6.09,2.66,9.71v0l-2.11.23c-1.7-2.7-3.75-4.88-7.26-4.93l-2.09-.5c0-.44.06-.9.08-1.35l1.71-2.32c1.37,1,2.73,2.11,4.76,1.73C297,239.31,296.83,237.9,296.7,236.5Z" style="fill:#5d536c"/><path d="M292.66,243.42c3.51.05,5.56,2.23,7.26,4.93-.58,0-1.38.34-1.71.07C296.3,246.82,294.5,245.1,292.66,243.42Z" style="fill:#706578"/><path d="M290.65,241.57c0,.45,0,.91-.08,1.35l-1.93.09Z" style="fill:#706578"/><path d="M302,248.12v0Z" style="fill:#706578"/></g></svg>