<svg xmlns="http://www.w3.org/2000/svg" viewBox="0 0 366 553"><title>fairemain</title><g id="Layer_19" data-name="Layer 19"><path d="M312.69,297H149.12c0-.49-.08-1-.08-1.48q0-88.35,0-176.7c0-.37.05-.74.08-1.11H312.69c0,.35,0,.69,0,1v177C312.7,296.13,312.69,296.56,312.69,297Zm-56-114.23a3.44,3.44,0,0,0-.22-.37c-4.09-3.94-7.24-8.63-10.36-13.31a60.16,60.16,0,0,1-7.22-15.93,87.57,87.57,0,0,1-3.7-20c0-.57-.12-1-.83-.94-2.37,0-4.74,0-7.11,0-.52,0-.74.15-.81.73-.4,3.18-.77,6.37-1.31,9.53a86.14,86.14,0,0,1-5.08,17.64,61.48,61.48,0,0,1-10.17,17.21,96.38,96.38,0,0,1-9.44,9.41c-7,6.17-13.63,12.6-19,20.25A87.91,87.91,0,0,0,173,221.2a71.17,71.17,0,0,0-5.45,17.72c-.69,4.2-1,8.47-1.44,12.71-.09.79.22,1,1,1q3.55,0,7.11,0c.72,0,1-.22,1-1a46.71,46.71,0,0,1,2.23-13.89c1.46-4.68,3.19-9.3,5.09-13.83a69.62,69.62,0,0,1,9-15.57c4.51-5.85,10-10.7,15.36-15.78,3.44-3.28,6.89-6.59,10-10.17,5-5.76,8.16-12.69,11.19-19.63.89-2.05,1.68-4.15,2.61-6.45,4,12.46,11,22.83,19.47,32.4Zm38.86-50.7a3.87,3.87,0,0,0-.59-.13c-2.65,0-5.3,0-8,0-.65,0-.64.39-.67.86-.13,2-.17,3.93-.46,5.86a75.75,75.75,0,0,1-3.72,14.26,96.59,96.59,0,0,1-9.37,19.39A53.38,53.38,0,0,1,265,182c-4.69,4.61-9.48,9.1-14.23,13.64a62.22,62.22,0,0,0-9.28,10.69,100.74,100.74,0,0,0-9,17.9c-.51,1.28-1,2.56-1.63,4-.14-.37-.21-.54-.26-.71A68,68,0,0,0,223.48,212c-1.69-2.76-3.5-5.46-5.44-8s-4.12-5-6.16-7.48a.67.67,0,0,0-1.09-.12c-2,1.79-4,3.62-5.87,5.32,1.91,2.35,3.84,4.58,5.63,6.92a73.1,73.1,0,0,1,8.75,14A79.46,79.46,0,0,1,225,241c.65,3.49.94,7,1.35,10.57.07.62.3.76.88.76q3.49,0,7,0c.65,0,.75-.27.8-.83.21-2.1.38-4.22.72-6.31a98.85,98.85,0,0,1,4.74-18.32,63.07,63.07,0,0,1,13.62-22.44c3.26-3.38,6.79-6.5,10.29-9.63a107.3,107.3,0,0,0,17.8-20.31,74.11,74.11,0,0,0,9.07-18.15,83.29,83.29,0,0,0,3.55-16.13C295.14,137.53,295.32,134.83,295.57,132.07Zm-8.73,120.34c2.49,0,5,0,7.46,0,.77,0,1-.25.92-1-.32-2.75-.47-5.54-1-8.25-.81-4.17-1.73-8.35-2.91-12.43a89.11,89.11,0,0,0-3.9-11.07c-2.57-5.87-6.23-11.12-10-16.23-1.62-2.17-3.32-4.28-5-6.38-.88-1.08-1.18-1.07-2.21-.17s-2.09,1.86-3.14,2.79c-.71.64-1.41,1.29-2.15,2C277.82,216.18,284.36,233.36,286.84,252.41Zm-90.38-69.17c-2.61-3.54-5.24-6.93-7.67-10.46-1.67-2.41-3.13-5-4.58-7.53a27.33,27.33,0,0,1-1.57-3.78c-1.46-3.87-3-7.7-4.3-11.63a82.1,82.1,0,0,1-3.53-16.79c-.07-.66-.35-.81-.95-.79-2.15.05-4.3.09-6.45.06-.9,0-1.18.25-1.13,1.16a77.34,77.34,0,0,0,2.39,14.83c1.61,6.59,3.37,13.16,6.58,19.2a63.5,63.5,0,0,0,3.63,6.17c2.42,3.58,5,7.08,7.51,10.57,1.16,1.59,2.49,3.07,3.77,4.64Zm84.7,99-.24,0c-.11-.15-.22-.29-.31-.44-.58-1-1.18-1.91-1.71-2.9a1.27,1.27,0,0,0-1.68-.55c-.24.08-.41.66-.44,1-.1,1.15-.15,2.3-.17,3.45,0,1.49,0,3,0,4.51.21,0,.39.07.57.08,1.39.09,1.42.06,1.43-1.3v-2.94a1.15,1.15,0,0,1,.62.52c.66,1.09,1.34,2.17,2,3.29.4.71,1,.54,1.56.4.21-.06.41-.62.42-1,0-2.27,0-4.55,0-6.82,0-.87-.5-.84-1.09-.85s-1,.11-.94.87S281.16,281.43,281.16,282.28Zm-22,.32a4.18,4.18,0,0,0-4-4.31,4.66,4.66,0,0,0,0,9.28C257.43,287.56,259.18,285.41,259.21,282.6Zm-17.39-10.23c-.22-.92-.39-1.8-.66-2.64a1.78,1.78,0,0,1,.24-1.72,2.77,2.77,0,0,0-2-4.41c-.74-.12-1.49-.11-2.23-.21s-1,.19-1.06.91c-.18,2.23-.41,4.46-.62,6.68-.15,1.5-.16,1.5,1.34,1.54a3.64,3.64,0,0,0,.54-.07c0-.41.09-.78.13-1.15a4.36,4.36,0,0,1,.14-1.1c.1-.29.4-.71.6-.7a1.27,1.27,0,0,1,.85.56,3.92,3.92,0,0,1,.3,1.07C239.89,272.79,239.9,272.79,241.82,272.37Zm-32.37-8a15.74,15.74,0,0,0-2.26-.95,3.67,3.67,0,0,0-3.49.78,5.54,5.54,0,0,0-1.42,6.15,3.52,3.52,0,0,0,2.12,2.1c2.79,1,5.36-1.45,4.92-4.75h-3.46a4.38,4.38,0,0,0,0,1.41c.13.33.58.54,1.08,1a5.57,5.57,0,0,1-1.6.48c-.7,0-1.1-.54-1.24-1.2A5.38,5.38,0,0,1,204,268a2.38,2.38,0,0,1,3.61-2.21c.27.14.55.24.84.37Zm23.5-.94h-3.61c-2.05,0-2.05,0-2,2.1s0,4,.13,6.06c0,.35.33,1,.53,1,1.82.08,3.64.05,5.49.05,0-.36.06-.6.07-.85,0-1.24,0-1.24-1.18-1.23h-2.75v-1.17a6.33,6.33,0,0,0,2.17-.27c.86-.45.26-1.27.25-2-.58,0-1,0-1.5.08s-1.11.13-1.14-.74.21-1.1,1-1c.46,0,.93,0,1.4,0,1.31,0,1.31,0,1.24-1.28C233,263.92,233,263.74,233,263.43Zm16.33,0c0,3,0,5.88,0,8.73,0,.17.44.47.68.48,1.28.05,2.55,0,3.83,0,1.63,0,1.63,0,1.54-1.67a4.6,4.6,0,0,0-.12-.47H251.3l.07-1.16c.7,0,1.32,0,1.92-.14a.86.86,0,0,0,.62-.42c.4-1.21,0-1.75-1.29-1.65a5.11,5.11,0,0,0-.55.05c-.71.13-.85-.28-.87-.86s.1-1,.81-.93c.92,0,1.84,0,2.86,0a5.79,5.79,0,0,0,0-1.35c-.06-.25-.37-.6-.57-.61C252.56,263.38,250.85,263.4,249.28,263.4Zm-31.65,24c0-.22-.06-.37-.11-.51-.59-1.57-1.27-3-.45-4.85a2.6,2.6,0,0,0-2.25-3.52c-.69,0-1.37,0-2,0-.84,0-1.28.24-1.16,1.17a15.1,15.1,0,0,1,0,1.78v6a10.59,10.59,0,0,1,1.12.09c.75.11,1-.22.95-.94a4.09,4.09,0,0,1,0-1.21.84.84,0,0,1,.5-.51c.12-.05.41.16.52.33a4.92,4.92,0,0,1,.4.94C215.71,287.71,215.89,287.8,217.63,287.4Zm.52-15.17a2.88,2.88,0,0,0,0-.68q-1.17-3.78-2.38-7.55a.8.8,0,0,0-.43-.42c-1-.5-1.67-.22-2.12,1.15-.72,2.21-1.31,4.47-1.93,6.71a3,3,0,0,0,0,.79l1.88.36c.17-1.21.56-2.14,2-2,1.14.15.66,1.25,1.2,1.9Zm-35.07,8.28c1.15,0,2.17,0,3.19,0,.59,0,.69-.37.63-.8s.32-1.17-.45-1.2c-1.76-.07-3.53,0-5.41,0-.07,2.81-.14,5.51-.18,8.22,0,.16.33.46.52.47,1.71.13,3.41.2,5.18.3.05-.39.07-.69.14-1,.17-.81-.11-1.14-1-1.09a11,11,0,0,1-2.14-.11c-.23,0-.42-.37-.63-.57a5.2,5.2,0,0,1,.68-.65c.14-.09.37,0,.55,0,1.44,0,1.45,0,1.37-1.45a5.46,5.46,0,0,0-.1-.58h-2.38Zm23.81-2.16c-2,.07-2,.11-2.59,1.84-.16.51-.33,1-.46,1.52-.47,1.89-.93,3.78-1.4,5.68,2,.41,2.09.35,2.48-1.52a1.13,1.13,0,0,1,.54-.75c1.14-.43,1.51-.22,1.84.93a8.48,8.48,0,0,0,.24.9c.09.2.26.49.42.5.56.06,1.14,0,2,0Zm34.68.59c.76,2.62,1.48,5.13,2.21,7.63.14.48.24,1,.92,1s1.6.25,2-.77.8-1.89,1.15-2.86c.57-1.6,1.09-3.21,1.66-4.9l-1.89-.54-2.09,6.19h-.31l-1.69-6.28Zm-9.34,1.81,1-1.26a2.83,2.83,0,0,0-4.41.11c-1.05,1.47-.89,2.91.46,3.72a8.13,8.13,0,0,0,1.56.6c.6.19.74.63.45,1.08a1.18,1.18,0,0,1-.91.44,1,1,0,0,1-.76-.57c-.29-.95-.87-.51-1.41-.39s-.77.49-.58,1.09a2.87,2.87,0,0,0,3.49,1.9,2.94,2.94,0,0,0,2.34-2.69,2.37,2.37,0,0,0-2-2.74,2.54,2.54,0,0,1-.7-.26c-.21-.17-.53-.46-.5-.63a.92.92,0,0,1,.61-.59A5.38,5.38,0,0,1,232.23,280.75Zm57.34.12c.2-.24.39-.45.56-.67.62-.79.55-1.11-.35-1.53a3.1,3.1,0,0,0-4,1.66c-.63,1.44-.05,2.66,1.58,3.32.32.13.73.13,1,.33s.49.71.39.91a1.15,1.15,0,0,1-.91.57,1.08,1.08,0,0,1-.82-.61c-.31-1-.91-.41-1.43-.35s-.7.5-.54,1a2.48,2.48,0,0,0,2,1.92,3.1,3.1,0,0,0,3.28-1.05c1.35-1.79.59-3.79-1.66-4.44-.46-.13-1.14-.18-.89-.9s.82-.66,1.41-.41A3.91,3.91,0,0,1,289.57,280.87Zm-19-1.41a2.75,2.75,0,0,0-3.2-.78,3.08,3.08,0,0,0-1.85,2.5c-.09,1.39.54,2.06,2.42,2.72.33.11.56.52.83.8-.26.25-.49.62-.8.74a.72.72,0,0,1-1.06-.56c-.07-.24-.45-.59-.65-.57a2.68,2.68,0,0,0-1.48.47c-.2.18-.13.92.08,1.26a3.56,3.56,0,0,0,3.59,1.41,2.81,2.81,0,0,0,2.33-2.67c.1-1.51-.42-2.24-1.94-2.75a3.88,3.88,0,0,1-.79-.28c-.19-.11-.46-.36-.43-.5a.89.89,0,0,1,.45-.63,4.57,4.57,0,0,1,1,0,1.65,1.65,0,0,0,.84-.23A5.23,5.23,0,0,0,270.58,279.46Zm-80.14,4.74a13.84,13.84,0,0,0-1.42.41c-.16.08-.38.41-.33.54a4.82,4.82,0,0,0,.86,1.69,3.07,3.07,0,0,0,3.58.26,2.84,2.84,0,0,0,1.43-2.83c-.09-1.44-1-2-2.27-2.34-.43-.11-1.13-.16-.85-.91s.78-.64,1.34-.4l.49.24c.22-.25.41-.46.57-.68s.34-.49.5-.72a2.65,2.65,0,0,0-3.17-.78,3,3,0,0,0-1.9,2.74c0,1.08.6,1.8,1.89,2.26a3.32,3.32,0,0,1,.79.25c.24.17.58.48.55.69a1.2,1.2,0,0,1-.6.79C190.92,285.81,190.66,285.08,190.44,284.2Zm33.09,3.21v-6.92a8.52,8.52,0,0,0,1.34-.08,1,1,0,0,0,.63-.4c.39-1,0-1.57-1.1-1.58l-.93,0h-3.92v1.89a5.6,5.6,0,0,0,1,.06c.76-.09,1.09.19,1,1s0,1.8,0,2.71c0,1.11,0,2.22,0,3.37Zm-48.11-8.81-.61-.12c-1.43-.22-1.41-.22-1.52,1.25-.13,1.77-.33,3.53-.48,5.3-.06.72-.09,1.46-.14,2.25l6,.39c.07-.31.14-.52.17-.73.15-1.28.15-1.27-1.13-1.38-.89-.07-1.78-.17-2.79-.26Zm46.84-8.15c0-1.92,0-3.68,0-5.45s-.08-1.66-1.71-1.5a1.23,1.23,0,0,0-.28.12c0,2.79,0,5.59,0,8.38,0,.19.48.51.74.53.93,0,1.87,0,2.8-.06,1.71,0,1.71,0,1.57-1.77,0-.06,0-.11-.13-.25Zm50.3,8.06c0,.73,0,1.4,0,2.08,0,2.06.08,4.11.09,6.17,0,1,.7.73,1.26.79s.83-.17.81-.8c-.07-1.34-.07-2.68-.09-4s0-2.79,0-4.22Zm-25.76-5.95c.14-2.66.26-5.27.43-7.88,0-.71.06-1.17-.89-1.2s-1.17.3-1.19,1.17c-.05,2.12-.18,4.23-.31,6.35-.1,1.73-.12,1.73,1.59,1.66C246.52,272.65,246.6,272.61,246.8,272.56Zm14.21,6v8.85c.32,0,.53.1.75.12,1.26.09,1.32,0,1.3-1.22q-.07-3.18-.14-6.36c0-1.61,0-1.62-1.62-1.48A1.35,1.35,0,0,0,261,278.56Z" style="fill:#ee494e"/><path d="M256.71,182.77l-6.57,6c-8.48-9.57-15.5-19.94-19.47-32.4-.93,2.3-1.72,4.4-2.61,6.45-3,6.94-6.16,13.87-11.19,19.63-3.13,3.58-6.58,6.89-10,10.17-5.32,5.08-10.85,9.93-15.36,15.78a69.62,69.62,0,0,0-9,15.57c-1.9,4.53-3.63,9.15-5.09,13.83a46.71,46.71,0,0,0-2.23,13.89c0,.75-.24,1-1,1q-3.56-.06-7.11,0c-.77,0-1.08-.21-1-1,.48-4.24.75-8.51,1.44-12.71A71.17,71.17,0,0,1,173,221.2,87.91,87.91,0,0,1,181.45,207c5.38-7.65,12-14.08,19-20.25a96.38,96.38,0,0,0,9.44-9.41,61.48,61.48,0,0,0,10.17-17.21,86.14,86.14,0,0,0,5.08-17.64c.54-3.16.91-6.35,1.31-9.53.07-.58.29-.73.81-.73,2.37,0,4.74,0,7.11,0,.71,0,.79.37.83.94a87.57,87.57,0,0,0,3.7,20,60.16,60.16,0,0,0,7.22,15.93c3.12,4.68,6.27,9.37,10.36,13.31A3.44,3.44,0,0,1,256.71,182.77Z" style="fill:#fcfbfb"/><path d="M295.57,132.07c-.25,2.76-.43,5.46-.73,8.15a83.29,83.29,0,0,1-3.55,16.13,74.11,74.11,0,0,1-9.07,18.15,107.3,107.3,0,0,1-17.8,20.31c-3.5,3.13-7,6.25-10.29,9.63a63.07,63.07,0,0,0-13.62,22.44,98.85,98.85,0,0,0-4.74,18.32c-.34,2.09-.51,4.21-.72,6.31-.05.56-.15.84-.8.83q-3.51,0-7,0c-.58,0-.81-.14-.88-.76-.41-3.53-.7-7.08-1.35-10.57a79.46,79.46,0,0,0-5.71-18.42,73.1,73.1,0,0,0-8.75-14c-1.79-2.34-3.72-4.57-5.63-6.92,1.88-1.7,3.86-3.53,5.87-5.32a.67.67,0,0,1,1.09.12c2,2.51,4.23,4.9,6.16,7.48s3.75,5.29,5.44,8a68,68,0,0,1,7.13,15.46c0,.17.12.34.26.71.59-1.44,1.12-2.72,1.63-4a100.74,100.74,0,0,1,9-17.9,62.22,62.22,0,0,1,9.28-10.69c4.75-4.54,9.54-9,14.23-13.64a53.38,53.38,0,0,0,7.78-9.67,96.59,96.59,0,0,0,9.37-19.39,75.75,75.75,0,0,0,3.72-14.26c.29-1.93.33-3.9.46-5.86,0-.47,0-.86.67-.86,2.65,0,5.3,0,8,0A3.87,3.87,0,0,1,295.57,132.07Z" style="fill:#fcfbfb"/><path d="M286.84,252.41c-2.48-19-9-36.23-22-50.72.74-.68,1.44-1.33,2.15-2,1.05-.93,2.09-1.87,3.14-2.79s1.33-.91,2.21.17c1.71,2.1,3.41,4.21,5,6.38,3.81,5.11,7.47,10.36,10,16.23a89.11,89.11,0,0,1,3.9,11.07c1.18,4.08,2.1,8.26,2.91,12.43.53,2.71.68,5.5,1,8.25.09.72-.15,1-.92,1C291.82,252.39,289.33,252.41,286.84,252.41Z" style="fill:#fcfbfb"/><path d="M196.46,183.24l-6.3,5.65c-1.28-1.57-2.61-3-3.77-4.64-2.55-3.49-5.09-7-7.51-10.57a63.5,63.5,0,0,1-3.63-6.17c-3.21-6-5-12.61-6.58-19.2a77.34,77.34,0,0,1-2.39-14.83c-.05-.91.23-1.18,1.13-1.16,2.15,0,4.3,0,6.45-.06.6,0,.88.13.95.79a82.1,82.1,0,0,0,3.53,16.79c1.27,3.93,2.84,7.76,4.3,11.63a27.33,27.33,0,0,0,1.57,3.78c1.45,2.56,2.91,5.12,4.58,7.53C191.22,176.31,193.85,179.7,196.46,183.24Z" style="fill:#fcfbfb"/><path d="M281.16,282.28c0-.85,0-1.72,0-2.57s.32-.89.94-.87,1.11,0,1.09.85c0,2.27,0,4.55,0,6.82,0,.34-.21.9-.42,1-.53.14-1.16.31-1.56-.4-.62-1.12-1.3-2.2-2-3.29a1.15,1.15,0,0,0-.62-.52v2.94c0,1.36,0,1.39-1.43,1.3-.18,0-.36-.05-.57-.08,0-1.54,0-3,0-4.51,0-1.15.07-2.3.17-3.45,0-.37.2-.95.44-1a1.27,1.27,0,0,1,1.68.55c.53,1,1.13,1.94,1.71,2.9.09.15.2.29.31.44Z" style="fill:#fcfbfb"/><path d="M259.21,282.6c0,2.81-1.78,5-4,5a4.66,4.66,0,0,1,0-9.28A4.18,4.18,0,0,1,259.21,282.6Zm-2.06,0a2.09,2.09,0,0,0-2-2.22c-1.15,0-2.12,1.23-2.13,2.74a2.4,2.4,0,0,0,2.1,2.35C256.23,285.49,257.13,284.23,257.15,282.58Z" style="fill:#fcfbfb"/><path d="M241.82,272.37c-1.92.42-1.93.42-2.4-1.24a3.92,3.92,0,0,0-.3-1.07,1.27,1.27,0,0,0-.85-.56c-.2,0-.5.41-.6.7a4.36,4.36,0,0,0-.14,1.1c0,.37-.08.74-.13,1.15a3.64,3.64,0,0,1-.54.07c-1.5,0-1.49,0-1.34-1.54.21-2.22.44-4.45.62-6.68.06-.72.34-1,1.06-.91s1.49.09,2.23.21a2.77,2.77,0,0,1,2,4.41,1.78,1.78,0,0,0-.24,1.72C241.43,270.57,241.6,271.45,241.82,272.37Zm-3.93-5.08.32.28a12.27,12.27,0,0,0,1.55-.86,1,1,0,0,0-.17-.85c-.38-.19-1.17-.36-1.25-.22A5.82,5.82,0,0,0,237.89,267.29Z" style="fill:#fcfbfb"/><path d="M209.45,264.37l-1,1.76c-.29-.13-.57-.23-.84-.37A2.38,2.38,0,0,0,204,268a5.38,5.38,0,0,0,.17,1.38c.14.66.54,1.21,1.24,1.2a5.57,5.57,0,0,0,1.6-.48c-.5-.42-.95-.63-1.08-1a4.38,4.38,0,0,1,0-1.41h3.46c.44,3.3-2.13,5.72-4.92,4.75a3.52,3.52,0,0,1-2.12-2.1,5.54,5.54,0,0,1,1.42-6.15,3.67,3.67,0,0,1,3.49-.78A15.74,15.74,0,0,1,209.45,264.37Z" style="fill:#fcfbfb"/><path d="M233,263.43c0,.31.08.49.09.67.07,1.28.07,1.28-1.24,1.28-.47,0-.94,0-1.4,0-.79-.06-1,.28-1,1s.53.82,1.14.74.92-.05,1.5-.08c0,.74.61,1.56-.25,2a6.33,6.33,0,0,1-2.17.27v1.17h2.75c1.21,0,1.21,0,1.18,1.23,0,.25,0,.49-.07.85-1.85,0-3.67,0-5.49-.05-.2,0-.51-.62-.53-1-.08-2-.1-4-.13-6.06s0-2.08,2-2.1Z" style="fill:#fcfbfb"/><path d="M249.28,263.4c1.57,0,3.28,0,5,0,.2,0,.51.36.57.61a5.79,5.79,0,0,1,0,1.35c-1,0-1.94,0-2.86,0-.71,0-.83.34-.81.93s.16,1,.87.86a5.11,5.11,0,0,1,.55-.05c1.24-.1,1.69.44,1.29,1.65a.86.86,0,0,1-.62.42c-.6.09-1.22.09-1.92.14l-.07,1.16h3.95a4.6,4.6,0,0,1,.12.47c.09,1.66.09,1.67-1.54,1.67-1.28,0-2.55,0-3.83,0-.24,0-.68-.31-.68-.48C249.27,269.28,249.28,266.42,249.28,263.4Z" style="fill:#fcfbfb"/><path d="M217.63,287.4c-1.74.4-1.92.31-2.51-1.22a4.92,4.92,0,0,0-.4-.94c-.11-.17-.4-.38-.52-.33a.84.84,0,0,0-.5.51,4.09,4.09,0,0,0,0,1.21c.07.72-.2,1.05-.95.94a10.59,10.59,0,0,0-1.12-.09v-6a15.1,15.1,0,0,0,0-1.78c-.12-.93.32-1.2,1.16-1.17.68,0,1.36,0,2,0a2.6,2.6,0,0,1,2.25,3.52c-.82,1.84-.14,3.28.45,4.85C217.57,287,217.58,287.18,217.63,287.4Zm-4-4.61c1.21-.12,1.78-.76,1.48-1.63a1.25,1.25,0,0,0-.87-.58c-.17,0-.53.4-.58.66A7.88,7.88,0,0,0,213.66,282.79Z" style="fill:#fcfbfb"/><path d="M218.15,272.23l-1.79.3c-.54-.65-.06-1.75-1.2-1.9-1.45-.18-1.84.75-2,2l-1.88-.36a3,3,0,0,1,0-.79c.62-2.24,1.21-4.5,1.93-6.71.45-1.37,1.11-1.65,2.12-1.15a.8.8,0,0,1,.43.42q1.22,3.76,2.38,7.55A2.88,2.88,0,0,1,218.15,272.23Z" style="fill:#fcfbfb"/><path d="M183.08,280.51V282h2.38a5.46,5.46,0,0,1,.1.58c.08,1.42.07,1.42-1.37,1.45-.18,0-.41,0-.55,0a5.2,5.2,0,0,0-.68.65c.21.2.4.53.63.57a11,11,0,0,0,2.14.11c.86,0,1.14.28,1,1.09-.07.3-.09.6-.14,1-1.77-.1-3.47-.17-5.18-.3-.19,0-.52-.31-.52-.47,0-2.71.11-5.41.18-8.22,1.88,0,3.65-.05,5.41,0,.77,0,.39.77.45,1.2s0,.81-.63.8C185.25,280.49,184.23,280.51,183.08,280.51Z" style="fill:#fcfbfb"/><path d="M206.89,278.35l3,9.13c-.83,0-1.41,0-2,0-.16,0-.33-.3-.42-.5a8.48,8.48,0,0,1-.24-.9c-.33-1.15-.7-1.36-1.84-.93a1.13,1.13,0,0,0-.54.75c-.39,1.87-.46,1.93-2.48,1.52.47-1.9.93-3.79,1.4-5.68.13-.51.3-1,.46-1.52C204.84,278.46,204.89,278.42,206.89,278.35Z" style="fill:#fcfbfb"/><path d="M241.57,278.94l1.94-.55,1.69,6.28h.31l2.09-6.19,1.89.54c-.57,1.69-1.09,3.3-1.66,4.9-.35,1-.8,1.9-1.15,2.86s-1.23.74-2,.77-.78-.5-.92-1C243.05,284.07,242.33,281.56,241.57,278.94Z" style="fill:#fcfbfb"/><path d="M232.23,280.75a5.38,5.38,0,0,0-1.37-.19.92.92,0,0,0-.61.59c0,.17.29.46.5.63a2.54,2.54,0,0,0,.7.26,2.37,2.37,0,0,1,2,2.74,2.94,2.94,0,0,1-2.34,2.69,2.87,2.87,0,0,1-3.49-1.9c-.19-.6-.06-.95.58-1.09s1.12-.56,1.41.39a1,1,0,0,0,.76.57,1.18,1.18,0,0,0,.91-.44c.29-.45.15-.89-.45-1.08a8.13,8.13,0,0,1-1.56-.6c-1.35-.81-1.51-2.25-.46-3.72a2.83,2.83,0,0,1,4.41-.11Z" style="fill:#fcfbfb"/><path d="M289.57,280.87a3.91,3.91,0,0,0-.42-.24c-.59-.25-1.18-.25-1.41.41s.43.77.89.9c2.25.65,3,2.65,1.66,4.44a3.1,3.1,0,0,1-3.28,1.05,2.48,2.48,0,0,1-2-1.92c-.16-.51-.13-.93.54-1s1.12-.64,1.43.35a1.08,1.08,0,0,0,.82.61,1.15,1.15,0,0,0,.91-.57c.1-.2-.16-.69-.39-.91s-.64-.2-1-.33c-1.63-.66-2.21-1.88-1.58-3.32a3.1,3.1,0,0,1,4-1.66c.9.42,1,.74.35,1.53C290,280.42,289.77,280.63,289.57,280.87Z" style="fill:#fcfbfb"/><path d="M270.58,279.46a5.23,5.23,0,0,1-.68.92,1.65,1.65,0,0,1-.84.23,4.57,4.57,0,0,0-1,0,.89.89,0,0,0-.45.63c0,.14.24.39.43.5a3.88,3.88,0,0,0,.79.28c1.52.51,2,1.24,1.94,2.75a2.81,2.81,0,0,1-2.33,2.67,3.56,3.56,0,0,1-3.59-1.41c-.21-.34-.28-1.08-.08-1.26a2.68,2.68,0,0,1,1.48-.47c.2,0,.58.33.65.57a.72.72,0,0,0,1.06.56c.31-.12.54-.49.8-.74-.27-.28-.5-.69-.83-.8-1.88-.66-2.51-1.33-2.42-2.72a3.08,3.08,0,0,1,1.85-2.5A2.75,2.75,0,0,1,270.58,279.46Z" style="fill:#fcfbfb"/><path d="M190.44,284.2c.22.88.48,1.61,1.46,1.21a1.2,1.2,0,0,0,.6-.79c0-.21-.31-.52-.55-.69a3.32,3.32,0,0,0-.79-.25c-1.29-.46-1.89-1.18-1.89-2.26a3,3,0,0,1,1.9-2.74,2.65,2.65,0,0,1,3.17.78c-.16.23-.32.48-.5.72s-.35.43-.57.68l-.49-.24c-.56-.24-1.11-.22-1.34.4s.42.8.85.91c1.26.31,2.18.9,2.27,2.34a2.84,2.84,0,0,1-1.43,2.83,3.07,3.07,0,0,1-3.58-.26,4.82,4.82,0,0,1-.86-1.69c-.05-.13.17-.46.33-.54A13.84,13.84,0,0,1,190.44,284.2Z" style="fill:#fcfbfb"/><path d="M223.53,287.41h-2c0-1.15,0-2.26,0-3.37,0-.91,0-1.81,0-2.71s-.28-1.07-1-1a5.6,5.6,0,0,1-1-.06V278.4h3.92l.93,0c1.08,0,1.49.57,1.1,1.58a1,1,0,0,1-.63.4,8.52,8.52,0,0,1-1.34.08Z" style="fill:#fcfbfb"/><path d="M175.42,278.6l-.53,6.7c1,.09,1.9.19,2.79.26,1.28.11,1.28.1,1.13,1.38,0,.21-.1.42-.17.73l-6-.39c.05-.79.08-1.53.14-2.25.15-1.77.35-3.53.48-5.3.11-1.47.09-1.47,1.52-1.25Z" style="fill:#fcfbfb"/><path d="M222.26,270.45h3c.08.14.13.19.13.25.14,1.76.14,1.75-1.57,1.77-.93,0-1.87.1-2.8.06-.26,0-.73-.34-.74-.53,0-2.79,0-5.59,0-8.38a1.23,1.23,0,0,1,.28-.12c1.63-.16,1.69-.12,1.71,1.5S222.26,268.53,222.26,270.45Z" style="fill:#fcfbfb"/><path d="M272.56,278.51h2.07c0,1.43,0,2.83,0,4.22s0,2.68.09,4c0,.63-.2.86-.81.8s-1.25.18-1.26-.79c0-2.06-.06-4.11-.09-6.17C272.55,279.91,272.56,279.24,272.56,278.51Z" style="fill:#fcfbfb"/><path d="M246.8,272.56c-.2.05-.28.09-.37.1-1.71.07-1.69.07-1.59-1.66.13-2.12.26-4.23.31-6.35,0-.87.26-1.19,1.19-1.17s.93.49.89,1.2C247.06,267.29,246.94,269.9,246.8,272.56Z" style="fill:#fcfbfb"/><path d="M261,278.56a1.35,1.35,0,0,1,.29-.09c1.59-.14,1.59-.13,1.62,1.48q.06,3.18.14,6.36c0,1.25,0,1.31-1.3,1.22-.22,0-.43-.07-.75-.12Z" style="fill:#fcfbfb"/><path d="M257.15,282.58c0,1.65-.92,2.91-2.06,2.87a2.4,2.4,0,0,1-2.1-2.35c0-1.51,1-2.76,2.13-2.74A2.09,2.09,0,0,1,257.15,282.58Z" style="fill:#ee494e"/><path d="M237.89,267.29a5.82,5.82,0,0,1,.45-1.65c.08-.14.87,0,1.25.22a1,1,0,0,1,.17.85,12.27,12.27,0,0,1-1.55.86Z" style="fill:#ee494e"/><path d="M213.66,282.79a7.88,7.88,0,0,1,0-1.55c.05-.26.41-.68.58-.66a1.25,1.25,0,0,1,.87.58C215.44,282,214.87,282.67,213.66,282.79Z" style="fill:#ee494e"/></g><g id="Layer_15" data-name="Layer 15"><path d="M366.24,251.15l-9.42-.18c-1.27,0-2.62-.51-3.72.59,1.92.31,3.83.64,5.76.91,1.29.17,2.63.17,3.54,1.33a13.06,13.06,0,0,0,3.52.64Z" style="fill:#5d536c"/><path d="M.61,174.6c.69-3.51,1.22-7.06,2.11-10.52A69,69,0,0,1,9.8,147a40.72,40.72,0,0,0,1.78-4l0-1.38c1.66-.35,2.21-1.82,3-3q5.48-8.43,10.9-16.88c.32-.59.63-1.18.94-1.77a15.46,15.46,0,0,0,2.36-1.68c1.8-1.84,3.52-3.78,5.26-5.68l1-.78a37.49,37.49,0,0,0,3.81-.85,37.31,37.31,0,0,1,14.54-1.67q7.84.49,15.68.91a29.64,29.64,0,0,0,4.42,0,14.65,14.65,0,0,0,9.28-3.92c3.14-3.05,3.14-6.62-.37-9.08a40.53,40.53,0,0,0-4.29-2.38c-4.33-2.31-8.8-4.4-12.52-7.7a14.09,14.09,0,0,1-2.91-3.22,54.09,54.09,0,0,1-3.51-7c-3.59-8.84-5.61-17.81-1.49-27.09.2-.45.26-1,.49-1.39,1.61-3,3.12-6.11,4.9-9,2.12-3.48,5.53-4.42,9.37-4a14.61,14.61,0,0,1,3.81.91c3.49,1.4,7,2.76,10.36,4.46,5.68,2.89,11.27,6,16.85,9.09A26,26,0,0,0,117.69,53c4.57-.2,9.17-.43,13.73-.18,6.87.38,13.72,1,20.56,1.81a97.39,97.39,0,0,1,10.11,1.94c4.79,1,9.53,2.4,14.35,3.26a38.59,38.59,0,0,1,9.37,2.78,25.34,25.34,0,0,0,6,1.94,7.21,7.21,0,0,0,8.47-6.22c.22-1.28.21-2.61.33-3.91.43-4.73.76-9.47,1.34-14.18s2.74-8.73,5.22-12.6c1.71-2.64,3.67-2.52,5.21.32a42.23,42.23,0,0,1,2.87,6.75c.91,2.8,1.45,5.72,2.32,8.53a12.69,12.69,0,0,0,1.95,3.89,4,4,0,0,0,6.07.52,19,19,0,0,0,2.78-3.4c.83-1.21,1.49-2.52,2.23-3.79l2.8.25c-.61,4.34-3.46,7.34-6.42,10.15-2.28,2.17-6,2-8.62.05a9.83,9.83,0,0,1-3.58-5.16c-.42-1.41-.65-2.88-1.07-4.29-.84-2.82-1.71-5.63-2.69-8.41a1.93,1.93,0,0,0-1.45-1c-.51,0-1.1.55-1.52,1a4.87,4.87,0,0,0-.62,1.32,34.08,34.08,0,0,0-3.12,16.22,30,30,0,0,1-1.14,10.2,10.16,10.16,0,0,1-12.38,6.93,55.51,55.51,0,0,1-6.89-2.58,33.24,33.24,0,0,0-7-2.14c-4.5-.79-9-1.87-13.42-2.85-3.67-.8-7.3-1.89-11-2.4a167.06,167.06,0,0,0-34.26-1.71A28.53,28.53,0,0,1,103,53.25c-4.8-2.47-9.5-5.13-14.24-7.7-2.45-1.33-4.85-2.74-7.36-3.93A27.52,27.52,0,0,0,72,38.91a6,6,0,0,0-5.64,2.3c-4.17,5.43-7.16,11.43-7.3,18.4A38.69,38.69,0,0,0,65.14,81a17.07,17.07,0,0,0,5.39,5.63c2.5,1.55,5,3,7.62,4.46,1.86,1,3.95,1.66,5.74,2.78,6,3.73,6.43,8.23,3.09,13.23a8.72,8.72,0,0,1-4.8,4l-4.53,1.3-1.3.2a4.22,4.22,0,0,0-.94,0,47.56,47.56,0,0,1-10.26.1C60.09,112.41,55,112.1,50,112c-7.22-.14-13.49,2.21-18.41,7.65-1.43,1.57-2.81,3.19-4.08,4.89a226.13,226.13,0,0,0-13.21,20,85.1,85.1,0,0,0-8.42,18.73,60.15,60.15,0,0,0-1.44,31.44,27.65,27.65,0,0,0,3.31,10.72,23.73,23.73,0,0,0,3.14,4.36,2.35,2.35,0,0,0,2.64.85l0-.06a2.25,2.25,0,0,0,1.91,2.8c2.29.53,4.66.75,7,1.1l1.73.08c2.17-.16,4.48.45,6.38-1.17l1.75-.44a51.57,51.57,0,0,0,5.46-2.15,75,75,0,0,0,18-13.47,148,148,0,0,1,14.53-13.24,26.53,26.53,0,0,1,4.5-3c5.59-2.71,8.25-2,12.4,2A46,46,0,0,1,93,191a19.26,19.26,0,0,1-.54,23.39,91.51,91.51,0,0,1-13.62,14.8,124.4,124.4,0,0,0-25.5,32.24,37.12,37.12,0,0,0-4.45,14.45c-.39,3.82.47,7.51.81,11.25,1,10.59,4.35,20.48,8.8,30,3.86,8.28,10.68,12.63,19.49,14a47.53,47.53,0,0,0,9.31.45,121.89,121.89,0,0,0,30.84-5.76c5.94-1.85,11.92-3.62,18-5.16a24.13,24.13,0,0,1,15,.68,9.4,9.4,0,0,1,3.95,2.78,16.18,16.18,0,0,1,3.78,10.43,94.22,94.22,0,0,1-.41,13.24,92.52,92.52,0,0,0,.73,26.43,70.88,70.88,0,0,0,9.43,26.19c2.85,4.66,6.32,8.83,11.43,11.19,11.19,5.17,22.15,5.22,32.81-1.55a70.14,70.14,0,0,0,14.62-12.31c5.41-6,10.08-12.5,12.38-20.42.79-2.85,1.59-5.7,2.38-8.55.68-2.28,1.35-4.56,2-6.84a30.44,30.44,0,0,0,1.26-4.22A29.08,29.08,0,0,1,253,342.62c2.44-2.71,5.38-4.21,9.05-3.73,3.88.51,7.77,1.09,11.59,1.95a29.07,29.07,0,0,1,7.83,2.71c5.1,2.87,10.12,2.51,15,0,4.16-2.17,8.36-4.46,11.15-8.52a6.4,6.4,0,0,1,1.38-1.37c5.8-4.42,10.11-10.08,13.87-16.25,1.52-2.5,3.35-4.8,5-7.18.47.58.93,1.17,1.4,1.76-1.22,2.21-2.42,4.42-3.67,6.61-.94,1.65-1.94,3.26-2.92,4.88-.34.64-.67,1.29-1,1.94a4.24,4.24,0,0,0-.79.58A145.49,145.49,0,0,1,305,342a13.83,13.83,0,0,0-1.92,2.72l-.11-.06c-2.62-.12-4.42,1.78-6.57,2.77a16.14,16.14,0,0,1-12.25.84c-1.23-.4-2.47-.76-3.7-1.14l-3.87-1.9-2-.42c-3.85-.73-7.7-1.43-11.54-2.18a7.82,7.82,0,0,0-6.45,1.56,18.78,18.78,0,0,0-6.95,9.84c-1.42,4.69-2.71,9.42-4.06,14.13-.71,2.52-1.42,5-2.14,7.55a62.16,62.16,0,0,1-5.91,14l-9.25,11.95,0,.14c-1.71.17-2.48,1.49-3.32,2.72l-7.18,5.94-3.24,2-1,.68c-2.07.91-4.1,1.94-6.22,2.73-5.9,2.2-11.9,3.13-18.18,1.54-3-.76-6.1-1-8.94-2.36s-5.67-2.35-7.6-5a11,11,0,0,0-2.74-2c-1-1.62-1.86-3.28-2.9-4.84a25.1,25.1,0,0,0-2.13-2.48L160,389.39q-1.81-7.09-3.61-14.2l-.69-4.95-.51-3.94a15.87,15.87,0,0,0,0-2.92c-.94-5.55.13-11,.64-16.49a55.65,55.65,0,0,0,.22-12.17,19.08,19.08,0,0,0-.59-2.34c-.53-1.8-.31-4-2.51-4.94a3.4,3.4,0,0,0-2.42-2.83,16.84,16.84,0,0,0-8.58-1.73,70.71,70.71,0,0,0-9.19,1.51c-4.76,1.2-9.48,2.58-14.16,4.1-9.56,3.09-19.41,4.57-29.34,5.86a41.38,41.38,0,0,1-16.43-1.43,25.74,25.74,0,0,1-17.23-15,156.9,156.9,0,0,1-6.55-19A90.88,90.88,0,0,1,46.19,281a31.58,31.58,0,0,1,3.21-17.66c4.84-9.31,10.11-18.39,17.22-26.22,1.54-1.7,3.11-3.36,4.67-5l-.1-.21a2.86,2.86,0,0,0,.9-.35,115.11,115.11,0,0,0,16.49-16.69,28.76,28.76,0,0,0,3.91-6.74,14.27,14.27,0,0,0,.13-11.47,39.67,39.67,0,0,0-7.77-11.24,7.24,7.24,0,0,0-8.95-1.56,18.21,18.21,0,0,0-4.13,2.6c-4.66,4.09-9.23,8.28-13.8,12.47a6.5,6.5,0,0,0-1,1.67l0,0c-2.44,1.88-4.81,3.86-7.35,5.6a141.41,141.41,0,0,1-12.26,8c-6,3.27-12.68,4-19.46,3.58l-1.83-.4c-3.1-1.46-6.08-3.11-8.1-6a35.37,35.37,0,0,1-4.79-9A58.28,58.28,0,0,1,.4,184.22c0-1.61-.2-3.22-.31-4.84C.27,177.79.44,176.19.61,174.6Z" style="fill:#706578"/><path d="M338.64,258.91q1.61,3.42,3.22,6.82a55.52,55.52,0,0,1,2.1,5.5,21.16,21.16,0,0,1-.07,11.65c-1.95,6.61-4,13.14-8.65,18.54-1.56,1.79-2.34,4.28-3.39,6.49-.7,1.46-1,3.16-2.55,4.07-.47-.59-.93-1.18-1.4-1.76.71-1.83,1.33-3.7,2.14-5.48a29.53,29.53,0,0,1,3.14-6.07c4.06-5.15,6-11.2,7.8-17.32.06-.33.13-.66.19-1l.2-2.91,0-1c.3-2.68-.76-5-1.69-7.47-1.09-2.85-2-5.79-2.92-8.7Z" style="fill:#5d536c"/><path d="M349.81,251.44l3.29.12c1.92.31,3.83.64,5.76.91,1.29.17,2.63.17,3.54,1.33-3.56,0-7.12-.06-10.68.07-3.39.13-6.79.35-10.16.78-3,.38-3,.53-2.93,4.26-.62.46-1.26.92-1.89,1.37l-1.45-2.16c-2-2.69-3-3-6.73-1.77l-5.5-.2a57.44,57.44,0,0,0-6.65-.52c-1.93.07-2.89,1.19-3,3.11a14,14,0,0,0,.62,3.19c.3,1.52.61,3,.91,4.57l.54,5c.28,1.17.57,2.33.85,3.5l.39,2.06.27,2.2-.62,6.5c-1.14,1.08-2,2.76-3.9,2.45-2.82-.44-5.41.51-8.07,1.13l-7.78.78-2.18.22-11.81,1.43-2.15.33-15.39,1.42a1.52,1.52,0,0,0-.45.16,28.11,28.11,0,0,0-4.86.05,10.49,10.49,0,0,1-6.62-.86,20.81,20.81,0,0,0-9-1.9,33.27,33.27,0,0,0-15.35-2.37q-9.26.85-18.52,1.39c-9.61.55-19.2,1.37-28.78-.34-2.41-.43-4.86-.63-7.26-1.1A40.34,40.34,0,0,0,164,288a6.89,6.89,0,0,0-2.64,1,11.81,11.81,0,0,0-1.77,1.39,5.54,5.54,0,0,1-3.14-2.55c-1-1.3-2-2.53-3-3.79-.18-1.6-.34-3.21-.54-4.81-.42-3.4-1.16-6.79-1.24-10.19a139.11,139.11,0,0,1,.45-14.72,83,83,0,0,0-.33-17.62c-1-7.63-2.27-15.21-3.45-22.81a15.08,15.08,0,0,0-.56-2.39c-1.87-5.84-2.24-11.92-2.44-18a226,226,0,0,1,1.55-33.81,141.66,141.66,0,0,0,.46-26c-.15-2.44-.55-4.87-.73-7.32a2.69,2.69,0,0,1,2.84-3.19c.81,0,1.63.11,2.45.12,6.7,0,13.38.83,20.1.44a114.38,114.38,0,0,1,13.73-.11c8,.48,16,.2,24,0a38.07,38.07,0,0,0,6.84-.6c7.52-1.55,15-3.28,22.51-4.92a5.62,5.62,0,0,0,4.47-3.41,5.69,5.69,0,0,1,1.68.22,7,7,0,0,1,1.44,1.14c.26,1.3.51,2.6.77,3.89l-3.92,1.9a7.5,7.5,0,0,0-6.2.65l-8.93,2.46-2.22.35-3.74.5-2.08.33-6.18.91-6.76.18a8,8,0,0,0-5,.11l-10.93.47c-2.94-.3-5.86-1.13-8.84-.33l-5.86-.18h-6l-7.85-.14c-3.94-.64-7.72.23-11.63.94a16.65,16.65,0,0,0-.37,7.43,34.62,34.62,0,0,1,.43,6.33c-.55,7.18-1.25,14.35-2,21.51a186,186,0,0,0-.11,39.68,39.26,39.26,0,0,0,1.48,5.63,1.6,1.6,0,0,0,.14.94,3.16,3.16,0,0,0,.84,3c.32,1.78.65,3.56,1,5.34a78.75,78.75,0,0,0,.89,8.72,94.33,94.33,0,0,1,1.84,17.95c.14,8,0,15.94-.21,23.9-.12,4.32,1.27,8.34,1.93,12.5a2.42,2.42,0,0,0,2.68,2.29l11.7,1.29,4.85.66c1.83,1.22,3.86,1.16,5.92.94l6.73.61a9.18,9.18,0,0,0,6,.33l12.76-.37,2.11-.21,2.9-.22a3.12,3.12,0,0,0,3.07-.22l3.87-.09a2.88,2.88,0,0,0,3.07-.32l5.92-.92,2.11-.23,3.84.43a2.9,2.9,0,0,0,3,.7l6.71,1.18a8,8,0,0,0,4.92,1.06l4.79.82c1.6,1.43,3.6,1.4,5.55,1.49,6.24.3,12.39-.8,18.54-1.5,4.54-.51,9-1.5,13.53-2.32a15.94,15.94,0,0,0,2.28-.74l1.89-.09a4.89,4.89,0,0,0,4.07-.39c3.34.62,6.38-.61,9.44-1.6.52-.17.85-.9,1.27-1.38a4.15,4.15,0,0,0,1.31-3.86c.13-.79.26-1.58.4-2.37a2.49,2.49,0,0,0-.4-2.54c0-1.77,0-3.54.05-5.31a13.87,13.87,0,0,0-1.71-8.69l-.06-2.44a4.85,4.85,0,0,0-1.12-4.55l.17-2a13.69,13.69,0,0,1,3.31.67c5.12,2.43,10.65,2.67,16.13,3.12a20.6,20.6,0,0,0,4.82-.34c4.79-.75,9.52-1.91,14.42-1.85C348.68,252.28,349.25,251.73,349.81,251.44Z" style="fill:#4a435b"/><path d="M243.61,114.86a5.62,5.62,0,0,1-4.47,3.41c-7.5,1.64-15,3.37-22.51,4.92a38.07,38.07,0,0,1-6.84.6c-8,.18-16,.46-24,0a114.38,114.38,0,0,0-13.73.11c-6.72.39-13.4-.39-20.1-.44-.82,0-1.64-.15-2.45-.12a2.69,2.69,0,0,0-2.84,3.19c.18,2.45.58,4.88.73,7.32a141.66,141.66,0,0,1-.46,26,226,226,0,0,0-1.55,33.81c.2,6,.57,12.11,2.44,18a15.08,15.08,0,0,1,.56,2.39c1.18,7.6,2.46,15.18,3.45,22.81a83,83,0,0,1,.33,17.62,139.11,139.11,0,0,0-.45,14.72c.08,3.4.82,6.79,1.24,10.19.2,1.6.36,3.21.54,4.81-.53.55-1.38,1-1.51,1.66a2.68,2.68,0,0,0,.79,2.07c.7.7,1.57,1.22,1.52,2.35-.15,3,1.81,4,4.29,4.27a32.11,32.11,0,0,0,4.89.3c4.23-.12,8.47-.27,12.69-.59a45.69,45.69,0,0,1,9.28-.09,19.26,19.26,0,0,0,2.93-.12,40.2,40.2,0,0,1,4.39-.08c4.55.35,9.07.81,13.68.32,5.34-.57,10.72-.84,16.08-1,4.56-.15,9.12,0,13.62-1a12.81,12.81,0,0,1,3.41.2,10.25,10.25,0,0,0,2.92.05c.66-.17,1.15-1,1.72-1.49a20.81,20.81,0,0,1,9,1.9,10.49,10.49,0,0,0,6.62.86,28,28,0,0,1,4.85-.05c-.63,2.48,1.35,4.12,2,5.86-.4,2-.73,3.75-1.06,5.47a5.29,5.29,0,0,0-3,4.17,7.69,7.69,0,0,0,.67,3.73c1.84,4.81,5.12,7.8,10.54,7.88a3.61,3.61,0,0,0,1.49,2.95c1.33.92,2.65,1.87,4.07,2.89,2.95-1,5.83-2.12,8.75-3.08a6.24,6.24,0,0,1,2.87-.41c3.05.55,6.08,1.23,9.08,2a2.42,2.42,0,0,1,1.37,3.59,8.89,8.89,0,0,1-3.25,3.58c-2.76,1.83-5.92,2.71-8.85,4.11s-5.69,1-8.45-.32a16.13,16.13,0,0,1-2.1-1.28c-1.6-1.12-3.16-1.5-5-.33a8.2,8.2,0,0,1-8,.49c-2-.87-4.08-.73-6.25-.59-3.66.25-6.49,1.93-9.27,4.06a11.19,11.19,0,0,0-4.39,5.69,20.59,20.59,0,0,1-3.4,7c-1.78,2.27-1.07,8.18.94,10.5.19.22.58.28.88.41-.68,2.28-1.35,4.56-2,6.84-2.05-.21-3.42.56-3.72,2.71a36.76,36.76,0,0,0-.31,3.79,2.09,2.09,0,0,0,1.65,2.05c-2.3,7.92-7,14.41-12.38,20.42a70.14,70.14,0,0,1-14.62,12.31c-10.66,6.77-21.62,6.72-32.81,1.55-5.11-2.36-8.58-6.53-11.43-11.19a70.88,70.88,0,0,1-9.43-26.19,92.52,92.52,0,0,1-.73-26.43,94.22,94.22,0,0,0,.41-13.24,16.18,16.18,0,0,0-3.78-10.43,9.4,9.4,0,0,0-3.95-2.78,24.13,24.13,0,0,0-15-.68c-6,1.54-12,3.31-18,5.16a121.89,121.89,0,0,1-30.84,5.76,47.53,47.53,0,0,1-9.31-.45c-8.81-1.35-15.63-5.7-19.49-14-4.45-9.56-7.82-19.45-8.8-30-.34-3.74-1.2-7.43-.81-11.25a37.12,37.12,0,0,1,4.45-14.45,124.4,124.4,0,0,1,25.5-32.24,91.51,91.51,0,0,0,13.62-14.8A19.26,19.26,0,0,0,93,191a46,46,0,0,0-5.8-7.89c-4.15-4.05-6.81-4.72-12.4-2a26.53,26.53,0,0,0-4.5,3A148,148,0,0,0,55.8,197.35a75,75,0,0,1-18,13.47A51.57,51.57,0,0,1,32.29,213c.3-1.23.3-2.67,1-3.65,1.31-1.93,1.25-3.87.88-5.95A44.6,44.6,0,0,0,47.29,193.3q12.32-13,24.21-26.33c6.09-6.84,13-12.4,21.66-15.52,2.15-.77,4.31-1.52,6.46-2.3,1.79-.65,2.79-2.38,1.78-3.83-2.68-3.87-3.46-8.44-4.93-12.73a91.81,91.81,0,0,1-2.21-9.51c-.22-1-.46-1.89-.68-2.83.14-1.93.34-3.86.4-5.8a1.71,1.71,0,0,0-2.29-1.7,5.24,5.24,0,0,0-1.82.64c-1.63,1.28-3.28,1-5,.38a11.77,11.77,0,0,0-2.38-.33c-.09-.77-.19-1.54-.28-2.31a8.71,8.71,0,0,0,4.81-4c3.34-5,2.86-9.5-3.09-13.23-1.79-1.12-3.88-1.76-5.74-2.78-2.59-1.41-5.12-2.91-7.62-4.46A17.07,17.07,0,0,1,65.14,81,38.69,38.69,0,0,1,59,59.61c.14-7,3.13-13,7.3-18.4A6,6,0,0,1,72,38.91a27.52,27.52,0,0,1,9.39,2.71c2.51,1.19,4.91,2.6,7.36,3.93,4.74,2.57,9.44,5.23,14.24,7.7a28.53,28.53,0,0,0,15.28,2.8,167.06,167.06,0,0,1,34.26,1.71c3.71.51,7.34,1.6,11,2.4,4.47,1,8.92,2.06,13.42,2.85a33.24,33.24,0,0,1,7,2.14,55.51,55.51,0,0,0,6.89,2.58,10.16,10.16,0,0,0,12.38-6.93,30,30,0,0,0,1.14-10.2,34.08,34.08,0,0,1,3.12-16.22,4.87,4.87,0,0,1,.62-1.32c.42-.44,1-1,1.52-1a1.93,1.93,0,0,1,1.45,1c1,2.78,1.85,5.59,2.69,8.41.42,1.41.65,2.88,1.07,4.29A9.83,9.83,0,0,0,218.4,51c2.62,2,6.34,2.12,8.62-.05,3-2.81,5.81-5.81,6.42-10.15,1-1,.89-2.78,2.65-3.37a5.32,5.32,0,0,1,.55,1.38c.16,2.92.29,5.85.37,8.78.18,6.5.36,13,1.81,19.4,2.08,9.2,4.31,18.37,5.17,27.79a1.35,1.35,0,0,0,.19.45l.15,7.88a1.46,1.46,0,0,0-.07,2l-.21,5.81C243.91,112.2,243.76,113.53,243.61,114.86Zm-19-11.7a20.25,20.25,0,0,0-.2,2.89,2.13,2.13,0,0,0,.77,1.57,1.83,1.83,0,0,0,1.7-.36c1.34-1.43,2.38-3.15,3.8-4.48a7.2,7.2,0,0,0,2.39-4.66c.17-1.62.45-3.23.49-4.85q.26-9.08.36-18.14c0-3.92.12-7.84,0-11.76-.08-2.16-1.49-3.14-3.64-3.07a5.11,5.11,0,0,0-3.55,1.44c-.92.93-1.72,2-2.67,2.87a29.31,29.31,0,0,1-3.69,3.19,2.41,2.41,0,0,1-3.84-1.51c-.36-1.25-.46-2.57-.75-3.85a6.76,6.76,0,0,0-.71-1.77,1.41,1.41,0,0,0-2.41.08,44.47,44.47,0,0,0-1.39,5.18c-1,4.81-1.83,9.63-2.76,14.44-.74,3.86-2.84,6.16-7,6.09a2.76,2.76,0,0,0-.91.32c-3.76-.16-7.51-.33-11.27-.48a16.35,16.35,0,0,1-9.62-3.24c-3.52-2.68-7.08-5.3-10.57-8-2.79-2.16-5.78-3.94-9.39-3.7a68.3,68.3,0,0,0-10.17,1.48,13.9,13.9,0,0,0-7.74,5c-2.18,2.66-4.37,5.33-6.41,8.1a16.54,16.54,0,0,0-3,14.41,30.22,30.22,0,0,1,1.05,5.79c.3,6.28-7,11.55-13,9.5-4.22-1.46-6.08-4.85-6.88-8.86a33.24,33.24,0,0,1-.34-6.85,36.21,36.21,0,0,1,2.5-12,23.18,23.18,0,0,0,1.31-9.68c-.34-4.41-3.62-6.71-7.9-5.66A19.18,19.18,0,0,0,105.57,74c-.73.35-1.35.93-2.06,1.33-1.39.76-2.41.51-3.37-.86-.56-.8-.91-1.76-1.5-2.53a16.7,16.7,0,0,0-3.23-3.65,30.23,30.23,0,0,1-6.52-6.6,44.51,44.51,0,0,0-5.47-5.6c-1.23-1.08-2.86-.57-3.82.81a6.53,6.53,0,0,0-.91,4.72c.53,4.44,1.56,8.65,4.83,12.08s6,6.92,9,10.4a20.28,20.28,0,0,1,4.13,7.74,112.24,112.24,0,0,1,4.75,28,33.16,33.16,0,0,0,5.49,17.6,7.66,7.66,0,0,0,4.52,3.54c5.58,1.48,11,1.43,16.15-1.62A41.16,41.16,0,0,0,142,125.58q5.4-8.79,11-17.49a31.68,31.68,0,0,1,3.26-4.29,9.55,9.55,0,0,1,2.65-1.4c1.47,2.54,2,5.12,3.09,7.49,1.71,3.93,4.58,6.36,8.92,6.75,6,.54,11.78-.1,17.18-3,2.45-1.32,4.85-2.76,7.38-3.91,4.95-2.26,10-4.23,15.59-3.9a20,20,0,0,0,11.36-2.45A5.88,5.88,0,0,1,224.65,103.16Zm-87.94,69.2a67.13,67.13,0,0,0-.14-6.8c-.62-5.54-4.65-8.84-10.1-8.23a94.94,94.94,0,0,0-11.15,1.84c-4.94,1.17-10,2-14.65,4.11-3.44,1.53-6.89,3-10.33,4.55a6.65,6.65,0,0,0-.85.49c-1.57,1-1.64,2.52,0,3.47,5.23,3,9.12,7.42,12.91,12a16,16,0,0,1,2.58,4.14,43,43,0,0,1,1.33,29.81,12.35,12.35,0,0,1-6.12,7.32c-3.54,2-7,4.24-10.36,6.57A35.24,35.24,0,0,0,79.37,242.5,19,19,0,0,0,77.51,247a1.91,1.91,0,0,0,2.43,2.2c1.39-.45,2.69-1.18,4.06-1.72,2.88-1.16,5.73-2.46,8.69-3.35,2.5-.74,4,.26,5.1,2.63A12.86,12.86,0,0,1,98.3,255c-1,4.91-3.9,8.21-8.93,9.34a38,38,0,0,1-4.85.79A40.56,40.56,0,0,0,75,267.48a14.94,14.94,0,0,0-8.19,6.68,55.77,55.77,0,0,0-5.36,12.11c-3.1,9.82,1.17,16.34,9,21.7a3.91,3.91,0,0,0,5-.34,15,15,0,0,0,2.64-2.88c1.09-1.62,2-3.38,3-5.08,2-3.4,3.81-6.89,6-10.17a27.23,27.23,0,0,1,12.6-10.6c2.5-1,4-.63,5.63,1.48a14.62,14.62,0,0,1,2.06,3.86c1,2.58.31,5.12-.39,7.7-1,3.68-2.94,6-6.91,6.66a28.33,28.33,0,0,0-6.44,2.3,6.68,6.68,0,0,0-3.76,4.86A17.36,17.36,0,0,0,91.5,318.6c2.3,4.39,5.45,7.35,10.81,7,1.14-.08,2.29.07,3.43,0,6.29-.5,11.4-2.9,14.18-9,.41-.89,1-1.7,1.39-2.6,2.37-5.58,5.22-11,6.92-16.79,2.14-7.23,4.59-14.32,7.23-21.37,1.2-3.21,1.73-6.65,2.71-9.95,1.77-6,3-12.09,2.44-18.41-.2-2.44-.34-4.9-.35-7.36a24.06,24.06,0,0,0-1.78-9.1,77.39,77.39,0,0,1-5.09-22.45,64.19,64.19,0,0,1,.1-9.3c.19-3.6.54-7.19.93-10.77.36-3.42.82-6.83,1.29-10.24C136,176.47,136.31,174.7,136.71,172.36ZM242.84,311.52a6,6,0,0,0-4.71-2.45c-5.54-.56-11.08-1.14-16.62-1.69-10.27-1-20.53-2.05-30.8-3-4.56-.41-9.15-.82-13.72-.84a159.63,159.63,0,0,1-17.63-1.05,7,7,0,0,0-2.41.1,1.88,1.88,0,0,0-.89,3.11c.33.35.72.66,1.08,1,3.58,3.34,7.14,6.72,10.78,10a39,39,0,0,0,5.32,4.31,27.35,27.35,0,0,1,10.3,12.19,11.81,11.81,0,0,1-.76,11.7c-.92,1.54-2.2,2.84-3.26,4.3a30.54,30.54,0,0,0-3.29,4.86c-3.45,7.45-6.29,15.07-6.79,23.43a59.51,59.51,0,0,0,1.36,15.6c.83,4,3.22,7.17,6.08,9.92,2.61,2.5,5.67,2.41,8.29-.16a7.82,7.82,0,0,0,2-3.29c.9-3.3,1.5-6.69,2.29-10s1.55-6.69,2.52-10a10.22,10.22,0,0,1,2-3.35,2.65,2.65,0,0,1,3.93-.48,7.53,7.53,0,0,1,2.32,2.46,46,46,0,0,1,1.61,5.11,43.64,43.64,0,0,0,2.1,6,5.86,5.86,0,0,0,5,3.49c5,.29,9.5-.85,12.57-5.15a29,29,0,0,0,3.68-6.33,72.12,72.12,0,0,0,4.25-18.12,14,14,0,0,0-2.49-10.27,13.74,13.74,0,0,1-2.34-11.65,41.79,41.79,0,0,1,8-17.77c2.73-3.46,5.81-6.65,8.73-10C241.79,312.92,242.24,312.28,242.84,311.52Z" style="fill:#c3bbb2"/><path d="M244.24,362c-.3-.13-.69-.19-.88-.41-2-2.32-2.72-8.23-.94-10.5a20.59,20.59,0,0,0,3.4-7,11.19,11.19,0,0,1,4.39-5.69c2.78-2.13,5.61-3.81,9.27-4.06,2.17-.14,4.22-.28,6.25.59a8.2,8.2,0,0,0,8-.49c1.83-1.17,3.39-.79,5,.33a16.13,16.13,0,0,0,2.1,1.28c2.76,1.35,5.46,1.75,8.45.32s6.09-2.28,8.85-4.11a8.89,8.89,0,0,0,3.25-3.58,2.42,2.42,0,0,0-1.37-3.59c-3-.75-6-1.43-9.08-2a6.24,6.24,0,0,0-2.87.41c-2.92,1-5.8,2-8.75,3.08-1.42-1-2.74-2-4.07-2.89a3.61,3.61,0,0,1-1.49-2.95l16.44-2.5a11.88,11.88,0,0,1,1.46-.18c6.43-.17,12.56-2,18.78-3.36a13.48,13.48,0,0,0,6.39-3.45,7.3,7.3,0,0,0,2.35-5.71,5.51,5.51,0,0,0-6.33-5.74,25.59,25.59,0,0,0-3.37.61c-3,.65-6.06,1.34-9.1,2-6.74,1.46-13.64,1.34-20.47,2-2.75.26-5.53.26-8.3.38a20.13,20.13,0,0,0,0-2.8c-.14-1.15-.8-1.63-2.15-1,0,1.29.05,2.66.07,4l-3.95,0c.33-1.72.66-3.43,1.06-5.47-.61-1.74-2.59-3.38-2-5.86a1.68,1.68,0,0,1,.46-.16l15.39-1.42c1.15,1.26,1.29,1.24,2.15-.33l11.81-1.43c1.12,1.4,1.28,1.38,2.18-.22l7.78-.78c.34.36.62.93,1,1,3.15.74,6.31,1.46,9.5,2a2.41,2.41,0,0,0,1.9-1.2c.83-1.81,1.3-3.74-.44-5.4.2-2.17.41-4.33.62-6.5,1.39-1.13,1.37-1.3-.27-2.2l-.39-2.06A2,2,0,0,0,318,273c.08-1.06,0-2.13.06-3.19l0-.16a3.54,3.54,0,0,0,.21-.94c0-1.93-.49-3.93-.13-5.78s1.54-3.83,2.36-5.73l1.73-.06c.53,1.45,1.26,2.66,3.06,2.63,2.26,0,4.51-.09,6.77-.11a2.28,2.28,0,0,0,2.25-1.52c.32,0,.65,0,1,0l1.45,2.16c1,2.91,1.83,5.85,2.92,8.7.93,2.43,2,4.79,1.69,7.47-.09.1-.28.22-.27.3a4.59,4.59,0,0,0,.29.69c-.07,1-.13,1.94-.2,2.91-.12.09-.35.17-.35.25a4,4,0,0,0,.16.75c-1.83,6.12-3.74,12.17-7.8,17.32a29.53,29.53,0,0,0-3.14,6.07c-.81,1.78-1.43,3.65-2.14,5.48-1.69,2.38-3.52,4.68-5,7.18-3.76,6.17-8.07,11.83-13.87,16.25a6.4,6.4,0,0,0-1.38,1.37c-2.79,4.06-7,6.35-11.15,8.52-4.86,2.52-9.88,2.88-15,0a29.07,29.07,0,0,0-7.83-2.71c-3.82-.86-7.71-1.44-11.59-1.95-3.67-.48-6.61,1-9.05,3.73a29.08,29.08,0,0,0-7.51,15.15A30.44,30.44,0,0,1,244.24,362Z" style="fill:#cbc1b4"/><path d="M34.13,203.37c.37,2.08.43,4-.88,5.95-.66,1-.66,2.42-1,3.65l-1.75.44c-2.5-1.94-4.46-1.58-6.38,1.17l-1.73-.08A3.88,3.88,0,0,0,19.64,212c-2-.45-4.07-1-6.11-1.44l0,.06a3.78,3.78,0,0,0,.05-1.45c-1.68-4.05-3.35-8.11-5.15-12.11a4.23,4.23,0,0,0-4-2.37,60.15,60.15,0,0,1,1.44-31.44,85.1,85.1,0,0,1,8.42-18.73,226.13,226.13,0,0,1,13.21-20c1.27-1.7,2.65-3.32,4.08-4.89,4.92-5.44,11.19-7.79,18.41-7.65,5.06.1,10.11.41,15.17.74a47.56,47.56,0,0,0,10.26-.1h.94l1.3-.2-.57,2.09c-1.29-.11-2,.79-2.93,1.51A95.35,95.35,0,0,1,61.27,125c-4.11,2.33-8.1,2.13-12.21.3-1.34-.59-2.63-1.32-4-1.94a8.63,8.63,0,0,0-5.28-.62c-3,.55-5.77,1.61-7,4.68-.77,2,1.43,5.07,4.54,6.92,1.26.75,2.62,1.38,3.8,2.24,2.8,2.07,2.73,4.7,0,6.87a4.66,4.66,0,0,1-3.65,1.06,27.12,27.12,0,0,1-4.34-.73,8.73,8.73,0,0,0-6.65.68A25.86,25.86,0,0,0,16.59,153a8.51,8.51,0,0,0-1.54,7,42,42,0,0,0,2.44,7.95c1.76,4,4.16,4.64,7.84,2.42A27.37,27.37,0,0,0,28.5,168c1.77-1.44,3.49-3,5.26-4.41,1.13-.94,2.25-1.93,3.87-1.79a2.78,2.78,0,0,1,.82.54,9,9,0,0,1-4.39,14c-1.85.61-3.81.9-5.71,1.4a6.67,6.67,0,0,0-4.31,3,21.91,21.91,0,0,0-2.56,17c1.16,4.51,4,6.37,8.76,6.11C31.54,203.76,32.83,203.53,34.13,203.37Z" style="fill:#bdb4ab"/><path d="M246.85,83.74c-.18-.73-.37-1.46-.55-2.2L246,79.4c-1.1-3.92-2.36-7.81-3.28-11.77C240.23,56.72,241,45.52,240,34.48a3.59,3.59,0,0,1,.17-1c-.06-.61-.12-1.22-.19-1.83-1.16-4.65-.9-9.4-1-14.12-.09-.62-.19-1.23-.28-1.85l-.32-4.12c-.06-.93-.13-1.85-.2-2.78q-.27-3.59-.53-7.19c-.12-.34-.23-.67-.33-1L232.72.19c.16.6.33,1.2.55,1.79a12.2,12.2,0,0,1,.47,2.9c.51,5.05,1,10.09,1.5,15.14a15.83,15.83,0,0,1-.66,6.29c-1.42,4.7-2.64,9.46-3.94,14.19l2.8.25c1-1,.89-2.78,2.65-3.37a5.32,5.32,0,0,1,.55,1.38c.16,2.92.29,5.85.37,8.78.18,6.5.36,13,1.81,19.4,2.08,9.2,4.31,18.37,5.17,27.79a1.35,1.35,0,0,0,.19.45c1.11-.45,1.8-.17,2.08,1.08a4.15,4.15,0,0,0,.74,1.2c.87-1.49.59-3.08.47-4.67C247.24,89.78,247.05,86.76,246.85,83.74Z" style="fill:#5d536c"/><path d="M4.42,194.73a4.23,4.23,0,0,1,4,2.37c1.8,4,3.47,8.06,5.15,12.11a3.78,3.78,0,0,1-.05,1.45,2.35,2.35,0,0,1-2.64-.85,23.73,23.73,0,0,1-3.14-4.36A27.65,27.65,0,0,1,4.42,194.73Z" style="fill:#c3bbb2"/><path d="M239.83,377.38a2.09,2.09,0,0,1-1.65-2.05,36.76,36.76,0,0,1,.31-3.79c.3-2.15,1.67-2.92,3.72-2.71C241.42,371.68,240.62,374.53,239.83,377.38Z" style="fill:#cbc1b4"/><path d="M13.53,210.6c2,.48,4.07,1,6.11,1.44a3.88,3.88,0,0,1,2.79,2.46c-2.33-.35-4.7-.57-7-1.1A2.25,2.25,0,0,1,13.53,210.6Z" style="fill:#c3bbb2"/><path d="M77.08,114.52l.57-2.09,4.53-1.3c.08.77.18,1.54.27,2.31l-4.16,1.42Z" style="fill:#7d7285"/><path d="M24.16,214.58c1.92-2.75,3.88-3.11,6.38-1.17C28.64,215,26.33,214.42,24.16,214.58Z" style="fill:#c3bbb2"/><path d="M76.35,112.63h-.94A4.22,4.22,0,0,1,76.35,112.63Z" style="fill:#7d7285"/><path d="M341.37,277.44a4.59,4.59,0,0,1-.29-.69c0-.08.18-.2.27-.3C341.36,276.78,341.37,277.11,341.37,277.44Z" style="fill:#c3bbb2"/><path d="M341,281.35a4,4,0,0,1-.16-.75c0-.08.23-.16.35-.25C341.11,280.69,341,281,341,281.35Z" style="fill:#c3bbb2"/><path d="M309.44,250.67l1.65-1.36a41.61,41.61,0,0,1,4.22,1.16A44.46,44.46,0,0,0,327.19,253a27.79,27.79,0,0,0,8.72-.45c2.85-.62,5.76-1,8.64-1.45a8.62,8.62,0,0,1,5.26.38c-.56.29-1.13.84-1.69.83-4.9-.06-9.63,1.1-14.42,1.85a20.6,20.6,0,0,1-4.82.34c-5.48-.45-11-.69-16.13-3.12A13.69,13.69,0,0,0,309.44,250.67Z" style="fill:#5d536c"/><path d="M244.18,290.93c-.57.52-1.06,1.32-1.72,1.49a10.25,10.25,0,0,1-2.92-.05,12.81,12.81,0,0,0-3.41-.2c-4.5,1-9.06.85-13.62,1-5.36.17-10.74.44-16.08,1-4.61.49-9.13,0-13.68-.32a40.2,40.2,0,0,0-4.39.08,19.26,19.26,0,0,1-2.93.12,45.69,45.69,0,0,0-9.28.09c-4.22.32-8.46.47-12.69.59a32.11,32.11,0,0,1-4.89-.3c-2.48-.31-4.44-1.25-4.29-4.27.05-1.13-.82-1.65-1.52-2.35a2.68,2.68,0,0,1-.79-2.07c.13-.63,1-1.11,1.51-1.66,1,1.26,2.05,2.49,3,3.79a5.54,5.54,0,0,0,3.14,2.55A11.81,11.81,0,0,1,161.4,289a6.89,6.89,0,0,1,2.64-1,40.34,40.34,0,0,1,10.23.47c2.4.47,4.85.67,7.26,1.1,9.58,1.71,19.17.89,28.78.34q9.27-.52,18.52-1.39A33.27,33.27,0,0,1,244.18,290.93Z" style="fill:#b0a79c"/><path d="M316.4,285.72c1.74,1.66,1.27,3.59.44,5.4a2.41,2.41,0,0,1-1.9,1.2c-3.19-.53-6.35-1.25-9.5-2-.39-.1-.67-.67-1-1,2.66-.62,5.25-1.57,8.07-1.13C314.44,288.48,315.26,286.8,316.4,285.72Z" style="fill:#c3bbb2"/><path d="M320.5,257.22c-.82,1.9-2,3.75-2.36,5.73s.08,3.85.13,5.78a3.54,3.54,0,0,1-.21.94c-1-1.06-2.05-2.11-3.08-3.17-.31-1.53-.62-3.05-.92-4.57C315,258.71,317,256.94,320.5,257.22Z" style="fill:#c3bbb2"/><path d="M334.31,258.16a2.28,2.28,0,0,1-2.25,1.52c-2.26,0-4.51.07-6.77.11-1.8,0-2.53-1.18-3.06-2.63.28-.33.55-.67.83-1l5.5.2c.89.26,1.79.5,2.67.78S333.28,257.81,334.31,258.16Z" style="fill:#c3bbb2"/><path d="M247.78,107.39l-1.05,8.83a7,7,0,0,0-1.44-1.14,5.69,5.69,0,0,0-1.68-.22c.15-1.33.3-2.66.44-4a2.05,2.05,0,0,0,1.78-1.92c.26-1.53-.08-3.23,1.17-4.51Z" style="fill:#5d536c"/><path d="M323.06,256.15c-.28.34-.55.68-.83,1l-1.73.06c-3.5-.28-5.5,1.49-6.44,4.71a14,14,0,0,1-.62-3.19c.08-1.92,1-3,3-3.11A57.44,57.44,0,0,1,323.06,256.15Z" style="fill:#5d536c"/><path d="M312.16,268.34c-1-2.8-2-5.63-1.71-8.69A13.87,13.87,0,0,1,312.16,268.34Z" style="fill:#5d536c"/><path d="M318,269.83c0,1.06,0,2.13-.06,3.19a2,2,0,0,1-1.62,1.94c-.28-1.17-.57-2.33-.85-3.5Z" style="fill:#c3bbb2"/><path d="M334.31,258.16c-1-.35-2.05-.71-3.08-1s-1.78-.52-2.67-.78c3.72-1.18,4.69-.92,6.73,1.77C335,258.12,334.63,258.13,334.31,258.16Z" style="fill:#5d536c"/><path d="M318,269.83l-2.53,1.63-.54-5c1,1.06,2.07,2.11,3.09,3.17Z" style="fill:#5d536c"/><path d="M310.39,257.21c-.58-1.24-1.17-2.48-1.74-3.72.2-.28.41-.56.62-.83A4.85,4.85,0,0,1,310.39,257.21Z" style="fill:#5d536c"/><path d="M207.92,287c1-1.32,1.07-1.33,2.11-.21Z" style="fill:#b0a79c"/><path d="M282.66,291.73c-.86,1.57-1,1.59-2.15.33Z" style="fill:#c3bbb2"/><path d="M296.65,290.08c-.9,1.6-1.06,1.62-2.18.22Z" style="fill:#c3bbb2"/><path d="M228.86,285c.95-1.31,1.06-1.32,2.11-.23Z" style="fill:#b0a79c"/><path d="M316.75,277c1.64.9,1.66,1.07.27,2.2Z" style="fill:#c3bbb2"/><path d="M312.51,276.19a1.87,1.87,0,0,1-.4-2.54A2.49,2.49,0,0,1,312.51,276.19Z" style="fill:#5d536c"/><path d="M247,104.44c-1.25,1.28-.91,3-1.17,4.51a2.05,2.05,0,0,1-1.78,1.92l.21-5.81c.87-.64.82-1.31.07-2l-.15-7.88c1.11-.45,1.8-.17,2.08,1.08a4.15,4.15,0,0,0,.74,1.2Z" style="fill:#4a435b"/><path d="M286.19,223.18l.43.6a3.23,3.23,0,0,1-.64.33c-.05,0-.28-.23-.26-.27A4.57,4.57,0,0,1,286.19,223.18Z" style="fill:#cfc6b9"/><path d="M136.71,172.36c-.4,2.34-.75,4.11-1,5.89-.47,3.41-.93,6.82-1.29,10.24-.39,3.58-.74,7.17-.93,10.77a64.19,64.19,0,0,0-.1,9.3A77.39,77.39,0,0,0,138.48,231a24.06,24.06,0,0,1,1.78,9.1c0,2.46.15,4.92.35,7.36.51,6.32-.67,12.39-2.44,18.41-1,3.3-1.51,6.74-2.71,9.95-2.64,7.05-5.09,14.14-7.23,21.37-1.7,5.78-4.55,11.21-6.92,16.79-.39.9-1,1.71-1.39,2.6-2.78,6.07-7.89,8.47-14.18,9-1.14.09-2.29-.06-3.43,0C97,326,93.8,323,91.5,318.6a17.36,17.36,0,0,1-1.67-12.84,6.68,6.68,0,0,1,3.76-4.86,28.33,28.33,0,0,1,6.44-2.3c4-.66,5.92-3,6.91-6.66.7-2.58,1.34-5.12.39-7.7a14.62,14.62,0,0,0-2.06-3.86c-1.64-2.11-3.13-2.5-5.63-1.48A27.23,27.23,0,0,0,87,289.5c-2.16,3.28-4,6.77-6,10.17-1,1.7-1.88,3.46-3,5.08a15,15,0,0,1-2.64,2.88,3.91,3.91,0,0,1-5,.34c-7.81-5.36-12.08-11.88-9-21.7a55.77,55.77,0,0,1,5.36-12.11A14.94,14.94,0,0,1,75,267.48a40.56,40.56,0,0,1,9.51-2.39,38,38,0,0,0,4.85-.79c5-1.13,7.89-4.43,8.93-9.34a12.86,12.86,0,0,0-.51-8.21c-1.07-2.37-2.6-3.37-5.1-2.63-3,.89-5.81,2.19-8.69,3.35-1.37.54-2.67,1.27-4.06,1.72a1.91,1.91,0,0,1-2.43-2.2,19,19,0,0,1,1.86-4.49,35.24,35.24,0,0,1,10.48-10.92c3.36-2.33,6.82-4.53,10.36-6.57a12.35,12.35,0,0,0,6.12-7.32A43,43,0,0,0,105,187.88a16,16,0,0,0-2.58-4.14c-3.79-4.53-7.68-9-12.91-12-1.66-.95-1.59-2.48,0-3.47a6.65,6.65,0,0,1,.85-.49c3.44-1.52,6.89-3,10.33-4.55,4.68-2.08,9.71-2.94,14.65-4.11a94.94,94.94,0,0,1,11.15-1.84c5.45-.61,9.48,2.69,10.1,8.23A67.13,67.13,0,0,1,136.71,172.36ZM73,305.14a16.44,16.44,0,0,0,1.92-1.85A38,38,0,0,0,77.06,300c2.44-4.07,4.79-8.21,7.31-12.23,2.94-4.7,7.31-7.9,11.95-10.74a12.52,12.52,0,0,1,3.62-1.51c3.1-.72,5.79-.08,7.82,2.67a13.45,13.45,0,0,1,2.88,10.13,40.65,40.65,0,0,1-1.72,6.63,8.86,8.86,0,0,1-7.71,6.64,13,13,0,0,0-5.95,2.16,5.79,5.79,0,0,0-2.69,4.47,15.59,15.59,0,0,0,2.31,9.87,8.85,8.85,0,0,0,7.75,4.43,39.74,39.74,0,0,0,6.34-.65,8.86,8.86,0,0,0,6-3.9,61.59,61.59,0,0,0,3.55-5.88c3.38-6.57,6.5-13.27,7.92-20.56a57.68,57.68,0,0,1,3.5-10.72c1.23-3,2.36-6.09,3.41-9.18.64-1.85,1-3.82,1.58-5.68,3.2-9.41,2.95-19,1.68-28.68a22.32,22.32,0,0,0-1.6-5.14,71.1,71.1,0,0,1-4.61-33.25c.85-9.14,1.9-18.26,2.83-27.38a19.17,19.17,0,0,0,.1-4.41c-.58-4.46-3.31-6.71-7.78-6.2a127.37,127.37,0,0,0-12.61,2c-5,1.07-9.91,2.33-14.31,5.05-1.08.67-2.35,1.21-2.73,3.06a74.46,74.46,0,0,0,6.07,6.69,25.28,25.28,0,0,1,7.06,11,55,55,0,0,1,2.38,20.86,40.13,40.13,0,0,1-2.2,10,13.74,13.74,0,0,1-6.8,8,136.93,136.93,0,0,0-12.08,7.54,43.55,43.55,0,0,0-5.71,5.34,1.62,1.62,0,0,0-.13,2.43c.78-.15,1.7-.26,2.58-.51,1.88-.55,3.71-1.34,5.62-1.73,4-.83,6.61.82,7.86,4.76a23.46,23.46,0,0,1,.88,8.75,13.41,13.41,0,0,1-3.28,8,16.13,16.13,0,0,1-10,5.72q-5.81,1-11.54,2.34A10.33,10.33,0,0,0,70,275c-2.86,4.64-5.14,9.52-5.85,15C63.22,296.76,66.13,301.83,73,305.14Z" style="fill:#5d536c"/><path d="M224.65,103.16a5.88,5.88,0,0,0-2.3.23A20,20,0,0,1,211,105.84c-5.58-.33-10.64,1.64-15.59,3.9-2.53,1.15-4.93,2.59-7.38,3.91-5.4,2.89-11.2,3.53-17.18,3-4.34-.39-7.21-2.82-8.92-6.75-1-2.37-1.62-5-3.09-7.49a9.55,9.55,0,0,0-2.65,1.4,31.68,31.68,0,0,0-3.26,4.29q-5.55,8.7-11,17.49a41.16,41.16,0,0,1-14.37,13.85c-5.13,3-10.57,3.1-16.15,1.62a7.66,7.66,0,0,1-4.52-3.54,33.16,33.16,0,0,1-5.49-17.6,112.24,112.24,0,0,0-4.75-28,20.28,20.28,0,0,0-4.13-7.74c-3-3.48-5.86-7.07-9-10.4s-4.3-7.64-4.83-12.08a6.53,6.53,0,0,1,.91-4.72c1-1.38,2.59-1.89,3.82-.81a44.51,44.51,0,0,1,5.47,5.6,30.23,30.23,0,0,0,6.52,6.6A16.7,16.7,0,0,1,98.64,72c.59.77.94,1.73,1.5,2.53,1,1.37,2,1.62,3.37.86.71-.4,1.33-1,2.06-1.33a19.18,19.18,0,0,1,3.62-1.49c4.28-1,7.56,1.25,7.9,5.66a23.18,23.18,0,0,1-1.31,9.68,36.21,36.21,0,0,0-2.5,12,33.24,33.24,0,0,0,.34,6.85c.8,4,2.66,7.4,6.88,8.86,6,2,13.26-3.22,13-9.5a30.22,30.22,0,0,0-1.05-5.79,16.54,16.54,0,0,1,3-14.41c2-2.77,4.23-5.44,6.41-8.1a13.9,13.9,0,0,1,7.74-5,68.3,68.3,0,0,1,10.17-1.48c3.61-.24,6.6,1.54,9.39,3.7,3.49,2.72,7.05,5.34,10.57,8a16.35,16.35,0,0,0,9.62,3.24c3.76.15,7.51.32,11.27.48-.08.66-.15,1.31-.23,2-9.45,2.06-18.2,1-25.85-5.54-2.49-2.12-5.14-4-7.73-6a11.84,11.84,0,0,0-6.16-2.88c-5.54-.44-10.77.39-15.23,4.09-2.94,2.45-5,5.59-7.28,8.6a15,15,0,0,0-2.64,13,41,41,0,0,1,.87,4.33c.8,6.94-2.42,11.74-9.15,13.66a18.73,18.73,0,0,1-3.86.7,10.93,10.93,0,0,1-11.09-6.56,20.66,20.66,0,0,1-2.07-9.52,48.46,48.46,0,0,1,1.9-13.09A51.08,51.08,0,0,0,114,81.89c.38-2.27.54-5-2-6s-4.42.63-6.08,2.25a28.46,28.46,0,0,0-2.27,3.18c-1.07,1.38-2.82,1.51-3.74.11a22.6,22.6,0,0,1-2.62-5.22A10.42,10.42,0,0,0,93,70.39a20.49,20.49,0,0,1-6.11-6.26,8,8,0,0,0-4.14-3.71,11.69,11.69,0,0,0-.46,2.48,13.81,13.81,0,0,0,3.46,8.47c3,3.45,6,7,9,10.41a29.39,29.39,0,0,1,6.55,14.09c1.7,8.51,3.28,17,3.68,25.74.23,4.91,2.17,9.2,4.54,13.36a6.68,6.68,0,0,0,4.65,3.29A17.36,17.36,0,0,0,129,135a46.07,46.07,0,0,0,12.21-13.31c3.55-6.07,7.28-12,11.08-18a23.47,23.47,0,0,1,4.13-4.82c2.38-2.1,4.5-1.5,5.73,1.49,1,2.42,1.84,4.91,2.71,7.38,1.29,3.68,3.93,5.45,7.77,5.69a27.62,27.62,0,0,0,15.64-3.23c3.85-2.15,7.86-4,11.89-5.84a20.53,20.53,0,0,1,9.56-1.86,26.25,26.25,0,0,0,5.86-.41c4.45-.78,7.91-3,9.71-7.35a16,16,0,0,1,1.32-2.12l3,.63a4.43,4.43,0,0,1-.33,5.42,40.32,40.32,0,0,1-3.25,3.55l-1.4,1Z" style="fill:#5d536c"/><path d="M242.84,311.52c-.6.76-1.05,1.4-1.57,2-2.92,3.32-6,6.51-8.73,10a41.79,41.79,0,0,0-8,17.77,13.74,13.74,0,0,0,2.34,11.65,14,14,0,0,1,2.49,10.27,72.12,72.12,0,0,1-4.25,18.12,29,29,0,0,1-3.68,6.33c-3.07,4.3-7.58,5.44-12.57,5.15a5.86,5.86,0,0,1-5-3.49,43.64,43.64,0,0,1-2.1-6,46,46,0,0,0-1.61-5.11,7.53,7.53,0,0,0-2.32-2.46,2.65,2.65,0,0,0-3.93.48,10.22,10.22,0,0,0-2,3.35c-1,3.29-1.74,6.64-2.52,10s-1.39,6.73-2.29,10a7.82,7.82,0,0,1-2,3.29c-2.62,2.57-5.68,2.66-8.29.16-2.86-2.75-5.25-5.91-6.08-9.92a59.51,59.51,0,0,1-1.36-15.6c.5-8.36,3.34-16,6.79-23.43a30.54,30.54,0,0,1,3.29-4.86c1.06-1.46,2.34-2.76,3.26-4.3a11.81,11.81,0,0,0,.76-11.7A27.35,27.35,0,0,0,173.24,321a39,39,0,0,1-5.32-4.31c-3.64-3.29-7.2-6.67-10.78-10-.36-.33-.75-.64-1.08-1a1.88,1.88,0,0,1,.89-3.11,7,7,0,0,1,2.41-.1A159.63,159.63,0,0,0,177,303.55c4.57,0,9.16.43,13.72.84,10.27.94,20.53,2,30.8,3,5.54.55,11.08,1.13,16.62,1.69A6,6,0,0,1,242.84,311.52ZM181.05,401.6c2.88-2.6,2.85-2.61,3.62-4.45a28.79,28.79,0,0,0,1.82-9.12,28.26,28.26,0,0,1,3-10.83,14.12,14.12,0,0,1,2.86-3.93c2.39-2.19,5-2.21,7.6-.25a10.65,10.65,0,0,1,4.29,6.38A47,47,0,0,0,206,386c1.22,3.2,3.23,4.18,6.61,3.63a10.54,10.54,0,0,0,6.55-4,19.35,19.35,0,0,0,3.91-7.33c1.11-4.27,2.17-8.57,3-12.9a13.23,13.23,0,0,0-2.27-10.74c-2.45-3.33-3-7.1-2.63-11.19.81-8.64,4.36-16.05,9.61-22.77,1.21-1.55,2.63-2.93,3.79-4.51a16.58,16.58,0,0,0,1.38-3,6.26,6.26,0,0,0-1.52-.91,89,89,0,0,0-17.52-2.17,52.59,52.59,0,0,1-5.89-.34c-7-.87-14-1.91-20.95-2.72-3.58-.41-7.19-.52-10.79-.66-4.09-.15-8.18-.2-12.27-.25a14.46,14.46,0,0,0-2.17.27c-.1.66-.3,1.09-.17,1.26,3,4.09,6,8.2,10.54,10.81,5.33,3.08,8.81,7.73,11.39,13.17a17.36,17.36,0,0,1,1.42,6.68c.23,4.59-1.73,8.43-4.65,11.56-3.7,4-5.88,8.66-7.76,13.55A45.05,45.05,0,0,0,174,392.4,13.9,13.9,0,0,0,181.05,401.6Z" style="fill:#5d536c"/><path d="M77.08,114.52l1.21.34c.64.41,1.3.79,1.91,1.24s1.18.94,1.76,1.42a11.64,11.64,0,0,0-8,3c-3.76,3.21-8.17,5.42-12.46,7.83a12.37,12.37,0,0,1-10.41,1.06c-2.33-.77-4.6-1.7-6.89-2.6a7.59,7.59,0,0,0-4.79-.56c-2.07.54-2.82,2.66-1.28,4.13a17,17,0,0,0,4,2.74,9,9,0,0,1,4.56,4.93,5.42,5.42,0,0,1,.21,3.32,9.72,9.72,0,0,1-11.23,6.51c-.8-.15-1.58-.4-2.38-.58a10.13,10.13,0,0,0-7.56,1.34,18.39,18.39,0,0,0-6.17,6.23,5.92,5.92,0,0,0-.83,2.28,13.87,13.87,0,0,0,2,9.42,1.89,1.89,0,0,0,2.52.87,11.2,11.2,0,0,0,2.51-1.5c1.91-1.54,3.7-3.24,5.66-4.72a16.4,16.4,0,0,1,4.17-2.49c2.78-1,4.78-.17,6.1,2.5,2.44,4.91,2.81,9.65-1.06,14.19-2,2.31-4,4.35-7.24,4.53a16.8,16.8,0,0,0-1.93.37,7.71,7.71,0,0,0-6.55,6.46,48.27,48.27,0,0,0-.8,5.33,9.94,9.94,0,0,0,.18,2.93c.82,4.19,3.78,6.18,7.93,5.07a15.57,15.57,0,0,0,5.26-2.51,67.06,67.06,0,0,0,9.94-8.75c5.36-6,10.94-11.75,16.38-17.64,1.56-1.69,3-3.46,4.44-5.26a56.71,56.71,0,0,1,23.38-17.41,23.67,23.67,0,0,0,3.08-1.5,2.78,2.78,0,0,0,1.4-3.35c-.54-2-1-4.15-1.74-6.13A67.38,67.38,0,0,1,91,123.78a20.69,20.69,0,0,1,.14-3.84l2.49.31c.22.94.46,1.88.68,2.83a91.81,91.81,0,0,0,2.21,9.51c1.47,4.29,2.25,8.86,4.93,12.73,1,1.45,0,3.18-1.78,3.83-2.15.78-4.31,1.53-6.46,2.3-8.69,3.12-15.57,8.68-21.66,15.52Q59.62,180.33,47.29,193.3a44.6,44.6,0,0,1-13.16,10.07c-1.3.16-2.59.39-3.89.46-4.74.26-7.6-1.6-8.76-6.11a21.91,21.91,0,0,1,2.56-17,6.67,6.67,0,0,1,4.31-3c1.9-.5,3.86-.79,5.71-1.4a9,9,0,0,0,4.39-14,2.78,2.78,0,0,0-.82-.54c-1.62-.14-2.74.85-3.87,1.79-1.77,1.45-3.49,3-5.26,4.41a27.37,27.37,0,0,1-3.17,2.32c-3.68,2.22-6.08,1.58-7.84-2.42a42,42,0,0,1-2.44-7.95,8.51,8.51,0,0,1,1.54-7,25.86,25.86,0,0,1,9.94-8.53,8.73,8.73,0,0,1,6.65-.68,27.12,27.12,0,0,0,4.34.73,4.66,4.66,0,0,0,3.65-1.06c2.75-2.17,2.82-4.8,0-6.87-1.18-.86-2.54-1.49-3.8-2.24-3.11-1.85-5.31-5-4.54-6.92,1.2-3.07,4-4.13,7-4.68a8.63,8.63,0,0,1,5.28.62c1.33.62,2.62,1.35,4,1.94,4.11,1.83,8.1,2,12.21-.3A95.35,95.35,0,0,0,74.15,116C75,115.31,75.79,114.41,77.08,114.52Z" style="fill:#5d536c"/><path d="M265.56,305l3.95,0,2.08-.26c2.77-.12,5.55-.12,8.3-.38,6.83-.63,13.73-.51,20.47-2,3-.65,6.06-1.34,9.1-2a25.59,25.59,0,0,1,3.37-.61,5.51,5.51,0,0,1,6.33,5.74,7.3,7.3,0,0,1-2.35,5.71,13.48,13.48,0,0,1-6.39,3.45c-6.22,1.33-12.35,3.19-18.78,3.36a11.88,11.88,0,0,0-1.46.18l-16.44,2.5c-5.42-.08-8.7-3.07-10.54-7.88a7.69,7.69,0,0,1-.67-3.73A5.29,5.29,0,0,1,265.56,305Zm1.34,6.13a5.61,5.61,0,0,0,.13,1.56c1.5,3.5,4,5,8.29,4.57a242.22,242.22,0,0,0,33.41-5.41,19.07,19.07,0,0,0,4.08-1.62,4.59,4.59,0,0,0,2.36-3.54c.37-2.11-.83-3.62-3-3.47a32.24,32.24,0,0,0-4.33.78,95,95,0,0,1-17.47,2.45c-5.87.2-11.72,1.07-17.57,1.68A9.07,9.07,0,0,0,266.9,311.1Z" style="fill:#5d536c"/><path d="M226,102.27a40.32,40.32,0,0,0,3.25-3.55,4.43,4.43,0,0,0,.33-5.42c1.27-3.32,1.76-6.57,0-10-.92-1.79-.5-3.86,0-5.79.23-1,.62-1.87.91-2.81a18.66,18.66,0,0,0,.31-7.8,19.29,19.29,0,0,0-.74-2.75c-1.92.35-2.84,1.53-3.85,2.55-1.27,1.28-2.45,2.65-3.76,3.89a6.36,6.36,0,0,1-4.45,1.8c-1.51,0-2.33-1-3.25-2-.18-.18-.58-.13-1.25-.25a22.71,22.71,0,0,0-.83,2.57c-.61,2.88-1.06,5.8-1.72,8.67-1.39,6-3,7.24-9.11,7.52a8.29,8.29,0,0,1-1.46-.21c.08-.66.15-1.31.23-2a2.76,2.76,0,0,1,.91-.32c4.18.07,6.28-2.23,7-6.09.93-4.81,1.8-9.63,2.76-14.44a44.47,44.47,0,0,1,1.39-5.18,1.41,1.41,0,0,1,2.41-.08,6.76,6.76,0,0,1,.71,1.77c.29,1.28.39,2.6.75,3.85a2.41,2.41,0,0,0,3.84,1.51,29.31,29.31,0,0,0,3.69-3.19c1-.9,1.75-1.94,2.67-2.87a5.11,5.11,0,0,1,3.55-1.44c2.15-.07,3.56.91,3.64,3.07.15,3.92.08,7.84,0,11.76q-.12,9.08-.36,18.14c0,1.62-.32,3.23-.49,4.85a7.2,7.2,0,0,1-2.39,4.66c-1.42,1.33-2.46,3-3.8,4.48a1.83,1.83,0,0,1-1.7.36,2.13,2.13,0,0,1-.77-1.57,20.25,20.25,0,0,1,.2-2.89l-.05.07Z" style="fill:#4a435b"/><path d="M93.58,120.25l-2.49-.31c-.17-2-1.46-2.54-3.22-2.48-.83-.78-1.49-.48-2.07.33L82,117.52c-.58-.48-1.15-1-1.76-1.42s-1.27-.83-1.91-1.24l4.16-1.42a11.77,11.77,0,0,1,2.38.33c1.76.6,3.41.9,5-.38a5.24,5.24,0,0,1,1.82-.64,1.71,1.71,0,0,1,2.29,1.7C93.92,116.39,93.72,118.32,93.58,120.25Z" style="fill:#2f2e3a"/><path d="M244.33,103.06c.75.69.8,1.36-.07,2A1.46,1.46,0,0,1,244.33,103.06Z" style="fill:#5d536c"/><path d="M271.59,304.76l-2.08.26c0-1.37-.05-2.74-.07-4,1.35-.66,2-.18,2.15,1A20.13,20.13,0,0,1,271.59,304.76Z" style="fill:#c3bbb2"/><path d="M226,102.27l-1.4,1Z" style="fill:#c3bbb2"/><path d="M87.87,117.46a1.31,1.31,0,0,1-2.07.33C86.38,117,87,116.68,87.87,117.46Z" style="fill:#5d536c"/></g></svg>