<svg xmlns="http://www.w3.org/2000/svg" viewBox="0 0 258 622"><title>fairemain</title><g id="Layer_17" data-name="Layer 17"><path d="M11.53,495.07a6.48,6.48,0,0,1,.86-2.77c.18-.32.82-.39,1.24-.58.06-.68.12-1.37.17-2.05l-2.91-.32c-.22,2-.48,3.92-.74,5.88A5.07,5.07,0,0,1,11.53,495.07Z" style="fill:#5d536c"/><path d="M17.76,419a17.23,17.23,0,0,1-.49-2.81c-.1-4-.21-8.06-.11-12.08.1-4.19.39-8.37.7-12.55a7.21,7.21,0,0,1,.92-2.16q.72-11.1,1.44-22.19c.12-1.77.32-3.53.48-5.29a31.85,31.85,0,0,1,.16-9.89q-.81-8.49-1.62-17a18,18,0,0,1,0-1.94l-.66-4c-.12-.71-.25-1.42-.37-2.13s-.17-1.24-.26-1.87A32.35,32.35,0,0,1,16.6,320,87.67,87.67,0,0,1,16,308.79a94.64,94.64,0,0,0-2.37-22.26,13.34,13.34,0,0,1,0-2.19c2.66,1.14,4,3.35,6,4.57l2.52.3c1.34-.2,2.53-.58,2.51-2.28-1.89-1-4.27-1.16-5.56-3.2l-.47,0-.46-.14a1.94,1.94,0,0,1-1.63-1.6l-1-1.56c-.57-.24-1.34-.32-1.67-.75a4,4,0,0,1-.87-2.22c-.06-5.09-2.64-9.64-3-14.67-.12-1.57-1-3.07-1.35-4.65-.46-2-.75-4.11-1.11-6.17-.24-1.35-.48-2.7-.71-4a7.4,7.4,0,0,0-1.19-1.38C3.56,251,2.09,255.75.58,260.46c.28,1.1.58,2.19,1,3.25.67,1.87,1.44,3.55.28,5.54a2.51,2.51,0,0,0,.43,2.23,18.85,18.85,0,0,1,3.42,7.93l2.43-1.18a3.34,3.34,0,0,1,2.18,3.11c.09,1.27,0,2.56-.06,3.84q.54,3.31,1.09,6.63a2.49,2.49,0,0,1,.46,2.62c.12,1.77.24,3.55.37,5.33,1.45,1,1.15,2.35.65,3.72,0,1.43,0,2.86,0,4.29.72.65.8,1.29,0,1.93l.26,5c.79.6.94,1.23.14,1.94l-.32,2c.26.49.53,1,.79,1.48l0,0c-.09.49-.19,1-.28,1.48.22,1.62.45,3.24.68,4.86l.51,2.23.81,6.88c.43,1.39.87,2.77,1.31,4.16A9.07,9.07,0,0,1,18,345.25c-.15,2.69-.58,5.36-.89,8,0,.78,0,1.56,0,2.34,1.49,2.19.31,4.66.68,7,.05.3-.56.71-.86,1.06-.15,2.57-.29,5.13-.44,7.69a2.71,2.71,0,0,1,0,3.89v2c1.45,1.5,1.44,1.66-.16,3.1l-1.29,8.71a8.93,8.93,0,0,1-.74,7.75c-.24,2.95-1,5.88-.25,8.85,1.41,1.31,1.2,2.63,0,3.95.09,2,.17,4,.26,6,.69.61.84,1.23.08,1.89-.07,3.33-.13,6.65-.2,10,.71.65.75,1.29-.05,1.9,0,1-.09,2-.13,2.95a2.08,2.08,0,0,0,1.84-1.72,21.41,21.41,0,0,1,1.18-2.87Q17.41,423.39,17.76,419ZM7.49,270.25c-.43-.36-1.11-.65-1.23-1.1-.53-1.87-.94-3.78-1.3-5.69-.29-1.54.42-2.74,1.78-4.16.79,2,.13,3.86.49,5.53s.62,3.19.93,4.78Z" style="fill:#4a435b"/><path d="M84.46,159.48a18.72,18.72,0,0,1-.62-2.82c-.53-8.33-.91-16.67-1.55-25-.51-6.69-1.26-13.37-2-20-1.61-14.55.31-28.71,4.44-42.69C87.75,58.7,92,49,96.2,39.18c3.36-7.82,6.69-15.65,10-23.48a10.58,10.58,0,0,1,.64-1.31,1.88,1.88,0,0,1,2.94-.33,4.92,4.92,0,0,1,1.6,3.48c0,3.27.15,6.55-.08,9.8-.55,7.84-1.37,15.66-1.91,23.5a45.19,45.19,0,0,0,.36,7.34c.54,5.71.73,11.49,1.85,17.08,1.64,8.17,3.89,16.23,6,24.29,2,7.6,4.27,15.12,6.23,22.72a38.32,38.32,0,0,1,.65,6.8c.22,3.1.4,6.2.57,9.31,0,.8,0,1.61-.06,2.42l-2.13-.27c-.35-4.11-.66-8.23-1.09-12.34a18.59,18.59,0,0,0-.84-3.13,34.82,34.82,0,0,0-3.38-14.24,21.7,21.7,0,0,1-1.22-3.73c-2.07-7.75-4.15-15.5-6.16-23.27a59.51,59.51,0,0,1-1.49-7.21c-.74-5.68-1.36-11.37-1.91-17.07a102.81,102.81,0,0,1-.08-18.65c.41-4.73.93-9.46,1.37-14.19.07-.79.14-1.66-1.18-2a13.62,13.62,0,0,0-3,4.79q-4.69,10.27-9.27,20.61A143.79,143.79,0,0,0,83.88,86.2l-.72,7.06L82.89,97l0,2.12,0,4a15.47,15.47,0,0,0-.16,2.44q.84,9.51,1.76,19c.18,2,.58,3.88.68,5.84.41,7.82.75,15.65,1.11,23.48.07,1.63.13,3.26.19,4.89Z" style="fill:#706578"/><path d="M185.69,159.6c2.1,2.05,4.2,4.09,6.29,6.15,8.28,8.16,14.05,18,18.4,28.61a37.25,37.25,0,0,1,1.41,24.46c-.73,2.67-1.59,5.32-2.56,7.91a9.29,9.29,0,0,1-1.72,2.25c.11-1.23.23-2.46.34-3.59L205.7,223c.68-.65,1.71-1.18,2-2,3-8.46,3.45-17,.06-25.46a82.59,82.59,0,0,0-15.62-25.41,66.86,66.86,0,0,0-11-9.82,2.1,2.1,0,0,0-3.06.19c-1.08-.8-2.41-1.36-2.74-2.87.34-.5,1-1,1-1.52a7.47,7.47,0,0,1,1.6-5.89c1.75-2.1,2-4.77,1.57-7.43a15.64,15.64,0,0,0-2.77-7.22,17,17,0,0,0-4.45-7.17c-.89-1.1-1.78-2.2-2.66-3.31a29.89,29.89,0,0,0-6.77-7.8l-.18,0-.86-1.27a1.26,1.26,0,0,0-.5-.57l-.16-.4-.29.32-.2.06-.91.8-2.4,3.74a26.48,26.48,0,0,0-1.51,2.48,133.12,133.12,0,0,0-11.52,39.87c-.74,5.84-1.17,11.72-1.8,17.57-.21,1.94-.62,3.86-.93,5.79l-2.67-.56c.49-3.88,1.15-7.76,1.46-11.66a171.92,171.92,0,0,1,9.24-44c1.09-3.07,2.39-6.08,3.76-9,1.71-3.68,3.59-7.28,5.57-11.25,1.11.65,2.28,1,2.94,1.77,5,6,10.16,11.95,14.93,18.16a41.15,41.15,0,0,1,4.64,8.6c2.2,5,2.66,10.09-.4,15a10.51,10.51,0,0,0-.59,1.36c.26,2.28,2.05,3.18,3.75,4.15Z" style="fill:#706578"/><path d="M22.08,289.21c1.34-.2,2.53-.58,2.51-2.28l5.19,1.23c2.35.58,4.62,1.58,7.39,1.31a9.33,9.33,0,0,0,.76-2.69c-.07-2.28-.37-4.56-.6-6.84-.32-3.09-.76-6.17-1-9.27a29.41,29.41,0,0,1,2.37-13.41,19.11,19.11,0,0,1,2.18-3.83,7.14,7.14,0,0,1,6.76-3.22,30.54,30.54,0,0,1,5.29.94c6.59,1.83,12.18,5.49,17.4,9.78,1.75,1.44,3.47,2.9,5.2,4.35l-3.55.54-3.36-2.37-2.8-2.14L64.11,260,63,259.16a30.26,30.26,0,0,0-13-5.4c-4.28-.79-5.95.17-7.86,4.09a24.89,24.89,0,0,0-2.66,13.32c.31,3.58.88,7.14,1.19,10.73.35,3.91.62,7.83.76,11.75.08,2.39-1.61,3.35-3.48,2a20.83,20.83,0,0,0-6.17-2.89C28.5,291.62,25.3,290.39,22.08,289.21Z" style="fill:#5d536c"/><path d="M85.48,267c4.25-5.65,6.1-12.21,7.12-19.07a106,106,0,0,0,.86-24.46c-.69-8.13-1.6-16.26-2.78-24.33-.87-6-2.36-11.86-3.51-17.79q-1.11-5.78-2-11.59a22.54,22.54,0,0,1,0-3.39l3.42.9c-.86,2.45-.25,4.86.2,7.27.7,3.69,1.38,7.4,2.23,11.07a215.08,215.08,0,0,1,5,33.95,137.23,137.23,0,0,1,.46,15.7c-.43,9.34-1.71,18.58-5,27.44-.21.3-.42.59-.64.88l-1.54,2.79-2.14,2.16a1.08,1.08,0,0,1-.73.1C86.15,268.07,85.81,267.53,85.48,267Z" style="fill:#706578"/><path d="M122.92,140.54l2.13.26a30.19,30.19,0,0,1-1.31,11.56c-1.28.76-1.4,1.75-.55,2.92,0,1.5,0,3,0,4.49.22.48.45.95.67,1.43Q128,169.08,132,177l-.36,4c-.74-.41-1.55-.74-2.27-.15-1.38,1.13-2.68,2.35-4,3.54a2.07,2.07,0,0,1-3.31-.35,3.77,3.77,0,0,1-.82-1.73c-.06-3.77-1.79-6.64-4.26-9.4-1.22-1.36-1.55-3.52-2.29-5.32-2.11-5.11-2.11-5.11,1.53-8.7,3.19-1.81,4.75-4.74,5.34-8.2S122.49,143.9,122.92,140.54Zm-4.17,27.66c.11,2.46,1.22,4.07,3.14,4.77,1.69.62,3.08-.28,4.15-2.12-1.16-1.91-1.4-4.46-3.91-5.94Z" style="fill:#4a435b"/><path d="M205.7,223l2.15,2.35c-.11,1.13-.23,2.36-.34,3.59-.75,4.08-1.44,8.17-3.13,12l-2.22-.1c-1.51-1.45-2.53-.26-3.65.56,1.13,2.83,1.13,2.83,2.87,4.15L203.5,247l-.2,2.92L200,251.15c-1.92,2.17-3.95,4.07-7.22,2.91a10.46,10.46,0,0,1,1.1-11.86c1-1.28,1.47-2.45.93-4a7.24,7.24,0,0,1,.83-6.53,8.56,8.56,0,0,0,1.09-6.06,13.54,13.54,0,0,1,.63-1.79c1.71-3.42,3.54-4,6.86-2A11.12,11.12,0,0,1,205.7,223Zm-9,22.93a2.6,2.6,0,0,0-1.7,3.41,1.71,1.71,0,0,0,1.58.58,2.33,2.33,0,0,0,.93-3.62C197.37,246.13,197,246.09,196.71,246Zm6.89-11.25c1.55-1.13,1.42-2.49,1.36-3.72,0-.46-.68-1.24-1.06-1.25a2,2,0,0,0-1.52,1C201.67,232.2,202.11,233.51,203.6,234.72Z" style="fill:#4a435b"/><path d="M200,251.15l3.27-1.22a34.68,34.68,0,0,1,.18,4.31c-1,12.45.26,24.71,2.56,37a140.83,140.83,0,0,0,6.83,22.92c1.57,5.07,4.09,9.72,6.46,14.43.86,1.71,1.76,3.4,2.65,5.1a4.79,4.79,0,0,1-6.14-1.61,2.69,2.69,0,0,0,.37-3.11c-.8-1.74-1.56-3.5-2.43-5.2a10.81,10.81,0,0,0-1.37-1.74l-1.53.8a7.81,7.81,0,0,0-.83-1.69,12.48,12.48,0,0,0-1.69-1.46,1.32,1.32,0,0,1-.23-.69c1.8-1,1.4-2.4.71-3.86.69-3.06-.49-5.65-2.11-8.11-.13-.19-.6-.17-.91-.24l-.75-3.44c.92-.6.83-1.2,0-1.81l0,.05a9.78,9.78,0,0,0,0-2c-.73-3.84-1.6-7.67-2.27-11.53a118.82,118.82,0,0,1-2.23-24.32c.11-3.42.1-6.85.05-10.27A9.09,9.09,0,0,0,200,251.15Z" style="fill:#706578"/><path d="M138.93,185.21l2.67.56c-.14,1.86-.59,3.86,2,4.49l1.13.59,1.37.92c.11,1.31.18,2.62.33,3.92.29,2.59-1.25,4.14-3.66,5.17a3.41,3.41,0,0,1-4.31-1.29c-.64-.89-1.17-1.86-1.77-2.83a19.92,19.92,0,0,1-2.56.82c-2.54.46-4.08-.41-5.06-2.75-1.4-3.35-.7-5.6,2.63-8.43l1.47-.6.6-1.65,3-.19Zm-.68,7.25c.54-.67,1.07-1.09,1-1.28a3.43,3.43,0,0,0-1.05-1.42c-.12-.1-1,.48-1,.54A18.87,18.87,0,0,0,138.25,192.46Z" style="fill:#4a435b"/><path d="M88.55,167.25l-3.42-.9q-.33-3.43-.67-6.87l2-.77a1.55,1.55,0,0,0,2-.69l2-3.79,4.32.11c3.86,4,4,7,.37,11.11l-2.63,2C91.14,168.23,89.86,167.51,88.55,167.25ZM91.22,164c1.51-.49,2.35-.87,2.71-1.87a4.21,4.21,0,0,0,0-3.71,1.18,1.18,0,0,0-1.67,0C91.07,159.91,90.94,161.59,91.22,164Z" style="fill:#4a435b"/><path d="M85.48,267c.33.55.67,1.09,1,1.63l-1.82,1.28c-1.92,1.34-4,1.13-6,.41-1.06-.38-2.06-.9-3.09-1.35a.31.31,0,0,0-.42-.2c-.37-1.24-.65-2.44,1-3.08C79,267.84,82.05,268.73,85.48,267Z" style="fill:#5d536c"/><path d="M136.79,183.94l-3,.19a4.35,4.35,0,0,1-2.1-3.2l.36-4Z" style="fill:#706578"/><path d="M202.16,240.88l2.22.1c.11,2.07.22,4.14-.88,6l-2.12-1.42Z" style="fill:#706578"/><path d="M123.19,155.28c-.85-1.17-.73-2.16.55-2.92A2.25,2.25,0,0,1,123.19,155.28Z" style="fill:#706578"/><path d="M258.44,358.27l-.74,0a5.25,5.25,0,0,1,.15-.71s.35-.07.37,0A5.19,5.19,0,0,1,258.44,358.27Z" style="fill:#d9d0c3"/><path d="M209.74,234.26l-.54-.49a3.91,3.91,0,0,1,.6-.4s.3.19.28.24A4,4,0,0,1,209.74,234.26Z" style="fill:#d2c9bc"/><path d="M123.9,161.2c-.22-.48-.45-.95-.67-1.43C123.45,160.24,123.68,160.72,123.9,161.2Z" style="fill:#706578"/><path d="M108.61,604.79c-.71-2-.34-4,0-6.07,1.3-2.14,2.08-4.62,4-6.33l.42-.22,1.95,1.54c-3.09,2.91-4.4,6.48-3.37,10.61,1.83,7.28,13.32,15.21,21.88,7.26a26.58,26.58,0,0,1,4.34-3.18,36.62,36.62,0,0,0,10.6-10.07,68.76,68.76,0,0,0,4.87-7.35c4.88-8.88,9.7-17.79,14.37-26.78a46.45,46.45,0,0,1,9.33-12.53c6.63-6.27,13.43-12.38,20.16-18.56,4.84-4.25,7.18-10,9.21-15.85a55.39,55.39,0,0,0,5.83-25.1c-.06-6.71-.33-13.44-3.69-19.55-.31-.95-.62-1.9-.94-2.85a44.15,44.15,0,0,0-1.76-5.08c-2.17-4.58-4.47-9.1-6.74-13.64q-4.07-8.12-8.16-16.2l1.95-1.45c1.84,3.18,3.73,6.32,5.49,9.55,1.91,3.52,3.69,7.11,5.53,10.67q1.59,3.21,3.16,6.41,2.91,7.35,5.8,14.68c.24.85.49,1.7.73,2.55.21,1.46.39,2.92.63,4.37A62.67,62.67,0,0,1,213.4,506c-1.29,5.8-3.54,11.23-5.77,16.68-1.23,3-2.87,5.86-4.32,8.78-2,1.93-3.94,3.91-6,5.79-6,5.54-12.17,10.93-18.06,16.6a45.08,45.08,0,0,0-6.86,8.3,110,110,0,0,0-7.31,13.34,170.65,170.65,0,0,1-13.95,24.23,40.9,40.9,0,0,1-7.53,8.34c-3.75,3.14-8,5.72-12,8.52a11.42,11.42,0,0,1-10.83,1.1c-5.55-2-10-5.6-12-11.48C108.76,605.72,108.68,605.25,108.61,604.79Z" style="fill:#706578"/><path d="M224.67,337.71c1.67,2.21,3.47,4.32,5,6.63a99.19,99.19,0,0,1,9.44,17.74,16.13,16.13,0,0,1-5,18.56c-1.55,1.2-3.05,2.48-4.64,3.64-11.44,8.38-21.26,18.45-30.15,29.43-2.26,2.78-4,6-6,9l-1.58,2.44-1.41-2.68c1.58-4.58,4.75-8.12,7.86-11.64,4.62-5.26,9.46-10.32,14.21-15.47,1.83-1.1,3.42-2.41,4-4.59a6.37,6.37,0,0,0,1.31-.64c4.31-3.46,8.72-6.82,12.87-10.48,7.14-6.3,8.32-11.25,4.3-20.41a101.44,101.44,0,0,0-5.52-10.33c-1.31-2.24-2.92-4.31-4.43-6.42-1-1.36-2.14-1.27-3.36-.33-.16-2.68-.16-2.67,1.89-3.68A13,13,0,0,0,224.67,337.71Z" style="fill:#706578"/><path d="M190.29,422.45l1.41,2.68c-.87,2.95.14,5.61,1.25,8.26L191,434.84l-1.74-2.48a12.16,12.16,0,0,0-2.52,1.5c-1.47,1.49-2.86,1.07-4.34.14l-.94-1.21q-.54-3.09-1.06-6.17c.2-.44.42-.87.59-1.31a3.18,3.18,0,0,1,2.72-2.35,3.28,3.28,0,0,1,3.52,1.91l1.24,1.14.92-1.42Z" style="fill:#4a435b"/><path d="M224.67,337.71a13,13,0,0,1-1.23.75c-2.05,1-2.05,1-1.89,3.68a7.11,7.11,0,0,1-.68,1.28c-1.77,2.22-3.72,2.61-5.76,1a8.14,8.14,0,0,1-2.34-3,14.45,14.45,0,0,1-1.08-4.67,5.74,5.74,0,0,1,.86-3.15,3.12,3.12,0,0,1,3.29-1.55,4.79,4.79,0,0,0,6.14,1.61Zm-5.94,3c.48-1.52,0-2.76-1.1-3.19a1.67,1.67,0,0,0-2,.94,2.27,2.27,0,0,0,1.65,2.62C217.74,341.24,218.36,340.84,218.73,340.73Z" style="fill:#4a435b"/><path d="M14,481.85l-.2,7.82-2.91-.32q.15-3.94.28-7.87c1.37-2.85,1.88-5.75.6-8.78q.64-8,1.28-16.08c.47-2.16,1.29-4.32,0-6.49,0-1-.12-2-.06-2.93.29-4.23.62-8.47.94-12.7l2.78-.91a3.39,3.39,0,0,0,3.31,3.53c.14.76.62,1.7.34,2.24-1.48,2.78-1.8,5.83-2.44,8.82-1.2,5.65-1.52,11.2,1.53,16.44-.23.8-.56,1.64-1.6,1.22a16.35,16.35,0,0,1-2.38-1.46c-.74,1.34-.74,1.34-.43,2.64l-1,11.87A1.77,1.77,0,0,0,14,481.85Z" style="fill:#4a435b"/><path d="M12,495.09a5.72,5.72,0,0,1,1.31.3l.34-3.67c-.42.19-1.06.26-1.24.58a6.48,6.48,0,0,0-.86,2.77Z" style="fill:#4a435b"/><path d="M17.12,353.28c-1.2-1.23-.61-2.75-.67-4.17-.11-3.07-.23-6.14-.34-9.21l.61-.12A9.07,9.07,0,0,1,18,345.25C17.85,347.94,17.42,350.61,17.12,353.28Z" style="fill:#5d536c"/><path d="M16.94,363.66c-1.17-2.71-.65-5.38.18-8,1.49,2.19.31,4.66.68,7C17.85,362.9,17.24,363.31,16.94,363.66Z" style="fill:#5d536c"/><path d="M14.32,396.82a13,13,0,0,1,.74-7.75A8.93,8.93,0,0,1,14.32,396.82Z" style="fill:#5d536c"/><path d="M17.08,427.77a3.18,3.18,0,0,1,.35.9l-.69,4.92L14,434.5c0-.72.07-1.43.1-2.14a2.08,2.08,0,0,0,1.84-1.72A21.41,21.41,0,0,1,17.08,427.77Z" style="fill:#5d536c"/><path d="M16.52,375.24a4.36,4.36,0,0,1,0-3.89A2.71,2.71,0,0,1,16.52,375.24Z" style="fill:#5d536c"/><path d="M14.1,409.62l0-3.95C15.48,407,15.27,408.3,14.1,409.62Z" style="fill:#5d536c"/><path d="M12.79,303.48a4.2,4.2,0,0,1-.65-3.72C13.59,300.78,13.29,302.11,12.79,303.48Z" style="fill:#5d536c"/><path d="M16.35,380.36l.16-3.1C18,378.76,18,378.92,16.35,380.36Z" style="fill:#5d536c"/><path d="M14.44,417.54c0-.63-.06-1.26-.08-1.89C15.05,416.26,15.2,416.88,14.44,417.54Z" style="fill:#5d536c"/><path d="M12.79,309.7v-1.93C13.52,308.42,13.6,309.06,12.79,309.7Z" style="fill:#5d536c"/><path d="M13.19,316.64c0-.64-.09-1.29-.14-1.94C13.84,315.3,14,315.93,13.19,316.64Z" style="fill:#5d536c"/><path d="M11.77,294.43a2.22,2.22,0,0,1-.46-2.62A2.49,2.49,0,0,1,11.77,294.43Z" style="fill:#5d536c"/><path d="M18.23,327c1.36.9,1.38,1,.37,2.13Z" style="fill:#b0a79c"/><path d="M14.19,429.41l.05-1.9C15,428.16,15,428.8,14.19,429.41Z" style="fill:#5d536c"/><path d="M16.47,282l1.63,1.6A1.94,1.94,0,0,1,16.47,282Z" style="fill:#5d536c"/><path d="M13.41,321.65c-.09-.53-.17-1-.25-1.57l.26.08h.27C13.6,320.66,13.5,321.16,13.41,321.65Z" style="fill:#d5cbbe"/><path d="M13.69,320.17h-.27l-.26-.08a.58.58,0,0,1,.5.05Z" style="fill:#5d536c"/><path d="M178.11,160.57c.14.5.28,1,.41,1.48a17.93,17.93,0,0,0-.59,3.11,2.1,2.1,0,0,0,1.75,2.34c5.61,2,5.49,7,5.78,11.58,1,1.33,2.41,1,3.66,1.13,3.52.4,5.32,3.68,3.58,6.71a34.83,34.83,0,0,1-2.94,3.89c-2.87.67-4.36-1.16-5.58-3.08a62.14,62.14,0,0,1-3-6.15,4.3,4.3,0,0,0-1.12-.44c-2.65-.6-3.76-2.39-3.92-4.93-.1-1.61-.15-3.23-.23-5-5.67-1.91-6.59-6.18-5.53-11.38l.21-1c1.25-.09,2.43-.31,2.95-1.68l1.86.53C175.7,159.21,177,159.77,178.11,160.57Zm-3.17,5c.79-.82,1.35-1.16,1.53-1.64.38-1.07-.15-2.29-1-2.25-.48,0-1.32.61-1.32.95A12.57,12.57,0,0,0,174.94,165.6Zm7.55,9.87A17.06,17.06,0,0,0,180.7,174a1.83,1.83,0,0,0-.79.91c-.16.94.46,1.65,1.29,1.51C181.57,176.38,181.88,176,182.49,175.47Z" style="fill:#4a435b"/><path d="M162.68,117.38c-.29-.42-.58-.84-.86-1.27Z" style="fill:#c3bbb2"/><path d="M160.67,115.52l-.92.8Z" style="fill:#c3bbb2"/><polygon points="161.32 115.54 160.87 115.46 161.16 115.14 161.32 115.54" style="fill:#c3bbb2"/><path d="M64.11,260,63,259.16Z" style="fill:#b0a79c"/><path d="M95.21,272.21c-.22.41-.68.85-.62,1.21.63,4.07-2.27,5.81-5,7.5-1.82,1.11-3.8.1-5.7-.18a25.49,25.49,0,0,1,.21-5.26,30.55,30.55,0,0,1,2.29-5.15l-1.68-.44,1.82-1.28a1.06,1.06,0,0,0,.72-.1,2.29,2.29,0,0,0,2.51.07c2.1-.12,3.06,1.78,4.64,2.59l0-.05c-.1.72-.1,1.34.93,1.14Zm-7.72,5c2.19.55,3.07-.45,3.65-1.87.51-1.24.23-1.91-1.3-3.14Z" style="fill:#4a435b"/><path d="M91.53,262.68l-.63.88Z" style="fill:#b0a79c"/><path d="M198.61,302.43c1.92-2.13,4.23-1.48,6.52-.89l0-.05c0,.6,0,1.2,0,1.81l.75,3.44c0,2.87-.53,5.49-3.12,7.24a2.43,2.43,0,0,1-2.74.15c-.4-.4-.8-.81-1.19-1.22C197.13,309.44,197.66,305.93,198.61,302.43Z" style="fill:#5d536c"/><path d="M204.56,327.22c-2.46-1.77-2.5-4.33-2.1-6.93a6.73,6.73,0,0,1,4.06-5.07,6.31,6.31,0,0,1,2.32-.13c.69,1.46,1.09,2.86-.71,3.86-.53.26-1.41.42-1.53.8a11.37,11.37,0,0,0-.33,3.25c0,.28.61.79.92.77a1.25,1.25,0,0,0,.9-.84,32.67,32.67,0,0,0,.27-3.29,12.48,12.48,0,0,1,1.69,1.46,7.81,7.81,0,0,1,.83,1.69c-.85,3.56-1.59,4.22-5.17,4.57Z" style="fill:#4a435b"/><path d="M205.07,303.3c0-.61,0-1.21,0-1.81C205.9,302.1,206,302.7,205.07,303.3Z" style="fill:#bdb4ab"/><path d="M138.25,192.46a18.87,18.87,0,0,1-1.06-2.16c0-.06.89-.64,1-.54a3.43,3.43,0,0,1,1.05,1.42C139.32,191.37,138.79,191.79,138.25,192.46Z" style="fill:#7d7285"/><path d="M143.61,190.26l1.13.59Z" style="fill:#706578"/><path d="M131.71,186.38l1.47-.6Z" style="fill:#706578"/><path d="M94.07,169.41l-1.56-1.95,2.63-2c.09.68.19,1.37.29,2.05Z" style="fill:#706578"/><path d="M127.19,420.83c-.59,2.87-1.28,5.72-1.74,8.61-1.72,10.88-1.59,21.8-.73,32.74q.57,7.32,1.19,14.63c.06.81.13,1.64,1,2l0-.05a8.17,8.17,0,0,0-.52,2.31c.36,4.56.59,9.14,1.31,13.64A33.56,33.56,0,0,0,136,511.67c3.65,4.17,8.64,5.13,13.85,4.66,2.54-.23,4.4-2.19,5.7-4.29a82.8,82.8,0,0,0,4.62-8.61c1.17-2.51,1.92-5.21,3-7.77.62-1.48,1.5-2.85,2.26-4.26l2.21.17c0,.35.09.7.14,1.06l-.09.28.26.15-1.15,1.48c0,.46-.08.91-.11,1.37l-1,1.43c-.21.58-.41,1.16-.61,1.74-2,4.21-4,8.42-5.95,12.64a6,6,0,0,0-.3,1.41l.06.17a4.39,4.39,0,0,0-2.46,2.78c-.89.7-1.83,1.35-2.65,2.13-.25.24-.17.84-.24,1.27l-.08.08c-.94-.87-1.87-.3-2.79,0A33.08,33.08,0,0,1,138,517.31c-3.8-1.82-5.91-5.23-8.1-8.57-.23-.52-.47-1-.71-1.55-1.1-2.24-2.2-4.49-3.29-6.73q-.61-3.09-1.22-6.18c-.13-1-.25-2-.38-2.95.08-7.42-1.19-14.72-2-22.05-.08-1.67-.15-3.33-.23-5-.09-1.25-.19-2.51-.29-3.76,0-.34,0-.67,0-1l-.2-3.15-.11-1.8c0-1,0-2,0-3l.06-3.06c-.06-.59-.12-1.17-.19-1.76,0-.8-.09-1.51-1-1.78a6.56,6.56,0,0,0,1.08-2c.33-2.38.47-4.79.69-7.18.12-1,.23-2,.35-2.93s.27-1.95.4-2.93.23-1.89.35-2.84l.48-3.18c.11-.34.21-.67.32-1,.36-.92.71-1.85,1.07-2.77Z" style="fill:#706578"/><path d="M167.61,491.57l-2.21-.17a15.1,15.1,0,0,0,.5-2.8,7.69,7.69,0,0,0-.58-2.13.43.43,0,0,0-.6.16,3.72,3.72,0,0,1-4.84-.91c-1.47-1.55-2.18-3.29-1.43-5.33a22.69,22.69,0,0,1,2.16-4.36,2.84,2.84,0,0,1,4.28-.51,12.2,12.2,0,0,1,1.56,1.86l1.38,1.77,4.73-2.22a15.23,15.23,0,0,1,0-3.51A8.91,8.91,0,0,1,174.1,470a3.47,3.47,0,0,1,4.41-1,7.54,7.54,0,0,1,3.9,10.57A28.28,28.28,0,0,1,180,482.9a8.06,8.06,0,0,0,.67,1.6,12.9,12.9,0,0,0,1.35,1.51,4.05,4.05,0,0,0,1.29-.57c1-1,1.54-2.58,3.31-2.65l4.65,2.76c1.36,1.95,2,4,1.17,6.36-1.6,2.42-3,5.14-6.43,4.57-.94,4-1.82,7.71-2.7,11.44l-1.63-.23c.51-3,1.13-5.92,1.51-8.9a6.64,6.64,0,0,0-1.3-5.4c.08-2.58-1.35-4.29-3.23-5.77l-1.1-1.18.1.12c-.32-.41-.64-.83-.95-1.25l-.84-.9c-.27-1.84-2-2.27-3.16-3.19l-1.72.26q-1.25,3.07-2.5,6.14c-.94.5-1.26,1.13-.45,2ZM178,472a8.73,8.73,0,0,0-1.12,2.05c-.4,2.32.07,3.87,1.21,4.2a1,1,0,0,0,.86-.25,3.83,3.83,0,0,0,.39-4.43A10.05,10.05,0,0,0,178,472Zm12.15,17.9a9.11,9.11,0,0,0-1.49-2c-.67-.48-1.67.49-1.78,1.67-.09.88.57,1.94,1.21,1.74A9.16,9.16,0,0,0,190.12,489.91Z" style="fill:#4a435b"/><path d="M181.71,507.69l1.63.23c-.4,4-2.13,7.52-4,11-2.36,4.48-4.87,8.88-7.4,13.26-4.91,8.51-10.25,16.72-17.25,23.69-2.78,2.77-5.61,5.48-8.45,8.18-2.25,2.13-4.64,4.12-6.8,6.35-7.84,8.09-15.67,16.19-24.42,23.34l-1.95-1.54c.88-2,2.53-3.25,4.1-4.62,2.66-2.32,5.27-4.7,7.9-7.06,2.13-.52,2.74-2.63,4-4,2.42-2.53,5.24-4.72,7.13-7.75a51.29,51.29,0,0,0,8.55-7.91c5.2-3.35,8.88-8.25,13-12.74.2-.21.18-.61.27-.92l-.06,0a3.93,3.93,0,0,0,2.42-2.77l1-1.61c.41-.26,1-.42,1.21-.79,2.26-3.55,4.46-7.13,6.68-10.7,1-1.24,1.95-2.48,1.56-4.22,2-1.1,3-3,3.73-5,.34-.62.67-1.25,1-1.87,1.17-2.28,2.38-4.55,3.51-6.85C180,511.49,180.83,509.58,181.71,507.69Z" style="fill:#7d7285"/><path d="M108.61,604.79c.07.46.15.93.22,1.39C108.76,605.72,108.68,605.25,108.61,604.79Z" style="fill:#7d7285"/><path d="M177.59,486.44l1.1,1.18Z" style="fill:#d9d0c3"/><path d="M176.74,485.31c.31.42.63.84.95,1.25C177.37,486.15,177.06,485.73,176.74,485.31Z" style="fill:#d9d0c3"/><path d="M129.17,507.19c.24.52.48,1,.71,1.55C129.65,508.22,129.41,507.71,129.17,507.19Z" style="fill:#d9d0c3"/><path d="M165.64,497.34l1-1.43Z" style="fill:#d9d0c3"/><path d="M166.77,494.54l1.15-1.48Z" style="fill:#d9d0c3"/><path d="M187.23,424.87l2.16-.28-.92,1.42Z" style="fill:#706578"/><path d="M182.4,434l-.94-1.21Z" style="fill:#706578"/><path d="M11.77,472.7c1.28,3,.77,5.93-.6,8.78A23,23,0,0,1,11.77,472.7Z" style="fill:#5d536c"/><path d="M13.08,450.13c1.26,2.17.44,4.33,0,6.49C11.91,454.46,12.56,452.3,13.08,450.13Z" style="fill:#5d536c"/><path d="M79.09,449.94c.7-.34,1.71-.5,2-1.06a33.51,33.51,0,0,0,2.77-5.72A60.6,60.6,0,0,0,87,416.08c-.68-6.18-1.57-12.34-2-18.54a129.94,129.94,0,0,1,0-13.24,35.7,35.7,0,0,1,4.53-15.91,19.13,19.13,0,0,0,.75-1.81c.6-.7,1.18-1.42,1.82-2.09a1.71,1.71,0,0,1,2.45-.41A30.42,30.42,0,0,1,93,367.63a42.69,42.69,0,0,0-5.83,22.49c0,7.91,1.24,15.65,2.14,23.44A78.88,78.88,0,0,1,85.94,446a22.78,22.78,0,0,1-1.68,3.53,77.66,77.66,0,0,1-9.38,14.32A56.62,56.62,0,0,1,67,471.28,55.77,55.77,0,0,1,60.18,476a22.89,22.89,0,0,1-4.08,1.54l-.21-2.27c2.48-1.72,5-3.43,7.44-5.16,1.13-.78,1.91-1.73,1.4-3.23a16.74,16.74,0,0,0,4.32-4.48c.76.12,1.86.62,2.22.3,3.68-3.29,6.89-7,8.11-11.93.07-.28-.15-.62-.23-.94Z" style="fill:#706578"/><path d="M110.73,358.1,113,358l4.48,3.53c0,.63-.17,1.41.12,1.87,2.72,4.22,5.53,8.39,8.31,12.58l0-.07c.49,1.86,1.13,3.69,1.45,5.57.64,3.81,1.11,7.64,1.65,11.47a13.91,13.91,0,0,0,.44,2.84c.15.4,1,.55,1.49.82v-.06c-.47.37-1.34.71-1.36,1.11-.23,3.61-.32,7.23-.41,10.85,0,.24.35.5.54.75-.19,2.3-.59,4.41-3.61,4.33,0-1.62-.16-3.25,0-4.85a134,134,0,0,0,.4-14.73A42.71,42.71,0,0,0,111.1,361.7a5.92,5.92,0,0,1-.83-1.12c1.76-.32,1.76-.32.92-1.72C111,358.6,110.89,358.35,110.73,358.1Z" style="fill:#706578"/><path d="M110.73,358.1c.16.25.31.5.46.76.84,1.4.84,1.4-.92,1.72-5.13-2.85-9.72-1.5-14.08,1.77-.57-2.82-1.83-5.39-2.75-8.08A6.32,6.32,0,0,0,91,350.8c-.2-2.91,1.91-4.3,3.8-5.87a5.49,5.49,0,0,1,4.61-1.07c2.46.36,3.54,1.16,4.07,3.55a33,33,0,0,1,.52,4.86c.07,1,0,1.93,0,3Zm-11.67-2.41a7,7,0,0,0,2-5.08,3.94,3.94,0,0,0-.82-2.21c-.62-.91-2.73-.75-2.93.21a18.43,18.43,0,0,0-.38,4.32A2.82,2.82,0,0,0,99.06,355.69Z" style="fill:#4a435b"/><path d="M55.89,475.29l.21,2.27c-2.27.92-4.53,1.9-7.07,1.85l-1.19.17a36.21,36.21,0,0,1-15-1.64,1.3,1.3,0,0,0-.85-.26c-4.19-.76-7.37-3.23-10.3-6.1-1.39-1.36-2.67-2.83-4-4.22a1.85,1.85,0,0,0-2.6-.34c-.31-1.3-.31-1.3.43-2.64a16.35,16.35,0,0,0,2.38,1.46c1,.42,1.37-.42,1.6-1.22,1,1,2.12,2,3.08,3.05a25.33,25.33,0,0,0,15,8.33c5,.85,10,1.35,15-.15A26.76,26.76,0,0,1,55.89,475.29Z" style="fill:#5d536c"/><path d="M126.08,413.54c3,.08,3.42-2,3.61-4.33,2.31-3.06,2.55-3.12,5.84-1.44,0,1.28.22,2.41,1.59,2.92A30.38,30.38,0,0,1,137,416c-.45,2.37-2.15,4-4.21,5.16s-3.79.65-5.6-.34L125,420.2C125.37,418,125.72,415.76,126.08,413.54Zm7.56-3.39c-1,2.7-1.75,4.43-2.34,6.2a1.27,1.27,0,0,0,.46,1.17,1.43,1.43,0,0,0,1.28-.37C134.5,415.19,134.53,413.07,133.64,410.15Z" style="fill:#4a435b"/><path d="M14,481.85a1.77,1.77,0,0,1,.11-3A2.84,2.84,0,0,1,14,481.85Z" style="fill:#5d536c"/><path d="M94.41,364.07c0-1.7.06-1.81,1.67-1.83A2.28,2.28,0,0,1,94.41,364.07Z" style="fill:#706578"/><path d="M47.84,479.58l1.19-.17Z" style="fill:#706578"/><path d="M32,477.68a1.3,1.3,0,0,1,.85.26Z" style="fill:#706578"/><path d="M150.92,279.43c-.1-1.28-.6-2.7-.22-3.82,1.31-3.85,1.13-7.78.84-11.67-.42-5.54-1.16-11.05-1.83-16.56a17.7,17.7,0,0,0-.91-2.95c-.9.09-1.68.18-2.45.24-5.86.45-11.7,1-17.56,1.29-2.45.13-3.31-1.17-2.76-3.88a4.33,4.33,0,0,0-.56-3.64c-1.41-2.17-.67-3.83,1.73-4.28,4.17-.77,8.38-1.37,12.55-2.17a32.28,32.28,0,0,0,5.6-1.62c1.54-.6,1.92-1.52,1.6-3.14a18.85,18.85,0,0,0-2.63-6.81c-1.47-2.28-.91-4.27,1.59-5a19,19,0,0,0,6.74-3.85,6,6,0,0,1,1.69-.94,2.4,2.4,0,0,1,3.12,1.59,12,12,0,0,1,.38,2.4c.38,4.72.73,9.45,1.1,14.18l0,.48c.37,6,1.9,5.71,7,4.93,1.84-.29,3.51-1.65,5.25-2.53a21.39,21.39,0,0,1,3-1.51,2.27,2.27,0,0,1,2.9,1.91c.34,2.58.68,5.17.86,7.78.26,3.79-.06,4.19-3.6,5.89a11.26,11.26,0,0,0-1.58,1.14l-3.61-1.22a8.83,8.83,0,0,0-5.19-.14,1.86,1.86,0,0,0-1.42,2.55.85.85,0,0,0,0,.92c-.79,3.92.49,7.74.59,11.62.07,2.92.47,5.84.52,8.76a30.37,30.37,0,0,1-.53,4.83,4.32,4.32,0,0,1-4.2,4c-1.76.22-3.46.84-5.21,1.15A18,18,0,0,1,150.92,279.43ZM133.21,237.2l-.1,0c-1.66.17-2.1,1.29-2.12,2.74s.77,2.05,2.09,2.18c2.43-.1,4.86-.15,7.28-.32,2.91-.21,5.84-.42,8.47-1.89l3.74,1.16a1,1,0,0,1,.11.69c-.73,2.9.24,5.69.61,8.51.05.35.68.62,1,.93,0,1,0,2.06-.05,3.1,0,1.6-.18,3.22-.11,4.82.18,3.84.51,7.67.67,11.51a4.59,4.59,0,0,0,1.66,3.82c.28.21.86,0,1.31,0A4.21,4.21,0,0,0,160,270c-.55-7.15-.42-14.34-1.69-21.43a42.46,42.46,0,0,1-.13-4.38c-.12-1.89,2.07-2.34,2.58-3.84l-1.49-1.57a12.55,12.55,0,0,1-3.84-9.19c.05-3.22-.8-6.46-1.29-9.68a2,2,0,0,0-.61-1.29,2.26,2.26,0,0,0-1.7-.4,3,3,0,0,0-2,2.54,13.56,13.56,0,0,0,0,3.87c.35,1.75,1.09,3.41,1.57,5.12a3.07,3.07,0,0,1-2.33,4.13,21.69,21.69,0,0,1-2.39.53l-11.57,2Zm40.5,1.43a2.17,2.17,0,0,0-2.14-2.33,6.33,6.33,0,0,0-4.75,2c-.37.4-.73,1.32-.52,1.66.36.59,1.25,1.37,1.76,1.27a30.16,30.16,0,0,0,5-1.62C173.41,239.49,173.56,238.87,173.71,238.63Z" style="fill:#4a435b"/><path d="M139.81,331.17a23.13,23.13,0,0,0,2.61-.94c2.69-1.32,4.07-1.2,6,.88,1.76,1.9,3.34,3.94,5,5.88,2.45,2.79,4.93,5.54,7.43,8.29.52.57,1.06,1.25,2,.87l.08.1c-.53.94.15,1.48.66,2.09,2.1,2.51,4.29,5,6.27,7.55,3.35,4.41,4.72,9.68,6.05,14.91a4.88,4.88,0,0,1-5.79,5.75c-2.89-.64-5.34-2.25-6-5.2-1.18-5.2-4.4-9.05-7.71-12.89-2.9-3.35-5.74-6.7-7.63-10.77a22.7,22.7,0,0,0-2.55-3.55,29.3,29.3,0,0,1-2.78-4,7.21,7.21,0,0,0-2.75-3.33c-2.06-1.22-2.21-3-1.63-5.07A.72.72,0,0,0,139.81,331.17Zm31.95,41.3a8.43,8.43,0,0,0,.22-2.64c-1.27-4.55-2.29-9.22-5.55-12.93q-8.91-10.14-17.78-20.31a15.09,15.09,0,0,0-1.39-1.38c-.49-.43-1-.8-1.77.07a77.12,77.12,0,0,0,9.57,15.19c2.72,3.27,5.49,6.5,8.12,9.84a26.13,26.13,0,0,1,4.87,8.45,9.49,9.49,0,0,0,1.67,2.95C170,372.11,170.8,372.14,171.76,372.47Z" style="fill:#4a435b"/><path d="M170.6,421.8c.81,2.28,1.76,4.53,2.42,6.85a23.78,23.78,0,0,1,.31,9.21c-.23,1.94-.38,3.88-.56,5.82-.18.63-.37,1.26-.53,1.89-1.61,6.29-6,9.53-12.08,10.63a12.76,12.76,0,0,1-14.1-8.13,38.83,38.83,0,0,1-2.29-9,53.87,53.87,0,0,1,.16-14.18,21.27,21.27,0,0,1,5-11,6.06,6.06,0,0,1,5-2.61c4.23.23,8.54.38,12.1,3.22.75,1,1.49,2.08,2.24,3.11l0,0,.84,1.43Zm-18.54-5.4a12.23,12.23,0,0,0-4,7.11,47.66,47.66,0,0,0-.53,16.59,30.4,30.4,0,0,0,1.43,5.71c2.54,7.05,10.11,9,15.89,4.23a11.26,11.26,0,0,0,3.77-6.68c1.29-5.81,2.11-11.65-.46-17.33-1.15-2.52-2.67-4.87-4-7.3s-3.58-3.23-6.22-3C156,415.86,154.08,416.15,152.06,416.4Z" style="fill:#5d536c"/><path d="M139.31,298.16c0,.66-.05,1.32-.07,2-.37,1.92-.68,3.86-1.13,5.76-1.54,6.56-7.64,7.42-12.2,4.39a4,4,0,0,1-1.39-2.44,20.11,20.11,0,0,1-.18-4.39c.1-2.45.27-4.9.52-7.33.84-8.16.42-16.31,0-24.46,0-.65-.13-1.3-.19-1.95-.3-3.16.48-5.82,3.36-7.58a6,6,0,0,0,1-1,11.1,11.1,0,0,1,7,1.28c1.29.71,2,1.84,1.64,3.19-2.16,7.29.11,14.43.58,21.62Zm-10.84-2.05H128c0,3.1-.18,6.21-.12,9.31,0,1.48,1,2.29,2.51,2.54a2.34,2.34,0,0,0,2.86-1.32,21.54,21.54,0,0,0,1.62-5.07,44.9,44.9,0,0,0,.25-10.75c-.68-6.16-1.09-12.36-1.65-18.54a10.67,10.67,0,0,0-1.6-5.58,1.67,1.67,0,0,0-1.23-.63,1.49,1.49,0,0,0-1.08.81,15.19,15.19,0,0,0-.85,3.78c-.17,4.41-.22,8.82-.26,13.23C128.42,288,128.46,292,128.47,296.11Z" style="fill:#4a435b"/><path d="M58,322.88a4.07,4.07,0,0,1,1.7-3.32c5-3.28,10-6.63,15-9.95a2.54,2.54,0,0,1,1,2.32c-3.55,2.85-7.11,5.69-10.66,8.56a5.36,5.36,0,0,0-.95,1.11c-1,1.44-.83,2.78.61,4.41,1.21,1.38,2.4,1.76,3.89.88a27.51,27.51,0,0,0,4.8-3.39c5.16-4.85,11.12-8.6,17-12.47.14-.09.28-.17.41-.27,2.53-2.07,5.07-4.14,7.59-6.23a2.38,2.38,0,0,0,1-2.58c-.66-2.13-1.1-4.45-3.52-5.88-2.18,1.45-4.82,2.46-6.37,4.36-3.28,4-7.4,6.88-11.43,9.93-.2-1-.4-1.92-.61-2.88q7.05-6.33,14.11-12.65c1.31-1.17,2.71-2.24,4.09-3.37,4.44,1.92,6.57,5.44,8.23,9.38.17,1.27.34,2.55.52,4-2.26,1.81-4.6,3.54-6.76,5.46a34,34,0,0,1-7.11,5.11,10.73,10.73,0,0,0-1.85,1.54l-.9.67a33.93,33.93,0,0,0-4.6,2.61c-4.07,3.2-8,6.54-12,9.87-2.93,2.45-4.32,2.61-7.21.24a58.15,58.15,0,0,1-4.41-4.47l-.53-.91C58.73,324.24,58.38,323.56,58,322.88Z" style="fill:#4a435b"/><path d="M189.94,348.34a11.79,11.79,0,0,1-7.5-3.26c-4.61-4.59-9.76-8.66-13.62-14-.37-.52-.73-1.2-1.26-1.42-3.22-1.3-4.72-4.32-6.87-6.69a12,12,0,0,1-1.45-2c-1.24-2.15-1-3.69,1.08-5a7.83,7.83,0,0,0,3.1-2.92c.69-1.32,2.1-1.33,3.33-.24,3.4,3,6.89,6,10.11,9.23,3.92,3.94,7.89,7.79,12.14,11.37,2.24,1.88,4.15,4.14,6.26,6.19a4.46,4.46,0,0,1,.82,5.8,5.2,5.2,0,0,1-5.17,3Zm-26.21-31.85a1.63,1.63,0,0,0-.5,2.58c1.81,2.3,3.74,4.52,5.71,6.69,1.41,1.57,3.12,2.89,4.41,4.54a107.58,107.58,0,0,0,10.77,11.41,9.12,9.12,0,0,0,6,2.9c.58,0,1.5-.23,1.69-.63a2.74,2.74,0,0,0,.1-2.25,16.12,16.12,0,0,0-2.76-3.41q-7.41-7.12-14.94-14.15c-1.91-1.79-3.9-3.5-5.95-5.12C166.93,318,165.59,316.66,163.73,316.49Z" style="fill:#4a435b"/><path d="M94.22,319.78c1.55-1.19,3.06-2.46,4.68-3.56,2-1.36,3.52-1.18,5.25.53q1.74,1.72,3.34,3.59c1.38,1.59,1.35,1.62,1.89,5.08-5.16,2.22-8.54,6.81-12.84,10.27-3.32,2.66-6.47,5.51-9.69,8.3-2.22,1.93-4.39,3.93-6.64,5.82-2.64,2.21-4.57,1.95-6.63-.75-2.51-3.31-2.42-7.09.64-10.08,4-3.89,8.25-7.47,12.3-11.28,2.13-2,4.08-4.2,6.11-6.31ZM77.88,346.33a20.67,20.67,0,0,0,2-1.3c4.2-3.38,8.42-6.74,12.54-10.22C95.79,332,99,329,102.31,326a11.36,11.36,0,0,0,1-1,2.66,2.66,0,0,0,.17-3.2,2.41,2.41,0,0,0-2.91-1.2,13.43,13.43,0,0,0-6.08,4c-1.92,2-3.92,3.91-6,5.8-3.34,3.12-6.74,6.18-10.09,9.29a12.57,12.57,0,0,0-2,2.16C75.48,343.36,75.81,344.39,77.88,346.33Z" style="fill:#4a435b"/><path d="M185.64,266.05c.83,5.21,0,10.39-.29,15.58-.15,2.59,0,5.2-.07,7.8-.05,4.73,0,9.45-.19,14.17-.14,3.16-1.82,4.29-4.9,3.7s-3.82-1.28-4-4.56c-.29-5.85-.45-11.72-.64-17.58-.1-3.09-.18-6.17-.27-9.26,0-.63,0-1.27,0-1.9.2-4.53.41-9.05.61-13.52,1.81-1.45,3.43-.81,5,.15,2,1.21,3.23,3.16,4.54,5Zm-4.42.15a7.14,7.14,0,0,0-.83,1.49,42.13,42.13,0,0,0-.91,4.3c-1.36,9.44-.52,18.82.76,28.19,0,.14.51.22,1,.39a8.36,8.36,0,0,0,.49-1.77c.48-8.94,1-17.88,1.32-26.82a21,21,0,0,0-.75-4.8C182.21,266.93,181.82,266.75,181.22,266.2Z" style="fill:#4a435b"/><path d="M54.79,376.07l.57-2.85c1.12.06,2.48-.15,3,1.08s1.22,2.74,0,4.11a3.14,3.14,0,0,0-.6.77c-.73,1.63-.88,3.11.9,4.28.4.26.48,1,.8,1.74L56,386c-.36,1.79-.32,3.59-1.11,4.91s-2.35,2-3.57,2.95c-.18,1.43.63,2.13,1.79,2.57,1.33.49,3,0,4.25,1.93-.16.88-.34,2.14-.61,3.38-.71,3.15-2,6.18-2.12,9.47l-1.11,3.14-2.85.92a6.77,6.77,0,0,1,0-.78,47.14,47.14,0,0,0,.65-5.12c0-1.75-.27-3.49-2.23-4.26a3.9,3.9,0,0,1,.07-1,8.21,8.21,0,0,0-1-7.41,20.47,20.47,0,0,1-1.53-4,1.81,1.81,0,0,0-.88-2.79.87.87,0,0,1-.38-.74c.28-1.39.41-2.9,2.37-2.94l.26.29-.24-.31c.22-1.08.43-2.16.64-3.2h3.49c1.13-.11,1.54-.91,1.78-1.87l.78-3.18C55.36,377.47,55.52,376.84,54.79,376.07Z" style="fill:#2f2e3a"/><path d="M54.66,411.23c.11-3.29,1.41-6.32,2.12-9.47.27-1.24.45-2.5.61-3.38-1.23-1.92-2.92-1.44-4.25-1.93-1.16-.44-2-1.14-1.79-2.57,1.22-.95,2.82-1.7,3.57-2.95s.75-3.12,1.11-4.91l3.46-.82c-.32-.74-.4-1.48-.8-1.74-1.78-1.17-1.63-2.65-.9-4.28a3.14,3.14,0,0,1,.6-.77c1.23-1.37.61-2.82,0-4.11s-1.92-1-3-1.08c-.15-1.06-.29-2.11-.44-3.16a.75.75,0,0,1,.57.17c2.09-1,2.14-1.15.81-3.11.1-.38.19-.75.29-1.12,3.41.43,5.68,2.9,8.29,4.74a2.13,2.13,0,0,1,.65,2.66c-2.91,7.35-3.9,15.18-5.8,22.79-.55,2.2-1,4.37-.14,6.72.79,2-.63,3.81-1.72,5.38A19.24,19.24,0,0,1,54.66,411.23Z" style="fill:#4a435b"/><path d="M79.35,382.47a37.53,37.53,0,0,1,2.54,4.12,6.75,6.75,0,0,1-2.17,8.69c-2.53,2-5.17,1.13-6-1.89a7.94,7.94,0,0,1,.42-6.18c.75-1.41,1.72-2.7,2.78-4.34a21,21,0,0,1-2.11-3.81,14,14,0,0,1-.41-4.35,9.81,9.81,0,0,1,2.35-6.28c1.74-2.12,3.68-2.17,5.26,0,2.62,3.57,3.24,6.11.56,9.78C81.48,379.62,80.42,381,79.35,382.47Zm.56,7.63c-.55-.65-.84-1.25-1.31-1.5-.72-.37-1.58.71-1.37,1.88.09.48.69.87,1.06,1.29Z" style="fill:#4a435b"/><path d="M127,478.82c.08-1.29.17-2.59.24-3.89.26-5.22,2.09-6.63,7.29-5.49a6.13,6.13,0,0,1,2.63,1.14c1.55,1.36,2.49,3.06,1.74,5.24a30,30,0,0,1-1.12,3.23,35.3,35.3,0,0,1-1.89,3.14c.74.9,1.28,2,2.17,2.54,2.17,1.25,2.65,3.18,2.77,5.39a9,9,0,0,1-1.14,5.67,3.74,3.74,0,0,0-3,2.18c-4.57-1.88-6.19-5.42-5.72-10.15.16-1.61.31-3.22.49-5.05-1-1.69-3-2.6-4.54-4Zm8.91-3.73a7.13,7.13,0,0,0-1.29-2c-.74-.55-1.56,0-2.07.6a5.33,5.33,0,0,0-1.12,2,2.25,2.25,0,0,0,1,2.5,1.85,1.85,0,0,0,2.41-.94A20.73,20.73,0,0,0,135.87,475.09Zm.95,18.12c1.23-2.36,1.25-2.58.56-3.93a1.05,1.05,0,0,0-1.65-.34C134,490.16,134.47,491.82,136.82,493.21Z" style="fill:#4a435b"/><path d="M51.92,383H48.43c-.21,1-.42,2.12-.64,3.2l0,0c-2,0-2.09,1.55-2.37,2.94-2.55-2.37-3-5.55-3.32-8.76a27,27,0,0,0-1.85-7.94,13.77,13.77,0,0,0-1.56-2.36l-.93-2.64a7.62,7.62,0,0,1,4.73-5.18,16.1,16.1,0,0,1,6.31,9C50,375.19,50.88,379.13,51.92,383Z" style="fill:#4a435b"/><path d="M50.7,415.29l2.85-.92c-.88,4.78-1.45,9.64-2.72,14.32s-3,5-7.18,2.68c-1.28-.72-2.62-1.32-3.9-2-1.56-.86-2.13-2-1.53-3.63a61.14,61.14,0,0,1,3.51-8.57c2.26-4.12,4.92-8,7.41-12,2,.77,2.27,2.51,2.23,4.26a47.14,47.14,0,0,1-.65,5.12c-.93.14-2.13,0-2.76.48-3.36,2.75-5.17,6.29-4.43,10.73.14.8.95,1.48,1.5,2.3a7.29,7.29,0,0,0,3.89-5.13C49.53,420.36,50.11,417.82,50.7,415.29Z" style="fill:#4a435b"/><path d="M193.48,271.21l2.3-.14c1.07,2.22,2.15,4.2,3,6.27a4.74,4.74,0,0,1,.13,2.84,42.46,42.46,0,0,1-1.72,4.52c2.94,3,3.73,4.59,4.31,8.45a5.89,5.89,0,0,1-.74,4.24,4.46,4.46,0,0,1-4.2,2.05c-2.75-1.91-3.12-4.76-3-7.77.06-1.44.26-2.89.44-4.76-1.66-1.84-3.73-3.94-3.32-7.23C191,276.65,190.83,273.46,193.48,271.21Zm3,9a24.28,24.28,0,0,0-.89-2.28c-.26-.5-1.36-.33-1.59.21a1.79,1.79,0,0,0-.16.44,7.51,7.51,0,0,0-.15,1.41c0,1,.76,1.76,1.4,1.46A6.93,6.93,0,0,0,196.43,280.19Zm2.44,14.49a2.68,2.68,0,0,0-.77-3.05,1.1,1.1,0,0,0-.87-.23,1,1,0,0,0-.68.56,2.86,2.86,0,0,0,.76,3.1,1.08,1.08,0,0,0,.87.24C198.43,295.24,198.63,294.91,198.87,294.68Z" style="fill:#4a435b"/><path d="M127.39,434.54c.46-2.05.64-3.35,1-4.58a3.74,3.74,0,0,1,6.18-1.89,6.18,6.18,0,0,1,2.6,4c.39,2.73.88,5.46,1,8.21a7.27,7.27,0,0,1-5.59,7.08,2.56,2.56,0,0,1-2.92-1.28,11.31,11.31,0,0,1-1.39-3.6C127.87,439.61,127.63,436.7,127.39,434.54Zm5.44-2c-1.45,3.61-1.77,5.91-1.08,8.48a1.59,1.59,0,0,0,2,1.35c1.58-1.74,1.06-4,.9-6.19C134.53,434.87,134.45,433.33,132.83,432.58Z" style="fill:#5d536c"/><path d="M25.08,363.31,27.24,360c-.47-1.18-.94-2.36-1.4-3.53l4.83,2.41c0,.78,0,1.55.79,2.1a12.15,12.15,0,0,1,4.49,6.6c-.1,1.12-.2,2.24-.31,3.36a24.5,24.5,0,0,1-2.2,4.78c-1.7,2.32-3.71,2.27-5.73.33a8.49,8.49,0,0,1-2.84-6.46C24.9,367.52,25,365.41,25.08,363.31Zm5.21,1.45a3.35,3.35,0,0,0-1.95,3.56,4.85,4.85,0,0,0,1.21,3.62,1.31,1.31,0,0,0,2.07-.26C32.73,369.18,32.29,367,30.29,364.76Z" style="fill:#5d536c"/><path d="M125.94,375.93c.2-.54.64-1.13.55-1.61-.49-2.47-1.11-4.92-1.68-7.38v-2c.4-1.45.9-2.8,2.72-3a7.91,7.91,0,0,0,1.86-.6,4.73,4.73,0,0,1,6.6,4.33,44.34,44.34,0,0,1-.94,8.67c-.23,1.1-1.49,2.05-2.41,2.92a2.59,2.59,0,0,1-3.19.25c-.84-.46-1.51-1.21-2.34-1.71-.3-.17-.82,0-1.24.06Zm5.14-11.31a11.39,11.39,0,0,0-1.67,5.88,3.42,3.42,0,0,0,.46,1.83,2.64,2.64,0,0,0,1.41,1c.28.07.88-.41,1.06-.77a7.66,7.66,0,0,0,.24-6.93C132.42,365.29,131.84,365.12,131.08,364.62Z" style="fill:#4a435b"/><path d="M130.92,396.5v.06c0-1.46,0-2.92,0-4.38a11.6,11.6,0,0,1,1.54-5.56,6,6,0,0,1,4.13-3.06c2.29-.51,3.73.16,4.62,2.4a13.87,13.87,0,0,1-.38,10.93c-1.74,3.94-6.21,4.16-9,.72Zm6.46-9.77c-.77,1.89-1.36,3.21-1.85,4.56-.68,1.83.17,3.07,1.53,4.18,1.69-1.82,1.77-1.91,1.88-3.27C139.09,390.45,139.24,388.68,137.38,386.73Z" style="fill:#4a435b"/><path d="M20.73,435l-1.26-6c.87-3.66,1.72-7.33,4.68-10l1.76-.3c3.23,2.66,3.45,6.45,3.79,10.17a3.32,3.32,0,0,1-.7,2.26,30.69,30.69,0,0,1-4.19,4A3.24,3.24,0,0,1,20.73,435Zm4.43-8.27a2.28,2.28,0,0,0-1.65,3.62,1.37,1.37,0,0,0,1.21.33A2.41,2.41,0,0,0,26,427.49C25.9,427.14,25.4,426.9,25.16,426.69Z" style="fill:#4a435b"/><path d="M131,450.52c.68.22,1.26.24,1.57.53,2.52,2.38,4.71,5,5.08,8.61.34,3.4-3.44,7-6.83,6.56a4,4,0,0,1-3.54-3,13.93,13.93,0,0,1,1.5-11.25C129.24,451.3,130.34,451,131,450.52Zm.74,5.17a6,6,0,0,0-1.1,5,1.8,1.8,0,0,0,3.45.36C135.08,459.12,134.43,457.71,131.78,455.69Z" style="fill:#4a435b"/><path d="M37.47,463.22a1.92,1.92,0,0,0-2.2.26,12.7,12.7,0,0,1-3.33,1.89c-2.57.82-4.62-.47-4.85-3.14a22.39,22.39,0,0,1,.39-5.28c.22-1.44.71-2.84,0-4.26,1-1.44,2.08-2.69,4-2.85.47.64.8,1.51,1.43,1.89,3.34,2,4.48,4.88,3.85,8.62a2.19,2.19,0,0,0,.86,2.55Zm-5.83-6a10.94,10.94,0,0,0-.6,2.1c0,.33.39.75.7,1,.1.08.72-.15.75-.3a11.31,11.31,0,0,0,.16-2.25C32.65,457.68,32.18,457.55,31.64,457.25Z" style="fill:#5d536c"/><path d="M82.68,427.79c-.1.6-.21,1.58-.45,2.53a5.26,5.26,0,0,1-5,3.88,2.43,2.43,0,0,1-1.69-.75c-2.85-3.5-1.93-11,1.64-13.82,1.54-1.2,3-.92,4.15.74C82.88,422.52,82.88,424.94,82.68,427.79ZM79,424a4.1,4.1,0,0,0-1.19,4.69,1,1,0,0,0,.73.47.89.89,0,0,0,.72-.43A5,5,0,0,0,79,424Z" style="fill:#4a435b"/><path d="M117.51,361.48,113,358a11.72,11.72,0,0,1,.66-7.64c1.09-2.83,3.12-4,5.69-3.42,3.05.63,4.93,2.91,4.67,5.88C123.67,357,121.85,360.2,117.51,361.48Zm.76-11.32c-.87.59-.27,1.47-.45,2.18-.23.91-.76,1.75-1,2.66s-.15,1.81.75,2a2.55,2.55,0,0,0,2-.78,6.33,6.33,0,0,0,1.3-2.49C121.4,352,120.77,351.19,118.27,350.16Z" style="fill:#4a435b"/><path d="M136.68,498a3.74,3.74,0,0,1,3-2.18c.09.47.19.94.28,1.39,1.17.95,2.15-.13,3.2-.25,2.58-.3,4,.48,5,2.85a6.2,6.2,0,0,1-1.72,7.48,4.16,4.16,0,0,1-6.08,0,8.19,8.19,0,0,1-2.7-5A39,39,0,0,0,136.68,498Zm8.14,1.79a23.09,23.09,0,0,0-2.1,2.27c-.59.94-.37,1.76.42,2a1.36,1.36,0,0,0,1.85-1A14.79,14.79,0,0,0,144.82,499.76Z" style="fill:#5d536c"/><path d="M83.31,408.18A8.66,8.66,0,0,1,80,414.1c-2.53,1.93-5.82.85-6.46-2.28s-.34-5.9,2.17-8.1a27.1,27.1,0,0,1,3.81-3,1.85,1.85,0,0,1,2.75,1.19C82.73,404,83,406.1,83.31,408.18Zm-3.61-3.79c-1.55,2.19-2.63,3.48-2.4,5.39,0,.28.27.72.46.75.43.07,1.07.09,1.32-.17C80.44,409,80.6,407.32,79.7,404.39Z" style="fill:#4a435b"/><path d="M29.92,397.55a4,4,0,0,0-1-.05c-2.46.54-4.08-.47-5.11-2.68a6.69,6.69,0,0,0-.88-1.14c-.11-.66-.23-1.32-.34-2s-.11-1.34-.17-2c.41-2.23,2-3.68,3.57-5.06a3.14,3.14,0,0,1,4.72.4,13.63,13.63,0,0,1,1.89,2.82,9.68,9.68,0,0,1,.44,6.2C32.71,395.82,31.2,396.58,29.92,397.55Zm-3.27-7.72c.09.73.22,2,.44,3.28a.93.93,0,0,0,.69.58,1.89,1.89,0,0,0,1.31-.37,4,4,0,0,0-.16-5.32,1.88,1.88,0,0,0-1.31-.32c-.22,0-.49.38-.63.64A8.83,8.83,0,0,0,26.65,389.83Z" style="fill:#4a435b"/><path d="M69.05,462.42a16.74,16.74,0,0,1-4.32,4.48,18,18,0,0,1-2.43.06,3.44,3.44,0,0,1-3.16-2.64c-.4-1.41-.77-2.82-1.14-4.18a9.93,9.93,0,0,1,6.49-6.29c1.91-.65,3.12-.05,3.83,1.88C69.11,457.89,69.77,460.08,69.05,462.42Zm-2.73-2.24c0-.3,0-.77-.12-1.24a1.3,1.3,0,0,0-2.2-.69,4.83,4.83,0,0,0-1.26,1.92,2.81,2.81,0,0,0,1.33,3.23c1,.31,2-.84,2.19-2.57C66.28,460.67,66.29,460.52,66.32,460.18Z" style="fill:#4a435b"/><path d="M193.38,411.6a27.71,27.71,0,0,1-2.46,4.8,2.88,2.88,0,0,1-5.14-.68,21.51,21.51,0,0,1-1.5-5.16c-.45-2.87,1.35-5,4.32-5.49,2.29-.36,4.06,1.22,4.53,4.08C193.23,409.8,193.27,410.45,193.38,411.6Z" style="fill:#5d536c"/><path d="M24.13,415.82l-1.65-.56a22.93,22.93,0,0,1-1.11-11.11,5.15,5.15,0,0,1,2.09-3.73,4.34,4.34,0,0,1,3.78-.23c.31.71.62,1.42.92,2.14a.77.77,0,0,0,.2.8c.11.65.21,1.3.31,1.95l.12,2.08c-.05,1-.14,1.93-.15,2.9A7,7,0,0,1,26,415.52Zm1.19-6.31a9.87,9.87,0,0,0,.47-2.17c0-.29-.56-.64-.93-.83-.1-.05-.61.33-.64.55a6.31,6.31,0,0,0,0,1.84C24.28,409.09,24.75,409.2,25.32,409.51Z" style="fill:#4a435b"/><path d="M200.44,471.5c2.72,0,4,2.07,5.13,4a7.74,7.74,0,0,1,.93,6.58c-.8,2.34-2.75,3-5.12,2.51l-.29,0-.09.27c-.18-.8-.76-1-1.48-1-.28-.55-.82-1.11-.8-1.65.13-3,.34-6.09.65-9.12C199.43,472.53,200.07,472,200.44,471.5Z" style="fill:#4a435b"/><path d="M89.64,351.66a9.68,9.68,0,0,1,.14,10.61c-1.28,2.28-2.91,3.39-5.46,3.27A5,5,0,0,1,81.26,362a8.29,8.29,0,0,1,.06-5.3A9.75,9.75,0,0,1,85,352.17C86.4,351,88,351.28,89.64,351.66ZM86.3,361.72a5.5,5.5,0,0,0,2.5-4.9c0-1-.37-1.95-1.74-1.7C84.21,359.15,84.2,359.19,86.3,361.72Z" style="fill:#4a435b"/><path d="M200.05,489l1-.06c4.76-.26,5.81.83,5.21,5.53-.18,1.41-.06,2.91-1.52,3.9-3.06,2.1-5.36,1.67-7.2-1.6-.79-1.4-1.32-2.94-2-4.42.92-.61,1.86-1.18,2.74-1.83C198.91,490,199.46,489.48,200.05,489Zm2.41,5.25a5.92,5.92,0,0,0-.93-.94c-.1-.06-.46.28-.69.43a6.35,6.35,0,0,0,.76,1C201.65,494.77,202.05,494.46,202.46,494.22Z" style="fill:#4a435b"/><path d="M154.41,499.67c-3.57-.25-4.77-2.53-3.9-5.51A7.6,7.6,0,0,1,155.9,489a3.8,3.8,0,0,1,5,4.58,15.05,15.05,0,0,1-1.44,3.6A4.37,4.37,0,0,1,154.41,499.67Zm2.55-7.23c-.52.19-1.15.24-1.29.52a6.17,6.17,0,0,0-.53,2.2c0,.58,1.11,1,1.45.53a6.09,6.09,0,0,0,1-2C157.68,493.37,157.23,492.92,157,492.44Z" style="fill:#4a435b"/><path d="M192.64,458.69a12.87,12.87,0,0,1,3-1.45,3.77,3.77,0,0,1,4.35,2.33c1.47,3.16,1.81,6.23-1.19,8.81a7.64,7.64,0,0,1-4.61-.1l-1.55-3C192.71,463.07,191.5,460.88,192.64,458.69Z" style="fill:#5d536c"/><path d="M37.47,463.22l.12-.32a7.68,7.68,0,0,1,1.1-2.11,2.46,2.46,0,0,1,3.51-.17,14.82,14.82,0,0,1,2.7,3.95,4.12,4.12,0,0,1-1,4.91c-1.28,1.17-2.26,2.84-4.36,2.68a8.21,8.21,0,0,0-3.15-4.05C36.74,466.48,37.11,464.85,37.47,463.22Z" style="fill:#4a435b"/><path d="M79.09,449.94l.06-.09A17.81,17.81,0,0,1,77,451.06c-3.58,1.48-6.53-.56-6.52-4.46a9.74,9.74,0,0,1,2.65-6.14,2.63,2.63,0,0,1,2.18-.6,4.31,4.31,0,0,1,3.72,3.38C79.58,445.5,80.06,447.7,79.09,449.94Zm-3.72-5.23A1.8,1.8,0,0,0,75,445c-.63,1-.51,2,.33,2.45a1,1,0,0,0,.8-.19,10,10,0,0,0,0-2.19C76.13,444.94,75.64,444.84,75.37,444.71Z" style="fill:#4a435b"/><path d="M223.16,359.31a22.55,22.55,0,0,1,1.38-3.39,3.34,3.34,0,0,1,4.25-1.33,5.44,5.44,0,0,1,2.69,7.36,6.23,6.23,0,0,1-2.77,2.56C225.24,366,222.47,363.72,223.16,359.31Z" style="fill:#5d536c"/><path d="M56,467.6a5.51,5.51,0,0,1-6.63,5.34,3.57,3.57,0,0,1-2-1.86c-1.27-2.71.74-7.13,3.55-8.15a3.67,3.67,0,0,1,4.74,2.27A13.79,13.79,0,0,1,56,467.6Z" style="fill:#4a435b"/><path d="M186.48,445.18c.14-.08.29-.13.43-.22,1.36-.9,2.77-1.84,4.43-.89a6.1,6.1,0,0,1,3.3,5,11,11,0,0,1-.2,2.87,2.88,2.88,0,0,1-3.06,2.48,25.63,25.63,0,0,1-2.87-.3l-1.64-1.25c-.34-.53-.67-1.06-1-1.58l.21-.15-.11-.24c-.05-.33-.09-.67-.14-1Z" style="fill:#5d536c"/><path d="M227.75,374.65c-.2,2.82-1,4.53-2.65,5.79a3.28,3.28,0,0,1-5.48-2.17,7.67,7.67,0,0,1,3.44-8c1.89-1.27,3.54-.79,4.16,1.32A22.64,22.64,0,0,1,227.75,374.65Z" style="fill:#4a435b"/><path d="M204.06,396.57c-.19,2.9-.84,4.85-2.59,6.29a3.13,3.13,0,0,1-3.16.63,2.64,2.64,0,0,1-1.68-2.68,11.61,11.61,0,0,1,2-7.33,2.83,2.83,0,0,1,5.39,1.4A13,13,0,0,1,204.06,396.57Z" style="fill:#4a435b"/><path d="M192.52,257.81a2.45,2.45,0,0,0,.45-.17c.95-.51,1.73-1.63,3-1.05a3.78,3.78,0,0,1,2.13,3.5c.05,1,.05,1.93,0,2.89-.16,4.24-1.28,5.42-5.73,6l-2.18-2.7-.39-1.87,0-2c.31-.94.61-1.89.91-2.84Zm3.27,6.37c.05-1.71-.68-2.74-1.48-2.41a2.21,2.21,0,0,0-1.15,1.32c-.27,1.08.43,2.33,1.24,2.22C195,265.23,195.48,264.45,195.79,264.18Z" style="fill:#4a435b"/><path d="M31.45,449.84c-1.9.16-3,1.41-4,2.85l-2.95-.19c.16-1.42.5-2.74,1.91-3.47a2,2,0,0,0,2.37-1.17,4.48,4.48,0,0,0,0-1.78l-1.74.24a3.85,3.85,0,0,1-1.42-3.82,1.76,1.76,0,0,1,2.84-1.27c1.27.92,2.51,1.89,3.76,2.84A4.85,4.85,0,0,1,31.45,449.84Z" style="fill:#4a435b"/><path d="M32.2,444.07c-1.25-.95-2.49-1.92-3.76-2.84a1.76,1.76,0,0,0-2.84,1.27A3.85,3.85,0,0,0,27,446.32c-.2.9-.39,1.8-.59,2.71-1.41.73-1.75,2.05-1.91,3.47a2.82,2.82,0,0,1-2.22-2.87,16.85,16.85,0,0,1,1.62-8.56,3.36,3.36,0,0,1,5.31-1.3C30.59,440.89,32,442.08,32.2,444.07Z" style="fill:#5d536c"/><path d="M36.37,468.11a8.21,8.21,0,0,1,3.15,4.05C36.19,472.4,35.8,471.91,36.37,468.11Z" style="fill:#5d536c"/><path d="M137.12,410.69c-1.37-.51-1.61-1.64-1.59-2.92A2.64,2.64,0,0,1,137.12,410.69Z" style="fill:#706578"/><path d="M45.78,389.93a1.81,1.81,0,0,1,.88,2.79C46.37,391.79,46.07,390.86,45.78,389.93Z" style="fill:#4a435b"/><path d="M198.77,312.91c.39.41.79.82,1.19,1.22C199.56,313.73,199.16,313.32,198.77,312.91Z" style="fill:#706578"/><path d="M185.86,451.3c.34.52.67,1.05,1,1.58C186.53,452.35,186.2,451.82,185.86,451.3Z" style="fill:#d9d0c3"/><path d="M28.36,403.13a.77.77,0,0,1-.2-.8,5.8,5.8,0,0,1,.47.52S28.45,403,28.36,403.13Z" style="fill:#b6ada1"/><path d="M164.72,486.63a.43.43,0,0,1,.6-.16l-.25.25Z" style="fill:#706578"/><path d="M199.52,483.86c.72,0,1.3.19,1.48,1Z" style="fill:#d9d0c3"/><path d="M169.08,419l-.84-1.43Z" style="fill:#d9d0c3"/><path d="M204.56,327.22l1.15.14Z" style="fill:#706578"/><path d="M185.82,449.91c.05.33.09.67.14,1a4.38,4.38,0,0,1-.37-.67C185.57,450.17,185.74,450,185.82,449.91Z" style="fill:#d9d0c3"/><path d="M51.45,269.78c1.95,3.82,1.73,7.1,1.47,10.49,1.5,1.26,3.44,2.15,3.63,4.37.15,1.95.44,3.89.43,5.83,0,2.16-1.76,3.4-3.3,4.92.37,1.24.8,2.45,1.09,3.68a8.41,8.41,0,0,1-3.36,9.06A3.27,3.27,0,0,1,47,308c-.51-.39-.93-.91-1.44-1.32a10.39,10.39,0,0,0-1.13-.74c-1.14.37-.82,1.33-1,2a9.27,9.27,0,0,1-.58,1.85c-1.58,2.74-4.51,2.91-6.34.36a6.57,6.57,0,0,1-1-2.18,42.5,42.5,0,0,1-.75-4.35c-.41-3.22,1.4-5,4.63-4.39a22.66,22.66,0,0,1,3.43,1.24c1.82-1.89,4.1-3.48,5.39-6.26a5,5,0,0,0-.51-1.71,7.16,7.16,0,0,1-.81-8.23,3.85,3.85,0,0,0,.13-1.19c-1-1.17-2.83-1.81-2.93-4a14.81,14.81,0,0,1,1.66-8,14.18,14.18,0,0,1,1.49-1.89A17.16,17.16,0,0,0,46,267.4c-1.59-1.9-1.34-3.86-.37-5.94A10.72,10.72,0,0,1,51,256.6a2.93,2.93,0,0,1,3.54.88,10.55,10.55,0,0,1,2.5,6.76,3.85,3.85,0,0,1-1.22,2.53A40.49,40.49,0,0,1,51.45,269.78Zm.82,21.71c1.72-2,1.91-2.3,1.76-3.78a1.44,1.44,0,0,0-1.51-1.5,1.87,1.87,0,0,0-2,1.67A3.8,3.8,0,0,0,52.27,291.49ZM49.79,265.7a3.14,3.14,0,0,0,3.3-1.63,2.85,2.85,0,0,0-.53-3.15c-.22-.31-1.07-.61-1.21-.48a5.74,5.74,0,0,0-1.69,2.18A9.74,9.74,0,0,0,49.79,265.7Zm2.59,35.63a29,29,0,0,0-1.58-3.07,1.37,1.37,0,0,0-1.29-.06c-1.07.68-1.65,2.55-.95,3.42a3.15,3.15,0,0,0,2.11.85C51.13,302.49,51.63,301.86,52.38,301.33Zm-3.49-26.07c-1.56,1.46-1.8,2.11-1,3.41a1.36,1.36,0,0,0,1.19.44c1.11-.3,1.26-1.31.53-3.21C49.47,275.64,49.12,275.47,48.89,275.26Z" style="fill:#4a435b"/><path d="M94.4,136.79A20.8,20.8,0,0,1,91.75,138,2.75,2.75,0,0,1,88,136c-.81-3.36-1.31-6.75,1.06-9.95-2.92-3.44-2.94-7.14-1.2-10.85a12.65,12.65,0,0,0-1-1.3c-3.13-2.89-3.46-4.8-1.36-8.41.4-.69.93-1.31,1.4-2,.42-.26.85-.49,1.24-.78a7.84,7.84,0,0,0,.8-.91,22.94,22.94,0,0,1-1.48-4.3,13.79,13.79,0,0,1,.3-4.37,7,7,0,0,1,1.11-3.17c1.68-2,1.87-4.46,2.44-6.82l2.59-1.69a21.28,21.28,0,0,0,0,2.88c0,.3.92.8,1,.72a5,5,0,0,0,1.53-1.67c.37-.87-.17-1.54-1.08-1.78a9.77,9.77,0,0,0-1.44-.18c.55-3,.55-3,4.17-3.61l2,.28c1.53,1.22,2.7,3,4.87,3.21a22.86,22.86,0,0,1,.56,4.82,13.06,13.06,0,0,1-1.44,4.6c-.89,1.79-2.65,2-4,.6-.69-.68-1.2-1.55-1.92-2.2a1.51,1.51,0,0,0-1.33,0c-.35.19-.54.71-.77,1.11a.66.66,0,0,0,0,.48c1.37,3.91-.27,7-3,9.91,2.53,3.85,3.13,7.64-.37,11.26,2.6,4.06,3.94,8.12.7,12.53C96.27,128.23,97.84,132.34,94.4,136.79Zm-.48-42.58c-.75-.36-1.29-.87-1.68-.77a2,2,0,0,0-1.56,2.13c0,.29.18.75.38.81.41.13,1.06.24,1.3,0A14.76,14.76,0,0,0,93.92,94.21Zm-4.74,13.73c1.86.63,2.38.55,2.82-.55a2.09,2.09,0,0,0-.07-1.72c-.46-.61-1.15-.24-1.55.29A20.77,20.77,0,0,0,89.18,107.94ZM93,132a7.56,7.56,0,0,0,0-1.34,1,1,0,0,0-.54-.64c-.24-.06-.76.09-.8.24a18,18,0,0,0-.43,2.63c0,.14.43.44.67.45a1.11,1.11,0,0,0,.74-.41A3.52,3.52,0,0,0,93,132Z" style="fill:#4a435b"/><path d="M24.29,332.6,27.75,327c-3-3.57-4.21-7.62-2.74-12.39-1.76-2.78-3.91-5.5-4.08-9.08l.27-3.93a22.36,22.36,0,0,1,2.29-2.55,2.94,2.94,0,0,1,4.38.35c2.67,3.24,4.86,6.69,2.66,11.14a10.83,10.83,0,0,0-.45,1.63c3,2.81,5.28,6.1,5,10.55l-.9,2.73c-1.19,1.69-1.19,1.69.83,3.35,1.56,3.52,1,7.09.22,10.67l-.92.83c-.76.3-1.53.55-2.26.9-2.28,1.12-4.05.34-5.65-1.38C24.48,337.78,24.12,335.28,24.29,332.6Zm8-1-4,2a3.18,3.18,0,0,0,1.26,3.59,1.8,1.8,0,0,0,2.81-.6A5.78,5.78,0,0,0,32.29,331.6ZM27,306c-.72.91-1.27,1.3-1.34,1.77a2.3,2.3,0,0,0,.49,1.65c.38.47,1.44-.36,1.46-1.26A9.75,9.75,0,0,0,27,306ZM31,320.18a2.17,2.17,0,0,0-.57,0,1.52,1.52,0,0,0-1,1.89c.1.35.63.56,1,.83a5.54,5.54,0,0,0,.9-1.47C31.46,321.09,31.15,320.6,31,320.18Z" style="fill:#4a435b"/><path d="M101.54,225.89c-3-4.13-3.17-6.4-.75-12a16.12,16.12,0,0,0-1.55-1.12,4.13,4.13,0,0,1-2.16-4.55,38.36,38.36,0,0,1,1.14-5.76,3.59,3.59,0,0,1,4.06-2.82c2.34.09,4,1.1,4.58,3a6.39,6.39,0,0,1-.48,5.67c-.69,1.07-1.31,2.18-1.95,3.26,7.7,4.68,7,8.38,2.22,12.81.36,1,.77,2,1.15,3a11.56,11.56,0,0,1,0,7.24,6,6,0,0,1-2.62,3.44,4.26,4.26,0,0,1-4.64.4,4.32,4.32,0,0,1-2.09-4.62,57,57,0,0,1,2.12-6C100.77,227.33,101.12,226.76,101.54,225.89Zm3.33-5.22a5,5,0,0,0,1.18-.6c1.06-.95,1.21-1.81.35-2.88a1.94,1.94,0,0,0-1.54-.69c-1.07.29-1.28,1.29-1.2,2.29a3.75,3.75,0,0,0,.39,1.35C104.17,220.36,104.53,220.46,104.87,220.67Zm-.93-17.56c-.76.08-1.21,0-1.34.17a5.41,5.41,0,0,0-.87,1.62c-.4,1.37-.08,2.31.7,2.35,1.21.05,1.54-.9,1.86-1.77a2.61,2.61,0,0,0,.09-1.36A3.67,3.67,0,0,0,103.94,203.11Zm1.28,28.06c-2.33.56-3.17,1.41-3,3a1.51,1.51,0,0,0,.88,1c.36.11,1.14-.1,1.23-.36A34.07,34.07,0,0,0,105.22,231.17Z" style="fill:#4a435b"/><path d="M163.3,129.34c5.56-.58,5.9-.26,5.38,5.14-.07.8-.16,1.6-.24,2.4-1.2,1.09-2.4,2.17-4.13,2.3l-2-.56c-.32-.31-.66-.91-1-.88-.83.06-.87.74-.72,1.43-.34.72-.69,1.44-1,2.17a2.32,2.32,0,0,0-1.41,2.3c0,2.71.06,5.41.09,8.12-.7,2.15-.84,4.59-3.12,5.9L150.85,156c0-1.62-.12-3.25-.09-4.87a8.27,8.27,0,0,1,.36-3.37c2.48-4.92,2.31-10.42,3.59-15.59.48-1.91.82-3.87,2.47-5.16a14.36,14.36,0,0,1,2.57-1.29l2.22,2.62C161.87,129.38,162.47,129.51,163.3,129.34Z" style="fill:#4a435b"/><path d="M150.85,156l4.35,1.68c-.09.77-.53,1.77-.2,2.27,1.28,2,1.08,4,.7,6.1a9.5,9.5,0,0,1-.26,1.43,38.6,38.6,0,0,0-1.83,12.85,11,11,0,0,1-3,8,1.32,1.32,0,0,0-.89.27l-2.9-.47c-2.73-4.24-1.92-8.51.26-12.54.93-1.72,1.5-3.2.94-5A2.64,2.64,0,0,1,148,170c-.69-4.09-.37-7.88,3.25-10.5C151.09,158.22,151,157.1,150.85,156Z" style="fill:#5d536c"/><path d="M93.86,81.43l-2.59,1.69c.2-3.55.2-3.55,3.15-7.58-1-1.87-2.15-4-1.17-6.27A17.55,17.55,0,0,1,98,62.6a1.87,1.87,0,0,1,2.6.46,8.41,8.41,0,0,1-.52,10.73c-1.13,1.15-2.73,2-2.05,4-3.62.6-3.62.6-4.17,3.61Zm5-11.14c-.33-.5-.46-.9-.65-.93-.81-.15-1.08.42-1.08,1.09,0,.23.28.46.43.7Z" style="fill:#5d536c"/><path d="M198.61,204.07c1-.12,1.92-.27,2.88-.38,2.95-.33,4.66,1.21,4.57,4.25s-.33,5.86-2.92,8-5.62,1.35-6.23-2a11.93,11.93,0,0,1,1-8.14c.31-.56.53-1.17.8-1.76Z" style="fill:#5d536c"/><path d="M94.07,169.41l1.36-1.91a2.83,2.83,0,0,1,2.8,0,8.41,8.41,0,0,1,3.84,3.64,14.19,14.19,0,0,1,1,3.26,5.93,5.93,0,0,1-6.22,6.91,3.07,3.07,0,0,1-3.05-2C92.61,176,92,172.66,94.07,169.41Zm5.65,5.71c-.06-.6,0-1-.14-1.23-.35-.48-.81-1.18-1.27-1.21a1.79,1.79,0,0,0-1.47.95,6.82,6.82,0,0,0,0,2.81,1.41,1.41,0,0,0,1.05.84,1.61,1.61,0,0,0,1.21-.65A6,6,0,0,0,99.72,175.12Z" style="fill:#4a435b"/><path d="M105.48,190.14c.24,2.44-4.12,6-6.34,5.94a4.76,4.76,0,0,1-4.24-2.77,6.2,6.2,0,0,1,1.78-7.44,20.12,20.12,0,0,1,3.61-2.48,3.19,3.19,0,0,1,4.81,2.38A39.62,39.62,0,0,1,105.48,190.14Zm-4.88-3.36c-.45.51-1.11.92-1.17,1.4a4.77,4.77,0,0,0,.41,2.27,1.37,1.37,0,0,0,1.06.69,1.32,1.32,0,0,0,1-.78,8.56,8.56,0,0,0,0-2.72C101.82,187.35,101.18,187.15,100.6,186.78Z" style="fill:#4a435b"/><path d="M94.36,271.17c1.24-1.09.81-2.71,1.27-4.06s.53-2.54.94-3.77a3.42,3.42,0,0,1,6.56-.18,23.32,23.32,0,0,1,1,6.18c0,2.94-2.39,4.65-5.34,4a32.43,32.43,0,0,1-3.62-1.17l.05.05c.22-.82.06-1.31-.93-1.14Z" style="fill:#5d536c"/><path d="M169.28,140.56c3.26.39,3.45.6,3.92,3.19a6.47,6.47,0,0,1-1,5.17,7,7,0,0,0-1,6.92l-2.86.12c-3.5-3.88-3.92-8.26-2.14-13Z" style="fill:#4a435b"/><path d="M198.69,204c-.61-1.32-2-.76-3-1.2-1.78-.81-3-2-3-4,0-2.26.13-4.53.36-6.78a2.52,2.52,0,0,1,2.08-2.4,2.59,2.59,0,0,1,2.53,1c3.66,4,3.82,4.93,1.91,10-.42,1.11-1.88,2-1,3.47Z" style="fill:#4a435b"/><path d="M108.43,252.69a14.2,14.2,0,0,1-.6,2.45,4.31,4.31,0,0,1-4,3,4.52,4.52,0,0,1-4.64-2.87c-2.18-5.21.6-8.4,5.87-10.1,1.18-.38,2.15.35,2.82,1.44C108.85,248.27,108.74,250,108.43,252.69ZM105.06,249c-1.8.48-2.37,2-2.75,3.51a1.77,1.77,0,0,0,.87,1.45,1.93,1.93,0,0,0,1.72-.26C106.27,252.52,106.26,251.5,105.06,249Z" style="fill:#4a435b"/><path d="M117.78,129.85a9.07,9.07,0,0,1,1.1,9.68,8.24,8.24,0,0,1-1.35,2c-1.35,1.48-2.54,1.69-4.37.79a20.35,20.35,0,0,1-2-1.33c-1.59-2.43-1.1-5-.34-7.51C111.91,129.76,113.61,129,117.78,129.85Zm-2.58,9c2.14-1.74,2.52-2.8,1.72-4.53a1,1,0,0,0-.75-.53c-.44,0-1.07.18-1.25.49C114.13,135.64,114.29,137.06,115.2,138.85Z" style="fill:#4a435b"/><path d="M107.13,93c.61.77,1.23,1.2,1.3,1.7a6.19,6.19,0,0,0,1.76,3.87c1.69,1.7,2,4.06,2.38,6.29a2.06,2.06,0,0,1-1.39,2.31,3.85,3.85,0,0,1-5.27-2c-1.25-3.25-1.87-6.61-.78-10C105.36,94.42,106.29,93.89,107.13,93Z" style="fill:#4a435b"/><path d="M95.09,150.82c-5.37,2.47-6.42,1.82-7-4-.21-2.36-.33-4.57,1.82-6.37l4.18-.74C98.57,143.43,98.78,145.91,95.09,150.82ZM93.9,143.6c-.94.48-1.55.6-1.72.94a6.16,6.16,0,0,0-.63,2.26,1.13,1.13,0,0,0,2,.75,9.53,9.53,0,0,0,.81-2.66C94.42,144.48,94.05,144,93.9,143.6Z" style="fill:#4a435b"/><path d="M110.13,110.68c1.89.75,3.33,1.95,3.7,3.74a11.46,11.46,0,0,1-.33,7.16,7,7,0,0,1-2.38,2.33,2.68,2.68,0,0,1-3.15-.45c-.12-.11-.23-.23-.34-.35-2-2.16-1.65-4.78-1.33-7.36A5.7,5.7,0,0,1,110.13,110.68Zm.29,9.2c1.42-.38,1.62-1.49,1.46-2.68a1.42,1.42,0,0,0-.84-1,1.51,1.51,0,0,0-1.25.46C108.91,117.68,109.06,118.25,110.42,119.88Z" style="fill:#4a435b"/><path d="M65.38,263.94l.78.75a34,34,0,0,1,2.23,5.37c.61,2.67-1,4.7-3.71,5.4a2.4,2.4,0,0,1-2.65-.77,8.79,8.79,0,0,1-1.72-2.88A20,20,0,0,1,59.7,267c0-3.14,1.46-4.16,4.8-3.46A3.94,3.94,0,0,1,65.38,263.94Zm-1,3.54a18.6,18.6,0,0,0-1,2,1.71,1.71,0,0,0,1,2.27c.32.05,1.06-.45,1-.61A31.31,31.31,0,0,0,64.34,267.48Z" style="fill:#4a435b"/><path d="M74.63,272.36a4.51,4.51,0,0,0,.93-.22c1.77-.83,3.43-.82,4.86.67a5.47,5.47,0,0,1,1.49,5.74,22.6,22.6,0,0,1-1.47,3l-1,.9a7.59,7.59,0,0,1-5.8-.39l-.1-.11-1.19-1.66c-.1-.94-.2-1.88-.31-2.82A4.88,4.88,0,0,1,74.63,272.36Zm4.47,5.09c.11-1.39-.65-2.41-1.5-2.35-1,.07-1.23.87-1.33,1.67a4.77,4.77,0,0,0,.06,1.41,1.21,1.21,0,0,0,1.91.52A8.36,8.36,0,0,0,79.1,277.45Z" style="fill:#4a435b"/><path d="M111.43,150.25c.6-2.23,1.29-4.43,3.29-5.84a2.84,2.84,0,0,1,1.8-.56c2.9.44,4.86,4.32,3.45,6.82-1.25,2.2-2.89,4-5.61,4.29-1.57.26-2.25-.76-2.62-2A14.35,14.35,0,0,1,111.43,150.25Z" style="fill:#4a435b"/><path d="M179.68,167.5a2.1,2.1,0,0,1-1.75-2.34,17.93,17.93,0,0,1,.59-3.11c.24.9.5,1.78.69,2.69S179.52,166.58,179.68,167.5Z" style="fill:#706578"/><path d="M56.3,367.12c1.33,2,1.28,2.15-.81,3.11A3.31,3.31,0,0,1,56.3,367.12Z" style="fill:#2f2e3a"/><path d="M149.75,188.58a1.32,1.32,0,0,1,.89-.27Z" style="fill:#c3bbb2"/><path d="M30.67,358.91l-4.83-2.41c-.51-1.38-1-2.76-1.51-4.14-.19-2.71.33-5.09,2.85-6.66a3.42,3.42,0,0,1,4.75.54,7.84,7.84,0,0,1,2.43,5.1c-1.68,1.68-1.16,3.93-1.55,6Zm-.3-4c1.32-2.22,1.42-3.72-.48-5.34C29.27,351.3,28.68,352.73,30.37,354.87Z" style="fill:#4a435b"/><path d="M32.81,357.29c.39-2-.13-4.27,1.55-6C35.59,354.5,35.32,355.53,32.81,357.29Z" style="fill:#5d536c"/><path d="M54.79,376.07c.73.77.57,1.4-.31,1.91C54.58,377.34,54.69,376.7,54.79,376.07Z" style="fill:#4a435b"/><path d="M168.52,487.62l-.45,2C167.26,488.75,167.58,488.12,168.52,487.62Z" style="fill:#706578"/><path d="M172.74,481.22l-1.72.26Z" style="fill:#706578"/><path d="M135.22,600.51a12.69,12.69,0,0,1-6,9,3.3,3.3,0,0,1-4.48-.44,20.85,20.85,0,0,1-3.19-4.3c-1.33-2.52.07-7.42,2.52-9.31a35.33,35.33,0,0,1,3.32-2.06,4,4,0,0,1,5,.53A8,8,0,0,1,135.22,600.51Zm-8.1,5.79a7,7,0,0,0,4.17-4.06,4.85,4.85,0,0,0-.53-5.08,1.35,1.35,0,0,0-2.09.16,4.84,4.84,0,0,0-.51,1.85c.06,1.71-1.15,2.14-2.37,2.66-.22.09-.3.52-.59,1.09Z" style="fill:#5d536c"/><path d="M148.07,586.23c-.25,2.89-3.56,6.31-6.45,6.52A4.51,4.51,0,0,1,137.3,591c-2.44-3.32-1.82-11.51,3.29-13.68,2.19-.92,3.71-.76,5.21,1.07A12.74,12.74,0,0,1,148.07,586.23Zm-5.23-6a17.27,17.27,0,0,0-1.13,1.6c-.22.43-.26.95-.5,1.36a24.11,24.11,0,0,0-1.51,2.45,2.67,2.67,0,0,0,1.39,3.24,2.55,2.55,0,0,0,2.79-1.44C145.11,585.09,144.79,582.86,142.84,580.26Z" style="fill:#5d536c"/><path d="M160.66,568.67c0,3.19-2.09,5-4.5,6.5a4,4,0,0,1-6.12-2.62,2.49,2.49,0,0,1-.16-1c.54-4.31,1.85-8.29,5.67-10.85a3,3,0,0,1,4.76,2.09,32.07,32.07,0,0,1,.33,3.4C160.69,567,160.65,567.86,160.66,568.67Zm-3.11-.39a6.51,6.51,0,0,0,0-1.68c-.17-.42-.41-1-.76-1.1a1.46,1.46,0,0,0-1.27.32,5.17,5.17,0,0,0-1.57,4.41,1.5,1.5,0,0,0,.79,1.06A1.35,1.35,0,0,0,156,571,30.3,30.3,0,0,0,157.55,568.28Z" style="fill:#5d536c"/><path d="M192.43,516.36l1.83,3.52.3,3.08c0,.62-.07,1.23-.1,1.85-1,2-1.87,4.11-3.86,5.46-1.11.76-2.23,1.5-3.55.87a4.1,4.1,0,0,1-2.67-3.73,13.7,13.7,0,0,1,4-10.07C189.57,516.16,191,516.22,192.43,516.36Zm-3.51,10.16c1.94-2.15,1.94-2.15.78-4.37C188.62,523.51,188.15,524.8,188.92,526.52Z" style="fill:#5d536c"/><path d="M172.12,550.54c-.84,2.8-2,5.83-4.39,8.15a3.2,3.2,0,0,1-5.27-.93,6.15,6.15,0,0,1-.23-5.18,48.23,48.23,0,0,1,2.16-4.88c1-2.07,2.81-3,4.7-2.45a4.28,4.28,0,0,1,3.06,4.44C172.15,549.86,172.14,550,172.12,550.54Zm-2.77-.17c-2.32.16-3.32.93-3.79,2.17a2.61,2.61,0,0,0,.14,2.21c.75.74,1.46-.09,1.86-.76C168.12,553.06,168.53,552.05,169.35,550.37Z" style="fill:#5d536c"/><path d="M182.79,537.44c-.28,2.63-.7,4.88-2.34,6.66a4.3,4.3,0,0,1-6.49.25,3.44,3.44,0,0,1-1-3.57,54.3,54.3,0,0,1,2.13-6,4.52,4.52,0,0,1,3.45-2.49,3.55,3.55,0,0,1,4.23,3A20.76,20.76,0,0,1,182.79,537.44Zm-3.82.37c-1.58.12-2,1.33-2.28,2.55a1.24,1.24,0,0,0,.58,1.07,1.38,1.38,0,0,0,1.15-.48A2.71,2.71,0,0,0,179,537.81Z" style="fill:#5d536c"/><path d="M197,506.19l-3,3.38a2.56,2.56,0,0,0-.48.1c-2.38,1.07-4.46.67-6-1.44-1.16-1.56-.34-4.81,1.59-6.58a7.66,7.66,0,0,1,4.65-2.41c2.62-.18,4.38,1.53,4.09,4.15A16.84,16.84,0,0,1,197,506.19Z" style="fill:#5d536c"/><path d="M148.83,240c-2.63,1.47-5.56,1.68-8.47,1.89-2.42.17-4.85.22-7.29.32,0-1.64,0-3.28,0-4.92l.1,0,1.87-.79,11.57-2a21.69,21.69,0,0,0,2.39-.53,3.07,3.07,0,0,0,2.33-4.13c-.48-1.71-1.22-3.37-1.57-5.12a13.56,13.56,0,0,1,0-3.87,3,3,0,0,1,2-2.54,2.26,2.26,0,0,1,1.7.4,2,2,0,0,1,.61,1.29c.49,3.22,1.34,6.46,1.29,9.68a12.55,12.55,0,0,0,3.84,9.19l1.49,1.57c-.51,1.5-2.7,2-2.58,3.84a42.46,42.46,0,0,0,.13,4.38c1.27,7.09,1.14,14.28,1.69,21.43a4.22,4.22,0,0,1-2.2,4.47,5,5,0,0,0-.17-1.42,26.08,26.08,0,0,1-1.7-9.4c-.12-3.12.26-6.49-1.67-9.35,0-1,0-2.07.05-3.1.78-2.73.11-5.42-.39-8.08-.1-.51-.82-.91-1.26-1.36a1,1,0,0,0-.11-.69,6.41,6.41,0,0,0,.07-2.3,2.74,2.74,0,0,0-1.49-1.52c-1-.36-1.79.25-2.12,1.28A9,9,0,0,0,148.83,240Z" style="fill:#a22818"/><path d="M154.28,254.34c1.93,2.86,1.55,6.23,1.67,9.35a26.08,26.08,0,0,0,1.7,9.4,5,5,0,0,1,.17,1.42c-.46,0-1,.19-1.32,0a4.59,4.59,0,0,1-1.66-3.82c-.16-3.84-.49-7.67-.67-11.51C154.1,257.56,154.24,255.94,154.28,254.34Z" style="fill:#706578"/><path d="M173.71,238.63c-.15.24-.3.86-.64,1a30.16,30.16,0,0,1-5,1.62c-.51.1-1.4-.68-1.76-1.27-.21-.34.15-1.26.52-1.66a6.33,6.33,0,0,1,4.75-2A2.17,2.17,0,0,1,173.71,238.63Z" style="fill:#a22818"/><path d="M152.68,241.8c.44.45,1.16.85,1.26,1.36.5,2.66,1.17,5.35.39,8.08-.36-.31-1-.58-1-.93C152.92,247.49,152,244.7,152.68,241.8Z" style="fill:#706578"/><path d="M148.83,240a9,9,0,0,1,.2-1.38c.33-1,1.11-1.64,2.12-1.28a2.74,2.74,0,0,1,1.49,1.52,6.41,6.41,0,0,1-.07,2.3Z" style="fill:#2f2e3a"/><path d="M133.11,237.24c0,1.64,0,3.28,0,4.92-1.31-.13-2.1-.76-2.08-2.18S131.45,237.41,133.11,237.24Z" style="fill:#706578"/><path d="M135.08,236.41l-1.87.79Z" style="fill:#706578"/><path d="M50.7,415.29c-.59,2.53-1.17,5.07-1.78,7.6A7.29,7.29,0,0,1,45,428c-.55-.82-1.36-1.5-1.5-2.3-.74-4.44,1.07-8,4.43-10.73.63-.52,1.83-.34,2.76-.48A6.77,6.77,0,0,0,50.7,415.29Z" style="fill:#a22818"/><polygon points="47.79 386.23 48.03 386.54 47.77 386.25 47.79 386.23" style="fill:#4a435b"/><path d="M75.37,444.71c.27.13.76.23.78.39a10,10,0,0,1,0,2.19,1,1,0,0,1-.8.19c-.84-.41-1-1.46-.33-2.45A1.8,1.8,0,0,1,75.37,444.71Z" style="fill:#b0a79c"/><path d="M149.53,431.49c.53-4.31,2.39-7.26,3.78-10.38a2.42,2.42,0,0,1,3.48-.54c5.05,4.9,9.21,10.29,8.48,17.92a13.82,13.82,0,0,1-1.14,4.23,4.61,4.61,0,0,1-5.65,2.78c-4.06-1-7.3-3-8.11-7.52C149.93,435.58,149.73,433.14,149.53,431.49Zm9.81,9.95a2.18,2.18,0,0,0,2.59-1.7c1-4.47.28-8.42-3.73-11.25l-1.36-1.21-1-1.34-1.15,1.24c-.26,2.55-.64,5.09-.74,7.65C153.8,438.7,155.16,440.27,159.34,441.44Z" style="fill:#4a435b"/><path d="M156.84,427.28l1.36,1.21a30.81,30.81,0,0,0,1.35,4.07,8.48,8.48,0,0,1,.57,6.11c-.25.93-.52,1.85-.78,2.77-4.18-1.17-5.54-2.74-5.38-6.61.1-2.56.48-5.1.74-7.65Z" style="fill:#a22818"/></g></svg>