<svg xmlns="http://www.w3.org/2000/svg" width="366" height="553" viewBox="0 0 366 553">
  <title>fairemain</title>
  <g id="Layer_15" data-name="Layer 15">
    <path d="M366.24,251.15l-9.42-.18c-1.27,0-2.62-.51-3.72.59,1.92.31,3.83.64,5.76.91,1.29.17,2.63.17,3.54,1.33a13.06,13.06,0,0,0,3.52.64Z" style="fill: #5d536c"/>
    <path d="M.61,174.6c.69-3.51,1.22-7.06,2.11-10.52A69,69,0,0,1,9.8,147a40.72,40.72,0,0,0,1.78-4l0-1.38c1.66-.35,2.21-1.82,3-3q5.48-8.43,10.9-16.88c.32-.59.63-1.18.94-1.77a15.46,15.46,0,0,0,2.36-1.68c1.8-1.84,3.52-3.78,5.26-5.68l1-.78a37.49,37.49,0,0,0,3.81-.85,37.31,37.31,0,0,1,14.54-1.67q7.84.49,15.68.91a29.64,29.64,0,0,0,4.42,0,14.65,14.65,0,0,0,9.28-3.92c3.14-3.05,3.14-6.62-.37-9.08a40.53,40.53,0,0,0-4.29-2.38c-4.33-2.31-8.8-4.4-12.52-7.7a14.09,14.09,0,0,1-2.91-3.22,54.09,54.09,0,0,1-3.51-7c-3.59-8.84-5.61-17.81-1.49-27.09.2-.45.26-1,.49-1.39,1.61-3,3.12-6.11,4.9-9,2.12-3.48,5.53-4.42,9.37-4a14.61,14.61,0,0,1,3.81.91c3.49,1.4,7,2.76,10.36,4.46,5.68,2.89,11.27,6,16.85,9.09A26,26,0,0,0,117.69,53c4.57-.2,9.17-.43,13.73-.18,6.87.38,13.72,1,20.56,1.81a97.39,97.39,0,0,1,10.11,1.94c4.79,1,9.53,2.4,14.35,3.26a38.59,38.59,0,0,1,9.37,2.78,25.34,25.34,0,0,0,6,1.94,7.21,7.21,0,0,0,8.47-6.22c.22-1.28.21-2.61.33-3.91.43-4.73.76-9.47,1.34-14.18s2.74-8.73,5.22-12.6c1.71-2.64,3.67-2.52,5.21.32a42.23,42.23,0,0,1,2.87,6.75c.91,2.8,1.45,5.72,2.32,8.53a12.69,12.69,0,0,0,1.95,3.89,4,4,0,0,0,6.07.52,19,19,0,0,0,2.78-3.4c.83-1.21,1.49-2.52,2.23-3.79l2.8.25c-.61,4.34-3.46,7.34-6.42,10.15-2.28,2.17-6,2-8.62.05a9.83,9.83,0,0,1-3.58-5.16c-.42-1.41-.65-2.88-1.07-4.29-.84-2.82-1.71-5.63-2.69-8.41a1.93,1.93,0,0,0-1.45-1c-.51,0-1.1.55-1.52,1a4.87,4.87,0,0,0-.62,1.32,34.08,34.08,0,0,0-3.12,16.22,30,30,0,0,1-1.14,10.2,10.16,10.16,0,0,1-12.38,6.93,55.51,55.51,0,0,1-6.89-2.58,33.24,33.24,0,0,0-7-2.14c-4.5-.79-9-1.87-13.42-2.85-3.67-.8-7.3-1.89-11-2.4a167.06,167.06,0,0,0-34.26-1.71A28.53,28.53,0,0,1,103,53.25c-4.8-2.47-9.5-5.13-14.24-7.7-2.45-1.33-4.85-2.74-7.36-3.93A27.52,27.52,0,0,0,72,38.91a6,6,0,0,0-5.64,2.3c-4.17,5.43-7.16,11.43-7.3,18.4A38.69,38.69,0,0,0,65.14,81a17.07,17.07,0,0,0,5.39,5.63c2.5,1.55,5,3,7.62,4.46,1.86,1,3.95,1.66,5.74,2.78,6,3.73,6.43,8.23,3.09,13.23a8.72,8.72,0,0,1-4.8,4l-4.53,1.3-1.3.2a4.22,4.22,0,0,0-.94,0,47.56,47.56,0,0,1-10.26.1C60.09,112.41,55,112.1,50,112c-7.22-.14-13.49,2.21-18.41,7.65-1.43,1.57-2.81,3.19-4.08,4.89a226.13,226.13,0,0,0-13.21,20,85.1,85.1,0,0,0-8.42,18.73,60.15,60.15,0,0,0-1.44,31.44,27.65,27.65,0,0,0,3.31,10.72,23.73,23.73,0,0,0,3.14,4.36,2.35,2.35,0,0,0,2.64.85l0-.06a2.25,2.25,0,0,0,1.91,2.8c2.29.53,4.66.75,7,1.1l1.73.08c2.17-.16,4.48.45,6.38-1.17l1.75-.44a51.57,51.57,0,0,0,5.46-2.15,75,75,0,0,0,18-13.47,148,148,0,0,1,14.53-13.24,26.53,26.53,0,0,1,4.5-3c5.59-2.71,8.25-2,12.4,2A46,46,0,0,1,93,191a19.26,19.26,0,0,1-.54,23.39,91.51,91.51,0,0,1-13.62,14.8,124.4,124.4,0,0,0-25.5,32.24,37.12,37.12,0,0,0-4.45,14.45c-.39,3.82.47,7.51.81,11.25,1,10.59,4.35,20.48,8.8,30,3.86,8.28,10.68,12.63,19.49,14a47.53,47.53,0,0,0,9.31.45,121.89,121.89,0,0,0,30.84-5.76c5.94-1.85,11.92-3.62,18-5.16a24.13,24.13,0,0,1,15,.68,9.4,9.4,0,0,1,3.95,2.78,16.18,16.18,0,0,1,3.78,10.43,94.22,94.22,0,0,1-.41,13.24,92.52,92.52,0,0,0,.73,26.43,70.88,70.88,0,0,0,9.43,26.19c2.85,4.66,6.32,8.83,11.43,11.19,11.19,5.17,22.15,5.22,32.81-1.55a70.14,70.14,0,0,0,14.62-12.31c5.41-6,10.08-12.5,12.38-20.42.79-2.85,1.59-5.7,2.38-8.55.68-2.28,1.35-4.56,2-6.84a30.44,30.44,0,0,0,1.26-4.22A29.08,29.08,0,0,1,253,342.62c2.44-2.71,5.38-4.21,9.05-3.73,3.88.51,7.77,1.09,11.59,1.95a29.07,29.07,0,0,1,7.83,2.71c5.1,2.87,10.12,2.51,15,0,4.16-2.17,8.36-4.46,11.15-8.52a6.4,6.4,0,0,1,1.38-1.37c5.8-4.42,10.11-10.08,13.87-16.25,1.52-2.5,3.35-4.8,5-7.18.47.58.93,1.17,1.4,1.76-1.22,2.21-2.42,4.42-3.67,6.61-.94,1.65-1.94,3.26-2.92,4.88-.34.64-.67,1.29-1,1.94a4.24,4.24,0,0,0-.79.58A145.49,145.49,0,0,1,305,342a13.83,13.83,0,0,0-1.92,2.72l-.11-.06c-2.62-.12-4.42,1.78-6.57,2.77a16.14,16.14,0,0,1-12.25.84c-1.23-.4-2.47-.76-3.7-1.14l-3.87-1.9-2-.42c-3.85-.73-7.7-1.43-11.54-2.18a7.82,7.82,0,0,0-6.45,1.56,18.78,18.78,0,0,0-6.95,9.84c-1.42,4.69-2.71,9.42-4.06,14.13-.71,2.52-1.42,5-2.14,7.55a62.16,62.16,0,0,1-5.91,14l-9.25,11.95,0,.14c-1.71.17-2.48,1.49-3.32,2.72l-7.18,5.94-3.24,2-1,.68c-2.07.91-4.1,1.94-6.22,2.73-5.9,2.2-11.9,3.13-18.18,1.54-3-.76-6.1-1-8.94-2.36s-5.67-2.35-7.6-5a11,11,0,0,0-2.74-2c-1-1.62-1.86-3.28-2.9-4.84a25.1,25.1,0,0,0-2.13-2.48L160,389.39q-1.81-7.09-3.61-14.2l-.69-4.95-.51-3.94a15.87,15.87,0,0,0,0-2.92c-.94-5.55.13-11,.64-16.49a55.65,55.65,0,0,0,.22-12.17,19.08,19.08,0,0,0-.59-2.34c-.53-1.8-.31-4-2.51-4.94a3.4,3.4,0,0,0-2.42-2.83,16.84,16.84,0,0,0-8.58-1.73,70.71,70.71,0,0,0-9.19,1.51c-4.76,1.2-9.48,2.58-14.16,4.1-9.56,3.09-19.41,4.57-29.34,5.86a41.38,41.38,0,0,1-16.43-1.43,25.74,25.74,0,0,1-17.23-15,156.9,156.9,0,0,1-6.55-19A90.88,90.88,0,0,1,46.19,281a31.58,31.58,0,0,1,3.21-17.66c4.84-9.31,10.11-18.39,17.22-26.22,1.54-1.7,3.11-3.36,4.67-5l-.1-.21a2.86,2.86,0,0,0,.9-.35,115.11,115.11,0,0,0,16.49-16.69,28.76,28.76,0,0,0,3.91-6.74,14.27,14.27,0,0,0,.13-11.47,39.67,39.67,0,0,0-7.77-11.24,7.24,7.24,0,0,0-8.95-1.56,18.21,18.21,0,0,0-4.13,2.6c-4.66,4.09-9.23,8.28-13.8,12.47a6.5,6.5,0,0,0-1,1.67l0,0c-2.44,1.88-4.81,3.86-7.35,5.6a141.41,141.41,0,0,1-12.26,8c-6,3.27-12.68,4-19.46,3.58l-1.83-.4c-3.1-1.46-6.08-3.11-8.1-6a35.37,35.37,0,0,1-4.79-9A58.28,58.28,0,0,1,.4,184.22c0-1.61-.2-3.22-.31-4.84C.27,177.79.44,176.19.61,174.6Z" style="fill: #706578"/>
    <path d="M338.64,258.91q1.61,3.42,3.22,6.82a55.52,55.52,0,0,1,2.1,5.5,21.16,21.16,0,0,1-.07,11.65c-1.95,6.61-4,13.14-8.65,18.54-1.56,1.79-2.34,4.28-3.39,6.49-.7,1.46-1,3.16-2.55,4.07-.47-.59-.93-1.18-1.4-1.76.71-1.83,1.33-3.7,2.14-5.48a29.53,29.53,0,0,1,3.14-6.07c4.06-5.15,6-11.2,7.8-17.32.06-.33.13-.66.19-1l.2-2.91,0-1c.3-2.68-.76-5-1.69-7.47-1.09-2.85-2-5.79-2.92-8.7Z" style="fill: #5d536c"/>
    <path d="M349.81,251.44l3.29.12c1.92.31,3.83.64,5.76.91,1.29.17,2.63.17,3.54,1.33-3.56,0-7.12-.06-10.68.07-3.39.13-6.79.35-10.16.78-3,.38-3,.53-2.93,4.26-.62.46-1.26.92-1.89,1.37l-1.45-2.16c-2-2.69-3-3-6.73-1.77l-5.5-.2a57.44,57.44,0,0,0-6.65-.52c-1.93.07-2.89,1.19-3,3.11a14,14,0,0,0,.62,3.19c.3,1.52.61,3,.91,4.57l.54,5c.28,1.17.57,2.33.85,3.5l.39,2.06.27,2.2-.62,6.5c-1.14,1.08-2,2.76-3.9,2.45-2.82-.44-5.41.51-8.07,1.13l-7.78.78-2.18.22-11.81,1.43-2.15.33-15.39,1.42a1.52,1.52,0,0,0-.45.16,28.11,28.11,0,0,0-4.86.05,10.49,10.49,0,0,1-6.62-.86,20.81,20.81,0,0,0-9-1.9,33.27,33.27,0,0,0-15.35-2.37q-9.26.85-18.52,1.39c-9.61.55-19.2,1.37-28.78-.34-2.41-.43-4.86-.63-7.26-1.1A40.34,40.34,0,0,0,164,288a6.89,6.89,0,0,0-2.64,1,11.81,11.81,0,0,0-1.77,1.39,5.54,5.54,0,0,1-3.14-2.55c-1-1.3-2-2.53-3-3.79-.18-1.6-.34-3.21-.54-4.81-.42-3.4-1.16-6.79-1.24-10.19a139.11,139.11,0,0,1,.45-14.72,83,83,0,0,0-.33-17.62c-1-7.63-2.27-15.21-3.45-22.81a15.08,15.08,0,0,0-.56-2.39c-1.87-5.84-2.24-11.92-2.44-18a226,226,0,0,1,1.55-33.81,141.66,141.66,0,0,0,.46-26c-.15-2.44-.55-4.87-.73-7.32a2.69,2.69,0,0,1,2.84-3.19c.81,0,1.63.11,2.45.12,6.7,0,13.38.83,20.1.44a114.38,114.38,0,0,1,13.73-.11c8,.48,16,.2,24,0a38.07,38.07,0,0,0,6.84-.6c7.52-1.55,15-3.28,22.51-4.92a5.62,5.62,0,0,0,4.47-3.41,5.69,5.69,0,0,1,1.68.22,7,7,0,0,1,1.44,1.14c.26,1.3.51,2.6.77,3.89l-3.92,1.9a7.5,7.5,0,0,0-6.2.65l-8.93,2.46-2.22.35-3.74.5-2.08.33-6.18.91-6.76.18a8,8,0,0,0-5,.11l-10.93.47c-2.94-.3-5.86-1.13-8.84-.33l-5.86-.18h-6l-7.85-.14c-3.94-.64-7.72.23-11.63.94a16.65,16.65,0,0,0-.37,7.43,34.62,34.62,0,0,1,.43,6.33c-.55,7.18-1.25,14.35-2,21.51a186,186,0,0,0-.11,39.68,39.26,39.26,0,0,0,1.48,5.63,1.6,1.6,0,0,0,.14.94,3.16,3.16,0,0,0,.84,3c.32,1.78.65,3.56,1,5.34a78.75,78.75,0,0,0,.89,8.72,94.33,94.33,0,0,1,1.84,17.95c.14,8,0,15.94-.21,23.9-.12,4.32,1.27,8.34,1.93,12.5a2.42,2.42,0,0,0,2.68,2.29l11.7,1.29,4.85.66c1.83,1.22,3.86,1.16,5.92.94l6.73.61a9.18,9.18,0,0,0,6,.33l12.76-.37,2.11-.21,2.9-.22a3.12,3.12,0,0,0,3.07-.22l3.87-.09a2.88,2.88,0,0,0,3.07-.32l5.92-.92,2.11-.23,3.84.43a2.9,2.9,0,0,0,3,.7l6.71,1.18a8,8,0,0,0,4.92,1.06l4.79.82c1.6,1.43,3.6,1.4,5.55,1.49,6.24.3,12.39-.8,18.54-1.5,4.54-.51,9-1.5,13.53-2.32a15.94,15.94,0,0,0,2.28-.74l1.89-.09a4.89,4.89,0,0,0,4.07-.39c3.34.62,6.38-.61,9.44-1.6.52-.17.85-.9,1.27-1.38a4.15,4.15,0,0,0,1.31-3.86c.13-.79.26-1.58.4-2.37a2.49,2.49,0,0,0-.4-2.54c0-1.77,0-3.54.05-5.31a13.87,13.87,0,0,0-1.71-8.69l-.06-2.44a4.85,4.85,0,0,0-1.12-4.55l.17-2a13.69,13.69,0,0,1,3.31.67c5.12,2.43,10.65,2.67,16.13,3.12a20.6,20.6,0,0,0,4.82-.34c4.79-.75,9.52-1.91,14.42-1.85C348.68,252.28,349.25,251.73,349.81,251.44Z" style="fill: #4a435b"/>
    <path d="M243.61,114.86a5.62,5.62,0,0,1-4.47,3.41c-7.5,1.64-15,3.37-22.51,4.92a38.07,38.07,0,0,1-6.84.6c-8,.18-16,.46-24,0a114.38,114.38,0,0,0-13.73.11c-6.72.39-13.4-.39-20.1-.44-.82,0-1.64-.15-2.45-.12a2.69,2.69,0,0,0-2.84,3.19c.18,2.45.58,4.88.73,7.32a141.66,141.66,0,0,1-.46,26,226,226,0,0,0-1.55,33.81c.2,6,.57,12.11,2.44,18a15.08,15.08,0,0,1,.56,2.39c1.18,7.6,2.46,15.18,3.45,22.81a83,83,0,0,1,.33,17.62,139.11,139.11,0,0,0-.45,14.72c.08,3.4.82,6.79,1.24,10.19.2,1.6.36,3.21.54,4.81-.53.55-1.38,1-1.51,1.66a2.68,2.68,0,0,0,.79,2.07c.7.7,1.57,1.22,1.52,2.35-.15,3,1.81,4,4.29,4.27a32.11,32.11,0,0,0,4.89.3c4.23-.12,8.47-.27,12.69-.59a45.69,45.69,0,0,1,9.28-.09,19.26,19.26,0,0,0,2.93-.12,40.2,40.2,0,0,1,4.39-.08c4.55.35,9.07.81,13.68.32,5.34-.57,10.72-.84,16.08-1,4.56-.15,9.12,0,13.62-1a12.81,12.81,0,0,1,3.41.2,10.25,10.25,0,0,0,2.92.05c.66-.17,1.15-1,1.72-1.49a20.81,20.81,0,0,1,9,1.9,10.49,10.49,0,0,0,6.62.86,28,28,0,0,1,4.85-.05c-.63,2.48,1.35,4.12,2,5.86-.4,2-.73,3.75-1.06,5.47a5.29,5.29,0,0,0-3,4.17,7.69,7.69,0,0,0,.67,3.73c1.84,4.81,5.12,7.8,10.54,7.88a3.61,3.61,0,0,0,1.49,2.95c1.33.92,2.65,1.87,4.07,2.89,2.95-1,5.83-2.12,8.75-3.08a6.24,6.24,0,0,1,2.87-.41c3.05.55,6.08,1.23,9.08,2a2.42,2.42,0,0,1,1.37,3.59,8.89,8.89,0,0,1-3.25,3.58c-2.76,1.83-5.92,2.71-8.85,4.11s-5.69,1-8.45-.32a16.13,16.13,0,0,1-2.1-1.28c-1.6-1.12-3.16-1.5-5-.33a8.2,8.2,0,0,1-8,.49c-2-.87-4.08-.73-6.25-.59-3.66.25-6.49,1.93-9.27,4.06a11.19,11.19,0,0,0-4.39,5.69,20.59,20.59,0,0,1-3.4,7c-1.78,2.27-1.07,8.18.94,10.5.19.22.58.28.88.41-.68,2.28-1.35,4.56-2,6.84-2.05-.21-3.42.56-3.72,2.71a36.76,36.76,0,0,0-.31,3.79,2.09,2.09,0,0,0,1.65,2.05c-2.3,7.92-7,14.41-12.38,20.42a70.14,70.14,0,0,1-14.62,12.31c-10.66,6.77-21.62,6.72-32.81,1.55-5.11-2.36-8.58-6.53-11.43-11.19a70.88,70.88,0,0,1-9.43-26.19,92.52,92.52,0,0,1-.73-26.43,94.22,94.22,0,0,0,.41-13.24,16.18,16.18,0,0,0-3.78-10.43,9.4,9.4,0,0,0-3.95-2.78,24.13,24.13,0,0,0-15-.68c-6,1.54-12,3.31-18,5.16a121.89,121.89,0,0,1-30.84,5.76,47.53,47.53,0,0,1-9.31-.45c-8.81-1.35-15.63-5.7-19.49-14-4.45-9.56-7.82-19.45-8.8-30-.34-3.74-1.2-7.43-.81-11.25a37.12,37.12,0,0,1,4.45-14.45,124.4,124.4,0,0,1,25.5-32.24,91.51,91.51,0,0,0,13.62-14.8A19.26,19.26,0,0,0,93,191a46,46,0,0,0-5.8-7.89c-4.15-4.05-6.81-4.72-12.4-2a26.53,26.53,0,0,0-4.5,3A148,148,0,0,0,55.8,197.35a75,75,0,0,1-18,13.47A51.57,51.57,0,0,1,32.29,213c.3-1.23.3-2.67,1-3.65,1.31-1.93,1.25-3.87.88-5.95A44.6,44.6,0,0,0,47.29,193.3q12.32-13,24.21-26.33c6.09-6.84,13-12.4,21.66-15.52,2.15-.77,4.31-1.52,6.46-2.3,1.79-.65,2.79-2.38,1.78-3.83-2.68-3.87-3.46-8.44-4.93-12.73a91.81,91.81,0,0,1-2.21-9.51c-.22-1-.46-1.89-.68-2.83.14-1.93.34-3.86.4-5.8a1.71,1.71,0,0,0-2.29-1.7,5.24,5.24,0,0,0-1.82.64c-1.63,1.28-3.28,1-5,.38a11.77,11.77,0,0,0-2.38-.33c-.09-.77-.19-1.54-.28-2.31a8.71,8.71,0,0,0,4.81-4c3.34-5,2.86-9.5-3.09-13.23-1.79-1.12-3.88-1.76-5.74-2.78-2.59-1.41-5.12-2.91-7.62-4.46A17.07,17.07,0,0,1,65.14,81,38.69,38.69,0,0,1,59,59.61c.14-7,3.13-13,7.3-18.4A6,6,0,0,1,72,38.91a27.52,27.52,0,0,1,9.39,2.71c2.51,1.19,4.91,2.6,7.36,3.93,4.74,2.57,9.44,5.23,14.24,7.7a28.53,28.53,0,0,0,15.28,2.8,167.06,167.06,0,0,1,34.26,1.71c3.71.51,7.34,1.6,11,2.4,4.47,1,8.92,2.06,13.42,2.85a33.24,33.24,0,0,1,7,2.14,55.51,55.51,0,0,0,6.89,2.58,10.16,10.16,0,0,0,12.38-6.93,30,30,0,0,0,1.14-10.2,34.08,34.08,0,0,1,3.12-16.22,4.87,4.87,0,0,1,.62-1.32c.42-.44,1-1,1.52-1a1.93,1.93,0,0,1,1.45,1c1,2.78,1.85,5.59,2.69,8.41.42,1.41.65,2.88,1.07,4.29A9.83,9.83,0,0,0,218.4,51c2.62,2,6.34,2.12,8.62-.05,3-2.81,5.81-5.81,6.42-10.15,1-1,.89-2.78,2.65-3.37a5.32,5.32,0,0,1,.55,1.38c.16,2.92.29,5.85.37,8.78.18,6.5.36,13,1.81,19.4,2.08,9.2,4.31,18.37,5.17,27.79a1.35,1.35,0,0,0,.19.45l.15,7.88a1.46,1.46,0,0,0-.07,2l-.21,5.81C243.91,112.2,243.76,113.53,243.61,114.86Zm-19-11.7a20.25,20.25,0,0,0-.2,2.89,2.13,2.13,0,0,0,.77,1.57,1.83,1.83,0,0,0,1.7-.36c1.34-1.43,2.38-3.15,3.8-4.48a7.2,7.2,0,0,0,2.39-4.66c.17-1.62.45-3.23.49-4.85q.26-9.08.36-18.14c0-3.92.12-7.84,0-11.76-.08-2.16-1.49-3.14-3.64-3.07a5.11,5.11,0,0,0-3.55,1.44c-.92.93-1.72,2-2.67,2.87a29.31,29.31,0,0,1-3.69,3.19,2.41,2.41,0,0,1-3.84-1.51c-.36-1.25-.46-2.57-.75-3.85a6.76,6.76,0,0,0-.71-1.77,1.41,1.41,0,0,0-2.41.08,44.47,44.47,0,0,0-1.39,5.18c-1,4.81-1.83,9.63-2.76,14.44-.74,3.86-2.84,6.16-7,6.09a2.76,2.76,0,0,0-.91.32c-3.76-.16-7.51-.33-11.27-.48a16.35,16.35,0,0,1-9.62-3.24c-3.52-2.68-7.08-5.3-10.57-8-2.79-2.16-5.78-3.94-9.39-3.7a68.3,68.3,0,0,0-10.17,1.48,13.9,13.9,0,0,0-7.74,5c-2.18,2.66-4.37,5.33-6.41,8.1a16.54,16.54,0,0,0-3,14.41,30.22,30.22,0,0,1,1.05,5.79c.3,6.28-7,11.55-13,9.5-4.22-1.46-6.08-4.85-6.88-8.86a33.24,33.24,0,0,1-.34-6.85,36.21,36.21,0,0,1,2.5-12,23.18,23.18,0,0,0,1.31-9.68c-.34-4.41-3.62-6.71-7.9-5.66A19.18,19.18,0,0,0,105.57,74c-.73.35-1.35.93-2.06,1.33-1.39.76-2.41.51-3.37-.86-.56-.8-.91-1.76-1.5-2.53a16.7,16.7,0,0,0-3.23-3.65,30.23,30.23,0,0,1-6.52-6.6,44.51,44.51,0,0,0-5.47-5.6c-1.23-1.08-2.86-.57-3.82.81a6.53,6.53,0,0,0-.91,4.72c.53,4.44,1.56,8.65,4.83,12.08s6,6.92,9,10.4a20.28,20.28,0,0,1,4.13,7.74,112.24,112.24,0,0,1,4.75,28,33.16,33.16,0,0,0,5.49,17.6,7.66,7.66,0,0,0,4.52,3.54c5.58,1.48,11,1.43,16.15-1.62A41.16,41.16,0,0,0,142,125.58q5.4-8.79,11-17.49a31.68,31.68,0,0,1,3.26-4.29,9.55,9.55,0,0,1,2.65-1.4c1.47,2.54,2,5.12,3.09,7.49,1.71,3.93,4.58,6.36,8.92,6.75,6,.54,11.78-.1,17.18-3,2.45-1.32,4.85-2.76,7.38-3.91,4.95-2.26,10-4.23,15.59-3.9a20,20,0,0,0,11.36-2.45A5.88,5.88,0,0,1,224.65,103.16Zm-87.94,69.2a67.13,67.13,0,0,0-.14-6.8c-.62-5.54-4.65-8.84-10.1-8.23a94.94,94.94,0,0,0-11.15,1.84c-4.94,1.17-10,2-14.65,4.11-3.44,1.53-6.89,3-10.33,4.55a6.65,6.65,0,0,0-.85.49c-1.57,1-1.64,2.52,0,3.47,5.23,3,9.12,7.42,12.91,12a16,16,0,0,1,2.58,4.14,43,43,0,0,1,1.33,29.81,12.35,12.35,0,0,1-6.12,7.32c-3.54,2-7,4.24-10.36,6.57A35.24,35.24,0,0,0,79.37,242.5,19,19,0,0,0,77.51,247a1.91,1.91,0,0,0,2.43,2.2c1.39-.45,2.69-1.18,4.06-1.72,2.88-1.16,5.73-2.46,8.69-3.35,2.5-.74,4,.26,5.1,2.63A12.86,12.86,0,0,1,98.3,255c-1,4.91-3.9,8.21-8.93,9.34a38,38,0,0,1-4.85.79A40.56,40.56,0,0,0,75,267.48a14.94,14.94,0,0,0-8.19,6.68,55.77,55.77,0,0,0-5.36,12.11c-3.1,9.82,1.17,16.34,9,21.7a3.91,3.91,0,0,0,5-.34,15,15,0,0,0,2.64-2.88c1.09-1.62,2-3.38,3-5.08,2-3.4,3.81-6.89,6-10.17a27.23,27.23,0,0,1,12.6-10.6c2.5-1,4-.63,5.63,1.48a14.62,14.62,0,0,1,2.06,3.86c1,2.58.31,5.12-.39,7.7-1,3.68-2.94,6-6.91,6.66a28.33,28.33,0,0,0-6.44,2.3,6.68,6.68,0,0,0-3.76,4.86A17.36,17.36,0,0,0,91.5,318.6c2.3,4.39,5.45,7.35,10.81,7,1.14-.08,2.29.07,3.43,0,6.29-.5,11.4-2.9,14.18-9,.41-.89,1-1.7,1.39-2.6,2.37-5.58,5.22-11,6.92-16.79,2.14-7.23,4.59-14.32,7.23-21.37,1.2-3.21,1.73-6.65,2.71-9.95,1.77-6,3-12.09,2.44-18.41-.2-2.44-.34-4.9-.35-7.36a24.06,24.06,0,0,0-1.78-9.1,77.39,77.39,0,0,1-5.09-22.45,64.19,64.19,0,0,1,.1-9.3c.19-3.6.54-7.19.93-10.77.36-3.42.82-6.83,1.29-10.24C136,176.47,136.31,174.7,136.71,172.36ZM242.84,311.52a6,6,0,0,0-4.71-2.45c-5.54-.56-11.08-1.14-16.62-1.69-10.27-1-20.53-2.05-30.8-3-4.56-.41-9.15-.82-13.72-.84a159.63,159.63,0,0,1-17.63-1.05,7,7,0,0,0-2.41.1,1.88,1.88,0,0,0-.89,3.11c.33.35.72.66,1.08,1,3.58,3.34,7.14,6.72,10.78,10a39,39,0,0,0,5.32,4.31,27.35,27.35,0,0,1,10.3,12.19,11.81,11.81,0,0,1-.76,11.7c-.92,1.54-2.2,2.84-3.26,4.3a30.54,30.54,0,0,0-3.29,4.86c-3.45,7.45-6.29,15.07-6.79,23.43a59.51,59.51,0,0,0,1.36,15.6c.83,4,3.22,7.17,6.08,9.92,2.61,2.5,5.67,2.41,8.29-.16a7.82,7.82,0,0,0,2-3.29c.9-3.3,1.5-6.69,2.29-10s1.55-6.69,2.52-10a10.22,10.22,0,0,1,2-3.35,2.65,2.65,0,0,1,3.93-.48,7.53,7.53,0,0,1,2.32,2.46,46,46,0,0,1,1.61,5.11,43.64,43.64,0,0,0,2.1,6,5.86,5.86,0,0,0,5,3.49c5,.29,9.5-.85,12.57-5.15a29,29,0,0,0,3.68-6.33,72.12,72.12,0,0,0,4.25-18.12,14,14,0,0,0-2.49-10.27,13.74,13.74,0,0,1-2.34-11.65,41.79,41.79,0,0,1,8-17.77c2.73-3.46,5.81-6.65,8.73-10C241.79,312.92,242.24,312.28,242.84,311.52Z" style="fill: #c3bbb2"/>
    <path d="M244.24,362c-.3-.13-.69-.19-.88-.41-2-2.32-2.72-8.23-.94-10.5a20.59,20.59,0,0,0,3.4-7,11.19,11.19,0,0,1,4.39-5.69c2.78-2.13,5.61-3.81,9.27-4.06,2.17-.14,4.22-.28,6.25.59a8.2,8.2,0,0,0,8-.49c1.83-1.17,3.39-.79,5,.33a16.13,16.13,0,0,0,2.1,1.28c2.76,1.35,5.46,1.75,8.45.32s6.09-2.28,8.85-4.11a8.89,8.89,0,0,0,3.25-3.58,2.42,2.42,0,0,0-1.37-3.59c-3-.75-6-1.43-9.08-2a6.24,6.24,0,0,0-2.87.41c-2.92,1-5.8,2-8.75,3.08-1.42-1-2.74-2-4.07-2.89a3.61,3.61,0,0,1-1.49-2.95l16.44-2.5a11.88,11.88,0,0,1,1.46-.18c6.43-.17,12.56-2,18.78-3.36a13.48,13.48,0,0,0,6.39-3.45,7.3,7.3,0,0,0,2.35-5.71,5.51,5.51,0,0,0-6.33-5.74,25.59,25.59,0,0,0-3.37.61c-3,.65-6.06,1.34-9.1,2-6.74,1.46-13.64,1.34-20.47,2-2.75.26-5.53.26-8.3.38a20.13,20.13,0,0,0,0-2.8c-.14-1.15-.8-1.63-2.15-1,0,1.29.05,2.66.07,4l-3.95,0c.33-1.72.66-3.43,1.06-5.47-.61-1.74-2.59-3.38-2-5.86a1.68,1.68,0,0,1,.46-.16l15.39-1.42c1.15,1.26,1.29,1.24,2.15-.33l11.81-1.43c1.12,1.4,1.28,1.38,2.18-.22l7.78-.78c.34.36.62.93,1,1,3.15.74,6.31,1.46,9.5,2a2.41,2.41,0,0,0,1.9-1.2c.83-1.81,1.3-3.74-.44-5.4.2-2.17.41-4.33.62-6.5,1.39-1.13,1.37-1.3-.27-2.2l-.39-2.06A2,2,0,0,0,318,273c.08-1.06,0-2.13.06-3.19l0-.16a3.54,3.54,0,0,0,.21-.94c0-1.93-.49-3.93-.13-5.78s1.54-3.83,2.36-5.73l1.73-.06c.53,1.45,1.26,2.66,3.06,2.63,2.26,0,4.51-.09,6.77-.11a2.28,2.28,0,0,0,2.25-1.52c.32,0,.65,0,1,0l1.45,2.16c1,2.91,1.83,5.85,2.92,8.7.93,2.43,2,4.79,1.69,7.47-.09.1-.28.22-.27.3a4.59,4.59,0,0,0,.29.69c-.07,1-.13,1.94-.2,2.91-.12.09-.35.17-.35.25a4,4,0,0,0,.16.75c-1.83,6.12-3.74,12.17-7.8,17.32a29.53,29.53,0,0,0-3.14,6.07c-.81,1.78-1.43,3.65-2.14,5.48-1.69,2.38-3.52,4.68-5,7.18-3.76,6.17-8.07,11.83-13.87,16.25a6.4,6.4,0,0,0-1.38,1.37c-2.79,4.06-7,6.35-11.15,8.52-4.86,2.52-9.88,2.88-15,0a29.07,29.07,0,0,0-7.83-2.71c-3.82-.86-7.71-1.44-11.59-1.95-3.67-.48-6.61,1-9.05,3.73a29.08,29.08,0,0,0-7.51,15.15A30.44,30.44,0,0,1,244.24,362Z" style="fill: #cbc1b4"/>
    <path d="M34.13,203.37c.37,2.08.43,4-.88,5.95-.66,1-.66,2.42-1,3.65l-1.75.44c-2.5-1.94-4.46-1.58-6.38,1.17l-1.73-.08A3.88,3.88,0,0,0,19.64,212c-2-.45-4.07-1-6.11-1.44l0,.06a3.78,3.78,0,0,0,.05-1.45c-1.68-4.05-3.35-8.11-5.15-12.11a4.23,4.23,0,0,0-4-2.37,60.15,60.15,0,0,1,1.44-31.44,85.1,85.1,0,0,1,8.42-18.73,226.13,226.13,0,0,1,13.21-20c1.27-1.7,2.65-3.32,4.08-4.89,4.92-5.44,11.19-7.79,18.41-7.65,5.06.1,10.11.41,15.17.74a47.56,47.56,0,0,0,10.26-.1h.94l1.3-.2-.57,2.09c-1.29-.11-2,.79-2.93,1.51A95.35,95.35,0,0,1,61.27,125c-4.11,2.33-8.1,2.13-12.21.3-1.34-.59-2.63-1.32-4-1.94a8.63,8.63,0,0,0-5.28-.62c-3,.55-5.77,1.61-7,4.68-.77,2,1.43,5.07,4.54,6.92,1.26.75,2.62,1.38,3.8,2.24,2.8,2.07,2.73,4.7,0,6.87a4.66,4.66,0,0,1-3.65,1.06,27.12,27.12,0,0,1-4.34-.73,8.73,8.73,0,0,0-6.65.68A25.86,25.86,0,0,0,16.59,153a8.51,8.51,0,0,0-1.54,7,42,42,0,0,0,2.44,7.95c1.76,4,4.16,4.64,7.84,2.42A27.37,27.37,0,0,0,28.5,168c1.77-1.44,3.49-3,5.26-4.41,1.13-.94,2.25-1.93,3.87-1.79a2.78,2.78,0,0,1,.82.54,9,9,0,0,1-4.39,14c-1.85.61-3.81.9-5.71,1.4a6.67,6.67,0,0,0-4.31,3,21.91,21.91,0,0,0-2.56,17c1.16,4.51,4,6.37,8.76,6.11C31.54,203.76,32.83,203.53,34.13,203.37Z" style="fill: #bdb4ab"/>
    <path d="M246.85,83.74c-.18-.73-.37-1.46-.55-2.2L246,79.4c-1.1-3.92-2.36-7.81-3.28-11.77C240.23,56.72,241,45.52,240,34.48a3.59,3.59,0,0,1,.17-1c-.06-.61-.12-1.22-.19-1.83-1.16-4.65-.9-9.4-1-14.12-.09-.62-.19-1.23-.28-1.85l-.32-4.12c-.06-.93-.13-1.85-.2-2.78q-.27-3.59-.53-7.19c-.12-.34-.23-.67-.33-1L232.72.19c.16.6.33,1.2.55,1.79a12.2,12.2,0,0,1,.47,2.9c.51,5.05,1,10.09,1.5,15.14a15.83,15.83,0,0,1-.66,6.29c-1.42,4.7-2.64,9.46-3.94,14.19l2.8.25c1-1,.89-2.78,2.65-3.37a5.32,5.32,0,0,1,.55,1.38c.16,2.92.29,5.85.37,8.78.18,6.5.36,13,1.81,19.4,2.08,9.2,4.31,18.37,5.17,27.79a1.35,1.35,0,0,0,.19.45c1.11-.45,1.8-.17,2.08,1.08a4.15,4.15,0,0,0,.74,1.2c.87-1.49.59-3.08.47-4.67C247.24,89.78,247.05,86.76,246.85,83.74Z" style="fill: #5d536c"/>
    <path d="M4.42,194.73a4.23,4.23,0,0,1,4,2.37c1.8,4,3.47,8.06,5.15,12.11a3.78,3.78,0,0,1-.05,1.45,2.35,2.35,0,0,1-2.64-.85,23.73,23.73,0,0,1-3.14-4.36A27.65,27.65,0,0,1,4.42,194.73Z" style="fill: #c3bbb2"/>
    <path d="M239.83,377.38a2.09,2.09,0,0,1-1.65-2.05,36.76,36.76,0,0,1,.31-3.79c.3-2.15,1.67-2.92,3.72-2.71C241.42,371.68,240.62,374.53,239.83,377.38Z" style="fill: #cbc1b4"/>
    <path d="M13.53,210.6c2,.48,4.07,1,6.11,1.44a3.88,3.88,0,0,1,2.79,2.46c-2.33-.35-4.7-.57-7-1.1A2.25,2.25,0,0,1,13.53,210.6Z" style="fill: #c3bbb2"/>
    <path d="M77.08,114.52l.57-2.09,4.53-1.3c.08.77.18,1.54.27,2.31l-4.16,1.42Z" style="fill: #7d7285"/>
    <path d="M24.16,214.58c1.92-2.75,3.88-3.11,6.38-1.17C28.64,215,26.33,214.42,24.16,214.58Z" style="fill: #c3bbb2"/>
    <path d="M76.35,112.63h-.94A4.22,4.22,0,0,1,76.35,112.63Z" style="fill: #7d7285"/>
    <path d="M341.37,277.44a4.59,4.59,0,0,1-.29-.69c0-.08.18-.2.27-.3C341.36,276.78,341.37,277.11,341.37,277.44Z" style="fill: #c3bbb2"/>
    <path d="M341,281.35a4,4,0,0,1-.16-.75c0-.08.23-.16.35-.25C341.11,280.69,341,281,341,281.35Z" style="fill: #c3bbb2"/>
    <path d="M309.44,250.67l1.65-1.36a41.61,41.61,0,0,1,4.22,1.16A44.46,44.46,0,0,0,327.19,253a27.79,27.79,0,0,0,8.72-.45c2.85-.62,5.76-1,8.64-1.45a8.62,8.62,0,0,1,5.26.38c-.56.29-1.13.84-1.69.83-4.9-.06-9.63,1.1-14.42,1.85a20.6,20.6,0,0,1-4.82.34c-5.48-.45-11-.69-16.13-3.12A13.69,13.69,0,0,0,309.44,250.67Z" style="fill: #5d536c"/>
    <path d="M244.18,290.93c-.57.52-1.06,1.32-1.72,1.49a10.25,10.25,0,0,1-2.92-.05,12.81,12.81,0,0,0-3.41-.2c-4.5,1-9.06.85-13.62,1-5.36.17-10.74.44-16.08,1-4.61.49-9.13,0-13.68-.32a40.2,40.2,0,0,0-4.39.08,19.26,19.26,0,0,1-2.93.12,45.69,45.69,0,0,0-9.28.09c-4.22.32-8.46.47-12.69.59a32.11,32.11,0,0,1-4.89-.3c-2.48-.31-4.44-1.25-4.29-4.27.05-1.13-.82-1.65-1.52-2.35a2.68,2.68,0,0,1-.79-2.07c.13-.63,1-1.11,1.51-1.66,1,1.26,2.05,2.49,3,3.79a5.54,5.54,0,0,0,3.14,2.55A11.81,11.81,0,0,1,161.4,289a6.89,6.89,0,0,1,2.64-1,40.34,40.34,0,0,1,10.23.47c2.4.47,4.85.67,7.26,1.1,9.58,1.71,19.17.89,28.78.34q9.27-.52,18.52-1.39A33.27,33.27,0,0,1,244.18,290.93Z" style="fill: #b0a79c"/>
    <path d="M316.4,285.72c1.74,1.66,1.27,3.59.44,5.4a2.41,2.41,0,0,1-1.9,1.2c-3.19-.53-6.35-1.25-9.5-2-.39-.1-.67-.67-1-1,2.66-.62,5.25-1.57,8.07-1.13C314.44,288.48,315.26,286.8,316.4,285.72Z" style="fill: #c3bbb2"/>
    <path d="M320.5,257.22c-.82,1.9-2,3.75-2.36,5.73s.08,3.85.13,5.78a3.54,3.54,0,0,1-.21.94c-1-1.06-2.05-2.11-3.08-3.17-.31-1.53-.62-3.05-.92-4.57C315,258.71,317,256.94,320.5,257.22Z" style="fill: #c3bbb2"/>
    <path d="M334.31,258.16a2.28,2.28,0,0,1-2.25,1.52c-2.26,0-4.51.07-6.77.11-1.8,0-2.53-1.18-3.06-2.63.28-.33.55-.67.83-1l5.5.2c.89.26,1.79.5,2.67.78S333.28,257.81,334.31,258.16Z" style="fill: #c3bbb2"/>
    <path d="M247.78,107.39l-1.05,8.83a7,7,0,0,0-1.44-1.14,5.69,5.69,0,0,0-1.68-.22c.15-1.33.3-2.66.44-4a2.05,2.05,0,0,0,1.78-1.92c.26-1.53-.08-3.23,1.17-4.51Z" style="fill: #5d536c"/>
    <path d="M323.06,256.15c-.28.34-.55.68-.83,1l-1.73.06c-3.5-.28-5.5,1.49-6.44,4.71a14,14,0,0,1-.62-3.19c.08-1.92,1-3,3-3.11A57.44,57.44,0,0,1,323.06,256.15Z" style="fill: #5d536c"/>
    <path d="M312.16,268.34c-1-2.8-2-5.63-1.71-8.69A13.87,13.87,0,0,1,312.16,268.34Z" style="fill: #5d536c"/>
    <path d="M318,269.83c0,1.06,0,2.13-.06,3.19a2,2,0,0,1-1.62,1.94c-.28-1.17-.57-2.33-.85-3.5Z" style="fill: #c3bbb2"/>
    <path d="M334.31,258.16c-1-.35-2.05-.71-3.08-1s-1.78-.52-2.67-.78c3.72-1.18,4.69-.92,6.73,1.77C335,258.12,334.63,258.13,334.31,258.16Z" style="fill: #5d536c"/>
    <path d="M318,269.83l-2.53,1.63-.54-5c1,1.06,2.07,2.11,3.09,3.17Z" style="fill: #5d536c"/>
    <path d="M310.39,257.21c-.58-1.24-1.17-2.48-1.74-3.72.2-.28.41-.56.62-.83A4.85,4.85,0,0,1,310.39,257.21Z" style="fill: #5d536c"/>
    <path d="M207.92,287c1-1.32,1.07-1.33,2.11-.21Z" style="fill: #b0a79c"/>
    <path d="M282.66,291.73c-.86,1.57-1,1.59-2.15.33Z" style="fill: #c3bbb2"/>
    <path d="M296.65,290.08c-.9,1.6-1.06,1.62-2.18.22Z" style="fill: #c3bbb2"/>
    <path d="M228.86,285c.95-1.31,1.06-1.32,2.11-.23Z" style="fill: #b0a79c"/>
    <path d="M316.75,277c1.64.9,1.66,1.07.27,2.2Z" style="fill: #c3bbb2"/>
    <path d="M312.51,276.19a1.87,1.87,0,0,1-.4-2.54A2.49,2.49,0,0,1,312.51,276.19Z" style="fill: #5d536c"/>
    <path d="M247,104.44c-1.25,1.28-.91,3-1.17,4.51a2.05,2.05,0,0,1-1.78,1.92l.21-5.81c.87-.64.82-1.31.07-2l-.15-7.88c1.11-.45,1.8-.17,2.08,1.08a4.15,4.15,0,0,0,.74,1.2Z" style="fill: #4a435b"/>
    <path d="M286.19,223.18l.43.6a3.23,3.23,0,0,1-.64.33c-.05,0-.28-.23-.26-.27A4.57,4.57,0,0,1,286.19,223.18Z" style="fill: #cfc6b9"/>
    <path d="M136.71,172.36c-.4,2.34-.75,4.11-1,5.89-.47,3.41-.93,6.82-1.29,10.24-.39,3.58-.74,7.17-.93,10.77a64.19,64.19,0,0,0-.1,9.3A77.39,77.39,0,0,0,138.48,231a24.06,24.06,0,0,1,1.78,9.1c0,2.46.15,4.92.35,7.36.51,6.32-.67,12.39-2.44,18.41-1,3.3-1.51,6.74-2.71,9.95-2.64,7.05-5.09,14.14-7.23,21.37-1.7,5.78-4.55,11.21-6.92,16.79-.39.9-1,1.71-1.39,2.6-2.78,6.07-7.89,8.47-14.18,9-1.14.09-2.29-.06-3.43,0C97,326,93.8,323,91.5,318.6a17.36,17.36,0,0,1-1.67-12.84,6.68,6.68,0,0,1,3.76-4.86,28.33,28.33,0,0,1,6.44-2.3c4-.66,5.92-3,6.91-6.66.7-2.58,1.34-5.12.39-7.7a14.62,14.62,0,0,0-2.06-3.86c-1.64-2.11-3.13-2.5-5.63-1.48A27.23,27.23,0,0,0,87,289.5c-2.16,3.28-4,6.77-6,10.17-1,1.7-1.88,3.46-3,5.08a15,15,0,0,1-2.64,2.88,3.91,3.91,0,0,1-5,.34c-7.81-5.36-12.08-11.88-9-21.7a55.77,55.77,0,0,1,5.36-12.11A14.94,14.94,0,0,1,75,267.48a40.56,40.56,0,0,1,9.51-2.39,38,38,0,0,0,4.85-.79c5-1.13,7.89-4.43,8.93-9.34a12.86,12.86,0,0,0-.51-8.21c-1.07-2.37-2.6-3.37-5.1-2.63-3,.89-5.81,2.19-8.69,3.35-1.37.54-2.67,1.27-4.06,1.72a1.91,1.91,0,0,1-2.43-2.2,19,19,0,0,1,1.86-4.49,35.24,35.24,0,0,1,10.48-10.92c3.36-2.33,6.82-4.53,10.36-6.57a12.35,12.35,0,0,0,6.12-7.32A43,43,0,0,0,105,187.88a16,16,0,0,0-2.58-4.14c-3.79-4.53-7.68-9-12.91-12-1.66-.95-1.59-2.48,0-3.47a6.65,6.65,0,0,1,.85-.49c3.44-1.52,6.89-3,10.33-4.55,4.68-2.08,9.71-2.94,14.65-4.11a94.94,94.94,0,0,1,11.15-1.84c5.45-.61,9.48,2.69,10.1,8.23A67.13,67.13,0,0,1,136.71,172.36ZM73,305.14a16.44,16.44,0,0,0,1.92-1.85A38,38,0,0,0,77.06,300c2.44-4.07,4.79-8.21,7.31-12.23,2.94-4.7,7.31-7.9,11.95-10.74a12.52,12.52,0,0,1,3.62-1.51c3.1-.72,5.79-.08,7.82,2.67a13.45,13.45,0,0,1,2.88,10.13,40.65,40.65,0,0,1-1.72,6.63,8.86,8.86,0,0,1-7.71,6.64,13,13,0,0,0-5.95,2.16,5.79,5.79,0,0,0-2.69,4.47,15.59,15.59,0,0,0,2.31,9.87,8.85,8.85,0,0,0,7.75,4.43,39.74,39.74,0,0,0,6.34-.65,8.86,8.86,0,0,0,6-3.9,61.59,61.59,0,0,0,3.55-5.88c3.38-6.57,6.5-13.27,7.92-20.56a57.68,57.68,0,0,1,3.5-10.72c1.23-3,2.36-6.09,3.41-9.18.64-1.85,1-3.82,1.58-5.68,3.2-9.41,2.95-19,1.68-28.68a22.32,22.32,0,0,0-1.6-5.14,71.1,71.1,0,0,1-4.61-33.25c.85-9.14,1.9-18.26,2.83-27.38a19.17,19.17,0,0,0,.1-4.41c-.58-4.46-3.31-6.71-7.78-6.2a127.37,127.37,0,0,0-12.61,2c-5,1.07-9.91,2.33-14.31,5.05-1.08.67-2.35,1.21-2.73,3.06a74.46,74.46,0,0,0,6.07,6.69,25.28,25.28,0,0,1,7.06,11,55,55,0,0,1,2.38,20.86,40.13,40.13,0,0,1-2.2,10,13.74,13.74,0,0,1-6.8,8,136.93,136.93,0,0,0-12.08,7.54,43.55,43.55,0,0,0-5.71,5.34,1.62,1.62,0,0,0-.13,2.43c.78-.15,1.7-.26,2.58-.51,1.88-.55,3.71-1.34,5.62-1.73,4-.83,6.61.82,7.86,4.76a23.46,23.46,0,0,1,.88,8.75,13.41,13.41,0,0,1-3.28,8,16.13,16.13,0,0,1-10,5.72q-5.81,1-11.54,2.34A10.33,10.33,0,0,0,70,275c-2.86,4.64-5.14,9.52-5.85,15C63.22,296.76,66.13,301.83,73,305.14Z" style="fill: #5d536c"/>
    <path d="M224.65,103.16a5.88,5.88,0,0,0-2.3.23A20,20,0,0,1,211,105.84c-5.58-.33-10.64,1.64-15.59,3.9-2.53,1.15-4.93,2.59-7.38,3.91-5.4,2.89-11.2,3.53-17.18,3-4.34-.39-7.21-2.82-8.92-6.75-1-2.37-1.62-5-3.09-7.49a9.55,9.55,0,0,0-2.65,1.4,31.68,31.68,0,0,0-3.26,4.29q-5.55,8.7-11,17.49a41.16,41.16,0,0,1-14.37,13.85c-5.13,3-10.57,3.1-16.15,1.62a7.66,7.66,0,0,1-4.52-3.54,33.16,33.16,0,0,1-5.49-17.6,112.24,112.24,0,0,0-4.75-28,20.28,20.28,0,0,0-4.13-7.74c-3-3.48-5.86-7.07-9-10.4s-4.3-7.64-4.83-12.08a6.53,6.53,0,0,1,.91-4.72c1-1.38,2.59-1.89,3.82-.81a44.51,44.51,0,0,1,5.47,5.6,30.23,30.23,0,0,0,6.52,6.6A16.7,16.7,0,0,1,98.64,72c.59.77.94,1.73,1.5,2.53,1,1.37,2,1.62,3.37.86.71-.4,1.33-1,2.06-1.33a19.18,19.18,0,0,1,3.62-1.49c4.28-1,7.56,1.25,7.9,5.66a23.18,23.18,0,0,1-1.31,9.68,36.21,36.21,0,0,0-2.5,12,33.24,33.24,0,0,0,.34,6.85c.8,4,2.66,7.4,6.88,8.86,6,2,13.26-3.22,13-9.5a30.22,30.22,0,0,0-1.05-5.79,16.54,16.54,0,0,1,3-14.41c2-2.77,4.23-5.44,6.41-8.1a13.9,13.9,0,0,1,7.74-5,68.3,68.3,0,0,1,10.17-1.48c3.61-.24,6.6,1.54,9.39,3.7,3.49,2.72,7.05,5.34,10.57,8a16.35,16.35,0,0,0,9.62,3.24c3.76.15,7.51.32,11.27.48-.08.66-.15,1.31-.23,2-9.45,2.06-18.2,1-25.85-5.54-2.49-2.12-5.14-4-7.73-6a11.84,11.84,0,0,0-6.16-2.88c-5.54-.44-10.77.39-15.23,4.09-2.94,2.45-5,5.59-7.28,8.6a15,15,0,0,0-2.64,13,41,41,0,0,1,.87,4.33c.8,6.94-2.42,11.74-9.15,13.66a18.73,18.73,0,0,1-3.86.7,10.93,10.93,0,0,1-11.09-6.56,20.66,20.66,0,0,1-2.07-9.52,48.46,48.46,0,0,1,1.9-13.09A51.08,51.08,0,0,0,114,81.89c.38-2.27.54-5-2-6s-4.42.63-6.08,2.25a28.46,28.46,0,0,0-2.27,3.18c-1.07,1.38-2.82,1.51-3.74.11a22.6,22.6,0,0,1-2.62-5.22A10.42,10.42,0,0,0,93,70.39a20.49,20.49,0,0,1-6.11-6.26,8,8,0,0,0-4.14-3.71,11.69,11.69,0,0,0-.46,2.48,13.81,13.81,0,0,0,3.46,8.47c3,3.45,6,7,9,10.41a29.39,29.39,0,0,1,6.55,14.09c1.7,8.51,3.28,17,3.68,25.74.23,4.91,2.17,9.2,4.54,13.36a6.68,6.68,0,0,0,4.65,3.29A17.36,17.36,0,0,0,129,135a46.07,46.07,0,0,0,12.21-13.31c3.55-6.07,7.28-12,11.08-18a23.47,23.47,0,0,1,4.13-4.82c2.38-2.1,4.5-1.5,5.73,1.49,1,2.42,1.84,4.91,2.71,7.38,1.29,3.68,3.93,5.45,7.77,5.69a27.62,27.62,0,0,0,15.64-3.23c3.85-2.15,7.86-4,11.89-5.84a20.53,20.53,0,0,1,9.56-1.86,26.25,26.25,0,0,0,5.86-.41c4.45-.78,7.91-3,9.71-7.35a16,16,0,0,1,1.32-2.12l3,.63a4.43,4.43,0,0,1-.33,5.42,40.32,40.32,0,0,1-3.25,3.55l-1.4,1Z" style="fill: #5d536c"/>
    <path d="M242.84,311.52c-.6.76-1.05,1.4-1.57,2-2.92,3.32-6,6.51-8.73,10a41.79,41.79,0,0,0-8,17.77,13.74,13.74,0,0,0,2.34,11.65,14,14,0,0,1,2.49,10.27,72.12,72.12,0,0,1-4.25,18.12,29,29,0,0,1-3.68,6.33c-3.07,4.3-7.58,5.44-12.57,5.15a5.86,5.86,0,0,1-5-3.49,43.64,43.64,0,0,1-2.1-6,46,46,0,0,0-1.61-5.11,7.53,7.53,0,0,0-2.32-2.46,2.65,2.65,0,0,0-3.93.48,10.22,10.22,0,0,0-2,3.35c-1,3.29-1.74,6.64-2.52,10s-1.39,6.73-2.29,10a7.82,7.82,0,0,1-2,3.29c-2.62,2.57-5.68,2.66-8.29.16-2.86-2.75-5.25-5.91-6.08-9.92a59.51,59.51,0,0,1-1.36-15.6c.5-8.36,3.34-16,6.79-23.43a30.54,30.54,0,0,1,3.29-4.86c1.06-1.46,2.34-2.76,3.26-4.3a11.81,11.81,0,0,0,.76-11.7A27.35,27.35,0,0,0,173.24,321a39,39,0,0,1-5.32-4.31c-3.64-3.29-7.2-6.67-10.78-10-.36-.33-.75-.64-1.08-1a1.88,1.88,0,0,1,.89-3.11,7,7,0,0,1,2.41-.1A159.63,159.63,0,0,0,177,303.55c4.57,0,9.16.43,13.72.84,10.27.94,20.53,2,30.8,3,5.54.55,11.08,1.13,16.62,1.69A6,6,0,0,1,242.84,311.52ZM181.05,401.6c2.88-2.6,2.85-2.61,3.62-4.45a28.79,28.79,0,0,0,1.82-9.12,28.26,28.26,0,0,1,3-10.83,14.12,14.12,0,0,1,2.86-3.93c2.39-2.19,5-2.21,7.6-.25a10.65,10.65,0,0,1,4.29,6.38A47,47,0,0,0,206,386c1.22,3.2,3.23,4.18,6.61,3.63a10.54,10.54,0,0,0,6.55-4,19.35,19.35,0,0,0,3.91-7.33c1.11-4.27,2.17-8.57,3-12.9a13.23,13.23,0,0,0-2.27-10.74c-2.45-3.33-3-7.1-2.63-11.19.81-8.64,4.36-16.05,9.61-22.77,1.21-1.55,2.63-2.93,3.79-4.51a16.58,16.58,0,0,0,1.38-3,6.26,6.26,0,0,0-1.52-.91,89,89,0,0,0-17.52-2.17,52.59,52.59,0,0,1-5.89-.34c-7-.87-14-1.91-20.95-2.72-3.58-.41-7.19-.52-10.79-.66-4.09-.15-8.18-.2-12.27-.25a14.46,14.46,0,0,0-2.17.27c-.1.66-.3,1.09-.17,1.26,3,4.09,6,8.2,10.54,10.81,5.33,3.08,8.81,7.73,11.39,13.17a17.36,17.36,0,0,1,1.42,6.68c.23,4.59-1.73,8.43-4.65,11.56-3.7,4-5.88,8.66-7.76,13.55A45.05,45.05,0,0,0,174,392.4,13.9,13.9,0,0,0,181.05,401.6Z" style="fill: #5d536c"/>
    <path d="M77.08,114.52l1.21.34c.64.41,1.3.79,1.91,1.24s1.18.94,1.76,1.42a11.64,11.64,0,0,0-8,3c-3.76,3.21-8.17,5.42-12.46,7.83a12.37,12.37,0,0,1-10.41,1.06c-2.33-.77-4.6-1.7-6.89-2.6a7.59,7.59,0,0,0-4.79-.56c-2.07.54-2.82,2.66-1.28,4.13a17,17,0,0,0,4,2.74,9,9,0,0,1,4.56,4.93,5.42,5.42,0,0,1,.21,3.32,9.72,9.72,0,0,1-11.23,6.51c-.8-.15-1.58-.4-2.38-.58a10.13,10.13,0,0,0-7.56,1.34,18.39,18.39,0,0,0-6.17,6.23,5.92,5.92,0,0,0-.83,2.28,13.87,13.87,0,0,0,2,9.42,1.89,1.89,0,0,0,2.52.87,11.2,11.2,0,0,0,2.51-1.5c1.91-1.54,3.7-3.24,5.66-4.72a16.4,16.4,0,0,1,4.17-2.49c2.78-1,4.78-.17,6.1,2.5,2.44,4.91,2.81,9.65-1.06,14.19-2,2.31-4,4.35-7.24,4.53a16.8,16.8,0,0,0-1.93.37,7.71,7.71,0,0,0-6.55,6.46,48.27,48.27,0,0,0-.8,5.33,9.94,9.94,0,0,0,.18,2.93c.82,4.19,3.78,6.18,7.93,5.07a15.57,15.57,0,0,0,5.26-2.51,67.06,67.06,0,0,0,9.94-8.75c5.36-6,10.94-11.75,16.38-17.64,1.56-1.69,3-3.46,4.44-5.26a56.71,56.71,0,0,1,23.38-17.41,23.67,23.67,0,0,0,3.08-1.5,2.78,2.78,0,0,0,1.4-3.35c-.54-2-1-4.15-1.74-6.13A67.38,67.38,0,0,1,91,123.78a20.69,20.69,0,0,1,.14-3.84l2.49.31c.22.94.46,1.88.68,2.83a91.81,91.81,0,0,0,2.21,9.51c1.47,4.29,2.25,8.86,4.93,12.73,1,1.45,0,3.18-1.78,3.83-2.15.78-4.31,1.53-6.46,2.3-8.69,3.12-15.57,8.68-21.66,15.52Q59.62,180.33,47.29,193.3a44.6,44.6,0,0,1-13.16,10.07c-1.3.16-2.59.39-3.89.46-4.74.26-7.6-1.6-8.76-6.11a21.91,21.91,0,0,1,2.56-17,6.67,6.67,0,0,1,4.31-3c1.9-.5,3.86-.79,5.71-1.4a9,9,0,0,0,4.39-14,2.78,2.78,0,0,0-.82-.54c-1.62-.14-2.74.85-3.87,1.79-1.77,1.45-3.49,3-5.26,4.41a27.37,27.37,0,0,1-3.17,2.32c-3.68,2.22-6.08,1.58-7.84-2.42a42,42,0,0,1-2.44-7.95,8.51,8.51,0,0,1,1.54-7,25.86,25.86,0,0,1,9.94-8.53,8.73,8.73,0,0,1,6.65-.68,27.12,27.12,0,0,0,4.34.73,4.66,4.66,0,0,0,3.65-1.06c2.75-2.17,2.82-4.8,0-6.87-1.18-.86-2.54-1.49-3.8-2.24-3.11-1.85-5.31-5-4.54-6.92,1.2-3.07,4-4.13,7-4.68a8.63,8.63,0,0,1,5.28.62c1.33.62,2.62,1.35,4,1.94,4.11,1.83,8.1,2,12.21-.3A95.35,95.35,0,0,0,74.15,116C75,115.31,75.79,114.41,77.08,114.52Z" style="fill: #5d536c"/>
    <path d="M265.56,305l3.95,0,2.08-.26c2.77-.12,5.55-.12,8.3-.38,6.83-.63,13.73-.51,20.47-2,3-.65,6.06-1.34,9.1-2a25.59,25.59,0,0,1,3.37-.61,5.51,5.51,0,0,1,6.33,5.74,7.3,7.3,0,0,1-2.35,5.71,13.48,13.48,0,0,1-6.39,3.45c-6.22,1.33-12.35,3.19-18.78,3.36a11.88,11.88,0,0,0-1.46.18l-16.44,2.5c-5.42-.08-8.7-3.07-10.54-7.88a7.69,7.69,0,0,1-.67-3.73A5.29,5.29,0,0,1,265.56,305Zm1.34,6.13a5.61,5.61,0,0,0,.13,1.56c1.5,3.5,4,5,8.29,4.57a242.22,242.22,0,0,0,33.41-5.41,19.07,19.07,0,0,0,4.08-1.62,4.59,4.59,0,0,0,2.36-3.54c.37-2.11-.83-3.62-3-3.47a32.24,32.24,0,0,0-4.33.78,95,95,0,0,1-17.47,2.45c-5.87.2-11.72,1.07-17.57,1.68A9.07,9.07,0,0,0,266.9,311.1Z" style="fill: #5d536c"/>
    <path d="M226,102.27a40.32,40.32,0,0,0,3.25-3.55,4.43,4.43,0,0,0,.33-5.42c1.27-3.32,1.76-6.57,0-10-.92-1.79-.5-3.86,0-5.79.23-1,.62-1.87.91-2.81a18.66,18.66,0,0,0,.31-7.8,19.29,19.29,0,0,0-.74-2.75c-1.92.35-2.84,1.53-3.85,2.55-1.27,1.28-2.45,2.65-3.76,3.89a6.36,6.36,0,0,1-4.45,1.8c-1.51,0-2.33-1-3.25-2-.18-.18-.58-.13-1.25-.25a22.71,22.71,0,0,0-.83,2.57c-.61,2.88-1.06,5.8-1.72,8.67-1.39,6-3,7.24-9.11,7.52a8.29,8.29,0,0,1-1.46-.21c.08-.66.15-1.31.23-2a2.76,2.76,0,0,1,.91-.32c4.18.07,6.28-2.23,7-6.09.93-4.81,1.8-9.63,2.76-14.44a44.47,44.47,0,0,1,1.39-5.18,1.41,1.41,0,0,1,2.41-.08,6.76,6.76,0,0,1,.71,1.77c.29,1.28.39,2.6.75,3.85a2.41,2.41,0,0,0,3.84,1.51,29.31,29.31,0,0,0,3.69-3.19c1-.9,1.75-1.94,2.67-2.87a5.11,5.11,0,0,1,3.55-1.44c2.15-.07,3.56.91,3.64,3.07.15,3.92.08,7.84,0,11.76q-.12,9.08-.36,18.14c0,1.62-.32,3.23-.49,4.85a7.2,7.2,0,0,1-2.39,4.66c-1.42,1.33-2.46,3-3.8,4.48a1.83,1.83,0,0,1-1.7.36,2.13,2.13,0,0,1-.77-1.57,20.25,20.25,0,0,1,.2-2.89l-.05.07Z" style="fill: #4a435b"/>
    <path d="M93.58,120.25l-2.49-.31c-.17-2-1.46-2.54-3.22-2.48-.83-.78-1.49-.48-2.07.33L82,117.52c-.58-.48-1.15-1-1.76-1.42s-1.27-.83-1.91-1.24l4.16-1.42a11.77,11.77,0,0,1,2.38.33c1.76.6,3.41.9,5-.38a5.24,5.24,0,0,1,1.82-.64,1.71,1.71,0,0,1,2.29,1.7C93.92,116.39,93.72,118.32,93.58,120.25Z" style="fill: #2f2e3a"/>
    <path d="M244.33,103.06c.75.69.8,1.36-.07,2A1.46,1.46,0,0,1,244.33,103.06Z" style="fill: #5d536c"/>
    <path d="M271.59,304.76l-2.08.26c0-1.37-.05-2.74-.07-4,1.35-.66,2-.18,2.15,1A20.13,20.13,0,0,1,271.59,304.76Z" style="fill: #c3bbb2"/>
    <path d="M226,102.27l-1.4,1Z" style="fill: #c3bbb2"/>
    <path d="M87.87,117.46a1.31,1.31,0,0,1-2.07.33C86.38,117,87,116.68,87.87,117.46Z" style="fill: #5d536c"/>
  </g>
</svg>
