<svg xmlns="http://www.w3.org/2000/svg" viewBox="0 0 163.67 179.29"><title>gallesartsvoisins</title><g id="Layer_2" data-name="Layer 2"><g id="Layer_19" data-name="Layer 19"><path d="M163.66,179.29H.09c0-.5-.09-1-.09-1.49V1.11C0,.74.06.37.09,0H163.66c0,.34,0,.69,0,1V178C163.67,178.41,163.66,178.85,163.66,179.29Zm-56-114.23a1.74,1.74,0,0,0-.23-.37c-4.08-3.94-7.23-8.63-10.35-13.31a60.3,60.3,0,0,1-7.22-15.93,87.15,87.15,0,0,1-3.71-20c0-.57-.11-1-.82-1-2.37,0-4.74,0-7.11,0-.52,0-.74.15-.81.73-.4,3.18-.78,6.37-1.31,9.52A86.68,86.68,0,0,1,71,42.43,61.75,61.75,0,0,1,60.86,59.64,95.09,95.09,0,0,1,51.43,69c-7,6.18-13.64,12.6-19,20.26A88.61,88.61,0,0,0,24,103.48a71.69,71.69,0,0,0-5.44,17.72c-.7,4.2-1,8.48-1.44,12.71-.09.79.22,1,1,1,2.37,0,4.74,0,7.11,0,.72,0,.95-.22.95-1a47,47,0,0,1,2.24-13.89c1.45-4.69,3.18-9.31,5.09-13.83a69.14,69.14,0,0,1,9-15.58C47,84.82,52.5,80,57.81,74.89c3.44-3.29,6.9-6.6,10-10.17C72.87,59,76,52,79,45.09c.9-2.05,1.69-4.15,2.61-6.45,4,12.46,11,22.83,19.47,32.39Zm38.85-50.7a3.6,3.6,0,0,0-.58-.13c-2.65,0-5.3,0-7.95,0-.65,0-.64.39-.67.86-.13,2-.18,3.92-.47,5.86a75.73,75.73,0,0,1-3.71,14.26,96.63,96.63,0,0,1-9.38,19.39A54,54,0,0,1,116,64.24c-4.69,4.6-9.48,9.1-14.23,13.64a61,61,0,0,0-9.28,10.69,99.09,99.09,0,0,0-9,17.9c-.51,1.28-1,2.55-1.63,4-.14-.37-.21-.54-.27-.72A67.68,67.68,0,0,0,74.44,94.3c-1.68-2.76-3.49-5.46-5.43-8s-4.12-5-6.16-7.48c-.39-.48-.75-.43-1.09-.12-2,1.79-4,3.62-5.87,5.32,1.91,2.34,3.84,4.57,5.62,6.92a73.08,73.08,0,0,1,8.76,14A79.53,79.53,0,0,1,76,123.3c.64,3.48.94,7,1.35,10.56.07.63.3.77.87.76q3.51,0,7,0c.64,0,.75-.27.8-.83.2-2.11.37-4.23.72-6.31a99.12,99.12,0,0,1,4.73-18.33,63.53,63.53,0,0,1,13.62-22.44c3.26-3.37,6.79-6.49,10.3-9.63a107,107,0,0,0,17.79-20.31,73.24,73.24,0,0,0,9.07-18.15,82.3,82.3,0,0,0,3.55-16.12C146.11,19.82,146.29,17.12,146.53,14.36ZM137.81,134.7c2.49,0,5,0,7.46,0,.76,0,1-.26.92-1-.33-2.75-.47-5.54-1-8.25-.82-4.18-1.74-8.35-2.91-12.44A88.68,88.68,0,0,0,138.37,102c-2.56-5.87-6.22-11.11-10-16.23-1.62-2.17-3.32-4.27-5-6.37-.88-1.08-1.18-1.07-2.21-.17S119,81.07,118,82l-2.15,2C128.78,98.47,135.32,115.64,137.81,134.7ZM47.43,65.53c-2.62-3.55-5.24-6.94-7.68-10.46-1.67-2.41-3.13-5-4.57-7.53a27.33,27.33,0,0,1-1.57-3.78c-1.46-3.87-3-7.71-4.3-11.64a82.84,82.84,0,0,1-3.54-16.78c-.07-.67-.34-.81-.95-.8-2.15.05-4.3.1-6.45.06-.89,0-1.17.25-1.13,1.17A79.19,79.19,0,0,0,19.63,30.6c1.62,6.59,3.37,13.15,6.58,19.2A68.35,68.35,0,0,0,29.85,56c2.42,3.57,4.95,7.08,7.5,10.56,1.17,1.6,2.49,3.08,3.77,4.65Zm84.7,99-.25,0c-.1-.15-.22-.29-.31-.45-.57-1-1.17-1.9-1.7-2.89a1.26,1.26,0,0,0-1.68-.55c-.24.07-.41.66-.45,1-.1,1.14-.14,2.29-.16,3.45,0,1.48,0,3,0,4.5.2,0,.38.07.56.08,1.39.09,1.42.07,1.43-1.29,0-1,0-2,0-2.94a1.14,1.14,0,0,1,.63.52c.66,1.09,1.34,2.17,2,3.28.4.71,1,.55,1.55.4.22-.06.42-.62.42-.95,0-2.28,0-4.55,0-6.83,0-.86-.5-.83-1.09-.85s-1,.11-.95.88S132.13,163.71,132.13,164.57Zm-21.95.32a4.19,4.19,0,0,0-4-4.31,4.65,4.65,0,0,0,0,9.27C108.4,169.85,110.15,167.69,110.18,164.89ZM92.79,154.65c-.23-.91-.39-1.79-.66-2.64a1.76,1.76,0,0,1,.24-1.72,2.76,2.76,0,0,0-2-4.4c-.73-.12-1.49-.11-2.23-.21s-1,.18-1,.91c-.18,2.23-.41,4.45-.63,6.68-.14,1.49-.15,1.49,1.34,1.54a5.52,5.52,0,0,0,.55-.07c0-.41.09-.78.13-1.15a5,5,0,0,1,.13-1.11c.11-.28.41-.7.61-.7a1.32,1.32,0,0,1,.85.57,3.94,3.94,0,0,1,.29,1.06C90.86,155.08,90.86,155.07,92.79,154.65Zm-32.38-8a15.39,15.39,0,0,0-2.26-1,3.7,3.7,0,0,0-3.49.79,5.55,5.55,0,0,0-1.42,6.15,3.6,3.6,0,0,0,2.12,2.1c2.79,1,5.36-1.45,4.93-4.75H56.82a4.38,4.38,0,0,0,0,1.41c.13.33.58.53,1.08,1a6,6,0,0,1-1.6.48,1.33,1.33,0,0,1-1.25-1.2,5.38,5.38,0,0,1-.17-1.38,2.38,2.38,0,0,1,3.62-2.21c.27.13.54.24.84.37Zm23.51-.94H80.31c-2,0-2,0-2,2.09s0,4.05.14,6.07c0,.35.33,1,.53,1,1.82.08,3.64,0,5.48,0,0-.35.07-.59.08-.84,0-1.24,0-1.24-1.19-1.24H80.58v-1.17a6.66,6.66,0,0,0,2.18-.26c.86-.45.25-1.28.25-2-.58,0-1.05,0-1.51.09s-1.1.12-1.14-.75.22-1.1,1-1c.47,0,.94,0,1.4,0,1.31,0,1.32,0,1.24-1.28C84,146.2,84,146,83.92,145.72Zm16.33,0c0,3,0,5.87,0,8.73,0,.17.44.46.69.47,1.27.05,2.55,0,3.83,0,1.62,0,1.63,0,1.54-1.66a3.29,3.29,0,0,0-.13-.48h-3.94l.06-1.16c.7,0,1.32,0,1.93-.13a.91.91,0,0,0,.62-.42c.39-1.21,0-1.76-1.29-1.65a3.43,3.43,0,0,0-.56.05c-.7.12-.84-.28-.86-.87s.1-1,.8-.93c.93,0,1.85,0,2.86,0a6,6,0,0,0,0-1.36c-.07-.24-.37-.6-.58-.6C103.53,145.67,101.82,145.69,100.25,145.69Zm-31.66,24a2.59,2.59,0,0,0-.11-.52c-.59-1.57-1.27-3-.44-4.84a2.6,2.6,0,0,0-2.26-3.52c-.68,0-1.37,0-2.05,0-.84,0-1.27.24-1.16,1.18a13.05,13.05,0,0,1,0,1.77v6c.44,0,.78,0,1.12.08.75.12,1-.21.95-.93a4.09,4.09,0,0,1,0-1.21.84.84,0,0,1,.49-.52c.13,0,.42.17.53.34a5.65,5.65,0,0,1,.4.94C66.68,170,66.85,170.09,68.59,169.69Zm.52-15.18a3,3,0,0,0,0-.68c-.78-2.52-1.57-5-2.38-7.55a.88.88,0,0,0-.43-.42c-1-.5-1.67-.22-2.12,1.16-.72,2.21-1.31,4.46-1.93,6.71a3,3,0,0,0,0,.79l1.87.36c.18-1.21.57-2.14,2-2,1.14.14.65,1.25,1.19,1.89ZM34,162.79c1.15,0,2.18,0,3.2,0,.59,0,.69-.37.63-.8s.32-1.17-.46-1.2c-1.76-.08-3.52,0-5.4,0-.07,2.82-.15,5.52-.18,8.22,0,.17.33.47.52.48,1.7.13,3.41.2,5.18.29,0-.38.07-.69.13-1,.18-.81-.11-1.15-1-1.1a9.58,9.58,0,0,1-2.14-.11c-.24,0-.43-.37-.63-.57a4.57,4.57,0,0,1,.68-.64c.13-.09.36,0,.55,0,1.44,0,1.44,0,1.37-1.46a5.32,5.32,0,0,0-.1-.57H34Zm23.82-2.16c-2,.08-2.06.12-2.6,1.85-.15.5-.32,1-.45,1.52-.48,1.89-.94,3.78-1.4,5.68,2,.4,2.08.35,2.48-1.53a1.1,1.1,0,0,1,.54-.74c1.14-.44,1.51-.22,1.84.93a6.61,6.61,0,0,0,.24.9c.08.2.26.48.42.5.56.06,1.13,0,2,0Zm34.67.59c.76,2.63,1.49,5.14,2.22,7.64.14.48.24,1,.92,1s1.59.24,2-.78.81-1.89,1.15-2.85c.58-1.6,1.1-3.22,1.66-4.9l-1.88-.54L96.48,167h-.31l-1.7-6.28ZM83.2,163l1-1.26a2.84,2.84,0,0,0-4.42.12c-1,1.47-.88,2.91.47,3.72a7.49,7.49,0,0,0,1.56.59c.6.2.73.63.44,1.09a1.19,1.19,0,0,1-.91.44,1,1,0,0,1-.75-.58c-.3-.94-.87-.5-1.41-.39s-.77.49-.59,1.09a2.87,2.87,0,0,0,3.49,1.9,2.93,2.93,0,0,0,2.35-2.68,2.4,2.4,0,0,0-2-2.75,2.54,2.54,0,0,1-.7-.26c-.22-.16-.54-.45-.5-.62a.91.91,0,0,1,.6-.59A5,5,0,0,1,83.2,163Zm57.33.12c.21-.24.39-.44.57-.66.62-.79.55-1.11-.35-1.53a3.08,3.08,0,0,0-4,1.66c-.63,1.44-.06,2.65,1.58,3.32.32.12.73.12.95.33s.5.7.4.91a1.2,1.2,0,0,1-.91.57,1.09,1.09,0,0,1-.83-.61c-.31-1-.9-.42-1.42-.36-.67.08-.7.5-.55,1a2.48,2.48,0,0,0,2,1.92,3.09,3.09,0,0,0,3.29-1c1.34-1.8.58-3.79-1.66-4.44-.46-.14-1.14-.18-.89-.9s.82-.66,1.4-.41A4.57,4.57,0,0,1,140.53,163.15Zm-19-1.4a2.75,2.75,0,0,0-3.2-.78,3.06,3.06,0,0,0-1.85,2.49c-.09,1.4.54,2.06,2.42,2.72.33.12.56.53.83.8-.27.26-.49.62-.81.75a.73.73,0,0,1-1.06-.56c-.07-.25-.44-.59-.65-.57a2.57,2.57,0,0,0-1.47.47c-.2.18-.13.92.07,1.25a3.56,3.56,0,0,0,3.6,1.42,2.82,2.82,0,0,0,2.33-2.67,2.34,2.34,0,0,0-2-2.75A4,4,0,0,1,119,164c-.19-.12-.46-.36-.44-.51a.92.92,0,0,1,.46-.63,4.58,4.58,0,0,1,1,0,1.59,1.59,0,0,0,.83-.24A4.43,4.43,0,0,0,121.55,161.75ZM41.4,166.49a12.06,12.06,0,0,0-1.41.41c-.17.07-.38.41-.33.53a4.63,4.63,0,0,0,.86,1.7,3.07,3.07,0,0,0,3.58.25,2.8,2.8,0,0,0,1.42-2.83c-.08-1.43-1-2-2.26-2.34-.44-.11-1.13-.16-.85-.9s.77-.64,1.33-.41l.5.24c.21-.25.4-.45.57-.67s.34-.49.5-.72a2.67,2.67,0,0,0-3.18-.79,3,3,0,0,0-1.89,2.75c0,1.07.6,1.8,1.88,2.25a3.19,3.19,0,0,1,.79.26c.25.17.59.48.56.68a1.17,1.17,0,0,1-.61.79C41.89,168.09,41.63,167.37,41.4,166.49Zm33.1,3.21v-6.92a9.74,9.74,0,0,0,1.34-.09.88.88,0,0,0,.62-.39c.39-1,0-1.58-1.09-1.59l-.93,0H70.52v1.89a5.5,5.5,0,0,0,1,.07c.77-.1,1.09.18,1,1s0,1.8,0,2.7v3.38Zm-48.11-8.81c-.31-.06-.46-.1-.62-.12-1.43-.22-1.4-.22-1.51,1.25-.14,1.76-.33,3.53-.48,5.29-.07.73-.1,1.46-.15,2.26l6,.38a6.92,6.92,0,0,0,.18-.73c.15-1.27.15-1.27-1.13-1.37l-2.79-.27Zm46.84-8.15c0-1.92,0-3.69,0-5.46,0-1.61-.07-1.65-1.7-1.49a1,1,0,0,0-.28.11c0,2.8,0,5.59,0,8.39,0,.18.47.51.74.52.93,0,1.86,0,2.79-.05,1.72,0,1.72,0,1.58-1.78a2.29,2.29,0,0,0-.13-.24Zm50.29,8c0,.73,0,1.41,0,2.08,0,2.06.07,4.12.09,6.18,0,1,.7.73,1.26.79s.83-.17.8-.8c-.06-1.34-.07-2.68-.08-4s0-2.79,0-4.23Zm-25.75-5.95c.14-2.65.26-5.27.42-7.88,0-.7.06-1.16-.89-1.19s-1.16.3-1.18,1.16c-.06,2.12-.18,4.24-.31,6.35-.1,1.73-.12,1.73,1.59,1.66A1.72,1.72,0,0,0,97.77,154.84Zm14.2,6v8.85a6.23,6.23,0,0,0,.75.12c1.27.09,1.33,0,1.3-1.22,0-2.12-.09-4.24-.13-6.36,0-1.6,0-1.62-1.63-1.47A2.65,2.65,0,0,0,112,160.84Z" style="fill:#ee494e"/><path d="M107.68,65.06l-6.58,6C92.62,61.47,85.6,51.1,81.63,38.64c-.92,2.3-1.71,4.4-2.61,6.45C76,52,72.87,59,67.83,64.72c-3.12,3.57-6.58,6.88-10,10.17C52.5,80,47,84.82,42.46,90.66a69.14,69.14,0,0,0-9,15.58c-1.91,4.52-3.64,9.14-5.09,13.83A47,47,0,0,0,26.14,134c0,.74-.23,1-.95,1-2.37,0-4.74,0-7.11,0-.77,0-1.08-.22-1-1,.47-4.23.74-8.51,1.44-12.71A71.69,71.69,0,0,1,24,103.48,88.61,88.61,0,0,1,32.42,89.3c5.37-7.66,12-14.08,19-20.26a95.09,95.09,0,0,0,9.43-9.4A61.75,61.75,0,0,0,71,42.43a86.68,86.68,0,0,0,5.08-17.65c.53-3.15.91-6.34,1.31-9.52.07-.58.29-.73.81-.73,2.37,0,4.74,0,7.11,0,.71,0,.78.38.82,1a87.15,87.15,0,0,0,3.71,20A60.3,60.3,0,0,0,97.1,51.38c3.12,4.68,6.27,9.37,10.35,13.31A1.74,1.74,0,0,1,107.68,65.06Z" style="fill:#fcfbfb"/><path d="M146.53,14.36c-.24,2.76-.42,5.46-.73,8.15a82.3,82.3,0,0,1-3.55,16.12,73.24,73.24,0,0,1-9.07,18.15,107,107,0,0,1-17.79,20.31c-3.51,3.14-7,6.26-10.3,9.63a63.53,63.53,0,0,0-13.62,22.44,99.12,99.12,0,0,0-4.73,18.33c-.35,2.08-.52,4.2-.72,6.31,0,.56-.16.84-.8.83q-3.51,0-7,0c-.57,0-.8-.13-.87-.76-.41-3.53-.71-7.08-1.35-10.56a79.53,79.53,0,0,0-5.71-18.43,73.08,73.08,0,0,0-8.76-14c-1.78-2.35-3.71-4.58-5.62-6.92,1.87-1.7,3.86-3.53,5.87-5.32.34-.31.7-.36,1.09.12,2,2.51,4.22,4.9,6.16,7.48s3.75,5.29,5.43,8a67.68,67.68,0,0,1,7.13,15.45c.06.18.13.35.27.72.59-1.45,1.12-2.72,1.63-4a99.09,99.09,0,0,1,9-17.9,61,61,0,0,1,9.28-10.69c4.75-4.54,9.54-9,14.23-13.64a54,54,0,0,0,7.77-9.67,96.63,96.63,0,0,0,9.38-19.39,75.73,75.73,0,0,0,3.71-14.26c.29-1.94.34-3.91.47-5.86,0-.47,0-.87.67-.86,2.65,0,5.3,0,7.95,0A3.6,3.6,0,0,1,146.53,14.36Z" style="fill:#fcfbfb"/><path d="M137.81,134.7c-2.49-19.06-9-36.23-22-50.73L118,82c1-.94,2.09-1.87,3.14-2.79s1.33-.91,2.21.17c1.71,2.1,3.41,4.2,5,6.37,3.81,5.12,7.47,10.36,10,16.23a88.68,88.68,0,0,1,3.91,11.07c1.17,4.09,2.09,8.26,2.91,12.44.53,2.71.67,5.5,1,8.25.08.71-.16,1-.92,1C142.78,134.67,140.3,134.7,137.81,134.7Z" style="fill:#fcfbfb"/><path d="M47.43,65.53l-6.31,5.65c-1.28-1.57-2.6-3.05-3.77-4.65-2.55-3.48-5.08-7-7.5-10.56a68.35,68.35,0,0,1-3.64-6.17c-3.21-6-5-12.61-6.58-19.2a79.19,79.19,0,0,1-2.39-14.83c0-.92.24-1.18,1.13-1.17,2.15,0,4.3,0,6.45-.06.61,0,.88.13.95.8a82.84,82.84,0,0,0,3.54,16.78c1.27,3.93,2.84,7.77,4.3,11.64a27.33,27.33,0,0,0,1.57,3.78c1.44,2.56,2.9,5.12,4.57,7.53C42.19,58.59,44.81,62,47.43,65.53Z" style="fill:#fcfbfb"/><path d="M132.13,164.57c0-.86.05-1.72,0-2.57s.33-.89.95-.88,1.1,0,1.09.85c0,2.28,0,4.55,0,6.83,0,.33-.2.89-.42.95-.52.15-1.15.31-1.55-.4-.62-1.11-1.3-2.19-2-3.28a1.14,1.14,0,0,0-.63-.52c0,1,0,2,0,2.94,0,1.36,0,1.38-1.43,1.29-.18,0-.36-.05-.56-.08,0-1.53,0-3,0-4.5,0-1.16.06-2.31.16-3.45,0-.37.21-1,.45-1a1.26,1.26,0,0,1,1.68.55c.53,1,1.13,1.93,1.7,2.89.09.16.21.3.31.45Z" style="fill:#fcfbfb"/><path d="M110.18,164.89c0,2.8-1.78,5-4,5a4.65,4.65,0,0,1,0-9.27A4.19,4.19,0,0,1,110.18,164.89Zm-2.06,0a2.09,2.09,0,0,0-2-2.23c-1.15,0-2.12,1.23-2.13,2.74a2.39,2.39,0,0,0,2.1,2.35C107.19,167.77,108.1,166.51,108.12,164.87Z" style="fill:#fcfbfb"/><path d="M92.79,154.65c-1.93.42-1.93.43-2.41-1.24a3.94,3.94,0,0,0-.29-1.06,1.32,1.32,0,0,0-.85-.57c-.2,0-.5.42-.61.7a5,5,0,0,0-.13,1.11c0,.37-.09.74-.13,1.15a5.52,5.52,0,0,1-.55.07c-1.49-.05-1.48-.05-1.34-1.54.22-2.23.45-4.45.63-6.68.06-.73.33-1,1-.91s1.5.09,2.23.21a2.76,2.76,0,0,1,2,4.4,1.76,1.76,0,0,0-.24,1.72C92.4,152.86,92.56,153.74,92.79,154.65Zm-3.94-5.08.33.28a9.64,9.64,0,0,0,1.54-.86c.11-.08,0-.76-.17-.85-.38-.19-1.17-.35-1.25-.22A6.27,6.27,0,0,0,88.85,149.57Z" style="fill:#fcfbfb"/><path d="M60.41,146.66l-1,1.76c-.3-.13-.57-.24-.84-.37a2.38,2.38,0,0,0-3.62,2.21,5.38,5.38,0,0,0,.17,1.38,1.33,1.33,0,0,0,1.25,1.2,6,6,0,0,0,1.6-.48c-.5-.43-.95-.63-1.08-1a4.38,4.38,0,0,1,0-1.41h3.47c.43,3.3-2.14,5.71-4.93,4.75a3.6,3.6,0,0,1-2.12-2.1,5.55,5.55,0,0,1,1.42-6.15,3.7,3.7,0,0,1,3.49-.79A15.39,15.39,0,0,1,60.41,146.66Z" style="fill:#fcfbfb"/><path d="M83.92,145.72c0,.3.07.48.08.67.08,1.28.07,1.27-1.24,1.28-.46,0-.93,0-1.4,0-.78-.07-1,.27-1,1s.54.83,1.14.75.93-.06,1.51-.09c0,.74.61,1.57-.25,2a6.66,6.66,0,0,1-2.18.26v1.17h2.75c1.21,0,1.22,0,1.19,1.24,0,.25,0,.49-.08.84-1.84,0-3.66,0-5.48,0-.2,0-.51-.62-.53-1-.09-2-.1-4-.14-6.07s0-2.07,2-2.09Z" style="fill:#fcfbfb"/><path d="M100.25,145.69c1.57,0,3.28,0,5,0,.21,0,.51.36.58.6a6,6,0,0,1,0,1.36c-1,0-1.93,0-2.86,0-.7,0-.83.34-.8.93s.16,1,.86.87a3.43,3.43,0,0,1,.56-.05c1.24-.11,1.68.44,1.29,1.65a.91.91,0,0,1-.62.42c-.61.09-1.23.09-1.93.13l-.06,1.16h3.94a3.29,3.29,0,0,1,.13.48c.09,1.66.08,1.66-1.54,1.66-1.28,0-2.56,0-3.83,0-.25,0-.69-.3-.69-.47C100.24,151.56,100.25,148.71,100.25,145.69Z" style="fill:#fcfbfb"/><path d="M68.59,169.69c-1.74.4-1.91.31-2.5-1.22a5.65,5.65,0,0,0-.4-.94c-.11-.17-.4-.38-.53-.34a.84.84,0,0,0-.49.52,4.09,4.09,0,0,0,0,1.21c.06.72-.2,1.05-.95.93-.34,0-.68,0-1.12-.08v-6a13.05,13.05,0,0,0,0-1.77c-.11-.94.32-1.21,1.16-1.18.68,0,1.37,0,2.05,0A2.6,2.6,0,0,1,68,164.33c-.83,1.83-.15,3.27.44,4.84A2.59,2.59,0,0,1,68.59,169.69Zm-4-4.61c1.2-.13,1.78-.77,1.47-1.63a1.18,1.18,0,0,0-.86-.58c-.17,0-.53.4-.59.66A8.77,8.77,0,0,0,64.63,165.08Z" style="fill:#fcfbfb"/><path d="M69.11,154.51l-1.79.3c-.54-.64,0-1.75-1.19-1.89-1.45-.18-1.84.75-2,2l-1.87-.36a3,3,0,0,1,0-.79c.62-2.25,1.21-4.5,1.93-6.71.45-1.38,1.11-1.66,2.12-1.16a.88.88,0,0,1,.43.42c.81,2.52,1.6,5,2.38,7.55A3,3,0,0,1,69.11,154.51Z" style="fill:#fcfbfb"/><path d="M34,162.79v1.5h2.39a5.32,5.32,0,0,1,.1.57c.07,1.42.07,1.42-1.37,1.46-.19,0-.42,0-.55,0a4.57,4.57,0,0,0-.68.64c.2.2.39.54.63.57a9.58,9.58,0,0,0,2.14.11c.85-.05,1.14.29,1,1.1-.06.29-.08.6-.13,1-1.77-.09-3.48-.16-5.18-.29-.19,0-.52-.31-.52-.48,0-2.7.11-5.4.18-8.22,1.88,0,3.64-.05,5.4,0,.78,0,.4.77.46,1.2s0,.81-.63.8C36.22,162.78,35.19,162.79,34,162.79Z" style="fill:#fcfbfb"/><path d="M57.86,160.63l3,9.13c-.83,0-1.4,0-2,0-.16,0-.34-.3-.42-.5a6.61,6.61,0,0,1-.24-.9c-.33-1.15-.7-1.37-1.84-.93a1.1,1.1,0,0,0-.54.74c-.4,1.88-.46,1.93-2.48,1.53.46-1.9.92-3.79,1.4-5.68.13-.51.3-1,.45-1.52C55.8,160.75,55.86,160.71,57.86,160.63Z" style="fill:#fcfbfb"/><path d="M92.53,161.22l1.94-.54,1.7,6.28h.31l2.09-6.19,1.88.54c-.56,1.68-1.08,3.3-1.66,4.9-.34,1-.79,1.89-1.15,2.85s-1.23.74-2,.78-.78-.5-.92-1C94,166.36,93.29,163.85,92.53,161.22Z" style="fill:#fcfbfb"/><path d="M83.2,163a5,5,0,0,0-1.38-.18.91.91,0,0,0-.6.59c0,.17.28.46.5.62a2.54,2.54,0,0,0,.7.26,2.4,2.4,0,0,1,2,2.75A2.93,2.93,0,0,1,82,169.75a2.87,2.87,0,0,1-3.49-1.9c-.18-.6-.05-.95.59-1.09s1.11-.55,1.41.39a1,1,0,0,0,.75.58,1.19,1.19,0,0,0,.91-.44c.29-.46.16-.89-.44-1.09a7.49,7.49,0,0,1-1.56-.59c-1.35-.81-1.51-2.25-.47-3.72a2.84,2.84,0,0,1,4.42-.12Z" style="fill:#fcfbfb"/><path d="M140.53,163.15a4.57,4.57,0,0,0-.42-.23c-.58-.25-1.18-.25-1.4.41s.43.76.89.9c2.24.65,3,2.64,1.66,4.44a3.09,3.09,0,0,1-3.29,1,2.48,2.48,0,0,1-2-1.92c-.15-.51-.12-.93.55-1,.52-.06,1.11-.64,1.42.36a1.09,1.09,0,0,0,.83.61,1.2,1.2,0,0,0,.91-.57c.1-.21-.16-.69-.4-.91s-.63-.21-.95-.33c-1.64-.67-2.21-1.88-1.58-3.32a3.08,3.08,0,0,1,4-1.66c.9.42,1,.74.35,1.53C140.92,162.71,140.74,162.91,140.53,163.15Z" style="fill:#fcfbfb"/><path d="M121.55,161.75a4.43,4.43,0,0,1-.69.91,1.59,1.59,0,0,1-.83.24,4.58,4.58,0,0,0-1,0,.92.92,0,0,0-.46.63c0,.15.25.39.44.51a4,4,0,0,0,.78.28,2.34,2.34,0,0,1,2,2.75,2.82,2.82,0,0,1-2.33,2.67,3.56,3.56,0,0,1-3.6-1.42c-.2-.33-.27-1.07-.07-1.25a2.57,2.57,0,0,1,1.47-.47c.21,0,.58.32.65.57a.73.73,0,0,0,1.06.56c.32-.13.54-.49.81-.75-.27-.27-.5-.68-.83-.8-1.88-.66-2.51-1.32-2.42-2.72a3.06,3.06,0,0,1,1.85-2.49A2.75,2.75,0,0,1,121.55,161.75Z" style="fill:#fcfbfb"/><path d="M41.4,166.49c.23.88.49,1.6,1.46,1.2a1.17,1.17,0,0,0,.61-.79c0-.2-.31-.51-.56-.68a3.19,3.19,0,0,0-.79-.26c-1.28-.45-1.88-1.18-1.88-2.25A3,3,0,0,1,42.13,161a2.67,2.67,0,0,1,3.18.79c-.16.23-.32.48-.5.72s-.36.42-.57.67l-.5-.24c-.56-.23-1.1-.21-1.33.41s.41.79.85.9c1.26.32,2.18.91,2.26,2.34a2.8,2.8,0,0,1-1.42,2.83,3.07,3.07,0,0,1-3.58-.25,4.63,4.63,0,0,1-.86-1.7c0-.12.16-.46.33-.53A12.06,12.06,0,0,1,41.4,166.49Z" style="fill:#fcfbfb"/><path d="M74.5,169.7h-2v-3.38c0-.9,0-1.8,0-2.7s-.28-1.08-1-1a5.5,5.5,0,0,1-1-.07v-1.89h3.92l.93,0c1.08,0,1.48.57,1.09,1.59a.88.88,0,0,1-.62.39,9.74,9.74,0,0,1-1.34.09Z" style="fill:#fcfbfb"/><path d="M26.39,160.89l-.53,6.69,2.79.27c1.28.1,1.28.1,1.13,1.37a6.92,6.92,0,0,1-.18.73l-6-.38c.05-.8.08-1.53.15-2.26.15-1.76.34-3.53.48-5.29.11-1.47.08-1.47,1.51-1.25C25.93,160.79,26.08,160.83,26.39,160.89Z" style="fill:#fcfbfb"/><path d="M73.23,152.74h3a2.29,2.29,0,0,1,.13.24c.14,1.76.14,1.75-1.58,1.78-.93,0-1.86.09-2.79.05-.27,0-.74-.34-.74-.52,0-2.8,0-5.59,0-8.39a1,1,0,0,1,.28-.11c1.63-.16,1.69-.12,1.7,1.49C73.24,149.05,73.23,150.82,73.23,152.74Z" style="fill:#fcfbfb"/><path d="M123.52,160.79h2.08c0,1.44,0,2.83,0,4.23s0,2.68.08,4c0,.63-.19.86-.8.8s-1.25.18-1.26-.79c0-2.06-.07-4.12-.09-6.18C123.52,162.2,123.52,161.52,123.52,160.79Z" style="fill:#fcfbfb"/><path d="M97.77,154.84a1.72,1.72,0,0,1-.37.1c-1.71.07-1.69.07-1.59-1.66.13-2.11.25-4.23.31-6.35,0-.86.25-1.19,1.18-1.16s.94.49.89,1.19C98,149.57,97.91,152.19,97.77,154.84Z" style="fill:#fcfbfb"/><path d="M112,160.84a2.65,2.65,0,0,1,.29-.08c1.59-.15,1.6-.13,1.63,1.47,0,2.12.09,4.24.13,6.36,0,1.25,0,1.31-1.3,1.22a6.23,6.23,0,0,1-.75-.12Z" style="fill:#fcfbfb"/><path d="M108.12,164.87c0,1.64-.93,2.9-2.06,2.86a2.39,2.39,0,0,1-2.1-2.35c0-1.51,1-2.76,2.13-2.74A2.09,2.09,0,0,1,108.12,164.87Z" style="fill:#ee494e"/><path d="M88.85,149.57a6.27,6.27,0,0,1,.45-1.65c.08-.13.87,0,1.25.22.17.09.28.77.17.85a9.64,9.64,0,0,1-1.54.86Z" style="fill:#ee494e"/><path d="M64.63,165.08a8.77,8.77,0,0,1,0-1.55c.06-.26.42-.69.59-.66a1.18,1.18,0,0,1,.86.58C66.41,164.31,65.83,165,64.63,165.08Z" style="fill:#ee494e"/></g></g></svg>