<?xml version="1.0" encoding="utf-8"?>
<!-- Generator: Adobe Illustrator 23.0.1, SVG Export Plug-In . SVG Version: 6.00 Build 0)  -->
<svg version="1.1" id="Layer_1" xmlns="http://www.w3.org/2000/svg" xmlns:xlink="http://www.w3.org/1999/xlink" x="0px" y="0px"
	 viewBox="0 0 481.9 62.4" style="enable-background:new 0 0 481.9 62.4;" xml:space="preserve">
<style type="text/css">
	.st0{fill:#345899;}
</style>
<g transform="translate(0.000000,2440.000000) scale(0.100000,-0.100000)">
	<path class="st0" d="M2941.4,24368.7c-2.9-0.8-6.1-3.4-7.5-6.2c-1.4-2.9-2-7.6-1.3-10.5c1.1-4.9,5.5-8.8,10.7-9.5
		c3.7-0.5,6.2,0.3,11.7,3.8c1.6,1,3.3,2.1,3.9,2.4l1.1,0.6l-0.2,3.4c-0.1,2.3-0.3,4-0.7,5.3c-1.5,5.4-5,9.1-9.8,10.4
		C2947.7,24368.8,2942.7,24369.1,2941.4,24368.7z"/>
	<path class="st0" d="M3244.8,24361c-4.3-0.7-7.8-3-10.2-6.7c-1.4-2.1-1.9-4.1-1.9-6.6c0-2.7,0.6-4.6,2.3-7.1
		c1.6-2.3,3.4-3.9,5.9-5.2c2.6-1.3,4.3-1.6,7.9-1.5c2.4,0.1,3.3,0.3,5.1,0.9c4.1,1.4,7.6,4.3,9.3,7.7c0.7,1.4,0.8,2,0.9,4
		c0.1,2.2,0.1,2.5-0.7,4.3c-2,4.7-6.4,8.6-11.3,9.8C3250,24361.2,3246.7,24361.4,3244.8,24361z"/>
	<path class="st0" d="M511.8,24338c-9.2-1.2-17.3-4.5-27.8-11.5c-5.8-3.8-9.9-7.2-15.2-12.5c-7.8-7.8-13-15-17.9-24.5
		c-4.7-9.1-7.4-16.7-14.1-39.1c-2.2-7.2-4.7-15.4-5.6-18.2c-2.6-7.9-3-9.6-3.5-14.3c-0.7-5.7-1.3-9.4-2.6-14.2l-1-3.9v-8.8v-8.8
		l0.9-2c2.6-5.8,4.9-12.4,6.1-17.9c4.3-19.4,17.1-37,34.4-47.4c4.1-2.5,7.7-4.2,14.4-6.8c9.9-4,26-11.9,31-15.2
		c5-3.4,9.1-8.6,11.1-14.5c0.9-2.5,1.4-5,1-5.2c-0.2-0.1,0.5-1.4,2.1-3.8c2.6-3.9,5.7-9.7,7.5-14.1c2-4.9,5.2-20.2,6.8-32.7
		c1.6-12.5,2.2-21.1,2.2-34.6c0-18.1-1.1-29.9-3.5-37.3c-3.4-10.8-9.5-19.5-18.7-26.8c-6-4.8-12.4-7.6-18.2-7.9
		c-2.8-0.2-4.2,0.1-5.4,1.1c-1.9,1.6-2.9,11.2-1.9,18.1c0.5,3.5,0.4,6.9-0.4,9.6c-1.1,3.9-3.1,7.3-8.3,14c-1.6,2-3.2,4.2-3.7,4.9
		l-0.9,1.3l-8.1,0c-4.5,0-8.1,0.1-8.1,0.2c0,0.1,0.2,0.5,0.5,0.9c0.3,0.4,0.4,0.7,0.3,0.7c-0.2,0-0.6-0.5-0.9-1
		c-1.1-1.7-2.4-2.2-4.4-1.7c-0.7,0.2-0.9,0.1-4-3.1c-9.7-9.9-15.2-21.2-17.6-35.3c-0.3-1.6-0.5-4.9-0.5-9.2
		c-0.2-7.3,0.2-11.6,1.4-19c1.6-9.5,2.8-13.6,7.5-23.9l2.1-4.6l2.3-1.3c12.9-7.1,26.7-10.4,42.7-9.9c12.1,0.3,22.7,2.5,34.1,7
		c32.4,12.8,56.7,40.3,65.7,74.7c4.9,18.8,6.6,52.6,4.1,82.7c-1.1,13.5-3.2,28-6,41.4c-0.6,2.7-1.5,8-2.2,11.9
		c-2.1,12.9-1.9,12.1-4.5,17.1c-13.7,26.5-34.8,48.6-61.1,63.7c-4.2,2.4-10.4,5.6-10.6,5.4c-0.3-0.2-10.4,2.6-15.2,4.2
		c-10,3.4-13.8,6.5-15.8,12.8c-1.5,4.7-1.9,10.9-1.9,27.8c0,14.3,0.2,17.9,1.4,26.8c2,14.1,5.9,26.5,11.5,36.3
		c2,3.5,6.2,9.6,8.5,12.3c3.8,4.5,8.8,8.8,11.2,9.7c3.1,1.1,6.8,0.5,9.5-1.4c2.4-1.8,2.5-2,3.8-9.2c1.8-10,2.6-16.1,3.6-26.7
		c1-11,1.8-17.2,3-22.8c0.7-3.3,0.9-4,1.7-5.3c1.9-2.8,5.2-5.3,8.5-6.3c2.5-0.8,3.6-0.8,5.7,0c2.2,0.8,4.1,2.1,5.8,3.9
		c2,2.2,2.7,3.5,3.7,7.5c3.5,13.9,4.9,27.2,4.4,42c-0.4,12.8-3,27.7-5.9,35.1c-3,7.4-6.6,13-11.6,17.9c-5.7,5.7-12.5,9.3-20.4,10.9
		C522,24338.1,514.8,24338.3,511.8,24338z"/>
	<path class="st0" d="M1025.3,24324.7c-36.1-18.5-61.8-48.3-78.7-91.2c-5.9-14.9-8.8-25.3-19.6-69.6c-2.6-10.5-4.6-18.1-5.4-20.5
		c-1.4-4-4-10.7-5-12.7c-0.5-0.9-0.6-1.8-0.7-4.6c-0.1-1.9-0.5-8.9-0.9-15.5c-0.9-14.3-1.2-21-1.4-29.1c-0.1-3.3-0.4-10.3-0.6-15.5
		c-2.1-39.3-3.7-83.9-4.5-122.6c-0.6-27.5,4-50.6,14.2-71.4c6-12.3,13.1-22.3,22.8-32.3l3.8-3.8l5.3-2c3-1.1,8.1-3.4,11.5-5
		c31.3-15.4,54-19.1,73.4-12c2.9,1.1,8.2,3.8,11,5.6c13.2,8.7,24.8,23.5,36,45.9c5.5,10.8,13.1,28.9,21.7,51.3l2.6,6.7l0.5,5.1
		c1.9,20.5,3.8,46.7,3.8,52.6c0,4.8,1.6,8.6,5.1,12.1c2.6,2.6,4.7,3.7,8.5,4.7c4.3,1.1,5.6,1.8,10.5,5c6.3,4.1,9.7,8.8,11.3,15.3
		c0.8,3.2,0.8,7.7,0,10.5c-2.6,9.3-11.1,16.2-20.4,16.7c-2.3,0.1-6.8-0.4-46.6-5.8l-44.1-5.9l-2.2-1.1c-5.6-2.7-11-7.2-12.9-10.9
		c-1.6-3-2.1-6.5-1.5-9.3c0.4-1.6,2.3-5.4,3.9-7.8c1.8-2.7,5.5-6.5,7.6-7.9c3.5-2.3,8.2-4.3,12.7-5.3c4.5-1,11-4.2,13.7-6.7
		c3.5-3.4,4-7.4,2.1-18.9c-4.4-26.5-13.7-51.6-27.6-74.2c-11.8-19.2-20.8-22-36.7-11.3c-3,2-9,6.5-10.2,7.7
		c-4.2,4-7.2,10.7-7.2,15.9c0,1.2-0.1,1.5-0.9,2.6c-1,1.3-1.2,2.5-0.5,3.5c0.3,0.5,0.3,0.8-0.5,2.9c-2.9,7.3-5.4,18-6,25.4
		c-0.6,6.9-1.4,22-2.1,39.8c-0.4,10.7-0.6,54-0.3,67.3c0.8,30.9,3.2,69.5,4.8,77.4c0.8,4,2.4,9.5,3.6,12.8c0.8,2.3,0.9,2.5,0.5,3.2
		c-0.7,1.4-0.4,3.4,0.8,4.7c0.2,0.3,0.4,1.7,0.6,4.4c2.4,35.1,12.3,68.4,29.5,98.5c5.7,10,9.7,15.4,16,21.4
		c8.7,8.5,18.6,13.4,30.2,15.2c7.4,1.2,14.2,1.1,17.8-0.1c2.4-0.8,4.4-2.8,5.1-5.2c1.2-3.8,1.6-11.4,1.6-25.2l-0.1-10.3l2.5-2.2
		c2.3-1.9,2.8-2.3,5.6-3.4c4.6-1.8,7.5-2.5,10.7-2.6c3.2,0,4.6,0.4,6.5,1.8c2.5,1.9,4,4.8,5.9,11.6c2.9,10.3,4,17.7,4,26
		c0,8.7-1.4,15.2-4.7,22c-4,8.3-9.2,14.1-19.4,21.5c-1.1,0.8-2.6,2.2-3.2,2.9c-0.7,0.8-1.4,1.6-1.5,1.9c-0.3,0.3-0.7,0.4-1.4,0.4
		c-1.1,0-50.2,1.5-54.1,1.6l-2.4,0.1L1025.3,24324.7z"/>
	<path class="st0" d="M1255.5,24319.8c-13.4-0.9-27-3.7-41.7-8.6c-6.4-2.2-8-2.9-10.6-4.8c-4.2-3.1-7.6-8.5-8.4-13.3
		c-0.3-1.8-0.7-8.9-1.7-27c-0.3-6.6-1.9-34.6-3.6-62.1c-3.6-61.1-4.7-80.5-6-105.7c-3.6-68.1-3.7-72.1-3.6-192.8l0-44.9l3-2.2
		c4.8-3.4,12.1-6.4,19.1-7.8c3.4-0.7,9.3-0.6,12,0.2c9.5,2.5,15,10.3,17.4,24.4c0.5,3.2,0.7,4.8,0.8,10.9c0.3,13.5-0.3,35-2,73.5
		c-1.4,32.6-1.6,38.6-1.6,47.3c0,12,0.6,18.9,1.8,21.4c1.6,3.2,4.6,5.9,8.7,7.8c3.2,1.5,6.2,2.3,11,2.9c3,0.4,4,0.4,5.4,0.2
		c3.8-0.6,7.5-3.3,9.2-6.6c0.5-1,1.7-4.8,3.4-11.3c10.9-40.6,26.8-98.1,38.5-139.4l3.8-13.6l3.7-6.5c9.3-16.3,14.9-24.9,18.6-28.6
		c7.2-7.2,18.2-9.2,27.5-5c4.4,2,9.2,6.7,11.6,11.5c1,1.9,2.2,5.4,2.6,7.6c0.4,2.2,0.5,7.9,0,10c-0.9,4.2-4.4,13.9-21.1,58.7
		c-17.4,46.5-22.8,61.4-30.9,86.1c-1.8,5.6-4,11.6-4.7,13.3c-0.7,1.7-3.5,7.5-6.1,12.8c-5.4,10.8-6.7,13.7-8.1,18.1
		c-1.6,4.7-2.1,7.5-2.1,11.8c-0.1,5.5,0.8,8.5,3.9,14.5c4.1,7.8,8.1,12.8,22.1,27.8c3.6,3.9,8,8.7,9.7,10.6l3.1,3.6l16.4,32.8
		l16.4,32.8l0.3,6.9c0.2,3.8,0.3,14.8,0.4,24.3c0.1,10.8,0.2,17.6,0.4,17.7c0.7,0.8-0.4,3.4-5.3,12.3c-1.8,3.3-4.3,8-5.5,10.6
		c-4.5,9-10.2,18-16.9,26.3c-19.5,24.3-43.4,37.9-72,41C1270,24319.9,1260,24320.1,1255.5,24319.8z M1258.1,24275.5
		c25.1-2.5,47.1-17.6,58.4-40.1c4.3-8.4,7.1-18.6,7.1-25.3c0-8.4-1.8-16.7-5.2-24.1c-2.7-5.7-15.9-26.7-26.3-41.5
		c-11.9-16.9-27.1-36.7-31.9-41.3c-3.4-3.2-6.3-5.5-14.3-11.4c-3.7-2.7-7.7-5.7-9-6.6c-2.6-2.1-2.5-2.1-4.6,0.4
		c-5.2,6.2-6.2,12.1-4.4,25.8c0.8,5.8,0.9,11.7,0.4,16.4c-0.6,5.2-0.6,15.3-0.2,28.2c0.5,15.8,0.5,17.9,0,17.9
		c-0.4,0-0.4,4.5-0.3,42.4c0.1,41.9,0.1,42.4,0.6,44.6c2.1,8.9,7.1,13.2,17.2,14.5C1248.2,24275.7,1255.1,24275.8,1258.1,24275.5z"
		/>
	<path class="st0" d="M339.8,24317.6c-22.5-1-38-4.3-52.1-11.2c-9.3-4.6-16.9-10.1-24.1-17.7l-3.1-3.2l-0.2-7.4
		c-0.1-4-0.3-9.5-0.5-12.2l-0.3-4.8l1.3-1.5c1.7-1.9,3.5-4.6,4.6-6.8l0.9-1.7l0.4-12.9c0.5-16,0.6-43.3,0.1-50.7
		c-1-16.2-3.2-31.3-5.9-42c-0.8-2.9-0.8-3-0.8-9.8c0-3.8-0.2-10.4-0.4-14.6c-0.2-4.3-0.6-13.9-0.9-21.5c-1.2-30-2-42.6-4-60.9
		c-1.5-13.2-1.9-19.8-2.5-32.2c-0.3-8.3-0.2-34.5,0.3-42.5c1.4-26.6,3.6-48.1,8.3-83.3c1.7-12.9,2.4-15.6,5.1-21
		c5.3-10.6,15.5-18.5,27.2-21.1c5.9-1.3,10.9-1.2,18.4,0.3c2.1,0.4,6.6,1.3,9.9,1.9c18.3,3.6,36.1,8.8,50.1,14.9
		c10.1,4.3,21.8,10.2,26.2,13.2c4.9,3.3,9,9.3,10.7,15.6c0.8,2.8,0.9,8.6,0.4,11.6c-0.5,2.8-2,7-3.1,9.1c-3.7,6.8-11,11.3-18.7,11.8
		c-1.6,0.1-4.4-0.1-9-0.5c-14.9-1.5-24.5-2.9-39-5.5c-7.6-1.4-8.1-1.4-9.9-1.2c-4.4,0.6-8,3.6-9.6,7.7c-0.6,1.5-1.2,6.6-3.8,32.4
		c-3.3,32.1-4.8,50.9-5.5,65.8c-0.7,17.8,0.5,19.8,14.7,24.8c5.6,2,35,13.4,36.8,14.2c3,1.5,6,4.4,7.9,7.5c1,1.7,1.9,4.8,2.3,7.2
		c1,8-4,15.6-11.9,18.2c-1.8,0.6-1.9,0.6-19,0.7c-15.2,0.1-17.3,0.2-18.7,0.6c-5,1.5-7.4,3.8-8.6,8.3c-0.5,1.8-0.6,3.4-0.9,13.7
		c-0.2,6.4-0.6,19-0.9,28.1c-1.5,48.9-1.8,69.8-1.3,87.6c0.1,4.1,0.3,12.1,0.4,17.9l0.2,10.4l1.2,0.7c2,1.3,5.7,3,8.4,3.9
		c7.5,2.6,15.6,3.1,31.7,1.7c7.4-0.6,10.7-0.6,14.2,0.2c6.2,1.4,11,4.1,15.5,8.6c4.6,4.6,7.4,9.7,8.7,16c1.6,7.9-1.6,17-8.3,23.3
		c-4.8,4.6-10.6,7.1-17.5,7.7C362.6,24317.7,344.1,24317.8,339.8,24317.6z"/>
	<path class="st0" d="M1548.9,24317.2c-2.6-0.3-5.6-1.1-8.3-2.3c-4.5-1.9-7.8-4.3-13.1-9.3c-6.5-6.1-12-12.7-17-20.1
		c-6.2-9.4-9.4-15.7-14.1-28.8c-1.1-2.9-5.3-14.1-9.3-25c-4.1-10.8-8.7-23.3-10.2-27.7l-2.9-7.9l-0.5-4.2
		c-4.6-39.2-14.8-79.3-29.8-116.6c-2.2-5.4-2.2-5.4-2-7.2c0.2-1.7,0.1-1.8-0.6-2.5c-0.4-0.4-0.9-0.8-1.1-0.8
		c-0.2-0.1-2.2-7.7-4.5-17c-4.1-16.5-6.3-24.9-16.1-62.9c-9.2-35.8-11.4-44.4-12.1-49.2c-0.4-2.5-1.4-9.1-2.3-14.7
		c-4.2-26.5-5.6-39.2-6.3-59.6c-0.3-7.6-0.2-8.6,1.1-11c0.6-1.3,2.8-3.6,4-4.3c2.4-1.5,6-2,8.6-1.2c3.6,1.2,6.8,3.4,8.7,6
		c1.2,1.6,8.7,16.4,11.1,22c3.4,7.8,5,13.1,7.3,24.7c3.6,17.8,10.7,50.3,11.6,52.9c2.3,6.4,7.7,11.7,14.1,13.7c1,0.3,12.7,3.9,26,8
		c13.3,4.1,25.1,7.6,26.2,7.8c5.6,1,8.9-1.3,9.9-6.9c0.3-1.4,0.2-4.2-0.1-13.3c-0.6-17.5-0.8-24.9-1.7-53.9
		c-0.9-31.1-1.4-48.8-1.9-61.1l-0.3-8.8l0.9-1.7c1.2-2.3,4.8-7.7,6.4-9.6c0.7-0.8,1.6-2.1,2-2.8c2.7-4.7,7.7-9.1,12.7-11.2
		c4.3-1.8,10-2.6,14.2-2c2.8,0.4,7.6,1.6,9.8,2.6c3.7,1.5,7.4,4.4,9.8,7.7c3.4,4.6,5.9,11.3,6.8,18.1c0.6,4.2,0.7,21.1,1.6,165.2
		c0.4,61.2,0.8,206.2,0.7,215c-0.3,15.2-1.8,31.1-4.8,48.4c-1.9,11.6-5.2,26.4-6.9,31.6c-2.9,8.7-7.8,14.8-14.6,17.9
		c-2.9,1.4-4.7,1.9-7.8,2.2C1551.6,24317.5,1551.6,24317.5,1548.9,24317.2z M1528.7,24194.3l1.5-6.2l0.3-39.5
		c0.2-21.7,0.4-55.1,0.5-74.3c0.3-42.5,0.2-45-1.8-48.8c-2-3.7-5.8-5.8-15-8c-2.4-0.6-32.9-6.1-37.1-6.7c-0.5-0.1-0.8,0.4-2.4,3.5
		c-1.4,2.7-1.8,3.8-1.8,4.6c0,1.4,3.5,13.1,26.3,89.3c7.2,24.2,14.9,50,17.1,57.4c2.2,7.4,4.5,15.2,5.2,17.4
		c0.7,2.2,1.2,4.2,1.2,4.4s0.2,1.1,0.5,1.9c0.3,0.8,0.9,2.9,1.4,4.7c1.6,5.6,2.2,7.4,2.5,6.8
		C1527,24200.7,1527.8,24197.7,1528.7,24194.3z"/>
	<path class="st0" d="M4216.8,24311.3c-5.4-0.9-8.1-1.9-14.6-5.2c-7.5-3.8-14.7-8.2-21.5-13.2c-3.9-2.9-13.7-11-19.1-15.8
		c-4.5-4-13.7-13.1-17.9-17.8c-11.2-12.3-22.1-27-30.5-41.1c-3.5-5.9-5.4-8.7-12-17.2c-1.6-2.1-3.1-4.2-3.3-4.7
		c-0.2-0.4-0.6-1.1-0.9-1.4c-0.3-0.3-0.8-1.1-1.1-1.8c-0.7-2.1-4.9-12-8.9-20.9c-2-4.5-3.7-8.8-3.8-9.5c-0.1-0.7-0.4-1.5-0.7-1.9
		c-0.3-0.4-1.2-3.1-1.9-6.1c-2-7.6-4.8-17.3-8.2-29.1c-1.6-5.6-3.1-11.1-3.3-12.4c-0.5-3.4-1.3-6.8-2.2-9.4
		c-0.4-1.3-0.7-2.7-0.7-3.5c0-1.1-0.1-1.4-0.8-2.2l-0.8-0.9l-6.5-57.5c-3.5-31.6-6.6-59-6.7-60.9c-0.4-4.5-0.4-20.4,0-25.1
		c1.5-18,4.9-33.8,10.7-49.3c2.4-6.5,7.3-17.6,9.2-21.1c3.5-6.5,7.7-12,12.8-17.2c11.6-11.7,26.2-19.1,42.6-21.7
		c3.1-0.5,5.1-0.6,16.7-0.7c7.3-0.1,14.9-0.3,16.9-0.4c5.5-0.3,14.7,0.4,20.9,1.4c26.7,4.6,46.8,19.9,59.8,45.6
		c2.6,5.1,3.9,8,5.1,11.6c2.4,6.9,5.6,13.7,7,14.8c0.5,0.3,1.6,1.1,2.6,1.7c1.3,0.8,1.8,1,1.9,0.7c0.1-0.2,0.8-1.8,1.8-3.7l1.7-3.3
		l-0.3-3.7c-0.2-2.1-0.4-4.8-0.5-6.2l-0.1-2.4l1.3-3.1c0.7-1.7,2.5-6,3.9-9.5c5.7-14.4,7.9-19,12.2-24.7
		c16.6-22.1,34.6-33.6,56.9-36.4c4-0.5,14.6-0.4,19.1,0.2c8.2,1,15.6,2.7,24,5.5c6.3,2.1,12.5,4.5,13.1,5.1
		c1.3,1.3,30.4,44.8,32.2,48.1c0.1,0.3,0.5,2,0.8,3.8c0.9,5.2,2.1,9.9,4,15.1c12.2,33.8,19.7,65.4,23.8,100.7
		c3.4,29.3,4.3,62.2,2.3,94.8c-0.9,16.1-3.1,38.3-4.6,48c-3.6,23.3-12.5,40-27.8,52.8c-3.5,2.9-5.3,4.9-7.4,7.9
		c-2.8,4.2-4.5,7.9-5.8,12.7c-1.8,6.7-7.7,15.1-13.6,19.4c-11.1,8-25,7.2-37.4-2.2c-12-9-23.3-20.7-32.6-33.7
		c-19.3-26.9-35.3-59.1-45.1-90.5c-9.4-30.1-14.2-59.3-19.4-117.5c-1.6-17.8-1.8-19.5-3.5-22.9c-1.1-2.3-3.6-4.8-5.8-5.8
		c-2.4-1.1-4.3-1.6-8.7-2c-5.6-0.5-8.1-1.2-11.8-3.1c-5.3-2.7-9.1-6.8-15-16.2c-3.5-5.5-5.3-8.9-9.4-17.1
		c-5.3-10.7-6.8-13-11.9-18.3c-8.3-8.6-18.2-13.8-30.3-16c-4.4-0.8-13.1-0.9-17.3-0.2c-7.7,1.3-15.3,4.2-21.3,8.1
		c-2.5,1.6-5.4,4.8-6.8,7.2c-2.5,4.4-7.5,20.8-9.9,32.1c-3,14.2-3.7,23.5-3.4,44.8c0.4,33.8,3.6,64.2,9.9,96.5
		c5.6,28.4,14.6,59.9,22.8,80.4c10.5,26.1,25.1,49.6,44,71.1c9.7,11,28.1,28,32.1,29.6c3.3,1.3,7.1,1.8,10.5,1.4
		c1.2-0.2,2.5-0.5,2.9-0.7c1-0.5,2.1-2.4,2.9-4.8c1.2-3.6,1.1-10-0.2-18.8c-0.4-2.7-0.7-3.8-1.5-5.6c-3.1-7.1-4.8-16-3.8-20.1
		c1.3-4.9,5-9,9-9.9c3.7-0.8,7.5-0.3,11,1.4c1.7,0.8,2.5,1.4,4.2,3.3c9.6,10.2,16.2,26,18.2,43.4c0.5,4.3,0.4,13.7-0.1,17.8
		c-0.9,6.6-2.4,11.4-5.2,16.8c-2.2,4.2-4.5,7.4-7.5,10.5c-6.5,6.6-14.9,10.8-24,12.2C4226.6,24312,4220.1,24311.9,4216.8,24311.3z
		 M4371.5,24175.8c1.5-0.5,3.3-1.5,8.5-5c8.1-5.4,12.8-10.6,16.6-18.2c2.9-5.8,3.8-9.2,4.7-17.7c7.1-63.8,4.5-119.3-8.1-169.6
		c-3.3-12.9-7.5-26.9-11.9-38.6c-3-7.9-6.8-16.1-11.1-23.7c-4-7.2-11.4-17.9-13.5-19.8c-4.5-3.9-11.6-4.5-16.3-1.2
		c-0.7,0.5-2.7,1.8-4.3,2.9c-7.1,4.8-11.7,9.9-15.4,17.3c-3.2,6.4-4.2,10.7-4.6,19c-0.5,9.4-0.8,29.8-0.8,48.7v18.7l-1.2,0.3
		c-0.6,0.2-1.2,0.5-1.3,0.6c-0.1,0.2,0.2,2.6,0.7,5.3c1.3,8.1,2.2,15.2,4.7,34.4c4.5,35.5,6.8,51.2,9.4,62.1
		c6,26.2,16,51.3,29.6,74.7c3.1,5.3,3.8,6.4,5.3,7.8c1.8,1.7,3.3,2.4,5.7,2.4C4369.3,24176.3,4370.7,24176.1,4371.5,24175.8z"/>
	<path class="st0" d="M2683.6,24309c-5.6-0.8-11.1-3.3-15.3-7.1c-1.8-1.6-4.3-4.9-5.4-7c-2.2-4.3-5.4-13.6-7.3-20.8
		c-0.6-2.4-1.7-6.6-2.4-9.1c-3.7-13.3-6.9-29.7-8.9-44.4c-3.1-23.2-8.1-49.4-15.1-78.3c-4.8-20.1-9.9-38.8-20.9-77.6
		c-2.5-8.9-4.6-16.5-4.7-16.9c-0.1-0.4-0.9-3.5-1.7-6.9l-1.6-6.1l-2.1,6.3c-2.1,6.2-2.2,6.9-7.3,30.3
		c-16.2,75.4-28.1,129.3-32,145.1c-1.4,5.5-1.7,8.1-1.5,13.7c0.2,6.3,0.9,9.7,3.3,15.7c1.2,3.1,1.6,5.1,1.6,8.2
		c0,5.5-2.3,10.8-6.1,14.5c-2.7,2.6-10.2,7.5-15.7,10.2c-5.7,2.9-14.1,5.9-17.9,6.4c-2.9,0.4-6.5-0.4-9.2-1.9
		c-2.9-1.7-5.8-5.6-6.6-9.1c-0.7-3.1-0.5-8.7,1.2-27c0.7-8.3,1.5-15.1,2.8-24.1c1-6.9,3.3-23.7,5.1-37.4c3.5-26.1,6.7-49.2,7.3-52.9
		c0.3-1.7,0.6-2.8,1.6-4.7c2.4-4.9,3.9-9.7,4.9-15.8c0.8-5.2,1.1-9,1.2-20.1c0.1-7.5,0.4-15.5,1.2-27.9c2.5-44.2,4-72.9,7-138.9
		c1.2-25.2,1.2-25.9,4.1-50.9c0.9-7.9,1.9-16.9,2.2-20.1c0.8-8.5,1.9-13.7,4.5-21c0.6-1.8,1.4-3.9,1.7-4.8c1.4-4,3.6-7.6,6.9-11
		c4.4-4.5,10.3-7.6,16.4-8.6c1.1-0.2,2.9-0.5,4.1-0.7c9.2-1.5,18.7,1.5,25.4,8.1c3.5,3.5,4.2,4.7,13.3,23.4l2.4,4.9l2.2,12.6
		c6,35.5,19.4,109,21.2,116.6c1,4.2,2.6,9.9,5.5,19c1.4,4.5,2.9,9.4,3.4,10.9l0.8,2.7l0.1,6.4l0,6.4l27.6,120.3
		c15.2,66.1,27.9,121.8,28.2,123.6c1.4,7.7,2.6,18.3,2.3,21.2c-1.2,11-8.9,20.7-19.5,24.3
		C2689.7,24309.2,2686.3,24309.4,2683.6,24309z"/>
	<path class="st0" d="M3660.7,24307.8c-21-2.6-35.8-17.7-50.7-51.6c-7.3-16.6-11.8-31.1-17.1-55c-5.4-24.2-10.1-53.5-10.8-67.1
		c-0.6-12.9,1.1-25.5,4.8-35.5c5.9-15.9,16.5-28.1,32.2-37.2c3.2-1.8,8.4-4.3,11.7-5.6c15.2-6,27.6-19.1,32.9-34.8
		c3.4-9.9,8.7-40.1,11.4-64c1.3-11.4,1.3-15.6,0-21.9c-3.8-18.7-16.9-33.5-34.8-39.6c-4-1.3-5.4-1.4-7.8-0.6c-2.9,1-6.7,3.7-7.2,5.3
		c-0.5,1.8-2.2,17-2.8,26c-0.6,9.3-1,29.9-0.6,38.8c0.4,10.8,0.1,15.8-1.4,19.2c-1.6,3.7-4.5,7.1-7.7,9c-1,0.6-3.5,1.6-5.8,2.4
		c-3.6,1.2-4.2,1.3-6.9,1.5c-3.5,0.1-5.7-0.2-8.5-1.3c-4-1.5-7.4-4.5-10.9-9.3c-4.6-6.4-7.2-12.4-8.7-19.5
		c-6.6-31.1-5.2-64.6,4.1-95.3c2.4-8,5.2-14.1,9.2-20.2c3.2-4.8,9.6-12.2,12.8-14.9c6.9-5.7,14.9-8.6,23.7-8.6
		c4.8,0,7.6,0.5,13.8,2.5c22.6,7.4,44,19.5,62.4,35.3c11.1,9.5,17.3,17.2,22.9,28.4c3.8,7.5,5.8,13.8,7.9,24
		c1.5,7.6,3.3,14.9,5.2,21.1c0.8,2.7,1.5,5.4,1.6,5.9c0.1,0.6-0.2,1.8-0.9,4c-0.6,1.7-1.3,4.3-1.6,5.8c-0.3,1.6-1,5.3-1.6,8.2
		c-0.8,4.2-1.1,6.6-1.4,10.9c-2.2,34.2-10.5,65.1-25.1,94.3l-1.9,3.8l-5.1,4.5c-12.9,11.3-17.6,15.1-23.6,19.3
		c-7.8,5.5-16.3,9.7-23.7,11.8c-4.2,1.2-6.4,2.5-9.1,5.1c-3.8,3.7-5.2,7.2-5.4,12.8c-0.1,1.7-0.3,6.2-0.4,10
		c-1.5,32.6,4.5,67.7,16.7,98.8c2.7,6.7,6.6,15.5,7.7,17.1c4.7,7,11.1,9.6,16.8,6.8c3.2-1.6,5-3.7,8-9.5c3.7-7,6.4-14.1,8.2-21.6
		c1.8-7.1,2.1-9.5,2.1-15.9c0-8.1-0.7-23.6-1.5-35.5c-0.1-1.9-0.8-10.7-1.4-19.5c-1.6-21.7-1.5-21.4-2.6-25.9
		c-1.3-5.5-1.8-12.7-1.1-16.7c0.3-2.2,1.5-4.6,2.8-5.9c1.9-1.9,6.4-3.6,9.4-3.6c3.5,0,7.6,1.8,10.2,4.4c1.4,1.4,7.8,7.1,8,7.2
		c0,0,1.3,7.5,2.9,16.7c3.4,20,6.9,39.7,8.8,50.1c0.8,4.2,1.8,9.7,2.2,12.3c0.4,2.6,1.2,6.4,1.7,8.5l0.9,3.8v9.2v9.2l-1,2.4
		c-0.6,1.3-1.3,3.2-1.6,4.3c-0.3,1.1-0.8,3-1.3,4.3c-0.4,1.3-1.2,4-1.8,6.2c-1.9,7.2-5.9,18.1-8.7,24.2c-2.2,4.8-6.6,12-10.5,17.1
		c-6.7,8.8-13.8,14.8-22.2,18.9c-4.6,2.3-8.2,3.4-13.6,4.4C3672.7,24307.8,3662.9,24308.1,3660.7,24307.8z"/>
	<path class="st0" d="M2204.3,24300.3c-2.8-0.6-7.4-2.4-11.6-4.6c-8.9-4.6-15.5-9.8-23.2-18.1c-18.7-20.3-32.2-43-40.6-68.8
		c-7.9-24-10.1-44.5-6.3-59c3.4-13,11.4-23,26.1-32.8c2.4-1.6,6-3.8,8.1-5c5.1-2.9,8.3-5,12-8c11.3-9.1,19.9-21.4,24.8-35.3
		c0.9-2.6,3.4-12.2,4.7-18.2c1.5-6.9,2.4-13.1,3.3-24.9c0.6-8.3,0.6-31.4,0-39.7c-1.4-18.1-3.9-33.2-8.1-49.8
		c-2.2-8.6-3.2-12.1-5-16.7c-4.7-11.8-12.1-23.4-20.7-32c-3.9-4-7.4-5.9-11.9-6.5c-3.8-0.6-7.9,0.4-11.4,2.7c-3,2-3.7,3-8.1,11.9
		c-4.6,9.2-6.5,12.1-9.2,14.9c-9.8,9.8-25.4,10-35.6,0.6c-2.4-2.2-5.7-7-8.2-11.9c-2.8-5.4-3.8-9.7-4-16.1c-0.3-8.4,1-12.9,6.6-24.2
		c6-12.1,13.8-22.8,23.2-32c4.5-4.4,7-6.4,11.6-9.5c10.3-6.9,22.1-10.4,33.4-9.9c15.8,0.7,30.3,7.6,48.9,23.1
		c4.2,3.5,12.6,11.7,16.3,16c8.8,10,16,20.4,22.1,32.2c2.6,4.9,4.3,8.8,7.8,17.4c3.3,8.1,4.8,11.7,7.8,18.1l1.9,4.2l0.9,6.8
		c3.3,23.9,4.7,43.4,4.9,67.7c0.3,28.1-1.5,55.3-5.4,82.3l-0.6,4.2l-3.1,6.3c-9.9,19.9-17.4,32.7-24.9,42.7
		c-8.7,11.7-17.8,20.4-28.5,27.5c-7.1,4.7-8.4,5.3-14.2,6.7c-9.6,2.3-11.9,3.6-13.9,7.5c-1.9,3.8-2.8,9.1-2.3,13.3
		c1.1,8.3,14.6,45,19.1,51.9c3,4.7,6.5,6.4,11.3,5.6c2.4-0.4,5.6-1.7,7.3-2.9c4.7-3.4,9.7-3.9,14.5-1.3c2.6,1.4,4,3,6.3,7.4
		c4.6,8.8,6.6,16,6.5,24.8c0,10.5-2.5,18.1-7.8,23.7c-3.6,3.8-7.7,6.3-12.9,7.6C2213,24300.9,2207.3,24301,2204.3,24300.3z"/>
	<path class="st0" d="M133.7,24299.8c-8.7-2.3-15.3-8.3-18.1-16.5c-1.3-3.9-1.5-5.8-2.3-24.4c-0.3-6.8-0.6-12.9-0.6-13.6
		c-0.1-0.7-0.4-5.9-0.7-11.5c-0.3-5.6-1.1-21.6-1.9-35.5c-3.1-56.2-3.9-77.5-4.5-116.1c-1.1-74.8-1.4-127.6-1.1-163.9
		c0.3-29.2,0.4-30.4,1.4-35.4c3.2-14.7,12.9-24.6,27.4-27.8c5.3-1.2,13.4-1.3,19.5-0.4c1.4,0.2,18.2,3.7,37.3,7.7
		c34.1,7.2,34.7,7.4,35.6,8.2c1.1,1,2.4,3.1,3.8,6.2c4.6,10,6.3,16.2,6.3,23c0,7.1-2,12.1-6.6,16.7c-4.1,4.1-9.7,6.5-18.1,8.1
		c-3.2,0.6-3.5,0.6-25.3,0.7c-20.6,0.1-22.1,0.1-22.1,0.5c0,1.8-0.6,10.1-1.1,14.5c-0.5,5.3-0.5,6.4-0.7,81.1
		c-0.1,41.6-0.3,84.7-0.5,95.6c-0.6,41.5-1.6,166.7-1.3,167c0.2,0.2-11.3,11.7-12.9,12.8c-2.1,1.5-4.2,2.6-6.1,3.1
		C139.3,24300.4,135.9,24300.4,133.7,24299.8z"/>
	<path class="st0" d="M3113.5,24300.1c-2.8-0.4-6.9-1.3-9.8-2.3c-9.8-3.2-18.7-9.1-29-19.2c-8.1-8-11.2-11.9-19.4-25.6
		c-6.8-11.2-13.7-25.3-18.3-37.6c-10.7-28.1-16.5-59.4-14.8-80.6c1.7-21.6,8.8-37.8,22.4-51.1c6.4-6.2,12.4-10.5,21.8-15.4
		c6.4-3.4,9.6-5.6,13.7-9.5c6.7-6.5,11.1-13.9,16.3-28c9.5-25.8,11.8-54.9,6.3-82c-1.4-6.7-4.4-17.9-5.8-21.5
		c-5.7-14.5-17.4-25.7-31.9-30.8c-7.1-2.5-15.4-3.6-19-2.5c-4.8,1.4-9.5,5.6-12.3,10.9c-1.4,2.7-2,5-2.5,10.5
		c-0.5,5.2-1.6,10.4-2.9,13.1c-2.6,5.7-7.4,9.7-13.5,11.6c-2,0.6-2.7,0.7-5.9,0.7c-3.2,0-3.9-0.1-5.8-0.7c-3.1-1-4.8-1.9-8.3-4.5
		c-3.6-2.7-7.6-6.8-9.6-9.8c-5.1-7.7-8.2-19.2-8.2-31c0-10.9,2.4-20.7,7.4-30.4c3.3-6.3,6.7-10.9,11.9-16.1
		c10.6-10.6,23.9-17,39-18.9c3.3-0.4,11.3-0.4,14.6,0c8,1,18.9,3.7,43.2,10.7c7.5,2.2,14.7,4.2,15.9,4.5l2.2,0.6l4.1,3.5
		c20.1,17.2,35.6,40.1,44.2,65.3c2.7,7.8,4.6,15.4,6,23.8c4,23.7,4.1,48.5,0.2,72.1c-0.9,5.7-3.7,19.7-5,24.6
		c-8.8,35.5-23.4,59.4-46.4,75.9c-6.5,4.7-16,9.8-23.2,12.6c-6.7,2.6-9,4-12.3,7.5c-4.5,4.7-6.8,11.3-6.4,18
		c0.1,1.1,0.3,4.2,0.4,6.9c1.5,27.3,9.4,53.9,23.2,77.8c4,6.9,8.8,14,11,16.3c2.9,3.1,7.3,5.5,10.1,5.6c1.6,0.1,1.7,0.1,3.3-1.1
		c3-2.3,5.4-5.8,6.3-9.3c1-3.9,2.6-35,2.9-60.5c0.2-9.7,0.4-16.6,0.7-21.3c0.3-3.8,0.6-9.7,0.8-13.2c0.3-5.8,0.4-6.4,0.9-7.4
		c0.6-1.1,1.9-2.3,3.4-3c2.5-1.3,11.5,0.9,14.1,3.5c1.5,1.4,1.6,1.8,2.7,5.8c4.7,17.8,7.2,28.8,9.1,40.7
		c6.4,39.7,1.9,71.4-14.1,100.3l-2.1,3.8l-2.3,1.1c-5.4,2.5-11.6,4.4-17.1,5.2C3123.4,24300.3,3115.8,24300.4,3113.5,24300.1z"/>
	<path class="st0" d="M1800.4,24299.1c-2.1-0.3-4.7-1-6.3-1.6c-6.6-2.7-11.8-9.3-14.8-18.6c-1.6-4.9-2.3-9.3-2.7-16.4
		c-0.5-8.4-1.2-13.6-4.5-29.9c-2.9-14.4-2.8-13.9-2-14.8c1-1,1.2-1.7,1.2-3c0-1.4-0.6-2.6-1.8-3.4l-0.8-0.6v-19.2
		c0-19.6-0.2-30.9-0.9-46.4c-1.3-29.8-3.9-60.1-7.7-88.7c-0.5-3.7-0.9-6.8-0.9-7c0-0.4-3.2-1.8-4.8-2.1c-1.8-0.3-1.8-0.1-0.5-3.6
		c0.8-2.2,0.9-3.1,0.5-3.7c-0.2-0.3-0.3-0.3-0.7,0.2c-0.3,0.4-0.6,1.4-0.8,3.1c-0.5,4.2-0.5,4.1-1.4,4.4c-1.3,0.5-3.4,2.9-5.3,6.4
		c-1.7,3.1-2.2,4.3-20.2,58.1c-10.1,30.2-19,56.8-19.6,59.2c-0.6,2.4-1.6,6.4-2.2,9c-0.6,2.6-1.5,6.4-1.9,8.5c-0.5,2.1-0.9,4-1,4.4
		c-0.1,0.4-0.2,0.8-0.3,1c-0.1,0.2,0,0.4,0.2,0.5c0.2,0.1,0.1,0.9-0.3,2.2c-1.2,4.1-31.3,85.3-31.8,85.9c-0.3,0.3-0.4,0.6-0.2,0.6
		c0.4,0-0.1,1.2-0.9,2.3c-1,1.3-5.6,4.3-7.5,4.9c-1.5,0.4-1.8,0.5-2.9,0.2c-0.6-0.2-1.5-0.2-1.8-0.2c-0.4,0.1-1.5,1-2.5,2l-1.8,1.8
		h-5.6h-5.6l-1.9-2c-2.2-2.2-5-6.2-6.1-8.8c-2.7-6.1-3.7-11.8-4.4-25.1c-1.2-23.3-3.9-58.8-8.6-109.4
		c-7.5-81.5-9.5-105.3-11.4-138.4c-1.5-26.6-1.9-40.5-1.7-67.8c0.1-21.4,0.3-25.9,1.1-42.3c0.8-15.5,2.4-36.2,3.1-40.3
		c1.3-7.6,4.6-15.9,7.9-20.2c2.7-3.6,7.1-6.5,11.8-8c2.1-0.6,2.7-0.7,6.3-0.7c3.6,0,4.2,0.1,6.2,0.7c4,1.2,7.8,3.5,10.3,6.1
		c3.9,4,7.1,11.1,8.3,18c0.7,3.8,0.7,11.6,0.1,33.4c-0.6,22.1-0.4,85.6,0.7,180c0.6,55,0.7,59,1,59.5c0.3,0.3,0.3,0.4-0.1,0.4
		s-0.1,1.2,0.8,6.5c0.7,3.5,1.2,6.6,1.3,6.8c0,0.9,0.6-0.4,1.9-4.3c2-6.1,2.8-9,2.4-9c-0.2,0-0.1-0.4,0.3-1.2
		c0.8-1.7,12.9-37.9,15.6-46.8c10.6-34.2,15.6-59,17.4-85.6l0.3-4.9l14.5-54.2c8-29.8,14.8-55.3,15-56.5c0.3-1.3,1-5.2,1.5-8.6
		c2.1-12.5,2.3-13,7.2-22.8c4.4-8.7,6.8-12.4,10.3-15.8c3.5-3.3,6.9-5.3,11.1-6.6c1.7-0.5,2.6-0.6,6-0.6c3.4,0,4.3,0.1,6,0.6
		c7.5,2.2,14.2,7.8,18.3,15.4c1.4,2.6,4,9.3,5.6,14.2c1.2,3.8,1.3,4.2,1.2,5.8c-0.2,1.7,0.2,3.1,1,4.1c0.3,0.3,0.3,1.1,0.1,4.1
		c-0.4,5.5-0.4,44.7,0,54.3c1.7,42.8,2.6,54.1,16.6,200.3c7.4,76.8,6.9,72.1,7.3,81.5c0.7,19,2.1,26.7,6.4,35.4l1.3,2.6v20.5v20.5
		l-3.3,2.5c-8.5,6.4-14.5,9.5-20.9,10.8C1806.2,24299,1801.7,24299.3,1800.4,24299.1z M1756.8,24040.5c-0.1-0.1-0.3-0.3-0.5-0.3
		c-0.2,0-0.2,0.1,0.1,0.3C1756.9,24040.8,1757,24040.8,1756.8,24040.5z"/>
	<path class="st0" d="M1930.2,24296.4c-9.1-0.4-17-1.6-22.6-3.5c-10.7-3.5-15.8-9.5-17.4-20.5c-0.2-1.3-0.4-10.6-0.5-25.4
		c-0.1-12.8-0.3-26.1-0.5-29.6c-0.6-12.2-5-73.6-9.5-131.2c-4.7-59.5-7.9-99.7-8.3-102.1c-0.5-3.3-1.5-6.8-2.7-9.9
		c-1.1-2.6-1.1-2.7-1.4-7.9c-0.2-3.2-0.4-12.7-0.5-24.1c-0.1-10.4-0.3-27-0.4-37c-0.1-10-0.3-26.1-0.3-35.8
		c-0.1-17.3-0.1-17.6,0.5-20.9c2.7-15.4,11.8-28.1,25.2-35.1c8.3-4.4,18.4-6.2,27.5-4.9c9.8,1.4,23.4,4.3,32.8,7.2
		c38.1,11.6,65.8,34.5,83.1,68.8c10.5,20.9,20,47.1,25.6,71c5.6,23.4,8,43.3,9.6,76.4c0.8,17.8,0.9,25.1,1.1,65.2l0.1,41.5l-0.8,5.9
		c-1.6,12.1-4.2,26-6.7,37.1l-1.2,5.4l-6.2,10.5c-17.9,30.3-26.4,43.9-33.6,53.7c-11.1,15.3-24.1,26.7-39,34.3
		c-13,6.6-26.4,10-42.4,10.8c-2.9,0.1-5.7,0.2-6.3,0.2C1934.9,24296.7,1932.5,24296.5,1930.2,24296.4z M1945.5,24245.8
		c4.2-0.8,5.7-1.6,12.8-6c6.4-4,6.9-4.4,9.4-6.9c22.2-23.1,36.3-46.4,42.7-70.8c2.4-9.4,3.3-15.5,4.6-33.8
		c3.7-50,1.6-94.2-6.4-133.5c-5.2-25.5-12.3-48.4-21.5-68.4c-4.8-10.6-12-23.7-15.2-28.1c-1.9-2.6-6.4-6.9-9.2-8.9
		c-3.8-2.7-6-3.8-13.2-6.7c-10.7-4.3-14.9-5.5-18.8-5.3c-4.2,0.2-6.2,2.6-7.5,8.7c-1.2,5.5-1.2,5.4-1.2,94.3v84.2l0.8,0.1l0.8,0.1
		l0.2,5.2c0.1,2.8,0.2,8.8,0.3,13.3s0.4,22.2,0.8,39.5c1,51.2,1.2,58.7,1.3,83.5c0.1,13.3,0.2,24.8,0.4,26.2
		C1927.8,24243.4,1934.4,24248.1,1945.5,24245.8z"/>
	<path class="st0" d="M3518,24296.4c-2.6-0.4-6.2-1.6-8.2-2.7c-3.1-1.8-6.4-5.4-8.2-9c-2-3.9-3-7.7-4.5-16.7
		c-3.6-21.8-5.9-42.5-7.1-64.2c-1.1-19.5-1.5-56.3-1.4-128.1c0.1-56.8,0.1-61-0.4-64.8c-0.5-4.3-1.6-11.8-1.9-13.1l-0.2-0.8
		l-1.7,2.2c-2.4,3-7.6,10.9-10.4,15.8c-12.6,22-24.9,54.9-32.3,86.1c-2,8.5-2.7,12.2-2.4,12.4c0.3,0.2-2.8,9.3-11.8,34.4
		c-7.9,22.3-8.8,24.6-14.7,42.4c-6.7,20.3-10.8,31-15.7,42c-4.4,9.6-10.1,19.8-14.5,25.9c-2.3,3.2-10.1,12.6-11.4,13.7
		c-0.7,0.6-2.1,1.5-3.1,2c-1.8,0.9-2,0.9-4.7,0.9c-2.3,0-3.1-0.1-4.3-0.6c-1.8-0.7-4.9-2.7-7-4.6c-2.6-2.3-8.5-11.1-8.5-12.6
		c0-0.5,0.3-2.2,0.7-3.9c1-4.8,2.6-14.4,3.4-21c3.3-26.1,3.1-53-0.8-79c-0.7-5-2.3-13.6-2.9-16.7c-0.2-0.8-0.4-2.4-0.5-3.5
		c-0.1-1.1-0.3-3.1-0.4-4.6c-0.2-1.5-0.3-9.8-0.4-18.5c-0.1-8.7-0.3-18.3-0.4-21.5c-0.4-8.1-2.9-38-8.5-99.8
		c-5.5-61.2-7.8-86.9-9.7-110.2c-0.5-6.6-1.2-13.2-1.4-14.6c-0.8-5.4-1.5-11.8-2.1-20.1c-0.2-2.4,0.2-8.3,0.8-12
		c1.9-12.5,7.6-18.8,20.7-23.3c3.3-1.1,9.4-2.7,13.4-3.5l2.4-0.5l7,7c5.1,5.2,7.1,7.2,7.2,7.8s0.2,0.7,0.3,0.3
		c0.1-0.3,0.5,2.6,0.9,6.3c0.8,7.6,1.3,15.7,6.1,107.3c1.8,34.9,3.8,71.7,4.4,81.9c0.6,10.1,1.1,21.1,1.3,24.3
		c0.2,6.1,0.4,7.6,1.3,10.9c0.9,3.5,1.5,4.4,3.7,6.1c1,0.8,1.3,0.9,2.1,0.7c1.4-0.3,3.2-1.2,4.2-2.3c0.9-0.9,1.7-3.3,23.6-69
		c12.5-37.4,22.6-68,22.5-68c-0.1,0-0.5,0.2-1.1,0.4c-1.2,0.5-1.3,0.5-0.7-0.1c0.3-0.3,0.6-0.5,0.8-0.4c0.2,0.1,4.6-8.4,12.5-23.8
		c6.7-13.1,13.7-26.9,15.5-30.6c3.6-7.2,5.8-11,8.9-16c4-6.3,10.8-15.3,13.6-18c2.5-2.5,6.3-4.8,10.1-6.2c5.9-2.1,13.5-2,19.4,0.3
		c7.9,3,14.5,10.3,16.8,18.2c0.9,3.3,2.1,12.5,2.9,21.9c0.3,4.5,0.3,60.1-0.1,109.3c-0.6,85.3-0.8,146.3-0.5,176.3
		c0.2,16.7,0.4,32.3,0.5,34.6c0.4,6.1,1.4,18.6,2.5,32.2c1.8,21.4,2.3,30.9,2.3,46.4c0,9.3-0.3,18.4-0.7,25.2
		c-0.2,2.2-0.3,3-0.6,3.4c-0.4,0.4-0.4,0.5,0,0.8c0.2,0.2,0.3,0.4,0.2,0.5c-0.4,0.3-7.3,2.5-9.8,3
		C3528.9,24296.5,3522.1,24297,3518,24296.4z"/>
	<path class="st0" d="M4687,24290.2c-10.6-11.3-16.8-25.1-22.3-49c-10.4-45.8-24.8-87.3-45-129.5c-6.7-14.1-10.2-19.9-17.1-29
		c-1.8-2.3-1.9-2.5-2.3-2.1c-0.7,0.9-6.1,12.3-7.4,15.5c-0.7,1.8-2.6,6.6-4.3,10.7c-14.1,35.7-33.2,69.6-56.8,101
		c-4.6,6.1-7.8,11.6-10.2,17.5c-0.6,1.5-6,4.7-11.3,6.8c-10.1,3.9-13.4,4.8-17.7,4.8c-2.7,0-3.2-0.1-4.4-0.6
		c-1.6-0.7-3.4-2.5-4.3-4.3c-2.4-4.7-3.1-11.7-2.7-27.8c0.4-17.4,0.7-54.1,0.7-78.8c0-53.7,2.6-221.2,3.8-246.7
		c1-19.9,4.2-30.2,12.6-39.6l2.1-2.4h10.9h10.9l2.5,2.5c3,3.1,4,4.4,6.1,7.5c4.1,6.2,6.7,13.7,7.5,21.6c0.2,2.2,0.2,4.5,0,9.4
		c-0.2,3.6-0.8,22.2-1.4,41.3c-0.6,19.1-2.3,63.3-3.7,98.2c-2.2,52.9-2.5,63.7-2.3,64.8c0.5,2.1,2.9,6.7,4.5,8.4
		c1.5,1.5,1.8,1.7,2.1,0.8c0.2-0.5,0.2-0.5,0.5,0.1c0.2,0.4,0.4,0.7,0.5,0.7c0.5,0,1.7-3,5.5-14.5c2.3-6.9,5.7-16.9,7.6-22.4
		c1.9-5.4,4.3-12.4,5.3-15.4c3.5-10.2,5.7-15.6,10-24.2c3.4-6.6,5.1-9.3,7.8-12.5c4.6-5.3,10-8.8,16.3-10.4c2.1-0.6,3.1-0.7,6.3-0.7
		c5.2,0,8.7,0.8,13.3,3.1c8.7,4.4,16.7,13.3,22.7,25.6c7.7,15.8,23.4,48.7,24.3,51.3c2.5,6.5,5.2,8.5,10.3,7.7l1-0.2l0.1-120.3
		c0.1-92.3,0.2-121,0.4-123.3c1.4-12.8,4.3-21.5,9.7-29.2l1.7-2.4h18.9h18.9l1.4,2.4c5.2,8.5,8.8,18.6,10.1,28.5
		c0.4,2.8,0.4,12.2,0.4,93.4c0,112.6,0.3,137,2,166.3c1.3,21.9,1.8,35.1,2,57.5c0.3,30.5-0.7,58.8-3,87.9c-0.4,5.4-0.9,11.9-1,14.5
		c-0.1,2.6-0.4,6-0.6,7.4c-1.5,9.6-5.1,18.5-10.7,26.1c-1.4,1.9-1.6,2.1-2.4,2.1c-0.5,0-6.6,0.4-13.6,0.8s-13.2,0.8-13.7,0.8
		C4688.6,24291.9,4688.3,24291.6,4687,24290.2z"/>
	<path class="st0" d="M2786.1,24286.3c-1.4-0.2-3.8-0.6-5.4-0.8l-2.8-0.5l-1.2-1.5c-1.8-2.3-9.1-12.8-12.9-18.6
		c-13.9-21.5-26.3-45.5-35.7-69.3c-6.4-16.2-12.3-34.7-15.7-49.4c-8.6-36.9-13.5-73.1-14.9-111.6c-0.3-8.8-0.3-31.1,0-39.6
		c0.9-23.8,4.9-50.8,11.1-74.8c0.8-3,2.2-8.4,3-11.9c0.9-3.5,2.2-8,2.8-9.9c6.2-17.8,17.6-33,32.9-43.8c2.5-1.8,10.5-6.6,12.7-7.8
		c2-1,5.6-2.2,8.4-2.8c3.6-0.8,9.2-0.8,12.9,0c7.3,1.5,13.5,4.9,18.2,9.8c4.2,4.4,10.8,15,15.6,24.9c2.3,4.8,7.6,17.2,10.8,25.2
		c19,47.5,31.6,95.4,35,132.6c0.4,4.2,1.7,27.9,3.1,52.9c1.6,31.5,2.6,55.1,3.2,78.4c0.1,5.6,0.3,11.9,0.4,14.1
		c0.5,12.3-2.2,26.5-7,38.2c-4.7,11.1-10.7,20.1-19.1,28.7c-4.3,4.4-7.2,6.9-12.4,10.7c-4.5,3.3-5.7,4.2-9.2,7.4
		c-3.2,2.9-7.3,7.4-9.8,10.7c-3.7,5-7.5,7.6-12.5,8.6C2795.6,24286.8,2789.5,24286.8,2786.1,24286.3z M2792.5,24222.4
		c12-5.1,20.9-15.8,23.6-28.5c0.3-1.4,0.6-2.7,0.8-2.9s0.4-1.3,0.7-2.3c0.6-2.2,0.6-6.7,0.1-30c-0.7-34.2-1.5-55.2-3.1-76.2
		c-4.6-62.5-15.8-110.1-36.3-153.9c-0.7-1.4-1.7-3-3-4.6c-1.1-1.3-2.4-3-3-3.8c-0.5-0.7-1.1-1.3-1.1-1.3c-0.2,0-2.7,5.5-4.5,10.2
		c-9.6,24.1-15.3,55.4-16.8,91.5c-0.6,13.1-0.3,33.4,0.6,48.3c3.5,56.3,17.2,112.4,37.2,152.2
		C2789.3,24224.1,2788.8,24224,2792.5,24222.4z"/>
	<path class="st0" d="M3249.3,24278.8c-2.6-0.4-4.8-1-7.3-2.2c-5.5-2.6-9.5-6.6-12-12.1c-1.7-3.6-2-5.7-2.8-17.4
		c-0.2-3.4-0.5-6.3-0.5-6.5s-0.6-11.5-1.3-25.1c-3.8-82.7-6.9-142.2-8.1-153.1c-0.9-9.1-2.5-19.1-4.3-28.4l-1-5v-75.7v-75.7l1-2
		c1.1-2.2,2.1-5.8,2.1-7.6c0-0.7,0.9-4.2,2.2-8.7c1.2-4.2,2.4-8.7,2.7-10.1c1.1-5.5,2.2-9,4.7-14.9c2.4-5.7,2.9-6.4,5.3-8.8
		c1.8-1.8,2.6-2.4,4.4-3.3c2.4-1.1,5.3-1.8,7.6-1.8c5.4,0,13.3,4.7,16.9,10.1c2.1,3.1,7.2,17.2,9.9,27.3c1.2,4.6,1.5,5.4,4.3,11.1
		l2.9,6.2l-0.1,3.6c0,2,0.1,12.2,0.3,22.7c0.1,10.5,0.5,35.5,0.8,55.5c0.3,20,0.6,44.5,0.8,54.5c0.6,46.2,0.9,101.8,0.6,129.7
		c-0.3,27.8-0.4,32.9-1.3,75.2c-0.3,12.8-0.6,29.8-0.8,37.8c-0.2,8-0.3,14.6-0.4,14.8c-0.1,0.2-1.2,1.1-2.6,1.9
		c-5.4,3.5-12.9,7.2-15.7,7.8C3255.5,24278.9,3251.2,24279.1,3249.3,24278.8z"/>
	<path class="st0" d="M2937.4,24275.2c-6-1.4-12.5-7.6-16.7-15.7c-0.7-1.3-1.4-2.9-1.5-3.5c-0.6-2.1-0.8-2.5-1.8-3.3l-1-0.8l0.6-1.2
		c0.5-1,0.6-1.4,0.5-2.7c-0.1-1-0.3-1.8-0.6-2.2c-0.5-0.7-0.5-1.4-0.9-12.7c-0.8-22-1.7-40.7-2.6-55.1c-0.4-5.8-2.6-48.6-5.4-102
		c-3.7-72-6.1-120.8-8.7-179.4c-0.8-18.8-0.9-20.7-0.6-26.7c0.2-3.5,0.4-8.4,0.7-10.8c0.4-4.2,1.5-13.7,1.7-13.8
		c0.5-0.5,3.8-2.4,5.8-3.4c9.4-4.8,21-7.2,30.8-6.3l2.7,0.2l1.2,1.3c5.7,6.3,11,16.2,13.2,25.2c1.4,5.4,2.1,12.1,1.8,17.2
		c-0.1,1.8-0.1,7.6,0.1,12.9c0.6,28.6,0.9,52.2,2.1,170.9c1.3,128.4,1.6,188.1,1,193.6c-0.6,5.6-2.2,9.7-5.1,12.5
		c-2.6,2.6-6.4,4.6-10.2,5.5C2942.8,24275.5,2938.8,24275.5,2937.4,24275.2z"/>
	<path class="st0" d="M1105.3,24229.7c-1.1-0.3-3.1-0.7-4.5-0.9c-1.9-0.3-2.3-0.4-1.8-0.5c2.4-0.5,5.5,0.1,7.7,1.4
		C1108,24230.5,1107.9,24230.5,1105.3,24229.7z"/>
	<path class="st0" d="M3898.7,23908.8c-4.6-0.4-10.8-1.7-15.8-3.4c-5.5-1.9-13.9-5.8-14.7-6.9c-9.9-13.3-19.8-29.3-22.1-35.6
		c-2.8-7.8-1.8-17,2.8-24.1c5.2-8,14.2-12.7,23.6-12.3c4.9,0.2,14.6,2.2,22.2,4.5c4,1.2,12.4,4.3,16,5.9
		c13.9,6.2,20.5,14.1,22.9,27.5c0.7,3.7,0.9,13.7,0.5,18.3c-0.5,5.3-2.3,14.6-3.2,16.1c-0.4,0.7-5.2,3.8-8.5,5.4
		C3915.1,23907.8,3906.9,23909.4,3898.7,23908.8z"/>
	<path class="st0" d="M4057.3,23889.2c0-0.4,2.2-6.4,3.3-9.1c1.2-3,4.7-9.9,4.9-9.8c0.2,0.2-1.2,4.8-2.1,7.3
		C4062.1,23881.1,4057.3,23890.1,4057.3,23889.2z"/>
	<path class="st0" d="M4423.4,23884.6c-0.3-0.2-0.4-0.6-0.4-1.3l0.1-1l0.4,1.4c0.2,0.7,0.4,1.3,0.4,1.3
		C4423.8,23884.9,4423.6,23884.8,4423.4,23884.6z"/>
	<path class="st0" d="M1735.4,23859.6c0-0.2,0.1-0.3,0.3-0.4c0.2-0.1,0.3,0,0.3,0.2c0,0.2-0.1,0.4-0.3,0.4
		C1735.6,23859.8,1735.4,23859.7,1735.4,23859.6z"/>
	<path class="st0" d="M4390.7,23836c0-0.6-0.1-0.6,1.2,0l1,0.5l-1.1,0C4390.8,23836.5,4390.7,23836.4,4390.7,23836z"/>
</g>
</svg>
