<?xml version="1.0" encoding="utf-8"?>
<!-- Generator: Adobe Illustrator 23.0.1, SVG Export Plug-In . SVG Version: 6.00 Build 0)  -->
<svg version="1.1" id="Layer_1" xmlns="http://www.w3.org/2000/svg" xmlns:xlink="http://www.w3.org/1999/xlink" x="0px" y="0px"
	 viewBox="0 0 1559.1 340.2" style="enable-background:new 0 0 1559.1 340.2;" xml:space="preserve">
<style type="text/css">
	.st0{fill:#345899;}
	.st1{fill:#0F2650;}
</style>
<path class="st0" d="M947.7,10.9c-1,0.2-2,1-2.5,1.9c-0.5,1.1-0.7,2.6-0.3,3.6c0.6,1.7,2,2.7,3.8,2.7c1.1,0,1.9-0.3,3.6-1.5l1-0.7
	l0.1-0.5c0.4-2.1-0.7-4.2-2.6-5.1C949.9,10.9,948.7,10.7,947.7,10.9z"/>
<path class="st0" d="M1042,13.3c-0.4,0.1-1.2,0.4-1.6,0.6c-0.9,0.6-1.6,1.7-1.7,2.7c-0.4,3.1,2.1,5.5,5.2,5.1c2.9-0.4,5-2.8,4.2-5
	c-0.2-0.7-0.8-1.6-1.4-2.1c-0.6-0.5-1.5-1-2.3-1.2C1044,13.3,1042.6,13.2,1042,13.3z"/>
<path class="st0" d="M189.3,20.5c-2.3,0.2-4.6,1-7,2.4c-4.4,2.5-7.9,5.8-10.6,9.9c-1.4,2.2-2.1,3.4-3,6c-1.6,4.3-3.1,8.8-4.1,13.1
	c-0.2,0.9-0.5,2-0.7,2.5c-0.4,1.5-0.9,3.4-1.1,4.7c-0.2,1.4-0.5,2.5-0.8,3.7l-0.2,0.8v2.9v2.9l0.3,0.5c0.7,1.3,1.3,3,1.7,4.9
	c1,4.8,3.1,8.6,6.4,12c2.3,2.3,4.6,3.8,7.8,5.2c2.9,1.2,10,4.6,10.7,5c1.9,1.3,3.4,3.3,3.9,5.6c0.2,1,0.3,1.1,1.7,3.5
	c1.6,2.7,1.9,3.3,2.4,5.6c1.8,8.4,2.3,17.7,1.4,26.4c-0.4,3.9-1.9,7.2-4.6,10.1c-0.6,0.6-2.2,2-2.9,2.5c-1.8,1.2-4.3,2-5.6,1.8
	c-1-0.2-1.2-0.4-1.4-2c-0.2-1.2-0.2-3,0-4.3c0.2-1.9-0.1-3.3-1.3-5.1c-0.2-0.4-0.9-1.2-1.4-2c-0.6-0.7-1.1-1.5-1.3-1.7l-0.3-0.4
	h-2.4c-1.3,0-2.4,0-2.4-0.1c0,0,0.1-0.1,0.1-0.2c0.1-0.1,0.1-0.2,0-0.1c-0.1,0-0.2,0.1-0.2,0.2c-0.2,0.5-1,0.7-1.6,0.5
	c-0.2-0.1-0.3,0-1,0.7c-3.1,3-5,6.6-5.7,10.8c-0.6,3.4-0.4,7.2,0.6,11.7c0.3,1.2,0.7,2.3,2,4.8c0.5,1,0.9,1.8,0.8,1.8
	c-0.1,0,2.3,1.2,3.4,1.7c3.4,1.3,7,1.9,11,1.7c6.3-0.3,12.7-2.6,18.1-6.7c4.1-3.1,7.5-7.2,9.9-11.9c1.1-2.2,2.1-5,2.7-7.5
	c1.4-5.6,1.9-15.6,1.4-23.6c-0.3-4.9-0.9-9.1-2-14c-0.2-1-0.6-3.1-0.8-4.6c-0.2-1.5-0.5-2.9-0.6-3.2c-0.1-0.6-1.1-2.5-2.1-4.2
	c-4.7-7.9-11.4-14.2-19.6-18.5c-0.7-0.4-1.3-0.6-1.4-0.6c-0.3,0-3.3-0.8-4.7-1.3c-4.4-1.5-5.2-2.7-5.5-8c-0.1-1.8-0.1-6.7,0-8.4
	c0.4-7.2,2-12.9,4.8-17.3c0.6-1,1.9-2.6,3.5-4.1c1.6-1.6,1.8-1.7,2.7-1.8c1.3-0.1,2.7,0.6,2.9,1.4c0.2,0.6,1.7,9.1,1.7,9.6
	c0,2.1,0.6,6.4,1.2,8.7c0.4,1.6,1.8,2.8,3.6,3.1c1,0.2,2.8-1,3.5-2.2c0.4-0.7,1.1-3.9,1.5-6.4c0.5-3.8,0.6-8.2,0.1-12
	c-0.3-2.4-0.9-5.2-1.3-6.6c-0.4-1.1-1.3-2.9-1.8-3.8c-2.1-3.2-5.2-5.3-8.7-5.9C191.8,20.4,190.2,20.4,189.3,20.5z"/>
<path class="st0" d="M349.2,24.7c-11.2,5.8-19,14.9-24.4,28.3c-1.8,4.6-2.8,8.1-6.2,21.8c-1.4,5.6-1.9,7.3-3.1,10.1
	c-0.2,0.3-0.2,0.5-0.1,0.5c0.1,0,0,0.6-0.1,2.1c-0.2,2.8-0.5,6.1-0.7,10.6c-0.1,2.1-0.3,6.1-0.5,8.9c-0.8,15.3-1.2,24.3-1.3,33.4
	c-0.1,5,0,7.1,0.3,10c0.4,4,1.1,7.3,2.3,10.8c1.9,5.8,4.8,10.5,9.1,15l1,1l1.5,0.6c0.9,0.3,2.5,1.1,3.8,1.6
	c9.8,4.7,16.5,5.9,22.5,3.9c6.6-2.2,11.8-8.4,16.9-20.1c1.6-3.7,3.5-8.3,5.1-12.5l0.7-1.8l0.2-1.7c0.6-6.5,1-12.4,1.2-15.8
	c0-0.7,0.1-1.5,0.2-1.8c0.2-1,0.9-2.1,1.8-2.8c0.6-0.5,1.2-0.8,2.2-1.1c0.5-0.1,1.2-0.4,1.6-0.6c0.9-0.4,2.5-1.5,3.1-2.1
	c0.9-0.9,1.7-2.1,2.1-3.4c0.2-0.7,0.2-0.8,0.2-2c0-1.1,0-1.4-0.1-1.8c-0.9-2.9-3.3-4.9-6.2-5c-0.7,0-2.1,0.1-14.7,1.8l-13.9,1.9
	l-0.8,0.4c-1.2,0.6-1.9,1.2-2.7,1.9c-1.5,1.4-1.8,2.9-1.1,4.9c0.5,1.5,1.2,2.6,2.3,3.6c1,0.9,2.7,1.8,4.8,2.3
	c1.7,0.4,3.6,1.4,4.4,2.2c1.4,1.4,1.4,3.7,0,9.3c-1.6,6.5-4.4,13.6-7.9,19.2c-2,3.3-3.5,4.9-5.2,5.6c-0.5,0.2-0.6,0.2-1.6,0.2
	c-1,0-1.2,0-1.7-0.2c-0.8-0.3-1.9-0.8-2.9-1.4c-1.1-0.7-3.2-2.3-3.7-2.8c-1.2-1.2-1.9-2.9-2.1-4.7c0-0.4-0.1-0.7-0.2-0.9
	c-0.2-0.3-0.3-0.9-0.1-1.1c0-0.1,0-0.3-0.1-0.5c-0.7-1.7-1.4-4.1-1.7-6c-0.2-1.3-0.3-2.2-0.5-4.8c-0.6-9.2-0.8-18.9-0.6-27.5
	c0.2-8.9,0.4-14.8,1.1-23c0.3-4.2,0.6-5.5,1.5-8.2c0.3-0.8,0.4-1.2,0.3-1.3c-0.1-0.2,0-1.1,0.2-1.4c0.1-0.2,0.2-0.4,0.3-1.7
	c0.5-8.1,2.4-15.9,5.6-23.3c0.8-1.9,2.6-5.5,3.7-7.4c1.6-2.9,2.8-4.4,4.6-6.3c1.6-1.6,3-2.6,4.7-3.5c2.3-1.2,4.6-1.7,7.6-1.8
	c2.3-0.1,3.2,0.1,3.9,0.9c0.9,0.9,1.1,2.2,1.1,8.3l0,3.8l0.6,0.5c0.8,0.7,1.1,0.8,2,1c1.1,0.2,3.4,0.3,4.2,0c1.2-0.3,2-1,2.4-1.8
	c0.4-0.8,1.2-4.1,1.5-6.2c0.2-1.4,0.3-4.1,0.2-5.3c-0.5-4.5-2.6-8.1-6.5-10.9c-1.2-0.9-1.9-1.5-2.2-2l-0.3-0.4l-8.9-0.3
	c-4.9-0.2-8.9-0.3-8.9-0.3C350.8,23.9,350.1,24.3,349.2,24.7z"/>
<path class="st0" d="M420.4,26.2c-3.1,0.3-6.4,0.9-9.8,1.9c-2,0.6-4.2,1.3-4.7,1.6c-1.6,0.8-2.8,2.2-3.5,4c-0.2,0.5-0.2,0.8-0.3,2.3
	c0,1-0.1,2.3-0.2,3c-0.1,0.7-0.2,2.6-0.3,4.2c-0.1,1.6-0.4,7.9-0.8,13.9c-1.4,23.3-1.9,32.8-2.3,43.8c-0.1,3.4-0.2,5.6-0.6,14.7
	c-0.4,9.8-0.5,21.6-0.4,44.1l0,9.7l1.1,0.6c1.2,0.8,1.6,0.9,2.6,1.4c1.8,0.7,3.2,1.1,4.7,1.2c3.5,0.2,5.8-1.5,7.1-5.3
	c1-3.1,1.4-8.6,0.8-14.6c0-0.6-0.2-6.8-0.4-13.9c-0.2-7.1-0.4-13.7-0.5-14.7c-0.2-2.7-0.1-5,0.1-6.4c0.4-1.8,2.3-3.4,5-4
	c1-0.2,2.5-0.4,3.1-0.3c1.2,0.2,2.5,1.1,3,2.2c0.2,0.3,0.3,0.6,0.3,0.7c0,0.2,2.7,9.9,6.7,24.3c3.6,12.8,4.5,16.3,6,21.8l1.2,4.4
	l1.3,2.2c2.3,4.1,4.1,6.8,5.2,8.1c1.6,1.9,4.4,3,6.8,2.7c3.2-0.4,5.8-2.7,6.7-5.9c0.2-0.7,0.2-0.9,0.2-2c0-1,0-1.3-0.2-1.8
	c-0.1-0.3-0.3-1-0.4-1.5c-0.1-0.5-0.4-1.2-0.5-1.5c-0.2-0.4-0.7-1.7-1.2-3.1c-0.5-1.3-2.3-6.3-4.1-11c-5.8-15.5-7.5-20.3-10.1-28.2
	c-1.5-4.6-1.7-4.9-3.6-8.6c-1.6-3.2-2.3-4.7-2.8-6.4c-0.2-0.8-0.2-1-0.2-2.2c0-1.2,0-1.4,0.2-2c0.5-1.6,1.6-3.5,3.3-5.4
	c0.3-0.4,1.6-1.7,2.8-3c2.9-3,4.1-4.4,5.2-6.3c0.9-1.5,7.4-14.3,10.1-19.9l0.8-1.6l0.1-1.3c0-0.7,0.1-3.4,0.2-5.9
	c0.1-2.5,0.2-5.3,0.2-6.2c0-1.1,0-1.7,0-1.8c0-0.1-0.1-0.2,0-0.2c0.1-0.3-0.3-1.1-1.7-3.8c-0.5-0.9-1.3-2.4-1.7-3.3
	c-0.4-0.8-1.1-2.1-1.5-2.8c-6.7-11.2-15.5-17.2-26.5-18.3C425.6,26.1,421.8,26.1,420.4,26.2z M421.7,40c4.6,0.4,8.9,2.1,12.5,5
	c0.9,0.8,2.7,2.6,3.5,3.5c2.2,2.8,3.8,6,4.5,9.6c0.2,0.9,0.2,1.2,0.2,2.4c0,1.7-0.1,2.8-0.5,4.4c-0.5,2-1.1,3.3-3,6.3
	c-4.4,7.2-8.8,13.4-14.2,20.2c-1.8,2.3-2.8,3.2-6.4,5.8c-1,0.7-2.3,1.7-2.8,2l-0.9,0.7l-0.6-0.6c-0.9-1-1.5-2.1-1.7-3.5
	c-0.1-0.9,0-2.7,0.2-4.5c0.5-3.1,0.5-3.4,0.3-6.6c-0.1-1.4-0.1-3.6-0.2-7.5c0-4.9,0-5.6-0.2-5.6c-0.1,0-0.1-1.5-0.1-12.2
	c0-7.7,0-12.6,0.1-13.3c0.2-2.1,0.6-3.4,1.7-4.5c0.5-0.5,0.7-0.7,1.3-1C417.1,40,419.2,39.8,421.7,40z"/>
<path class="st0" d="M135.4,26.9c-10.5,0.4-17.2,2.8-23.1,8.2c-0.5,0.4-1.1,1-1.4,1.3l-0.5,0.6v3.8v3.8l0.7,0.9c0.8,1.1,1,1.5,1.1,2
	c0,0.4,0.2,7.9,0.3,11.7c0,2.5,0,7-0.2,9.3c-0.3,4.2-0.9,8.2-1.7,11.6l-0.3,1.3v1.9c0,1.1-0.1,3-0.1,4.3c-0.1,1.3-0.2,4.3-0.3,6.6
	c-0.4,10.2-0.7,14.3-1.3,19.8c-1.2,10.3-1.1,21.2,0.2,34.4c0.7,7.1,2.1,17.7,2.5,19.2c1.3,4.6,4.9,7.9,9.7,9
	c0.7,0.1,1.1,0.2,2.3,0.2c1.4,0,1.9,0,3.2-0.4c0.4-0.1,1.6-0.3,2.7-0.6c4.8-0.9,10.4-2.5,14.1-4c3.7-1.5,8.7-3.9,10.3-5.1
	c1.5-1.1,2.7-2.7,3.2-4.7c0.3-1,0.3-2.7,0-3.8c-0.5-1.9-1.1-3.1-2.1-4.2c-1.2-1.2-2.6-1.9-4.4-2.2c-0.6-0.1-1-0.1-2.5,0.1
	c-5,0.5-8.9,1-12.9,1.8c-1.6,0.3-2.8,0.4-3.5,0.2c-1.4-0.3-2.4-1.3-2.6-2.6c-0.1-0.4-0.5-4.5-1.2-10.8c-1.2-11.5-1.6-17-1.6-20.9
	c0-2.7,0-3,0.4-3.8c0.5-1,1.6-1.7,4.6-2.7c2-0.7,10.8-4.2,11.3-4.5c1.8-1.1,3-3,3.1-5.1c0-0.7,0-0.8-0.2-1.4
	c-0.3-0.9-0.6-1.4-1.4-2.2c-0.8-0.8-1.4-1.1-2.4-1.4c-0.6-0.2-0.7-0.2-6-0.2c-4.8,0-5.4-0.1-5.9-0.2c-1.6-0.5-2.4-1.4-2.7-3.2
	c-0.1-0.7-0.9-32.6-0.9-36c0-2.7,0.1-4.8,0.3-9.5c0.1-2.7,0.2-3.2,0.3-3.3c1.3-0.9,3.2-1.7,5.2-2c1.3-0.2,4.2-0.2,7,0
	c2.6,0.2,3.4,0.2,4.3,0.1c3.5-0.6,6.5-3.2,7.6-6.6c0.5-1.5,0.6-2.6,0.3-3.8c-0.6-3-2.7-5.5-5.5-6.5c-1.4-0.5-1.9-0.6-5.5-0.6
	C138.5,26.8,136.3,26.8,135.4,26.9z"/>
<path class="st0" d="M512.5,27c-0.6,0.1-1.6,0.4-2.2,0.6c-1.3,0.5-2.4,1.3-3.9,2.7c-3.3,3.1-5.9,6.5-8,10.7
	c-0.8,1.7-1.2,2.6-2.7,6.7c-2.2,6.2-4.1,11.3-5.7,15.5l-0.6,1.7l-0.2,1.5c-1.4,12.1-4.5,24.2-9.1,35.7l-0.8,2.1l0.1,0.4
	c0.2,0.5,0.1,0.8-0.2,1.1c-0.2,0.2-0.5,1.1-4.2,15.5c-2.6,9.9-3.6,13.7-5,19.3c-0.8,3-1.2,4.8-1.3,5.4c-0.1,0.5-0.4,2.6-0.7,4.7
	c-0.9,5.9-1.3,8.6-1.6,12c-0.3,3.5-0.5,7.9-0.4,8.7c0.3,2,1.6,3.4,3.3,3.4c0.5,0,1.4-0.3,2-0.6c1-0.6,1.8-1.4,2.3-2.5
	c1.7-3.6,3-6.9,4.3-10.6c0.7-1.9,1.1-3.7,2.6-11.2c1.3-6.1,1.7-8,1.9-8.5c0.8-1.9,2.7-3.6,4.6-4.1c0.2,0,3.7-1.1,7.6-2.3
	c4-1.2,7.5-2.3,7.8-2.4c1.7-0.4,2.9,0,3.5,1.2c0.2,0.4,0.2,0.5,0.2,2.4c-0.1,5.8-0.5,21.6-1.1,37.1l-0.2,4.2l0.3,0.5
	c0.4,0.7,0.9,1.5,1.7,2.5c0.3,0.4,0.8,1.1,1,1.5c0.6,0.9,1.7,2,2.5,2.6c1.5,1,3.7,1.6,5.4,1.4c1.2-0.1,3-0.6,3.9-1
	c0.6-0.3,1.5-1,2-1.5c1.3-1.4,2-3,2.7-5.9c0.2-0.8,0.4-1.8,0.4-2.2c0-0.5,0.1-9.3,0.1-24c0-12.7,0.1-31.7,0.1-42.1
	c0.1-27.5,0.1-52.3,0-54c-0.4-6.6-1.5-13.8-3.1-20.1c-0.4-1.7-0.6-2.4-1.2-3.4c-0.5-1-0.9-1.5-1.6-2.3c-1-1-2.1-1.7-3.4-2.1
	c-0.6-0.2-0.9-0.2-1.8-0.2C513.3,27,512.7,27,512.5,27z M506.4,65.3l0.5,2.1l0.1,6.2c0.1,3.6,0.1,13.9,0.1,24.4
	c0,17,0,18.2-0.1,18.8c-0.5,2.1-1.6,2.9-5.4,3.8c-0.9,0.2-11.5,2.1-11.5,2c0,0-0.2-0.5-0.5-1c-0.8-1.6-0.8-1.1,0.5-5.5
	c1.6-5.4,2.1-7.3,6.9-23.1c2.3-7.8,4.9-16.3,5.7-19c0.8-2.7,1.6-5.3,1.7-5.7c0.1-0.4,0.2-0.8,0.2-0.9c0,0,0.2-0.6,0.4-1.2
	c0.4-1,0.5-1.7,0.8-2.7c0-0.2,0.1-0.3,0.1-0.3C505.9,63.2,506.2,64.2,506.4,65.3z"/>
<path class="st0" d="M1346.2,28.8c-1.6,0.2-2.9,0.6-4.9,1.6c-2.6,1.3-5.4,3-7.5,4.7c-1.1,0.8-3.8,3.1-4.9,4.1
	c-5.8,5.2-11.3,11.7-15.2,18.4c-0.4,0.7-1.6,2.5-2.7,4c-1.1,1.5-2,2.9-2,3.1c0,0.2-0.2,0.4-0.3,0.4c-0.2,0.2-4.6,9.9-4.6,10.2
	c0,0.1-0.1,0.3-0.2,0.4c-0.1,0.1-0.3,0.7-0.5,1.6c-0.5,1.8-1.9,6.7-2.8,9.9c-0.4,1.4-0.8,3-0.9,3.5c-0.2,1.1-0.5,2.4-0.8,3.1
	c-0.1,0.3-0.2,0.7-0.2,0.9c0,0.3,0,0.4-0.2,0.6c-0.2,0.2-0.2,0.3-0.3,0.7c-0.6,5-2.3,20.8-2.9,26.6c-1,9.9-1,10.4-1.1,13.6
	c0,3,0,4.5,0.3,6.8c0.5,4.7,1.7,9.7,3.4,14c0.7,1.9,1.9,4.5,2.4,5.5c3.4,6.3,9.7,10.8,16.6,12c1.7,0.3,2.5,0.3,6.2,0.4
	c6.2,0.1,8.1,0.1,9.2-0.1c8.9-0.9,15.6-5.1,20.1-12.6c1-1.7,2.4-4.5,2.6-5.4c0.3-1.4,1.4-4.2,1.7-4.5c0.1-0.1,0.5-0.4,1-0.7
	c0.9-0.6,1-0.6,1.3-0.1c0.3,0.5,0.4,1.2,0.5,2.2c0,0.8-0.1,2.6-0.2,3.2c-0.1,0.3,0,0.5,0.5,1.8c1.1,2.8,3,6.8,4.1,8.6
	c0.5,0.8,1.5,2.2,2.5,3.4c1,1.2,3.4,3.7,4.5,4.5c2.6,2.1,5.6,3.6,8.6,4.4c2,0.5,3.1,0.6,5.7,0.6c1.5,0,2.6,0,3.2-0.1
	c3.4-0.4,6.6-1.3,10.4-2.7c1.1-0.4,1.3-0.5,1.5-0.8c0.9-1.2,10-14.6,9.9-14.6c0-0.2,0.4-2.6,0.7-3.6c0.2-0.6,0.6-2,1-3.2
	c4.4-12,7-24.9,7.9-38.5c0.3-4.2,0.3-5.6,0.3-11.9c0-7.1-0.1-9.8-0.6-16.2c-0.4-4.8-0.7-7.1-1.2-9.6c-1.4-7-4.1-11.9-8.6-15.8
	c-1.7-1.5-2.7-2.6-3.4-4.2c-0.3-0.7-0.8-2.2-0.8-2.5c0-0.3-1.1-2.3-1.7-3.1c-1.3-1.8-3.1-3.2-4.9-3.8c-1.8-0.6-4-0.6-5.9,0.1
	c-2.1,0.7-4.5,2.5-7.4,5.3c-2.2,2.1-3.2,3.3-5.6,6.6c-5.6,7.7-9.7,15.3-12.9,23.7c-4,10.7-5.8,20.4-7.8,41.4
	c-0.5,5.4-0.5,5.7-0.8,6.7c-0.6,1.9-1.9,2.8-4.2,3.1c-2.4,0.3-2.9,0.4-3.9,0.8c-1.7,0.8-2.9,1.9-4.5,4.4c-0.6,1-1.2,2.1-2.9,5.4
	c-1.8,3.6-2.2,4.3-2.7,5c-2.7,3.5-7,6-11.8,6.7c-1.1,0.2-3.9,0.1-4.9,0c-2.4-0.4-4.2-1.1-6.1-2.4c-1.6-1-2.4-2-3-3.8
	c-1.7-4.5-2.7-8.8-3.4-13.7c-0.2-1.3-0.2-1.7-0.2-6.2c0-8.2,0.4-14.6,1.4-22.4c1.4-11,4.1-22.5,7.5-32.4c2.8-8,7.2-15.9,12.7-22.7
	c3.1-3.8,7.2-7.9,10.9-11c0.9-0.7,1-0.8,1.8-1.1c0.7-0.2,0.9-0.3,1.8-0.3c1.7-0.1,2.2,0.1,2.6,1c0.7,1.3,0.7,3,0.3,6.5
	c-0.1,0.9-0.2,1.4-0.5,2.1c-0.6,1.7-1.2,4.2-1.2,5.1c0,1.1,0.6,2.3,1.6,3.3c0.6,0.6,0.7,0.7,1.2,0.8c0.7,0.2,1.8,0.2,2.5,0
	c1-0.2,1.5-0.6,2.3-1.4c3.1-3.2,5.3-8.4,5.8-14c0.1-1.5,0.1-4.6-0.2-5.8c-0.3-1.8-0.6-2.8-1.3-4.3c-0.8-1.7-1.7-2.9-2.9-4
	C1354.1,29.5,1350.1,28.2,1346.2,28.8z M1394.5,71.2c0.7,0.3,2.9,1.7,3.9,2.6c2.3,1.9,4,4.8,4.6,7.7c0.4,1.8,1,8.6,1.4,15
	c0.1,2.4,0.2,11.2,0.1,13.9c-0.5,13.6-2.8,25.6-6.9,37.2c-1.7,4.8-3.6,8.6-6.1,12.2c-0.3,0.5-0.8,1.2-1.1,1.6c-0.9,1.4-1.7,1.9-3,2
	c-1.2,0.1-1.9-0.2-3.6-1.2c-1.1-0.7-1.9-1.3-2.8-2.1c-2-1.9-3.4-4.4-3.9-7.1c-0.3-1.6-0.4-2.5-0.3-11.3c0-4.6,0-9.2,0-10.3l0-1.9
	l-0.4-0.1c-0.2-0.1-0.4-0.2-0.4-0.2c0-0.1,0.2-1.4,0.4-2.9c0.2-1.5,0.6-4.9,1-7.6c1.7-13.5,2.4-18.9,3.1-21.6c2-8.1,5.2-16.1,9.2-23
	c1.1-2,1.9-2.8,2.9-3.1C1392.9,70.9,1393.9,71,1394.5,71.2z"/>
<path class="st0" d="M866.4,29.7c-2.9,0.6-5,2.4-6.2,5.1c-1,2.4-1.5,3.9-2.5,8c-1.6,6.2-2.5,10.8-3.2,16.2
	c-1.5,10.4-4.1,22.4-8.6,38.3c-0.4,1.6-1.5,5.3-2.3,8.2c-0.8,2.9-1.6,5.6-1.7,6c-0.4,1.6-1,3.7-1,3.7c0,0-0.3-0.9-0.6-1.9
	c-0.6-1.8-0.7-2.2-2.5-10.8c-4.9-22.9-8.9-40.9-9.7-44c-0.8-2.8-0.7-5.7,0.3-8.3c0.6-1.8,0.7-2.2,0.8-3c0.1-1.8-0.5-3.6-1.8-4.9
	c-0.8-0.8-2.6-2-4.7-3c-2.2-1.1-4.9-2.1-5.9-2.1c-1.3-0.1-2.5,0.4-3.4,1.3c-0.6,0.6-0.8,1-1.1,1.8c-0.3,0.7-0.3,1.9-0.2,4.5
	c0.1,2.8,0.3,4.3,0.7,8c2.3,18.7,2.8,22.3,3.8,29.2l0.5,3.4l0.6,1.2c0.6,1.3,1,2.4,1.3,3.8c0.5,2.1,0.6,3.5,0.7,8.3
	c0.1,2.1,0.7,15.5,1.3,29.8c1.4,30.3,1.2,27,2.8,40.8c0.7,6.1,0.7,6.1,1.1,7.6c0.4,1.6,0.8,2.6,1.4,3.7c1.4,2.7,3.2,4.3,5.4,5.1
	c0.6,0.2,2.2,0.5,3.5,0.6c3.1,0.3,6.4-1.3,8.2-4c0.2-0.3,1.1-2,2-3.9l1.7-3.4l0.6-3.3c0.7-3.9,1.2-6.6,3.1-17.4
	c1.7-9.4,3.1-17.4,3.5-19.1c0.3-1.6,0.8-3.2,1.9-6.6c1.4-4.6,1.4-4.5,1.4-5.6c0-0.5,0.1-1.3,0.1-1.8c0.3-2,5.4-24.9,13.9-62.1
	c1.8-7.9,3.4-14.8,3.5-15.5c0.5-2.6,0.7-5.2,0.6-6.2c-0.4-3.4-2.8-6.4-6.1-7.5c-0.5-0.2-0.7-0.2-1.5-0.2
	C867.4,29.5,866.8,29.6,866.4,29.7z"/>
<path class="st0" d="M1172.5,29.9c-4,0.4-7.1,2.1-9.8,5.4c-1.2,1.5-2.1,2.9-3.8,5.9c-3.8,7-5.7,12.1-7.8,21.4
	c-1.4,6.4-2.2,10.9-3.1,19.1c-0.4,3.5-0.4,6.3,0,8.9c1,6.6,4.2,11.7,9.6,15.3c1.7,1.1,3.3,2,5.1,2.7c2.4,1,4.4,2.2,6.1,4
	c2.4,2.4,3.9,5.2,4.7,8.7c0.9,4,1.4,6.1,1.8,8.8c0.8,4.7,1.5,10.7,1.5,13.3c0,4.3-1.7,8.3-4.8,11.4c-1.9,1.9-4,3.2-6.6,4
	c-1.3,0.4-1.5,0.4-2.4,0.1c-0.8-0.3-1.8-1-2-1.4c-0.2-0.4-0.6-3.7-0.9-6.8c-0.3-3.3-0.3-4.8-0.3-11.4l0-6.7l-0.2-0.6
	c-0.8-2.4-2.8-4.2-5.2-4.7c-0.7-0.1-2.1-0.1-2.8,0c-1.6,0.3-2.9,1.1-4,2.5c-1.1,1.3-2,3-2.6,4.6c-0.8,2.3-1.6,7-1.9,11
	c-0.1,1.6-0.1,6.4,0,8c0.4,4.9,1.2,9.3,2.6,13.5c0.9,2.8,2.1,5.1,3.8,7.2c0.9,1.2,2.4,2.7,3.1,3.3c1.4,1.1,3,1.9,4.7,2.3
	c0.8,0.2,1,0.2,2.5,0.2c2,0,2.5-0.1,4.7-0.9c5.4-1.8,10.6-4.5,15.2-7.8c2.3-1.6,5.2-4.1,6.6-5.6c2.6-2.7,4.7-6.3,5.9-10
	c0.4-1.2,0.5-1.8,1-4.1c0.5-2.3,1-4.3,1.6-6.4c0.2-0.9,0.4-1.7,0.4-1.9s-0.1-0.7-0.3-1.1c-0.2-0.4-0.4-1.1-0.4-1.6
	c-0.2-1-0.5-3.6-0.6-5.1c-0.8-11-3.3-20.4-8-30.1l-0.8-1.6l-1.6-1.4c-4.7-4.1-5.9-5-8-6.4c-2.3-1.5-4.1-2.4-6.6-3.2
	c-1.7-0.5-2.2-0.8-3-1.6c-0.7-0.7-1.1-1.4-1.4-2.3c-0.2-0.8-0.3-2.1-0.4-6.6c-0.1-4.9,0.2-8.8,1-13.6c1.1-6.8,3.3-13.5,6.2-19.5
	c1.1-2.2,1.6-2.9,2.9-3.5c0.6-0.3,0.6-0.3,1.4-0.3c0.7,0,0.8,0,1.4,0.3c0.6,0.3,1.3,0.9,1.7,1.4c0.3,0.4,1.2,2,1.7,3
	c1.2,2.4,2.2,5.6,2.4,8.3c0.2,1.6,0,6.5-0.6,16c-0.1,2.2-0.3,5-0.3,6.2c-0.1,2.2-0.1,2.3-0.4,3.5c-0.6,2.5-1,5.2-0.9,6.1
	c0.1,1.4,0.7,2.3,2,2.9c0.9,0.4,1.5,0.6,2.2,0.6c0.7,0,1.3-0.2,2-0.5c0.4-0.2,0.8-0.5,2-1.7l1.4-1.4l0.3-1.8c0.2-1,1.1-6.2,2.1-11.6
	c1-5.4,1.9-10.6,2-11.4c0.1-0.8,0.3-2,0.4-2.5c0.2-1,0.2-1,0.2-4.1l0-3.2l-0.4-1.1c-0.4-1.2-0.9-2.9-1.5-4.8c-1-3.6-1.9-5.8-3.5-8.5
	c-1.4-2.4-2.8-4.4-4.5-6c-3-3-6.3-4.6-10.2-5C1174.7,29.8,1173.1,29.8,1172.5,29.9z"/>
<path class="st0" d="M718.1,32.1c-2.3,0.3-5.7,2-8.5,4.3c-2.4,1.9-6,6.1-8.6,10.1c-4.5,6.8-7.4,14.1-8.9,22.4
	c-0.5,2.8-0.6,3.5-0.6,5.9c0,2,0,2.4,0.2,3.2c0.6,3.3,1.9,5.7,4.3,8.2c1.7,1.7,3.6,3.1,6.4,4.7c2.4,1.4,4,2.6,5.7,4.2
	c3,3,5.2,6.6,6.4,10.7c0.4,1.3,1.2,4.7,1.4,6c0.6,3.3,1,9.3,0.9,14.2c-0.1,6.9-0.9,13.1-2.4,19.6c-0.7,3.2-1.5,5.4-3,8.1
	c-1.8,3.5-4.8,7.2-6.9,8.9c-2.3,1.7-4.1,1.8-5.7,0.1c-0.8-0.8-1.2-1.4-1.8-2.6c-0.6-1.3-1.3-2.6-2.1-4c-1.1-1.8-2.2-2.9-3.8-3.6
	c-1.2-0.6-1.9-0.7-3.4-0.7c-1.4,0-2,0.1-3.1,0.6c-1.3,0.5-2.8,1.8-3.5,2.9c-0.2,0.3-0.5,0.8-0.7,1.1c-1.4,2.3-2.1,5.2-1.9,7.7
	c0.2,2,0.5,3.1,1.7,5.4c2.6,5.1,6,9.7,9.4,12.4c5.3,4.3,11.3,5.4,17.4,3.3c2.4-0.8,4.3-1.8,6.8-3.6c2.6-1.9,4-3.1,6.4-5.5
	c3.1-3.1,5.3-5.9,7.4-9.4c1.6-2.7,2.5-4.4,3.9-8.1c1.1-2.8,1.8-4.4,2.5-5.8c0.6-1.2,0.6-1.3,1.1-5.1c0.9-7.6,1.3-13.5,1.3-21.2
	c0-5.6-0.2-9.2-0.6-14.4c-0.3-3.1-0.7-7.3-1.1-9.8l-0.2-1.1l-1-1.9c-3.8-7.5-6.3-11.7-9.4-15.3c-2.3-2.8-5.2-5.3-8-7
	c-1.7-1.1-2.1-1.3-3-1.4c-0.5-0.1-1.1-0.3-1.5-0.4c-0.8-0.2-2.4-1-3-1.4c-1-0.7-1.6-3.3-1.3-5.2c0.4-2.7,4.4-13.4,5.8-15.9
	c0.4-0.7,1.1-1.3,1.6-1.6c0.4-0.2,0.5-0.2,1.4-0.2c0.8,0,0.9,0,1.6,0.3c0.4,0.2,1,0.4,1.3,0.6c1.7,1,3.5,1,5,0
	c1-0.6,1.6-1.6,2.4-3.5c1.2-3.1,1.4-6.6,0.6-9.8c-0.7-3-3-5.3-6.1-6.1C720.4,32.1,718.7,32,718.1,32.1z"/>
<path class="st0" d="M71.2,32.4c-1,0.2-2,0.6-2.9,1.2c-1.8,1.2-3.1,3.3-3.4,5.4c-0.1,0.8-0.2,2.7-0.4,6.5c-0.1,1.6-0.1,3.2-0.2,3.4
	c0,0.2-0.1,1.8-0.2,3.5c-0.2,4.6-0.4,9-0.8,17c-0.8,14.8-1,20.2-1.2,29.3c-0.4,20.8-0.5,45.7-0.3,57.4c0.1,5,0.1,5.5,0.6,7.2
	c1.2,4.4,4.1,7.2,8.7,8.1c0.8,0.2,1.1,0.2,3,0.2c1.6,0,2.3,0,2.9-0.1c0.4-0.1,5.6-1.2,11.6-2.4l10.8-2.3l0.4-0.4
	c0.3-0.3,0.6-0.8,1.1-1.8c1.5-3.2,2.1-5,2.1-7.2c0-0.9,0-1.3-0.2-1.8c-0.7-2.9-2.8-4.7-6.4-5.6c-1.9-0.5-1.9-0.5-9.1-0.5l-6.7,0
	l0-0.2c-0.1-0.3-0.6-5.1-0.7-6.1c0-0.6-0.1-8.9-0.1-22.2c0-28.5-0.1-45.5-0.4-73.4c-0.1-5.4-0.1-9.9-0.1-9.9c0-0.2,0-0.4-0.1-0.3
	c0,0-0.9-0.8-1.9-1.7c-1-1-2-1.9-2.3-2.1C73.7,32.3,72.5,32.1,71.2,32.4z"/>
<path class="st0" d="M1001.1,32.4c-4.1,0.6-7.7,2.6-11.8,6.5c-2.8,2.7-4,4.4-6.8,9.2c-4.5,8-7.8,17.1-9.3,26.3
	c-0.4,2.4-0.5,3.6-0.5,6.3c-0.1,3.5,0.1,5.5,0.8,8.3c1.7,6.9,5.9,12,12.9,15.7c2.1,1.1,3.1,1.8,4.5,3.1c1.7,1.7,2.7,3.2,3.9,6.1
	c2.1,4.8,3.3,9.9,3.8,15.4c0.1,1.5,0.1,6.3,0,7.8c-0.4,4-1.3,8.5-2.2,11.1c-1.7,4.5-5.2,8.2-9.8,10c-1.1,0.4-2.4,0.8-4,1
	c-2,0.3-2.9,0.3-4-0.2c-0.7-0.4-1.3-0.9-1.8-1.8c-0.6-1-0.8-1.8-1.1-3.5c-0.2-1.8-0.6-3.8-0.9-4.7c-0.7-2.2-2.5-3.8-4.7-4.4
	c-1.5-0.4-3.5-0.1-4.8,0.6c-1.2,0.7-3.2,2.5-4,3.6c-1.3,1.8-2.2,4.6-2.6,7.6c-0.1,1.2-0.1,3.6,0,4.8c0.5,3.9,2,7.4,4.4,10.4
	c0.7,0.9,2.1,2.3,3,3c4.8,3.8,10.7,5.4,16.7,4.2c1.3-0.2,3.8-0.8,5.6-1.3c1.2-0.3,11.1-3.1,11.8-3.3c0.8-0.2,5.1-4.4,7-6.6
	c4.3-5.2,7.3-10.8,9-17.1c0.9-3.2,1.5-6.9,1.9-11.3c0.1-1.3,0.1-2.4,0.1-5.4c0-4.1-0.1-5.3-0.5-8.6c-0.5-4.2-1.7-9.9-2.9-13.7
	c-2.9-9.4-7.5-16.1-14.2-20.6c-1.9-1.3-4.1-2.5-6.2-3.3c-1.6-0.7-1.9-0.8-2.4-1.1c-1.9-1.2-3.1-3.2-3.4-5.4
	c-0.1-0.7,0.1-4.2,0.3-6.3c0.9-8.3,3.4-16,7.7-23.1c0.9-1.5,2-3.2,2.4-3.6c0.9-1,2.3-1.7,3.7-1.8c0.3,0,0.4,0,0.8,0.4
	c0.8,0.7,1.5,1.7,1.8,2.8c0.3,1.2,0.9,12.9,1.2,23.9c0.2,5.5,0.3,7.7,0.4,7.9c0.1,0.2,1,1,1.3,1.1c0.3,0.1,0.4,0.1,1,0.1
	c2.1-0.2,3.6-1,4.1-2.3c0.2-0.4,1-3.6,1.6-6.5c1-4.4,1.6-8,1.9-12c0.2-1.8,0.2-6.8,0.1-8.5c-0.4-6-1.8-11.4-4.3-16.4
	c-1.1-2.2-1.3-2.5-1.7-2.7c-1.4-0.7-3.7-1.4-5.3-1.7C1004.6,32.3,1002.3,32.2,1001.1,32.4z"/>
<path class="st0" d="M590.7,32.7c-2.8,0.5-4.8,2.7-6,6.1c-0.5,1.6-0.7,2.8-0.9,5.4c-0.2,2.7-0.3,3.9-1.3,8.8
	c-0.4,1.9-0.7,3.7-0.8,4.1l-0.1,0.7l0.3,0.3c0.5,0.5,0.5,1.2,0,1.7c-0.1,0.2-0.3,0.3-0.4,0.3c-0.1,0-0.1,0.5-0.1,6.9
	c0,9.3-0.3,15.9-0.9,24.5c-0.6,7.1-1.9,18.8-2.1,19.1c-0.2,0.2-1,0.6-1.5,0.6c-0.2,0-0.4,0.1-0.4,0.1c0,0,0.1,0.5,0.3,0.9
	c0.2,0.6,0.3,0.9,0.2,1.1c0,0.2-0.1,0.3-0.1,0.3c-0.2,0.1-0.5-1.1-0.5-2.1c0-0.3,0-0.3-0.3-0.4c-0.5-0.2-1-0.7-1.4-1.7
	c-0.4-0.9-0.6-1.4-2.9-8.1c-0.8-2.3-2.2-6.4-3.2-9.2c-1.8-5.2-4.5-13.4-5.7-17.2c-0.9-2.8-1.3-4.2-1.9-6.8c-0.3-1.1-0.6-2.1-0.6-2.2
	c0-0.1-0.1-0.5-0.1-0.8c0-0.6,0-0.6-1.9-5.8c-2.3-6.2-4.4-12-6.6-18.3c-1.4-4.1-1.5-4.2-3-5.2c-0.9-0.6-1.3-0.7-2.1-0.7l-0.6,0.1
	l-0.5-0.5c-0.8-0.8-0.6-0.7-2.5-0.7h-1.7l-0.7,0.7c-1.8,1.8-2.7,4.2-3.1,7.6c0,0.5-0.1,1.6-0.2,2.5c-0.4,7.8-1.2,17.7-2.9,36.7
	c-2.3,25.9-3,34.7-3.5,49.6c-0.2,6.3-0.2,17.1,0,23.7c0.2,4.4,0.5,11.2,0.7,13.4c0.2,2,0.8,4.2,1.6,6c0.5,1.1,0.8,1.5,1.5,2.2
	c0.9,0.9,1.8,1.5,3.1,1.9c0.9,0.3,2.4,0.4,3.4,0.2c1.8-0.4,3.5-1.5,4.5-3c0.8-1.2,1.6-3.1,1.8-4.6c0.2-1.1,0.2-3.6,0.1-9
	c-0.2-7.8-0.2-27,0.1-52.2c0.2-20.8,0.3-24,0.3-24.1c0-0.1,0-0.1,0-0.1c-0.1,0,0.1-0.8,0.4-2.2c0.3-1.2,0.6-2.1,0.6-2.1
	c0,0,0.2,0.7,0.4,1.4c0.2,0.7,0.4,1.6,0.5,2.1c0.1,0.5,0.2,0.8,0.1,0.8c-0.1,0,0,0.1,0.1,0.3c0.2,0.5,2.3,6.3,3.5,10
	c3.4,10,5.3,17.7,6.4,25.2c0.4,3.1,0.8,7.2,0.7,7.8c0,0.2,0.1,0.8,0.5,2.4c1.5,5.4,3.4,12.4,6.3,23.6c2.1,8.1,2.2,8.5,2.6,10.8
	c0.6,3.4,0.7,4.1,1.1,5c0.5,1.2,1.6,3.4,2.3,4.6c1.2,2.1,2.5,3.4,4.3,4.3c1.3,0.6,2.6,0.9,3.9,0.7c3-0.3,5.4-2.2,7-5.4
	c0.7-1.5,1.6-3.5,2-4.9c0.2-0.5,0.2-0.6,0.1-0.8c-0.2-0.3-0.2-1,0-1.3c0.2-0.2,0.2-0.3,0.1-2.8c-0.1-2.9,0-13.5,0.1-16.6
	c0.4-10.5,1-17.7,2.7-35.3c1.2-12.8,4.5-47.1,4.6-48.4c0.1-0.8,0.2-2.6,0.3-4c0.4-5.7,0.7-7.8,2-10.5l0.3-0.7l0-6.3l0-6.3l-0.9-0.8
	c-1.1-1-2-1.6-3.5-2.3c-1.9-0.9-3.3-1.3-4.9-1.3C591.5,32.7,590.9,32.7,590.7,32.7z M577.9,113.3c0,0.2-0.5,0.5-0.7,0.5
	c-0.1,0-0.2,0-0.2,0C577,113.7,577.8,113.3,577.9,113.3C577.9,113.3,577.9,113.3,577.9,113.3z"/>
<path class="st0" d="M1128,33.4c-1.6,0.2-2.9,0.7-3.9,1.6c-1,1-1.6,2-2.1,3.6c-0.4,1.5-1.5,7.2-2,11c-0.9,6.7-1.3,11.3-1.5,20.8
	c-0.1,3.9-0.1,42.2-0.1,48.6c0,2.7-0.1,3.9-0.6,6.7c-0.1,0.6-0.2,1.1-0.3,1.1s-0.4-0.4-0.8-0.9c-4.8-6.3-9.8-18.1-12.9-30.6
	c-0.7-2.7-1.1-4.7-1-4.8c0.1-0.1-0.8-2.7-3.8-11c-1.9-5.4-2.3-6.3-4.4-12.6c-2.9-8.6-4.1-11.7-6.2-15.8c-1.1-2.2-1.9-3.6-3.4-5.8
	c-2.2-3.3-3-4.2-4.3-4.8c-1.5-0.8-3.2-0.4-5,1.1c-0.6,0.4-0.9,0.8-1.3,1.5c-0.7,1-1.7,2.5-1.7,2.6c0,0,0.1,0.8,0.3,1.6
	c1.2,6.1,1.7,11.3,1.7,17.7c0,3.6-0.1,5.2-0.4,8.3c-0.3,3.2-0.8,6.7-1.4,9.6c-0.2,1.1-0.3,1.5-0.3,2.3c0,0.5-0.1,1.4-0.1,1.9
	c-0.1,0.7-0.1,2.3-0.2,6.1c0,2.8-0.1,5.7-0.1,6.4c-0.2,2.5-1.2,14.6-3,34.6c-1.3,14.3-1.9,21.6-2.5,28.1c-0.2,2.9-0.5,5.7-0.6,6.3
	c-0.3,2.1-0.4,2.9-0.4,5.6c0,2,0,2.9,0.1,3.8c0.5,3.7,1.6,5.6,4.3,7c1.6,0.8,3.1,1.3,6.8,2.1c0.1,0,0.2,0.1,0.1,0.2
	c-0.1,0.2,0.2,0,2.5-2.4l2.3-2.4l0-0.9c0.2-4.1,0.9-17,1.8-33.6c1-19,1.5-29.1,1.8-33.4c0.1-2.1,0.2-3.1,0.5-4.4
	c0.2-0.8,0.4-1.2,1.1-1.7l0.4-0.3l0.4,0.1c0.5,0.1,1.1,0.5,1.4,0.8c0.2,0.2,0.8,2.1,5.6,16.4c2.6,7.8,6.1,18.2,7.9,24
	c0.6,2,0.8,2.4,2,4.8c2.1,4.5,4.2,8.7,5.3,10.9c0.6,1.1,1.5,2.9,2,3.9c1.8,3.6,3.6,6.3,5.8,9c1.1,1.4,2,2.1,3.2,2.7
	c3.4,1.7,7.5,1,10.2-1.7c1-1.1,1.8-2.3,2.1-3.6c0.4-1.4,0.9-5.7,1-8.8c0.1-2.1,0-24.2-0.1-39.2c-0.1-15.8-0.2-46.2-0.1-52.4
	c0.1-6.5,0.1-7.2,0.9-16.3c0.7-8.2,0.8-10.5,0.7-17.9c0-5.2-0.1-5.8-0.2-5.9c-0.1-0.1-0.7-0.3-1.3-0.5
	C1132.4,33.6,1129.8,33.3,1128,33.4z"/>
<path class="st0" d="M630.7,33.5c-1.4,0.1-3.4,0.4-4.4,0.6c-4.5,1-6.3,2.8-7,6.7c-0.1,0.5-0.1,1.9-0.1,6.5c0,5.5-0.1,9.3-0.2,11.3
	c0,0.5-0.2,3-0.4,5.5c-0.6,8.3-1.9,25.8-2.3,30.9c-0.1,0.8-0.3,3.6-0.5,6.1c-1.3,16.7-2.3,28.8-2.4,29.7c-0.2,1.2-0.4,2.1-0.9,3.2
	l-0.3,0.8l-0.1,2c-0.1,1.3-0.1,3.7-0.1,6.6c0,2.5,0,6.9-0.1,9.8c-0.2,11.1-0.2,18-0.1,18.9c0.8,6.6,5.5,11.9,11.8,13.2
	c1.4,0.3,2.9,0.4,4.1,0.3c1.2-0.1,4.7-0.7,6.8-1.2c10.4-2.4,18.4-7,24.3-13.9c2.9-3.4,5-6.9,7.2-11.8c5.4-12.2,8.6-24.6,9.4-37.2
	c0.5-7,0.6-10,0.6-22.2c0-12.2-0.1-16.8-0.4-19.2c-0.4-3.8-1.1-7.8-2.1-11.2l-0.4-1.4l-1.8-3.1c-7.1-12.1-9.7-16.1-12.5-19.4
	c-1-1.2-3.2-3.4-4.3-4.4c-5.3-4.4-11.2-6.7-18.1-7.2C635.2,33.4,632.1,33.4,630.7,33.5z M636.5,49.2c1.4,0.3,1.8,0.4,4,1.8
	c2.3,1.4,2.5,1.6,4.5,3.8c7.6,8.3,12,17.2,12.9,26.2c0.7,7.4,1.1,16.3,0.9,23.1c-0.1,5.1-0.3,8.3-0.8,12.6
	c-0.8,7.8-2.3,15.4-4.4,22.3c-1.4,4.5-4.4,11.2-7.5,16.7c-0.9,1.6-1.4,2.3-2.5,3.4c-1.8,1.8-3.2,2.6-7.6,4.2
	c-2.3,0.9-3.9,1.1-4.7,0.8c-0.9-0.3-1.5-1.4-1.8-3.2c-0.3-1.8-0.3-3.7-0.3-29.5v-25.8h0.4h0.4l0-1.6c0-1.5,0.1-4.8,0.3-19.4
	c0-3.5,0.1-11.9,0.2-18.8l0.1-12.5l0.2-0.8c0.5-1.9,1.4-3,2.9-3.4C634.4,49.1,635.7,49.1,636.5,49.2z"/>
<path class="st0" d="M1492.5,35.5c-0.3,0.4-0.9,1.1-1.3,1.6c-2.5,3.3-4,7.1-5.5,13.5c-3.3,14.6-8.3,28.8-14.8,42.5
	c-1.1,2.3-1.5,2.9-3.2,5.2c-0.7,0.9-1.4,1.8-1.6,2.1c-0.2,0.3-0.4,0.6-0.4,0.6c-0.1,0-1.5-2.9-2-3.9c-0.2-0.5-0.8-1.8-1.2-2.9
	c-1.6-4.2-3.1-7.5-5.1-11.5c-3.8-7.6-8.2-14.8-13.4-21.6c-1.5-2-2.1-3.1-2.7-4.8l-0.2-0.8l-1.3-0.7c-1.6-0.9-4.8-2.1-6.5-2.5
	c-0.9-0.2-2-0.2-2.6,0c-0.5,0.2-1.1,0.7-1.4,1.2c-0.3,0.5-0.6,1.4-0.7,2.2c-0.3,1.5-0.3,3-0.2,7.3c0.1,4.8,0.2,19.3,0.2,26.8
	c0,2.9,0.1,7.7,0.1,10.6c0.3,14.1,0.5,28.2,0.8,53.5c0.1,10.3,0.3,13.1,0.8,15.7c0.6,2.8,1.9,5.3,3.5,7l0.5,0.5h3.3h3.3l0.7-0.7
	c2.2-2.1,3.6-4.7,4.2-7.7c0.2-0.8,0.2-1.1,0.2-3c0-1.1,0-3.8-0.1-5.9c-0.1-2.1-0.1-5.2-0.2-7c-0.1-4.2-0.2-6.9-0.4-10.5
	c-0.3-4.9-1.7-40.5-1.7-41.3c0-0.5,0.1-0.8,0.3-1.2c0.5-1.1,1.3-2.3,1.6-2.3c0.1,0,0.2,0,0.2,0.1c0,0,0,0.1,0.1,0.1
	c0,0,0.1-0.1,0.1-0.2c0-0.3,0.1-0.2,0.4,0.3c0.6,1,1.3,3.1,3.7,10.5c2.3,7,2.7,8,3.5,9.8c0.8,1.8,2.2,4.7,2.8,5.6
	c1.6,2.3,3.8,4,6.2,4.7c0.7,0.2,0.9,0.2,2.2,0.2c1.2,0,1.4,0,2.1-0.2c1-0.3,2.2-0.8,3.2-1.5c1.8-1.2,4-3.9,5.4-6.5
	c0.8-1.6,6.8-14.1,7.8-16.3c0.3-0.7,0.7-1.5,0.9-1.7c0.6-0.8,1.3-1.2,2.2-1.1c0.2,0,0.5,0.1,0.5,0.1c0.1,0,0.1,8.1,0.1,37.8
	c0,35.4,0,37.8,0.2,38.9c0.4,3.7,1.4,6.4,3,8.6l0.4,0.6l5.9,0l5.9,0l0.5-0.9c1.3-2.2,2.2-4.5,2.7-7c0.5-2.3,0.5-0.9,0.4-25.2
	c0-15,0-25.8,0.1-33.2c0.1-12.6,0.2-15.9,0.6-21.4c0.1-1,0.1-2.2,0.2-2.6c0.1-1.6,0.3-6.4,0.4-9.7c0.1-4,0.1-17.7-0.1-21
	c-0.3-6.6-0.5-10-0.9-16.3c-0.1-1.5-0.2-3.3-0.3-4c-0.1-1.6-0.3-2.8-0.7-4.1c-0.6-2-1.6-4-2.7-5.6c-0.4-0.6-0.5-0.7-0.8-0.7
	c-0.1,0-1.9-0.1-3.9-0.2c-2-0.1-4-0.2-4.3-0.2l-0.6,0L1492.5,35.5z"/>
<path class="st0" d="M899.4,36.6c-2.5,0.4-2.7,0.4-2.8,0.6c0,0.1-0.5,0.8-1.1,1.6c-6.8,9.2-12.3,19.7-16,30.7
	c-3.6,10.6-6.4,24.6-7.5,38c-0.5,5.4-0.6,8.4-0.6,15.2c0,5.7,0,6.2,0.2,8c0.5,5.2,1.2,9.9,2,14.3c0.7,3.8,2.3,10.2,3,12.3
	c1.4,4.2,3.7,8,7,11.2c1.3,1.3,2.6,2.4,4,3.3c1.3,0.9,3.2,2,4,2.3c2.4,1,4.9,1.1,7.4,0.3c2.4-0.8,4.3-2.2,5.9-4.7
	c2-2.9,3.2-5.3,5-9.5c6.9-16.2,11.6-33.2,12.7-46c0.2-2.5,1.1-19.2,1.4-26.6c0.5-11.6,0.7-21,0.5-22.7c-0.9-6.8-3.6-12.3-8.2-16.9
	c-1.1-1.1-2-1.9-3.7-3.1c-2.3-1.7-4.6-4-6-5.7c-1.1-1.4-2.1-2.1-3.4-2.5C902.4,36.5,900.5,36.4,899.4,36.6z M901.8,56.9
	c2.4,1.2,4.4,3.2,5.6,5.6c0.5,1,0.8,1.7,1,2.8c0.1,0.5,0.3,1.1,0.4,1.3c0.3,0.8,0.3,1.3,0.3,4.5c0,6.6-0.2,14.9-0.4,20.4
	c-1,23.5-4.4,39.9-11.3,55.3c-0.9,2.1-0.9,2-1.8,3.2c-0.4,0.4-0.8,0.9-0.9,1.1l-0.2,0.3l-0.4-0.9c-0.6-1.3-1.4-3.3-2-5
	c-4.4-13.2-5.6-31.8-3.1-50.8c1.8-13.9,5.5-27.1,10.4-37.1l0.7-1.5l0.5,0.2C900.8,56.5,901.4,56.7,901.8,56.9z"/>
<path class="st0" d="M1043.2,39.1c-2.9,0.6-5.1,2.8-5.7,5.7c-0.4,1.9-0.7,4.2-0.7,6.4c0,0.7-0.1,2.1-0.1,3.2
	c-0.2,3.4-0.7,13.1-1.4,24.7c-1,19.7-1.4,25.1-1.6,27.2c-0.3,3-0.8,6.4-1.4,9.4l-0.3,1.6v23.5v23.5l0.3,0.5c0.5,1,0.8,2,1,3.2
	c0,0.4,0.3,1.4,0.6,2.6c0.3,1.1,0.6,2.3,0.7,2.6c0.1,0.8,0.6,2.4,0.9,3.2c0.6,1.4,1.2,2.9,1.6,3.4c1.2,1.8,3.7,2.7,5.7,2
	c1.4-0.5,2.8-1.4,3.6-2.5c0.4-0.5,0.6-0.9,0.9-1.7c1-2.4,1.8-4.7,2.5-7.3c0.3-1.3,0.5-1.7,1.3-3.4l0.9-2l0.1-5.6
	c0-3.1,0.1-7.9,0.1-10.8c0-2.9,0.1-9,0.2-13.7c0.1-4.6,0.2-11.6,0.2-15.5c0.2-11,0.1-42.3,0-51.4c-0.1-7.6-0.3-18.6-0.3-23.3l0-2.8
	l-0.8-0.5c-1.7-1.1-4.2-2.3-5.2-2.5C1045.5,38.9,1043.9,38.9,1043.2,39.1z"/>
<path class="st0" d="M945.7,40c-1.1,0.3-2.1,1.2-3,2.4c-0.6,1-2.1,3.8-2.2,4.1c0,0.2-0.2,0.4-0.3,0.6c-0.2,0.2-0.2,0.3-0.2,0.5
	c0.1,0.4,0,1.2-0.2,1.6c-0.2,0.3-0.2,0.5-0.3,4.7c-0.3,6.9-0.7,15.8-0.8,17.5c0,0.2-0.2,3.2-0.3,6.6c-0.4,9.8-1,20.2-2,40
	c-1,19.8-1.5,29.9-2.2,43.4c-0.2,4.9,0,8.4,0.8,12.2c0.1,0.5,0.1,0.8,0.1,0.8c-0.1,0.1,1.1,0.8,2.2,1.3c1.7,0.8,3.9,1.4,5.9,1.6
	c0.6,0.1,1.5,0.1,2.4,0l1.5,0l0.3-0.3c0.7-0.7,1.9-2.3,2.6-3.5c0.8-1.4,1.5-3.2,1.8-4.6c0.4-1.7,0.4-2.2,0.5-6.8
	c0-2.4,0.1-5.7,0.1-7.3c0-1.6,0.3-21.2,0.5-43.4c0.4-46.7,0.4-46.5,0.6-51.2c0.2-6.9,0.2-7.7,0.1-10.6c-0.1-1.5-0.2-3.2-0.3-3.7
	c-0.1-1.1-0.5-2.2-0.8-2.8c-0.8-1.4-2.5-2.4-4.4-2.9C947.4,39.9,946.3,39.9,945.7,40z"/>
<path class="st0" d="M374.1,54.4c-0.4,0.1-1,0.2-1.3,0.2c-0.8,0.1-0.6,0.2,0.3,0.2c0.5,0,0.8-0.1,1.2-0.3c0.3-0.1,0.5-0.3,0.5-0.3
	c0,0,0,0,0,0C374.9,54.2,374.5,54.3,374.1,54.4z"/>
<path class="st0" d="M1103.8,151.7C1103.8,151.8,1103.9,151.8,1103.8,151.7C1103.9,151.8,1103.9,151.7,1103.8,151.7
	C1103.8,151.6,1103.8,151.6,1103.8,151.7z"/>
<path class="st0" d="M1245.3,154.6c-2.2,0.3-4.3,1-6.8,2.2l-1.4,0.7l-0.9,1.2c-2.3,3.4-5.2,8-6,9.5c-1.1,2.5-0.9,5.7,0.6,8
	c1.6,2.4,4.2,3.9,7,3.9c3,0,9.4-1.8,13.2-3.7c4.4-2.2,6.2-5.1,6.6-10.5c0.2-2.2,0-3.1-0.9-6.9l-0.4-1.6l-0.9-0.6
	c-2-1.3-3.9-2.1-6-2.4C1248.6,154.5,1246.4,154.5,1245.3,154.6z"/>
<path class="st0" d="M1295.9,160.4c0,0.1,0.8,2.4,1.1,3.1c0.3,0.8,1.3,2.8,1.5,3c0.1,0.1,0.1,0.1,0-0.4c-0.3-1.5-1.3-3.8-2.1-5.1
	C1296.1,160.5,1295.9,160.3,1295.9,160.4z"/>
<path class="st0" d="M1410.4,162.3c0,0.1,0,0.3,0,0.5l0,0.3l0.1-0.3c0.2-0.6,0.2-0.6,0.1-0.6
	C1410.5,162.1,1410.4,162.1,1410.4,162.3z"/>
<path class="st0" d="M1400.1,177.2c0,0.2,0,0.2,0.4,0l0.3-0.2l-0.3,0C1400.2,177,1400.1,177.1,1400.1,177.2z"/>
<path class="st0" d="M556.7,211.7c-1.1,0.3-1.9,1-2.5,2.1c-0.8,1.5-1.1,2.7-1.2,5.4c-0.1,3.2-0.3,12.3-0.2,15.1
	c0.1,3.9,0.1,4.5-0.1,5.4c-0.6,3.1-2.2,5.5-4.9,7.4c-1.3,0.9-2.2,1.8-2.6,2.5c-0.3,0.6-0.4,1.5-0.2,2.1c0.3,0.9,1,1.7,2.6,3.1
	c2,1.7,3,3.5,3.4,6.1c0.1,0.8,0.1,1.3,0.1,3.6c-0.2,8.7-0.2,12.2-0.3,19c0,4.1-0.1,10.2-0.2,13.5l-0.1,6l0.2,0.2
	c0.2,0.3,0.3,0.9,0.2,1.3c-0.1,0.3-0.1,0.4,0.7,2c0.4,1,1.1,2.5,1.5,3.5c1,2.2,2.2,4.8,2.7,5.4c0.2,0.3,0.6,0.8,1,1.1
	c1.9,1.9,4.8,2.6,7.4,2c1.9-0.5,3.7-2.1,4.5-4c0.4-1,0.5-1.7,0.6-3.3c0.1-1.8,0-2.4-0.4-4.1c-1-4.3-1.8-10.5-2.2-16.5
	c-0.2-4.1-0.3-5.9-0.4-16.8c-0.1-11.9-0.1-11.3,0.4-15.5c0.4-3.1,0.3-3,0.5-3c0.1,0,2.4-0.5,5.2-1.1l5.1-1l6-2.3
	c6.7-2.5,6.4-2.4,6.7-3.3c0.6-1.6,0.3-3.3-0.6-4.3c-0.4-0.4-1.6-1-2.7-1.4c-1.4-0.4-1.5-0.4-9.9-0.4c-5.8,0-7.8,0-8.1-0.1
	c-1.1-0.3-2.2-1.2-2.7-2.3c-0.4-0.7-0.4-0.8-0.7-3.7c-0.3-3-1.3-10.6-1.7-13.4c-0.6-4-0.8-5.5-1-6c-0.3-0.7-1-1.7-2.2-3.1
	c-1.2-1.3-1.4-1.5-2.2-1.7C557.9,211.6,557.4,211.6,556.7,211.7z"/>
<path class="st0" d="M605.9,222.4c-1.1,0.2-2.1,0.6-2.9,1.3l-0.5,0.4l-1.3,4.5c-2.1,7-2,6.9-2.7,8.4c-0.9,2-1.1,2.4-1.1,3.3
	c0,1.2,0.4,2.4,1,3c0.5,0.5,1.2,0.7,2.3,0.7c2.1,0,2.7-0.5,4.6-3.3c1.1-1.7,1.9-3.3,3.4-6.8c0.9-2.2,2.9-7.3,2.9-7.5
	c0,0-0.1-0.2-0.2-0.3c-0.2-0.3-0.3-0.8-0.2-1.1c0.1-0.3,0.1-0.3-0.2-0.6c-0.8-0.9-1.8-1.5-2.9-1.8
	C607.6,222.4,606.4,222.3,605.9,222.4z"/>
<path class="st1" d="M70.7,226.3c-1.5,0.2-2.8,0.7-5.1,1.8c-2.5,1.3-5.1,2.9-7.2,4.7c-10,8.5-17.7,19.2-22.6,31.4
	c-1.4,3.4-7,20.9-7.4,22.7c-0.2,1.2-0.3,3.2-0.2,6.5c0,1.6,0.1,4.4,0.2,6.2l0.1,3.3l0.9,2.6c1.2,3.2,1.4,3.7,2.6,6.1
	c1.6,3.2,2.9,5.1,5,7.2c5.1,5.2,11.7,7.9,19.2,7.9c2.2,0,4.1-0.2,6.3-0.8c9.4-2.4,18.2-9.8,21.9-18.4c0.9-2.1,1.6-4.7,1.7-6.1
	c0.2-3.4-1.7-6.5-4.9-8.1c-2.7-1.3-5.7-1.3-8.3,0c-0.6,0.3-0.9,0.5-1.6,1.3c-1.1,1-4.6,4.7-6.4,6.6c-1.3,1.4-4,3.9-4.6,4.4
	c-0.6,0.4-1.6,0.9-2.2,1.1c-0.7,0.2-1.9,0.2-2.6,0c-0.7-0.2-1.8-0.7-2.5-1.2c-1.3-1-2.7-2.7-3.6-4.3c-0.1-0.3-0.4-0.6-0.5-0.8
	c-0.2-0.2-0.3-0.4-0.3-0.8c0-0.4-0.1-0.7-0.4-1.4c-1.1-2.4-1.5-4.4-1.4-7c0.1-2.1,0.5-3.8,1.4-5.8l0.5-1l0.1-1.3
	c0.4-5.5,1.8-11.5,3.9-16.8c2.9-7.3,7.3-14.3,13.3-21.3c0.6-0.7,1-1.2,1-1.2c-0.2-0.1,0.9-1.7,1.6-2.4c0.4-0.4,0.7-0.5,1.8-0.3
	c0.5,0.1,1,0.1,1.1,0.1c0.2,0,0.1,0.2-0.7,1.3c-0.8,1.2-0.9,1.3-0.9,1.7c0,0.2,0,0.7-0.1,1.2c-0.3,2.1-0.3,2.3-0.2,3.1
	c0.2,1.2,0.8,2.2,1.7,2.9c0.8,0.6,1.8,1,3,1c2.1,0.1,4-0.7,5.2-2.3c1.4-1.8,2.6-4.1,3.3-6.4c1.1-3.8,0.9-8.3-0.6-11.3
	c-0.9-2-2.9-4-5-5.1C75.2,226.4,72.7,226,70.7,226.3z"/>
<path class="st1" d="M798.2,232.3c-0.7,0.1-2.3,0.4-3,0.5c-1.4,0.4-3.7,0.8-5.9,1.1c-1.1,0.1-1.9,0.1-4.8,0.1c-2.8,0-3.7,0-4.5,0.1
	c-2.4,0.3-4.6,1-6.9,2.1c-7.7,3.9-16.4,13.7-21.2,23.9c-1.5,3.2-1.9,4-2.4,5.2c-0.4,0.8-1.2,2.8-1.9,4.4c-0.7,1.7-1.5,3.5-1.8,4
	l-0.4,1l-0.1,1.5c-0.2,2.7-0.3,4-0.8,6.1c-2.2,8.9-1.9,18.5,0.9,27.1l0.3,0.8l4,4.9l4,4.9l1.6,0.8c0.9,0.4,2.5,1.2,3.6,1.7
	c2.8,1.3,4.4,2,6.7,2.6c5,1.4,10.4,1.8,15.6,1.2c7-0.9,13.7-3.7,19.3-8.2c2.1-1.7,3.6-3.2,5.9-5.9c5.1-5.9,8.7-12.9,10.5-20.4
	c1.7-7.1,2.8-13.4,3.3-20c0.2-2.2,0.2-8.4,0.1-10.7c-0.4-6.6-1.4-12.6-3.3-18.4l-0.4-1.1l-1.5-1.5c-0.8-0.8-1.8-1.8-2.1-2.2
	c-2.8-3.2-6.9-5.3-11.2-5.8C801.1,232.2,798.9,232.2,798.2,232.3z M793,249.2c0.9,0.2,1.8,0.4,2.4,0.7c1.1,0.5,2.4,1.9,3.2,3.4
	c0.4,0.8,0.4,0.8,0.6,2.3c0.2,1.4,0.3,2.4,0.9,7.2c0.1,0.9,0.3,2.4,0.4,3.3l0.2,1.6l-0.3,1.5c-0.4,1.9-0.7,3.7-1.4,7.5
	c-0.9,5.1-1.7,8.7-2.4,11c-0.4,1.4-1.6,4.1-2.7,5.9c-2.8,4.8-5.7,7.7-10,9.9c-3.2,1.6-5.9,2.2-8.8,2.1c-1.9-0.1-3.4-0.4-5-1.2
	c-3.3-1.6-5.5-4.6-6.2-8.7c-0.6-3.2,0.3-10.6,2.1-17.6c1.2-4.9,2.7-8.9,4.6-13.2c2.6-5.6,6.3-10.8,8.8-12.4c2.6-1.7,6-2.8,9.6-3.2
	C790,249,792.1,249.1,793,249.2z"/>
<path class="st0" d="M976.7,236.2c-0.9,0.2-2.2,1-2.5,1.6c-0.1,0.3-0.7,2.4-1,3.8c-0.6,3.2-1.4,8.5-2.1,14.4
	c-0.2,1.5-0.2,1.9-0.1,2.2c0.1,0.4,0,0.9-0.2,1.1c-0.1,0-0.2,0.4-0.3,0.8c-0.1,0.4-0.5,1.3-0.9,2.1c-0.8,1.8-1,2.3-1.1,3.6
	c0,1.2,0.1,2.1,0.5,3.8c0.9,3.3,1,5.1,0.5,10c-0.4,3.5-0.4,3.8-0.8,9.8c-0.7,11.4-0.9,14.4-0.8,19.5c0,2.9,0.1,4,0.2,4.6
	c0.3,2.2,0.9,3.7,2,4.7c0.9,0.9,1.9,1.4,3.5,1.7c0.5,0.1,1.2,0.2,1.7,0.3c1.1,0.1,3.9,0.2,4.4,0.1l0.4-0.1l0.6-1.3
	c0.9-1.9,1.4-3.3,1.8-5.2c0.4-2.2,0.4-2.2,0.3-11.5c-0.1-6,0-12.2,0.2-20.2c0-1.7,0.1-4.1,0.1-5.2c0-1.8,0.1-2.2,0.2-2.7
	c0.3-1.1,0.8-1.9,1.6-2.7c0.6-0.5,1.2-1,1.8-1.2c0.2-0.1,1.3-0.4,2.4-0.6c2.1-0.5,4.4-1.2,6.2-1.9c2.4-0.9,8.3-4.1,9.1-5
	c0.5-0.5,0.9-1.3,1.1-2c0.2-0.8,0.1-1.9-0.2-2.5c-0.4-0.8-1.4-1.6-2.9-2.2l-0.7-0.3l-1.2,0c-1.4,0.1-2,0.2-3.3,0.6
	c-0.6,0.2-2.8,0.6-7.1,1.4c-3.4,0.6-6.2,1.1-6.3,1.1c0,0-0.2-1.3-0.4-2.9c-0.3-2.6-0.4-3.1-0.4-5.5c-0.1-4.8-0.2-5.9-0.9-8.3
	c-0.3-1.2-1-3.3-1.4-4.1C980.4,236.6,978.5,235.8,976.7,236.2z"/>
<path class="st1" d="M1324.8,242.7c-0.3,0.1-0.8,0.3-1.2,0.5c-0.6,0.3-0.9,0.5-1.6,1.1c-1.8,1.7-2.9,3-6.8,8
	c-1.9,2.5-4.6,5.8-5.7,7.2c-0.2,0.3-1.8,2.8-3.6,5.6c-1.7,2.8-3.2,5.1-3.3,5.3c-0.1,0.1-0.4,0.3-0.7,0.5c-0.6,0.3-1.2,0.3-1.8,0.1
	c-0.4-0.1-1-0.7-1.2-1c-0.1-0.1-3.3-4.6-7.2-10c-6-8.3-7.3-10-8.2-11.1l-1.1-1.2l-1.8-1c-2.1-1.2-2.6-1.3-4.3-1.4
	c-1.3,0-2,0.1-3,0.6c-1.1,0.6-2,1.6-2.4,2.8c-0.4,1.2-0.4-0.2-0.4,29.8c0,26.4,0,27.9,0.2,29c0.4,3.2,1,5.8,1.9,8.6
	c0.3,0.8,0.5,1.2,0.8,1.8c1.1,1.6,2.8,2.8,4.8,3.4c0.5,0.1,0.9,0.2,2,0.2c1.6,0,2.2-0.1,3.5-0.7c1.7-0.8,3-2.1,3.8-3.8
	c0.7-1.5,0.8-2.5,0.9-6.6c0-2.5,0-4.6-0.4-14l-0.4-11l-0.4-1.2c-0.8-2.6-0.7-3.6,0.4-4.1c0.5-0.2,0.5-0.2,1.8-0.2h1.3l0.9,0.8
	c2.6,2.2,5.5,4,7.9,4.9c2.1,0.8,4,0.8,5.6,0.1c2.1-1,4.8-3.7,7.3-7.6c2.1-3.2,3.5-4.7,5.6-5.8l0.8-0.4l0,22.2c0,21,0,22.3,0.2,23.1
	c0.3,1.8,1,4,1.5,4.9c0.3,0.5,1.5,1.7,2.3,2.2c2.1,1.4,4.4,2,6.2,1.4c0.9-0.3,1.6-0.7,2.3-1.4c0.6-0.6,0.7-0.7,1.3-2
	c0.8-1.6,1.2-2.7,1.4-4c0.2-1,0.2-1,0.1-11.4c0-5.7-0.1-15.7-0.2-22.3c-0.2-24.3-0.2-30.8-0.4-31.8c-0.3-2.2-1.2-4.9-2.3-7.1
	c-0.6-1.1-1.3-1.9-2.4-2.4C1327.4,242.6,1326,242.4,1324.8,242.7z"/>
<path class="st0" d="M1457.2,244c-1,0.3-3.1,1.6-4.7,3c-0.4,0.3-0.4,0.4-0.4,0.6c0.3,0.5,0.2,1.1-0.1,1.5l-0.2,0.2l-0.1,5.6
	c-0.1,10.2-0.3,14.8-0.5,15.9c0,0.2-0.2,0.7-0.4,1c-0.6,1.2-2.1,2.4-2.9,2.4c-0.6,0-2.4,0.3-3.4,0.6c-3.5,0.9-6.3,2.7-8.8,5.6
	c-1.9,2.2-3.5,4.9-5.9,9.9c-0.7,1.4-1.3,2.6-1.3,2.7c-0.1,0.1-0.1,0.6-0.2,3c-0.1,3.6-0.2,7.3-0.4,11.6l-0.1,3.4l1.2,1.2
	c2.3,2.4,5,5.3,7,7.6l0.6,0.7l0.5,0c0.9,0.1,2.6,0.1,3.5-0.1c2.6-0.3,5-1.4,7.1-3c0.4-0.3,1.2-1.1,1.8-1.7c1.2-1.2,1.6-1.5,2.7-1.9
	c0.9-0.4,1.6-0.5,2.7-0.4c0.8,0,1.1,0.1,1.6,0.2c1.1,0.4,2,0.5,3.4,0.5c1.1,0,1.4,0,1.9-0.2c1.3-0.4,2.4-1.1,3.2-2.1
	c0.7-0.9,1.4-2.4,1.7-3.8c0.3-1.4,0.6-5.8,0.5-8.8c-0.1-2-3.2-45.9-3.3-46.8c-0.3-1.8-1.5-5.7-1.9-6.5c-0.5-0.9-1.5-1.7-2.6-2
	C1458.8,243.8,1457.8,243.8,1457.2,244z M1448.4,285.4c1,0.5,2.4,2.5,3.1,4.4c0.2,0.5,0.2,0.7,0.3,1.8c0.1,2.1-0.2,4.1-0.9,6.1
	c-1,2.9-2.4,5.2-4.5,7.3c-1.4,1.4-2.3,2-2.8,2.1c-1,0.2-2.5-0.6-3-1.6c-0.3-0.7-0.2-3.4,0.2-6.4c0.9-5.9,2.6-10.5,4.8-12.9
	C1446.8,285.1,1447.5,284.9,1448.4,285.4z"/>
<path class="st0" d="M653.6,253.9c-1.5,0.2-3.1,0.7-4.4,1.3c-2.5,1.2-3.7,2.2-11.7,10.2l-4.7,4.7l-0.2,0.6c-0.3,0.9-0.8,2.3-2,5.4
	c-1.4,3.4-1.7,4.5-2.2,6.1c-0.5,1.6-0.7,3.6-0.7,5.3c0,1.2,0,1.5-0.4,2.4c-0.4,0.9-0.7,1.4-2.5,3.5c-4.5,5.2-10,9.9-15.9,13.4
	c-1.8,1.1-2.7,1.4-4.1,1.5c-0.8,0.1-2.5-0.1-3.5-0.3c-3.1-0.6-5.7-3-6.7-6c-0.6-1.8-0.5-2.9,0.5-3.8c0.5-0.5,1.4-0.9,2.9-1.4
	c1.6-0.6,1.8-0.7,3-1.4c4.4-2.7,7.9-5.6,10.3-8.6c2.2-2.7,4.1-6.4,4.8-9.4c0.3-1.2,0.4-1.9,0.4-3.3c0-5-2.9-9.5-7.4-11.6
	c-3-1.4-6.3-1.6-9.4-0.6c-0.9,0.3-2.7,1.2-3.8,1.8c-6.3,3.8-11.8,10.7-15,18.7c-1.3,3.2-2.1,6.4-2.6,10c-0.1,0.8-0.1,1.6-0.1,3.8
	c0,2.9,0,3.5,0.5,5.6c1.7,8.6,8.2,16.6,16.2,19.9c1.7,0.7,3.7,1.3,5.6,1.5c1,0.2,4.3,0.2,5.3,0c3.5-0.5,6.6-1.8,9.7-3.8
	c1.4-0.9,1.5-1,7.3-5.9l4.2-3.6l0.1,0.3c0.1,0.2,0.5,1.4,1,2.7c1.6,4.6,2.3,6.1,3.5,8c3,4.5,7,7.1,12.2,8c1.3,0.2,4.2,0.3,5.7,0.2
	c3.4-0.3,5.9-0.9,8.3-2.1c4.7-2.3,8.3-6.4,9.9-11.3c0.6-1.8,0.9-3.3,1.2-6.9c0.2-1.6,0.2-5.6,0.1-7.1c-0.2-2.9-0.9-5.5-2-7.8
	c-0.6-1.3-1.2-2.3-2.2-3.6c-0.4-0.6-0.9-1.3-1-1.6c-0.2-0.5-0.3-0.6-0.3-1.4c0-0.8,0-0.9,0.3-1.5c0.2-0.3,0.6-1.1,1-1.7
	c1.1-1.6,2.5-4.7,3.6-7.6c0.9-2.5,2-6.2,2.3-7.7c0.2-0.9,0.1-2.9,0-3.8c-0.9-4.9-4.6-9-9.9-10.7
	C658.5,253.9,655.8,253.6,653.6,253.9z M656,267.1c1.5,0.4,2.4,1.1,2.8,2.1c0.2,0.5,0.2,0.7,0.2,1.6c0,0.9-0.1,1.3-0.3,2.2
	c-0.5,2.3-1.1,5.5-1.6,8.1c-0.3,1.5-0.5,2.7-0.5,2.7c-0.1,0.1-3.4,0.4-4.5,0.4c-2.2,0.1-3.2-0.2-5.2-1.2c-1.1-0.6-3.6-2-3.7-2.2
	c0-0.1,4.1-6.3,5.4-8c1.7-2.4,3.1-4.1,3.8-4.9C653.6,267,654.5,266.7,656,267.1z M604.2,273.4c0.8,0.3,1.3,1,1.7,2.1
	c0.1,0.4,0.1,0.5-0.1,1.2c-0.7,2.6-2,4.7-3.9,6.6c-1.1,1-1.9,1.7-3,2.3c-0.9,0.5-2.4,1.1-2.5,1c-0.1,0-0.4-0.3-0.8-0.7
	c-0.4-0.3-0.7-0.6-0.8-0.6c-0.1,0,0.3-1.3,0.6-2.2c1-3.2,2.9-6,5.5-8.2c0.7-0.6,2-1.5,2.2-1.6C603.2,273.2,603.7,273.3,604.2,273.4z
	 M634.7,297.5c0.5,0.2,0.5,0.2,1,0.1c0.6-0.1,1.1,0,1.6,0.2c0.6,0.3,5.4,1.4,6.7,1.6c0.6,0.1,1.3,0.3,1.6,0.4
	c0.6,0.2,0.6,0.2,2.3,0.2c1.9,0,2.3,0,3.1,0.5c0.8,0.4,1.3,1.1,1.9,2.6c0.8,1.9,0.9,4,0.4,5.9c-0.2,0.8-0.5,1.4-0.9,2.2
	c-0.7,1.3-1.4,1.8-2.9,2.2c-0.6,0.1-0.9,0.2-2,0.2c-1.4,0-2-0.1-2.7-0.5c-0.6-0.3-0.8-0.6-0.9-1.5c-0.6-3.1-2.2-5.1-5.8-7.3
	c-0.5-0.3-1.5-0.9-2.1-1.3c-1.2-0.8-2.4-1.6-3-2.2l-0.4-0.4l0-1.2c0-1.3,0-1.7,0.4-1.9C633.5,297.2,634,297.3,634.7,297.5z"/>
<path class="st0" d="M460.1,253.9c-2,0.1-4,0.7-6.2,1.9c-1,0.5-3.1,1.9-4.4,3c-1.7,1.4-5.1,4.7-9.6,9.3l-1.7,1.8l0.6,1
	c1.3,2.1,2.4,3.3,3.2,3.7c0.9,0.4,1.9,0.2,3.2-0.5c0.8-0.5,0.9-0.6,5-3.7c3.6-2.7,3.9-3,5.1-3.7c3-1.8,4.5-2,5.8-0.8
	c0.9,0.9,1.7,2.3,2.9,5.4l0.4,1.1l0,0.9l-0.1,0.9l-0.4,0.2c-0.2,0.1-1.2,0.5-2.3,1c-7.9,3.3-11.3,5.3-14.6,8.6
	c-1.9,1.9-3.6,4.3-5.4,7.3c-0.7,1.2-2.2,4.3-2.9,5.8c-0.5,1.2-0.5,1.2-0.5,1.9c0,0.4,0.1,1.7,0.1,2.8c0.1,1.1,0.1,2.4,0.1,2.9v0.8
	l0.5,0.7c2.1,2.9,5.4,7.1,6.6,8.2c1.1,1.1,2.9,2.4,4.3,3.2c3.5,1.9,7.6,2.2,11.7,0.8c2-0.7,3.9-1.7,5.7-2.9c1.2-0.9,2.9-1.9,4.3-2.5
	c3.4-1.6,3.9-2,5.2-3.3c1.4-1.5,2.3-3.3,2.8-5.3c0.1-0.6,0.3-2.5,0.4-4.8c0.1-1.8,0.1-7,0-8.9c-0.4-7.6-1.8-14.8-4.1-21.7
	c-0.8-2.3-1.2-3.5-2.2-5.4c-1-2-1.6-3.1-2.4-4.1C468.2,255.5,464.5,253.6,460.1,253.9z M463.9,291c0.7,0.2,1,0.4,1.3,1
	c0.7,0.9,0.9,2.3,0.5,3.5c-0.7,2.4-2.3,4.7-4.5,6.1c-1.1,0.8-2.9,1.5-4,1.6c-0.5,0.1-1-0.2-2-1.1c-0.4-0.4-0.9-0.8-1.1-0.9l-0.3-0.2
	l0.1-0.4c0.1-0.6,0.4-2,0.6-2.6c1-2.6,2.8-4.8,5.1-6.2c0.8-0.5,1.8-1,2.2-1C462.4,290.7,463.4,290.8,463.9,291z"/>
<path class="st0" d="M524.8,257c-0.8,0.1-2.4,0.5-3,0.7c-1.9,0.8-3.3,2.5-3.8,4.4c-0.1,0.5-0.4,2.7-0.5,5c0,0.6-0.1,3-0.2,5.4
	c0,2.3-0.1,4.4-0.1,4.6c0,0.2-0.1,0.9-0.2,1.5c-0.3,3.1-1.1,6.5-2.1,9.4c-1.2,3.4-3,7.2-4.9,9.9c-0.4,0.5-1.1,1.6-1.6,2.4
	c-1.2,1.8-1.8,2.6-2.4,3.1c-1.1,0.9-2.1,1.1-4,0.6c-1.4-0.4-1.8-0.9-1.9-3.3c-0.2-3.1-0.4-10-0.4-19.5c0-8.1-0.1-9.8-0.4-14.6
	c-0.1-1.7-0.2-3.8-0.3-4.8c-0.1-1-0.1-1.8-0.1-1.8c0,0-0.8-0.1-1.8-0.2c-3.3-0.2-4.9,0.1-5.9,1.1c-0.7,0.6-1,1.3-1.4,3.3
	c-2,8.1-3,15.5-3.4,23.8c-0.1,2.4-0.1,9.8,0.1,11.9c0.2,2.4,0.3,4.3,0.5,5.4c1.2,8.7,4.6,13,11.3,14.6c1.8,0.4,3.1,0.5,5.9,0.6
	l2.6,0l5-5.6c2.8-3.1,5.1-5.6,5.2-5.7l0.2-0.2l2.6,2.3c3.4,3.1,3.4,3.1,4.2,3.5c1.1,0.5,1.8,0.7,3,0.7c1.2,0,1.8-0.1,3.1-0.6
	c1.2-0.5,1.8-0.9,2.6-1.6c0.7-0.7,1.2-1.4,1.7-2.3c0.7-1.5,0.8-3,0.4-5.5c-0.6-3.4-0.9-6.9-1.1-11.4c-0.1-4-0.1-7.3,0.2-16.8
	c0.2-6.7,0.2-7.6-0.3-10.3c-0.4-2-1.2-5.1-1.7-6C530.6,258.3,527.7,256.7,524.8,257z"/>
<path class="st0" d="M149.2,258.3c-0.5,0.3-1.2,1-2,2.1c-0.4,0.5-0.9,1.2-1.1,1.6c-0.2,0.3-0.5,0.7-0.6,0.9c-0.1,0.2-0.1,1-0.2,3.6
	c-0.2,4.4-0.4,10.5-0.9,20.3c-0.8,18.5-1,21.8-0.8,23.6c0.2,2.5,0.6,5.1,1,6.2c0.6,1.5,1.5,2.7,2.9,3.6c0.5,0.4,1.8,0.9,2.3,1.1
	c1.9,0.5,4,0.2,5.6-0.6c1.2-0.7,2.2-1.7,2.8-3c0.7-1.4,0.7-1.6,0.7-4.9c0-1.5,0-4.4-0.1-6.3c0-1.9-0.1-5.2-0.1-7.2
	c0-3.2,0-3.8,0.1-4.5c0.3-1.5,0.8-3.4,1.3-4.4c0.3-0.5,1.7-2.6,2.7-4c1.1-1.4,2.6-3.3,4.6-5.8c0.7-0.9,1.9-2.3,2.5-3.1
	c1.4-1.7,1.5-1.8,2.6-1.8c0.7,0,0.7,0,1,0.2c0.4,0.3,0.8,0.8,1,1.3c0.2,0.6,0.3,3.1,0.4,9.1c0,5.2,0,8.7-0.3,15
	c-0.2,5.9-0.3,10.3-0.2,11.3c0.3,2.7,1.1,5.5,2.4,8.1c0.6,1.1,1.2,1.9,2.2,2.3c0.9,0.4,1.4,0.5,2.5,0.5c0.8,0,0.9-0.1,1.8-0.4
	c1.7-0.7,3-1.8,3.9-3.1c0.5-0.8,0.7-1.2,1-2.4c0.4-1.3,0.5-2.3,0.6-4.2c0-1,0.1-2.4,0.2-3.3c0.1-1.6,0.1-8.6,0.1-12.4
	c0-1.4,0-2.3,0.1-2.8c0.5-4,2.1-7.5,4.5-10.3c0.4-0.4,0.9-1.1,1.3-1.5c0.4-0.4,1.2-1.6,2-2.6c2-2.9,2.7-3.7,3.9-4.7
	c1.5-1.3,3.1-2,5-2.2l0.7-0.1l0.2,0.6c0.7,1.8,1,3.7,0.8,5.8c-0.1,0.6-0.2,2-0.4,3c-0.4,3-0.5,3.7-0.7,6.2c-0.1,1.3-0.3,3.2-0.4,4.3
	c-1,9.4-1.1,11.1-1.1,14.8c0,2.4,0,3,0.3,4.5c0.4,2.2,1.5,5,2.5,6.1c0.8,0.9,1.9,1.7,3.1,2.1c1.4,0.5,3.7,0.2,5.2-0.5
	c1.7-0.8,2.9-2.6,3-4.5c0-0.5,0-1-0.2-2.3c-0.5-3.1-0.5-4.1-0.5-8c0-4.4,0.1-5.6,0.9-13.8c0.7-6.5,0.7-7.2,0.8-9.7
	c0.1-5.6-0.5-9.6-2-13.2c-1.5-3.5-4.2-6.5-7.7-8.7l-0.8-0.5l-1.9-0.1c-2-0.2-1.9-0.2-3.3,0.1c-0.4,0.1,0,0.2,0.7,0.2
	c0.4,0,0.7,0,0.7,0.1c0,0.1-16.7,12-16.8,12c0,0-0.2-0.5-0.4-1c-1.2-3.2-1.9-4.5-4.4-8.2l-2.2-3.2l-1.2-0.2
	c-4.3-0.8-7.9-0.2-11.5,1.9c-2.8,1.6-5.6,4.1-9.3,8.2l-0.4,0.5l-0.3-0.8c-1.2-3.3-3.6-8.1-4.6-9.1c-1-1.1-2.8-1.9-4.4-2
	C149.6,258.1,149.5,258.1,149.2,258.3z"/>
<path class="st0" d="M123.5,259.1c0,0-1.8,0.2-4,0.3l-4,0.3l-0.2,0.2c-0.4,0.3-0.8,0.4-1.3,0.4l-0.4,0l-0.9,0.8
	c-5.5,5-9.7,11.2-12.8,19.1c-0.7,1.7-1.9,5.4-2.4,7.4c-1,3.6-1.9,7.6-2,9.2c-0.1,1.2-0.1,3.9,0,5.1c0.4,4.4,2,9.3,4.2,12.5
	c2.7,4,6.7,6.8,11.3,7.7c1,0.2,1.2,0.2,3,0.2c1.9,0,2.1,0,3-0.2c1.4-0.3,2.6-0.7,3.9-1.3c1.7-0.8,3-1.7,4.4-2.9
	c0.8-0.7,7.3-7.8,7.5-8.1c0.3-0.7,2.3-5.9,2.9-7.6c1.4-3.6,1.9-5.4,2.6-8.4c1.7-7.4,1.7-14.1,0.2-20.2c-0.7-2.8-2-6.2-3.3-8.5
	c-1.6-2.9-4.4-5-7.6-5.8c-0.7-0.2-1.1-0.2-2.4-0.2C124.3,259,123.6,259,123.5,259.1z M122.5,274c0.7,0.2,1.2,0.5,1.7,1
	c0.6,0.6,0.8,1.1,1,2.1c0.1,0.4,0.2,1,0.3,1.3c0.1,0.3,0.2,0.9,0.2,1.6c0,0.6,0.1,1.4,0.2,1.8c0.1,0.9,0.1,1.7,0,3.3
	c-0.4,5.1-1.8,10-4.2,14.4c-1.1,2-3.2,4.9-4.4,6.1c-0.8,0.9-2,1.4-3.2,1.4c-0.6,0-0.7,0-1.1-0.2c-0.6-0.3-1.5-1.4-1.9-2.1
	c-0.3-0.6-0.6-2.1-0.9-4c-0.2-1.4-0.2-5.8,0-7.1c0.5-4.1,1.7-8,3.6-12.1c0.6-1.4,0.9-1.9,2-3.8c0.8-1.5,1-1.6,3.2-2.7
	C121.1,273.8,121.5,273.7,122.5,274z"/>
<path class="st0" d="M407.4,259.2c-1.4,0.1-1.7,0.1-3.1,0.3c-3.3,0.6-6.7,1.9-9.5,3.7c-0.9,0.6-7.2,6.1-7.6,6.6
	c-0.1,0.2-0.3,0.5-0.5,0.8c-0.1,0.3-0.3,0.5-0.4,0.6c-0.2,0.3-0.5,0.2-3.5-0.9c-2-0.8-3-1-4.1-1.2c-2.8-0.3-4.3,1.1-4.7,4.6
	c-0.3,2.8-2,35.9-2,40c0,2.8,0.5,4.7,1.5,6.3c1.2,1.8,3.4,3,5.4,3c0.8,0,1.3-0.1,2-0.4c1-0.5,1.7-1,3.9-3.1c0.5-0.5,1-1,1.2-1.1
	c0.2-0.2,0.4-0.4,0.4-0.5c0-0.1,0.1-0.3,0.1-0.5c0-0.2,0.6-3,1.3-6.3c1.9-9,2.4-11.4,3.4-15.9c0.5-2.1,0.7-2.8,1.1-3.7
	c1-2.4,2.1-4.7,3.3-6.9c0.4-0.7,0.8-1.5,0.9-1.8c0.1-0.4,0.3-0.6,0.5-0.8c0.2-0.1,0.4-0.4,0.6-0.6c0.2-0.2,0.5-0.5,0.6-0.6
	c0.3-0.3,0.2-0.2-0.4,0.5c-0.1,0.2,0,0,0.3-0.2c0.3-0.3,0.5-0.5,0.5-0.6c0,0,0.1-0.2,0.2-0.3c0.1-0.2,0.3-0.4,0.3-0.5
	c0.1-0.1,0.2-0.2,0.2-0.3c0.1,0,0.3-0.2,0.4-0.4c0.5-0.6,2.2-2.3,3-2.9c0.4-0.3,1-0.7,1.2-0.8c0.5-0.2,0.6-0.3,1.4-0.3
	c0.8,0,0.9,0,1.4,0.3c0.6,0.3,1.3,1,1.6,1.6c0.2,0.5,0.8,3.2,1,4.6c0.6,4.7,0.1,9.4-1.4,13.9c-0.3,1-0.4,1.2-0.4,2.1
	c-0.1,1.4-0.2,2.5-0.3,2.8c-0.1,0.1-0.1,0.2,0,0.2c0.1-0.1,0.2,0.6,0.2,3.3c0,1.4,0.1,4,0.1,5.9l0.1,3.4l0.3,0.7
	c0.4,1.1,1.5,3,2.2,4.2c1.3,2,2.6,3,4.5,3.6c0.6,0.2,0.8,0.2,2.1,0.2c1.2,0,1.4,0,2-0.2c2-0.6,3.5-2,4.3-3.9
	c0.3-0.7,0.9-3.3,1.2-4.8c0.2-1.2,0.3-3.8,0.6-13.7c0.2-7,0-14.8-0.4-18.8c-0.5-4.9-2.1-11.4-3.6-14.4c-1.9-3.8-5.6-6.4-9.9-6.9
	C410,259.1,409.4,259.1,407.4,259.2z"/>
<path class="st0" d="M254.8,261.2c-2.8,0.4-5.6,2-8.8,4.9c-1.7,1.6-3.8,4.1-5.3,6.5c-0.3,0.5-0.6,0.9-0.6,0.9s-0.7-0.9-1.6-2
	c-0.8-1.1-1.7-2.2-1.9-2.4c-0.6-0.5-1.6-1.1-2.3-1.3c-2.3-0.8-4.2,0-5.3,2.3c-0.5,1.1-0.9,2.8-1.1,4.6c0,0.4-0.3,4-0.6,8.2
	c-1.1,13.6-1.6,20.6-2.1,28.6c-0.4,5.8-0.3,7.9,0.5,11c0.3,1.1,0.4,1.3,0.7,1.8c0.2,0.3,0.7,0.8,1,1.2c2.2,2.1,4.7,2.7,6.9,1.7
	c0.8-0.4,1.5-0.9,1.9-1.6c0.7-0.9,1.6-3.1,1.9-4.8c0.4-1.8,0.4-2,0.5-10.1c0.1-11.5,0.1-12.7,0.5-14.5c0.2-1.1,0.8-2.8,1.2-3.7
	c0.8-1.6,6.8-9.1,11.6-14.3c1.4-1.5,1.7-1.7,2.5-1.7c0.9,0,1.8,0.7,2,1.5c0.1,0.4,0.3,2.1,0.4,4.5c0.1,1.8,0.1,7.3,0,9.1
	c-0.4,5.8-1.4,11.6-2.7,16.2c-0.1,0.5-0.2,0.9-0.2,1.4c0,0.6,0,0.7-0.3,1.1c-0.4,0.5-0.6,0.9-0.8,1.2c-0.1,0.3-0.1,0.2,0.4-0.3
	c0.2-0.2,0.3-0.4,0.4-0.4c0.1,0,0.2,2.8,0.3,5.3l0.1,2.2l0.3,0.5c0.6,1.2,2.2,3.4,3.6,4.9c0.9,1,1.9,1.7,3.1,2.1
	c0.8,0.3,2.3,0.3,3.2,0.1c1.6-0.4,2.8-1.2,3.7-2.5c1-1.4,1.5-3.6,1.7-6.6c0.3-6.7,2-13.7,5.5-22.6c1.5-3.8,4.4-10.5,4.9-11.5
	c0.8-1.5,2.2-3.4,3-4c0.5-0.4,1.3-0.8,2-1c0.3-0.1,0.8-0.1,1.2-0.1c0.9,0,1.5,0.1,2.3,0.5c1.6,0.8,2.9,2.2,3.4,4
	c0.2,0.7,0.2,1.6,0,4.4c-0.2,3.7-0.5,6.6-0.9,9.9c-0.1,1-0.3,2.6-0.4,3.6c-0.1,0.9-0.2,2.9-0.3,4.3c-0.4,5.5-0.5,9.1-0.2,10.7
	c0.5,3,1.9,4.8,4.4,6c2.2,1.1,4.2,1.2,5.9,0.3c0.9-0.4,1.4-0.8,2.8-2c1.2-1,1.5-1.3,1.1-1.3c-0.1,0-0.1-0.1-0.1-0.4
	c0.1-1.1,0.5-6.2,1.1-14.2c0.4-5.9,0.8-11.2,1-12.6c0.3-3.2,0.1-9.6-0.4-12c-1-4.7-3.6-8.9-7.4-11.6c-6.4-4.7-15.1-5-21.8-0.6
	c-0.4,0.3-2,1.5-3.5,2.7c-1.5,1.2-2.8,2.2-2.8,2.2c0,0-0.6-0.6-1.2-1.3c-3.3-3.9-5.7-6.1-8.3-7.4c-1.7-0.8-2.8-1.1-4.5-1.2
	C255.8,261.1,255,261.2,254.8,261.2z"/>
<path class="st0" d="M1131.6,261.4c-1.5,0.1-3,0.5-4.2,1c-5.1,2.2-9.4,5.5-12.6,9.9c-1.2,1.5-2,2.8-2.9,4.7l-0.8,1.6l0,0.7
	c0,0.9,0.3,1.8,1,3.2c0.7,1.4,0.8,1.6,1.5,1.8c0.6,0.2,2,0.2,2.7,0c1.2-0.3,6.8-3.7,10.3-6.3c0.8-0.6,1.4-1,1.4-1
	c0.1,0.1,0.8,4.2,1,5.5c0.2,1.4,0.2,2.9,0,3.6c-0.4,1.7-1.6,2.6-5.5,4.2c-1.3,0.5-8,4-9.5,4.9c-4.3,2.6-7.8,6.3-10.4,10.7
	c-0.9,1.5-1.5,3.5-1.8,5.5c-0.2,1.3-0.1,3.6,0.1,4.8c0.5,2.4,1.5,4.2,3.2,5.8c1.4,1.4,3,2.4,5,3c1.7,0.6,2.9,0.7,5.4,0.7
	c3.6,0,6.8-0.4,10.1-1.1c2.4-0.5,5.8-1.8,9.5-3.6l1.4-0.7l1-1c3.2-3.2,5.4-7.2,6.5-11.6c0.5-2.1,0.6-3.1,0.6-5.8
	c0-1.5,0-2.7-0.1-3.1c-0.2-1.5-0.3-3.3-0.3-9.6c0-3.6-0.1-6.6-0.1-6.7c0,0-0.1-1.1-0.1-2.4c-0.2-4.4-0.5-6.6-1.8-10.6
	c-1.3-4-2.9-6.2-5.6-7.5C1135.2,261.6,1133.2,261.3,1131.6,261.4z M1127.8,304.7c0.3,0.4,0.7,1.1,0.8,1.5c0.1,0.4-0.1,0.8-1,1.8
	c-1.6,1.9-4,3.9-5.5,4.6c-0.9,0.4-2.2,0.6-3.4,0.3c-0.5-0.1-1-0.5-1.8-1.4l-0.4-0.5l0.7-0.8c1.8-2.3,2-2.4,3.4-3.1
	c1.8-0.9,3.7-1.6,6.2-2.3c0.4-0.1,0.6-0.2,0.7-0.2C1127.5,304.4,1127.6,304.5,1127.8,304.7z"/>
<path class="st0" d="M352.1,262c-0.1,0-0.4,0.1-0.7,0.1c-0.8,0.1-1.5,0.4-2.5,0.9c-0.8,0.4-2.7,1.6-2.7,1.7c0,0.3-0.4,5.5-0.5,7
	c-0.6,7.1-1.6,14.6-2.3,17.5c-1.2,4.9-3,10-5,14.5c-1,2.2-1.4,2.9-2.3,3.8c-0.7,0.7-1.7,1.4-2.5,1.8c-0.4,0.2-0.6,0.2-0.9,0.2
	c-0.6-0.1-0.9-0.3-1.3-0.7c-0.6-0.7-0.9-1.7-1-3.7c0-0.7-0.1-1.9-0.2-2.8c-0.5-4.6-0.6-7.8-0.5-15.7c0.1-7,0-9.7-0.2-11.4
	c-0.2-1.1-0.5-2.4-0.9-3.5c-0.2-0.5-0.5-1.2-0.6-1.6s-0.4-0.9-0.5-1.1c-0.6-0.9-1.6-1.6-2.6-1.9c-0.6-0.2-1.7-0.2-2.3,0
	c-1,0.3-2.5,1.2-3.4,2.1c-1.6,1.7-2.3,3.5-2.3,6.2c0,0.6-0.4,8.2-0.8,16.8l-0.8,15.6l0.3,0.7c0.2,0.4,0.8,1.9,1.4,3.3
	c2.4,5.7,3.6,7.6,5.8,9.7c1.7,1.6,3.7,2.7,5.9,3.2c1.2,0.2,3.2,0.2,4.4,0c2.4-0.5,4.7-1.6,6.9-3.4c1.2-1,2.8-2.4,3.8-3.6
	c0.5-0.6,1-1,1-1c0,0,0.7,0.8,1.6,1.7c2.1,2.3,3.8,3.7,5,4.3c0.9,0.5,1.7,0.6,2.8,0.7c1.8,0.1,3.1-0.3,4.7-1.4c1.7-1.1,2.9-3,3.2-5
	c0.1-0.5,0.1-1.3,0-3.8c-0.3-8.3-0.6-18.6-0.9-32c-0.1-3.3-0.1-6.7-0.2-7.5c0-1.5-0.2-3.4-0.5-4.3c-0.5-1.9-1.5-3.7-2.9-5.1
	c-1.3-1.3-2.1-1.8-3.3-2.1C353.7,262.1,352.4,262,352.1,262z"/>
<path class="st0" d="M1526.8,265.4c-1.5,0.2-2.5,0.5-4.7,1.7c-3.2,1.6-5.4,3.2-7.9,5.6c-1.9,1.8-3.3,3.8-4.5,6.3
	c-0.7,1.5-1.1,2.6-1.4,3.9c-0.2,1.2-0.3,3.6,0,4.7c0.8,3.8,3.5,6.9,7.8,9.1c0.6,0.3,2.3,1,3.8,1.6c1.5,0.6,2.8,1.1,3,1.2
	c0.5,0.3,1.5,1,2.3,1.7c0.5,0.5,0.7,0.8,1,1.3c0.4,0.9,0.6,1.8,0.6,2.7c0,1.5-0.3,2.5-1.2,3.8c-0.2,0.4-0.6,0.9-0.7,1.2
	c-0.4,0.8-0.6,0.9-1.1,0.8c-0.4-0.1-1-0.4-2.4-1.5c-1.5-1.2-2.1-1.5-3.2-1.6c-1.4-0.2-2.6,0.2-5,1.6c-1.1,0.6-2.1,1.2-2.3,1.2
	c-0.2,0-0.3-0.5-0.3-1.7c-0.1-1.4-0.4-2.5-1-3.7c-0.9-1.9-2.2-2.6-4-2.2c-1.1,0.2-2.1,0.7-3.9,2.1c-2.7,2-6.2,4.3-7.2,4.7
	c-1.2,0.6-2.4,0.4-3.7-0.5c-0.8-0.6-2.3-2.3-2.6-2.9c-0.5-1-0.6-2-0.4-3c0.2-1,0.4-1.3,1.7-2.7c4-4.4,4.2-4.7,5.2-6.2
	c0.7-1,1.2-2,1.8-3.1c1.5-2.9,2.2-5.3,2.8-8.8c0.3-2,0.2-3.5-0.4-5c-0.5-1.3-1.7-2.8-2.8-3.5c-1.9-1.2-4.1-1.7-6.3-1.2
	c-1.6,0.3-3.8,1.5-5.8,3.1c-4.4,3.6-8.2,9.9-9.8,16.6c-0.4,1.5-0.7,3-0.9,4.6c-0.2,1.6-0.2,5.6,0,7.1c0.8,5.6,2.9,10.1,6.5,13.7
	c1.6,1.6,3.1,2.6,5,3.6c3.6,1.8,7.6,2,11.6,0.7c1.1-0.4,3.1-1.4,4.2-2.1c1.6-1,2.3-1.7,5.6-5c2.1-2,4.5-4.2,4.8-4.4
	c0.1-0.1,0.1,0,0.1,0.1c-0.1,0.4-0.2,2.3-0.1,3.3c0.5,5.8,2.9,9.8,6.8,11.2c1.1,0.4,1.8,0.5,3.4,0.5c1.8,0,3.2-0.3,5.1-1
	c1.1-0.4,3.2-1.4,4.1-2c5.3-3.2,8.9-8.9,9.5-15.2c0.1-1.3,0-4.6-0.2-5.9c-0.6-3.8-1.6-6.6-3.4-9.9l-0.5-0.9l-2.1-0.9
	c-7.9-3.4-12.1-5.4-12.4-5.8c-0.2-0.3-0.1-0.8,0.3-1.5c0.7-1.2,2.3-3.3,3.1-4.1c1-0.9,1.9-1.3,3.2-1.3c1.2,0,1.9,0.2,5.2,1.1
	c1.4,0.4,2.6,0.7,2.6,0.7c0,0,0.3-0.6,0.6-1.3c1-2.2,1.4-3.6,1.4-5c0-1-0.2-1.8-0.6-2.7c-0.6-1.3-1.4-2.2-2.8-3.1
	c-1.2-0.8-2.5-1.3-3.9-1.6C1529.4,265.3,1527.5,265.3,1526.8,265.4z"/>
<path class="st0" d="M1224.1,268.9c-0.6,0.2-1,0.5-2.1,1.6c-2.3,2.2-2.8,2.9-7,9c-1.7,2.5-3.2,4.6-3.2,4.6c0,0-0.3-0.3-0.7-0.6
	c-1.1-1-2.1-1.8-3-2.5c-0.5-0.3-1.1-0.8-1.4-1.1c-1.6-1.4-4-2.8-5.3-3.1c-0.7-0.2-2.2-0.2-2.9,0c-1.4,0.4-2.9,1.4-3.5,2.5
	c-0.8,1.6-0.8,3.4,0.1,4.8c0.6,1,0.8,1.2,1.8,2.8c1.2,1.9,2.4,3.5,3.8,5.5c1.2,1.5,1.6,2.2,2,3.2c0.9,2.2,1.1,4.6,0.5,6.8
	c-0.3,1.2-0.6,1.8-1.9,4.2c-2.8,5.3-3.9,7.7-4.6,10.4c-0.4,1.6-0.6,3-0.6,4.7v1.4l1.3,0.6c4.6,2.2,6.7,2.4,8.5,0.7
	c1.2-1.1,1.9-2.4,4.6-8.5c1.6-3.6,2.2-4.8,2.3-4.8c0.1,0,1.9,1.3,4,2.8c3.9,2.8,4.8,3.4,5.7,3.6c0.6,0.2,2.1,0.2,2.7,0
	c1.3-0.3,2.8-1.3,3.6-2.4c1-1.2,1.4-2.7,1.4-4.3c-0.1-1.4-0.2-1.6-2-5.4c-0.8-1.5-1.5-3.2-1.7-3.7c-0.3-0.7-0.5-1-0.9-1.5
	c-2.3-2.5-3.4-4.4-3.6-6.3c-0.1-1.1,0.1-2.2,0.8-3.9c0.4-0.9,0.9-1.9,4.2-8.5c0.8-1.6,1.6-3.2,1.7-3.6c0.6-1.5,0.9-2.9,0.9-4.5
	c0-1-0.1-1.5-0.6-2.4c-0.6-1-1.9-2.1-2.8-2.4C1225.3,268.8,1224.5,268.8,1224.1,268.9z"/>
<path class="st0" d="M915.9,269.6c-1.6,0.1-4.3,0.4-6.2,0.7c-0.3,0.1-0.3,0.1-3.3,4.5l-2.9,4.4l-0.9,0.3c-1,0.4-1.8,0.6-2.2,0.5
	c-0.3-0.1-0.6-0.4-0.7-0.8c0-0.2-0.2-1-0.2-1.8c-0.1-0.8-0.3-2.5-0.5-3.7c-0.2-1.2-0.4-2.6-0.4-2.9l-0.1-0.7L898,270
	c-0.2,0-0.8-0.1-1.4-0.2c-1.2-0.2-3.5-0.1-4.4,0.1c-2.6,0.6-4.5,1.9-5.9,4.2c-0.6,1-1,2.1-1.9,5.2c-0.9,3-1,3.6-1.8,5.5
	c-1,2.7-2.8,6.9-3,7.1c0,0-0.7-1.4-1.4-3.3c-0.8-1.8-1.7-4-2.1-4.8c-1-1.9-2.4-4-3.2-4.8c-1.6-1.5-3.7-1.9-5.8-1.2
	c-1.3,0.5-2.3,1.4-2.9,2.6c-0.4,0.8-0.6,1.5-0.6,2.5c0,0.7,0,0.9,1.3,5.5c1.4,5.1,1.6,6,2.5,10.2c1.5,7,2.1,9.4,3.2,13.2
	c1.2,4.1,2.4,6.3,3.9,7.4c1.4,1,2.7,1.3,5.1,1.5c1.2,0.1,4.2,0,5.3-0.1l0.5-0.1l2.9-7.1c2.4-5.8,2.9-7.3,3.1-8
	c0.1-0.5,0.6-2.7,1.2-5c0.6-2.3,1.1-4.5,1.2-4.8l0.1-0.6l0.7,0c0.7,0,0.7,0,0.7,0.2c0.1,0.2,1.1,4.7,1.1,4.8c0,0,0,0.1,0.1,0.2
	c0.1,0.1,0.1,0.9-0.3,5.5L896,311l0.4,1.2c0.2,0.6,0.8,2.1,1.2,3.2c0.4,1.1,1,2.7,1.3,3.4l0.5,1.4l1.1,0.7c4.9,3.2,8.5,4.9,11.6,5.5
	c1.2,0.2,3.4,0.2,4.6,0c3.8-0.7,7.9-2.9,14.4-7.8c0.6-0.5,1.1-0.8,1.2-0.8c0.1,0,0.2-0.1,0.2-0.2c0.1-0.1,0.2-0.2,0.2-0.2
	c0.2,0,0.8,0.7,1.5,1.7c0.7,1,2,2.3,2.7,2.7c1.1,0.7,2.2,0.9,3.4,0.8c1.4-0.2,2.6-0.8,3.6-1.7c1-0.9,1.8-2.2,2.1-3.5
	c0.2-0.9,0.3-3.3,0.3-7.7c0-2,0-4.7,0.1-6c0-1.3,0.1-4.1,0.1-6.1c0-4.1,0-4.6,0.5-6.1c0.6-2,2-3.8,3.8-4.9c0.8-0.5,1.6-0.9,3-1.4
	c2-0.6,3.2-1.1,5-2c1.6-0.8,2-1.1,2.6-1.9c0.6-0.8,1.1-2.1,1.1-2.8c0-0.8-0.5-2-1.2-2.8c-0.8-0.9-1.9-1.5-3.7-2
	c-2.5-0.7-3.5-0.7-11.3-0.1c-0.7,0-2.5,0.1-3.9,0.1c-2.7,0-2.7,0-3.1,0.2c-1.4,0.7-2.9,2.3-3.4,3.6c-0.5,1.3-1.2,4.3-1.4,6.2
	c-0.2,2-0.3,3.7-0.2,6.1c0.1,2.5,0,3.8-0.3,5.5c-0.5,2.5-1.7,4.9-3.4,7.1c-1.3,1.6-3.3,3.4-5.8,5.2c-1.8,1.3-5.4,3.6-6,3.9
	c-0.9,0.4-1.8,0.5-3,0.5c-1.3-0.1-2-0.2-2.8-0.6c-1.2-0.6-2.1-1.6-2.6-2.7c-0.3-0.6-0.6-1.9-0.6-2.5c0-1,0.4-1.9,1.1-2.6
	c0.2-0.2,0.9-0.8,1.5-1.3c3.4-3,9.7-9.3,11.2-11.1c1.9-2.4,3.1-5.3,3.5-8.4c0.1-0.8,0.1-1.4,0.1-2.8c-0.1-2.8-0.2-3.7-0.9-5.1
	c-1.1-2.4-3.2-4.1-5.8-4.8c-0.6-0.2-0.9-0.2-2.4-0.2C917.3,269.5,916.2,269.5,915.9,269.6z M916.2,283.3l0.4,1.2l-0.2,0.5
	c-0.1,0.3-0.4,1-0.6,1.5c-0.4,0.8-0.5,1-0.8,1.2c-0.4,0.3-1.3,0.7-1.7,0.8c-0.3,0-0.3,0-0.5-0.5c-0.4-0.8-0.5-1.3-0.4-1.7
	c0.2-0.6,0.6-1.6,1-2.2c0.4-0.6,0.5-0.7,1.4-1.3c0.5-0.4,1-0.7,1-0.6C915.8,282.1,916,282.6,916.2,283.3z"/>
<path class="st0" d="M1040.6,270c-5.6,0.6-10.4,4.5-13.8,11.2c-1,1.9-1.7,3.4-2.3,5.1c-0.2,0.6-0.5,1.1-0.6,1.3l-0.2,0.3l0.2-0.1
	l0.2-0.1v2.3c0,2.2,0,2.3,0.2,2.4c0.1,0.1,0.2,0.2,0.2,0.3c0,0.6,2.1,2.9,3.3,3.7c2.2,1.5,4.2,2,9.6,2.8c2.5,0.4,3.2,0.5,4.1,0.9
	c1.6,0.8,2,2.1,1.1,3.9c-0.8,1.7-3.3,4.3-4.7,5c-0.8,0.4-1.3,0.4-2.1,0c-0.5-0.2-0.8-0.5-1.7-1.4c-1.9-1.9-2.9-2.4-7.9-4.2
	c-3-1-4.5-1.7-6.4-2.8c-1.1-0.6-1.5-0.8-2.3-0.8c-0.6,0-0.7,0-1,0.2c-0.2,0.2-0.6,0.5-0.9,1c-0.6,0.8-0.7,1-1.7,1.8
	c-0.3,0.3-1.3,1.1-2.2,1.9c-3,2.8-3.8,3.5-4.3,3.6c-1.1,0.4-2.1,0.3-3.1-0.2c-0.7-0.3-1.4-1-1.7-1.5c-0.2-0.3-0.2-0.4-0.1-1.3
	c0-0.5,0.1-1.1,0.2-1.5c0.2-0.6,0.7-1.7,0.9-1.9c0.1-0.1,2.3-2.1,5-4.4c2.7-2.3,5-4.4,5.1-4.6c0.1-0.2,0.3-0.4,0.4-0.4
	c0.2,0,0.5-0.3,0.8-0.9c0.1-0.3,0.3-0.6,0.3-0.8c0.1-0.4,0.5-1.9,0.7-2.3c0.1-0.2,0.3-0.6,0.5-0.8l0.3-0.3v-3.9v-3.9l-0.5-0.6
	c-0.6-0.8-1.9-2-2.7-2.6c-0.8-0.5-2.1-1.2-2.9-1.4c-1.1-0.4-1.8-0.5-3.2-0.5c-1.2,0-1.5,0-2.2,0.1c-2.7,0.6-5.4,2.1-7.2,4
	c-0.5,0.6-1.6,1.9-2.6,3.2c-3.9,5.2-6,10.2-6.8,15.7c-0.2,1.5-0.2,4.9,0,6.4c0.1,0.6,0.2,1.2,0.2,1.3c0,0.1-0.1,0.5-0.2,0.8
	c-0.2,0.6-0.2,0.8-0.2,1.8c0,1,0,1.3,0.2,1.8c0.4,1.5,1.6,3.2,2.6,3.7c0.3,0.2,0.7,0.6,0.9,1c0.1,0.1,0.3,0.7,0.4,1.2
	c0.4,1.1,0.6,1.6,1.1,1.9c0.2,0.1,0.4,0.3,0.4,0.4c0.1,0.2,0.4,1.3,0.4,1.8l0.1,0.4l1.6,0.6c5.5,2.1,7.7,2.7,10.1,2.7
	c2,0,3.6-0.4,6-1.6c1.9-0.9,3.4-1.8,6.9-4.2c1.6-1.1,3-2,3-2c0,0,0.1,0.1,0.1,0.3c0.3,1,1.1,2.5,1.7,3.1c0.5,0.6,2.1,1.9,2.9,2.5
	c5.3,4,10,4.2,16.1,0.5c3.4-2,6.2-4.7,9.2-8.5c1.6-2.1,2.4-3.3,3.1-4.9c1.2-2.7,1.6-5,1.5-8.1c-0.1-3.9-1-6.8-2.9-9.6
	c-1.5-2.2-3.6-4-6.1-5.2l-0.6-0.3l-3.3,0c-3.8,0-3.5,0-4.2-0.9c-0.2-0.3-0.4-0.6-0.5-0.7c-0.1-0.1-0.1-0.2-0.1-0.3
	c0.1-0.2,0.7-0.6,1.3-0.9c0.5-0.2,0.6-0.2,3.7-0.2h3.2l0.4-0.7c1.8-3.2,1.8-6.4,0-10c-0.8-1.6-0.7-1.5-1.4-1.6
	C1044.4,269.9,1042.1,269.8,1040.6,270z M1014.6,291.8c-0.1,0.2-0.2,0.4-0.2,0.3c0-0.1,0.3-0.8,0.4-0.8
	C1014.8,291.4,1014.7,291.6,1014.6,291.8z"/>
<path class="st0" d="M1159.5,271.7c-1.3,0.2-2.4,0.6-3.5,1.4c-1,0.7-1.1,0.8-1.7,2.8c-2.4,7.4-3.9,15-4.4,23
	c-0.2,3.3-0.2,9.2,0,12.3c0.2,2,1,4.2,2.5,6.7c0.7,1.2,1.3,2,2.2,2.8c1.5,1.4,3.1,2.2,5,2.4c2.3,0.2,4.5-0.5,7-2.2
	c1.2-0.9,5-4.8,7.2-7.4c0.3-0.3,0.5-0.6,0.6-0.6c0,0,1.5,1.6,3.3,3.5l3.3,3.5l0.5,0c0.3,0,0.6,0.1,1,0.3l0.5,0.3l0.7-0.5
	c1-0.7,1.6-1.2,2.3-1.9c1.4-1.5,2.1-3,2.3-5c0.1-0.7,0.1-1.3-0.2-4.1c-0.3-4.1-0.5-6.4-0.9-13.3c-0.8-12-1.1-16-1.3-17
	c-0.5-2.4-1.9-4.3-3.6-4.9c-1.3-0.5-3-0.3-4.4,0.4c-1.4,0.7-2.5,1.7-3.1,3.2c-0.3,0.6-0.6,1.8-1,3.7c-0.5,2.3-0.6,3.4-0.6,5.5
	c0,4-0.4,6.3-1.4,9.4c-1.3,4.1-3.2,6.6-6.1,8.6c-0.8,0.5-2.6,1.5-2.6,1.4c0,0,0.6-8.5,1.1-15.8l0.4-5.8l0-2.8
	c-0.1-3.7-0.4-7.1-0.7-7.8c-0.4-0.9-2.3-2.1-3.3-2.1C1160,271.7,1159.6,271.7,1159.5,271.7z"/>
<path class="st0" d="M851.2,272.2c-1.4,0.2-2.7,0.9-3.6,1.9c-0.9,1-1.2,1.8-1.7,3.6c-0.6,2.8-0.8,4.2-0.8,7.5c0,2.8-0.1,4.1-0.4,6.4
	c-0.1,1.2-0.2,1.7-0.6,2.9c-0.9,3-1.8,5.5-3.2,8.4c-0.4,0.8-0.5,1-0.8,1.1c-0.3,0.2-1.1,0.4-1.5,0.4c-0.5,0-1.2-0.6-1.5-1.4
	c-0.1-0.3-0.1-0.7-0.1-3.8c0-1.9,0-4-0.1-4.7c-0.2-2.5-1.3-11.2-2-15.1c-0.2-1.4-0.3-1.7-0.6-2.3c-0.5-1-1.3-1.8-2.2-2.2
	c-0.9-0.4-1.2-0.5-2.4-0.5c-1.2-0.1-1.9,0.1-2.8,0.5c-1.2,0.6-2.1,1.9-2.3,3.1c-0.1,0.7-0.6,5.6-0.9,9.2c-0.4,4.7-0.8,10.8-1.3,19.8
	c-0.2,2.7,0,4.1,0.6,5.7c0.1,0.4,0.3,0.9,0.4,1.3c0.3,0.9,0.9,2.2,1.5,3c0.6,0.8,1.9,2.2,2.7,2.8c2.6,1.8,5.7,2.5,8.8,2
	c0.9-0.2,2.9-0.8,3.8-1.1c1.1-0.4,2.1-1,3.2-1.8c1.9-1.3,3.2-1.8,5.1-1.8c0.8,0,1.3,0,1.9,0.2c1.6,0.3,3.5,0.3,4.8-0.1
	c1.1-0.3,2.3-1.1,3-1.9c0.5-0.6,1-1.7,1.2-2.5c0.4-1.6,0.7-5.2,0.9-13.3c0.2-4.7,0.2-4.1-0.4-9.1c-0.7-5.9-1.7-13.3-2-14.2
	c-0.4-1.3-1.4-2.6-2.7-3.2c-0.4-0.2-0.9-0.4-1.2-0.4C853.3,272.2,851.9,272.2,851.2,272.2z"/>
<path class="st0" d="M1359.9,272.4c-4.2,0.6-8.1,3-11.3,6.9c-5.6,6.9-8,15.4-6.7,24.1c0.6,4.5,2.7,8.6,5.8,11.9
	c2,2.1,4.5,3.5,7.3,4.2c1.7,0.4,4.3,0.5,6.2,0.3c2.5-0.3,5.2-1.3,7.2-2.6c2-1.3,3.4-2.8,5.2-5.4c2.3-3.4,4-7.6,4.9-12.3
	c0.5-2.4,0.9-5.8,0.9-7.4c0-0.9,0-1.1-0.4-2.5c-2-8-5.7-13.3-11-15.9C1365.5,272.5,1362.6,272.1,1359.9,272.4z M1361.4,286
	c1.8,0.8,3.5,2.4,4.4,4.2c1.2,2.4,1.3,6,0.2,9.3c-0.4,1.1-1.3,2.9-1.9,3.8c-0.7,1.1-2.1,2.5-2.7,2.8c-1.6,0.8-3.6,0.6-4.9-0.6
	c-0.8-0.7-1.6-2.6-2-4.5c-0.9-4.3,0.1-9.5,2.4-12.8c0.3-0.5,0.8-1.1,1-1.3l0.5-0.5l1.2-0.3c0.7-0.2,1.2-0.3,1.2-0.3
	C1360.8,285.8,1361.1,285.9,1361.4,286z"/>
<path class="st0" d="M1407.7,272.5c-3.2,0.3-6.9,1.9-10,4.5c-1.4,1.1-2,1.5-3,1.6c-0.5,0.1-1.3-0.1-1.9-0.4c-0.8-0.4-2-1.3-2.8-2
	c-0.2-0.2-0.6-0.4-1-0.6c-0.6-0.3-0.7-0.3-1.4-0.4c-2.3-0.1-3.8,1.2-4.3,3.6c-0.5,2.5-0.5,3.8-0.4,7.8c0,1.8,0.1,5.4,0.2,8
	c0.1,4.2,0.2,9.3,0.3,13.9c0,0.8,0.1,1.7,0.2,2.1c0.3,1.5,0.9,2.9,1.5,3.7c1,1.3,2.7,2.2,4.3,2.4c0.7,0.1,1.4-0.1,2.4-0.7
	c1.4-0.8,2.5-1.9,3-3.2c0.6-1.7,0.8-4.3,0.5-6.4c-0.3-2.2-0.1-4.1,0.6-6.3c1.1-3.2,3.2-6.6,5.5-9c2.1-2.1,4.7-3.4,6-3.1
	c1,0.3,1.9,2,2.3,4.8c0.3,1.9,1.2,14.5,1.4,21.3l0.1,1.3l1.9,1c2.8,1.4,3.9,1.7,5,1.5c1.2-0.2,2.2-0.9,4.5-3.5l1-1.1V303
	c0-10,0-10.3,0.1-10.3c0.1,0,0-0.7-1.6-7.4l-1.7-7.4l-0.5-0.5c-1.3-1.3-3.2-2.6-4.9-3.4c-1.8-0.9-3.2-1.3-5.1-1.4
	C1409,272.4,1408.8,272.4,1407.7,272.5z"/>
</svg>
