<?xml version="1.0" encoding="utf-8"?>
<!-- Generator: Adobe Illustrator 23.0.1, SVG Export Plug-In . SVG Version: 6.00 Build 0)  -->
<svg version="1.1" xmlns="http://www.w3.org/2000/svg" xmlns:xlink="http://www.w3.org/1999/xlink" x="0px" y="0px"
	 viewBox="0 0 231.3 231.3" style="enable-background:new 0 0 231.3 231.3;" xml:space="preserve">
<style type="text/css">
	.st0{display:none;}
	.st1{display:inline;fill:#335898;}
	.st2{display:inline;fill:#FEFEFE;}
	.st3{display:inline;fill:#335899;}
	.st4{display:inline;fill:#FFFFFF;}
	.st5{display:inline;fill:#34599A;}
	.st6{display:inline;fill:#355999;}
	.st7{display:inline;fill:#345899;}
	.st8{display:inline;fill:#345898;}
	.st9{display:inline;fill:#C0C2D4;}
	.st10{display:inline;fill:#F9FAFB;}
	.st11{display:inline;fill:#ABCEE1;}
	.st12{display:inline;fill:#3A5C9B;}
	.st13{display:inline;fill:#45629D;}
	.st14{display:inline;fill:#4A669F;}
	.st15{display:inline;fill:#FCFCFD;}
	.st16{display:inline;fill:#F6F9F9;}
	.st17{display:inline;fill:#AFCDDD;}
	.st18{display:inline;fill:#FAFBFC;}
	.st19{display:inline;fill:#102751;}
	.st20{display:inline;fill:#0F2650;}
	.st21{display:inline;fill:#FDFDFD;}
	.st22{display:inline;fill:#628FA5;}
	.st23{fill:#335898;}
	.st24{fill:#FEFEFE;}
	.st25{fill:#335899;}
	.st26{fill:#34599A;}
	.st27{fill:#355999;}
	.st28{fill:#FFFFFF;}
	.st29{fill:#345899;}
	.st30{fill:#345898;}
	.st31{fill:#C0C2D4;}
	.st32{fill:#F9FAFB;}
	.st33{fill:#ABCEE1;}
	.st34{fill:#3A5C9B;}
	.st35{fill:#45629D;}
	.st36{fill:#4A669F;}
	.st37{fill:#FCFCFD;}
	.st38{fill:#F6F9F9;}
	.st39{fill:#AFCDDD;}
	.st40{fill:#FAFBFC;}
	.st41{fill:#102751;}
	.st42{fill:#0F2650;}
	.st43{fill:#FDFDFD;}
	.st44{fill:#628FA5;}
</style>
<g id="Layer_2" class="st0">
	<path class="st1" d="M114.6,174.7c0-0.5,0.1-1,0.1-1.5c0.6-4.7,0.6-9.5,0-14.2v-0.2c1.6-3.4,3.8-3.5,5.8,0s3.9,7.2,4.5,11.4
		c0.2,1.9,0.5,3.8,1,5.7h-0.1c2.1,3.2,3.6,6.7,4.7,10.3c-0.2-9,0.9-16.8,0.4-24.7c-0.2-2.1,0.3-4.1,1.4-5.9c1.6-2.4,3.6-3.8,6-0.7
		v-0.2l-0.2,0.2c1.3,1,1.9,2.7,1.5,4.3c-1.5,14.2-0.4,28.5-0.7,42.7c-0.1,0.7,0-0.1,0,0.5c-0.1,5.1-1.8,8.5-4.6,8.4s-5.7-3.7-6.9-7
		c-0.7-1.6-0.8-3.4-1.4-5.1h0.1c-3.1-3.5-3.7-8.2-5.7-12.3c0.6,8.2-1.6,16-2.4,23.9h0.1c-0.2,1-1,1.7-2,1.9h0.1
		c-3.7,1.1-5.3-1.4-5-4.2C112.3,196.8,111.4,185.6,114.6,174.7z"/>
	<path class="st2" d="M62.9,207.1c-1,0.1-1.9-0.2-2-1.4s0-5.4-0.1-8.1c0.1-1,0-1.9-0.1-2.9c-0.2-0.6-0.5-1-1-1.4
		c-0.9-0.3-2,0.2-2.3,1.1c0,0,0,0,0,0.1c-0.4,2-1.2,3.9-0.6,6c0.2,0.6,0.4,1.3,0.5,1.9c0.2,0.7-0.2,1.5-0.9,1.8c0,0-0.1,0-0.1,0
		c-1.7,0.3-2.3,1.6-3,2.8c-0.4,0.9-1.4,1.4-2.4,1.3l-7.1-0.3c-0.4,0-0.8-0.4-1.2-0.7c-0.7-0.8-1.6-1.5-2.5-2
		c-1.9-0.9-2.7-2.3-2.2-4.2s-0.3-4.4-0.1-6.7s0-4.1-0.1-6.2s-0.8-1.9-2.1-1.1l-1.5,1.2l-0.6-0.5c-1-1.9-0.3-3.8,0.2-5.6
		c2-7.4,3.3-15,5-22.5c0.3-0.9,0.3-1.9,0.2-2.8c-0.1-0.8-0.4-1.6-1.3-1.8s-1.4,0.5-1.8,1.2c-0.8,2.1-1.4,4.3-1.6,6.5
		c-1.3,7-1.9,14.3-5.7,20.6c-0.4,0.3-0.9,0.3-1.4,0.2c-1.1-0.9-1.8-2.3-1.9-3.7c-0.7-6.7-3.7-12.9-3.8-19.6c0-1.2-0.4-2.5-1.8-2.5
		s-1.5,1.8-1.4,3s0.7,4.7,1.2,7.1s0.7,3.7-0.4,5.5l-0.5,0.5c-2.8-1.6-4.1-4.1-3.4-7.1c0.4-1.7,0.4-3.4,0-5.1
		c-0.4-2.1-0.1-4.4-0.1-6.7c2.9-0.7,5.9-0.5,8.7,0.5c1.6,0.3,2.7,1.8,2.6,3.5c-0.1,3.7,0,7.3,0,11c-0.2,1.4,0.4,2.9,1.5,3.8
		c0.6,0.4,1.4,0.3,1.8-0.3c0.1-0.1,0.1-0.2,0.2-0.3l0.3-2.3c0.2-2.7-0.4-5.5,0.6-8.1c0.1-0.3,0.1-0.6,0-0.9
		c-1.4-2.9,0.1-4.9,2.1-6.7c0.5-0.6,1-1.2,1.3-1.9c2.1-2.8,2.7-3,6.6-1.6l0,0l0.9,3.6c0.2,0.5,0.2,1.2,0.4,1.7
		c0.4,1,1.6,1.5,2.6,1.1c0.2-0.1,0.3-0.2,0.5-0.3c0.9-1.1,1.6-2.3,3.3-2.1c0.2,0.9,0.1,1.9-0.5,2.7c-5.3,8.6-7.1,18.1-7.6,27.9
		c-0.4,5.4,0.7,10.8,3.1,15.7c0.9,1.9,2.4,3.6,4.7,3.5s3.1-2,3.9-3.8c5.3-11.3,6.3-23.3,5.4-35.5c-0.4-5.5-5.1-7.7-8.9-10.5
		c1-1.7,2.8-1,4.2-1.1s3.8,0.2,4.4,2.6c0.1,0.5,0.5,0.8,0.9,1c1.6,0.4,2.5,1.6,3.4,2.9s1.2,1,2.5-0.2l0.8-0.6
		c1.7,1.9,1.5,4.2,1.3,6.4c-0.9,11.9-1.8,23.9-1.8,35.9C64.2,204.2,64.1,205.8,62.9,207.1z"/>
	<path class="st3" d="M160.6,195.3v0.2c0.1,6.7-3.3,11-9.2,13.6s-8.3,0.7-10.2-3.9c-1.8-4.1-2.1-8.8-0.6-13.1c0.7-2.1,2-3.8,4.5-3.5
		s3.1,2.3,3.3,4.5s-0.2,3.8,0.6,5.6c4.8-2.7,4-11.4-1.3-14.9c-3.3-2.2-6-4.7-6.2-8.6c-0.3-5.3,0.7-10.6,2.9-15.4
		c0.4-0.7,1.2-1.1,1.4-1.9c1.1-3.8,3.3-6.3,7.5-5.9s6.5,4.6,6.9,9.2c0,0.5,0.2,0.9,0.4,1.3v2.3c-1,3.5,0.1,7.3-1.2,10.7
		c-0.9,1.6-2.3,2.3-4,1.5s-1.5-2.4-1.3-3.8c0.6-3.3,0.7-6.6,0.2-9.9c-0.1-0.6-0.4-1.2-0.9-1.6c-4.2,4.4-4,11.3,0.4,14.9
		c1.4,1,2.7,2.3,3.7,3.7c2.4,2.9,2.5,6.4,2.7,9.8C160.3,191.8,159.9,193.6,160.6,195.3z"/>
	<path class="st2" d="M160.6,162.5c-0.3-0.7-0.5-1.5-0.7-2.2c-0.4-0.9-0.6-1.9-1-2.7c-1.3-2.5-3.2-4.6-6.2-4.7s-4.6,2-5.9,4.3
		c-1,1.8-1.8,3.7-2.3,5.7c-0.8,3.1-1.4,6.2-1.8,9.4c-0.5,4.5,1,8.3,5.5,10.1c2.1,0.8,3.7,2.7,4.2,4.9c0.5,2.5,0.9,5,1.2,7.5
		c0.3,3-1.6,5.8-4.5,6.6c-0.6,0-1.1-0.3-1.5-0.8c-0.2-1.9-0.3-3.8-0.4-5.7s0.2-2.2,0.1-3.3c0-1-0.7-1.9-1.7-2.1
		c-0.9-0.4-2-0.2-2.7,0.6c-0.7,0.7-1.2,1.5-1.4,2.4c-0.9,3.9-0.7,8,0.5,11.8c0.4,1.2,1,2.3,1.9,3.3c1.2,1.4,3.1,1.9,4.8,1.3
		c3.2-1,6.1-2.7,8.5-5.1c1.3-1.4,2.2-3.2,2.6-5.1c0.2-1,0.5-2.1,0.8-3.2v0.5c0.2,7,0.2,7-4.2,12c-0.6,0.5-1.2,0.9-1.9,1.3
		c-1.1,0.5-2.2,1.1-3.3,1.8c-2.5,1.6-4.2,1.5-6.4-0.4l-1.4-1.3c-1.3-1.4-3.5-1.5-4.9-0.2c-0.1,0-0.1,0.1-0.2,0.2
		c-0.8,0.9-1.8,1.6-3,2.1c-2.1,0.8-3.6,0.9-5-1.1s-3.4-1.9-3.9-3.2s-0.3-4.1-0.3-6.2s0.1-1.6,0.1-2.4c1.1,2.1,2.1,4.3,3.2,6.3
		c0.7,1.4,1.6,2.8,2.6,4c1.3,1.3,3.4,1.3,4.7,0c0.5-0.5,0.8-1.1,0.9-1.7c0.3-1.6,0.4-3.1,0.3-4.7c0-11-0.2-22-0.2-33
		c0.1-3.1,0.5-6.3,0.7-9.5c0.1-1.7,0-3.5-0.1-5.2c1.6-0.3,2.9-0.2,3.2,1.8c0.1,0.5,0.3,0.9,0.6,1.3c0.9,0.7,2.2,0.5,2.9-0.4
		c0.1-0.3,0.2-0.6,0.2-0.9c-0.1-1.6,0.6-3.2,1.9-4.2c1.6-1.3,3.7-1.9,5.8-1.6l2.8,0.5c0.5,0.1,0.9,0.3,1.2,0.7
		c1.2,1.6,2.4,3.3,3.5,5c0.4,0.9,0.5,1.8,0.5,2.7C160.9,160.6,160.8,161.6,160.6,162.5z"/>
	<path class="st4" d="M20.7,44.2c-1.1-0.5-2.1-1.4-1.7-2.5c0.9-2.8-0.2-5.3-0.7-7.9c-0.5-2-0.5-4.1,0.1-6.1c0.6-1.8,0.5-3.8-0.1-5.6
		c-0.3-1.4-0.4-2.8-0.4-4.2c-0.1-2.2,1.1-3.5,3-4.4c2.5-1.2,5.4-1,7.8,0.3c1.5,0.7,2.7,1.9,2.5,3.7c-0.1,2.7,0.6,5.4,2.1,7.7
		c0.8,1.4,1,3,0.8,4.6c-0.3,3.3,0.8,6.3,1.2,9.4c0.1,0.2,0.7,0.4,1.1,0.5s0.5-0.6,0.4-0.7c-1.2-2.5-0.1-5,0.4-7.4
		c0.5-2.3,0.2-4.8-0.8-6.9c-0.6-1.2-1.5-2.4-1-4s1.5-4.3,3.2-5.8c1-0.7,2.2-1.1,3.4-1.3c1.2-0.2,1.6,0.8,1.8,1.8
		c-1.4,1.1-2.8,2-2.9,3.9l-0.4,1.2c-0.2,1-0.1,2.1,0.3,3c0.1,0.5,0.2,0.9,0.2,1.4c0.3,3.9,0.2,7.7,0.2,11.6
		c-0.1,0.8-0.2,1.6-0.5,2.4c-2.8,5.7-3.2,11.8-3.3,18.1c0,3.1-0.7,5.7-4.7,5.7s-4.7-2.6-4.6-5.8c0.2-5.2-0.5-10.3,1.8-15.4
		s0.4-8.6-0.6-12.7s-1-5.3-1.7-7.9s-0.9-4.1-3.4-3.7s-1.5,2.5-1.8,4c-1,6,0.7,12.1-0.4,18.1C21.7,41,22.2,42.8,20.7,44.2z"/>
	<path class="st2" d="M40,20.3c0.1-1.1,0.4-2.1,0.4-3.2s0.7-1.8,2-1.7h11.9c1.1,0.4,1.9,1.4,1.9,2.6c0,1.4-0.3,2.8-0.7,4.1
		c-0.5,1.2-1.8,2-3.1,1.9c-1.1,0.1-2.3,0-3.3,0.2c-0.6,0.2-1.1,0.6-1.3,1.2c-0.4,1.2-0.6,2.5-0.6,3.8c0.1,3.6,0.3,7.3,0.4,11
		c0.1,1.4,0.7,1.9,2.1,2l3.9,0.2c0.9,0,1.7,0.8,1.6,1.8c0,0,0,0.1,0,0.1c0,0.7-0.3,1.3-0.3,1.9c-0.3,3.5-0.3,3.5-3.8,3.8
		c-0.6-0.1-1.3,0-1.9,0.1c-0.5,0.2-1.3,0.7-1.3,1.1c-0.3,2.8-1.4,5.6-0.3,8.5c0.2,1.1,1.3,1.9,2.4,1.8c1.7,0,3.5-0.1,5.2,0
		s3.9-0.1,4.2-2.7c0.1-0.4,0.9-0.9,1.5-1c0.8-0.1,1.5-0.1,2.3,0c-1.2,3.7-0.4,7.5-1.1,11.2c-1.8,0.6-3.5,1.3-5.1,2.3
		c-1.8,1.3-4.1,1.9-6.3,1.8c-1.4,0.2-2.8,0.5-4.1,0.9h-2.8c-4.4,1.2-5.2-3.4-8-4.8c-0.2-0.5-0.3-1-0.4-1.5c0-2.7-1.7-3.6-4-3.9
		s-4.2-1.7-4.2-4.4c-0.3-12.4-0.5-24.9,0.1-37.3c0.1-0.5,0.2-1,0.5-1.4l0.7-0.6c0.4,0.7,0.7,1.4,0.8,2.2c0.1,2,0,4,1.4,5.9
		c1.4,1.9,0.5,2.1,0.6,3.2s-0.1,4.7,0.7,7c0.7,1.7,0.2,3.7-1.2,4.9c-1,0.8-1.5,2.1-1.4,3.4c0,4.1-0.1,8.2,0,12.4
		c0,1.8,0.6,2.3,2.3,2.4H34c1.1,0,2.1-0.6,2-1.7c-0.4-3.6,1-7.1,0.2-10.8c-0.1-0.9,0.1-1.8,0.4-2.7c1-2.6,2.2-5.2,3.3-7.7
		c2.2,3,1.4,6.5,0.9,9.7c-0.8,6-0.6,12.1,0.5,18.1c0.4,2.6,1.4,4.9,4.4,4.7s6.9-0.5,9-3.6c1.1-1.5-0.2-2.5-1.7-2.3
		c-3.8,0.3-7.1,0.9-8-4.7c-1.2-8.6-1.1-10.1,4.5-13.7c0.4-0.2,0.7-0.6,0.7-1.5c-5.1-0.3-5.3-3.8-5.4-7.9c0-2.6-0.4-5.1-0.4-7.7
		c0-6.1,0-6.1,6.1-8c1.1-0.3,2.4-0.6,2.4-1.9s-1.6-1.7-2.8-1.9C46.4,17.4,43.5,20.2,40,20.3z"/>
	<path class="st2" d="M87.8,207.4c-1.3,1.5-3.8,1.7-4.4,4.1c0,0.3-1.1,0.5-1.6,0.5s-1.7-0.6-2.3-0.4s-2.8,0.6-3.7-1.4
		s-2.1-1.8-3.6-1.8l-4.7-0.2c1.2-14.6,0.3-29.2,0.6-43.8c0-2.4,0.5-5.1-3.4-4.8c-0.4-5.4,0.6-5,5-5c2.1,0.1,2.5,0.6,2.6,2.6
		s0.1,4.1,0,6.2c0.1,0.8,0,1.6-0.4,2.3c-2.5,2.8-0.8,5.6,0.2,8s1.2,3.2,0.4,4.9c-0.4,1.1-0.6,2.2-0.8,3.3c-0.2,0.9-0.2,1.8,0,2.7
		c0.6,1.6,0.6,3.5,0,5.1c-0.5,1.6,0.4,3.3,2,3.7c0.5,0.1,1,0.2,1.5,0.1L78,193c0.8-0.1,1.6,0.4,1.9,1.2c0.4,0.8,0.9,1.6,1.4,2.4
		c0.4,0.6,1.2,0.7,1.8,0.3c0.2-0.2,0.4-0.4,0.5-0.7c1.6-3.8,0.9-7.7,0.1-11.6c-1.4-1.5-2.6-3.3-4.8-3.6c-0.8-0.1-1.5-0.7-1.6-1.5
		c-0.8-1.8-1.2-3.7-1.2-5.6c0.2-2.5-0.1-5.1,0.1-7.6s0.3-6.1,3.1-8.2c0.4-0.3,0.5-1.1,0.8-1.7s0.5-1.4,1-1.5s3.3-1.1,3.4-3.3
		c0-0.2,0.7-0.5,1.1-0.5l2.7,0.3c2.5-0.3,2.5-0.3,3.2,2.1c0.1,0.3,0.1,0.6,0.2,1l-0.6,0.4c-7.1,0.1-9.7,5.3-11.6,10.9
		s-1.8,10.7,3.9,14.7s6.1,12.6,3.4,17.6s-6.4,5.3-9.8,1.2c-1.8-2.1-2.7-1-3.3,0.8c-1.4,3.8,2.2,8,6.6,7.6c2.3-0.2,4.5-1.7,7-0.8
		C87.4,207.1,87.6,207.3,87.8,207.4z"/>
	<path class="st5" d="M99.3,203.3v-17.7c0.7-8.3,0.4-16.8,0.9-25.1c0.1-1.9,0.4-3.6,2.3-4.4s3.4-0.7,4.3,1.4l0,0
		c3,5.9,2.1,12.3,1.4,18.2c-1,7.9-0.5,15.8-0.8,23.7c-0.1,1.4,0.4,2.9-0.6,4.1h0.1c-0.9,1.2-0.1,2.8-0.9,4.1s-1.2,3.2-3.2,3
		s-2.9-1.6-3.1-3.6S100,204.5,99.3,203.3z"/>
	<path class="st6" d="M64.7,159.6l0.3-0.4c0.7-1.3,1.2-2.9,3.1-2.4s1.7,2.2,1.7,3.6s0,4.5,0,6.7l-0.3,30.1c0,1.9-0.2,3.9-0.1,5.8
		c0.1,1.9-0.6,3.8-1.9,5.2l0,0c-1.9,1.4-3.3,0.2-4.6-1l0,0c-0.1-1.3-0.4-2.5-0.4-3.8l1.8-34.4c0.2-2.8,0.3-5.7,0.4-8.6
		c0.2-0.2,0.3-0.5,0.1-0.7C64.8,159.7,64.7,159.6,64.7,159.6z"/>
	<path class="st2" d="M91.7,154.5l4,0.3c-0.6,4.1,0,7.9,0.2,11.8c0,2.1-0.3,4.1-0.8,6.1c-0.1,0.4-0.9,0.9-1.4,1s-3,0.7-2.9,2.5
		s1.6,1.9,2.7,2.3s1.2,1.2,1.4,2.4c0.5,4.2,0.6,8.5,0.5,12.8c0,2.2,0.2,4.4-0.6,6.6s0.2,1.8,0.2,2.8s-0.3,1.1-0.5,1.1
		s-2.7,1.8-4,2.6c-0.9,0.4-1.8,0.6-2.7,0.6l-0.3-0.3c-0.1-1.4,0.8-2.3,1.5-3.4c6.9-10,5.1-20.9-4.5-28c-1.8-1.1-2.9-3.1-2.7-5.2
		c0.3-3.5,1.4-6.9,3.2-10c0.8-1.2,1.8-2.5,3.5-2.1s2,1.8,2.2,3.3s0,5.1,0.5,8.5c2.1-5.7,0.1-10.7,0.3-15.6L91.7,154.5z"/>
	<path class="st2" d="M20.7,44.2c0.2-3.6-0.5-7.3,0.8-10.8c0.3-0.8-0.3-1.9-0.4-2.8s-0.6-4.1-0.2-6.1s0.1-5.8,0.7-8.8
		c2.1-0.9,4,0.2,5.9,1c0.5,0.4,0.7,1,0.8,1.6c0.1,0.6,0.2,1.2,0.2,1.8l-0.3,0.2C25.4,20.6,23.9,22,24,25c0.4,12.4-1.6,24.8-1,37.2
		c0.3,6.5,1.5,7.6,7.8,6.4c1.7-0.3,3.4-0.9,5.1,0.3l0.2,0.3c0.3,3.8-1.8,5.1-5.2,5.1h-3.8c-7.4-0.1-9-2.6-6.4-10V44.2z"/>
	<path class="st2" d="M138.4,154.8l-0.9-0.3c-2.7-0.7-4.2-0.1-4.7,2.4c-0.5,3-0.9,6-1,9c-0.2,6.6-0.1,13.1-0.2,19.7
		c0.1,1.3,0.1,2.6-0.2,3.8c-2.1-2.6-4.4-8.2-5.5-13.6c1.2,0.2,1.6,2.3,3.2,1.4c1.6-0.9,0.7-2.2,0.8-3.4c0.2-2.8-0.4-5.7,0.7-8.5
		c0.1-0.6,0.1-1.2-0.1-1.8c-0.1-0.8-0.4-1.6-0.5-2.3c-0.5-4.8-0.3-5.3,3.4-8.6c0.8-0.7,1.5-2,2.7-1.5S138.7,152.9,138.4,154.8z"/>
	<path class="st4" d="M20.7,64.4c0.3,2.8,0.6,5.5,0.9,8.6H31c1.1,0.1,2.2,0,3.2-0.4c0.6-0.3,0.6-1.5,1-2.3s0.6-0.7,0.9-1.1
		s2.9-0.1,3.3,1.2s2.6,2.7,4.4,3.6c-0.9,1.7-1.8,2.4-2.7,1.7s-4.6-0.8-7.1-0.3s-7.4,1.8-11.2,0.6s-4.3-1.9-4.8-4.2s-0.8-5.2,1.9-6.9
		L20.7,64.4z"/>
	<path class="st2" d="M106.8,203.5l0.3-27.8c0-6-0.2-12.1-0.3-18.2c2,0.8,3.2,2.7,3,4.8c0.2,3.9,1.3,7.7,1,11.7
		c0.2,1.2,0.5,2.4,0.9,3.6c-2.9,0.5-3.9,2.3-3.8,5v17.5C107.9,201.3,108.1,202.7,106.8,203.5z"/>
	<path class="st2" d="M118.2,210.2c0.5-8.6,0.9-17.2,1.4-25.8c0-0.5,0-0.9,0.1-1.4c0.1-0.3,0.4-0.6,0.6-0.6s0.6,0.2,0.7,0.4
		c1.8,5.2,3.5,10.5,5.3,15.8c-0.7-0.2-1.4-0.5-2.1-0.8c-1.8-1.2-1.8-1.2-2,1.2c0,0.9-0.5,1.8-1.3,2.3c-1.1,0.6-1.7,1.9-1.5,3.2
		c0.1,1.3,0,2.5-0.1,3.8C119.1,209,118.7,209.7,118.2,210.2z"/>
	<path class="st2" d="M114.6,174.7c0,1.6,0,3.2-0.1,4.8c-0.7,8.4-1.5,16.8-2.3,25.2c0,0.9-0.2,1.9-0.2,2.8c0.1,3,0.9,3.7,4.4,4.5
		c-0.3,0.3-0.6,0.9-0.9,0.9c-2.8,0.1-4.6-1.5-4.7-4.1s0-5.4-0.1-8.1s0.6-5.3,0.1-8c-0.3-0.7-0.2-1.6,0.1-2.3
		c1.3-1.6,1.1-3.2,0.4-4.9c-0.4-1-0.5-2.2-0.1-3.2c0.3-1.5,0.5-3.1,0.5-4.7c0.9,0.1,1.7-0.5,1.9-1.4
		C113.9,175.7,114.2,175.2,114.6,174.7z"/>
	<path class="st2" d="M30.1,207.4c0.3,2.4-0.3,4.5-2.9,5.2c-0.7,0.2-1.5,0.3-2.3,0.3c-0.9-0.2-1.9-0.4-2.8-0.7
		c-2.6-0.5-4-2.2-3.3-4.6c0.6-2.1,0.6-4.4-0.1-6.5c-0.2-1.3-0.2-2.5-0.1-3.8c-0.1-7.8-0.1-15.6-0.1-23.4l0.2-0.2
		c2.5,0.7,2.2,2.9,2.1,4.7c-0.2,7.3,1.5,14.5,1.1,21.9c0,1.4,0.1,2.8,0.5,4.2c1.1,5.2,2.4,5.8,6.9,2.8L30.1,207.4z"/>
	<path class="st2" d="M126,175.9l-2.8-8.1c-1-3.2-2-6.4-4-9.1l-0.9-1.2c-0.8-1-1.7-1-2.8,0.1c-0.3,0.4-0.6,0.8-0.8,1.2
		c0-4.5,0.6-4.8,4.6-3.4c1.4,0.3,2.5,1.5,2.7,2.9c0.4,2.4,1.4,4.6,3,6.4c0.7,0.8,1,1.9,1,3C126.2,170.4,126,173.1,126,175.9z"/>
	<path class="st2" d="M202.9,61.7c2.8,1.2,3.1,1.9,1.6,4.2c-1.5,2.3-2.1,4-4.6,4.5l-0.4,0.2c-1.7,4-5,2.1-7.9,2.6
		c-0.1-4.2-1.7-7.9,1.1-11.6l2.3,0.3c0.1,0.1,0.1,0.2,0.2,0.2c-0.1,0.5-0.2,1-0.4,1.4c-0.7,1.8-2.4,4.1,0.7,5
		c2.4,0.8,4.9-0.5,5.7-2.9c0,0,0,0,0,0c0.5-1.2,0.2-2.7,1.1-3.8L202.9,61.7z"/>
	<path class="st2" d="M106.8,157.5c-0.7-0.3-1.3-0.9-2-1c-1.5-0.5-3,0.4-3.5,1.9c0,0.1-0.1,0.3-0.1,0.4c-0.1,0.7-0.1,1.5-0.2,2.3
		c-0.3,6.6-0.6,13.3-1,19.9c-0.1,1.5-0.4,3.1-0.7,4.6c0-8.3-0.1-16.6,0-24.9c0.2-1.8,0.5-3.5,0.9-5.2l0,0c1.9-0.2,3.6-1.4,5.5-0.8
		c0.6,0.2,1.1,0.5,1.5,1C107.4,156.2,107,156.9,106.8,157.5z"/>
	<path class="st2" d="M64.7,146.8c0-0.4,0.1-0.7,0.2-1.1c0.3-1.8,2.1-3,3.9-2.6c0.1,0,0.3,0.1,0.4,0.1c1.9,0.4,3.2,2.3,2.9,4.2
		c-0.4,3.3-1.4,3.9-4.7,2.8c-0.3-0.1-0.5-0.3-0.8-0.3S64.6,148.9,64.7,146.8z"/>
	<path class="st2" d="M100.7,143.5c0.4,0,1-0.1,1.3,0.1s2.9-1,3.5,0.3s0.9,3.6,1.2,5.4c-0.1,0.6-0.6,1.1-1.2,1.2
		c-1.4,0.2-2.8,0.2-4.2,0.1c-1.3-0.2-2.2-1.5-1.9-2.8c0,0,0-0.1,0-0.1C99.8,146.4,100.2,145,100.7,143.5z"/>
	<path class="st2" d="M34.1,188.3c-0.1,4.2-0.2,8.5-0.1,12.7c0,1.7-0.1,3-2,3.8s-1.3,1.7-1.9,2.6H30c-2.3-5.7,1.1-10.7,1.6-16.1
		c0.1-1.3,0.3-2.9,2.3-3.1L34.1,188.3z"/>
	<path class="st2" d="M160.6,195.3c-0.2-0.9-0.4-1.8-0.6-2.7c-0.2-4.2-1.2-8.4-3.2-12.1c-0.9-1.6-1.1-3,1.3-3.3l0.6,0.4
		c-0.5,1.1-0.7,2.3,0.3,3.1s1.7,3.2,1.7,5.1S160.6,192.1,160.6,195.3z"/>
	<path class="st2" d="M99.3,203.3l0.9,3.1c0.1,0.8,0.3,1.5,0.6,2.3c0.5,0.8,1.3,1.6,2.3,1.3c0.7-0.2,1.4-0.7,1.8-1.3
		c0.5-1.1,0.9-2.3,1.2-3.5c0.2-0.6,0.5-1.2,0.8-1.7c0.1,1.1,0.1,2.2-0.1,3.3c-0.4,1.4-1,2.6-1.9,3.7c-0.8,1.1-2.2,1.5-3.4,0.9
		c-1.2-0.6-2.2-1.4-2.2-2.9S99.3,205,99.3,203.3z"/>
	<path class="st2" d="M194.9,61.6c0-1,0.1-1.9,0.1-2.8c2.4-0.8,5.1-0.8,7.5,0c0.1,0.9,0.1,1.9,0.1,2.8l-0.2,0.2
		c-2.4,0.1-4.9,0.8-7.3,0L194.9,61.6z"/>
	<path class="st2" d="M158.6,175.5c0.7-3.6,1.3-7.1,2-10.7c0,3.5,0,7.1,0.1,10.6c0.2,1-0.5,2-1.6,2.2c-0.1,0-0.3,0-0.4,0l0,0
		C158.2,177,158.2,176.1,158.6,175.5z"/>
	<path class="st2" d="M114.7,159c1,4.7,1,9.5,0,14.2V159z"/>
	<path class="st2" d="M68.4,92.4l1,1.9v1.9l-0.9,2l-0.6-0.5C67.1,95.8,67,94,68.4,92.4z"/>
	<path class="st2" d="M62.9,207.2c1.4,0.7,2.9,1.4,4.6,1C65.2,209.9,64.4,209.7,62.9,207.2z"/>
	<path class="st2" d="M116.3,212l2-1.9C118.1,211.8,118.1,211.8,116.3,212z"/>
	<polygon class="st2" points="192,62.6 191.6,62.3 191.8,62.2 	"/>
	<path class="st2" d="M100.2,155.5l-0.4-0.2L100.2,155.5z"/>
	<path class="st2" d="M40.7,151.7l0.2-0.4L40.7,151.7z"/>
	<path class="st7" d="M114.6,93.6c0.3-1.3,0.6-2.5,0.8-3.7c0-1,0.1-1.9,0.2-2.9c0.7-3,3-3.7,5.7-1.8l0.7,0.6l0,0
		c1,1.4,1.1,3.3,0.1,4.7l0,0c-0.4,8.6-1,17.3-1.7,26c-0.4,6.1-1.7,12.1-2,18.2c-0.2,0.1-0.3,0.4-0.2,0.7c0,0,0.1,0.1,0.1,0.1
		c-0.6,2-0.3,4.7-3.4,4.9s-3.5-2.6-4.2-4.7l0,0c-3.8-4.5-2.6-10.3-3.8-15.4l0,0c-0.2-5.7-2.1-11-3.9-16.2c-0.4-0.4-0.6-1.1-0.3-1.7
		c-0.2,0.6-0.1,1.2-0.6,1.7c0,8.4-0.1,16.9-0.2,25.3c0,2,0.2,3.9,0.2,5.8c-0.1,0.8-0.3,1.6-0.6,2.3c-0.8,1.3-2.5,1.8-3.8,1
		c-0.4-0.2-0.7-0.6-1-0.9c-0.4-0.9-0.6-1.8-0.7-2.7c-0.4-5.1-0.5-10.2-0.3-15.3c0.4-10.1,1.8-20.1,2.4-30.1c0.1-1.6,0-3.2,1.1-4.6
		l0,0c0.6-0.7,1.2-0.6,1.9-0.1s0.3,0.3,0.6,0.1c0.6,0.1,1,0.5,1.3,1h-0.1c2.9,2.9,2.9,6.9,3.8,10.6l0,0c3.5,4.5,4.2,10.1,5.9,15.4
		c0,0.7,0,1.5,0.1,2.2c0.1,0.7,0.9-0.1,0.4,0.2s0,0.2-0.3-0.4c-0.1-0.6-0.2-1.2-0.2-1.8c-0.2-6,1-11.8,2-17.7
		C114.8,94.2,114.9,93.9,114.6,93.6C114.7,93.7,114.6,93.6,114.6,93.6z"/>
	<path class="st3" d="M126.2,122.4c0.2-0.6,0.4-1.2,0.5-1.8c0.7-8.7,1.3-17.5,2-26.2c0.1-2.1,0-4.2,0-6.2s0.7-3.2,3.4-3.6
		c5.3-0.8,9.4,1.1,12.4,5.4c1.7,2.3,3.1,4.8,4.6,7.2l0,0c1.2,1.1,1.9,2.6,2.1,4.2c0.6,9.9,0.9,19.7-3.1,29.2
		c-3,7.3-8.5,11.2-16,11.2c-4.1,0-6.9-2.3-7.3-6.5c-0.4-3.8,0-7.6,1.3-11.2L126.2,122.4z"/>
	<path class="st2" d="M85.7,138.5c-1.1-0.7-1.6-2.1-1.2-3.3c0.6-2.6,0.5-5.4-0.4-7.9c-0.1-0.6-0.1-1.2,0-1.8
		c0.2-0.8,0.8-1.7-0.3-1.9c-0.8-0.1-1.6,0.2-2.1,0.8c-0.5,0.3-0.6,1.1-0.9,1.6c-1.4,2.1-2.2,4.5-4.6,5.8l-0.3-0.2
		c-1.8-6.6,2.3-11.6,9-11c1.5,0.1,2.7,0.9,2.5,2.3c-0.7,5.1,0.9,10.5-1.5,15.5L85.7,138.5z"/>
	<path class="st2" d="M122.1,90.4c0-1.5,0-3.1-0.1-4.7C123.6,87.7,123.6,88.4,122.1,90.4z"/>
	<path class="st2" d="M52.1,137.5l0.4,0.2L52.1,137.5z"/>
	<path class="st7" d="M62.1,69c-0.3-0.7-0.6-1.4-0.9-2.1c-0.8-3.4-0.7-6.5,2-9.1c0.3,0.1,0.5,0.1,0.7-0.2c0.5-0.5,1.2-0.5,1.7-0.1
		c0.1,0.1,0.1,0.2,0.2,0.3l0,0c2.2-0.1,1.9,4,4.1,2.8s1.4-3.6,1.8-5.6c0.5-3.3,0.2-6.7-1-9.8h0.1c-2.2-1.7-4.2-3.3-6.9-4.1
		c-4.3-1.2-4.1-5.2-4.7-8.6v-2.3c0.8-2.5,0.3-5,0.8-7.6s3.5-6.4,6.5-8.4s7.2-0.6,9,2.8s1.1,5.5,0.9,8.4c-0.1,1.7-1.4,3-3.1,3.1
		c-1.8,0.1-2.4-1.2-2.8-2.7s0-2.3-0.9-3.2c-3.4,3.6-3.4,7.4,0,12.1l0,0c4.9,0.9,7.7,3.8,8.7,8.6l0,0c4.9,8,2.7,20.3-4.5,25.8
		C69.8,72.2,66.2,72.1,62.1,69L62.1,69z"/>
	<path class="st2" d="M69.6,34.7c-3.5-0.9-3.7-1.1-3.8-3.8s-0.1-6.7,2-9.6c0.4-0.7,1-1.2,1.6-1.7c0.4-0.3,1.1-0.2,1.4,0.2
		c0,0.1,0.1,0.1,0.1,0.2c0.3,1.1,0.5,2.2,0.6,3.3c0.2,1.2,0.2,2.5,0.5,3.7c0.3,0.6,0.8,0.9,1.4,1c0.6-0.1,1.1-0.5,1.4-1
		c0.8-2.9,0.9-6,0.1-9c-1.2-3.7-4.7-5-8-3c-2.1,1.2-3.8,3-4.8,5.2c-0.8,2-1.6,4.2-2.1,6.3c-0.3,1.2-0.5,2.5-0.8,3.7
		c0-2.4-0.2-4.8,0-7.2s0.5-5.4,3.3-6.9c0.5-0.4,1-0.8,1.3-1.4c1.9-3.4,5.2-3.3,8.4-3c0.9,0.3,1.7,0.8,2.3,1.5
		c0.9,0.7,1.5,1.7,2.4,2.2s1.7,1.7,1.2,2.8c-0.7,1.9-0.7,4.1,0,6c0.7,2.4-0.8,4.7-3.2,5.6S70,31.6,69.6,34.7z"/>
	<path class="st2" d="M62.1,69c6.2,3.7,16-0.6,17.2-10.1c0.6-4.3,0.4-8.6-0.5-12.8c-0.2-0.9-0.4-1.9-0.5-2.8l1.3,0.6
		c1.8,0.5,2.8,2.3,2.5,4.1c-0.1,1.2-0.2,2.5-0.4,3.8c-0.1,0.6-0.1,1.2,0,1.8c0.8,4.4-0.9,8.1-3,11.7c-0.5,0.6-1,1.2-1.6,1.7
		c-0.8,0.6-1.5,1.4-2,2.2c-1.5,3.5-4.4,4.3-7.8,3.8h-0.5c-2.5,0.4-3.9-0.6-4.4-3.1L62.1,69z"/>
	<path class="st2" d="M70.7,45.1c0.5,0.7,1,1.5,1.3,2.4c0.9,3.4,1.1,7,0.8,10.5c-0.2,1.8-1,3.4-2.4,4.5c-1,0.9-2.7,1.3-3,0.7
		c-0.1-0.7-0.1-1.4,0-2.1c0.1-1.5-0.9-2.3-1.6-3.4c1.3-0.1,3.1,0.1,4-0.6s0.7-2.5,1.2-3.8c0.4-1.2,0.4-2.4,0.1-3.6
		C70.8,48.2,70.7,46.6,70.7,45.1z"/>
	<path class="st2" d="M59.2,32.4l0.7,1.8c0.5,3.1,2.6,5.6,5.5,6.7l3.4,1.6c1.1,0.5,1.8,1.4,2,2.6c-1.2,0-2.3,0.2-3-1
		s-2.2-1.9-4.1-1.3s-2.9,0.1-3.6-2.3C59.3,37.9,58.9,35.1,59.2,32.4z"/>
	<path class="st2" d="M78.3,43.3c-1.8-3.8-4.9-6.8-8.7-8.6c1.5,0,2.9-0.1,4.3,0c2.3,0.2,4.1,2,4.3,4.3
		C78.3,40.4,78.4,41.9,78.3,43.3z"/>
	<path class="st2" d="M65.8,57.8l-1.9-0.2C64.6,56.7,65.2,56.6,65.8,57.8z"/>
	<path class="st7" d="M37.6,127.8c-0.9,2-1.6,4.1-2.6,6c-3.5,7.6-7.5,9-15.1,5.1l-1.3-0.5c-3.5-3.4-4.8-7.8-4.8-12.5
		s0.4-10.5,0.6-15.7c0.1-2.1,0.3-4.1,0.4-6.2l0,0c0.8-5.5,1.2-11.1,4.4-16.1c2.3-3.5,4.7-6.3,8.9-7h0.1c2.2-1.8,4.4-1.5,6.6,0.1l0,0
		c4.2,2.3,5.5,5.2,3.9,8.6S36,93,34,90.4l0,0c-1-1-0.5-3.3-2.8-3.3s-3.4,1.2-4.4,3c-2.1,3.8-2.3,8.2-4.4,11.9
		c-0.3,0.2-0.3,0.4-0.1,0.7c-0.7,8.9-0.7,17.7,0,26.6c-0.2,0.2-0.2,0.4,0.1,0.5c-0.1,1,0.4,1.9,1.3,2.4c2.3,1.9,3.5,1.8,5-0.7
		c1.7-2.7,2.8-5.7,3.3-8.8c0.3-1.8,0.1-2.1-1.7-2.8c-0.6-0.1-1.2-0.3-1.7-0.7c-0.6-0.5-1.1-1.2-1.3-1.9c-0.2-1,0.6-1.7,1.4-2.2
		l0.5-0.2c3.4-0.5,6.9-1.1,10.3-1.4c1.3-0.1,2.5,0.8,2.8,2.1c0.1,1.2-0.4,2.3-1.4,2.9c-0.4,0.3-0.8,0.5-1.3,0.6c-1,0.2-1.7,1-1.6,2
		C37.9,123.4,37.7,125.6,37.6,127.8z"/>
	<path class="st2" d="M22.4,102c0.1-4.3,1.4-8.5,3.6-12.2c1.2-2.1,2.8-3.8,5.5-4.1s2.5,0.4,2.6,1.9c0,0.9,0,1.9-0.1,2.8l-0.4-0.2
		c-1.1-1.4-2.6-2.2-4.1-1.4s-3.1,2.2-2.9,4.4C26.8,96.9,25.6,99.9,22.4,102z"/>
	<path class="st2" d="M34,90.4l0.7,0.6c1.7,0.8,2.6,0.6,3-0.9c0.9-3.2,1-6.3-2.3-8.4c-0.3-0.2-0.4-0.5-0.6-0.7s1.7-0.1,2.2,0.3
		c1.4,1.2,2.8,2.5,4,3.9c0.3,0.4,0.5,0.8,0.5,1.3c0.2,2.8-3.2,6.1-6,5.8C34.4,92.2,34,91.4,34,90.4z"/>
	<path class="st2" d="M22.3,129.3c-0.4-1-0.7-2.1-0.9-3.2C21,119,21,112,21.6,104.9c0.2-0.8,0.4-1.5,0.7-2.2L22.3,129.3z"/>
	<path class="st2" d="M46.4,81.8L46,81.6L46.4,81.8z"/>
	<path class="st8" d="M33.9,188.1c-0.4,1.6-1,3.1-1.3,4.6c-0.9,4.8-1.8,9.7-2.6,14.6l-1.1,2.1c-0.7,1.5-2.3,2.4-3.9,2.1
		c-1.5-0.2-2.7-1.3-3.1-2.7c-0.3-0.7-0.5-1.5-0.6-2.3c-0.2-2.4-0.6-4.7-0.7-7.1c-0.4-6.5-0.6-13.1-1-19.6c-0.1-2,0.2-4.2-0.9-6.1
		c-0.6-4.1-1.2-8.1-1.7-12.2c-0.1-1.4-0.3-2.9-0.3-4.3s1.2-1.9,2-1.6c1.2,0.3,2.4,0.9,3.4,1.6c1,0.6,1.4,1.9,1,3
		c-0.5,1.2-0.6,2.5-0.2,3.7c1.5,6.5,2.9,13,4.3,19.5c0.6,0.4,0.5,1,0.4,1.6s0.1-1.2,0.5-1.7c1.9-6.7,3.9-13.4,4.8-20.4
		c0.3-1.9,0.6-3.8,1.1-5.6c0.3-0.9,0.6-1.8,1-2.7c0.5-1.2,1.9-2,3.2-1.7c1.5,0.3,2.5,1.6,2.5,3.1c-0.1,1.1-0.2,2.1-0.5,3.2
		l-6.3,27.5C33.8,187.2,33.8,187.6,33.9,188.1z"/>
	<path class="st7" d="M48.5,155.7c1.4-0.3,2.8-0.7,3.8,0.9c0.6,0.8,1.3,1.4,2.1,1.9c3.1,2.2,4.8,5.7,4.6,9.5
		c-0.1,5.3-0.5,10.6-0.8,15.8s-2.3,12.5-4.9,18.4c-0.5,1.2-1.1,2.4-1.9,3.4c-1.4,1.9-3.4,2.2-5.5,1.1c-2.7-1.6-4.6-4.2-5.2-7.2
		c-0.9-3.1-1.4-6.2-1.6-9.4c-0.3-6.4,0.4-12.8,1.9-19C42.5,165.5,45,160.3,48.5,155.7L48.5,155.7z"/>
	<path class="st9" d="M28.1,183.3c-0.1,0.6-0.3,1.1-0.4,1.6l-0.5-1.5L28.1,183.3z"/>
	<path class="st10" d="M158.6,175.5c0.1,0.7,0.1,1.4,0.1,2.1c-1.7,0.6-1.7,0.6-1.9,2.9c-1.9-1.6-3.7-3.5-6.3-4.1
		c-1-0.4-1.6-1.3-1.5-2.3c-0.4-4.9,0.6-9.8,2.7-14.3c0.8-1.5,2.2-1.6,2.9-0.1c0.7,1.2,1.1,2.6,1.2,4c0.1,3-0.2,6-0.4,9.1
		c0,0.6-0.3,1.2-0.3,1.8s-0.2,1.7,0.7,2.1c0.8,0.3,1.6,0.1,2.1-0.6L158.6,175.5z"/>
	<path class="st7" d="M40,20.3c3.3-3.8,7.8-3.9,12.3-3.8c1.7,0.1,3,1.5,3,3.2c0,1.8-1.5,3.3-3.3,3.4h-0.5c-1.8-0.1-3.8-0.5-5.5,0.7
		c0,1.7-0.2,3.4-0.1,5.2c0,4.1,0.2,8.3,0.3,12.4c0,1.2,0.3,1.8,1.6,1.9h3.3c1,0,1.9,0.7,2,1.7c0.1,1-0.4,1.9-1.3,2.3l-3.6,1.4
		c-2.3,0.8-2.5,0.8-2.3,3.3s0.6,7.3,1,11c0.1,0.8,0.8,1.3,1.6,1.2c0,0,0.1,0,0.1,0c1.9-0.4,3.8-0.6,5.7-0.8c1.3-0.2,2.6,0.6,3,1.9
		c0.5,1.4,0,3-1.3,3.9c-1.4,0.7-2.8,1.4-4.3,2c-1.8,0.6-3.7,1.1-5.6,1.4c-3.1,0.6-5.5-1-5.9-4.1c-1-6.5-1.7-13-0.8-19.5
		c0.4-3.5,0.4-7,0.5-10.5v-1.6c0.7-4.6,0.7-9.2-0.1-13.8l0,0C39.1,22.2,39.2,21,40,20.3L40,20.3z"/>
	<path class="st2" d="M39.9,23.1c0.3,0.4,0.7,0.8,0.7,1.2c0.1,4.2,0.5,8.4-0.6,12.6C40,32.3,39.9,27.7,39.9,23.1z"/>
	<path class="st2" d="M40,20.2c0,1-0.1,1.9-0.1,2.9C38.7,21.6,38.7,21.6,40,20.2z"/>
	<path class="st7" d="M35.9,68.9l-8,1.7c-3.6,0.7-6.1-1-6.1-4.6c-0.2-7.4-0.1-14.7,0.1-22.1s0.5-12.4,0.8-18.6c0-1.3,0-2.6,0.2-3.9
		c0-1.3,0.9-2.4,2.2-2.8c1.3-0.4,2,0.6,2.8,1.4l0.3,0.3l0.3,24.9c0,4.7-0.1,9.3,0,13.9c0,1.1,0.1,2.2,0.2,3.3h4.4
		c3.8,0.1,5,2.3,3.3,5.7C36.3,68.4,36.1,68.6,35.9,68.9z"/>
	<path class="st7" d="M91.5,154.6c3.2,5.6,2.4,11.4,0.8,17.1c0,0.3-0.2,0.6-0.5,0.8l-1.3,0.2c-0.3,0-0.6-0.3-0.6-0.6
		c-0.1-1.1-0.1-2.2-0.2-3.3c-0.1-2.7-0.1-5.4-0.3-8.1c0-0.7-0.4-1.2-1-1.5c-0.4-0.2-1.2,0.3-1.5,0.7c-2.5,3.4-3.8,7.5-3.9,11.7
		c-0.1,1.3,0.7,2.6,2,3c5.5,2.1,7.7,6.7,8.7,12.2c0.7,3.3,0.7,6.6,0.1,9.9c-0.8,4.1-3,7.8-6.3,10.4c-2.3,0.7-4.6,1.3-6.9,1.8
		c-4.2,0.6-8.1-2.3-8.7-6.5c-0.2-1.4,0-2.8,0.5-4.1c0.4-0.7,0.9-1.3,1.5-1.8c1.1-0.9,2.8-0.6,3.6,0.5c0.2,0.3,0.4,0.6,0.5,1
		c0.2,0.6,0.1,1.2,0.3,1.9s1.1,1.8,2.4,1.6c2.8-0.6,4.7-2,5.4-4.8c1.3-4.2,0.9-8.7-0.9-12.7c-0.6-1.3-1.6-2.3-2.9-3
		c-4.5-2.3-5.7-6.2-5.1-10.9c0.6-4.1,2-8.1,4.3-11.6c0.4-0.7,0.9-1.3,1.5-1.9C85.4,154.1,88.1,152.9,91.5,154.6z"/>
	<path class="st7" d="M85.9,138.4c0.1-5.3,0.3-10.5,0.5-15.8c0-1-0.6-1.3-1.6-1c-1.8,0.6-3.6,1.2-5.5,1.6c-0.9,0.2-1.7,1-1.9,1.9
		l-1.5,6.5c-0.6,1.6-1.1,3.2-1.8,4.8c-0.3,0.5-0.8,0.8-1.4,0.9c-0.8,0.1-1.4-0.5-1.5-1.3c0-0.1,0-0.1,0-0.2c0.1-1.7,0.3-3.4,0.5-5.1
		s0.4-3.1,0.7-4.6l0,0c1-4.9,0.4-10.2,3.7-14.5c0.2-0.2,0.3-0.4,0.1-0.6c1.5-4.9,0.7-10.3,3.9-14.7l0,0c0.9-2.5,1.9-5,2.7-7.5
		c0.8-2.1,2.1-4,3.8-5.5c2.1-2,4.7-1.4,5.6,1.4c0.5,2,0.9,4,1,6.1c0.2,1.4,0.3,2.9,0.3,4.3c-0.1,13.8-0.1,27.7-0.2,41.5
		c0,0.6,0,1.3-0.1,1.9c-0.1,1.5-1.2,2.7-2.7,3c-1.4,0.4-3-0.2-3.7-1.5L85.9,138.4z"/>
	<path class="st11" d="M102.1,104l0.4-1.6c0.2,0.5,0.3,1,0.5,1.6H102.1z"/>
	<path class="st2" d="M80.1,96.3c-0.7,5-2,10-3.9,14.7c0-2.5-0.4-5,0.5-7.5c0.2-1.1,0-2.1-0.4-3.1c-0.1-1.1,0.2-2.2,0.9-3.1
		C77.9,96.1,79,96.3,80.1,96.3z"/>
	<path class="st2" d="M76.1,111.6l-3.7,14.5c-0.2-4.2-0.3-8.3,0.9-12.3C73.7,112.5,74.8,111.6,76.1,111.6z"/>
	<path class="st2" d="M68.5,98.2c0,1.3,0,2.5-0.1,3.7c-0.1,3.1-0.2,3.3-3.7,4l-0.3-0.2c-0.4-3.5,0.7-6.1,3.9-7.7L68.5,98.2z"/>
	<path class="st3" d="M68.3,98l-3.9,7.7c-1.5,1.8-3.5,3.5-4.3,5.6s1.2,4.4,1.9,6.6c1.9,5.6,4,11.1,6.1,16.7l0.3,0.9
		c0.4,1.4-0.1,2.9-1.4,3.7c-1.3,0.7-3,0.2-3.8-1c-0.9-1.2-1.5-2.5-2.3-3.7l-5.1-18.7c-0.2-0.8-1-1.3-1.8-1.2
		c-1.5,0.1-2.4,0.7-2.6,1.7v2.3c0.1,3.5,0.3,7,0.4,10.5c0.1,1.4,0,2.9-0.1,4.3c-0.4,3.2-2.2,4.1-5.3,2.6l-0.8-0.6
		c0.1-7.1,0-14.3,0.2-21.4c0.3-9.1,1-18.1,1.5-27.2c0-0.6,0-1.3,0.1-1.9c0.1-1,0.8-1.8,1.7-2c8.5-3.1,14.3-0.1,17.8,6.4l1.4,2.5
		c-0.2,0.2-0.1,0.4,0.1,0.6C68.4,94.3,68.3,96.2,68.3,98z"/>
	<path class="st2" d="M106.7,96.4c-1.2-3.6-2.5-7.1-3.8-10.6c3.4,0.3,3.9,0.6,3.9,3.4S106.8,94,106.7,96.4z"/>
	<path class="st2" d="M101.1,84.7h-1.9C99.8,83.7,100.4,83.7,101.1,84.7z"/>
	<path class="st2" d="M103,85.8l-1.3-1L103,85.8z"/>
	<path class="st12" d="M195.1,61.8c2.4-1.4,4.9-1.8,7.3,0c0.2,0.8,0.3,1.5,0.4,2.3c0.1,3-0.8,4.3-3.6,5.3c-1.2,0.5-2.4,0.7-3.6,0.8
		c-1.7,0.2-3.2-1-3.4-2.7c-0.1-0.6,0-1.2,0.3-1.8C193.3,64.3,194.1,63,195.1,61.8z"/>
	<path class="st13" d="M69.8,148.2c-0.5,0.2-1.1,0.7-1.7,0.7c-0.9,0-1.7-0.8-1.6-1.8c0,0,0-0.1,0-0.1c0.1-0.8,0.8-1.3,1.6-1.2
		c0,0,0.1,0,0.1,0C69.3,145.9,69.9,146.8,69.8,148.2z"/>
	<path class="st14" d="M103.7,149.9c-1,0.1-1.8-0.5-2-1.5c0-0.8,0.7-1.5,1.5-1.6c1-0.2,1.9,0.4,2.2,1.3
		C105.6,148.9,104.8,149.8,103.7,149.9z"/>
	<path class="st2" d="M132.8,111.6l0.3-19.2c0-2.1,1.1-2.4,2.8-1.8c0.6,0.2,1.1,0.6,1.6,1c3.1,3,5.4,6.5,5.8,10.8
		c0.9,7.5,0.2,15.1-1.9,22.3c-0.8,2.1-1.7,4.1-2.9,6c-0.4,0.8-1.1,1.5-2,1.9c-3.4,1.3-4,1.6-4-2.3c0.1-6.2,0-12.5,0-18.7
		L132.8,111.6z"/>
	<path class="st7" d="M164.3,100.3c4,2,5.8,5.8,7.6,9.5c1,6.3,1,12.6,0,18.9c-0.4,1-0.9,2-1.3,3.1c-1.3,3.3-3.5,6.1-6.4,8.1
		c-3.5,2.7-7.3,2.3-10.3-1c-1.1-1.2-1.9-2.5-2.5-4c-0.7-1.5-0.6-3.2,0.3-4.6c0.9-1.5,2.8-2,4.2-1.1c0.4,0.2,0.7,0.5,1,0.9
		c0.5,0.7,0.7,1.5,1.2,2.1s1.8,1.5,3,0.3c1.6-1.4,2.6-3.3,3.1-5.4c1.1-4.2,1.5-8.5,0.9-12.8c-0.1-0.8-0.3-1.6-0.6-2.3
		c-0.5-2.5-2.1-4.7-4.4-5.9c-3.9-2.2-4.8-4.6-4-8.8c0.9-4.3,3-8.2,6-11.3c0.9-0.9,2-1.5,3.2-2c1.6-0.4,3.2,0.5,3.8,2
		c0.5,1.6,0.4,3.3-0.5,4.7c-0.4,0.8-1.5,1.2-2.3,0.7c-0.1,0-0.1-0.1-0.2-0.1c-0.5-0.5-1.3-0.5-1.8,0c-0.2,0.2-0.3,0.4-0.4,0.6
		c-0.8,1.7-1.5,3.5-2.1,5.3c-0.2,0.8,0,1.6,0.4,2.3C162.6,100,163.6,100,164.3,100.3z"/>
	<path class="st15" d="M47.7,198.5c-4.1-8.5-3.1-25.6,2.1-35.6c1.6,0.6,2.8,1.9,3.2,3.6c0.1,0.3,0.2,0.7,0.2,1
		c-0.2,10.2-0.2,20.4-4.7,29.9C48.4,197.7,48.1,197.9,47.7,198.5z"/>
	<path class="st16" d="M86.7,97.2c0,5.7,0.1,11.4,0.1,17.1c0,2.2-0.3,2.4-2.5,2.8l-4,0.7c-0.2-0.3-0.3-0.7-0.4-1
		c2-6.5,3.9-13,5.9-19.6C86.1,96.8,86.4,96.8,86.7,97.2z"/>
	<path class="st17" d="M86.7,97.2h-0.9c0.1-0.5,0.3-1,0.5-1.5L86.7,97.2z"/>
	<path class="st18" d="M51.3,98.8v-9.1c0-2.1,0.8-2.9,2.9-2.8c4.1,0.1,7.6,3.1,8.2,7.2c0.2,1.3-0.1,2.6-0.7,3.7
		c-1.9,2.9-3.9,5.8-6,8.6c-0.9,1.2-2.4,2-3.6,3c-1.6-1.4-0.5-3.3-0.7-4.9c-0.1-1.9-0.1-3.8,0-5.7L51.3,98.8z"/>
	<path class="st4" d="M208.7,114.2c-1.4,0-2.8,0.7-3.7,1.8c-1.2,2.1-3,2.1-4.9,2c-0.4-0.3-0.6-0.7-0.8-1.1c-0.3-1.4-0.4-2.8-0.1-4.2
		c0.1-0.4,0.3-0.9,0.5-1.3c0.9-2.1,2.5-4,3.4-6.2c0.7-1.8,2.3-3.1,4.2-3.5c3.7-1,6.4-3.1,6.7-7.1c0.2-2.5-4-5.6-7.8-6.2
		c-0.6-0.1-1.2-0.3-1.8-0.6l-0.5-0.5c0-0.8,0.5-1.6,1.3-1.8c2.3-0.8,4.7-0.2,7,0c0.7,0,5.9,5.1,5.9,5.8c0.1,2.5,0.1,5-0.1,7.5
		c0,0.7-0.9,1.3-1.4,1.8s-2.2,1.5-2.8,2.6c-0.8,1.6-2.4,2.5-4.2,2.4c-1.3,0-1.9,1-2.4,2C206,110.2,207.2,112.2,208.7,114.2z"/>
	<path class="st4" d="M192.4,98.8c0-1.8,1-3.4,2.5-4.3c2.4-1.4,3.9-3.6,5.8-5.5s1.8-1.7,3.2-1.7c2.8,2.8,0.1,4.2-1.5,5.7
		c-5.7,4.6-9,11.6-8.9,18.9c-0.1,0.7-0.2,1.4-0.5,2c-0.3,0.7-0.9,1.1-1.6,1.2c-1.4-0.7-2.4-1.8-1.5-3.4c0.8-1.7,1.1-3.7,0.6-5.5
		c-0.1-1.6-0.1-3.2,0-4.8C190.5,100.2,191.3,99.2,192.4,98.8z"/>
	<path class="st2" d="M189.2,151.4c-0.5-5.2,2.8-8.8,5.2-12.7c3.5-1.9,6.4-5.1,11-4.6c1.9,0.1,3.8,0.1,5.7,0c1.3-0.1,2.6,0.2,3.6,1
		c1,0.9,1.6,2.3,1.6,3.7l-0.2,0.2c-3.3-0.5-6.1-2.5-9.9-2.1c-6.2,0.6-9.8,3.8-12.7,8.7c-1.2,2-1.4,4.6-3.6,6L189.2,151.4z"/>
	<path class="st4" d="M217.3,109.4c-0.8,0.9-1.8,1.7-1.9,3.1s-1.6,1.6-2.9,1.6c0.3-1,0.3-2.3,0.9-3c1.8-1.9,2.9-4.2,3.2-6.8
		c0.2-0.8,0.6-1.5,1.1-2.1"/>
	<path class="st2" d="M196.1,178.8c1.8,0.3,3.4,1.1,4.6,2.4c0.9,1.1,2.3,1.6,3.7,1.3l0.3,0.3c0.8,2.3-0.5,3.8-2.2,4.6
		s-2.9-0.9-3.9-2s-3.4-3.4-3.1-6.2L196.1,178.8z"/>
	<path class="st2" d="M189.2,164.9c-2.8-1.3-3-1.4-2.4-3.6c0.5-1.4,0.5-2.8,0.2-4.2c-0.6-2.2,0.3-4.5,2.2-5.7h0.2
		c1.9,4.2,0,8.6,0.4,12.9L189.2,164.9z"/>
	<path class="st2" d="M192.1,168.7c-2.2-0.3-2.4-2.1-2.9-3.8l0.3-0.2c2.3,0.1,2.9,1.7,2.9,3.7L192.1,168.7z"/>
	<path class="st2" d="M191.4,115.1l1-0.9c1.3,1.3,1.4,3.3,0.1,4.7c0,0,0,0,0,0l-0.2,0.2c-0.4,0.3-0.6,0.2-0.9-0.1L191.4,115.1z"/>
	<path class="st2" d="M204.6,175.9l1.1-0.5c0.3,0.3,0.5,0.6,0.6,1c0.1,0.1-0.3,0.4-0.3,0.4L204.6,175.9z"/>
	<path class="st4" d="M191.4,119h0.9v1.8C191.8,120.4,190.2,120.3,191.4,119z"/>
	<path class="st2" d="M195,177.8l0.9,0.9l-0.3,0.4c-0.4-0.2-0.8-0.5-0.9-1L195,177.8z"/>
	<path class="st19" d="M194.6,178l0.7,0.7c1.9,2.6,3.7,5.2,5.6,7.7c0.3,0.5,0.9,0.6,1.4,0.3c0.1-0.1,0.2-0.1,0.2-0.2
		c0.8-1.2,1.5-2.5,2.2-3.7l3.6-4.4c0.5-0.6,1-1.2,1.6-1.7c0.8-0.7,2.1-0.6,2.8,0.2c0.1,0.1,0.1,0.2,0.2,0.3c0.5,0.9,0.8,2,0.9,3.1
		c0.2,7.8,0.2,15.7,0.2,23.5c0.1,0.8-0.1,1.6-0.5,2.3c-0.4,0.9-1.3,1.5-2.3,1.3c-0.9-0.2-1.7-0.7-2.2-1.4c-0.4-1-0.7-2.2-0.6-3.3
		c-0.1-4.3,0-8.6,0-12.9v-2.7c-1.8,0.8-2.2,2.3-3,3.3c-2,2.6-3.2,2.8-6,1c-0.5-0.3-1-0.7-1.5-1.2c-2.2-0.3-1.5,1-1.2,2.1
		c0,2.9,0.1,5.7,0.2,8.6c0.1,0.8,0.1,1.5,0,2.3c-0.2,1.3-1.2,2.4-2.5,2.6c-1.3,0.2-2.6-0.4-3.2-1.6c-0.5-1.3-0.9-2.8-0.9-4.2
		c-0.1-6.6-0.1-13.3-0.1-20c0-0.3,0-0.6,0.1-0.9c0.2-1.6,1.5-2.3,3.1-1.7L194.6,178z"/>
	<path class="st20" d="M192.4,168.4c-1-1.2-2-2.4-2.9-3.7c-1.2-3.5-1.3-7.3-0.3-10.9c0.1-0.8,0.2-1.5,0.2-2.3l2-4.8
		c1.3-2.9,3.2-5.5,5.5-7.7c2-1.8,4.3-3.1,7.2-2.9c1.3,0.1,2.6-0.1,3.8-0.4c2.6-0.8,5.5,0.1,7.2,2.3l1,1c2.1,6.5,1.6,12.9-0.1,19.3
		c-0.7,2.8-2.1,5.4-4,7.5c-4.4,5.2-11.9,6.6-17.9,3.4L192.4,168.4z"/>
	<path class="st20" d="M192.5,118.9c-0.1-1.6-0.1-3.1-0.1-4.7c0-0.5,0-1,0.1-1.5c0.7-8.6,5.1-16.5,11.9-21.7
		c2.8-2.2,5.3-2.5,7.9,0.3s2.2,5.5-0.4,8s-3.8,2.1-4.8-1.1c0-0.6,0.5-1.1,0.4-1.7c-0.1,0.4-0.3,0.9-0.5,1.3c-2.8,4.5-5.2,9.4-7,14.4
		l0,0c-0.7,1.7-0.7,3.7,0,5.4l-0.2,0.3l0.3,0.2c1.2,2.3,2.7,2.9,4.3,1.8c0.8-0.7,1.6-1.5,2.3-2.3c0.6-0.7,1.3-1.4,2.1-2
		c1.2-0.9,2.8-0.8,4,0.1c1,0.8,1.4,2.1,1.1,3.4c-1.2,5.1-7,9.3-12.1,8.8c-3.6-0.3-6.7-2.5-8.1-5.8
		C193.2,121,192.9,119.9,192.5,118.9z"/>
	<path class="st2" d="M207.9,96.9c-0.1,0.3-0.1,0.6-0.2,0.9c-0.1,0.8,0.3,1.6,1,2c0.9,0.4,1.9,0.2,2.6-0.5c1.4-1.6,2-3.7,1.6-5.8
		c-0.4-2.2-2.6-3.7-4.8-3.2c-0.3,0.1-0.5,0.1-0.8,0.2c-1.5,0.6-2.8,1.4-4,2.5c-4.3,3.7-7.4,8.5-9,13.9l-1.8,5.8
		c0.1-2.7,0.2-5.5,0.4-8.3c0.1-0.6,0.4-1.2,0.9-1.6c2.2-1.6,2.4-4,2.9-6.2c0.2-0.6,0.5-1.4,0.8-1.5c3.1-0.3,3.8-3.5,6.2-4.8
		s0.8-1.9,0.2-3h2.9c2.1-0.1,4.1,0,5.1,2.4c0.3,0.6,0.8,1,1.4,1.3c1.3,0.6,2.2,1.9,2.1,3.4c0.1,1.8,0,3.4-1.8,4.5
		c-0.5,0.4-1,0.8-1.3,1.4c-0.9,1.5-2.5,2.4-4.3,2.4c-1.9-0.2-3.5,1.1-3.9,2.9c-0.6,2.7-2.5,4.6-4.1,6.6c0.4-5.7,2.8-11.1,6.8-15.2
		C207.1,96.5,207.5,96.5,207.9,96.9z"/>
	<path class="st2" d="M200,117.5c-0.9-1.7-0.9-3.7,0-5.4V117.5z"/>
	<path class="st2" d="M194.2,99.8c-0.6,0.3-1,0.5-1.1,0.4c-0.3-0.3-0.5-0.6-0.6-1l0.3-0.3L194.2,99.8z"/>
	<path class="st4" d="M224.2,192.5c1.2,0.4,2.1,1.5,2.2,2.8c0.2,1.8-0.5,3.5-1.8,4.7c-0.7,0.5-1.6,0.4-2.1-0.3l0,0
		c-1.3-1.7-0.9-5.4,0.8-7C223.5,192.5,223.9,192.6,224.2,192.5z"/>
	<path class="st21" d="M210.1,148.8c-0.5,2.6-0.8,5.1-1.5,7.5c-0.5,1.5-1.4,2.9-2.5,4.1c-1,1-2.2,1.8-3.5,2.2
		c-3.6,1.1-6.5-1.1-6.4-4.8c0.2-5.2,1.6-10.1,5.1-14.1c1.5-1.7,5.1-2.5,7-1.5c0.5,0.3,0.9,0.8,1.1,1.4
		C209.7,145.3,210,147.1,210.1,148.8z"/>
	<path class="st22" d="M207.9,96.9h-1.1c0.2-0.4,0.3-0.9,0.7-1.1s0.7,0,1,0.1L207.9,96.9z"/>
</g>
<g id="Layer_1">
	<title>logosquare2</title>
	<path class="st23" d="M114.6,174.7c0-0.5,0.1-1,0.1-1.5c0.6-4.7,0.6-9.5,0-14.2v-0.2c1.6-3.4,3.8-3.5,5.8,0s3.9,7.2,4.5,11.4
		c0.2,1.9,0.5,3.8,1,5.7h-0.1c2.1,3.2,3.6,6.7,4.7,10.3c-0.2-9,0.9-16.8,0.4-24.7c-0.2-2.1,0.3-4.1,1.4-5.9c1.6-2.4,3.6-3.8,6-0.7
		v-0.2l-0.2,0.2c1.3,1,1.9,2.7,1.5,4.3c-1.5,14.2-0.4,28.5-0.7,42.7c-0.1,0.7,0-0.1,0,0.5c-0.1,5.1-1.8,8.5-4.6,8.4s-5.7-3.7-6.9-7
		c-0.7-1.6-0.8-3.4-1.4-5.1h0.1c-3.1-3.5-3.7-8.2-5.7-12.3c0.6,8.2-1.6,16-2.4,23.9h0.1c-0.2,1-1,1.7-2,1.9h0.1
		c-3.7,1.1-5.3-1.4-5-4.2C112.3,196.8,111.4,185.6,114.6,174.7z"/>
	<path class="st24" d="M62.9,207.1c-1,0.1-1.9-0.2-2-1.4s0-5.4-0.1-8.1c0.1-1,0-1.9-0.1-2.9c-0.2-0.6-0.5-1-1-1.4
		c-0.9-0.3-2,0.2-2.3,1.1c0,0,0,0,0,0.1c-0.4,2-1.2,3.9-0.6,6c0.2,0.6,0.4,1.3,0.5,1.9c0.2,0.7-0.2,1.5-0.9,1.8c0,0-0.1,0-0.1,0
		c-1.7,0.3-2.3,1.6-3,2.8c-0.4,0.9-1.4,1.4-2.4,1.3l-7.1-0.3c-0.4,0-0.8-0.4-1.2-0.7c-0.7-0.8-1.6-1.5-2.5-2
		c-1.9-0.9-2.7-2.3-2.2-4.2s-0.3-4.4-0.1-6.7s0-4.1-0.1-6.2s-0.8-1.9-2.1-1.1l-1.5,1.2l-0.6-0.5c-1-1.9-0.3-3.8,0.2-5.6
		c2-7.4,3.3-15,5-22.5c0.3-0.9,0.3-1.9,0.2-2.8c-0.1-0.8-0.4-1.6-1.3-1.8s-1.4,0.5-1.8,1.2c-0.8,2.1-1.4,4.3-1.6,6.5
		c-1.3,7-1.9,14.3-5.7,20.6c-0.4,0.3-0.9,0.3-1.4,0.2c-1.1-0.9-1.8-2.3-1.9-3.7c-0.7-6.7-3.7-12.9-3.8-19.6c0-1.2-0.4-2.5-1.8-2.5
		s-1.5,1.8-1.4,3s0.7,4.7,1.2,7.1s0.7,3.7-0.4,5.5l-0.5,0.5c-2.8-1.6-4.1-4.1-3.4-7.1c0.4-1.7,0.4-3.4,0-5.1
		c-0.4-2.1-0.1-4.4-0.1-6.7c2.9-0.7,5.9-0.5,8.7,0.5c1.6,0.3,2.7,1.8,2.6,3.5c-0.1,3.7,0,7.3,0,11c-0.2,1.4,0.4,2.9,1.5,3.8
		c0.6,0.4,1.4,0.3,1.8-0.3c0.1-0.1,0.1-0.2,0.2-0.3l0.3-2.3c0.2-2.7-0.4-5.5,0.6-8.1c0.1-0.3,0.1-0.6,0-0.9
		c-1.4-2.9,0.1-4.9,2.1-6.7c0.5-0.6,1-1.2,1.3-1.9c2.1-2.8,2.7-3,6.6-1.6l0,0l0.9,3.6c0.2,0.5,0.2,1.2,0.4,1.7
		c0.4,1,1.6,1.5,2.6,1.1c0.2-0.1,0.3-0.2,0.5-0.3c0.9-1.1,1.6-2.3,3.3-2.1c0.2,0.9,0.1,1.9-0.5,2.7c-5.3,8.6-7.1,18.1-7.6,27.9
		c-0.4,5.4,0.7,10.8,3.1,15.7c0.9,1.9,2.4,3.6,4.7,3.5s3.1-2,3.9-3.8c5.3-11.3,6.3-23.3,5.4-35.5c-0.4-5.5-5.1-7.7-8.9-10.5
		c1-1.7,2.8-1,4.2-1.1s3.8,0.2,4.4,2.6c0.1,0.5,0.5,0.8,0.9,1c1.6,0.4,2.5,1.6,3.4,2.9s1.2,1,2.5-0.2l0.8-0.6
		c1.7,1.9,1.5,4.2,1.3,6.4c-0.9,11.9-1.8,23.9-1.8,35.9C64.2,204.2,64.1,205.8,62.9,207.1z"/>
	<path class="st25" d="M160.6,195.3v0.2c0.1,6.7-3.3,11-9.2,13.6s-8.3,0.7-10.2-3.9c-1.8-4.1-2.1-8.8-0.6-13.1
		c0.7-2.1,2-3.8,4.5-3.5s3.1,2.3,3.3,4.5s-0.2,3.8,0.6,5.6c4.8-2.7,4-11.4-1.3-14.9c-3.3-2.2-6-4.7-6.2-8.6
		c-0.3-5.3,0.7-10.6,2.9-15.4c0.4-0.7,1.2-1.1,1.4-1.9c1.1-3.8,3.3-6.3,7.5-5.9s6.5,4.6,6.9,9.2c0,0.5,0.2,0.9,0.4,1.3v2.3
		c-1,3.5,0.1,7.3-1.2,10.7c-0.9,1.6-2.3,2.3-4,1.5s-1.5-2.4-1.3-3.8c0.6-3.3,0.7-6.6,0.2-9.9c-0.1-0.6-0.4-1.2-0.9-1.6
		c-4.2,4.4-4,11.3,0.4,14.9c1.4,1,2.7,2.3,3.7,3.7c2.4,2.9,2.5,6.4,2.7,9.8C160.3,191.8,159.9,193.6,160.6,195.3z"/>
	<path class="st24" d="M160.6,162.5c-0.3-0.7-0.5-1.5-0.7-2.2c-0.4-0.9-0.6-1.9-1-2.7c-1.3-2.5-3.2-4.6-6.2-4.7s-4.6,2-5.9,4.3
		c-1,1.8-1.8,3.7-2.3,5.7c-0.8,3.1-1.4,6.2-1.8,9.4c-0.5,4.5,1,8.3,5.5,10.1c2.1,0.8,3.7,2.7,4.2,4.9c0.5,2.5,0.9,5,1.2,7.5
		c0.3,3-1.6,5.8-4.5,6.6c-0.6,0-1.1-0.3-1.5-0.8c-0.2-1.9-0.3-3.8-0.4-5.7s0.2-2.2,0.1-3.3c0-1-0.7-1.9-1.7-2.1
		c-0.9-0.4-2-0.2-2.7,0.6c-0.7,0.7-1.2,1.5-1.4,2.4c-0.9,3.9-0.7,8,0.5,11.8c0.4,1.2,1,2.3,1.9,3.3c1.2,1.4,3.1,1.9,4.8,1.3
		c3.2-1,6.1-2.7,8.5-5.1c1.3-1.4,2.2-3.2,2.6-5.1c0.2-1,0.5-2.1,0.8-3.2v0.5c0.2,7,0.2,7-4.2,12c-0.6,0.5-1.2,0.9-1.9,1.3
		c-1.1,0.5-2.2,1.1-3.3,1.8c-2.5,1.6-4.2,1.5-6.4-0.4l-1.4-1.3c-1.3-1.4-3.5-1.5-4.9-0.2c-0.1,0-0.1,0.1-0.2,0.2
		c-0.8,0.9-1.8,1.6-3,2.1c-2.1,0.8-3.6,0.9-5-1.1s-3.4-1.9-3.9-3.2s-0.3-4.1-0.3-6.2s0.1-1.6,0.1-2.4c1.1,2.1,2.1,4.3,3.2,6.3
		c0.7,1.4,1.6,2.8,2.6,4c1.3,1.3,3.4,1.3,4.7,0c0.5-0.5,0.8-1.1,0.9-1.7c0.3-1.6,0.4-3.1,0.3-4.7c0-11-0.2-22-0.2-33
		c0.1-3.1,0.5-6.3,0.7-9.5c0.1-1.7,0-3.5-0.1-5.2c1.6-0.3,2.9-0.2,3.2,1.8c0.1,0.5,0.3,0.9,0.6,1.3c0.9,0.7,2.2,0.5,2.9-0.4
		c0.1-0.3,0.2-0.6,0.2-0.9c-0.1-1.6,0.6-3.2,1.9-4.2c1.6-1.3,3.7-1.9,5.8-1.6l2.8,0.5c0.5,0.1,0.9,0.3,1.2,0.7
		c1.2,1.6,2.4,3.3,3.5,5c0.4,0.9,0.5,1.8,0.5,2.7C160.9,160.6,160.8,161.6,160.6,162.5z"/>
	<path class="st24" d="M87.8,207.4c-1.3,1.5-3.8,1.7-4.4,4.1c0,0.3-1.1,0.5-1.6,0.5s-1.7-0.6-2.3-0.4s-2.8,0.6-3.7-1.4
		s-2.1-1.8-3.6-1.8l-4.7-0.2c1.2-14.6,0.3-29.2,0.6-43.8c0-2.4,0.5-5.1-3.4-4.8c-0.4-5.4,0.6-5,5-5c2.1,0.1,2.5,0.6,2.6,2.6
		s0.1,4.1,0,6.2c0.1,0.8,0,1.6-0.4,2.3c-2.5,2.8-0.8,5.6,0.2,8s1.2,3.2,0.4,4.9c-0.4,1.1-0.6,2.2-0.8,3.3c-0.2,0.9-0.2,1.8,0,2.7
		c0.6,1.6,0.6,3.5,0,5.1c-0.5,1.6,0.4,3.3,2,3.7c0.5,0.1,1,0.2,1.5,0.1L78,193c0.8-0.1,1.6,0.4,1.9,1.2c0.4,0.8,0.9,1.6,1.4,2.4
		c0.4,0.6,1.2,0.7,1.8,0.3c0.2-0.2,0.4-0.4,0.5-0.7c1.6-3.8,0.9-7.7,0.1-11.6c-1.4-1.5-2.6-3.3-4.8-3.6c-0.8-0.1-1.5-0.7-1.6-1.5
		c-0.8-1.8-1.2-3.7-1.2-5.6c0.2-2.5-0.1-5.1,0.1-7.6s0.3-6.1,3.1-8.2c0.4-0.3,0.5-1.1,0.8-1.7s0.5-1.4,1-1.5s3.3-1.1,3.4-3.3
		c0-0.2,0.7-0.5,1.1-0.5l2.7,0.3c2.5-0.3,2.5-0.3,3.2,2.1c0.1,0.3,0.1,0.6,0.2,1l-0.6,0.4c-7.1,0.1-9.7,5.3-11.6,10.9
		s-1.8,10.7,3.9,14.7s6.1,12.6,3.4,17.6s-6.4,5.3-9.8,1.2c-1.8-2.1-2.7-1-3.3,0.8c-1.4,3.8,2.2,8,6.6,7.6c2.3-0.2,4.5-1.7,7-0.8
		C87.4,207.1,87.6,207.3,87.8,207.4z"/>
	<path class="st26" d="M99.3,203.3v-17.7c0.7-8.3,0.4-16.8,0.9-25.1c0.1-1.9,0.4-3.6,2.3-4.4s3.4-0.7,4.3,1.4l0,0
		c3,5.9,2.1,12.3,1.4,18.2c-1,7.9-0.5,15.8-0.8,23.7c-0.1,1.4,0.4,2.9-0.6,4.1h0.1c-0.9,1.2-0.1,2.8-0.9,4.1s-1.2,3.2-3.2,3
		s-2.9-1.6-3.1-3.6S100,204.5,99.3,203.3z"/>
	<path class="st27" d="M64.7,159.6l0.3-0.4c0.7-1.3,1.2-2.9,3.1-2.4s1.7,2.2,1.7,3.6s0,4.5,0,6.7l-0.3,30.1c0,1.9-0.2,3.9-0.1,5.8
		c0.1,1.9-0.6,3.8-1.9,5.2l0,0c-1.9,1.4-3.3,0.2-4.6-1l0,0c-0.1-1.3-0.4-2.5-0.4-3.8l1.8-34.4c0.2-2.8,0.3-5.7,0.4-8.6
		c0.2-0.2,0.3-0.5,0.1-0.7C64.8,159.7,64.7,159.6,64.7,159.6z"/>
	<path class="st24" d="M91.7,154.5l4,0.3c-0.6,4.1,0,7.9,0.2,11.8c0,2.1-0.3,4.1-0.8,6.1c-0.1,0.4-0.9,0.9-1.4,1s-3,0.7-2.9,2.5
		s1.6,1.9,2.7,2.3s1.2,1.2,1.4,2.4c0.5,4.2,0.6,8.5,0.5,12.8c0,2.2,0.2,4.4-0.6,6.6s0.2,1.8,0.2,2.8s-0.3,1.1-0.5,1.1
		s-2.7,1.8-4,2.6c-0.9,0.4-1.8,0.6-2.7,0.6l-0.3-0.3c-0.1-1.4,0.8-2.3,1.5-3.4c6.9-10,5.1-20.9-4.5-28c-1.8-1.1-2.9-3.1-2.7-5.2
		c0.3-3.5,1.4-6.9,3.2-10c0.8-1.2,1.8-2.5,3.5-2.1s2,1.8,2.2,3.3s0,5.1,0.5,8.5c2.1-5.7,0.1-10.7,0.3-15.6L91.7,154.5z"/>
	<path class="st24" d="M138.4,154.8l-0.9-0.3c-2.7-0.7-4.2-0.1-4.7,2.4c-0.5,3-0.9,6-1,9c-0.2,6.6-0.1,13.1-0.2,19.7
		c0.1,1.3,0.1,2.6-0.2,3.8c-2.1-2.6-4.4-8.2-5.5-13.6c1.2,0.2,1.6,2.3,3.2,1.4c1.6-0.9,0.7-2.2,0.8-3.4c0.2-2.8-0.4-5.7,0.7-8.5
		c0.1-0.6,0.1-1.2-0.1-1.8c-0.1-0.8-0.4-1.6-0.5-2.3c-0.5-4.8-0.3-5.3,3.4-8.6c0.8-0.7,1.5-2,2.7-1.5S138.7,152.9,138.4,154.8z"/>
	<path class="st28" d="M20.7,64.4c0.3,2.8,0.6,5.5,0.9,8.6H31c1.1,0.1,2.2,0,3.2-0.4c0.6-0.3,0.6-1.5,1-2.3s0.6-0.7,0.9-1.1
		s2.9-0.1,3.3,1.2s2.6,2.7,4.4,3.6c-0.9,1.7-1.8,2.4-2.7,1.7s-4.6-0.8-7.1-0.3s-7.4,1.8-11.2,0.6s-4.3-1.9-4.8-4.2s-0.8-5.2,1.9-6.9
		L20.7,64.4z"/>
	<path class="st24" d="M106.8,203.5l0.3-27.8c0-6-0.2-12.1-0.3-18.2c2,0.8,3.2,2.7,3,4.8c0.2,3.9,1.3,7.7,1,11.7
		c0.2,1.2,0.5,2.4,0.9,3.6c-2.9,0.5-3.9,2.3-3.8,5v17.5C107.9,201.3,108.1,202.7,106.8,203.5z"/>
	<path class="st24" d="M118.2,210.2c0.5-8.6,0.9-17.2,1.4-25.8c0-0.5,0-0.9,0.1-1.4c0.1-0.3,0.4-0.6,0.6-0.6s0.6,0.2,0.7,0.4
		c1.8,5.2,3.5,10.5,5.3,15.8c-0.7-0.2-1.4-0.5-2.1-0.8c-1.8-1.2-1.8-1.2-2,1.2c0,0.9-0.5,1.8-1.3,2.3c-1.1,0.6-1.7,1.9-1.5,3.2
		c0.1,1.3,0,2.5-0.1,3.8C119.1,209,118.7,209.7,118.2,210.2z"/>
	<path class="st24" d="M114.6,174.7c0,1.6,0,3.2-0.1,4.8c-0.7,8.4-1.5,16.8-2.3,25.2c0,0.9-0.2,1.9-0.2,2.8c0.1,3,0.9,3.7,4.4,4.5
		c-0.3,0.3-0.6,0.9-0.9,0.9c-2.8,0.1-4.6-1.5-4.7-4.1s0-5.4-0.1-8.1s0.6-5.3,0.1-8c-0.3-0.7-0.2-1.6,0.1-2.3
		c1.3-1.6,1.1-3.2,0.4-4.9c-0.4-1-0.5-2.2-0.1-3.2c0.3-1.5,0.5-3.1,0.5-4.7c0.9,0.1,1.7-0.5,1.9-1.4
		C113.9,175.7,114.2,175.2,114.6,174.7z"/>
	<path class="st24" d="M30.1,207.4c0.3,2.4-0.3,4.5-2.9,5.2c-0.7,0.2-1.5,0.3-2.3,0.3c-0.9-0.2-1.9-0.4-2.8-0.7
		c-2.6-0.5-4-2.2-3.3-4.6c0.6-2.1,0.6-4.4-0.1-6.5c-0.2-1.3-0.2-2.5-0.1-3.8c-0.1-7.8-0.1-15.6-0.1-23.4l0.2-0.2
		c2.5,0.7,2.2,2.9,2.1,4.7c-0.2,7.3,1.5,14.5,1.1,21.9c0,1.4,0.1,2.8,0.5,4.2c1.1,5.2,2.4,5.8,6.9,2.8L30.1,207.4z"/>
	<path class="st24" d="M126,175.9l-2.8-8.1c-1-3.2-2-6.4-4-9.1l-0.9-1.2c-0.8-1-1.7-1-2.8,0.1c-0.3,0.4-0.6,0.8-0.8,1.2
		c0-4.5,0.6-4.8,4.6-3.4c1.4,0.3,2.5,1.5,2.7,2.9c0.4,2.4,1.4,4.6,3,6.4c0.7,0.8,1,1.9,1,3C126.2,170.4,126,173.1,126,175.9z"/>
	<path class="st24" d="M202.9,61.7c2.8,1.2,3.1,1.9,1.6,4.2c-1.5,2.3-2.1,4-4.6,4.5l-0.4,0.2c-1.7,4-5,2.1-7.9,2.6
		c-0.1-4.2-1.7-7.9,1.1-11.6l2.3,0.3c0.1,0.1,0.1,0.2,0.2,0.2c-0.1,0.5-0.2,1-0.4,1.4c-0.7,1.8-2.4,4.1,0.7,5
		c2.4,0.8,4.9-0.5,5.7-2.9c0,0,0,0,0,0c0.5-1.2,0.2-2.7,1.1-3.8L202.9,61.7z"/>
	<path class="st24" d="M106.8,157.5c-0.7-0.3-1.3-0.9-2-1c-1.5-0.5-3,0.4-3.5,1.9c0,0.1-0.1,0.3-0.1,0.4c-0.1,0.7-0.1,1.5-0.2,2.3
		c-0.3,6.6-0.6,13.3-1,19.9c-0.1,1.5-0.4,3.1-0.7,4.6c0-8.3-0.1-16.6,0-24.9c0.2-1.8,0.5-3.5,0.9-5.2l0,0c1.9-0.2,3.6-1.4,5.5-0.8
		c0.6,0.2,1.1,0.5,1.5,1C107.4,156.2,107,156.9,106.8,157.5z"/>
	<path class="st24" d="M64.7,146.8c0-0.4,0.1-0.7,0.2-1.1c0.3-1.8,2.1-3,3.9-2.6c0.1,0,0.3,0.1,0.4,0.1c1.9,0.4,3.2,2.3,2.9,4.2
		c-0.4,3.3-1.4,3.9-4.7,2.8c-0.3-0.1-0.5-0.3-0.8-0.3S64.6,148.9,64.7,146.8z"/>
	<path class="st24" d="M100.7,143.5c0.4,0,1-0.1,1.3,0.1s2.9-1,3.5,0.3s0.9,3.6,1.2,5.4c-0.1,0.6-0.6,1.1-1.2,1.2
		c-1.4,0.2-2.8,0.2-4.2,0.1c-1.3-0.2-2.2-1.5-1.9-2.8c0,0,0-0.1,0-0.1C99.8,146.4,100.2,145,100.7,143.5z"/>
	<path class="st24" d="M34.1,188.3c-0.1,4.2-0.2,8.5-0.1,12.7c0,1.7-0.1,3-2,3.8s-1.3,1.7-1.9,2.6H30c-2.3-5.7,1.1-10.7,1.6-16.1
		c0.1-1.3,0.3-2.9,2.3-3.1L34.1,188.3z"/>
	<path class="st24" d="M160.6,195.3c-0.2-0.9-0.4-1.8-0.6-2.7c-0.2-4.2-1.2-8.4-3.2-12.1c-0.9-1.6-1.1-3,1.3-3.3l0.6,0.4
		c-0.5,1.1-0.7,2.3,0.3,3.1s1.7,3.2,1.7,5.1S160.6,192.1,160.6,195.3z"/>
	<path class="st24" d="M99.3,203.3l0.9,3.1c0.1,0.8,0.3,1.5,0.6,2.3c0.5,0.8,1.3,1.6,2.3,1.3c0.7-0.2,1.4-0.7,1.8-1.3
		c0.5-1.1,0.9-2.3,1.2-3.5c0.2-0.6,0.5-1.2,0.8-1.7c0.1,1.1,0.1,2.2-0.1,3.3c-0.4,1.4-1,2.6-1.9,3.7c-0.8,1.1-2.2,1.5-3.4,0.9
		c-1.2-0.6-2.2-1.4-2.2-2.9S99.3,205,99.3,203.3z"/>
	<path class="st24" d="M194.9,61.6c0-1,0.1-1.9,0.1-2.8c2.4-0.8,5.1-0.8,7.5,0c0.1,0.9,0.1,1.9,0.1,2.8l-0.2,0.2
		c-2.4,0.1-4.9,0.8-7.3,0L194.9,61.6z"/>
	<path class="st24" d="M158.6,175.5c0.7-3.6,1.3-7.1,2-10.7c0,3.5,0,7.1,0.1,10.6c0.2,1-0.5,2-1.6,2.2c-0.1,0-0.3,0-0.4,0l0,0
		C158.2,177,158.2,176.1,158.6,175.5z"/>
	<path class="st24" d="M114.7,159c1,4.7,1,9.5,0,14.2V159z"/>
	<path class="st24" d="M68.4,92.4l1,1.9v1.9l-0.9,2l-0.6-0.5C67.1,95.8,67,94,68.4,92.4z"/>
	<path class="st24" d="M62.9,207.2c1.4,0.7,2.9,1.4,4.6,1C65.2,209.9,64.4,209.7,62.9,207.2z"/>
	<path class="st24" d="M116.3,212l2-1.9C118.1,211.8,118.1,211.8,116.3,212z"/>
	<polygon class="st24" points="192,62.6 191.6,62.3 191.8,62.2 	"/>
	<path class="st24" d="M100.2,155.5l-0.4-0.2L100.2,155.5z"/>
	<path class="st24" d="M40.7,151.7l0.2-0.4L40.7,151.7z"/>
	<path class="st29" d="M114.6,93.6c0.3-1.3,0.6-2.5,0.8-3.7c0-1,0.1-1.9,0.2-2.9c0.7-3,3-3.7,5.7-1.8l0.7,0.6l0,0
		c1,1.4,1.1,3.3,0.1,4.7l0,0c-0.4,8.6-1,17.3-1.7,26c-0.4,6.1-1.7,12.1-2,18.2c-0.2,0.1-0.3,0.4-0.2,0.7c0,0,0.1,0.1,0.1,0.1
		c-0.6,2-0.3,4.7-3.4,4.9s-3.5-2.6-4.2-4.7l0,0c-3.8-4.5-2.6-10.3-3.8-15.4l0,0c-0.2-5.7-2.1-11-3.9-16.2c-0.4-0.4-0.6-1.1-0.3-1.7
		c-0.2,0.6-0.1,1.2-0.6,1.7c0,8.4-0.1,16.9-0.2,25.3c0,2,0.2,3.9,0.2,5.8c-0.1,0.8-0.3,1.6-0.6,2.3c-0.8,1.3-2.5,1.8-3.8,1
		c-0.4-0.2-0.7-0.6-1-0.9c-0.4-0.9-0.6-1.8-0.7-2.7c-0.4-5.1-0.5-10.2-0.3-15.3c0.4-10.1,1.8-20.1,2.4-30.1c0.1-1.6,0-3.2,1.1-4.6
		l0,0c0.6-0.7,1.2-0.6,1.9-0.1s0.3,0.3,0.6,0.1c0.6,0.1,1,0.5,1.3,1h-0.1c2.9,2.9,2.9,6.9,3.8,10.6l0,0c3.5,4.5,4.2,10.1,5.9,15.4
		c0,0.7,0,1.5,0.1,2.2c0.1,0.7,0.9-0.1,0.4,0.2s0,0.2-0.3-0.4c-0.1-0.6-0.2-1.2-0.2-1.8c-0.2-6,1-11.8,2-17.7
		C114.8,94.2,114.9,93.9,114.6,93.6C114.7,93.7,114.6,93.6,114.6,93.6z"/>
	<path class="st25" d="M126.2,122.4c0.2-0.6,0.4-1.2,0.5-1.8c0.7-8.7,1.3-17.5,2-26.2c0.1-2.1,0-4.2,0-6.2s0.7-3.2,3.4-3.6
		c5.3-0.8,9.4,1.1,12.4,5.4c1.7,2.3,3.1,4.8,4.6,7.2l0,0c1.2,1.1,1.9,2.6,2.1,4.2c0.6,9.9,0.9,19.7-3.1,29.2
		c-3,7.3-8.5,11.2-16,11.2c-4.1,0-6.9-2.3-7.3-6.5c-0.4-3.8,0-7.6,1.3-11.2L126.2,122.4z"/>
	<path class="st24" d="M85.7,138.5c-1.1-0.7-1.6-2.1-1.2-3.3c0.6-2.6,0.5-5.4-0.4-7.9c-0.1-0.6-0.1-1.2,0-1.8
		c0.2-0.8,0.8-1.7-0.3-1.9c-0.8-0.1-1.6,0.2-2.1,0.8c-0.5,0.3-0.6,1.1-0.9,1.6c-1.4,2.1-2.2,4.5-4.6,5.8l-0.3-0.2
		c-1.8-6.6,2.3-11.6,9-11c1.5,0.1,2.7,0.9,2.5,2.3c-0.7,5.1,0.9,10.5-1.5,15.5L85.7,138.5z"/>
	<path class="st24" d="M122.1,90.4c0-1.5,0-3.1-0.1-4.7C123.6,87.7,123.6,88.4,122.1,90.4z"/>
	<path class="st24" d="M52.1,137.5l0.4,0.2L52.1,137.5z"/>
	<path class="st29" d="M62.1,69c-0.3-0.7-0.6-1.4-0.9-2.1c-0.8-3.4-0.7-6.5,2-9.1c0.3,0.1,0.5,0.1,0.7-0.2c0.5-0.5,1.2-0.5,1.7-0.1
		c0.1,0.1,0.1,0.2,0.2,0.3l0,0c2.2-0.1,1.9,4,4.1,2.8s1.4-3.6,1.8-5.6c0.5-3.3,0.2-6.7-1-9.8h0.1c-2.2-1.7-4.2-3.3-6.9-4.1
		c-4.3-1.2-4.1-5.2-4.7-8.6v-2.3c0.8-2.5,0.3-5,0.8-7.6s3.5-6.4,6.5-8.4s7.2-0.6,9,2.8s1.1,5.5,0.9,8.4c-0.1,1.7-1.4,3-3.1,3.1
		c-1.8,0.1-2.4-1.2-2.8-2.7s0-2.3-0.9-3.2c-3.4,3.6-3.4,7.4,0,12.1l0,0c4.9,0.9,7.7,3.8,8.7,8.6l0,0c4.9,8,2.7,20.3-4.5,25.8
		C69.8,72.2,66.2,72.1,62.1,69L62.1,69z"/>
	<path class="st24" d="M69.6,34.7c-3.5-0.9-3.7-1.1-3.8-3.8s-0.1-6.7,2-9.6c0.4-0.7,1-1.2,1.6-1.7c0.4-0.3,1.1-0.2,1.4,0.2
		c0,0.1,0.1,0.1,0.1,0.2c0.3,1.1,0.5,2.2,0.6,3.3c0.2,1.2,0.2,2.5,0.5,3.7c0.3,0.6,0.8,0.9,1.4,1c0.6-0.1,1.1-0.5,1.4-1
		c0.8-2.9,0.9-6,0.1-9c-1.2-3.7-4.7-5-8-3c-2.1,1.2-3.8,3-4.8,5.2c-0.8,2-1.6,4.2-2.1,6.3c-0.3,1.2-0.5,2.5-0.8,3.7
		c0-2.4-0.2-4.8,0-7.2s0.5-5.4,3.3-6.9c0.5-0.4,1-0.8,1.3-1.4c1.9-3.4,5.2-3.3,8.4-3c0.9,0.3,1.7,0.8,2.3,1.5
		c0.9,0.7,1.5,1.7,2.4,2.2s1.7,1.7,1.2,2.8c-0.7,1.9-0.7,4.1,0,6c0.7,2.4-0.8,4.7-3.2,5.6S70,31.6,69.6,34.7z"/>
	<path class="st24" d="M62.1,69c6.2,3.7,16-0.6,17.2-10.1c0.6-4.3,0.4-8.6-0.5-12.8c-0.2-0.9-0.4-1.9-0.5-2.8l1.3,0.6
		c1.8,0.5,2.8,2.3,2.5,4.1c-0.1,1.2-0.2,2.5-0.4,3.8c-0.1,0.6-0.1,1.2,0,1.8c0.8,4.4-0.9,8.1-3,11.7c-0.5,0.6-1,1.2-1.6,1.7
		c-0.8,0.6-1.5,1.4-2,2.2c-1.5,3.5-4.4,4.3-7.8,3.8h-0.5c-2.5,0.4-3.9-0.6-4.4-3.1L62.1,69z"/>
	<path class="st24" d="M70.7,45.1c0.5,0.7,1,1.5,1.3,2.4c0.9,3.4,1.1,7,0.8,10.5c-0.2,1.8-1,3.4-2.4,4.5c-1,0.9-2.7,1.3-3,0.7
		c-0.1-0.7-0.1-1.4,0-2.1c0.1-1.5-0.9-2.3-1.6-3.4c1.3-0.1,3.1,0.1,4-0.6s0.7-2.5,1.2-3.8c0.4-1.2,0.4-2.4,0.1-3.6
		C70.8,48.2,70.7,46.6,70.7,45.1z"/>
	<path class="st24" d="M59.2,32.4l0.7,1.8c0.5,3.1,2.6,5.6,5.5,6.7l3.4,1.6c1.1,0.5,1.8,1.4,2,2.6c-1.2,0-2.3,0.2-3-1
		s-2.2-1.9-4.1-1.3s-2.9,0.1-3.6-2.3C59.3,37.9,58.9,35.1,59.2,32.4z"/>
	<path class="st24" d="M78.3,43.3c-1.8-3.8-4.9-6.8-8.7-8.6c1.5,0,2.9-0.1,4.3,0c2.3,0.2,4.1,2,4.3,4.3
		C78.3,40.4,78.4,41.9,78.3,43.3z"/>
	<path class="st24" d="M65.8,57.8l-1.9-0.2C64.6,56.7,65.2,56.6,65.8,57.8z"/>
	<path class="st29" d="M37.6,127.8c-0.9,2-1.6,4.1-2.6,6c-3.5,7.6-7.5,9-15.1,5.1l-1.3-0.5c-3.5-3.4-4.8-7.8-4.8-12.5
		s0.4-10.5,0.6-15.7c0.1-2.1,0.3-4.1,0.4-6.2l0,0c0.8-5.5,1.2-11.1,4.4-16.1c2.3-3.5,4.7-6.3,8.9-7h0.1c2.2-1.8,4.4-1.5,6.6,0.1l0,0
		c4.2,2.3,5.5,5.2,3.9,8.6S36,93,34,90.4l0,0c-1-1-0.5-3.3-2.8-3.3s-3.4,1.2-4.4,3c-2.1,3.8-2.3,8.2-4.4,11.9
		c-0.3,0.2-0.3,0.4-0.1,0.7c-0.7,8.9-0.7,17.7,0,26.6c-0.2,0.2-0.2,0.4,0.1,0.5c-0.1,1,0.4,1.9,1.3,2.4c2.3,1.9,3.5,1.8,5-0.7
		c1.7-2.7,2.8-5.7,3.3-8.8c0.3-1.8,0.1-2.1-1.7-2.8c-0.6-0.1-1.2-0.3-1.7-0.7c-0.6-0.5-1.1-1.2-1.3-1.9c-0.2-1,0.6-1.7,1.4-2.2
		l0.5-0.2c3.4-0.5,6.9-1.1,10.3-1.4c1.3-0.1,2.5,0.8,2.8,2.1c0.1,1.2-0.4,2.3-1.4,2.9c-0.4,0.3-0.8,0.5-1.3,0.6c-1,0.2-1.7,1-1.6,2
		C37.9,123.4,37.7,125.6,37.6,127.8z"/>
	<path class="st24" d="M22.4,102c0.1-4.3,1.4-8.5,3.6-12.2c1.2-2.1,2.8-3.8,5.5-4.1s2.5,0.4,2.6,1.9c0,0.9,0,1.9-0.1,2.8l-0.4-0.2
		c-1.1-1.4-2.6-2.2-4.1-1.4s-3.1,2.2-2.9,4.4C26.8,96.9,25.6,99.9,22.4,102z"/>
	<path class="st24" d="M34,90.4l0.7,0.6c1.7,0.8,2.6,0.6,3-0.9c0.9-3.2,1-6.3-2.3-8.4c-0.3-0.2-0.4-0.5-0.6-0.7s1.7-0.1,2.2,0.3
		c1.4,1.2,2.8,2.5,4,3.9c0.3,0.4,0.5,0.8,0.5,1.3c0.2,2.8-3.2,6.1-6,5.8C34.4,92.2,34,91.4,34,90.4z"/>
	<path class="st24" d="M22.3,129.3c-0.4-1-0.7-2.1-0.9-3.2C21,119,21,112,21.6,104.9c0.2-0.8,0.4-1.5,0.7-2.2L22.3,129.3z"/>
	<path class="st24" d="M46.4,81.8L46,81.6L46.4,81.8z"/>
	<path class="st30" d="M33.9,188.1c-0.4,1.6-1,3.1-1.3,4.6c-0.9,4.8-1.8,9.7-2.6,14.6l-1.1,2.1c-0.7,1.5-2.3,2.4-3.9,2.1
		c-1.5-0.2-2.7-1.3-3.1-2.7c-0.3-0.7-0.5-1.5-0.6-2.3c-0.2-2.4-0.6-4.7-0.7-7.1c-0.4-6.5-0.6-13.1-1-19.6c-0.1-2,0.2-4.2-0.9-6.1
		c-0.6-4.1-1.2-8.1-1.7-12.2c-0.1-1.4-0.3-2.9-0.3-4.3s1.2-1.9,2-1.6c1.2,0.3,2.4,0.9,3.4,1.6c1,0.6,1.4,1.9,1,3
		c-0.5,1.2-0.6,2.5-0.2,3.7c1.5,6.5,2.9,13,4.3,19.5c0.6,0.4,0.5,1,0.4,1.6s0.1-1.2,0.5-1.7c1.9-6.7,3.9-13.4,4.8-20.4
		c0.3-1.9,0.6-3.8,1.1-5.6c0.3-0.9,0.6-1.8,1-2.7c0.5-1.2,1.9-2,3.2-1.7c1.5,0.3,2.5,1.6,2.5,3.1c-0.1,1.1-0.2,2.1-0.5,3.2
		l-6.3,27.5C33.8,187.2,33.8,187.6,33.9,188.1z"/>
	<path class="st29" d="M48.5,155.7c1.4-0.3,2.8-0.7,3.8,0.9c0.6,0.8,1.3,1.4,2.1,1.9c3.1,2.2,4.8,5.7,4.6,9.5
		c-0.1,5.3-0.5,10.6-0.8,15.8s-2.3,12.5-4.9,18.4c-0.5,1.2-1.1,2.4-1.9,3.4c-1.4,1.9-3.4,2.2-5.5,1.1c-2.7-1.6-4.6-4.2-5.2-7.2
		c-0.9-3.1-1.4-6.2-1.6-9.4c-0.3-6.4,0.4-12.8,1.9-19C42.5,165.5,45,160.3,48.5,155.7L48.5,155.7z"/>
	<path class="st31" d="M28.1,183.3c-0.1,0.6-0.3,1.1-0.4,1.6l-0.5-1.5L28.1,183.3z"/>
	<path class="st32" d="M158.6,175.5c0.1,0.7,0.1,1.4,0.1,2.1c-1.7,0.6-1.7,0.6-1.9,2.9c-1.9-1.6-3.7-3.5-6.3-4.1
		c-1-0.4-1.6-1.3-1.5-2.3c-0.4-4.9,0.6-9.8,2.7-14.3c0.8-1.5,2.2-1.6,2.9-0.1c0.7,1.2,1.1,2.6,1.2,4c0.1,3-0.2,6-0.4,9.1
		c0,0.6-0.3,1.2-0.3,1.8s-0.2,1.7,0.7,2.1c0.8,0.3,1.6,0.1,2.1-0.6L158.6,175.5z"/>
	<path class="st29" d="M40,20.3c3.3-3.8,7.8-3.9,12.3-3.8c1.7,0.1,3,1.5,3,3.2c0,1.8-1.5,3.3-3.3,3.4h-0.5c-1.8-0.1-3.8-0.5-5.5,0.7
		c0,1.7-0.2,3.4-0.1,5.2c0,4.1,0.2,8.3,0.3,12.4c0,1.2,0.3,1.8,1.6,1.9h3.3c1,0,1.9,0.7,2,1.7c0.1,1-0.4,1.9-1.3,2.3l-3.6,1.4
		c-2.3,0.8-2.5,0.8-2.3,3.3s0.6,7.3,1,11c0.1,0.8,0.8,1.3,1.6,1.2c0,0,0.1,0,0.1,0c1.9-0.4,3.8-0.6,5.7-0.8c1.3-0.2,2.6,0.6,3,1.9
		c0.5,1.4,0,3-1.3,3.9c-1.4,0.7-2.8,1.4-4.3,2c-1.8,0.6-3.7,1.1-5.6,1.4c-3.1,0.6-5.5-1-5.9-4.1c-1-6.5-1.7-13-0.8-19.5
		c0.4-3.5,0.4-7,0.5-10.5v-1.6c0.7-4.6,0.7-9.2-0.1-13.8l0,0C39.1,22.2,39.2,21,40,20.3L40,20.3z"/>
	<path class="st24" d="M39.9,23.1c0.3,0.4,0.7,0.8,0.7,1.2c0.1,4.2,0.5,8.4-0.6,12.6C40,32.3,39.9,27.7,39.9,23.1z"/>
	<path class="st24" d="M40,20.2c0,1-0.1,1.9-0.1,2.9C38.7,21.6,38.7,21.6,40,20.2z"/>
	<path class="st29" d="M35.9,68.9l-8,1.7c-3.6,0.7-6.1-1-6.1-4.6c-0.2-7.4-0.1-14.7,0.1-22.1s0.5-12.4,0.8-18.6c0-1.3,0-2.6,0.2-3.9
		c0-1.3,0.9-2.4,2.2-2.8c1.3-0.4,2,0.6,2.8,1.4l0.3,0.3l0.3,24.9c0,4.7-0.1,9.3,0,13.9c0,1.1,0.1,2.2,0.2,3.3h4.4
		c3.8,0.1,5,2.3,3.3,5.7C36.3,68.4,36.1,68.6,35.9,68.9z"/>
	<path class="st29" d="M91.5,154.6c3.2,5.6,2.4,11.4,0.8,17.1c0,0.3-0.2,0.6-0.5,0.8l-1.3,0.2c-0.3,0-0.6-0.3-0.6-0.6
		c-0.1-1.1-0.1-2.2-0.2-3.3c-0.1-2.7-0.1-5.4-0.3-8.1c0-0.7-0.4-1.2-1-1.5c-0.4-0.2-1.2,0.3-1.5,0.7c-2.5,3.4-3.8,7.5-3.9,11.7
		c-0.1,1.3,0.7,2.6,2,3c5.5,2.1,7.7,6.7,8.7,12.2c0.7,3.3,0.7,6.6,0.1,9.9c-0.8,4.1-3,7.8-6.3,10.4c-2.3,0.7-4.6,1.3-6.9,1.8
		c-4.2,0.6-8.1-2.3-8.7-6.5c-0.2-1.4,0-2.8,0.5-4.1c0.4-0.7,0.9-1.3,1.5-1.8c1.1-0.9,2.8-0.6,3.6,0.5c0.2,0.3,0.4,0.6,0.5,1
		c0.2,0.6,0.1,1.2,0.3,1.9s1.1,1.8,2.4,1.6c2.8-0.6,4.7-2,5.4-4.8c1.3-4.2,0.9-8.7-0.9-12.7c-0.6-1.3-1.6-2.3-2.9-3
		c-4.5-2.3-5.7-6.2-5.1-10.9c0.6-4.1,2-8.1,4.3-11.6c0.4-0.7,0.9-1.3,1.5-1.9C85.4,154.1,88.1,152.9,91.5,154.6z"/>
	<path class="st29" d="M85.9,138.4c0.1-5.3,0.3-10.5,0.5-15.8c0-1-0.6-1.3-1.6-1c-1.8,0.6-3.6,1.2-5.5,1.6c-0.9,0.2-1.7,1-1.9,1.9
		l-1.5,6.5c-0.6,1.6-1.1,3.2-1.8,4.8c-0.3,0.5-0.8,0.8-1.4,0.9c-0.8,0.1-1.4-0.5-1.5-1.3c0-0.1,0-0.1,0-0.2c0.1-1.7,0.3-3.4,0.5-5.1
		s0.4-3.1,0.7-4.6l0,0c1-4.9,0.4-10.2,3.7-14.5c0.2-0.2,0.3-0.4,0.1-0.6c1.5-4.9,0.7-10.3,3.9-14.7l0,0c0.9-2.5,1.9-5,2.7-7.5
		c0.8-2.1,2.1-4,3.8-5.5c2.1-2,4.7-1.4,5.6,1.4c0.5,2,0.9,4,1,6.1c0.2,1.4,0.3,2.9,0.3,4.3c-0.1,13.8-0.1,27.7-0.2,41.5
		c0,0.6,0,1.3-0.1,1.9c-0.1,1.5-1.2,2.7-2.7,3c-1.4,0.4-3-0.2-3.7-1.5L85.9,138.4z"/>
	<path class="st33" d="M102.1,104l0.4-1.6c0.2,0.5,0.3,1,0.5,1.6H102.1z"/>
	<path class="st24" d="M80.1,96.3c-0.7,5-2,10-3.9,14.7c0-2.5-0.4-5,0.5-7.5c0.2-1.1,0-2.1-0.4-3.1c-0.1-1.1,0.2-2.2,0.9-3.1
		C77.9,96.1,79,96.3,80.1,96.3z"/>
	<path class="st24" d="M76.1,111.6l-3.7,14.5c-0.2-4.2-0.3-8.3,0.9-12.3C73.7,112.5,74.8,111.6,76.1,111.6z"/>
	<path class="st24" d="M68.5,98.2c0,1.3,0,2.5-0.1,3.7c-0.1,3.1-0.2,3.3-3.7,4l-0.3-0.2c-0.4-3.5,0.7-6.1,3.9-7.7L68.5,98.2z"/>
	<path class="st25" d="M68.3,98l-3.9,7.7c-1.5,1.8-3.5,3.5-4.3,5.6s1.2,4.4,1.9,6.6c1.9,5.6,4,11.1,6.1,16.7l0.3,0.9
		c0.4,1.4-0.1,2.9-1.4,3.7c-1.3,0.7-3,0.2-3.8-1c-0.9-1.2-1.5-2.5-2.3-3.7l-5.1-18.7c-0.2-0.8-1-1.3-1.8-1.2
		c-1.5,0.1-2.4,0.7-2.6,1.7v2.3c0.1,3.5,0.3,7,0.4,10.5c0.1,1.4,0,2.9-0.1,4.3c-0.4,3.2-2.2,4.1-5.3,2.6l-0.8-0.6
		c0.1-7.1,0-14.3,0.2-21.4c0.3-9.1,1-18.1,1.5-27.2c0-0.6,0-1.3,0.1-1.9c0.1-1,0.8-1.8,1.7-2c8.5-3.1,14.3-0.1,17.8,6.4l1.4,2.5
		c-0.2,0.2-0.1,0.4,0.1,0.6C68.4,94.3,68.3,96.2,68.3,98z"/>
	<path class="st24" d="M106.7,96.4c-1.2-3.6-2.5-7.1-3.8-10.6c3.4,0.3,3.9,0.6,3.9,3.4S106.8,94,106.7,96.4z"/>
	<path class="st24" d="M101.1,84.7h-1.9C99.8,83.7,100.4,83.7,101.1,84.7z"/>
	<path class="st24" d="M103,85.8l-1.3-1L103,85.8z"/>
	<path class="st34" d="M195.1,61.8c2.4-1.4,4.9-1.8,7.3,0c0.2,0.8,0.3,1.5,0.4,2.3c0.1,3-0.8,4.3-3.6,5.3c-1.2,0.5-2.4,0.7-3.6,0.8
		c-1.7,0.2-3.2-1-3.4-2.7c-0.1-0.6,0-1.2,0.3-1.8C193.3,64.3,194.1,63,195.1,61.8z"/>
	<path class="st35" d="M69.8,148.2c-0.5,0.2-1.1,0.7-1.7,0.7c-0.9,0-1.7-0.8-1.6-1.8c0,0,0-0.1,0-0.1c0.1-0.8,0.8-1.3,1.6-1.2
		c0,0,0.1,0,0.1,0C69.3,145.9,69.9,146.8,69.8,148.2z"/>
	<path class="st36" d="M103.7,149.9c-1,0.1-1.8-0.5-2-1.5c0-0.8,0.7-1.5,1.5-1.6c1-0.2,1.9,0.4,2.2,1.3
		C105.6,148.9,104.8,149.8,103.7,149.9z"/>
	<path class="st24" d="M132.8,111.6l0.3-19.2c0-2.1,1.1-2.4,2.8-1.8c0.6,0.2,1.1,0.6,1.6,1c3.1,3,5.4,6.5,5.8,10.8
		c0.9,7.5,0.2,15.1-1.9,22.3c-0.8,2.1-1.7,4.1-2.9,6c-0.4,0.8-1.1,1.5-2,1.9c-3.4,1.3-4,1.6-4-2.3c0.1-6.2,0-12.5,0-18.7
		L132.8,111.6z"/>
	<path class="st29" d="M164.3,100.3c4,2,5.8,5.8,7.6,9.5c1,6.3,1,12.6,0,18.9c-0.4,1-0.9,2-1.3,3.1c-1.3,3.3-3.5,6.1-6.4,8.1
		c-3.5,2.7-7.3,2.3-10.3-1c-1.1-1.2-1.9-2.5-2.5-4c-0.7-1.5-0.6-3.2,0.3-4.6c0.9-1.5,2.8-2,4.2-1.1c0.4,0.2,0.7,0.5,1,0.9
		c0.5,0.7,0.7,1.5,1.2,2.1s1.8,1.5,3,0.3c1.6-1.4,2.6-3.3,3.1-5.4c1.1-4.2,1.5-8.5,0.9-12.8c-0.1-0.8-0.3-1.6-0.6-2.3
		c-0.5-2.5-2.1-4.7-4.4-5.9c-3.9-2.2-4.8-4.6-4-8.8c0.9-4.3,3-8.2,6-11.3c0.9-0.9,2-1.5,3.2-2c1.6-0.4,3.2,0.5,3.8,2
		c0.5,1.6,0.4,3.3-0.5,4.7c-0.4,0.8-1.5,1.2-2.3,0.7c-0.1,0-0.1-0.1-0.2-0.1c-0.5-0.5-1.3-0.5-1.8,0c-0.2,0.2-0.3,0.4-0.4,0.6
		c-0.8,1.7-1.5,3.5-2.1,5.3c-0.2,0.8,0,1.6,0.4,2.3C162.6,100,163.6,100,164.3,100.3z"/>
	<path class="st37" d="M47.7,198.5c-4.1-8.5-3.1-25.6,2.1-35.6c1.6,0.6,2.8,1.9,3.2,3.6c0.1,0.3,0.2,0.7,0.2,1
		c-0.2,10.2-0.2,20.4-4.7,29.9C48.4,197.7,48.1,197.9,47.7,198.5z"/>
	<path class="st38" d="M86.7,97.2c0,5.7,0.1,11.4,0.1,17.1c0,2.2-0.3,2.4-2.5,2.8l-4,0.7c-0.2-0.3-0.3-0.7-0.4-1
		c2-6.5,3.9-13,5.9-19.6C86.1,96.8,86.4,96.8,86.7,97.2z"/>
	<path class="st39" d="M86.7,97.2h-0.9c0.1-0.5,0.3-1,0.5-1.5L86.7,97.2z"/>
	<path class="st40" d="M51.3,98.8v-9.1c0-2.1,0.8-2.9,2.9-2.8c4.1,0.1,7.6,3.1,8.2,7.2c0.2,1.3-0.1,2.6-0.7,3.7
		c-1.9,2.9-3.9,5.8-6,8.6c-0.9,1.2-2.4,2-3.6,3c-1.6-1.4-0.5-3.3-0.7-4.9c-0.1-1.9-0.1-3.8,0-5.7L51.3,98.8z"/>
	<path class="st28" d="M208.7,114.2c-1.4,0-2.8,0.7-3.7,1.8c-1.2,2.1-3,2.1-4.9,2c-0.4-0.3-0.6-0.7-0.8-1.1
		c-0.3-1.4-0.4-2.8-0.1-4.2c0.1-0.4,0.3-0.9,0.5-1.3c0.9-2.1,2.5-4,3.4-6.2c0.7-1.8,2.3-3.1,4.2-3.5c3.7-1,6.4-3.1,6.7-7.1
		c0.2-2.5-4-5.6-7.8-6.2c-0.6-0.1-1.2-0.3-1.8-0.6l-0.5-0.5c0-0.8,0.5-1.6,1.3-1.8c2.3-0.8,4.7-0.2,7,0c0.7,0,5.9,5.1,5.9,5.8
		c0.1,2.5,0.1,5-0.1,7.5c0,0.7-0.9,1.3-1.4,1.8s-2.2,1.5-2.8,2.6c-0.8,1.6-2.4,2.5-4.2,2.4c-1.3,0-1.9,1-2.4,2
		C206,110.2,207.2,112.2,208.7,114.2z"/>
	<path class="st28" d="M192.4,98.8c0-1.8,1-3.4,2.5-4.3c2.4-1.4,3.9-3.6,5.8-5.5s1.8-1.7,3.2-1.7c2.8,2.8,0.1,4.2-1.5,5.7
		c-5.7,4.6-9,11.6-8.9,18.9c-0.1,0.7-0.2,1.4-0.5,2c-0.3,0.7-0.9,1.1-1.6,1.2c-1.4-0.7-2.4-1.8-1.5-3.4c0.8-1.7,1.1-3.7,0.6-5.5
		c-0.1-1.6-0.1-3.2,0-4.8C190.5,100.2,191.3,99.2,192.4,98.8z"/>
	<path class="st24" d="M189.2,151.4c-0.5-5.2,2.8-8.8,5.2-12.7c3.5-1.9,6.4-5.1,11-4.6c1.9,0.1,3.8,0.1,5.7,0c1.3-0.1,2.6,0.2,3.6,1
		c1,0.9,1.6,2.3,1.6,3.7l-0.2,0.2c-3.3-0.5-6.1-2.5-9.9-2.1c-6.2,0.6-9.8,3.8-12.7,8.7c-1.2,2-1.4,4.6-3.6,6L189.2,151.4z"/>
	<path class="st28" d="M217.3,109.4c-0.8,0.9-1.8,1.7-1.9,3.1s-1.6,1.6-2.9,1.6c0.3-1,0.3-2.3,0.9-3c1.8-1.9,2.9-4.2,3.2-6.8
		c0.2-0.8,0.6-1.5,1.1-2.1"/>
	<path class="st24" d="M196.1,178.8c1.8,0.3,3.4,1.1,4.6,2.4c0.9,1.1,2.3,1.6,3.7,1.3l0.3,0.3c0.8,2.3-0.5,3.8-2.2,4.6
		s-2.9-0.9-3.9-2s-3.4-3.4-3.1-6.2L196.1,178.8z"/>
	<path class="st24" d="M189.2,164.9c-2.8-1.3-3-1.4-2.4-3.6c0.5-1.4,0.5-2.8,0.2-4.2c-0.6-2.2,0.3-4.5,2.2-5.7h0.2
		c1.9,4.2,0,8.6,0.4,12.9L189.2,164.9z"/>
	<path class="st24" d="M192.1,168.7c-2.2-0.3-2.4-2.1-2.9-3.8l0.3-0.2c2.3,0.1,2.9,1.7,2.9,3.7L192.1,168.7z"/>
	<path class="st24" d="M191.4,115.1l1-0.9c1.3,1.3,1.4,3.3,0.1,4.7c0,0,0,0,0,0l-0.2,0.2c-0.4,0.3-0.6,0.2-0.9-0.1L191.4,115.1z"/>
	<path class="st24" d="M204.6,175.9l1.1-0.5c0.3,0.3,0.5,0.6,0.6,1c0.1,0.1-0.3,0.4-0.3,0.4L204.6,175.9z"/>
	<path class="st28" d="M191.4,119h0.9v1.8C191.8,120.4,190.2,120.3,191.4,119z"/>
	<path class="st24" d="M195,177.8l0.9,0.9l-0.3,0.4c-0.4-0.2-0.8-0.5-0.9-1L195,177.8z"/>
	<path class="st41" d="M194.6,178l0.7,0.7c1.9,2.6,3.7,5.2,5.6,7.7c0.3,0.5,0.9,0.6,1.4,0.3c0.1-0.1,0.2-0.1,0.2-0.2
		c0.8-1.2,1.5-2.5,2.2-3.7l3.6-4.4c0.5-0.6,1-1.2,1.6-1.7c0.8-0.7,2.1-0.6,2.8,0.2c0.1,0.1,0.1,0.2,0.2,0.3c0.5,0.9,0.8,2,0.9,3.1
		c0.2,7.8,0.2,15.7,0.2,23.5c0.1,0.8-0.1,1.6-0.5,2.3c-0.4,0.9-1.3,1.5-2.3,1.3c-0.9-0.2-1.7-0.7-2.2-1.4c-0.4-1-0.7-2.2-0.6-3.3
		c-0.1-4.3,0-8.6,0-12.9v-2.7c-1.8,0.8-2.2,2.3-3,3.3c-2,2.6-3.2,2.8-6,1c-0.5-0.3-1-0.7-1.5-1.2c-2.2-0.3-1.5,1-1.2,2.1
		c0,2.9,0.1,5.7,0.2,8.6c0.1,0.8,0.1,1.5,0,2.3c-0.2,1.3-1.2,2.4-2.5,2.6c-1.3,0.2-2.6-0.4-3.2-1.6c-0.5-1.3-0.9-2.8-0.9-4.2
		c-0.1-6.6-0.1-13.3-0.1-20c0-0.3,0-0.6,0.1-0.9c0.2-1.6,1.5-2.3,3.1-1.7L194.6,178z"/>
	<path class="st42" d="M192.4,168.4c-1-1.2-2-2.4-2.9-3.7c-1.2-3.5-1.3-7.3-0.3-10.9c0.1-0.8,0.2-1.5,0.2-2.3l2-4.8
		c1.3-2.9,3.2-5.5,5.5-7.7c2-1.8,4.3-3.1,7.2-2.9c1.3,0.1,2.6-0.1,3.8-0.4c2.6-0.8,5.5,0.1,7.2,2.3l1,1c2.1,6.5,1.6,12.9-0.1,19.3
		c-0.7,2.8-2.1,5.4-4,7.5c-4.4,5.2-11.9,6.6-17.9,3.4L192.4,168.4z"/>
	<path class="st42" d="M192.5,118.9c-0.1-1.6-0.1-3.1-0.1-4.7c0-0.5,0-1,0.1-1.5c0.7-8.6,5.1-16.5,11.9-21.7
		c2.8-2.2,5.3-2.5,7.9,0.3s2.2,5.5-0.4,8s-3.8,2.1-4.8-1.1c0-0.6,0.5-1.1,0.4-1.7c-0.1,0.4-0.3,0.9-0.5,1.3c-2.8,4.5-5.2,9.4-7,14.4
		l0,0c-0.7,1.7-0.7,3.7,0,5.4l-0.2,0.3l0.3,0.2c1.2,2.3,2.7,2.9,4.3,1.8c0.8-0.7,1.6-1.5,2.3-2.3c0.6-0.7,1.3-1.4,2.1-2
		c1.2-0.9,2.8-0.8,4,0.1c1,0.8,1.4,2.1,1.1,3.4c-1.2,5.1-7,9.3-12.1,8.8c-3.6-0.3-6.7-2.5-8.1-5.8
		C193.2,121,192.9,119.9,192.5,118.9z"/>
	<path class="st24" d="M207.9,96.9c-0.1,0.3-0.1,0.6-0.2,0.9c-0.1,0.8,0.3,1.6,1,2c0.9,0.4,1.9,0.2,2.6-0.5c1.4-1.6,2-3.7,1.6-5.8
		c-0.4-2.2-2.6-3.7-4.8-3.2c-0.3,0.1-0.5,0.1-0.8,0.2c-1.5,0.6-2.8,1.4-4,2.5c-4.3,3.7-7.4,8.5-9,13.9l-1.8,5.8
		c0.1-2.7,0.2-5.5,0.4-8.3c0.1-0.6,0.4-1.2,0.9-1.6c2.2-1.6,2.4-4,2.9-6.2c0.2-0.6,0.5-1.4,0.8-1.5c3.1-0.3,3.8-3.5,6.2-4.8
		s0.8-1.9,0.2-3h2.9c2.1-0.1,4.1,0,5.1,2.4c0.3,0.6,0.8,1,1.4,1.3c1.3,0.6,2.2,1.9,2.1,3.4c0.1,1.8,0,3.4-1.8,4.5
		c-0.5,0.4-1,0.8-1.3,1.4c-0.9,1.5-2.5,2.4-4.3,2.4c-1.9-0.2-3.5,1.1-3.9,2.9c-0.6,2.7-2.5,4.6-4.1,6.6c0.4-5.7,2.8-11.1,6.8-15.2
		C207.1,96.5,207.5,96.5,207.9,96.9z"/>
	<path class="st24" d="M200,117.5c-0.9-1.7-0.9-3.7,0-5.4V117.5z"/>
	<path class="st24" d="M194.2,99.8c-0.6,0.3-1,0.5-1.1,0.4c-0.3-0.3-0.5-0.6-0.6-1l0.3-0.3L194.2,99.8z"/>
	<path class="st28" d="M224.2,192.5c1.2,0.4,2.1,1.5,2.2,2.8c0.2,1.8-0.5,3.5-1.8,4.7c-0.7,0.5-1.6,0.4-2.1-0.3l0,0
		c-1.3-1.7-0.9-5.4,0.8-7C223.5,192.5,223.9,192.6,224.2,192.5z"/>
	<path class="st43" d="M210.1,148.8c-0.5,2.6-0.8,5.1-1.5,7.5c-0.5,1.5-1.4,2.9-2.5,4.1c-1,1-2.2,1.8-3.5,2.2
		c-3.6,1.1-6.5-1.1-6.4-4.8c0.2-5.2,1.6-10.1,5.1-14.1c1.5-1.7,5.1-2.5,7-1.5c0.5,0.3,0.9,0.8,1.1,1.4
		C209.7,145.3,210,147.1,210.1,148.8z"/>
	<path class="st44" d="M207.9,96.9h-1.1c0.2-0.4,0.3-0.9,0.7-1.1s0.7,0,1,0.1L207.9,96.9z"/>
</g>
</svg>
