<svg xmlns="http://www.w3.org/2000/svg" width="708" height="328" viewBox="0 0 708 328">
  <title>faitmapage</title>
  <g id="Layer_14" data-name="Layer 14">
    <path d="M449,320.6h1.1c.4-1.2.8-2.4,1.3-3.7-3.5.4-7,.6-10.4,1.7a20.9,20.9,0,0,1-2.5.1,26.9,26.9,0,0,1-11.1,2.6,87,87,0,0,1-13.5-.3,3.2,3.2,0,0,1-1.2-1.4,2.9,2.9,0,0,0-2.1-1.8c-.7.4-1.6.7-2,1.3s-2.4,1.4-3.9,1.2a3.1,3.1,0,0,1-3.1.3h-1.9c-1.3,1-2.6.7-4,.3h-1.8l-7.4,1c-3-4.7-1.2-10.1-2.2-15,2.1-1.7,3.3-4,6.1-4l6.8-4.6c0-.8-.1-1.6-.1-2.5l-2.7,1c-2,2.2-4.9,2.3-7.6,2.8s-3-.7-2.9-2.8c.3-4.7.5-9.4,1-14.1a55.5,55.5,0,0,0,0-14.1c-.4-2.6,0-5.2-1.2-7.6s-1.8-2-3.4-1.3-6,1.2-9.1,1a83.2,83.2,0,0,0-13.2.4c-9.8,1-19.5,3.1-29.3,3.1-4.6,0-9.2-.3-13.8-.5l-13.7-.4c-1.2,0-2.3.2-3.4.1-8.4-.8-16.7.4-25,1.1-3.1.2-6.3,0-9.4,0a44.2,44.2,0,0,0-6.3,0,184.9,184.9,0,0,1-34.9-.1c-3.1-.3-6.2-.7-9.3-.9s-4.5-.3-6.8-.3l-15.3.2a19.4,19.4,0,0,0-3.4.2,61.4,61.4,0,0,1-17.1.7l-24-1.8-4.7-.6-6.1,1.1a141.1,141.1,0,0,1-29.7,3.6c-3.4-.1-6.9.4-10.3.5-6.5.3-13.1.4-19.6.6h-2a162.1,162.1,0,0,1-34.8-1,45.7,45.7,0,0,0-7.4,0l.3,4h1a12.7,12.7,0,0,1,8.8.8l2.9.3c2.4-.7,4.7-.2,7,.2h5.9a4.3,4.3,0,0,1,4-.1h3.9a8.5,8.5,0,0,1,5-.2h6.8a5.5,5.5,0,0,1,4-.1h3a2.7,2.7,0,0,1,3-.1l10.8-.7c2-.9,4-.6,6-.2h2a3,3,0,0,1,3-.2l3.9-.2,1.9-.5c5.5-.9,10.9-2.1,16.5-2.7a141.4,141.4,0,0,1,14.6-.6c4,0,7.9.3,11.8.6,12.3,1,24.5.5,36.8-.1,7.2-.4,14.4-.7,21.5.4,3.2.5,6.5.7,9.8,1.1h2a2.3,2.3,0,0,1,2.9.3c8.3.7,16.5,0,24.8-.5,2.5-.2,5.1.1,7.7.1h8.6a5.8,5.8,0,0,1,1.7.6l1.7-.6c5-.5,10.1-1,15.1-1.3,2.8-.1,5.6.2,8.3,0,7.1-.5,14.1.2,21.1.9l1.3.6,1.6-.5h3l5.4-.5,18.1-1.4c3.6-.1,7.2-.1,10.8.1s8.8.5,13.1-.8a6.9,6.9,0,0,1,2.5-.1c4,.1,4.8.7,5.5,4.6a30.1,30.1,0,0,1,.7,7.3c-.2,5.9-.7,11.8-1,17.7-.1,2.4-.2,4.9-.1,7.4a102.1,102.1,0,0,1,.3,16.6c-.3,2.9.8,5.5,1.3,8.5,1,0,2.1.3,2.8-.1,4.8-2.7,10.1-2.4,15.3-2.8a2.6,2.6,0,0,1,2.6,1.1,2.9,2.9,0,0,0,2.6,1.1l1.7-1.2,1.9-1.2,1.1-.2,9.5.5,6.2.4a3.5,3.5,0,0,1,1.3-.5c6.3-.3,12.3-2.1,18.3-3.7Z" style="fill: #4a435b"/>
    <path d="M188,62.3a14.8,14.8,0,0,1,1,2.7c.4,4,.8,8.1.9,12.2.2,8.3.2,16.7.5,25,.5,10.3,1.2,20.6,1.9,30.9a62.4,62.4,0,0,0,2,12.1c2,7.7,6.5,13.5,12.4,18.5a17.7,17.7,0,0,0,9.7,4.2,27.3,27.3,0,0,0,16.6-3.3,43.5,43.5,0,0,0,18.2-18.8,50.1,50.1,0,0,0,4.6-34.8,128.4,128.4,0,0,0-4.9-16,56.1,56.1,0,0,1-2.1-31.4c.9-4.7,3.4-8.9,5.4-13.1C260,38.2,270,30.2,281.9,24.4s22.7.9,26.5,10.4a85.6,85.6,0,0,1,4.9,18c1.1,6.3,1.9,12.6,2.7,18.9,1.3,10.2,3.6,20,8.7,29,1.8,3.1,3.5,6.3,5.2,9.5a27.7,27.7,0,0,0,6.8,7.7,10.1,10.1,0,0,0,2,1.4c5.3,3,8.9,2.1,10.7-4.1,2.6-8.4,3-17.1,3.1-25.8,0-5.4.1-10.8.1-16.2,0-10,.1-19.9-.9-29.9a46.3,46.3,0,0,1,1.6-17,23.5,23.5,0,0,1,5.2-9.4A49.4,49.4,0,0,1,388.3.1a14.2,14.2,0,0,1,2.9-.2,12.1,12.1,0,0,1,11,5.1,25.8,25.8,0,0,1,5.6,13.9c.6,8,1.1,16,1.8,24,.3,4.4.8,8.8,1.3,13.2a243.8,243.8,0,0,1,2.5,36.2c0,2.3-.3,4.6-.5,6.9a42.2,42.2,0,0,0,1.1,11.7c2.2,9.4,11.5,12,17.4,10.4a18.7,18.7,0,0,0,7-3.2c3.9-3.2,8-6.2,11.5-9.9a115.3,115.3,0,0,0,10.7-14.5c7.1-10.9,11.9-23,17.6-34.6,3.4-6.9,7.1-13.6,10.8-20.4.4-.6,1.1-1.1,1.6-1.7l2.3.2L490.4,42c-1.5,2.5-3.1,5-4.4,7.6-3.7,7.3-7.3,14.7-10.9,22.1-1.5,3.2-3,6.5-4.6,9.7a162.5,162.5,0,0,1-14.8,24.3,67.8,67.8,0,0,1-14,13.8,30,30,0,0,1-7.3,3.9c-7.7,3.1-15.5.9-20.2-5.4a17.6,17.6,0,0,1-3-7.2,57,57,0,0,1-.7-13.7,187.8,187.8,0,0,0-.5-26c-.3-4.3-1.1-8.5-1.4-12.7-1-10.6-1.7-21.2-2.6-31.8a75.3,75.3,0,0,0-.8-8.3,22.1,22.1,0,0,0-5.3-12,9.1,9.1,0,0,0-7.3-3.4,37.5,37.5,0,0,0-8.2,1,47.7,47.7,0,0,0-19.8,10.6,30.2,30.2,0,0,0-9,14.9,41.7,41.7,0,0,0-1.2,14.1c.2,4.1.5,8.2.6,12.3s0,11.1,0,16.7.2,11.8,0,17.6-.5,12.2-1.3,18.2a48.3,48.3,0,0,1-2.7,10.4c-1.9,5.1-6,6.7-11.1,4.7a11.1,11.1,0,0,1-3-1.7,30.4,30.4,0,0,1-9.2-10l-5.3-10a60.4,60.4,0,0,1-6.7-17.4c-.9-4.5-1.7-9-2.2-13.5-1.1-8-2.2-16-4-23.8a52.5,52.5,0,0,0-3.8-11.6c-4.7-9.5-15.2-11.9-22.4-8.5a61.6,61.6,0,0,0-15.7,10c-8.2,7.4-12.4,17.1-16,27.2A16.7,16.7,0,0,0,251,68c-.3,2.8-.6,5.5-.7,8.3a31.7,31.7,0,0,0,.9,9.7c1.2,5.7,3.5,10.9,5.1,16.4,2.5,8.1,3.9,16.2,3,24.7-1.7,17-9.6,30.1-23.9,39.2a29.2,29.2,0,0,1-20.2,4.4,18.9,18.9,0,0,1-10.2-4.5c-6.9-5.9-11.9-13-13.8-22.1a70.5,70.5,0,0,1-1.7-12.1c-.1-3.3-.4-6.5-.5-9.8-.5-8-1-16-1.3-24s-.1-16.1-.3-24.1c-.2-3.9-.8-7.8-1.2-11.7Z" style="fill: #706578"/>
    <path d="M127.2,102.8l-2.3-3.1c.1-2.1-1.6-3.1-2.9-4.4l-.9-1.8-.7-1.5-1.6-1.8c-.1-1.3-.4-2.6-1.9-3.2h.1c-.4-1.1-.7-2.1-1-3.2-3.2-9.4-2.3-18.1,4.4-25.9,1.9-2.2,4-4.2,6-6.3l.9-.7c2.1-.8,4.1-1.7,5.3-3.6l3.1-1.3c4.2-1.3,7.9-3.7,12.3-4.6s9.8-2.4,15-2.4c8.7.1,15,4.3,19.5,11.3,1.9,2.9,4.1,5.9,4.6,9.6a1,1,0,0,0-.5.4l-1.5-.2c-2.2-3.6-4-7.3-6.8-10.6S169.9,42,163.8,42a59.5,59.5,0,0,0-7.3.4,52.6,52.6,0,0,0-18.1,5.8c-5.3,2.7-10.5,5.9-14.4,10.6-6.9,4.9-9.2,18.8-3.9,26.8.8,1.2,1.4,2.5,2.2,3.7,2.6,3.8,5.3,7.5,7.9,11.2.9,1.3,1.7,2.7,2.6,4.1,2.3,3.5,4.8,6.9,6.8,10.6s1.9,9.1-.8,13.5l-2.2,3.7-.6.9-1,1.1-5.6,4.9-10.5,6-1.9.6c-6.9,1.8-13.9,1.6-20.9.8s-13-.8-19.5-1a56.7,56.7,0,0,0-8.2.7l-1.8.2H63.9l-2.2.3L56.6,148l-2,.5-2.8.4c.4-.9.7-1.9,1-2.8s.3-.2.5-.1a3.1,3.1,0,0,0,3.5-.9c11.3-2.7,22.7-2.9,34.1-1.8l7.8.8c7.2.9,14.3.7,21-2.6a48,48,0,0,0,13.7-10.2l1.8-2.5a10.8,10.8,0,0,0,2.9-7c.6-2.3-.7-4.2-1.7-6.2s-2.1-3.9-4-5.4-.9-1.3-1.4-2a3.4,3.4,0,0,0-2-3.2l-.8-.9A11.3,11.3,0,0,1,127.2,102.8Z" style="fill: #5d536c"/>
    <path d="M526.8,39.5c1.5,3.8,1,7.8.2,11.6a135.2,135.2,0,0,1-6.1,20.6q-9.4,24.6-19.3,48.9c-4.7,11.7-8.7,23.6-13.2,35.4a205.7,205.7,0,0,0-7.8,26.8c-.3,1.2-.5,2.5-.7,3.8-1.4,7.4-2.7,14.8-4.1,22.2-2.2,12.3-5.1,24.4-6.6,36.7l-2-.2a16.7,16.7,0,0,1-.3-3.8c.8-5.4,1.7-10.7,2.7-16,1.6-8.2,3.4-16.3,5-24.5s2.4-16.2,4.4-24.1a135.2,135.2,0,0,1,3.9-14.2c5.1-14.1,10.4-28.2,15.8-42.3,4.7-12.2,9.5-24.3,14.3-36.5l.6-1.4a186.3,186.3,0,0,0,9.2-25.3c1.6-5.8,2.7-11.8,1.9-17.9Z" style="fill: #7d7285"/>
    <path d="M413.9,321a3.2,3.2,0,0,1-1.2-1.4,2.9,2.9,0,0,0-2.1-1.8,22.8,22.8,0,0,1,3-3.8c4.8-4,9.5-8.1,14.5-11.7s9.6-6.3,14.4-9.3a44.7,44.7,0,0,0,14.1-13.6l6.6-9.7a2.5,2.5,0,0,1,2.1,1.6c-4.2,8.1-9.4,15.6-16.7,21.3-2.5,1.9-5.3,3.3-7.9,5-4.2,2.8-8.4,5.5-12.5,8.5s-5.7,4.3-8.5,6.6a33.2,33.2,0,0,0-3.8,3.7C414.2,317.5,413,318.8,413.9,321Z" style="fill: #5d536c"/>
    <path d="M526.8,39.5l-2.1-.2a13.4,13.4,0,0,0-6.1-6.1,31.1,31.1,0,0,0-11.1-3.4,13.6,13.6,0,0,0-11.2,3.9c-1.2,1.1-2.3,2.4-3.4,3.5l-2.3-.2c.9-4.2,4.6-5.9,7.4-8.2s4.9-1.9,7.5-1.8a29.1,29.1,0,0,1,16.6,5.4C524.5,34.1,526.5,36.3,526.8,39.5Z" style="fill: #5d536c"/>
    <path d="M413.9,321c-.9-2.2.3-3.5,2-4.6.6.4,1.3,1.2,2,1.2a44.7,44.7,0,0,0,7.3.4c3.6,0,7.2-.4,10.7-.4a6.6,6.6,0,0,1,2.6,1.1,26.9,26.9,0,0,1-11.1,2.6A87,87,0,0,1,413.9,321Z" style="fill: #b0a79c"/>
    <path d="M467.2,245.3l2,.2c-.1,5.5-.3,11-.5,16.5a11.6,11.6,0,0,1-1.7,6l-2.7-.4c1.8-4.2,2-8.6,2.3-13S467,248.4,467.2,245.3Z" style="fill: #5d536c"/>
    <path d="M464.3,267.6l2.7.4a3.8,3.8,0,0,1-1.7,3.3,2.5,2.5,0,0,0-2.1-1.6A21.2,21.2,0,0,0,464.3,267.6Z" style="fill: #7d7285"/>
    <path d="M188,62.3h-1.7l.3-2a1,1,0,0,1,.5-.4Z" style="fill: #5d536c"/>
    <path d="M22,182.8l.9-2.8a51,51,0,0,1,7.7-19.4c3.7-6,8.7-10.6,15.7-12.6l6.5-1.9c-.3.9-.6,1.9-1,2.8s-3.3,1.4-4.8,2.3a56,56,0,0,0-7.2,4.1c-5.6,4.1-9.1,9.8-11.4,16.2a94,94,0,0,0-5.2,33.7c.3,11,2.5,21.4,9,30.5,3.4,4.7,7.3,8.8,13,10.8a8,8,0,0,0,4.8,1.4,9.8,9.8,0,0,0,8.7-2.2,27.3,27.3,0,0,0,4.7-4.9A73.3,73.3,0,0,0,72,224.4c4.8-12.4,10-24.5,17.9-35.3l6.1-8.3,3.6-5.1h0l2.8-1.9c8-6.9,17.5-9.9,27.9-9.9l1.6.4,1.3.6c4.9,2.2,7.8,5.8,8,11.4,0,2.1.1,4.2.1,6.3,0,6.6.4,13.1,3,19.3.8,1.9,1.9,3.8,2.7,5.7a224.8,224.8,0,0,0,12.6,23.8,19.1,19.1,0,0,0,3.1,3.8,62.9,62.9,0,0,0,12.4,9.5c11.5,6.7,24,9.5,37.2,9.6a30.7,30.7,0,0,0,6.8-.4c8.2-1.4,16.5-3,24.3-6l21.4-8.5,24.9-9.3c2.7-1,5.6-1.8,8.4-2.7,7.1-2.2,14.2-4.9,21.5-6.7s16.7-3.2,25.1-4.6c3.7-.6,7.5-.8,11.2-1.1,6.2-.4,12.4-1.2,18.6-.4.4,1.1,1.3,1.2,2.2,1.4l3.2.8-3.4.3a214.3,214.3,0,0,0-47.9,4.5c-2.5.5-5.1.9-7.6,1.6-9.6,2.9-19.1,5.9-28.6,9-13.8,4.4-27.1,10-40.4,15.5a156.7,156.7,0,0,1-25.7,8.2c-10.6,2.4-21.2,1.7-31.8-.1-5.9-2-11.8-3.9-17.4-6.7a50.5,50.5,0,0,1-22.7-20.9c-3.4-6-6.4-12.2-9.7-18.2-4.6-8.4-7.1-17.2-6.4-26.9a56.2,56.2,0,0,0-.2-5.8c-.7-7.1-4.8-10.6-11.9-10.1a10,10,0,0,0-2.4.4l-4.8,1a33.2,33.2,0,0,0-16.8,9.7,111.8,111.8,0,0,0-16.8,23.5,223,223,0,0,0-11.7,25.9c-2.9,7.4-6.5,14.3-12,20.1l-1.6,1.1c-3.6,2.9-7.7,3.4-12,2.4a48.7,48.7,0,0,1-7.2-2.8l-3.1-1.3a17.8,17.8,0,0,0-2.3-3.1c-1.9-2.2-4.4-4-5.9-6.4a49.4,49.4,0,0,1-7.3-16.4A78.7,78.7,0,0,1,20.9,193C21.4,189.7,21.6,186.2,22,182.8Z" style="fill: #706578"/>
    <path d="M56.8,145.1a3.1,3.1,0,0,1-3.5.9A3.8,3.8,0,0,1,56.8,145.1Z" style="fill: #706578"/>
    <path d="M127.2,102.8a11.3,11.3,0,0,0,1,1.3A11.3,11.3,0,0,1,127.2,102.8Z" style="fill: #d2cabd"/>
    <path d="M120.4,92l.7,1.5Z" style="fill: #d2cabd"/>
    <path d="M374.5,214.5c-6.2-.8-12.4,0-18.6.4-3.7.3-7.5.5-11.2,1.1-8.4,1.4-16.8,2.6-25.1,4.6s-14.4,4.5-21.5,6.7c-2.8.9-5.7,1.7-8.4,2.7l-24.9,9.3-21.4,8.5c-7.8,3-16.1,4.6-24.3,6a30.7,30.7,0,0,1-6.8.4c-13.2-.1-25.7-2.9-37.2-9.6a62.9,62.9,0,0,1-12.4-9.5,19.1,19.1,0,0,1-3.1-3.8A224.8,224.8,0,0,1,147,207.5c-.8-1.9-1.9-3.8-2.7-5.7-2.6-6.2-3-12.7-3-19.3,0-2.1-.1-4.2-.1-6.3-.2-5.6-3.1-9.2-8-11.4l-1.3-.6c.7-.4,1.5-1.1,2.1-.9a10.8,10.8,0,0,1,4.3,2.1,59.7,59.7,0,0,0,6.4,5.9,3.9,3.9,0,0,1,1.4,5.2c-.6,1.3-1.3,2.6-1.8,4a14.8,14.8,0,0,0-1.2,4.1,67.9,67.9,0,0,0,.4,7.8,2.4,2.4,0,0,0,1.9,2.1,2,2,0,0,0,2.5-.9,6.5,6.5,0,0,1,4-3.4l.3,4.8c.2,2.9.7,5.8,2.5,8.2-1.3.2-2.7.4-3.3,1.7a4.8,4.8,0,0,0-.5,2.8,32.9,32.9,0,0,0,2.9,7.2,26.4,26.4,0,0,1,2.7,4.6c1,2.1,2.3,3.9,4.8,4.5a8.8,8.8,0,0,1,4.5,2.9,7.1,7.1,0,0,0,1.8,1.2c1.9-.7,2.2-2.2,2.1-3.7s-.5-3.8-.8-5.8a18.5,18.5,0,0,1,.8-8.8,43.2,43.2,0,0,1,4.5-2.5,9,9,0,0,1,2.8-.4l-3,10.4a15,15,0,0,0,.9,10c.9,2.1,2,2.6,4.3,2.1,7.1-1.5,13.6-4.5,20-7.8a16.5,16.5,0,0,0,3.3-2.3c-.4-1.2-.6-2.3-1-3.4-1.3-3.8-2.6-7.7-4.1-11.5s-2.7-3.1-5.2-2.5a10.5,10.5,0,0,0-2.3.8l-7.4,3.8a4.1,4.1,0,0,0-1.1-3.6,4.3,4.3,0,0,1-1.2-3.6,12.1,12.1,0,0,0-.1-1.9,1.6,1.6,0,0,0-1.9-1.2l-2.1,1.2a53.2,53.2,0,0,1-7.5,4.5c-2.3,1-4.6,1.7-6.5,3.3a2.5,2.5,0,0,1-2.2.2c-.6-.3-.7-1.3-1.1-2a5,5,0,0,1,1.7-1c5.2-1.6,9.5-5,14.4-7.3a11.4,11.4,0,0,0,3.1-2.3,6,6,0,0,0,1.6-2.9,36,36,0,0,0-.6-7.3c-.6-2.9-2.7-4.4-5.7-4.3a26,26,0,0,0-3.9.5c.6-3.8,3.6-5.2,6.7-6.3.9-.4,1.6.2,2,1a5.3,5.3,0,0,1,.4,1.8c.7,2.6.8,2.6,3.8,2.7l2.4.2c-.9,3.4,2.8,3.1,3.8,5.3a6.9,6.9,0,0,1-1.3,2c-1.8,1.5-2.3,3-1.1,5.1a16,16,0,0,1,1.2,3.7l4.3,1.4c2.8,1,5.4,1.4,7.4-1.5a1,1,0,0,1,.7-.6c.8,0,1.8-.2,2.3.2a4.2,4.2,0,0,1,1.8,2.2,17.7,17.7,0,0,0,2,6,6.3,6.3,0,0,1,.2,4.3,7,7,0,0,0-.8,2.3,3.2,3.2,0,0,0,.5,2.2,2.2,2.2,0,0,0,2.2-.3c1.4-1.4,2.7-2.6,4.9-2.7s1.6-1,2.1-1.8a17.7,17.7,0,0,0,1.5-3.1,6.9,6.9,0,0,0,.4-4.7,121.3,121.3,0,0,1-1.6-12.1c-.2-1.5.7-2.8,1.6-4s1.7-1.9,2.9-3.2c-1.7-.4-3-.3-4-.9a15,15,0,0,0-6.1-1.9,3.3,3.3,0,0,1-3.3-3,5.7,5.7,0,0,0-.4-1.4,2.9,2.9,0,0,0-3.5-2,32,32,0,0,0-3.9,1c-1.4-2.3-4-4.1-4.4-6.9s-2.1-5.4-3.3-8.1-1.2-4-2.1-5.9a15.5,15.5,0,0,1-1.4-5.1c-.3-3.6-2.7-5-6.1-3.8l-2.8.7c-1.8-4.1-3.8-8.2-6.9-11.6a16.4,16.4,0,0,1-4.2-15.3c2.9.7,3.9,2.7,3.6,5.5-.1,1.1-.2,2.3-.2,3.4a4.3,4.3,0,0,0,2.5,4.4c2.1,1,4.1,2.1,6.2,3a19.8,19.8,0,0,0,4.2,1c.5.1,1.1-.4,1.9-.8a13.9,13.9,0,0,0-1.7-2.1,3.4,3.4,0,0,1-1.4-3.9c1.1-3.3.5-6.8.9-10.1s.5-4.9-.7-7.2-.3-1.9-.3-2.9a19.6,19.6,0,0,0,.1-3.4,18,18,0,0,1,.8-9.2c1.3-3.8-.6-8.4-4-10.6-1.6-1.1-3.4-.4-3.6,1.6a13.5,13.5,0,0,0-.2,4.9,6.7,6.7,0,0,1-.9,4.6,6.2,6.2,0,0,0-1.1,4.2,12.8,12.8,0,0,1-.5,3.8c-.4,1.9-1.1,3.6-.9,5.7s-1,4.8-4,5.3c.2-2.5.3-4.9.5-7.3.5-6.2-.5-12.4,1.2-18.5.6-2.1-.4-2.9-3.6-3.4-.3,1.2-.6,2.5-.8,3.8a32.5,32.5,0,0,1-4,10.9c-2.8,4.9-7.3,6.6-12.5,4.4a19.4,19.4,0,0,1-8.1-6c.2-1.9,0-3.5-2-4.5-4.4-2.3-4.9-5.9-2.8-9.9s3.6-7.3,6.5-10.2a29,29,0,0,1,8.4-6l.6,1.8c-1.3,1.1-2.4,2.5-3.8,3.1-3.1,1.3-4.2,4-5.1,6.8s-1.8,6.6-3.5,9.7c-.3.6-.1,1.4-.2,2.6l3.5-1.5a19,19,0,0,0,2.4,2.5,6.1,6.1,0,0,0,8.1.2,10,10,0,0,0,4.3-9.8c-.5-4.1-1.4-8.1-2.1-12.1.6-.7,1.4-1.1,2.1-.5s1.7,2,2.7,2.9,2.6,2.5,3.8,3.8a5.9,5.9,0,0,0,4.5,1.5,9,9,0,0,0,6.3-2.4c1.6-1.7,3-3.4,5.3-4.2.5-.2.7-1.2,1.1-2-1.7-1.5-4.5-1.4-5-4.2a8.4,8.4,0,0,1,.4-1.2c1.4-2.7,1.3-3.8-1-5.3s-4.6-3.1-6.3-5.3a5.4,5.4,0,0,0-1.2-.9c-4.4-3-9.5-3.2-14.6-3.4a4.5,4.5,0,0,0-2.3.7,10.4,10.4,0,0,1-10.2,1.3c-3.5,2.5-7,4.9-10.4,7.5-1.8,1.3-3.5,2.4-5.8,2.5l-.4-.5c3.9-4.7,9.1-7.9,14.4-10.6a52.6,52.6,0,0,1,18.1-5.8,59.5,59.5,0,0,1,7.3-.4c6.1,0,10.6,3,14.5,7.5s4.6,7,6.8,10.6a1.6,1.6,0,0,0,1.2,2.2h-.1c.4,3.9,1,7.8,1.2,11.7.2,8,0,16,.3,24.1s.8,16,1.3,24c.1,3.3.4,6.5.5,9.8a70.5,70.5,0,0,0,1.7,12.1c1.9,9.1,6.9,16.2,13.8,22.1a18.9,18.9,0,0,0,10.2,4.5,29.2,29.2,0,0,0,20.2-4.4c14.3-9.1,22.2-22.2,23.9-39.2.9-8.5-.5-16.6-3-24.7-1.6-5.5-3.9-10.7-5.1-16.4a31.7,31.7,0,0,1-.9-9.7c.1-2.8.4-5.5.7-8.3a16.7,16.7,0,0,1,.6-3.9c3.6-10.1,7.8-19.8,16-27.2a61.6,61.6,0,0,1,15.7-10c7.2-3.4,17.7-1,22.4,8.5A52.5,52.5,0,0,1,309.5,47c1.8,7.8,2.9,15.8,4,23.8.5,4.5,1.3,9,2.2,13.5a60.4,60.4,0,0,0,6.7,17.4l5.3,10a30.4,30.4,0,0,0,9.2,10,11.1,11.1,0,0,0,3,1.7c5.1,2,9.2.4,11.1-4.7a48.3,48.3,0,0,0,2.7-10.4c.8-6,1.1-12.1,1.3-18.2s0-11.7,0-17.6.1-11.2,0-16.7-.4-8.2-.6-12.3a41.7,41.7,0,0,1,1.2-14.1,30.2,30.2,0,0,1,9-14.9A47.7,47.7,0,0,1,384.4,3.9a37.5,37.5,0,0,1,8.2-1,9.1,9.1,0,0,1,7.3,3.4,22.1,22.1,0,0,1,5.3,12,75.3,75.3,0,0,1,.8,8.3c.9,10.6,1.6,21.2,2.6,31.8.3,4.2,1.1,8.4,1.4,12.7a187.8,187.8,0,0,1,.5,26,57,57,0,0,0,.7,13.7,17.6,17.6,0,0,0,3,7.2c4.7,6.3,12.5,8.5,20.2,5.4a30,30,0,0,0,7.3-3.9,67.8,67.8,0,0,0,14-13.8,162.5,162.5,0,0,0,14.8-24.3c1.6-3.2,3.1-6.5,4.6-9.7,3.6-7.4,7.2-14.8,10.9-22.1,1.3-2.6,2.9-5.1,4.4-7.6l2.5-4.8c1.1-1.1,2.2-2.4,3.4-3.5a13.6,13.6,0,0,1,11.2-3.9,31.1,31.1,0,0,1,11.1,3.4,13.4,13.4,0,0,1,6.1,6.1c.8,6.1-.3,12.1-1.9,17.9a186.3,186.3,0,0,1-9.2,25.3l-.6,1.4c-4.8,12.2-9.6,24.3-14.3,36.5-5.4,14.1-10.7,28.2-15.8,42.3a135.2,135.2,0,0,0-3.9,14.2c-2,7.9-2.9,16.1-4.4,24.1s-3.4,16.3-5,24.5c-1,5.3-1.9,10.6-2.7,16a16.7,16.7,0,0,0,.3,3.8c-.2,3.1-.5,6.2-.6,9.3s-.5,8.8-2.3,13a21.2,21.2,0,0,1-1.1,2.1l-6.6,9.7A44.7,44.7,0,0,1,442.5,293c-4.8,3-9.8,5.9-14.4,9.3s-9.7,7.7-14.5,11.7a22.8,22.8,0,0,0-3,3.8c-.7.4-1.6.7-2,1.3s-2.4,1.4-3.9,1.2-1.7-1.2-3.1.3h-1.9c-2.2-1.3-2.2-1.3-4,.3h-1.8a6.1,6.1,0,0,0-1.6-1.6c-3.4-1.8-3.4-2-1.8-5.1.4-.6,1.1-1.5.9-2.1-.5-3.1.3-6.3-1-9.2l6.8-4.6c3.3-.5,5.6-2.9,8.1-4.7l3.7.3c-1.2,1.8-2.4,3.6-3.5,5.4a14.3,14.3,0,0,0-2.2,7.5c0,2,1.2,3,3.1,2.7a9.2,9.2,0,0,0,5.2-2.6c3.5-3,6.4-6.5,7.6-11.1,4.3.5,4.4.5,6.7-2.6s2.7-4.2,4.2-6.1a24.4,24.4,0,0,0,5.4-13.5,42.1,42.1,0,0,1,1.1-5.8c.1-.7.6-1.5,2-1.1a25.4,25.4,0,0,0,.9,3.1c.5,2,1.9,3.3,3.5,4.6a2.2,2.2,0,0,0,3.1-.4c2.2-3,4.4-6.1,5.1-9.9a79.9,79.9,0,0,0,1.3-16.2,102.1,102.1,0,0,1,1-16.6,24.5,24.5,0,0,1,4.3-10.4c.5-.8,1.2-1.5,1.7-2.2-1.5-3-1.8-3.4-3.9-2.5s-4.2.6-6.3.8a54.2,54.2,0,0,1-29.1-5.4,42.2,42.2,0,0,0-6-2c-.8-.3-2.4.6-2.4,1.3a3.9,3.9,0,0,0,.8,2.2,5.4,5.4,0,0,0,2.5,1.5,12,12,0,0,1,5.6,3.8l3.2,3a45,45,0,0,1,13.3,20.9,18.3,18.3,0,0,1-.1,12,31.5,31.5,0,0,1-9.3,14.2l-1.8-1.9c.7-2.5,1.8-4.9,2.3-7.5a48.4,48.4,0,0,0-.9-20.4,25.4,25.4,0,0,0-1.7-4.6c-3.7-7.4-10.1-11.8-17.5-15a52.3,52.3,0,0,0-16.6-3.9C385.9,214.8,380.3,213.9,374.5,214.5Zm86.9-19c1.7-1.2,1.7-1.2,1.1-3a22.9,22.9,0,0,0,.2-2.5c-.3-3.1-2.9-5-5.8-3.9a17,17,0,0,0-5.1,2.8c-2.4,2-2.9,5.9-1,7.9s6.3,4,9.6.4C460.8,196.7,461,196.1,461.4,195.5Zm38.4-144a2.9,2.9,0,0,0-4.2,1.4,101.7,101.7,0,0,0-5.5,10.3c-1.6,4.1-1.5,8.4,1.3,12.1s6.1,3.8,9.1.8a30.6,30.6,0,0,0,6.8-9.5,17.1,17.1,0,0,0,1-12c-.6-2-1.6-4.4-4.6-4ZM476.5,83.1c-3.2,2.3-3.2,2.4-3.7,5.6l-.3,1.9c-.6,4.4-1.1,8.8-2.1,13.1a69.9,69.9,0,0,1-3.7,12.6,38.3,38.3,0,0,0-2.4,23.8c1.5.9,2.7.6,3.4-.8a8.4,8.4,0,0,0,.6-1.4c2.2-6.2,6.2-11.4,9.5-17a10.6,10.6,0,0,1,1.9-2.3c4.5-4.1,8.1-8.9,11.7-13.8s5.5-8.1,9.6-11.1a2.3,2.3,0,0,0,.9-1.1,4.5,4.5,0,0,0-.1-2.3,1.9,1.9,0,0,0-1.7-.6,18,18,0,0,0-2.8.9A11.7,11.7,0,0,1,483.2,85a52.2,52.2,0,0,1-2.4-5.4,5.5,5.5,0,0,0-1.6-1.8,1.9,1.9,0,0,0-3.1,1.6C476.1,80.6,476.4,81.7,476.5,83.1Zm-207.1,23c6.4-.1,12.1-1.7,16.7-6.6,1.7-1.8,3.5-3.4,4.5-5.7a19.1,19.1,0,0,1,2.4-3.2c1.3-1.6,2.7-3.2,3.9-5a10.8,10.8,0,0,0,2.6-6.2,23.9,23.9,0,0,0-4.4-14.8,2.2,2.2,0,0,0-.5-.8,2.9,2.9,0,0,0-3.2-.6,1.7,1.7,0,0,0-.8,2.5,7.6,7.6,0,0,1-.9,5.7q-2.4,4.2-4.5,8.7c-1.4,2.9-3.7,4.9-6.2,6.8a9.3,9.3,0,0,1-6.5,1.7,25.8,25.8,0,0,1-9.3-2.9c-2.3-1.2-3.8-.4-3.8,2.2a9,9,0,0,0,.7,2.7,23.5,23.5,0,0,1,1.8,4C263,99.3,266,102.8,269.4,106.1ZM373.8,83.4a14.1,14.1,0,0,0,3.6-1.1c5.3-2.7,8.9-7.3,11.2-12.5s2.7-9.1,3.7-13.7a6,6,0,0,0-.7-3.7,2.2,2.2,0,0,0-1.9-1.1c-.5-.1-1.2.6-1.4,1.1a52.7,52.7,0,0,0-1.9,5.6c-1.7,4.5-5.1,6.9-9.8,8a7.7,7.7,0,0,1-8.3-2.7l-4.7-5.7a17.9,17.9,0,0,0-2.5-2.3,2.3,2.3,0,0,0-3.7,1.7,12.8,12.8,0,0,0,.1,3.9c.7,3.1,1.4,6.3,2.4,9.4a32,32,0,0,0,2.9,6.2C365.2,80.4,368.6,82.7,373.8,83.4Zm-68.2,97.2c.2-.8.4-1.1.3-1.4a37.8,37.8,0,0,1-1.7-11.1,16.6,16.6,0,0,0-.9-3.7,1.6,1.6,0,0,0-2-1,21.8,21.8,0,0,0-2.3.9,93,93,0,0,1-11.6,3.9c-3.3.8-6,.7-8.3-2h-.8c-.4.5-1.1,1.1-1.1,1.7-.8,7,.5,13.7,2.5,20.3a3.6,3.6,0,0,0,2.6,2.7C290.2,187.8,297.3,182.9,305.6,180.6ZM285,137.3h.3V127c0-4-.5-7.8-2.9-11.1a13.1,13.1,0,0,1-.9-2.8,6.9,6.9,0,0,0-3.8-4.2c-.9-.5-2.3,0-2.4.9-.3,3.9-1.4,7.7-1,11.7a36.2,36.2,0,0,1-.6,12.7,10.6,10.6,0,0,0,.1,5.3c.6,2.2,1.3,4.4,2,6.5a5.2,5.2,0,0,0,.6,1.3c1.2,1.8,2.9,2,4.6.6a10,10,0,0,0,3.6-6.7C284.7,139.9,284.8,138.6,285,137.3Zm62,50.1a11,11,0,0,0-3.2-.6c-3,.6-6,1.3-9,2.2s-4.8,1.9-7.6,1.6a2.1,2.1,0,0,0-2.2,2.2,67.7,67.7,0,0,0,0,7.8c.2,4,1.2,8,.2,11.9,1.2,1.8,2.6,1.3,4.1.9l19.1-5.7a4.1,4.1,0,0,0,.5-.9,9.7,9.7,0,0,0-.1-2.4A58.8,58.8,0,0,1,347,187.4Zm-39.8,26.5a5.9,5.9,0,0,0-.2-1.3c-1.6-2.8-1.9-5.9-2.4-9a11.4,11.4,0,0,0-1.1-3.7c-.9-2.2-2.8-2.8-4.7-1.4a17.3,17.3,0,0,1-6.8,2.7,35.5,35.5,0,0,0-7,2.2c-1.3.4-1.7,1.3-1.4,2.7s.1.3.1.5c.8,4.9,2.9,9.8.6,14.8a1.7,1.7,0,0,0,.7,1.7,2.8,2.8,0,0,0,2.2.3c2.3-.8,4.5-2,6.8-2.8l10.5-3.9A3.8,3.8,0,0,0,307.2,213.9Zm-16.3-108a18.8,18.8,0,0,0,.5,3.3c.8,3,1.8,5.9,2.5,9,1.5,6.7,5,12.3,9.6,17.3a4.7,4.7,0,0,0,5.3,1.5,4.7,4.7,0,0,0,3.1-4.1,10.2,10.2,0,0,0-1.5-7,200.1,200.1,0,0,1-10.9-19.1c-.7-1.6-1.7-3.1-3.8-3.5Zm-67.4,84.9c2,1.6,2.1,3.7,2.3,5.9s.5,4.5.9,6.8a2.6,2.6,0,0,0,4,2c1.5-.6,2.9-1.5,4.4-2.2a43.1,43.1,0,0,1,14.4-3.7c1.4-1.7,1-3.3.3-4.8a21.9,21.9,0,0,1-2-7.6,3.3,3.3,0,0,0-2.4-3.1c-3.4,1.7-7.3,2-11.2,2.3h-.9a6.3,6.3,0,0,1-4.3,0,2.2,2.2,0,0,0-3,1ZM370.6,86.7c-2.3.5-3,1.9-3.4,3.6s-.8,4.1-1.1,6.2a130.4,130.4,0,0,1-2.7,15.4,33.1,33.1,0,0,0-1,8.3c-.1,2.8,2.9,5.3,5.1,4.4s5-2.4,5.8-5.5,1.1-4.8,1.4-7.2c1.1-7.7-.8-15.2-2.4-22.7C372.1,88.2,371.1,87.5,370.6,86.7Zm-46.9,92.6c4.3-1.6,7.9-3,11.6-4.2s7.5-2.2,11.3-3.3l1.4-.3c2.4-.8,3.1-2.1,2.7-4.5s-1.1-5.5-1.7-8.2-2.1-3.5-4.2-2.8a38.4,38.4,0,0,1-8.2,1.6c-3.7.5-7.4,1.3-11,2a3.5,3.5,0,0,0-2.9,2.4c-1.2,5-2,10-.6,15C322.3,177.9,323.2,178.6,323.7,179.3Zm-88.3,62.6a8.6,8.6,0,0,0,1.8.4l1.9-.4c6-1.8,11.5-5.5,18.1-5.6,1.9,0,3-2.9,2-4.7a13.1,13.1,0,0,1-2-5.4,21.8,21.8,0,0,0-.1-2.5,2.7,2.7,0,0,0-3.8-2.4,15.1,15.1,0,0,0-1.8.9,22.5,22.5,0,0,1-10.6,3.4c-3.9.3-6.3,2-8.2,5.5C236.1,233.9,234.5,238.1,235.4,241.9ZM363,191.2a3.6,3.6,0,0,0-.6,1.5,20.6,20.6,0,0,0,3.4,13c1.7,2.6,2.4,2.8,5.2,1.8s5.2-2.2,7.7-3.1a51.6,51.6,0,0,1,5.2-1.6c1.8-.7,2.2-1.5,1.8-3.4l-1.8-7.6a35.9,35.9,0,0,0-1.2-4.7c-.8-2.4-2.3-3-4.5-1.9C373.3,187.8,368.6,190.7,363,191.2Zm1.1-34.8c-.1,2.2,0,4.3-.2,6.4a24.5,24.5,0,0,0,.9,7.2c.4,2,1.5,2.7,3.6,2.5l1.9-.5,15.9-4.8a2.2,2.2,0,0,0,1.6-2.7,76.8,76.8,0,0,0-1.1-8.2c-1.1-5.8-2.5-6.5-8.1-4.6ZM395,113.2a21.3,21.3,0,0,0-4.7-15,92.2,92.2,0,0,0-7.4-7.9,2.9,2.9,0,0,0-3.6-.5,2.4,2.4,0,0,0-.8,3c1.1,2.8,1.2,5.7,1.6,8.6.8,5.6,2.6,10.8,6.4,15.2,1.4,1.6,3,2.5,5.1,1.9a4.6,4.6,0,0,0,3.4-4.3Zm21.7,51.5c.4-2.7.3-2.7-.1-3.8-1.1-3.1-2.2-6.2-3.2-9.3a34.2,34.2,0,0,0-4.9-9,3.2,3.2,0,0,0-1-1,2,2,0,0,0-3.2.9c-1,2.5-2,4.9-2.8,7.4s-2.1,7.9-3.1,11.8a2.3,2.3,0,0,0,1.6,2.9,4,4,0,0,0,1.5-.7,5.2,5.2,0,0,1,4.2-.6c3.2.7,6.4,1.2,9.7,1.7C415.8,165.1,416.3,164.8,416.7,164.7ZM385.3,43.3a31.3,31.3,0,0,0-1.9-11.1,8.7,8.7,0,0,0-2.9-3.9,2.6,2.6,0,0,0-1.8-.7c-3.2.4-6.6.8-8.1,4.4s-2,4.5-2.7,6.8a10.8,10.8,0,0,0,4.5,11.6C377.9,53.9,385,50.3,385.3,43.3ZM267.7,61.1c.1,1.5.1,3.4.3,5.4.5,5.1,4.2,6.2,8,5.6a8.4,8.4,0,0,0,4.7-2.3c5.2-5.8,5.9-12.2,1.2-18.7-1.7-2.3-4.1-2.6-6.5-1s-2,2-3.2,2.2-3.2,1.9-3.5,4S268.1,59.2,267.7,61.1Zm175.2,95c.6-4.8-.3-6.6-4-9a4.9,4.9,0,0,0-4.7-.7,3.8,3.8,0,0,1-2.3.4c-2.7-.2-3.9,1.5-4.9,3.4-1.7,3.5-1.7,11.7,2.3,15.7a6.5,6.5,0,0,0,8.5,1,8.4,8.4,0,0,0,3.5-4.6C441.9,160.1,442.4,157.9,442.9,156.1Zm-3,34.1a11.9,11.9,0,0,0-2.8-10.3,2.7,2.7,0,0,0-3.1-1,11.6,11.6,0,0,0-8.3,12.4c.3,3.3,2.2,5.8,5,6.5a7.5,7.5,0,0,0,7.9-3.8A28.7,28.7,0,0,0,439.9,190.2Zm-46.5,4.3a3.4,3.4,0,0,0,4,1.2,79.9,79.9,0,0,1,12.9-2.7,3.2,3.2,0,0,0,2.9-2.3l-6.4-12a9.4,9.4,0,0,0-.9-1.2,3,3,0,0,0-5.2.4,8.5,8.5,0,0,0-.9,2.2,48.4,48.4,0,0,1-5.3,12.1C394.1,192.9,393.8,193.7,393.4,194.5ZM463,164.7c0-1.5.1-2.3.1-3.1a7.8,7.8,0,0,0-.2-1.4c-.6-2-2.3-3-4.1-2.3a14.4,14.4,0,0,0-3.9,2c-3.1,2.1-3.4,7.7-.7,10.3a3.3,3.3,0,0,0,4,.7C460.6,169.2,462.9,167.4,463,164.7ZM154.4,96.3l-.5.5c0,.1.2.4.2.3l.7-.2Z" style="fill: #cfc7bd"/>
    <path d="M397.1,295.9c3.7-3.1,7.6-6.1,11.2-9.4,7.2-6.7,12.2-14.9,16-23.8a16.2,16.2,0,0,0,1.2-4.3,49.6,49.6,0,0,0-1.5-20.3,20.4,20.4,0,0,0-7.5-10.7,38.3,38.3,0,0,0-10.5-6.2l-5.5-2.1c-.8-.5-1.6-1.3-2.7-.6l-17.9-1.8-3.2-.8c-.9-.2-1.8-.3-2.2-1.4,5.8-.6,11.4.3,17.1.8a52.3,52.3,0,0,1,16.6,3.9c7.4,3.2,13.8,7.6,17.5,15a25.4,25.4,0,0,1,1.7,4.6,48.4,48.4,0,0,1,.9,20.4c-.5,2.6-1.6,5-2.3,7.5a8.8,8.8,0,0,0-1.2,1.5,87.7,87.7,0,0,1-17.9,23.6,16,16,0,0,0-1.6,1.9c-2.5,1.8-4.8,4.2-8.1,4.7C397.2,297.6,397.1,296.8,397.1,295.9Z" style="fill: #5d536c"/>
    <path d="M383.7,261.1a9.7,9.7,0,0,1,2.4.2c2.5.5,3.1,1.1,3.2,3.5.2,5.7.3,11.4.4,17,.1,2.8.1,5.5.3,8.3s.8,5.9,4.4,6.8c-2,2.2-4.9,2.3-7.6,2.8s-3-.7-2.9-2.8c.3-4.7.5-9.4,1-14.1a55.5,55.5,0,0,0,0-14.1C384.5,266.1,384.9,263.5,383.7,261.1Z" style="fill: #b0a79c"/>
    <path d="M450.1,320.6H449l-3.4.5c-6,1.6-12,3.4-18.3,3.7a3.5,3.5,0,0,0-1.3.5c.5.4,1.1,1,1.6,1a80.6,80.6,0,0,0,9.8.6c3.5,0,7.1-.3,10.7-.2C448.7,324.7,449.4,322.7,450.1,320.6Z" style="fill: #b0a79c"/>
    <path d="M390.4,303c1.3,2.9.5,6.1,1,9.2.2.6-.5,1.5-.9,2.1-1.6,3.1-1.6,3.3,1.8,5.1a6.1,6.1,0,0,1,1.6,1.6l-7.4,1c-3-4.7-1.2-10.1-2.2-15C386.4,305.3,387.6,303,390.4,303Z" style="fill: #b0a79c"/>
    <path d="M395.7,321c1.8-1.6,1.8-1.6,4-.3C398.4,321.7,397.1,321.4,395.7,321Z" style="fill: #b0a79c"/>
    <path d="M401.6,320.6c1.4-1.5,1.4-1.5,3.1-.3A3.1,3.1,0,0,1,401.6,320.6Z" style="fill: #b0a79c"/>
    <path d="M407.3,325.8a1.5,1.5,0,0,1-1.7,1.2Z" style="fill: #b0a79c"/>
    <path d="M410.3,324.4l-1.1.2Z" style="fill: #b0a79c"/>
    <path d="M275.3,268.5l-1.7.6Z" style="fill: #cfc6b9"/>
    <path d="M325.7,268.3h0Z" style="fill: #cfc6b9"/>
    <path d="M322.7,268.2l-1.6.5Z" style="fill: #cfc6b9"/>
    <path d="M151.9,190.2a6.5,6.5,0,0,0-4,3.4,2,2,0,0,1-2.5.9,2.4,2.4,0,0,1-1.9-2.1,67.9,67.9,0,0,1-.4-7.8,14.8,14.8,0,0,1,1.2-4.1c.5-1.4,1.2-2.7,1.8-4a3.9,3.9,0,0,0-1.4-5.2,59.7,59.7,0,0,1-6.4-5.9,10.8,10.8,0,0,0-4.3-2.1c-.6-.2-1.4.5-2.1.9l-1.6-.4a8.9,8.9,0,0,0-2.5-1.4,12.7,12.7,0,0,0-7.2.6c-2.5.9-4.9.4-6.4-2.1a3.7,3.7,0,0,0-2.5-2.1,7.2,7.2,0,0,0-4.3-5c.3-1.6,0-3.3,1.3-4.6l6.3-.9c1.3-.2,1.8-1.1,2-2.4l1.9-.6a1.7,1.7,0,0,0,2.4.9c2-.7,3.7-1.9,5.9-2.1s1.5-1.1,1.9-1.9a8.9,8.9,0,0,0,.3-2.9l5.6-4.9,1-1.1.6-.9c3.7.1,4,.1,5.1-3s.8-3.5,1.3-5.2,2.5-3.8,5.1-2.9,3.2,1.6,4.8,2.2a18.9,18.9,0,0,0,2.3.5v.2c-.3,1.4-.5,2.9-.8,4.3a6.7,6.7,0,0,0,1.8,5.9,16.4,16.4,0,0,1,3.9,6.1,3.5,3.5,0,0,0,3.4,2.5h1.9l4.8,5.2a14,14,0,0,0,.9,1.7c1.8,2.2,3.6,2.5,5.8.8a7.2,7.2,0,0,0,3.1-4.4l-1.5-.9v-3.9l2.8-.7c3.4-1.2,5.8.2,6.1,3.8a15.5,15.5,0,0,0,1.4,5.1c.9,1.9,1.2,4.1,2.1,5.9s2.9,5.1,3.3,8.1,3,4.6,4.4,6.9a32,32,0,0,1,3.9-1,2.9,2.9,0,0,1,3.5,2,5.7,5.7,0,0,1,.4,1.4,3.3,3.3,0,0,0,3.3,3,15,15,0,0,1,6.1,1.9c1,.6,2.3.5,4,.9-1.2,1.3-2.1,2.2-2.9,3.2s-1.8,2.5-1.6,4a121.3,121.3,0,0,0,1.6,12.1,6.9,6.9,0,0,1-.4,4.7,17.7,17.7,0,0,1-1.5,3.1c-.5.8-1.3,1.7-2.1,1.8s-3.5,1.3-4.9,2.7a2.2,2.2,0,0,1-2.2.3,3.2,3.2,0,0,1-.5-2.2,7,7,0,0,1,.8-2.3,6.3,6.3,0,0,0-.2-4.3,17.7,17.7,0,0,1-2-6,4.2,4.2,0,0,0-1.8-2.2c-.5-.4-1.5-.2-2.3-.2a1,1,0,0,0-.7.6c-2,2.9-4.6,2.5-7.4,1.5l-4.3-1.4a16,16,0,0,0-1.2-3.7c-1.2-2.1-.7-3.6,1.1-5.1a6.9,6.9,0,0,0,1.3-2c-1-2.2-4.7-1.9-3.8-5.3l-2.4-.2c-3-.1-3.1-.1-3.8-2.7a5.3,5.3,0,0,0-.4-1.8c-.4-.8-1.1-1.4-2-1-3.1,1.1-6.1,2.5-6.7,6.3a43.2,43.2,0,0,0-10.5,4.8,8.8,8.8,0,0,1-2.6,1.2C153.3,185.4,152,187.3,151.9,190.2ZM174.5,163c-.2-.8-.2-1.4-.5-1.7a3.3,3.3,0,0,0-1.4-1c-.4,0-.9.5-1.1.8a3.5,3.5,0,0,0-.5,1.3c-.2,1.1.6,2.2,1.5,1.9A8.6,8.6,0,0,0,174.5,163Z" style="fill: #cfc6b9"/>
    <path d="M50,247.9a8,8,0,0,1-4.8-1.4,4.7,4.7,0,0,0-3.1-4.6c-4.2-1.7-5.4-5.9-8.3-8.7s-2.5-3.8-3.6-5.8a2.5,2.5,0,0,1-.6-1.3,25.5,25.5,0,0,0-1.2-6.7,1.6,1.6,0,0,1,1.6-2h4.4l1.2.7c.2,1.6,1.5,2.4,2.7,3.2s2.3,1.2,3.6,1.1a5,5,0,0,0,4-2.5,12.1,12.1,0,0,0,2.4-5.3c.9-6-.6-11.7-3.5-17a4.8,4.8,0,0,0-5.3-2.7c-.4-.8-.9-1.4-1.9-1.2s-3.8,1.1-5,2.9l-3.8,5.7c-.4.5-.6,1.2-1.6.9s-.8-2.4-1.1-3.6c-1.1-4.5-1.5-9,2-12.9a5.8,5.8,0,0,0,1.3-3.1,7.9,7.9,0,0,0-.7-3.7,4.4,4.4,0,0,1,.7-5,11.2,11.2,0,0,0,2-3.3c.8-2.8,2.4-5,3.7-7.5a8.8,8.8,0,0,1,5.3-4.7c4.8-1.6,7.7-6,11.9-8.5,1-.5,1.5-1.6,2.3-2.5l2-.5c.2.8.6,1.7,1.6,1.5l7.4-1.5c.4-.1.7-.9,1-1.4l1.8-.2c1,1.7,2.6,1.6,4.2,1.2s5.1-.1,6.6,2.7a4.2,4.2,0,0,0,4.3,1.7c1.1,0,2.2-.4,3.3-.3a10.2,10.2,0,0,1,2.7.8c-.4,1.8-.8,3.4-1.2,4.9a5.4,5.4,0,0,1-1.2.9,114.8,114.8,0,0,0-19.6,11.1,9.3,9.3,0,0,1-4.5,1.8,46,46,0,0,1-9.8.4,11.5,11.5,0,0,0-10.6,4.6c0,1.9,1.2,2.9,2.3,3.8a25.8,25.8,0,0,1,7.8,13.4c.3,1.2.7,2.2,1,3.3a2.6,2.6,0,0,0,.4,2.9c0,1.4,0,2.8.1,4.1s-.9,4.8-1.2,7.2a20.1,20.1,0,0,0,0,4.9c.2,2.1,1.8,2.7,3.9,1.6l.9-.5a3.1,3.1,0,0,0,2.9-1.4c1.2-2.1,2.5-4.2,3.6-6.4s1.6-3.2,1-5.2a3.5,3.5,0,0,1,1.3-3.5,10.8,10.8,0,0,0,3.2-5.9,28.6,28.6,0,0,1,3.5-8,30.1,30.1,0,0,0,1.6-3.1c1.9-4.7,4.4-8.6,9.6-10.3a14.7,14.7,0,0,0,4.8-2.5c3.2-2.4,6.6-1.5,10.4-1.6,0,2.5-.1,4.5-.1,6.6h0a3.2,3.2,0,0,0-3.4,1.3c-1.7,2.1-3.8,3.9-5.1,6.5a24.6,24.6,0,0,1-4.9,6.7,39.8,39.8,0,0,0-5.3,7.6c-1.4,2.3-2.6,4.9-4.1,7.2s-2.8,5.1-2.1,7.9c-.4.5-.5.9-.7,1.1a8.3,8.3,0,0,0-3.7,6.5,13,13,0,0,1-3.6,7.4c-2.3,2.5-3.5,5.4-4.8,8.4s-3.1,6.9-6.8,8.6c-1.1.5-2.5.7-3.6,1.3A8.3,8.3,0,0,0,50,247.9Z" style="fill: #cfc6b9"/>
    <path d="M54.6,148.5c-.8.9-1.3,2-2.3,2.5-4.2,2.5-7.1,6.9-11.9,8.5a8.8,8.8,0,0,0-5.3,4.7c-1.3,2.5-2.9,4.7-3.7,7.5a11.2,11.2,0,0,1-2,3.3,4.4,4.4,0,0,0-.7,5,7.9,7.9,0,0,1,.7,3.7,5.8,5.8,0,0,1-1.3,3.1c-3.5,3.9-3.1,8.4-2,12.9.3,1.2.7,2.4,1.1,3.6s1.2-.4,1.6-.9l3.8-5.7c1.2-1.8,3-2.4,5-2.9s1.5.4,1.9,1.2l-1.7,1c-2.6.9-3.8,2.9-4.5,5.3a18.3,18.3,0,0,0-.4,10.1l1.5,6.1H30a1.6,1.6,0,0,0-1.6,2,25.5,25.5,0,0,1,1.2,6.7,2.5,2.5,0,0,0,.6,1.3c1.1,2,2,4.3,3.6,5.8s4.1,7,8.3,8.7a4.7,4.7,0,0,1,3.1,4.6c-5.7-2-9.6-6.1-13-10.8-6.5-9.1-8.7-19.5-9-30.5a94,94,0,0,1,5.2-33.7c2.3-6.4,5.8-12.1,11.4-16.2a56,56,0,0,1,7.2-4.1c1.5-.9,3.2-1.5,4.8-2.3Z" style="fill: #cfc7bd"/>
    <path d="M88.3,157.4c.4-1.5.8-3.1,1.2-4.9a10.2,10.2,0,0,0-2.7-.8c-1.1-.1-2.2.3-3.3.3a4.2,4.2,0,0,1-4.3-1.7c-1.5-2.8-3.8-3.3-6.6-2.7s-3.2.5-4.2-1.2a56.7,56.7,0,0,1,8.2-.7c6.5.2,13,.4,19.5,1s14,1,20.9-.8c-.2,1.3-.7,2.2-2,2.4l-6.3.9c-1.3,1.3-1,3-1.3,4.6l-3.4-.4a16,16,0,0,0-11.7,2.2C91,156.3,89.6,156.8,88.3,157.4Z" style="fill: #cfc7bd"/>
    <path d="M155.2,124a18.9,18.9,0,0,1-2.3-.5c-1.6-.6-3.2-1.6-4.8-2.2s-4.5.2-5.1,2.9-.7,3.5-1.3,5.2-1.4,3.1-5.1,3l2.2-3.7c2.7-4.4,3.2-9,.8-13.5s-4.5-7.1-6.8-10.6c-.9-1.4-1.7-2.8-2.6-4.1l.2-.2a12,12,0,0,0,3.3-.6,7.9,7.9,0,0,1,4.3-.6c.7,2,1.1,4.2,2.1,5.9,3.1,5.2,6.3,10.3,11.2,14.2C152.9,120.5,154.6,121.8,155.2,124Z" style="fill: #cfc7bd"/>
    <path d="M130.2,100.5c-2.6-3.7-5.3-7.4-7.9-11.2-.8-1.2-1.4-2.5-2.2-3.7-5.3-8-3-21.9,3.9-26.8l.4.5c-.4,3.7-.4,7.5-2.3,10.9a7.4,7.4,0,0,0,.7,8.7c1.3,1.8,2.6,3.8,2.1,6.3s.4,5.4,2.3,7.6,3.4,4.5,3.2,7.5Z" style="fill: #cfc7bd"/>
    <path d="M129.4,139.3a8.9,8.9,0,0,1-.3,2.9c-.4.8-1.2,1.9-1.9,1.9s-3.9,1.4-5.9,2.1a1.7,1.7,0,0,1-2.4-.9Z" style="fill: #cfc7bd"/>
    <path d="M66.6,146.6c-.3.5-.6,1.3-1,1.4l-7.4,1.5c-1,.2-1.4-.7-1.6-1.5l5.1-1.2,2.2-.3Z" style="fill: #cfc7bd"/>
    <path d="M186.3,62.3a1.6,1.6,0,0,1-1.2-2.2l1.5.2Z" style="fill: #706578"/>
    <path d="M63.9,146.5l-2.2.3Z" style="fill: #706578"/>
    <path d="M136,133.3l-1,1.1Z" style="fill: #cfc7bd"/>
    <path d="M99.6,175.6c0-2.1.1-4.1.1-6.6-3.8.1-7.2-.8-10.4,1.6a14.7,14.7,0,0,1-4.8,2.5c-5.2,1.7-7.7,5.6-9.6,10.3a30.1,30.1,0,0,1-1.6,3.1,28.6,28.6,0,0,0-3.5,8,10.8,10.8,0,0,1-3.2,5.9,3.5,3.5,0,0,0-1.3,3.5c.6,2-.2,3.6-1,5.2s-2.4,4.3-3.6,6.4a3.1,3.1,0,0,1-2.9,1.4c1.3-6.5,4-12.4,6.8-18.2s5.2-11.9,7.8-17.9,9.1-11.2,16.4-13.5a117.2,117.2,0,0,1,16.2-3.5c3.2-.5,5.6-1.8,6.7-5a3.7,3.7,0,0,1,2.5,2.1c1.5,2.5,3.9,3,6.4,2.1a12.7,12.7,0,0,1,7.2-.6,8.9,8.9,0,0,1,2.5,1.4c-10.4,0-19.9,3-27.9,9.9Z" style="fill: #cfc7bd"/>
    <path d="M50,247.9a8.3,8.3,0,0,1,1.5-1.7c1.1-.6,2.5-.8,3.6-1.3,3.7-1.7,5.3-5.3,6.8-8.6s2.5-5.9,4.8-8.4a13,13,0,0,0,3.6-7.4A8.3,8.3,0,0,1,74,214c.2-.2.3-.6.7-1.1-.7-2.8.4-5.4,2.1-7.9s2.7-4.9,4.1-7.2a39.8,39.8,0,0,1,5.3-7.6,24.6,24.6,0,0,0,4.9-6.7c1.3-2.6,3.4-4.4,5.1-6.5a3.2,3.2,0,0,1,3.4-1.3L96,180.8l-6.1,8.3C82,199.9,76.8,212,72,224.4a73.3,73.3,0,0,1-8.6,16.4,27.3,27.3,0,0,1-4.7,4.9A9.8,9.8,0,0,1,50,247.9Z" style="fill: #cfc7bd"/>
    <path d="M130.4,100.3c.2-3-1.4-5.4-3.2-7.5s-3-4.6-2.3-7.6-.8-4.5-2.1-6.3a7.4,7.4,0,0,1-.7-8.7c1.9-3.4,1.9-7.2,2.3-10.9,2.3-.1,4-1.2,5.8-2.5,3.4-2.6,6.9-5,10.4-7.5A10.4,10.4,0,0,0,150.8,48a4.5,4.5,0,0,1,2.3-.7c5.1.2,10.2.4,14.6,3.4a5.4,5.4,0,0,1,1.2.9c1.7,2.2,4,3.7,6.3,5.3s2.4,2.6,1,5.3a8.4,8.4,0,0,0-.4,1.2c.5,2.8,3.3,2.7,5,4.2-.4.8-.6,1.8-1.1,2-2.3.8-3.7,2.5-5.3,4.2a9,9,0,0,1-6.3,2.4,5.9,5.9,0,0,1-4.5-1.5c-1.2-1.3-2.6-2.5-3.8-3.8s-1.7-2-2.7-2.9-1.5-.2-2.1.5a5.5,5.5,0,0,0-3.6-1.5l-.6-1.8a29,29,0,0,0-8.4,6c-2.9,2.9-4.6,6.6-6.5,10.2s-1.6,7.6,2.8,9.9c2,1,2.2,2.6,2,4.5-1.8.4-2,2-2.7,3.3a7.9,7.9,0,0,0-4.3.6A12,12,0,0,1,130.4,100.3Zm37.2-36.7c-2.1-1.6-3.5-1.7-4.9-.8a1.3,1.3,0,0,0-.5,1.2,1.4,1.4,0,0,0,1.1.7C164.5,64.5,165.7,64.1,167.6,63.6Z" style="fill: #cfc6b9"/>
    <path d="M427.8,268.6a31.5,31.5,0,0,0,9.3-14.2,18.3,18.3,0,0,0,.1-12,45,45,0,0,0-13.3-20.9l-3.2-3a12,12,0,0,0-5.6-3.8,5.4,5.4,0,0,1-2.5-1.5,3.9,3.9,0,0,1-.8-2.2c0-.7,1.6-1.6,2.4-1.3a42.2,42.2,0,0,1,6,2,54.2,54.2,0,0,0,29.1,5.4c2.1-.2,4.2.2,6.3-.8s2.4-.5,3.9,2.5c-.5.7-1.2,1.4-1.7,2.2a24.5,24.5,0,0,0-4.3,10.4,102.1,102.1,0,0,0-1,16.6,79.9,79.9,0,0,1-1.3,16.2c-.7,3.8-2.9,6.9-5.1,9.9a2.2,2.2,0,0,1-3.1.4c-1.6-1.3-3-2.6-3.5-4.6a25.4,25.4,0,0,1-.9-3.1c-1.4-.4-1.9.4-2,1.1a42.1,42.1,0,0,0-1.1,5.8,24.4,24.4,0,0,1-5.4,13.5c-1.5,1.9-2.7,4.1-4.2,6.1s-2.4,3.1-6.7,2.6c-1.2,4.6-4.1,8.1-7.6,11.1a9.2,9.2,0,0,1-5.2,2.6c-1.9.3-3.1-.7-3.1-2.7a14.3,14.3,0,0,1,2.2-7.5l3.4-5.4c1.9-2.3,3.8-4.5,5.6-6.8s4.1-5.4,6.1-8.2S425.9,272.4,427.8,268.6Zm11.9-11c3.1,2.8,3.1,2.8,3.1,6.4a25.4,25.4,0,0,0,.1,3.9c.1.5.6,1.3,1.1,1.4a1.7,1.7,0,0,0,1.6-.7,9,9,0,0,0,2.3-5.8c.5-5.4.9-10.7,1.2-16.1.2-2.5,0-4.9.1-7.4.3-5,.7-10.1,2.9-14.8a12.8,12.8,0,0,0,.7-2.8c-1.7-1.5-3.5-1-5.2-.9a32.5,32.5,0,0,1-5.4,0l-13.5-2.4-1.7-.2c0,.5-.1.8,0,.8s1.1,1.6,1.8,2.4c4.2,4.6,8,9.4,9.8,15.6.3.9.9,1.7,1.3,2.6,1.6,4.1,2.5,8.1,1.1,12.5C440.5,253.9,440.1,255.8,439.7,257.6Zm-14.9,31.8c1.6-2.2,3-4.2,4.3-6.2a20.2,20.2,0,0,0,3.1-10.7c0-.7.2-1.6-1-2a6.7,6.7,0,0,0-1.4,1.1l-11.6,15.1c-.1.2.1.6.1.9C422.1,287.6,422.1,287.6,424.8,289.4Zm-9.9,3.2a35.8,35.8,0,0,0-7.5,10.4,9.6,9.6,0,0,0,0,2.4C413.9,301.8,415.7,298.6,414.9,292.6Z" style="fill: #5d536c"/>
    <path d="M138,99.1c.7-1.3.9-2.9,2.7-3.3a19.4,19.4,0,0,0,8.1,6c5.2,2.2,9.7.5,12.5-4.4a32.5,32.5,0,0,0,4-10.9c.2-1.3.5-2.6.8-3.8,3.2.5,4.2,1.3,3.6,3.4-1.7,6.1-.7,12.3-1.2,18.5-.2,2.4-.3,4.8-.5,7.3a28.6,28.6,0,0,0-.7,2.8,16.4,16.4,0,0,0,4.2,15.3c3.1,3.4,5.1,7.5,6.9,11.6v3.9c-2.5,1.6-4.9,3.6-8.3,2.8l-4.8-5.2c-2.9-5.9-5.9-11.7-8.9-17.6a8,8,0,0,0-1.3-1.3V124c-.6-2.2-2.3-3.5-3.9-4.8-4.9-3.9-8.1-9-11.2-14.2C139.1,103.3,138.7,101.1,138,99.1Zm7,5.6a8.1,8.1,0,0,0,0,1.7c2.5,3.6,5,7.2,8.4,10.2s6.3,6.2,7.7,10.5,4.7,9.7,7.5,14.3a10.2,10.2,0,0,0,2.6,2.9,2.2,2.2,0,0,0,1.8.2,2.3,2.3,0,0,0,1-1.6,12.5,12.5,0,0,0-.9-3.7,23.7,23.7,0,0,0-5-7.8c-3.7-4.1-5-9.1-4.7-14.5.1-2.5.7-4.9,1-7.3s.6-5.2.7-7.8c.1-.5-.3-1.1-.6-2.2-1.1,1.1-2,1.8-2.7,2.6-3.5,4-7.8,5.1-12.8,3.6Z" style="fill: #4a435b"/>
    <path d="M476.5,83.1c-.1-1.4-.4-2.5-.4-3.7a1.9,1.9,0,0,1,3.1-1.6,5.5,5.5,0,0,1,1.6,1.8,52.2,52.2,0,0,0,2.4,5.4,11.7,11.7,0,0,0,14.1,5.6,18,18,0,0,1,2.8-.9,1.9,1.9,0,0,1,1.7.6,4.5,4.5,0,0,1,.1,2.3,2.3,2.3,0,0,1-.9,1.1c-4.1,3-6.7,7.2-9.6,11.1s-7.2,9.7-11.7,13.8a10.6,10.6,0,0,0-1.9,2.3c-3.3,5.6-7.3,10.8-9.5,17a8.4,8.4,0,0,1-.6,1.4c-.7,1.4-1.9,1.7-3.4.8a38.3,38.3,0,0,1,2.4-23.8,69.9,69.9,0,0,0,3.7-12.6c1-4.3,1.5-8.7,2.1-13.1l.3-1.9C473.3,85.5,473.3,85.4,476.5,83.1Zm-9.1,44.6,1,.2,2.1-2.6a63.6,63.6,0,0,1,6-7.7c6.1-6.4,11.2-13.6,16.3-20.8.4-.4.4-1.1.6-1.9l-3.5-.8a15.1,15.1,0,0,1-8-4.6l-1.6-1.8a1.9,1.9,0,0,0-2.4-.6,17.9,17.9,0,0,0-1.8,5.8,61.2,61.2,0,0,1-2.2,10.5c-1.4,4.7-2.1,9.6-4.2,14.1a52.6,52.6,0,0,0-2.3,8A8.1,8.1,0,0,0,467.4,127.7Z" style="fill: #4a435b"/>
    <path d="M167.3,114.7a28.6,28.6,0,0,1,.7-2.8c3-.5,4.2-2.7,4-5.3s.5-3.8.9-5.7a12.8,12.8,0,0,0,.5-3.8,6.2,6.2,0,0,1,1.1-4.2,6.7,6.7,0,0,0,.9-4.6,13.5,13.5,0,0,1,.2-4.9c.2-2,2-2.7,3.6-1.6,3.4,2.2,5.3,6.8,4,10.6a18,18,0,0,0-.8,9.2,19.6,19.6,0,0,1-.1,3.4c0,1-.2,2.1.3,2.9s1,4.7.7,7.2.2,6.8-.9,10.1a3.4,3.4,0,0,0,1.4,3.9,13.9,13.9,0,0,1,1.7,2.1c-.8.4-1.4.9-1.9.8a19.8,19.8,0,0,1-4.2-1c-2.1-.9-4.1-2-6.2-3a4.3,4.3,0,0,1-2.5-4.4c0-1.1.1-2.3.2-3.4C171.2,117.4,170.2,115.4,167.3,114.7Z" style="fill: #cfc6b9"/>
    <path d="M269.4,106.1c-3.4-3.3-6.4-6.8-7.5-11.5a23.5,23.5,0,0,0-1.8-4,9,9,0,0,1-.7-2.7c0-2.6,1.5-3.4,3.8-2.2a25.8,25.8,0,0,0,9.3,2.9,9.3,9.3,0,0,0,6.5-1.7c2.5-1.9,4.8-3.9,6.2-6.8s2.9-5.9,4.5-8.7a7.6,7.6,0,0,0,.9-5.7,1.7,1.7,0,0,1,.8-2.5,2.9,2.9,0,0,1,3.2.6,2.2,2.2,0,0,1,.5.8,23.9,23.9,0,0,1,4.4,14.8,10.8,10.8,0,0,1-2.6,6.2c-1.2,1.8-2.6,3.4-3.9,5a19.1,19.1,0,0,0-2.4,3.2c-1,2.3-2.8,3.9-4.5,5.7C281.5,104.4,275.8,106,269.4,106.1Zm-3.6-14.8a5.5,5.5,0,0,0,.3,4.8c2.7,5.6,6.8,7.1,12.5,4.6a20.5,20.5,0,0,0,7.5-6.2c2.8-3.6,5.4-7.3,8-11.1s2.2-7.2-.1-11.6a20.4,20.4,0,0,0-4.3,5.8,66.5,66.5,0,0,1-3.4,6.5c-3.3,5.1-9,9.8-16.5,7.8A38,38,0,0,0,265.8,91.3Z" style="fill: #4a435b"/>
    <path d="M177,206.9a9,9,0,0,0-2.8.4,43.2,43.2,0,0,0-4.5,2.5,18.5,18.5,0,0,0-.8,8.8c.3,2,.7,3.9.8,5.8s-.2,3-2.1,3.7a7.1,7.1,0,0,1-1.8-1.2,8.8,8.8,0,0,0-4.5-2.9c-2.5-.6-3.8-2.4-4.8-4.5a26.4,26.4,0,0,0-2.7-4.6,32.9,32.9,0,0,1-2.9-7.2,4.8,4.8,0,0,1,.5-2.8c.6-1.3,2-1.5,3.3-1.7l4.1.2c.4.7.5,1.7,1.1,2a2.5,2.5,0,0,0,2.2-.2c1.9-1.6,4.2-2.3,6.5-3.3a53.2,53.2,0,0,0,7.5-4.5l2.1-1.2a1.6,1.6,0,0,1,1.9,1.2,12.1,12.1,0,0,1,.1,1.9,4.3,4.3,0,0,0,1.2,3.6,4.1,4.1,0,0,1,1.1,3.6,2.5,2.5,0,0,1-2.6.7A25.8,25.8,0,0,0,177,206.9Z" style="fill: #cfc6b9"/>
    <path d="M373.8,83.4c-5.2-.7-8.6-3-11-6.9a32,32,0,0,1-2.9-6.2c-1-3.1-1.7-6.3-2.4-9.4a12.8,12.8,0,0,1-.1-3.9,2.3,2.3,0,0,1,3.7-1.7,17.9,17.9,0,0,1,2.5,2.3l4.7,5.7a7.7,7.7,0,0,0,8.3,2.7c4.7-1.1,8.1-3.5,9.8-8a52.7,52.7,0,0,1,1.9-5.6c.2-.5.9-1.2,1.4-1.1a2.2,2.2,0,0,1,1.9,1.1,6,6,0,0,1,.7,3.7c-1,4.6-1.9,9.4-3.7,13.7s-5.9,9.8-11.2,12.5A14.1,14.1,0,0,1,373.8,83.4Zm11.8-17.9L383,67.1a15.7,15.7,0,0,1-10.7,2.5c-3.6-.3-5.8-2.7-7.8-5.4a16,16,0,0,0-1.9-1.6c-.3.7-.7,1.2-.6,1.5a65.2,65.2,0,0,0,2.6,8.9,10.9,10.9,0,0,0,6.1,6c2.5,1,4.8,1,6.9-.8a28,28,0,0,0,8.5-11.6C386.2,66.5,386,66.3,385.6,65.5Z" style="fill: #4a435b"/>
    <path d="M305.6,180.6c-8.3,2.3-15.4,7.2-23.3,10.2a3.6,3.6,0,0,1-2.6-2.7c-2-6.6-3.3-13.3-2.5-20.3,0-.6.7-1.2,1.1-1.7h.8c2.3,2.7,5,2.8,8.3,2a93,93,0,0,0,11.6-3.9,21.8,21.8,0,0,1,2.3-.9,1.6,1.6,0,0,1,2,1,16.6,16.6,0,0,1,.9,3.7,37.8,37.8,0,0,0,1.7,11.1C306,179.5,305.8,179.8,305.6,180.6Zm-25-6.6c.2,4.1-.2,8.3,2.5,12.2a28,28,0,0,0,3.8-1.3c3.5-1.4,6.9-3,10.3-4.6a6.4,6.4,0,0,0,3.8-3.5c.4-2.9.5-5.8-.7-8.4l-1.2-.3-16.9,5.1Z" style="fill: #4a435b"/>
    <path d="M177,206.9a25.8,25.8,0,0,1,2.9.3,2.5,2.5,0,0,0,2.6-.7l7.4-3.8a10.5,10.5,0,0,1,2.3-.8c2.5-.6,4.3.1,5.2,2.5s2.8,7.7,4.1,11.5c.4,1.1.6,2.2,1,3.4a16.5,16.5,0,0,1-3.3,2.3c-6.4,3.3-12.9,6.3-20,7.8-2.3.5-3.4,0-4.3-2.1a15,15,0,0,1-.9-10Zm12.7,15.8c2.8-.6,5-2.4,7.3-3.7a2.2,2.2,0,0,0,.7-3.1l-1.1-1.5c.4-3.5-.9-6.1-4.2-7.5-.4-.3-.8-.8-1.2-.7-2.8.3-5.4,1.1-6.3,4.2l-3,1.6c-3.5,1.9-5.2,5-4.7,8.8a3.9,3.9,0,0,0,4.7,3.8l3.3-.6h.1l2.1-.5,1.2-.5Z" style="fill: #4a435b"/>
    <path d="M158.8,203.4l-4.1-.2c-1.8-2.4-2.3-5.3-2.5-8.2l-.3-4.8c.1-2.9,1.4-4.8,4.4-5.4a8.8,8.8,0,0,0,2.6-1.2,43.2,43.2,0,0,1,10.5-4.8,26,26,0,0,1,3.9-.5c3-.1,5.1,1.4,5.7,4.3a36,36,0,0,1,.6,7.3,6,6,0,0,1-1.6,2.9,11.4,11.4,0,0,1-3.1,2.3c-4.9,2.3-9.2,5.7-14.4,7.3A5,5,0,0,0,158.8,203.4Zm5.9-18.2a14.8,14.8,0,0,0-2.7,1c-5,2.6-7.4,4.8-5.5,11.6.2.5.3,1.4.7,1.6s1.4-.6,1.8-1.3h2.3a9.7,9.7,0,0,0,6.6-3.2c2.2-.4,3.6-2,5.3-3.3s2.3-3.4,2.1-5.6a3.7,3.7,0,0,0-4.8-3.4,12,12,0,0,0-2.4,1.5Z" style="fill: #4a435b"/>
    <path d="M285,137.3c-.2,1.3-.3,2.6-.4,3.9a10,10,0,0,1-3.6,6.7c-1.7,1.4-3.4,1.2-4.6-.6a5.2,5.2,0,0,1-.6-1.3c-.7-2.1-1.4-4.3-2-6.5a10.6,10.6,0,0,1-.1-5.3,36.2,36.2,0,0,0,.6-12.7c-.4-4,.7-7.8,1-11.7.1-.9,1.5-1.4,2.4-.9a6.9,6.9,0,0,1,3.8,4.2,13.1,13.1,0,0,0,.9,2.8c2.4,3.3,2.9,7.1,2.9,11.1v10.3Zm-5.2,6.6c.8-1.5,1.5-2.3,1.6-3.2a57.8,57.8,0,0,0,.5-16.6,17.8,17.8,0,0,0-1.6-5.1c-.3-.6-1.2-.9-2.3-1.6a24.8,24.8,0,0,0-.3,3.3c.6,3.8.1,7.6-.4,11.3a25.8,25.8,0,0,0-.4,3.9A12.9,12.9,0,0,0,279.8,143.9Z" style="fill: #4a435b"/>
    <path d="M347,187.4a58.8,58.8,0,0,0,1.8,17,9.7,9.7,0,0,1,.1,2.4,4.1,4.1,0,0,1-.5.9l-19.1,5.7c-1.5.4-2.9.9-4.1-.9,1-3.9,0-7.9-.2-11.9a67.7,67.7,0,0,1,0-7.8,2.1,2.1,0,0,1,2.2-2.2c2.8.3,5.1-.9,7.6-1.6s6-1.6,9-2.2A11,11,0,0,1,347,187.4Zm-5.1,4.2a16.4,16.4,0,0,0-10.8,2.5,4.8,4.8,0,0,0-2.5,2.9c-.5,3.1-1.1,6.1-.1,9.2s1.2,2.6,3.1,2.6c4.3-.1,8.4-.9,11.8-3.9a1.8,1.8,0,0,0,1.3-2.3,30.6,30.6,0,0,1-.2-7.4,9.4,9.4,0,0,0-.6-2.8A1.4,1.4,0,0,0,341.9,191.6Z" style="fill: #4a435b"/>
    <path d="M307.2,213.9a3.8,3.8,0,0,1-2.7,2.8L294,220.6c-2.3.8-4.5,2-6.8,2.8a2.8,2.8,0,0,1-2.2-.3,1.7,1.7,0,0,1-.7-1.7c2.3-5,.2-9.9-.6-14.8,0-.2-.1-.3-.1-.5s.1-2.3,1.4-2.7a35.5,35.5,0,0,1,7-2.2,17.3,17.3,0,0,0,6.8-2.7c1.9-1.4,3.8-.8,4.7,1.4a11.4,11.4,0,0,1,1.1,3.7c.5,3.1.8,6.2,2.4,9A5.9,5.9,0,0,1,307.2,213.9Zm-6.5-11.2c-3.5.9-7,1.6-10.4,2.6a3.4,3.4,0,0,0-2.2,3,17.7,17.7,0,0,0,.9,7.2c.6,1.9,1.9,2.6,3.8,1.8l9.4-4.2C302.1,209.6,302.1,206.2,300.7,202.7Z" style="fill: #4a435b"/>
    <path d="M290.9,105.9l4.8-2.6c2.1.4,3.1,1.9,3.8,3.5a200.1,200.1,0,0,0,10.9,19.1,10.2,10.2,0,0,1,1.5,7,4.7,4.7,0,0,1-3.1,4.1,4.7,4.7,0,0,1-5.3-1.5c-4.6-5-8.1-10.6-9.6-17.3-.7-3.1-1.7-6-2.5-9A18.8,18.8,0,0,1,290.9,105.9Zm5.6,3.7-.9.3a11.5,11.5,0,0,0-.1,1.8,67.7,67.7,0,0,0,4.1,12.5,24.7,24.7,0,0,0,6.6,8.4,1.9,1.9,0,0,0,1.7.1c.3,0,.5-.7.5-1.2s-.7-3.5-1.6-5L299,113C298.2,111.8,297.3,110.7,296.5,109.6Z" style="fill: #4a435b"/>
    <path d="M223.5,190.8l2.5-3.3a2.2,2.2,0,0,1,3-1,6.3,6.3,0,0,0,4.3,0h.9c3.9-.3,7.8-.6,11.2-2.3a3.3,3.3,0,0,1,2.4,3.1,21.9,21.9,0,0,0,2,7.6c.7,1.5,1.1,3.1-.3,4.8a43.1,43.1,0,0,0-14.4,3.7c-1.5.7-2.9,1.6-4.4,2.2a2.6,2.6,0,0,1-4-2c-.4-2.3-.7-4.6-.9-6.8S225.5,192.4,223.5,190.8Zm6.9,10c.7-.2,1.7-.2,2.6-.5s4.6-1.7,7-2.1c5.6-1.1,6.5-1.9,4.4-8-.1-.3-.4-.5-.8-1-2.1-.7-4.3.1-6.6.3-7.9.8-9.7,1.8-7.1,10.6C229.9,200.3,230.1,200.4,230.4,200.8Z" style="fill: #4a435b"/>
    <path d="M370.6,86.7c.5.8,1.5,1.5,1.7,2.5,1.6,7.5,3.5,15,2.4,22.7-.3,2.4-.9,4.8-1.4,7.2s-3.1,4.5-5.8,5.5-5.2-1.6-5.1-4.4a33.1,33.1,0,0,1,1-8.3,130.4,130.4,0,0,0,2.7-15.4c.3-2.1.7-4.1,1.1-6.2S368.3,87.2,370.6,86.7Zm-.9,9.9c-1.3,2.9-1.1,5.2-1.5,7.4s-.8,4.2-1.2,6.3l-1.2,6.7a6.7,6.7,0,0,0,.1,2,1.6,1.6,0,0,0,2.6,1,5.8,5.8,0,0,0,2.3-3.6,41.6,41.6,0,0,0,.4-17.9C371.1,98,370.5,97.6,369.7,96.6Z" style="fill: #4a435b"/>
    <path d="M323.7,179.3c-.5-.7-1.4-1.4-1.6-2.3-1.4-5-.6-10,.6-15a3.5,3.5,0,0,1,2.9-2.4c3.6-.7,7.3-1.5,11-2a38.4,38.4,0,0,0,8.2-1.6c2.1-.7,3.7.5,4.2,2.8s1.2,5.4,1.7,8.2-.3,3.7-2.7,4.5l-1.4.3c-3.8,1.1-7.6,2-11.3,3.3S328,177.7,323.7,179.3Zm9.5-17.6c-2.3.4-4.5.8-6.4,2.4l-1.7,1.6a3.1,3.1,0,0,0-1.2,3c.2,1.2.4,2.5.7,3.7s.7,1.5,3,1.3,5.2.4,7.5-1.3,4.4-2,6.8-2.4,3.6-.9,4.3-4.8c-.2-1.6-.1-3.2-1-4.7a4.6,4.6,0,0,0-1.9-.4Z" style="fill: #4a435b"/>
    <path d="M235.4,241.9c-.9-3.8.7-8-2.7-10.8,1.9-3.5,4.3-5.2,8.2-5.5a22.5,22.5,0,0,0,10.6-3.4,15.1,15.1,0,0,1,1.8-.9,2.7,2.7,0,0,1,3.8,2.4,21.8,21.8,0,0,1,.1,2.5,13.1,13.1,0,0,0,2,5.4c1,1.8-.1,4.7-2,4.7-6.6.1-12.1,3.8-18.1,5.6l-1.9.4A8.6,8.6,0,0,1,235.4,241.9Zm4-4.4a17.5,17.5,0,0,0,2.4-.3l8.7-3c3-1.1,3.7-2.3,3.5-5.5-.1-1.6-1-2.5-2.5-2.2s-6,1.4-9,2.2a16.5,16.5,0,0,0-2.6,1.4,3.1,3.1,0,0,0-1.6,2.8A5.6,5.6,0,0,0,239.4,237.5Z" style="fill: #4a435b"/>
    <path d="M363,191.2c5.6-.5,10.3-3.4,15.2-6,2.2-1.1,3.7-.5,4.5,1.9a35.9,35.9,0,0,1,1.2,4.7l1.8,7.6c.4,1.9,0,2.7-1.8,3.4a51.6,51.6,0,0,0-5.2,1.6c-2.5.9-5.1,2.1-7.7,3.1s-3.5.8-5.2-1.8a20.6,20.6,0,0,1-3.4-13A3.6,3.6,0,0,1,363,191.2Zm9.8,11.7,5.1-1.5a4.5,4.5,0,0,0,3.2-4,13.2,13.2,0,0,0-.6-4.8c-.5-1.8-1.8-2.3-3.8-2.1s-5.6,2.5-8.2,4.1-2.8,2.9-2,5.8a14.2,14.2,0,0,0,.8,1.8C369.8,204.6,369.8,204.6,372.8,202.9Z" style="fill: #4a435b"/>
    <path d="M364.1,156.4l14.5-4.7c5.6-1.9,7-1.2,8.1,4.6a76.8,76.8,0,0,1,1.1,8.2,2.2,2.2,0,0,1-1.6,2.7L370.3,172l-1.9.5c-2.1.2-3.2-.5-3.6-2.5a24.5,24.5,0,0,1-.9-7.2C364.1,160.7,364,158.6,364.1,156.4Zm4.6,3.3h0l-1.2,1.7c-.1,1.3-.3,2.5-.3,3.8s.7,2.7,2.6,2.8a20.8,20.8,0,0,0,8.5-1.4c1.7-.6,3.8-.8,4.9-2.7a8.7,8.7,0,0,0,.9-1.1c.6-2.3-.3-4.5-.8-6.6a2.8,2.8,0,0,0-1.9-1.2c-3.4.4-6.9.2-9.5,2.8l-.3.2-1.8.9h0Z" style="fill: #4a435b"/>
    <path d="M395,113.2v1a4.6,4.6,0,0,1-3.4,4.3c-2.1.6-3.7-.3-5.1-1.9-3.8-4.4-5.6-9.6-6.4-15.2-.4-2.9-.5-5.8-1.6-8.6a2.4,2.4,0,0,1,.8-3,2.9,2.9,0,0,1,3.6.5,92.2,92.2,0,0,1,7.4,7.9A21.3,21.3,0,0,1,395,113.2Zm-4.1,1.6c1.9-4,.4-7-.5-10s-3.2-5.8-6.5-7.8c-1.2,3.9.4,7.3,1.2,10.6S388.3,112.3,390.9,114.8Z" style="fill: #4a435b"/>
    <path d="M416.7,164.7c-.4.1-.9.4-1.3.3-3.3-.5-6.5-1-9.7-1.7a5.2,5.2,0,0,0-4.2.6,4,4,0,0,1-1.5.7,2.3,2.3,0,0,1-1.6-2.9c1-3.9,2-7.9,3.1-11.8s1.8-4.9,2.8-7.4a2,2,0,0,1,3.2-.9,3.2,3.2,0,0,1,1,1,34.2,34.2,0,0,1,4.9,9c1,3.1,2.1,6.2,3.2,9.3C417,162,417.1,162,416.7,164.7Zm-8.2-4v-.2l1.4.2c1.8,0,2.8-1.2,2.3-2.9s-1.8-4.5-2.8-6.7a1.8,1.8,0,0,0-2.6-.5,8.3,8.3,0,0,0-3.7,5.4,3.5,3.5,0,0,0,2,4Z" style="fill: #4a435b"/>
    <path d="M151.4,67a5.5,5.5,0,0,1,3.6,1.5c.7,4,1.6,8,2.1,12.1a10,10,0,0,1-4.3,9.8,6.1,6.1,0,0,1-8.1-.2,19,19,0,0,1-2.4-2.5l-3.5,1.5c.1-1.2-.1-2,.2-2.6,1.7-3.1,2.5-6.4,3.5-9.7s2-5.5,5.1-6.8C149,69.5,150.1,68.1,151.4,67Zm-1.3,5.9-2.4,3.7a4.9,4.9,0,0,0-1.3,2,75.3,75.3,0,0,0-.8,8.3,3.9,3.9,0,0,0,2.7,3.7c1.2.1,3.1-1.3,3.8-2.8a10.6,10.6,0,0,0,.4-1.9,20.5,20.5,0,0,1,.5-2.4c1.3-3.5.4-6.7-1.3-9.8.8-.1,1.7,0,1.7-1.1a1.7,1.7,0,0,0-.6-1.2c-.8-.7-1.5-.3-2.1.3A4.5,4.5,0,0,0,150.1,72.9Z" style="fill: #4a435b"/>
    <path d="M385.3,43.3c-.3,7-7.4,10.6-12.9,7.1a10.8,10.8,0,0,1-4.5-11.6c.7-2.3,1.8-4.5,2.7-6.8s4.9-4,8.1-4.4a2.6,2.6,0,0,1,1.8.7,8.7,8.7,0,0,1,2.9,3.9A31.3,31.3,0,0,1,385.3,43.3ZM377.1,32h-2.4a2.8,2.8,0,0,0-2.7,2.3c-.6,2.2.1,8.9,1.1,10.9a6.1,6.1,0,0,0,1.2,1.6,2.5,2.5,0,0,0,3.8.3,7.8,7.8,0,0,0,3-5.4c.2-1.9.3-3.9.5-5.8a4.3,4.3,0,0,0-1.6-4.7C379,30.2,378.3,30.5,377.1,32Z" style="fill: #4a435b"/>
    <path d="M503.7,50.6c3-.4,4,2,4.6,4a17.1,17.1,0,0,1-1,12,30.6,30.6,0,0,1-6.8,9.5c-3,3-6.6,2.7-9.1-.8s-2.9-8-1.3-12.1a101.7,101.7,0,0,1,5.5-10.3,2.9,2.9,0,0,1,4.2-1.4c-1.2,1.6-2.6,3.2-2.7,5.4a13.9,13.9,0,0,1-1.2,3.2c-.6,1.4-1.3,2.9-1.9,4.4s-1.2.3-1.2.6a15.9,15.9,0,0,0-.7,4.8c.2,2.1,1.2,3.9,4,5a15.8,15.8,0,0,1-.3-2.6c1.4-1.2,3,.2,4.3-.3l3.1-6.1c1.5.3,2.7-.3,3-1.7a58.5,58.5,0,0,0,.7-7.2c0-1.5-1.2-1.7-2.4-1.6C504.2,53.8,503.9,52.2,503.7,50.6Z" style="fill: #4a435b"/>
    <path d="M267.7,61.1c.4-1.9.8-3.3,1-4.8s1.1-3.6,3.5-4,2.1-1.4,3.2-2.2,4.8-1.3,6.5,1c4.7,6.5,4,12.9-1.2,18.7a8.4,8.4,0,0,1-4.7,2.3c-3.8.6-7.5-.5-8-5.6C267.8,64.5,267.8,62.6,267.7,61.1Zm9.7-6.3-1.5.2c-4.9.5-5.6,1.1-6.5,6.1a15.5,15.5,0,0,0,.3,1.7,7.8,7.8,0,0,1,3.8,4c.1.3.4.5.6.7,1.5,1.9,3.6,2,5.5.4a5.6,5.6,0,0,0,1.6-5.3c-.4-2.8-1-5.5-3.1-7.5a8.5,8.5,0,0,0,1.7-.6s-.1-1-.4-1.1-1.3-.4-1.6-.2S277.5,54.3,277.4,54.8Z" style="fill: #5d536c"/>
    <path d="M442.9,156.1c-.5,1.8-1,4-1.6,6.2a8.4,8.4,0,0,1-3.5,4.6,6.5,6.5,0,0,1-8.5-1c-4-4-4-12.2-2.3-15.7,1-1.9,2.2-3.6,4.9-3.4a3.8,3.8,0,0,0,2.3-.4,4.9,4.9,0,0,1,4.7.7C442.6,149.5,443.5,151.3,442.9,156.1Zm-3.8.9c.1-1,.3-2,.3-3s-1.3-3.5-3.7-3.5a4.8,4.8,0,0,0-4.6,3.1,13.8,13.8,0,0,0-.1,9.2,2.9,2.9,0,0,0,4,1.8c2-.9,3.6-2.3,3.9-4.7A28.3,28.3,0,0,0,439.1,157Z" style="fill: #4a435b"/>
    <path d="M439.9,190.2a28.7,28.7,0,0,1-1.3,3.8,7.5,7.5,0,0,1-7.9,3.8c-2.8-.7-4.7-3.2-5-6.5a11.6,11.6,0,0,1,8.3-12.4,2.7,2.7,0,0,1,3.1,1A11.9,11.9,0,0,1,439.9,190.2Zm-3.8-.6a9.3,9.3,0,0,0-.5-2.4,2.2,2.2,0,0,0-1.4-1.1c-2.1-.4-5,2.4-4.8,4.5s1.4,3.5,2.7,3.6a4.1,4.1,0,0,0,3.8-3.2C435.9,190.7,436,190.4,436.1,189.6Z" style="fill: #4a435b"/>
    <path d="M393.4,194.5c.4-.8.7-1.6,1.1-2.3a48.4,48.4,0,0,0,5.3-12.1,8.5,8.5,0,0,1,.9-2.2,3,3,0,0,1,5.2-.4,9.4,9.4,0,0,1,.9,1.2l6.4,12a3.2,3.2,0,0,1-2.9,2.3,79.9,79.9,0,0,0-12.9,2.7A3.4,3.4,0,0,1,393.4,194.5Zm13.6-5.3a6.5,6.5,0,0,0-1.9-5.2,3.6,3.6,0,0,0-2.3-1.4c-1.1-.1-1.5,1-1.8,2a12.9,12.9,0,0,1-.4,1.9c-1.3,4.5-.8,5.1,3.9,4.2.5-.1,1.1-.1,1.4-.4A5.6,5.6,0,0,0,407,189.2Z" style="fill: #4a435b"/>
    <path d="M503.7,50.6c.2,1.6.5,3.2.8,4.8-.4,3.5-.9,7-1.3,10.5L500.1,72c-1.3.5-2.9-.9-4.3.3-1.4-2.5-1.5-5.2-1.8-7.8s1.3-3,1.9-4.4a13.9,13.9,0,0,0,1.2-3.2c.1-2.2,1.5-3.8,2.7-5.4Z" style="fill: #2f2e3a"/>
    <path d="M461.4,195.5c-.4.6-.6,1.2-1,1.7-3.3,3.6-6.5,2.8-9.6-.4s-1.4-5.9,1-7.9a17,17,0,0,1,5.1-2.8c2.9-1.1,5.5.8,5.8,3.9a22.9,22.9,0,0,1-.2,2.5A2.4,2.4,0,0,0,461.4,195.5Zm-4-6.7a4.3,4.3,0,0,0,.9,3.6c.3.3,1,.7,1.2.6s1.1-.9,1.1-1.3a5,5,0,0,0-.7-2.7A1.5,1.5,0,0,0,457.4,188.8Z" style="fill: #2f2e3a"/>
    <path d="M463,164.7c-.1,2.7-2.4,4.5-4.8,6.2a3.3,3.3,0,0,1-4-.7c-2.7-2.6-2.4-8.2.7-10.3a14.4,14.4,0,0,1,3.9-2c1.8-.7,3.5.3,4.1,2.3a7.8,7.8,0,0,1,.2,1.4C463.1,162.4,463,163.2,463,164.7Z" style="fill: #4a435b"/>
    <path d="M427.8,268.6c-1.9,3.8-4.8,6.9-7.2,10.4s-4,5.5-6.1,8.2-3.7,4.5-5.6,6.8l-3.6-.3a16,16,0,0,1,1.6-1.9,87.7,87.7,0,0,0,17.9-23.6,8.8,8.8,0,0,1,1.2-1.5Z" style="fill: #b0a79c"/>
    <path d="M461.4,195.5a2.4,2.4,0,0,1,1.1-3C463.1,194.3,463.1,194.3,461.4,195.5Z" style="fill: #7d7285"/>
    <path d="M154.4,96.3l.4.6-.7.2c0,.1-.2-.2-.2-.3Z" style="fill: #cfc6b9"/>
    <path d="M397.8,218.5c1.1-.7,1.9.1,2.7.6Z" style="fill: #706578"/>
    <path d="M111.7,158.8c-1.1,3.2-3.5,4.5-6.7,5a117.2,117.2,0,0,0-16.2,3.5c-7.3,2.3-13,6.5-16.4,13.5l-3.1.4,1.8-5a36.1,36.1,0,0,1,2.5-3A26.5,26.5,0,0,1,86,164.8c3.4-1.1,6.9-1.9,10.4-2.7l8.1-1.9a13.8,13.8,0,0,0,2.8-1.7,9.2,9.2,0,0,0-1.5-1.1c-3.7-1.1-7.3-1.3-10.9.6L80,165.3c-3.8,1.9-7.5,4-10.3,7.3a23.2,23.2,0,0,1-9.3,2.7H56c-2,.2-3.9.3-5.8.6s-2.5,1.5-1.4,3.1,1.4,1.7,2,2.7a26.8,26.8,0,0,1,5,11c.5,3.1.7,6.2,1,9.2l-2.6,1.8c-.1-1.3-.1-2.7-.1-4.1s.8-2-.4-2.9-.7-2.1-1-3.3A25.8,25.8,0,0,0,44.9,180c-1.1-.9-2.3-1.9-2.3-3.8a11.5,11.5,0,0,1,10.6-4.6,46,46,0,0,0,9.8-.4,9.3,9.3,0,0,0,4.5-1.8,114.8,114.8,0,0,1,19.6-11.1,5.4,5.4,0,0,0,1.2-.9c1.3-.6,2.7-1.1,4-1.8a16,16,0,0,1,11.7-2.2l3.4.4A7.2,7.2,0,0,1,111.7,158.8Z" style="fill: #4a435b"/>
    <path d="M155.1,124.2a8,8,0,0,1,1.3,1.3c3,5.9,6,11.7,8.9,17.6h-1.9a3.5,3.5,0,0,1-3.4-2.5,16.4,16.4,0,0,0-3.9-6.1,6.7,6.7,0,0,1-1.8-5.9C154.6,127.1,154.8,125.6,155.1,124.2Z" style="fill: #cfc7bd"/>
    <path d="M170.1,148.3c3.4.8,5.8-1.2,8.3-2.8l1.5.9a7.2,7.2,0,0,1-3.1,4.4c-2.2,1.7-4,1.4-5.8-.8A14,14,0,0,1,170.1,148.3Z" style="fill: #cfc7bd"/>
    <path d="M174.5,163a8.6,8.6,0,0,1-2,1.3c-.9.3-1.7-.8-1.5-1.9a3.5,3.5,0,0,1,.5-1.3c.2-.3.7-.8,1.1-.8a3.3,3.3,0,0,1,1.4,1C174.3,161.6,174.3,162.2,174.5,163Z" style="fill: #cfc7bd"/>
    <path d="M34.4,217.5l-1.5-6.1a18.3,18.3,0,0,1,.4-10.1c.7-2.4,1.9-4.4,4.5-5.3l1.7-1a4.8,4.8,0,0,1,5.3,2.7c2.9,5.3,4.4,11,3.5,17a12.1,12.1,0,0,1-2.4,5.3,5,5,0,0,1-4,2.5c-1.3.1-2.7.2-3.6-1.1,2.2-.1,4.3-.1,4.9-2.9l1.2-2.9c2.1-3.7,1.5-7.5.5-11.4a4.5,4.5,0,0,0-2.3-3.5h0l-.9-1.1h0c-.3-.6-.6-.4-.9.1a11.8,11.8,0,0,0-2.5,4c-1.5,3.5-1.3,7.3-2,10.9-.4.4-.6.8,0,1.3h0a21.7,21.7,0,0,0-.7,2.4Z" style="fill: #5d536c"/>
    <path d="M54.2,203.7l2.6-1.8,1.1,1.5c.4-.3.8-.5.9-.7,3.2-6.6,6.3-13.3,9.5-19.9a8.6,8.6,0,0,1,1-1.6l3.1-.4c-2.6,6-5.1,12-7.8,17.9s-5.5,11.7-6.8,18.2l-.9.5c-2.1,1.1-3.7.5-3.9-1.6a20.1,20.1,0,0,1,0-4.9C53.3,208.5,53.8,206.1,54.2,203.7Z" style="fill: #5d536c"/>
    <path d="M43.2,218.5c-.6,2.8-2.7,2.8-4.9,2.9s-2.5-1.6-2.7-3.2a21.7,21.7,0,0,1,.7-2.4c.5.3,1.3.4,1.7.8S41.2,218.4,43.2,218.5Z" style="fill: #2f2e3a"/>
    <path d="M53.7,196.7c1.2.9,1.3,1.8.4,2.9A2.6,2.6,0,0,1,53.7,196.7Z" style="fill: #5d536c"/>
    <path d="M167.6,63.6c-1.9.5-3.1.9-4.3,1.1a1.4,1.4,0,0,1-1.1-.7,1.3,1.3,0,0,1,.5-1.2C164.1,61.9,165.5,62,167.6,63.6Z" style="fill: #cfc7bd"/>
    <path d="M192.4,206.9c3.3,1.4,4.6,4,4.2,7.5a4.8,4.8,0,0,1-3.1,4.3c-1.7.8-3.4,1.9-3.8,4l-1.1.2-1.2.5-2.1.5h-.1l-3.3.6a3.9,3.9,0,0,1-4.7-3.8c-.5-3.8,1.2-6.9,4.7-8.8l3-1.6A12.5,12.5,0,0,0,192.4,206.9Z" style="fill: #a22818"/>
    <path d="M189.7,222.7c.4-2.1,2.1-3.2,3.8-4a4.8,4.8,0,0,0,3.1-4.3l1.1,1.5a2.2,2.2,0,0,1-.7,3.1C194.7,220.3,192.5,222.1,189.7,222.7Z" style="fill: #7d7285"/>
    <path d="M192.4,206.9a12.5,12.5,0,0,1-7.5,3.5c.9-3.1,3.5-3.9,6.3-4.2C191.6,206.1,192,206.6,192.4,206.9Z" style="fill: #7d7285"/>
    <path d="M187.4,223.4l1.2-.5Z" style="fill: #7d7285"/>
    <path d="M185.2,224h0Z" style="fill: #7d7285"/>
    <path d="M161.3,198.2H159l-2.5-.3c-1.9-6.8.5-9,5.5-11.6a14.8,14.8,0,0,1,2.7-1,1.8,1.8,0,0,0,2.6,1.4c1.3-.3,1.1-1.4.8-2.4a12,12,0,0,1,2.4-1.5,3.7,3.7,0,0,1,4.8,3.4c.2,2.2-.2,4.2-2.1,5.6s-3.1,2.9-5.3,3.3S162.4,194.9,161.3,198.2Z" style="fill: #a22818"/>
    <path d="M161.3,198.2c1.1-3.3,3.8-3.4,6.6-3.2A9.7,9.7,0,0,1,161.3,198.2Z" style="fill: #7d7285"/>
    <path d="M168.1,184.2c.3,1,.5,2.1-.8,2.4a1.8,1.8,0,0,1-2.6-1.4Z" style="fill: #b0a79c"/>
    <path d="M156.5,197.8l2.5.3c-.4.7-.8,1.7-1.8,1.3S156.7,198.3,156.5,197.8Z" style="fill: #7d7285"/>
    <path d="M343.4,204.9c-3.4,3-7.5,3.8-11.8,3.9-1.9,0-2.6-.7-3.1-2.6s-.4-6.1.1-9.2a4.8,4.8,0,0,1,2.5-2.9,16.4,16.4,0,0,1,10.8-2.5c.8,4.2,1.7,8.5,1.4,12.8C343.3,204.6,343.4,204.7,343.4,204.9Z" style="fill: #a22818"/>
    <path d="M343.4,204.9c0-.2-.1-.3-.1-.5.3-4.3-.6-8.6-1.4-12.8a1.4,1.4,0,0,1,2,.8,9.4,9.4,0,0,1,.6,2.8,30.6,30.6,0,0,0,.2,7.4A1.8,1.8,0,0,1,343.4,204.9Z" style="fill: #706578"/>
    <path d="M346.2,165.2c-.7,3.9-1,4.2-4.3,4.8s-4.8.8-6.8,2.4-4.9,1.6-7.5,1.3a7.8,7.8,0,0,0-.5-1.8c-1.6-1.2-1.9-2.9-1.8-4.7a3.9,3.9,0,0,0-.2-1.5l1.7-1.6,3.7,1.5,2.5-3.5a16.3,16.3,0,0,0,8.2.2c1.7-.3,3.2.1,4,1.9A3.2,3.2,0,0,0,346.2,165.2Z" style="fill: #a22818"/>
    <path d="M346.2,165.2a3.2,3.2,0,0,1-1-1c-.8-1.8-2.3-2.2-4-1.9a16.3,16.3,0,0,1-8.2-.2l.2-.4,10.1-1.6a4.6,4.6,0,0,1,1.9.4C346.1,162,346,163.6,346.2,165.2Z" style="fill: #b0a79c"/>
    <path d="M325.1,165.7a3.9,3.9,0,0,1,.2,1.5c-.1,1.8.2,3.5,1.8,4.7a7.8,7.8,0,0,1,.5,1.8c-2.3.2-2.7,0-3-1.3s-.5-2.5-.7-3.7A3.1,3.1,0,0,1,325.1,165.7Z" style="fill: #7d7285"/>
    <path d="M333.2,161.7l-.2.4-2.5,3.5-3.7-1.5C328.7,162.5,330.9,162.1,333.2,161.7Z" style="fill: #7d7285"/>
    <path d="M367.3,202.2a14.2,14.2,0,0,1-.8-1.8c-.8-2.9-.5-4.3,2-5.8s5.1-3.6,8.2-4.1,3.3.3,3.8,2.1a13.2,13.2,0,0,1,.6,4.8,4.5,4.5,0,0,1-3.2,4l-5.1,1.5Z" style="fill: #a22818"/>
    <path d="M367.3,202.2l5.5.7C369.8,204.6,369.8,204.6,367.3,202.2Z" style="fill: #b0a79c"/>
    <path d="M383.2,163.9c-1.1,1.9-3.2,2.1-4.9,2.7a20.8,20.8,0,0,1-8.5,1.4c-1.9-.1-2.6-1-2.6-2.8s.2-2.5.3-3.8l1.2-1.7h0l1.1-.8h0l1.8-.9.3-.2,8.1-.6a2.5,2.5,0,0,1,2.9,2.4Z" style="fill: #a22818"/>
    <path d="M383.2,163.9l-.3-4.3a2.5,2.5,0,0,0-2.9-2.4l-8.1.6c2.6-2.6,6.1-2.4,9.5-2.8a2.8,2.8,0,0,1,1.9,1.2c.5,2.1,1.4,4.3.8,6.6A8.7,8.7,0,0,1,383.2,163.9Z" style="fill: #7d7285"/>
    <path d="M371.6,158l-1.8.9Z" style="fill: #7d7285"/>
    <path d="M368.7,159.7l-1.2,1.7Z" style="fill: #7d7285"/>
    <path d="M369.8,158.9l-1.1.8Z" style="fill: #7d7285"/>
    <path d="M408.5,160.7l-3.4-.7a3.5,3.5,0,0,1-2-4,8.3,8.3,0,0,1,3.7-5.4,1.8,1.8,0,0,1,2.6.5c1,2.2,2,4.4,2.8,6.7s-.5,2.9-2.3,2.9l-1.4-.2Z" style="fill: #a22818"/>
    <path d="M151.7,73.7c1.7,3.1,2.6,6.3,1.3,9.8a20.5,20.5,0,0,0-.5,2.4,10.6,10.6,0,0,1-.4,1.9c-.7,1.5-2.6,2.9-3.8,2.8a3.9,3.9,0,0,1-2.7-3.7,75.3,75.3,0,0,1,.8-8.3,4.9,4.9,0,0,1,1.3-2l2.4-3.7Z" style="fill: #2f2e3a"/>
    <path d="M151.7,73.7l-1.6-.8a4.5,4.5,0,0,1,.6-1.2c.6-.6,1.3-1,2.1-.3a1.7,1.7,0,0,1,.6,1.2C153.4,73.7,152.5,73.6,151.7,73.7Z" style="fill: #b0a79c"/>
    <path d="M381.6,35.8c-.2,1.9-.3,3.9-.5,5.8a7.8,7.8,0,0,1-3,5.4,2.5,2.5,0,0,1-3.8-.3,6.1,6.1,0,0,1-1.2-1.6c-1-2-1.7-8.7-1.1-10.9a2.8,2.8,0,0,1,2.7-2.3h2.4Z" style="fill: #2f2e3a"/>
    <path d="M381.6,35.8,377.1,32c1.2-1.5,1.9-1.8,2.9-.9A4.3,4.3,0,0,1,381.6,35.8Z" style="fill: #7d7285"/>
    <path d="M503.2,65.9c.4-3.5.9-7,1.3-10.5,1.2-.1,2.4.1,2.4,1.6a58.5,58.5,0,0,1-.7,7.2C505.9,65.6,504.7,66.2,503.2,65.9Z" style="fill: #7d7285"/>
    <path d="M494,64.5c.3,2.6.4,5.3,1.8,7.8a15.8,15.8,0,0,0,.3,2.6c-2.8-1.1-3.8-2.9-4-5a15.9,15.9,0,0,1,.7-4.8C492.8,64.8,493.6,64.7,494,64.5Z" style="fill: #7d7285"/>
    <path d="M278.1,55.1c2.1,2,2.7,4.7,3.1,7.5a5.6,5.6,0,0,1-1.6,5.3c-1.9,1.6-4,1.5-5.5-.4-.2-.2-.5-.4-.6-.7a7.8,7.8,0,0,0-3.8-4,15.5,15.5,0,0,1-.3-1.7c.9-5,1.6-5.6,6.5-6.1l1.5-.2A1.1,1.1,0,0,1,278.1,55.1Z" style="fill: #2f2e3a"/>
    <path d="M278.1,55.1a1.1,1.1,0,0,0-.7-.3c.1-.5.1-1.3.4-1.6s1.1,0,1.6.2.4,1.1.4,1.1A8.5,8.5,0,0,1,278.1,55.1Z" style="fill: #cfc7bd"/>
    <path d="M439.1,157a28.3,28.3,0,0,1-.2,2.9c-.3,2.4-1.9,3.8-3.9,4.7a2.9,2.9,0,0,1-4-1.8,13.8,13.8,0,0,1,.1-9.2,4.8,4.8,0,0,1,4.6-3.1c2.4,0,3.7,1.2,3.7,3.5S439.2,156,439.1,157Z" style="fill: #a22818"/>
    <path d="M436.1,189.6c-.1.8-.2,1.1-.2,1.4a4.1,4.1,0,0,1-3.8,3.2c-1.3-.1-2.4-1.6-2.7-3.6s2.7-4.9,4.8-4.5a2.2,2.2,0,0,1,1.4,1.1A9.3,9.3,0,0,1,436.1,189.6Z" style="fill: #a22818"/>
    <path d="M407,189.2a5.6,5.6,0,0,1-1.1,1.1c-.3.3-.9.3-1.4.4-4.7.9-5.2.3-3.9-4.2a12.9,12.9,0,0,0,.4-1.9c.3-1,.7-2.1,1.8-2a3.6,3.6,0,0,1,2.3,1.4A6.5,6.5,0,0,1,407,189.2Z" style="fill: #a22818"/>
    <path d="M457.4,188.8a1.5,1.5,0,0,1,2.5.2,5,5,0,0,1,.7,2.7c0,.4-.6,1-1.1,1.3s-.9-.3-1.2-.6A4.3,4.3,0,0,1,457.4,188.8Z" style="fill: #7d7285"/>
    <path d="M43.2,218.5c-2-.1-3.8-.4-5.2-1.9s-1.2-.5-1.7-.8h0v-1.3c.7-3.6.5-7.4,2-10.9a11.8,11.8,0,0,1,2.5-4h.5l.4-.2h0l.9,1.1h0a46.3,46.3,0,0,0,.7,5.2,39.6,39.6,0,0,1,1.1,9.7Z" style="fill: #a22818"/>
    <path d="M44.4,215.6a39.6,39.6,0,0,0-1.1-9.7,46.3,46.3,0,0,1-.7-5.2,4.5,4.5,0,0,1,2.3,3.5C45.9,208.1,46.5,211.9,44.4,215.6Z" style="fill: #706578"/>
    <path d="M36.3,214.6v1.3C35.7,215.4,35.9,215,36.3,214.6Z" style="fill: #2f2e3a"/>
    <path d="M42.6,200.7l-.9-1.1Z" style="fill: #706578"/>
    <path d="M41.7,199.6l-.4.2h-.5C41.1,199.2,41.4,199,41.7,199.6Z" style="fill: #706578"/>
  </g>
</svg>
