<svg xmlns="http://www.w3.org/2000/svg" width="164" height="179" viewBox="0 0 164 179">
  <title>faitmapage</title>
  <g id="Layer_19" data-name="Layer 19">
    <path d="M164.7,179H1.1c0-.5-.1-1-.1-1.5V.8c0-.3.1-.7.1-1.1H164.7V179Zm-56-114.2-.2-.4c-4.1-3.9-7.2-8.6-10.4-13.3a61.7,61.7,0,0,1-7.2-15.9,86,86,0,0,1-3.7-20c0-.6-.1-1-.8-1-2.4.1-4.8.1-7.1,0-.6,0-.8.2-.8.8-.4,3.2-.8,6.3-1.3,9.5a88.8,88.8,0,0,1-5.1,17.6A61.7,61.7,0,0,1,61.9,59.4a119.1,119.1,0,0,1-9.4,9.4c-7,6.1-13.7,12.6-19,20.2A84.7,84.7,0,0,0,25,103.2a69.6,69.6,0,0,0-5.4,17.7c-.7,4.2-1,8.5-1.5,12.7-.1.8.2,1,1,1h7.1c.7,0,1-.2,1-.9a46.4,46.4,0,0,1,2.2-13.9q2.3-7,5.1-13.8a67.4,67.4,0,0,1,9-15.6c4.5-5.9,10-10.7,15.3-15.8,3.5-3.3,6.9-6.6,10.1-10.2,5-5.7,8.1-12.7,11.2-19.6.9-2.1,1.6-4.1,2.6-6.4,3.9,12.4,11,22.8,19.4,32.3Zm38.9-50.7-.6-.2h-8c-.6,0-.6.4-.6.9s-.2,3.9-.5,5.8a79.1,79.1,0,0,1-3.7,14.3,93.9,93.9,0,0,1-9.4,19.4A55.3,55.3,0,0,1,117,64L102.8,77.6a63.2,63.2,0,0,0-9.3,10.7,100,100,0,0,0-9,17.9l-1.6,4c-.2-.4-.2-.6-.3-.7A72.5,72.5,0,0,0,75.5,94c-1.7-2.7-3.5-5.4-5.5-8s-4.1-5-6.1-7.5a.7.7,0,0,0-1.1-.1l-5.9,5.3c1.9,2.3,3.9,4.6,5.6,6.9a70.2,70.2,0,0,1,8.8,14A80,80,0,0,1,77,123c.7,3.5,1,7,1.4,10.6,0,.6.3.7.8.7h7.1c.6.1.7-.2.8-.8s.3-4.2.7-6.3a96.4,96.4,0,0,1,4.7-18.3,64.1,64.1,0,0,1,13.6-22.5c3.3-3.3,6.8-6.5,10.3-9.6a104.2,104.2,0,0,0,17.8-20.3,73.8,73.8,0,0,0,9.1-18.2,79.7,79.7,0,0,0,3.5-16.1C147.1,19.5,147.3,16.8,147.6,14.1Zm-8.8,120.3h7.5c.8,0,1-.2.9-.9a75.3,75.3,0,0,0-1-8.3c-.8-4.2-1.7-8.3-2.9-12.4a85.9,85.9,0,0,0-3.9-11.1,84.1,84.1,0,0,0-10-16.2c-1.6-2.2-3.4-4.3-5.1-6.4s-1.1-1.1-2.2-.2L119,81.7l-2.2,2C129.8,98.2,136.4,115.4,138.8,134.4ZM48.5,65.2c-2.7-3.5-5.3-6.9-7.7-10.4s-3.1-5-4.6-7.5a25.4,25.4,0,0,1-1.6-3.8c-1.4-3.9-3-7.7-4.3-11.7a85.5,85.5,0,0,1-3.5-16.7c-.1-.7-.3-.9-.9-.8H19.4c-.9,0-1.2.3-1.1,1.2a74.9,74.9,0,0,0,2.4,14.8c1.6,6.6,3.3,13.2,6.5,19.2,1.2,2.1,2.3,4.2,3.7,6.2q3.6,5.4,7.5,10.5c1.2,1.6,2.5,3.1,3.8,4.7Zm84.7,99.1h-.3l-.3-.4c-.6-1-1.2-1.9-1.7-2.9a1.3,1.3,0,0,0-1.7-.6,1.6,1.6,0,0,0-.4,1.1c-.1,1.1-.2,2.3-.2,3.4v4.5h.6c1.4.1,1.4.1,1.4-1.3v-2.9a.8.8,0,0,1,.6.5c.7,1.1,1.4,2.2,2,3.3s1,.5,1.5.4.5-.7.5-1c0-2.3-.1-4.5,0-6.8s-.5-.9-1.1-.9-1,.1-1,.9A22.6,22.6,0,0,1,133.2,164.3Zm-22,.3a4.2,4.2,0,0,0-4-4.3c-2.4-.1-4.3,2.1-4.3,4.7a4.6,4.6,0,0,0,4.3,4.6C109.4,169.6,111.2,167.4,111.2,164.6ZM93.8,154.4l-.6-2.7a1.7,1.7,0,0,1,.2-1.7c1.3-1.9.3-4-2-4.4l-2.2-.2c-.7-.1-1,.2-1.1.9s-.4,4.5-.6,6.7-.1,1.5,1.4,1.5h.5c0-.5.1-.8.1-1.2s0-.8.2-1.1.4-.7.6-.7.6.3.8.6a3.8,3.8,0,0,1,.3,1C91.9,154.8,91.9,154.8,93.8,154.4Zm-32.4-8a13.8,13.8,0,0,0-2.2-1,3.7,3.7,0,0,0-3.5.8,5.5,5.5,0,0,0-1.4,6.2,3.6,3.6,0,0,0,2.1,2.1c2.8.9,5.4-1.5,4.9-4.8H57.9c0,.5-.2,1,0,1.4s.6.5,1.1,1a5.8,5.8,0,0,1-1.6.5c-.7,0-1.1-.6-1.3-1.2A3.4,3.4,0,0,1,56,150c0-2.1,1.7-3.1,3.6-2.2l.8.3Zm23.6-1H81.3c-2,.1-2,.1-2,2.1s.1,4.1.2,6.1c0,.3.3,1,.5,1h5.5v-.8c.1-1.3.1-1.3-1.1-1.3H81.6v-1.1a7.3,7.3,0,0,0,2.2-.3c.9-.5.2-1.3.2-2H82.5c-.6,0-1.1.1-1.1-.8s.2-1.1,1-1h1.4c1.3,0,1.3,0,1.2-1.3Zm16.3,0v8.7c0,.2.5.5.7.5h3.8c1.7,0,1.7,0,1.6-1.6l-.2-.5h-3.9v-1.2h1.9a.8.8,0,0,0,.6-.4c.4-1.2,0-1.8-1.3-1.7h-.5c-.7.1-.9-.3-.9-.9s.1-.9.8-.9h2.9a5.7,5.7,0,0,0-.1-1.4c0-.2-.3-.6-.5-.6Zm-31.7,24a.7.7,0,0,0-.1-.5c-.6-1.6-1.3-3-.4-4.9a2.7,2.7,0,0,0-2.3-3.5h-2c-.9,0-1.3.3-1.2,1.2a10.8,10.8,0,0,1,0,1.8v6h1.1c.8.1,1.1-.2,1-1a4.8,4.8,0,0,1,0-1.2c0-.2.3-.4.5-.5l.5.3a4.2,4.2,0,0,1,.4,1C67.7,169.7,67.9,169.8,69.6,169.4Zm.5-15.2c0-.3.1-.5,0-.7-.7-2.5-1.5-5-2.3-7.5a1,1,0,0,0-.5-.4c-1-.5-1.6-.2-2.1,1.1s-1.3,4.5-1.9,6.7a2.1,2.1,0,0,0,0,.8l1.8.4c.2-1.2.6-2.2,2.1-2s.6,1.3,1.2,1.9Zm-35,8.3h3.2c.6,0,.7-.4.6-.8s.3-1.2-.5-1.2H33c0,2.8-.1,5.5-.1,8.2a.6.6,0,0,0,.5.5l5.2.3a3.1,3.1,0,0,1,.1-1c.2-.8-.1-1.2-1-1.1H35.6c-.2,0-.4-.4-.6-.6l.6-.6h.6c1.4,0,1.4,0,1.4-1.4s-.1-.4-.1-.6H35.1Zm23.8-2.2c-2,.1-2.1.2-2.6,1.9s-.3,1-.5,1.5-.9,3.8-1.4,5.7c2.1.4,2.1.3,2.5-1.5s.3-.7.6-.8,1.5-.2,1.8,1,.1.6.2.9l.5.5h1.9Zm34.7.6c.7,2.7,1.5,5.2,2.2,7.7.1.5.2,1,.9,1s1.6.2,2-.8.8-1.9,1.1-2.9,1.1-3.2,1.7-4.9l-1.9-.5-2.1,6.2h-.3l-1.7-6.3Zm-9.4,1.8,1-1.2a2.8,2.8,0,0,0-4.4.1c-1.1,1.5-.9,2.9.4,3.7a10.4,10.4,0,0,0,1.6.6c.6.2.7.6.4,1.1a.8.8,0,0,1-.9.4,1.2,1.2,0,0,1-.7-.5c-.3-1-.9-.5-1.4-.4s-.8.5-.6,1.1a2.9,2.9,0,0,0,3.5,1.9,3,3,0,0,0,2.3-2.7,2.4,2.4,0,0,0-2-2.8l-.6-.2c-.3-.2-.6-.5-.5-.6a.6.6,0,0,1,.6-.6C83.3,162.5,83.7,162.7,84.2,162.7Zm57.4.2.5-.7c.7-.8.6-1.1-.3-1.5a3.1,3.1,0,0,0-4,1.6c-.6,1.5,0,2.7,1.6,3.3l1,.4c.2.2.5.7.4.9a1.3,1.3,0,0,1-1,.6,1.6,1.6,0,0,1-.8-.6c-.3-1-.9-.5-1.4-.4s-.7.5-.6,1a2.6,2.6,0,0,0,2,1.9c1.3.2,2.5.1,3.3-1s.6-3.8-1.7-4.5c-.4-.1-1.1-.1-.9-.9a1,1,0,0,1,1.4-.4Zm-19-1.4a2.7,2.7,0,0,0-3.2-.8,3,3,0,0,0-1.9,2.5c-.1,1.4.6,2,2.5,2.7.3.1.5.5.8.8s-.5.6-.8.7a.7.7,0,0,1-1.1-.5c-.1-.3-.4-.6-.6-.6a3.3,3.3,0,0,0-1.5.5c-.2.2-.1.9.1,1.2a3.6,3.6,0,0,0,3.6,1.5,3,3,0,0,0,2.3-2.7,2.4,2.4,0,0,0-2-2.8c-.2-.1-.5-.1-.7-.3s-.5-.3-.5-.5a1.5,1.5,0,0,1,.5-.6h1l.8-.2C122.2,162.2,122.3,161.8,122.6,161.5Zm-80.2,4.7-1.4.4c-.1.1-.4.4-.3.5a3.5,3.5,0,0,0,.9,1.7,2.9,2.9,0,0,0,3.5.3,2.9,2.9,0,0,0,1.5-2.8,2.6,2.6,0,0,0-2.3-2.4c-.4-.1-1.1-.1-.9-.9s.8-.6,1.4-.4l.5.3.5-.7.5-.7a2.5,2.5,0,0,0-3.1-.8,2.8,2.8,0,0,0-1.9,2.7c0,1.1.6,1.8,1.9,2.3l.7.2c.3.2.6.5.6.7a1,1,0,0,1-.6.8C42.9,167.8,42.7,167.1,42.4,166.2Zm33.1,3.2v-6.9h1.4a.8.8,0,0,0,.6-.4c.4-1,0-1.6-1.1-1.6H71.6v1.9h.9c.8-.1,1.1.1,1.1.9a24.4,24.4,0,0,0-.1,2.7v3.4Zm-48.1-8.8h-.6c-1.4-.2-1.4-.2-1.5,1.2s-.3,3.6-.5,5.3a17.7,17.7,0,0,0-.1,2.3l5.9.4a2.4,2.4,0,0,0,.2-.8c.2-1.2.2-1.2-1.1-1.3l-2.8-.3Zm46.9-8.1V147c-.1-1.6-.1-1.7-1.7-1.5h-.3V154c0,.2.5.5.7.5h2.8c1.8-.1,1.8,0,1.6-1.8v-.2Zm50.3,8a14.7,14.7,0,0,0,0,2.1c0,2,0,4.1.1,6.2s.7.7,1.2.8.8-.2.8-.8-.1-2.7-.1-4.1v-4.2Zm-25.8-5.9c.1-2.7.3-5.3.4-7.9.1-.7.1-1.2-.9-1.2s-1.1.3-1.1,1.1-.2,4.3-.4,6.4-.1,1.7,1.6,1.7Zm14.2,6v8.8h.8c1.2.1,1.3.1,1.3-1.2s-.1-4.2-.2-6.4,0-1.6-1.6-1.4Z" style="fill: #ee494e"/>
    <path d="M108.7,64.8l-6.6,5.9c-8.4-9.5-15.5-19.9-19.4-32.3-1,2.3-1.7,4.3-2.6,6.4C77,51.7,73.9,58.7,68.9,64.4c-3.2,3.6-6.6,6.9-10.1,10.2C53.5,79.7,48,84.5,43.5,90.4a67.4,67.4,0,0,0-9,15.6q-2.8,6.8-5.1,13.8a46.4,46.4,0,0,0-2.2,13.9c0,.7-.3.9-1,.9H19.1c-.8,0-1.1-.2-1-1,.5-4.2.8-8.5,1.5-12.7A69.6,69.6,0,0,1,25,103.2,84.7,84.7,0,0,1,33.5,89c5.3-7.6,12-14.1,19-20.2a119.1,119.1,0,0,0,9.4-9.4A61.7,61.7,0,0,0,72.1,42.1a88.8,88.8,0,0,0,5.1-17.6c.5-3.2.9-6.3,1.3-9.5,0-.6.2-.8.8-.8,2.3.1,4.7.1,7.1,0,.7,0,.8.4.8,1a86,86,0,0,0,3.7,20,61.7,61.7,0,0,0,7.2,15.9c3.2,4.7,6.3,9.4,10.4,13.3Z" style="fill: #fcfbfb"/>
    <path d="M147.6,14.1c-.3,2.7-.5,5.4-.8,8.1a79.7,79.7,0,0,1-3.5,16.1,73.8,73.8,0,0,1-9.1,18.2,104.2,104.2,0,0,1-17.8,20.3c-3.5,3.1-7,6.3-10.3,9.6a64.1,64.1,0,0,0-13.6,22.5,96.4,96.4,0,0,0-4.7,18.3c-.4,2.1-.5,4.2-.7,6.3s-.2.9-.8.8H79.2c-.5,0-.8-.1-.8-.7-.4-3.6-.7-7.1-1.4-10.6a80,80,0,0,0-5.7-18.4,70.2,70.2,0,0,0-8.8-14c-1.7-2.3-3.7-4.6-5.6-6.9l5.9-5.3a.7.7,0,0,1,1.1.1c2,2.5,4.2,4.9,6.1,7.5s3.8,5.3,5.5,8a72.5,72.5,0,0,1,7.1,15.5c.1.1.1.3.3.7l1.6-4a100,100,0,0,1,9-17.9,63.2,63.2,0,0,1,9.3-10.7L117,64a55.3,55.3,0,0,0,7.8-9.7,93.9,93.9,0,0,0,9.4-19.4,79.1,79.1,0,0,0,3.7-14.3c.3-1.9.3-3.9.5-5.8s0-.9.6-.9h8Z" style="fill: #fcfbfb"/>
    <path d="M138.8,134.4c-2.4-19-9-36.2-22-50.7l2.2-2,3.1-2.8c1.1-.9,1.4-.9,2.2.2s3.5,4.2,5.1,6.4a84.1,84.1,0,0,1,10,16.2,85.9,85.9,0,0,1,3.9,11.1c1.2,4.1,2.1,8.2,2.9,12.4a75.3,75.3,0,0,1,1,8.3c.1.7-.1.9-.9.9Z" style="fill: #fcfbfb"/>
    <path d="M48.5,65.2l-6.3,5.7c-1.3-1.6-2.6-3.1-3.8-4.7q-3.9-5.1-7.5-10.5c-1.4-2-2.5-4.1-3.7-6.2-3.2-6-4.9-12.6-6.5-19.2a74.9,74.9,0,0,1-2.4-14.8c-.1-.9.2-1.2,1.1-1.2h6.5c.6-.1.8.1.9.8a85.5,85.5,0,0,0,3.5,16.7c1.3,4,2.9,7.8,4.3,11.7a25.4,25.4,0,0,0,1.6,3.8c1.5,2.5,2.9,5.1,4.6,7.5S45.8,61.7,48.5,65.2Z" style="fill: #fcfbfb"/>
    <path d="M133.2,164.3a22.6,22.6,0,0,0-.1-2.6c0-.8.4-.9,1-.9s1.1,0,1.1.9,0,4.5,0,6.8c0,.3-.2.9-.5,1s-1.1.3-1.5-.4-1.3-2.2-2-3.3a.8.8,0,0,0-.6-.5v2.9c0,1.4,0,1.4-1.4,1.3h-.6v-4.5c0-1.1.1-2.3.2-3.4a1.6,1.6,0,0,1,.4-1.1,1.3,1.3,0,0,1,1.7.6c.5,1,1.1,1.9,1.7,2.9l.3.4Z" style="fill: #fcfbfb"/>
    <path d="M111.2,164.6c0,2.8-1.8,5-4,5a4.6,4.6,0,0,1-4.3-4.6c0-2.6,1.9-4.8,4.3-4.7A4.2,4.2,0,0,1,111.2,164.6Zm-2,0a2.1,2.1,0,0,0-2.1-2.2c-1.1-.1-2.1,1.2-2.1,2.7a2.3,2.3,0,0,0,2.1,2.3C108.2,167.5,109.1,166.2,109.2,164.6Z" style="fill: #fcfbfb"/>
    <path d="M93.8,154.4c-1.9.4-1.9.4-2.4-1.3a3.8,3.8,0,0,0-.3-1c-.2-.3-.5-.6-.8-.6s-.5.4-.6.7-.1.7-.2,1.1-.1.7-.1,1.2h-.5c-1.5,0-1.5,0-1.4-1.5s.5-4.5.6-6.7.4-1,1.1-.9l2.2.2c2.3.4,3.3,2.5,2,4.4a1.7,1.7,0,0,0-.2,1.7Zm-3.9-5.1.3.3a12.9,12.9,0,0,0,1.6-.9c.1-.1,0-.8-.2-.8a2.6,2.6,0,0,0-1.3-.3A8.5,8.5,0,0,0,89.9,149.3Z" style="fill: #fcfbfb"/>
    <path d="M61.4,146.4l-1,1.7-.8-.3c-1.9-.9-3.6.1-3.6,2.2a3.4,3.4,0,0,0,.1,1.4c.2.6.6,1.2,1.3,1.2a5.8,5.8,0,0,0,1.6-.5c-.5-.5-1-.7-1.1-1s0-.9,0-1.4h3.4c.5,3.3-2.1,5.7-4.9,4.8a3.6,3.6,0,0,1-2.1-2.1,5.5,5.5,0,0,1,1.4-6.2,3.7,3.7,0,0,1,3.5-.8A13.8,13.8,0,0,1,61.4,146.4Z" style="fill: #fcfbfb"/>
    <path d="M85,145.4v.7c.1,1.3.1,1.3-1.2,1.3H82.4c-.8-.1-1,.3-1,1s.5.8,1.1.8H84c0,.7.7,1.5-.2,2a7.3,7.3,0,0,1-2.2.3v1.1h2.8c1.2,0,1.2,0,1.1,1.3v.8H80c-.2,0-.5-.7-.5-1-.1-2-.1-4-.2-6.1s0-2,2-2.1Z" style="fill: #fcfbfb"/>
    <path d="M101.3,145.4h5c.2,0,.5.4.5.6a5.7,5.7,0,0,1,.1,1.4H104c-.7,0-.8.3-.8.9s.2,1,.9.9h.5c1.3-.1,1.7.5,1.3,1.7a.8.8,0,0,1-.6.4h-1.9v1.2h3.9l.2.5c.1,1.6.1,1.6-1.6,1.6H102c-.2,0-.7-.3-.7-.5Z" style="fill: #fcfbfb"/>
    <path d="M69.6,169.4c-1.7.4-1.9.3-2.5-1.2a4.2,4.2,0,0,0-.4-1l-.5-.3c-.2.1-.5.3-.5.5a4.8,4.8,0,0,0,0,1.2c.1.8-.2,1.1-1,1H63.6v-6a10.8,10.8,0,0,0,0-1.8c-.1-.9.3-1.2,1.2-1.2h2a2.7,2.7,0,0,1,2.3,3.5c-.9,1.9-.2,3.3.4,4.9A.7.7,0,0,1,69.6,169.4Zm-3.9-4.6c1.2-.1,1.7-.8,1.4-1.6a1,1,0,0,0-.8-.6.9.9,0,0,0-.6.6A8.5,8.5,0,0,0,65.7,164.8Z" style="fill: #fcfbfb"/>
    <path d="M70.1,154.2l-1.7.3c-.6-.6-.1-1.7-1.2-1.9s-1.9.8-2.1,2l-1.8-.4a2.1,2.1,0,0,1,0-.8c.6-2.2,1.2-4.5,1.9-6.7s1.1-1.6,2.1-1.1a1,1,0,0,1,.5.4c.8,2.5,1.6,5,2.3,7.5C70.2,153.7,70.1,153.9,70.1,154.2Z" style="fill: #fcfbfb"/>
    <path d="M35.1,162.5V164h2.4c0,.2.1.4.1.6s0,1.4-1.4,1.4h-.6l-.6.6c.2.2.4.6.6.6h2.1c.9-.1,1.2.3,1,1.1a3.1,3.1,0,0,0-.1,1l-5.2-.3a.6.6,0,0,1-.5-.5c0-2.7.1-5.4.1-8.2h5.4c.8,0,.4.8.5,1.2s0,.8-.6.8Z" style="fill: #fcfbfb"/>
    <path d="M58.9,160.3l3,9.2H60l-.5-.5c-.1-.3-.1-.6-.2-.9s-.7-1.4-1.8-1-.5.5-.6.8-.4,1.9-2.5,1.5c.5-1.9,1-3.8,1.4-5.7s.3-1,.5-1.5S56.9,160.4,58.9,160.3Z" style="fill: #fcfbfb"/>
    <path d="M93.6,160.9l1.9-.5,1.7,6.3h.3l2.1-6.2,1.9.5c-.6,1.7-1.1,3.3-1.7,4.9s-.8,1.9-1.1,2.9-1.3.7-2,.8-.8-.5-.9-1C95.1,166.1,94.3,163.6,93.6,160.9Z" style="fill: #fcfbfb"/>
    <path d="M84.2,162.7c-.5,0-.9-.2-1.3-.1a.6.6,0,0,0-.6.6c-.1.1.2.4.5.6l.6.2a2.4,2.4,0,0,1,2,2.8,3,3,0,0,1-2.3,2.7,2.9,2.9,0,0,1-3.5-1.9c-.2-.6-.1-1,.6-1.1s1.1-.6,1.4.4a1.2,1.2,0,0,0,.7.5.8.8,0,0,0,.9-.4c.3-.5.2-.9-.4-1.1a10.4,10.4,0,0,1-1.6-.6c-1.3-.8-1.5-2.2-.4-3.7a2.8,2.8,0,0,1,4.4-.1Z" style="fill: #fcfbfb"/>
    <path d="M141.6,162.9l-.5-.3a1,1,0,0,0-1.4.4c-.2.8.5.8.9.9,2.3.7,3,2.7,1.7,4.5s-2,1.2-3.3,1a2.6,2.6,0,0,1-2-1.9c-.1-.5-.1-.9.6-1s1.1-.6,1.4.4a1.6,1.6,0,0,0,.8.6,1.3,1.3,0,0,0,1-.6c.1-.2-.2-.7-.4-.9l-1-.4c-1.6-.6-2.2-1.8-1.6-3.3a3.1,3.1,0,0,1,4-1.6c.9.4,1,.7.3,1.5Z" style="fill: #fcfbfb"/>
    <path d="M122.6,161.5c-.3.3-.4.7-.7.9l-.8.2h-1a1.5,1.5,0,0,0-.5.6c0,.2.3.4.5.5s.5.2.7.3a2.4,2.4,0,0,1,2,2.8,3,3,0,0,1-2.3,2.7,3.6,3.6,0,0,1-3.6-1.5c-.2-.3-.3-1-.1-1.2a3.3,3.3,0,0,1,1.5-.5c.2,0,.5.3.6.6a.7.7,0,0,0,1.1.5c.3-.1.5-.4.8-.7s-.5-.7-.8-.8c-1.9-.7-2.6-1.3-2.5-2.7a3,3,0,0,1,1.9-2.5A2.7,2.7,0,0,1,122.6,161.5Z" style="fill: #fcfbfb"/>
    <path d="M42.4,166.2c.3.9.5,1.6,1.5,1.2a1,1,0,0,0,.6-.8c0-.2-.3-.5-.6-.7l-.7-.2c-1.3-.5-1.9-1.2-1.9-2.3a2.8,2.8,0,0,1,1.9-2.7,2.5,2.5,0,0,1,3.1.8l-.5.7-.5.7-.5-.3c-.6-.2-1.1-.2-1.4.4s.5.8.9.9a2.6,2.6,0,0,1,2.3,2.4,2.9,2.9,0,0,1-1.5,2.8,2.9,2.9,0,0,1-3.5-.3,3.5,3.5,0,0,1-.9-1.7c-.1-.1.2-.4.3-.5Z" style="fill: #fcfbfb"/>
    <path d="M75.5,169.4h-2V166a24.4,24.4,0,0,1,.1-2.7c0-.8-.3-1-1.1-.9h-.9v-1.9h4.8c1.1,0,1.5.6,1.1,1.6a.8.8,0,0,1-.6.4H75.5Z" style="fill: #fcfbfb"/>
    <path d="M27.4,160.6l-.5,6.7,2.8.3c1.3.1,1.3.1,1.1,1.3a2.4,2.4,0,0,1-.2.8l-5.9-.4a17.7,17.7,0,0,1,.1-2.3c.2-1.7.4-3.5.5-5.3s.1-1.4,1.5-1.2Z" style="fill: #fcfbfb"/>
    <path d="M74.3,152.5h3v.2c.2,1.8.2,1.7-1.6,1.8H73c-.2,0-.7-.3-.7-.5v-8.4h.3c1.6-.2,1.6-.1,1.7,1.5Z" style="fill: #fcfbfb"/>
    <path d="M124.6,160.5h2v4.2c0,1.4.1,2.7.1,4.1s-.2.8-.8.8-1.2.1-1.2-.8-.1-4.2-.1-6.2A14.7,14.7,0,0,1,124.6,160.5Z" style="fill: #fcfbfb"/>
    <path d="M98.8,154.6h-.4c-1.7,0-1.7,0-1.6-1.7s.3-4.2.4-6.4.2-1.1,1.1-1.1,1,.5.9,1.2C99.1,149.3,98.9,151.9,98.8,154.6Z" style="fill: #fcfbfb"/>
    <path d="M113,160.6h.3c1.6-.2,1.6-.2,1.6,1.4s.1,4.3.2,6.4-.1,1.3-1.3,1.2H113Z" style="fill: #fcfbfb"/>
    <path d="M109.2,164.6c-.1,1.6-1,2.9-2.1,2.8a2.3,2.3,0,0,1-2.1-2.3c0-1.5,1-2.8,2.1-2.7A2.1,2.1,0,0,1,109.2,164.6Z" style="fill: #ee494e"/>
    <path d="M89.9,149.3a8.5,8.5,0,0,1,.4-1.7,2.6,2.6,0,0,1,1.3.3c.2,0,.3.7.2.8a12.9,12.9,0,0,1-1.6.9Z" style="fill: #ee494e"/>
    <path d="M65.7,164.8a8.5,8.5,0,0,1,0-1.6.9.9,0,0,1,.6-.6,1,1,0,0,1,.8.6C67.4,164,66.9,164.7,65.7,164.8Z" style="fill: #ee494e"/>
  </g>
  <g id="Layer_15" data-name="Layer 15">
    <path d="M-147.4,56.6c.7-3.5,1.2-7.1,2.1-10.5A71,71,0,0,1-138.2,29c.7-1.3,1.2-2.6,1.8-4V23.6c1.7-.3,2.2-1.8,3-3,3.6-5.6,7.3-11.2,10.9-16.9l.9-1.7A20.7,20.7,0,0,0-119.2.3l5.3-5.7,1-.8c1.3-.3,2.6-.4,3.8-.8A37.8,37.8,0,0,1-94.5-8.7l15.6.9h4.4a14.2,14.2,0,0,0,9.3-3.9c3.2-3.1,3.2-6.6-.3-9.1-1.4-.9-2.9-1.6-4.3-2.4-4.4-2.3-8.8-4.4-12.5-7.7a15.2,15.2,0,0,1-3-3.2,57.1,57.1,0,0,1-3.5-7c-3.6-8.8-5.6-17.8-1.5-27.1.2-.4.3-1,.5-1.4,1.6-3,3.1-6.1,4.9-9s5.6-4.4,9.4-4a12.4,12.4,0,0,1,3.8.9c3.5,1.4,7,2.8,10.4,4.5,5.7,2.8,11.2,5.9,16.8,9A25,25,0,0,0-30.3-65a125.4,125.4,0,0,1,13.7-.1c6.9.3,13.7,1,20.6,1.8,3.4.4,6.7,1.2,10.1,1.9s9.5,2.4,14.3,3.3a42.3,42.3,0,0,1,9.4,2.7,25.7,25.7,0,0,0,6.1,2,7.2,7.2,0,0,0,8.4-6.2c.2-1.3.2-2.6.4-3.9.4-4.8.7-9.5,1.3-14.2s2.7-8.8,5.2-12.6,3.7-2.5,5.2.3a37.6,37.6,0,0,1,2.9,6.8c.9,2.7,1.4,5.7,2.3,8.5a12,12,0,0,0,2,3.9,3.9,3.9,0,0,0,6,.5,18.1,18.1,0,0,0,2.8-3.4c.8-1.2,1.5-2.5,2.2-3.8l2.8.2c-.6,4.4-3.4,7.4-6.4,10.2s-6,2-8.6,0a9.3,9.3,0,0,1-3.6-5.1c-.4-1.4-.6-2.9-1.1-4.3s-1.7-5.6-2.6-8.4a2,2,0,0,0-1.5-1,2.4,2.4,0,0,0-1.5,1,3.9,3.9,0,0,0-.6,1.3,33.6,33.6,0,0,0-3.2,16.2,29.1,29.1,0,0,1-1.1,10.2,10.1,10.1,0,0,1-12.4,6.9,48.5,48.5,0,0,1-6.9-2.6,31.6,31.6,0,0,0-7-2.1c-4.5-.8-8.9-1.9-13.4-2.8s-7.3-1.9-11-2.4a164.1,164.1,0,0,0-34.3-1.7A29.5,29.5,0,0,1-45-64.7c-4.8-2.5-9.5-5.2-14.3-7.8-2.4-1.3-4.8-2.7-7.3-3.9A28.2,28.2,0,0,0-76-79.1a6.1,6.1,0,0,0-5.7,2.3c-4.1,5.4-7.1,11.4-7.3,18.4A39.4,39.4,0,0,0-82.9-37a17.4,17.4,0,0,0,5.4,5.7l7.6,4.4c1.9,1,4,1.7,5.8,2.8,5.9,3.7,6.4,8.2,3.1,13.2-1.2,1.8-2.6,3.4-4.8,4l-4.5,1.3-1.3.2h-1a39.4,39.4,0,0,1-10.3.1C-87.9-5.6-93-5.9-98-6c-7.2-.1-13.5,2.2-18.4,7.6a62.6,62.6,0,0,0-4.1,4.9,224.4,224.4,0,0,0-13.2,20.1,80.5,80.5,0,0,0-8.4,18.7,59.8,59.8,0,0,0-1.5,31.4,27.2,27.2,0,0,0,3.3,10.8,25.2,25.2,0,0,0,3.2,4.3,2.3,2.3,0,0,0,2.6.9h0a2.3,2.3,0,0,0,1.9,2.8c2.3.5,4.7.8,7,1.1h1.8c2.1-.2,4.4.4,6.3-1.2l1.8-.4a50.9,50.9,0,0,0,5.4-2.2A72.5,72.5,0,0,0-92.2,79.3,151.4,151.4,0,0,1-77.7,66.1a32,32,0,0,1,4.5-3c5.6-2.7,8.3-2,12.4,2.1,2.3,2.2,4,5.1,5.8,7.8a21.9,21.9,0,0,1,2.9,5.7,20.4,20.4,0,0,1-3.4,17.7,90.9,90.9,0,0,1-13.6,14.8,122.6,122.6,0,0,0-25.5,32.3,36.7,36.7,0,0,0-4.5,14.4c-.4,3.8.5,7.5.8,11.3,1,10.6,4.4,20.4,8.8,30s10.7,12.6,19.5,14a41.4,41.4,0,0,0,9.3.4,120.4,120.4,0,0,0,30.9-5.7c5.9-1.9,11.9-3.6,17.9-5.2a24.1,24.1,0,0,1,15,.7,9.4,9.4,0,0,1,4,2.8,16,16,0,0,1,3.7,10.4,84.5,84.5,0,0,1-.4,13.3,93.5,93.5,0,0,0,.8,26.4,72.3,72.3,0,0,0,9.4,26.2c2.8,4.6,6.3,8.8,11.4,11.2,11.2,5.1,22.2,5.2,32.8-1.6a64,64,0,0,0,14.6-12.3c5.5-6,10.1-12.5,12.4-20.4l2.4-8.6c.7-2.2,1.4-4.5,2-6.8a22.5,22.5,0,0,0,1.3-4.2,29.2,29.2,0,0,1,7.5-15.2c2.5-2.7,5.4-4.2,9.1-3.7s7.7,1.1,11.6,1.9a31.4,31.4,0,0,1,7.8,2.7c5.1,2.9,10.1,2.6,15,0s8.3-4.4,11.1-8.5l1.4-1.4c5.8-4.4,10.1-10,13.9-16.2,1.5-2.5,3.3-4.8,5-7.2l1.4,1.8c-1.2,2.2-2.4,4.4-3.7,6.6l-2.9,4.9-1,1.9-.8.6A160.1,160.1,0,0,1,157,224a13.1,13.1,0,0,0-1.9,2.7H155c-2.7-.1-4.5,1.8-6.6,2.8a16.4,16.4,0,0,1-12.3.8l-3.7-1.1-3.8-1.9-2.1-.4L115,224.6a7.7,7.7,0,0,0-6.4,1.5,18.7,18.7,0,0,0-7,9.9c-1.4,4.7-2.7,9.4-4,14.1-.8,2.5-1.5,5-2.2,7.6a63.1,63.1,0,0,1-5.9,13.9l-9.2,12h-.1c-1.7.2-2.4,1.5-3.3,2.7l-7.2,6-3.2,2-1,.7c-2.1.9-4.1,1.9-6.2,2.7-5.9,2.2-11.9,3.1-18.2,1.5-3-.7-6.1-.9-8.9-2.3s-5.7-2.4-7.7-5a9,9,0,0,0-2.7-2l-2.9-4.9a24.1,24.1,0,0,0-2.1-2.4L12,271.4,8.4,257.2l-.7-5c-.2-1.3-.4-2.6-.5-3.9a14,14,0,0,0,0-2.9c-.9-5.6.1-11,.7-16.5a62.2,62.2,0,0,0,.2-12.2,19.5,19.5,0,0,0-.6-2.3c-.5-1.8-.3-4-2.5-5a3.5,3.5,0,0,0-2.4-2.8c-2.8-1.2-5.6-2.1-8.6-1.7a56.9,56.9,0,0,0-9.2,1.5c-4.8,1.2-9.5,2.6-14.2,4.1-9.5,3.1-19.4,4.6-29.3,5.9a41,41,0,0,1-16.4-1.5A25.6,25.6,0,0,1-92.4,200a159,159,0,0,1-6.5-19.1,89.2,89.2,0,0,1-2.9-17.9,30.4,30.4,0,0,1,3.2-17.6c4.8-9.4,10.1-18.4,17.2-26.3l4.7-5v-.2l.9-.3c5.9-5.2,11.7-10.5,16.5-16.7a30.7,30.7,0,0,0,3.9-6.8,14.4,14.4,0,0,0,.1-11.5,40.7,40.7,0,0,0-7.7-11.2,7.3,7.3,0,0,0-9-1.5,15.5,15.5,0,0,0-4.1,2.5c-4.7,4.1-9.3,8.3-13.8,12.5a4.8,4.8,0,0,0-1,1.7h0c-2.4,1.9-4.8,3.9-7.3,5.6a123.3,123.3,0,0,1-12.3,8c-6,3.3-12.6,4-19.4,3.6l-1.9-.4c-3.1-1.4-6-3.1-8.1-6a40.8,40.8,0,0,1-4.8-9,59.1,59.1,0,0,1-2.8-18.2c0-1.6-.2-3.2-.3-4.8S-147.6,58.2-147.4,56.6Z" style="fill: #706578"/>
    <path d="M201.8,133.4l3.3.2,5.8.9c1.3.1,2.6.1,3.5,1.3-3.6,0-7.1-.1-10.7.1s-6.8.3-10.1.7-3,.6-3,4.3l-1.9,1.4-1.4-2.2c-2-2.7-3-2.9-6.7-1.7l-5.5-.2c-2.3-.2-4.5-.6-6.7-.6a2.9,2.9,0,0,0-3,3.1,11.4,11.4,0,0,0,.7,3.2l.9,4.6c.2,1.7.3,3.3.5,5l.9,3.5.3,2,.3,2.2-.6,6.5c-1.1,1.1-2,2.8-3.9,2.5s-5.4.5-8.1,1.1l-7.8.8-2.1.2-11.8,1.4-2.2.4-15.4,1.4h-.4a26.6,26.6,0,0,0-4.9.1,10.7,10.7,0,0,1-6.6-.9,21.4,21.4,0,0,0-9-1.9,34.1,34.1,0,0,0-15.4-2.3L62.3,172c-9.6.5-19.2,1.3-28.8-.4-2.4-.4-4.8-.6-7.2-1.1A39.4,39.4,0,0,0,16,170a8.2,8.2,0,0,0-2.6,1c-.7.4-1.2,1-1.8,1.4s-2.3-1.5-3.1-2.5l-3-3.8-.6-4.8c-.4-3.4-1.1-6.8-1.2-10.2a120.4,120.4,0,0,1,.5-14.7,87.3,87.3,0,0,0-.4-17.7c-1-7.6-2.3-15.2-3.4-22.8a15.5,15.5,0,0,0-.6-2.3c-1.9-5.9-2.2-12-2.4-18A224.4,224.4,0,0,1-1.1,41.8a150.6,150.6,0,0,0,.5-26c-.2-2.4-.6-4.8-.8-7.3A2.8,2.8,0,0,1,1.5,5.3H3.9c6.7.1,13.4.9,20.1.5a105.9,105.9,0,0,1,13.8-.1c8,.5,16,.2,24,0a50.5,50.5,0,0,0,6.8-.6L91.1.3c2.1-.5,3.7-1.4,4.5-3.4a4.7,4.7,0,0,1,1.7.2,4.9,4.9,0,0,1,1.4,1.1c.3,1.3.5,2.6.8,3.9L95.6,4a7.5,7.5,0,0,0-6.2.7L80.5,7.1l-2.3.4L74.5,8l-2.1.3-6.2.9-6.7.2a7.8,7.8,0,0,0-5,.1L43.6,10c-3-.3-5.9-1.2-8.9-.4H22.9L15,9.3c-3.9-.6-7.7.2-11.6,1A18.6,18.6,0,0,0,3,17.7,33.5,33.5,0,0,1,3.5,24c-.6,7.2-1.3,14.4-2,21.5a188.2,188.2,0,0,0-.1,39.7,35.6,35.6,0,0,0,1.5,5.6,1.6,1.6,0,0,0,.1,1,3,3,0,0,0,.8,3c.4,1.8.7,3.6,1,5.4a85.5,85.5,0,0,0,.9,8.7,89.8,89.8,0,0,1,1.8,17.9c.2,8,.1,16-.2,23.9-.1,4.3,1.3,8.4,2,12.5a2.4,2.4,0,0,0,2.7,2.3l11.6,1.3,4.9.7c1.8,1.2,3.9,1.1,5.9.9l6.7.6c2,.6,4,1.1,6.1.3l12.7-.3,2.1-.2,2.9-.3a3.1,3.1,0,0,0,3.1-.2h3.9a2.6,2.6,0,0,0,3-.3l6-.9,2.1-.2,3.8.4a2.8,2.8,0,0,0,3,.7l6.7,1.2a7.7,7.7,0,0,0,4.9,1l4.8.8c1.6,1.5,3.6,1.4,5.6,1.5,6.2.3,12.4-.8,18.5-1.5,4.6-.5,9-1.5,13.5-2.3a15.5,15.5,0,0,0,2.3-.7H148a4.9,4.9,0,0,0,4.1-.4c3.3.6,6.4-.6,9.4-1.6.5-.2.9-.9,1.3-1.4a4,4,0,0,0,1.3-3.8c.1-.8.3-1.6.4-2.4a2.5,2.5,0,0,0-.4-2.6c0-1.7,0-3.5.1-5.3a14.7,14.7,0,0,0-1.7-8.7,19.3,19.3,0,0,1-.1-2.4,4.9,4.9,0,0,0-1.1-4.5v-2a16.1,16.1,0,0,1,3.3.6c5.2,2.5,10.7,2.7,16.2,3.2a19.5,19.5,0,0,0,4.8-.4c4.8-.7,9.5-1.9,14.4-1.8C200.7,134.3,201.2,133.7,201.8,133.4Z" style="fill: #4a435b"/>
    <path d="M95.6-3.1c-.8,2-2.4,2.9-4.5,3.4L68.6,5.2a50.5,50.5,0,0,1-6.8.6c-8,.2-16,.5-24,0A105.9,105.9,0,0,0,24,5.9c-6.7.4-13.4-.4-20.1-.5H1.5A2.8,2.8,0,0,0-1.4,8.5c.2,2.5.6,4.9.8,7.3a150.6,150.6,0,0,1-.5,26A224.4,224.4,0,0,0-2.6,75.6c.2,6,.5,12.1,2.4,18a15.5,15.5,0,0,1,.6,2.3c1.1,7.6,2.4,15.2,3.4,22.8a87.3,87.3,0,0,1,.4,17.7,120.4,120.4,0,0,0-.5,14.7c.1,3.4.8,6.8,1.2,10.2l.6,4.8c-.5.5-1.4,1-1.5,1.6a2.5,2.5,0,0,0,.8,2.1c.7.7,1.5,1.2,1.5,2.4-.2,3,1.8,3.9,4.3,4.2a26.3,26.3,0,0,0,4.9.3c4.2-.1,8.4-.2,12.6-.6a48.2,48.2,0,0,1,9.3,0,15.1,15.1,0,0,0,3-.2h4.3c4.6.3,9.1.8,13.7.3s10.7-.9,16.1-1,9.1,0,13.6-1a9.8,9.8,0,0,1,3.4.2,10.1,10.1,0,0,0,3,0c.6-.1,1.1-.9,1.7-1.5a21.4,21.4,0,0,1,9,1.9,10.7,10.7,0,0,0,6.6.9,26.6,26.6,0,0,1,4.9-.1c-.7,2.5,1.3,4.2,1.9,5.9s-.7,3.8-1,5.5a5.4,5.4,0,0,0-3.1,4.1,7.4,7.4,0,0,0,.7,3.8c1.8,4.8,5.1,7.8,10.5,7.8a3.8,3.8,0,0,0,1.5,3l4.1,2.9,8.7-3.1a6,6,0,0,1,2.9-.4,92.1,92.1,0,0,1,9.1,2,2.5,2.5,0,0,1,1.4,3.6,9.3,9.3,0,0,1-3.3,3.5c-2.7,1.9-5.9,2.8-8.8,4.2s-5.7,1-8.5-.4l-2.1-1.2a4.1,4.1,0,0,0-5-.4,8.1,8.1,0,0,1-8,.5,14.5,14.5,0,0,0-6.2-.6c-3.7.3-6.5,2-9.3,4.1a11.4,11.4,0,0,0-4.4,5.7,19.8,19.8,0,0,1-3.4,7c-1.8,2.3-1,8.2,1,10.5.1.2.5.3.8.4-.6,2.3-1.3,4.6-2,6.8-2-.2-3.4.6-3.7,2.7a25.3,25.3,0,0,0-.3,3.8c-.1,1.1.7,1.7,1.6,2.1-2.3,7.9-6.9,14.4-12.4,20.4a64,64,0,0,1-14.6,12.3c-10.6,6.8-21.6,6.7-32.8,1.6-5.1-2.4-8.6-6.6-11.4-11.2a72.3,72.3,0,0,1-9.4-26.2,93.5,93.5,0,0,1-.8-26.4,84.5,84.5,0,0,0,.4-13.3,16,16,0,0,0-3.7-10.4,9.4,9.4,0,0,0-4-2.8,24.1,24.1,0,0,0-15-.7c-6,1.6-12,3.3-17.9,5.2a120.4,120.4,0,0,1-30.9,5.7,41.4,41.4,0,0,1-9.3-.4c-8.8-1.4-15.6-5.7-19.5-14s-7.8-19.4-8.8-30c-.3-3.8-1.2-7.5-.8-11.3a36.7,36.7,0,0,1,4.5-14.4,122.6,122.6,0,0,1,25.5-32.3A90.9,90.9,0,0,0-55.5,96.4a20.4,20.4,0,0,0,3.4-17.7A21.9,21.9,0,0,0-55,73c-1.8-2.7-3.5-5.6-5.8-7.8-4.1-4.1-6.8-4.8-12.4-2.1a32,32,0,0,0-4.5,3A151.4,151.4,0,0,0-92.2,79.3a72.5,72.5,0,0,1-18.1,13.5,50.9,50.9,0,0,1-5.4,2.2c.3-1.3.3-2.7,1-3.7s1.2-3.9.8-5.9a45.1,45.1,0,0,0,13.2-10.1c8.2-8.6,16.3-17.4,24.2-26.3,6.1-6.9,13-12.4,21.7-15.6l6.4-2.3c1.8-.6,2.8-2.3,1.8-3.8-2.7-3.9-3.5-8.4-4.9-12.7a77,77,0,0,1-2.2-9.5c-.3-1-.5-1.9-.7-2.8s.3-3.9.4-5.8a1.7,1.7,0,0,0-2.3-1.7,3.9,3.9,0,0,0-1.8.6c-1.7,1.3-3.3,1-5.1.4a9.3,9.3,0,0,0-2.4-.4,19.5,19.5,0,0,0-.2-2.3c2.2-.6,3.6-2.2,4.8-4,3.3-5,2.8-9.5-3.1-13.2-1.8-1.1-3.9-1.8-5.8-2.8l-7.6-4.4A17.4,17.4,0,0,1-82.9-37,39.4,39.4,0,0,1-89-58.4c.2-7,3.2-13,7.3-18.4A6.1,6.1,0,0,1-76-79.1a28.2,28.2,0,0,1,9.4,2.7c2.5,1.2,4.9,2.6,7.3,3.9,4.8,2.6,9.5,5.3,14.3,7.8a29.5,29.5,0,0,0,15.2,2.8A164.1,164.1,0,0,1,4.5-60.2c3.7.5,7.3,1.6,11,2.4s8.9,2,13.4,2.8a31.6,31.6,0,0,1,7,2.1,48.5,48.5,0,0,0,6.9,2.6,10.1,10.1,0,0,0,12.4-6.9,29.1,29.1,0,0,0,1.1-10.2,33.6,33.6,0,0,1,3.2-16.2,3.9,3.9,0,0,1,.6-1.3,2.4,2.4,0,0,1,1.5-1,2,2,0,0,1,1.5,1c.9,2.8,1.8,5.6,2.6,8.4s.7,2.9,1.1,4.3a9.3,9.3,0,0,0,3.6,5.1c2.6,2,6.3,2.2,8.6,0s5.8-5.8,6.4-10.2c1-.9.9-2.7,2.7-3.3a3.9,3.9,0,0,1,.5,1.4c.2,2.9.3,5.8.4,8.7.2,6.5.4,13,1.8,19.4,2.1,9.2,4.3,18.4,5.2,27.8,0,.2.1.3.2.5,0,2.6.1,5.2.1,7.9a1.4,1.4,0,0,0,0,2c-.1,1.9-.2,3.8-.2,5.8S95.8-4.5,95.6-3.1ZM76.7-14.8a13.7,13.7,0,0,0-.2,2.9,2,2,0,0,0,.7,1.5,2,2,0,0,0,1.7-.3c1.4-1.5,2.4-3.2,3.8-4.5a7.2,7.2,0,0,0,2.4-4.7,39.1,39.1,0,0,0,.5-4.8c.2-6.1.3-12.1.4-18.2,0-3.9.1-7.8-.1-11.7-.1-2.2-1.5-3.2-3.6-3.1a5.7,5.7,0,0,0-3.6,1.4c-.9,1-1.7,2-2.6,2.9a36.8,36.8,0,0,1-3.7,3.2c-1.6,1.1-3.3.3-3.9-1.5s-.4-2.6-.7-3.9a5.1,5.1,0,0,0-.7-1.7,1.4,1.4,0,0,0-2.4.1,29.6,29.6,0,0,0-1.4,5.1c-1,4.8-1.8,9.7-2.8,14.5s-2.8,6.1-7,6.1l-.9.3-11.3-.5a16.5,16.5,0,0,1-9.6-3.2c-3.5-2.7-7.1-5.3-10.6-8.1s-5.7-3.9-9.4-3.7A84.8,84.8,0,0,0,1.6-45.2a14.3,14.3,0,0,0-7.8,5c-2.2,2.6-4.3,5.3-6.4,8.1a16.5,16.5,0,0,0-3,14.4,28.3,28.3,0,0,1,1.1,5.8c.3,6.3-7,11.5-13,9.5-4.2-1.5-6.1-4.9-6.9-8.9a38.3,38.3,0,0,1-.3-6.8,35.2,35.2,0,0,1,2.5-12,24.8,24.8,0,0,0,1.3-9.7c-.3-4.4-3.6-6.7-7.9-5.6A19.2,19.2,0,0,0-42.4-44c-.8.4-1.4,1-2.1,1.4s-2.4.5-3.4-.9-.9-1.7-1.5-2.5a16.4,16.4,0,0,0-3.2-3.7,29.1,29.1,0,0,1-6.5-6.6,48.3,48.3,0,0,0-5.5-5.6c-1.2-1-2.8-.5-3.8.8a6.8,6.8,0,0,0-.9,4.8c.5,4.4,1.6,8.6,4.8,12s6,7,9,10.4a21.1,21.1,0,0,1,4.2,7.8c2.6,9.2,4.5,18.5,4.7,28a33.5,33.5,0,0,0,5.5,17.6,8.1,8.1,0,0,0,4.5,3.6c5.6,1.4,11,1.4,16.2-1.7A41.1,41.1,0,0,0-6.1,7.6L4.9-9.9a35,35,0,0,1,3.3-4.3,10.5,10.5,0,0,1,2.6-1.4c1.5,2.5,2.1,5.1,3.1,7.5s4.6,6.3,8.9,6.7A29.3,29.3,0,0,0,40-4.4c2.5-1.3,4.9-2.7,7.4-3.9,4.9-2.2,10-4.2,15.6-3.9a19.3,19.3,0,0,0,11.3-2.4A4.8,4.8,0,0,1,76.7-14.8Zm-88,69.2c0-1.9.1-4.4-.1-6.8-.6-5.6-4.7-8.9-10.1-8.3a104.7,104.7,0,0,0-11.2,1.9c-4.9,1.1-10,2-14.6,4.1l-10.4,4.5-.8.5c-1.6,1-1.7,2.5,0,3.5,5.2,3,9.1,7.4,12.9,11.9A15.4,15.4,0,0,1-43,69.9a43,43,0,0,1,1.3,29.8,12.3,12.3,0,0,1-6.1,7.3c-3.5,2-7,4.3-10.3,6.6a34.2,34.2,0,0,0-10.5,10.9,22.5,22.5,0,0,0-1.9,4.5,1.9,1.9,0,0,0,2.4,2.2l4.1-1.7a92.1,92.1,0,0,1,8.7-3.4c2.5-.7,4,.3,5.1,2.7a12.8,12.8,0,0,1,.5,8.2c-1,4.9-3.9,8.2-8.9,9.3a41.7,41.7,0,0,1-4.9.8,39,39,0,0,0-9.5,2.4,15.1,15.1,0,0,0-8.2,6.7,52.3,52.3,0,0,0-5.3,12.1c-3.1,9.8,1.1,16.3,8.9,21.7a4.1,4.1,0,0,0,5.1-.4,17.3,17.3,0,0,0,2.6-2.8c1.1-1.7,2-3.4,3-5.1,1.9-3.4,3.8-6.9,5.9-10.2a27.7,27.7,0,0,1,12.6-10.6c2.5-1,4-.6,5.7,1.5a17.2,17.2,0,0,1,2,3.8c1,2.6.3,5.2-.4,7.7s-2.9,6-6.9,6.7a30.7,30.7,0,0,0-6.4,2.3,6.7,6.7,0,0,0-3.8,4.9,17.3,17.3,0,0,0,1.7,12.8c2.3,4.4,5.4,7.3,10.8,7h3.4c6.3-.5,11.4-2.9,14.2-9,.4-.9,1-1.7,1.4-2.6,2.4-5.6,5.2-11,6.9-16.8s4.6-14.3,7.3-21.4c1.2-3.2,1.7-6.6,2.7-9.9,1.7-6,2.9-12.1,2.4-18.4-.2-2.5-.3-4.9-.3-7.4A25.9,25.9,0,0,0-9.5,113a75.2,75.2,0,0,1-5.1-22.4,57.8,57.8,0,0,1,.1-9.3q.3-5.4.9-10.8c.4-3.4.8-6.8,1.3-10.2ZM94.8,193.5a5.6,5.6,0,0,0-4.7-2.4l-16.6-1.7c-10.3-1-20.5-2.1-30.8-3-4.6-.4-9.1-.8-13.7-.8a171.4,171.4,0,0,1-17.6-1.1,6.4,6.4,0,0,0-2.4.1,1.9,1.9,0,0,0-.9,3.1l1,1,10.8,10a43.3,43.3,0,0,0,5.3,4.3,27.2,27.2,0,0,1,10.3,12.2,11.9,11.9,0,0,1-.7,11.7,44.6,44.6,0,0,1-3.3,4.3,32.3,32.3,0,0,0-3.3,4.9c-3.4,7.4-6.3,15-6.8,23.4a58.2,58.2,0,0,0,1.4,15.6c.8,4,3.2,7.2,6.1,9.9s5.7,2.4,8.3-.1a7.3,7.3,0,0,0,1.9-3.3c.9-3.3,1.5-6.7,2.3-10.1s1.6-6.6,2.5-9.9a11.7,11.7,0,0,1,2-3.4,2.7,2.7,0,0,1,3.9-.5,6.8,6.8,0,0,1,2.3,2.5,43.6,43.6,0,0,1,1.7,5.1,32.9,32.9,0,0,0,2.1,6,5.8,5.8,0,0,0,5,3.5c5,.3,9.5-.9,12.6-5.2a28.4,28.4,0,0,0,3.6-6.3,74.6,74.6,0,0,0,4.3-18.1c.4-3.8-.2-7.3-2.5-10.3a13.7,13.7,0,0,1-2.3-11.7,41.7,41.7,0,0,1,7.9-17.7c2.8-3.5,5.9-6.7,8.8-10Z" style="fill: #c3bbb2"/>
    <path d="M96.2,244c-.3-.1-.7-.2-.8-.4-2-2.3-2.8-8.2-1-10.5a19.8,19.8,0,0,0,3.4-7,11.4,11.4,0,0,1,4.4-5.7c2.8-2.1,5.6-3.8,9.3-4.1a14.5,14.5,0,0,1,6.2.6,8.1,8.1,0,0,0,8-.5,4.1,4.1,0,0,1,5,.4l2.1,1.2c2.8,1.4,5.5,1.8,8.5.4s6.1-2.3,8.8-4.2a9.3,9.3,0,0,0,3.3-3.5,2.5,2.5,0,0,0-1.4-3.6,92.1,92.1,0,0,0-9.1-2,6,6,0,0,0-2.9.4l-8.7,3.1-4.1-2.9a3.8,3.8,0,0,1-1.5-3l16.5-2.4,1.4-.2c6.5-.2,12.6-2.1,18.8-3.4a12.9,12.9,0,0,0,6.4-3.4,7.4,7.4,0,0,0,2.4-5.7,5.6,5.6,0,0,0-6.4-5.8l-3.3.6-9.1,2c-6.8,1.5-13.7,1.3-20.5,2l-8.3.4a26.1,26.1,0,0,0,0-2.8c-.1-1.2-.8-1.7-2.2-1s.1,2.7.1,4h-3.9c.3-1.7.6-3.5,1-5.5s-2.6-3.4-1.9-5.9h.4l15.4-1.4c1.2,1.2,1.3,1.2,2.2-.4l11.8-1.4c1.1,1.4,1.3,1.4,2.1-.2l7.8-.8c.4.4.6.9,1,1,3.2.8,6.4,1.5,9.5,2a2.2,2.2,0,0,0,1.9-1.2c.9-1.8,1.3-3.7-.4-5.4l.6-6.5c1.4-1.1,1.4-1.3-.3-2.2l-.3-2a2.1,2.1,0,0,0,1.6-2c.1-1,0-2.1,0-3.2h.1c0-.3.2-.7.2-1a27.4,27.4,0,0,1-.2-5.7c.4-2,1.6-3.9,2.4-5.8h1.7c.6,1.4,1.3,2.6,3.1,2.6h6.8a2.2,2.2,0,0,0,2.2-1.5h1l1.4,2.2c1,2.9,1.9,5.8,3,8.7s2,4.8,1.7,7.5l-.3.2a1.5,1.5,0,0,0,.3.7c-.1,1-.2,2-.2,3l-.4.2a3.1,3.1,0,0,0,.2.8c-1.9,6.1-3.8,12.1-7.8,17.3-1.4,1.7-2.2,4-3.2,6s-1.4,3.7-2.1,5.5-3.5,4.7-5,7.2c-3.8,6.2-8.1,11.8-13.9,16.2l-1.4,1.4c-2.8,4.1-7,6.4-11.1,8.5s-9.9,2.9-15,0a31.4,31.4,0,0,0-7.8-2.7c-3.9-.8-7.8-1.4-11.6-1.9s-6.6,1-9.1,3.7a29.2,29.2,0,0,0-7.5,15.2A22.5,22.5,0,0,1,96.2,244Z" style="fill: #cbc1b4"/>
    <path d="M161.4,132.7l1.7-1.4c1.4.4,2.9.7,4.2,1.2a47.6,47.6,0,0,0,11.9,2.5,28.3,28.3,0,0,0,8.7-.5c2.9-.6,5.8-1,8.7-1.4a8.4,8.4,0,0,1,5.2.3c-.6.3-1.1.9-1.7.9-4.9-.1-9.6,1.1-14.4,1.8a19.5,19.5,0,0,1-4.8.4c-5.5-.5-11-.7-16.2-3.2A16.1,16.1,0,0,0,161.4,132.7Z" style="fill: #5d536c"/>
    <path d="M96.2,172.9c-.6.6-1.1,1.4-1.7,1.5a10.1,10.1,0,0,1-3,0,9.8,9.8,0,0,0-3.4-.2c-4.5,1-9,.8-13.6,1s-10.7.4-16.1,1-9.1,0-13.7-.3H40.4a15.1,15.1,0,0,1-3,.2,48.2,48.2,0,0,0-9.3,0c-4.2.4-8.4.5-12.6.6a26.3,26.3,0,0,1-4.9-.3c-2.5-.3-4.5-1.2-4.3-4.2,0-1.2-.8-1.7-1.5-2.4a2.5,2.5,0,0,1-.8-2.1c.1-.6,1-1.1,1.5-1.6l3,3.8c.8,1,1.5,2.1,3.1,2.5s1.1-1,1.8-1.4a8.2,8.2,0,0,1,2.6-1,39.4,39.4,0,0,1,10.3.5c2.4.5,4.8.7,7.2,1.1,9.6,1.7,19.2.9,28.8.4l18.5-1.4A34.1,34.1,0,0,1,96.2,172.9Z" style="fill: #b0a79c"/>
    <path d="M168.4,167.7c1.7,1.7,1.3,3.6.4,5.4a2.2,2.2,0,0,1-1.9,1.2c-3.1-.5-6.3-1.2-9.5-2-.4-.1-.6-.6-1-1,2.7-.6,5.3-1.6,8.1-1.1S167.3,168.8,168.4,167.7Z" style="fill: #c3bbb2"/>
    <path d="M164.2,150.3c-1.1-2.8-2-5.6-1.7-8.7A14.7,14.7,0,0,1,164.2,150.3Z" style="fill: #5d536c"/>
    <path d="M162.4,139.2l-1.8-3.7.7-.8A4.9,4.9,0,0,1,162.4,139.2Z" style="fill: #5d536c"/>
    <path d="M59.9,169c1-1.3,1.1-1.4,2.1-.2Z" style="fill: #b0a79c"/>
    <path d="M134.7,173.7c-.9,1.6-1,1.6-2.2.4Z" style="fill: #c3bbb2"/>
    <path d="M148.6,172.1c-.8,1.6-1,1.6-2.1.2Z" style="fill: #c3bbb2"/>
    <path d="M80.9,167c.9-1.3,1-1.3,2.1-.2Z" style="fill: #b0a79c"/>
    <path d="M164.5,158.2a2,2,0,0,1-.4-2.6A2.5,2.5,0,0,1,164.5,158.2Z" style="fill: #5d536c"/>
    <path d="M138.2,105.2l.4.6-.6.3a.5.5,0,0,1-.3-.3Z" style="fill: #cfc6b9"/>
    <path d="M76.6-14.8a4.5,4.5,0,0,0-2.3.2A19.3,19.3,0,0,1,63-12.2c-5.6-.3-10.7,1.7-15.6,3.9C44.9-7.1,42.5-5.7,40-4.4a29.3,29.3,0,0,1-17.2,3c-4.3-.4-7.2-2.8-8.9-6.7-1-2.4-1.6-5-3.1-7.5a10.5,10.5,0,0,0-2.6,1.4A35,35,0,0,0,4.9-9.9L-6.1,7.6A41.1,41.1,0,0,1-20.4,21.4c-5.2,3.1-10.6,3.1-16.2,1.7a8.1,8.1,0,0,1-4.5-3.6A33.5,33.5,0,0,1-46.6,1.9c-.2-9.5-2.1-18.8-4.7-28a21.1,21.1,0,0,0-4.2-7.8c-3-3.4-5.8-7-9-10.4s-4.3-7.6-4.8-12a6.8,6.8,0,0,1,.9-4.8c1-1.3,2.6-1.8,3.8-.8a48.3,48.3,0,0,1,5.5,5.6,29.1,29.1,0,0,0,6.5,6.6A16.4,16.4,0,0,1-49.4-46c.6.8,1,1.7,1.5,2.5s2,1.6,3.4.9,1.3-1,2.1-1.4a19.2,19.2,0,0,1,3.6-1.4c4.3-1.1,7.6,1.2,7.9,5.6a24.8,24.8,0,0,1-1.3,9.7,35.2,35.2,0,0,0-2.5,12,38.3,38.3,0,0,0,.3,6.8c.8,4,2.7,7.4,6.9,8.9,6,2,13.3-3.2,13-9.5a28.3,28.3,0,0,0-1.1-5.8,16.5,16.5,0,0,1,3-14.4c2.1-2.8,4.2-5.5,6.4-8.1a14.3,14.3,0,0,1,7.8-5,84.8,84.8,0,0,1,10.1-1.5c3.7-.2,6.6,1.6,9.4,3.7s7.1,5.4,10.6,8.1a16.5,16.5,0,0,0,9.6,3.2l11.3.5a12.3,12.3,0,0,0-.2,1.9c-9.5,2.1-18.2,1-25.9-5.5-2.5-2.1-5.1-4-7.7-6a11.5,11.5,0,0,0-6.2-2.9c-5.5-.5-10.7.4-15.2,4.1-2.9,2.4-5,5.6-7.3,8.6a15.1,15.1,0,0,0-2.6,13,32.5,32.5,0,0,1,.8,4.3c.8,7-2.4,11.8-9.1,13.7a26.6,26.6,0,0,1-3.9.7A11,11,0,0,1-35.8-5.9a20.8,20.8,0,0,1-2-9.5,45.1,45.1,0,0,1,1.9-13.1A64.9,64.9,0,0,0-34-36.1c.3-2.3.5-5-2-6s-4.4.6-6.1,2.2a37.1,37.1,0,0,0-2.3,3.2,2.2,2.2,0,0,1-3.7.1,21.1,21.1,0,0,1-2.6-5.2A10.2,10.2,0,0,0-55-47.6a19.3,19.3,0,0,1-6.1-6.3,8.6,8.6,0,0,0-4.2-3.7,8.5,8.5,0,0,0-.4,2.5,14.2,14.2,0,0,0,3.4,8.5l9,10.4c3.6,4,5.5,8.8,6.6,14.1A185,185,0,0,1-43,3.6c.2,4.9,2.1,9.2,4.5,13.4a6.8,6.8,0,0,0,4.6,3.3A17.4,17.4,0,0,0-19,17,44.3,44.3,0,0,0-6.8,3.7c3.5-6.1,7.3-12,11.1-18a23.2,23.2,0,0,1,4.1-4.8c2.4-2.1,4.5-1.5,5.7,1.5s1.9,4.9,2.7,7.4,4,5.4,7.8,5.7A27.9,27.9,0,0,0,40.3-7.8c3.8-2.1,7.8-4,11.9-5.8a20.4,20.4,0,0,1,9.5-1.8,23.9,23.9,0,0,0,5.9-.5c4.4-.7,7.9-2.9,9.7-7.3a12,12,0,0,1,1.3-2.1l3,.6a4.4,4.4,0,0,1-.4,5.4A35.9,35.9,0,0,1,78-15.7l-1.4.9Z" style="fill: #5d536c"/>
  </g>
</svg>
