<svg xmlns="http://www.w3.org/2000/svg" width="299" height="309" viewBox="0 0 299 309">
  <title>faitmapage</title>
  <g id="Layer_16" data-name="Layer 16">
    <path d="M299.2,10.8h-1.3a4.6,4.6,0,0,1-3.8-2.5,23.6,23.6,0,0,1-4.6-.2,8.3,8.3,0,0,1-2.2-.8l-6.5-.9c-1.9,1.2-4,1-6.1,1.1-9.5.3-19.1.4-28.6.6a4.8,4.8,0,0,1-4.3.8l-7-.3L232,8.4l-13.9-.5-2.9-.2a16.8,16.8,0,0,1-8.6-.4,41.7,41.7,0,0,0-14.1-1.2c-4,.4-8.1.1-12.2.1L159.8,6a153.6,153.6,0,0,1-24.4-2.1c-3.6-.3-7.1-.8-10.7-.9C112.1,2.4,99.5,1.9,87,1.6c-7.2-.2-14.4.2-21.6.1L49.6,1.5l-.3,3.2L65,4.9l18.6-.2a20.8,20.8,0,0,1,2.5,0L122.3,6c2.1.1,4.2.4,6.3.6,8.8.9,17.6,1.9,26.4,2.5,4.7.4,9.4,0,14.1-.1l3.4.2,6.8.3c3.1-.9,6-.2,9,.4l3.9-.3,2.1-.2c2.1-.3,4.2-.4,5.7,1.5l5,.6,8.7.4c1.7-.8,3.4-.5,5.1-.2h3.8a6.3,6.3,0,0,1,1.9-.3l13.9,1.4,3.9-.2c4.6-1.3,9.4-1,14.1-1.4,1-.5,2-1.5,3-1.6,4.5-.3,9.1-.4,13.6-.4,1.6-.1,2.1,1.3,2.1,2.8l.3,3.9.9.2c.1-1.1.1-2.1.3-3.2s1.1-1.7,2.3-1.4a2.2,2.2,0,0,0,.5-.8c.7-.9,1.2-2.1,2.6-1.6s.9,1.8.7,2.9v.4l.3.3c.9-1.1,2.2-1.2,3.6-1a38.3,38.3,0,0,0,11.2-.3l1.3-.2C299.1,11.1,299.1,11,299.2,10.8Z" style="fill: #5d536c"/>
    <path d="M210.3,129.4a6.9,6.9,0,0,1,.5,1.3c1.5,9.2,7,15.6,14.7,20.2a28.4,28.4,0,0,0,8.5,3.3c5.7,1.5,11.4,2.6,17.2,3.8,8.1,2.2,15.1,6.6,22.4,10.7a58,58,0,0,1,10.8,8.2c1.6,1.5,3.2,2.8,4.8,4.1a.5.5,0,0,0,.6.6,29.1,29.1,0,0,0,1.7,3,27.9,27.9,0,0,1,5.9,14.8c1.1,9.1-1.4,17-8.6,23.2-5.2,4.5-11.5,6.3-18.1,6.6a68.8,68.8,0,0,1-28.4-3.7l-4.2-1.3-1.7-1.1-12.8-7c-.3-.2-.9-.1-1.4-.1h-.1c.1-1.2-.8-1.6-1.6-2.1a58.2,58.2,0,0,1-18.2-21.5,47,47,0,0,1-2.8-7.4c-1-4.1-1.7-8.3-2.5-12.4l-3.9-19.8a20.4,20.4,0,0,0-1.3-4.2,9,9,0,0,0-1.6-1.9c-2,1-2.6,2.7-3.4,4.3-1.8,3.5-3.6,7-5.2,10.5a20.6,20.6,0,0,0-1.5,4.6,86.8,86.8,0,0,0,.5,27.4c1.3,7.9,2.6,15.9,3.5,23.8,1.2,9.5,3.6,18.7,6.1,27.8s1.5,15.2-2.5,22.3a15.8,15.8,0,0,1-3.9,5l-5.7,4.6c-4.4,3.7-9.5,4.3-14.8,3.3a33.8,33.8,0,0,1-6.2-1.8c-12-5-23.3-11.1-33.3-19.5a17,17,0,0,1-3.6-4c-2.8-4.4-6.1-8.5-7.8-13.5-.6-1.9-1.2-3.8-1.7-5.7a96.5,96.5,0,0,1-2.1-32.6,51.8,51.8,0,0,1,5.1-16.9c3.9-7.9,8-15.8,11.9-23.7.5-1,.9-2,1.4-3.3l-2.4-.9c1.5-1.8,3-3.6,6-4.1a20,20,0,0,0-.5,2.7,9.8,9.8,0,0,0,.5,2.2l-.8,1.8L117.1,186c-4.1,8.4-6.7,17.1-6.1,26.5.1,1.2,0,2.3,0,3.5a82,82,0,0,0,3.8,23.6,41.6,41.6,0,0,0,11.8,17.9,59.9,59.9,0,0,0,14.1,9.7l17.2,8.4a24.6,24.6,0,0,0,11,2.2,9.1,9.1,0,0,0,5.5-1.8c2.2-1.8,4.5-3.4,6.5-5.2,5.7-5,8.3-11.3,7.4-18.8-.4-3.3-1.3-6.5-2-9.7-1.2-5.7-2.7-11.4-3.8-17.2s-2-14.6-3.4-21.8a174.4,174.4,0,0,1-3.1-25.9l.3-5.9c.3-1.8.5-3.6.7-5.3a15.5,15.5,0,0,1,2.4-7.5,61.9,61.9,0,0,0,5.5-10.9,57.1,57.1,0,0,1,3.5-7,13.6,13.6,0,0,1,2.4-2.4l2.4,1.3,3,12.9c.7,3.3,1.5,6.6,2.1,10,1,6.3,1.8,12.6,3.3,18.8a50.3,50.3,0,0,0,19.1,28.9c6.2,4.6,13.2,7.9,20.1,11.3a38.1,38.1,0,0,0,13.6,4c3.6.3,7.1.7,10.7.9a33.6,33.6,0,0,0,16.3-2.9c6.7-2.9,11.2-7.9,12.7-15.2,2.1-9.9-1-18.5-7.8-25.7s-17.3-13.9-27.5-18.5c-6-2.8-12.4-4.1-18.8-5.4-4.2-.9-8.3-2-12.4-3.2a19,19,0,0,1-4.7-2.4c-4.7-2.6-7.8-6.9-11-11.1a18.5,18.5,0,0,1-4.1-10.8Z" style="fill: #706578"/>
    <path d="M24.6,171.3,12.5,165a22,22,0,0,1-6.9-6,18,18,0,0,1-4.3-11.1c-.1-2.1-.5-4.2-.7-6.2a11.2,11.2,0,0,1-.5-1.3c.6-.4,1.5-.8,1.7-1.4,1.2-5,4-9,6.9-13.1l.6-.7,2.8-2.9,1.6-1.4a15.1,15.1,0,0,0,2.2-1.1c10.5-7.2,22.2-10,34.9-8.9,5.7.5,11.4.6,17.1.7H83.6A57.1,57.1,0,0,1,99,114.3a39.1,39.1,0,0,0,10.6,1.7c4.8.2,9.6-.4,12.6-5a5.7,5.7,0,0,0,1.3-4.8c0-.8.1-1.7.1-2.5-.2-7.4-3.7-12.7-10.1-16.3L108,84.3C96.8,78.5,85.6,72.7,74.5,66.8c-4.2-2.2-8.2-4.8-12.2-7.4S54.7,54.3,51,51.5c-6.4-4.9-9-11.4-7.1-19.5a10.7,10.7,0,0,1,3.8-6.6,31.1,31.1,0,0,1,13.2-6c3.6-.9,7.4-1.4,11.1-2l7.9-.5c8.8-.5,17.4,1.2,25.8,3.2,6.9,1.6,13.7,4.4,20.3,7.3s13.9,8.5,20,14c2.7,2.4,5.5,4.7,8.3,6.9l10.6,7.9c6.8,4.9,13.3,10.2,21.2,13.2,2.6,1,5.2,1.9,7.8,3a26.9,26.9,0,0,1,2.9,1.6l-3,1.4h-2l-4.7-1.7-10.4-5-5.5-3.6a3.9,3.9,0,0,0-2.8-2.2.7.7,0,0,0-.6-.3,2.7,2.7,0,0,0-2.2-1.8l-2.4-1.6a2.7,2.7,0,0,0-2.2-1.8L156.4,54c-1.9-1.9-3.8-3.7-6.4-4.6h-.1a3.6,3.6,0,0,0-2.7-2.2h0a5.9,5.9,0,0,0-3.7-3.2h0a3.6,3.6,0,0,0-2.7-2.2l-1.5-1.3a6.1,6.1,0,0,0-4-3.2.6.6,0,0,0-.6-.3,2.7,2.7,0,0,0-2.2-1.8c-2.4-1.8-4.9-3.6-8-4.2-.6-1.3-1.9-1.7-3.1-2.2a105.2,105.2,0,0,0-37.5-9,12.4,12.4,0,0,0-3.3.4l-3.9.2c-2.5-.7-4.8-.1-7.1.7l-1.9.2a8.3,8.3,0,0,0-5.1,1.1l-3.1.8a6.7,6.7,0,0,0-5.1,2.4h-.1c-2.8.9-5.2,2.4-6.2,5.4s-.8,3.1-1.1,4.8c-.8,5.1,1.1,9.3,5.1,12.5,2,1.5,3.9,3.1,5.9,4.5,13.7,9.6,28.5,17.3,43.5,24.8,5.1,2.5,10.3,5,15.2,8A21.1,21.1,0,0,1,127,103.9c0,1.1.1,2.3.1,3.4a10.3,10.3,0,0,1-4.3,8.4,18.3,18.3,0,0,1-11,3.8A35.3,35.3,0,0,1,99.7,118c-9.2-3-18.6-3.6-28.2-3.5-6.5.1-13.1-.4-19.6-.5a97.3,97.3,0,0,0-10.8-.1c-11.4,1.2-21.7,4.8-29.5,13.8a27.9,27.9,0,0,0-6.7,12.4c-2,9.2,1.3,17.9,9.9,22.4,6.5,3.5,13.2,6.5,20,9.4a84.1,84.1,0,0,0,22.7,6.3c6.7.9,13.4.2,20.1-.6a52.9,52.9,0,0,0,20.5-6.1l12.2-6.5c1.4-.7,3-1.3,4.5-1.9a15.5,15.5,0,0,0,.4,2.1c-1.3,2.1-3.6,2.7-5.5,3.9s-3.2,1.6-4.8,2.5c-9.9,5.9-20.7,8.8-32.1,9.6-3.7.2-7.4.4-11.2.4a26.4,26.4,0,0,1-6.3-.6c-8.6-1.9-17.2-3.8-25.3-7.6C28.3,172.6,26.4,172,24.6,171.3Z" style="fill: #706578"/>
    <path d="M130.6,159.3a9.8,9.8,0,0,1-.5-2.2,20,20,0,0,1,.5-2.7c-3,.5-4.5,2.3-6,4.1l-5.7,4.2a13.4,13.4,0,0,1-1.1-1.4c1.6-1.4,3.2-2.7,4.7-4.2s3.3-3.1,4.8-4.7,5.3-6.1,6.4-10.2a1.6,1.6,0,0,1,1.5-.8,3.5,3.5,0,0,1,2,1,3.6,3.6,0,0,1,.3,2.3,32.5,32.5,0,0,1-1.1,4.2c-.9,1.7-1.6,3.5-2.6,5.1S131.6,157.5,130.6,159.3Z" style="fill: #4a435b"/>
    <path d="M115.2,165.2a15.5,15.5,0,0,1-.4-2.1l1.9-1.1,1.2,1.5Z" style="fill: #4a435b"/>
    <path d="M118.9,162.7l-1,.8-1.2-1.5,1.1-.7A13.4,13.4,0,0,0,118.9,162.7Z" style="fill: #4a435b"/>
    <path d="M210.3,129.4l-2.5,1.9c-.6-2.4-1.2-4.7-1.7-7.1a4.7,4.7,0,0,1,1.4-4.5,82.7,82.7,0,0,1,6.3-5.5c1.6-1.1,3.4-2,5-3a18.9,18.9,0,0,1,6.9-2.4c8-1.2,15.7-2.9,23-6.6,11.3-5.6,18.9-14.5,24.1-25.6a114.3,114.3,0,0,0,7.7-22.2c2.9-13.2,3.5-26.2-1.2-39.1a14.2,14.2,0,0,1-.2-2.9h3.5l.3.3a125,125,0,0,1,2.8,21.9,65.2,65.2,0,0,1-.9,11.7,123,123,0,0,1-3.1,14.9c-3.2,10.9-7.4,21.3-14.4,30.5-5.6,7.3-13,11.6-21.3,15.2-6.5,2.8-13.5,3.9-20.2,6a44.6,44.6,0,0,0-13,6.7,6.3,6.3,0,0,0-2.7,6.8C210.2,127.4,210.2,128.4,210.3,129.4Z" style="fill: #5d536c"/>
    <path d="M279.1,12.4a14.2,14.2,0,0,0,.2,2.9c4.7,12.9,4.1,25.9,1.2,39.1a114.3,114.3,0,0,1-7.7,22.2c-5.2,11.1-12.8,20-24.1,25.6-7.3,3.7-15,5.4-23,6.6a18.9,18.9,0,0,0-6.9,2.4c-1.6,1-3.4,1.9-5,3a82.7,82.7,0,0,0-6.3,5.5,4.7,4.7,0,0,0-1.4,4.5c.5,2.4,1.1,4.7,1.7,7.1a18.5,18.5,0,0,0,4.1,10.8c3.2,4.2,6.3,8.5,11,11.1a19,19,0,0,0,4.7,2.4c4.1,1.2,8.2,2.3,12.4,3.2,6.4,1.3,12.8,2.6,18.8,5.4,10.2,4.6,19.8,10.3,27.5,18.5s9.9,15.8,7.8,25.7c-1.5,7.3-6,12.3-12.7,15.2a33.6,33.6,0,0,1-16.3,2.9c-3.6-.2-7.1-.6-10.7-.9a38.1,38.1,0,0,1-13.6-4c-6.9-3.4-13.9-6.7-20.1-11.3a50.3,50.3,0,0,1-19.1-28.9c-1.5-6.2-2.3-12.5-3.3-18.8-.6-3.4-1.4-6.7-2.1-10l-3-12.9c1.6-.1,3.2.5,4.6-.3l.4-.5c.6-4.9,1.2-9.7,1.7-14.5a2.7,2.7,0,0,0-2-3,9,9,0,0,0-2.3-.8l9.5-7.4a11.4,11.4,0,0,0,1.1-1.1l3-1.9,3.1-1.4c2.8-1.6,5.5-3.6,8.5-4.9a114.8,114.8,0,0,0,12.3-5.8c2.7-1.4,5.6-2.6,7.7-5.1l4-2.8a17.3,17.3,0,0,0,3-1.6l13.3-10.9a16.5,16.5,0,0,0,4.5-5.7,44.4,44.4,0,0,0,2.4-4.9c3-7.6,6.2-15.2,9-22.8a30.9,30.9,0,0,0-.2-21.2c-.1-1.7-.3-3.4-.5-5v-2c.1-1.1.1-2.1.3-3.2s1.1-1.7,2.3-1.4A2.9,2.9,0,0,0,279.1,12.4ZM201.3,164a3.8,3.8,0,0,0-.1,1.5c.9,9.6,6.4,16.6,13.7,22.3a13.2,13.2,0,0,0,7.4,2.3,8.2,8.2,0,0,0,8.7-8.6,14.2,14.2,0,0,0-2.5-8.3,45.7,45.7,0,0,0-6.2-7.6,73.3,73.3,0,0,1-11.6-13.3,25,25,0,0,0-2.2-2.4c-.9-1.4-1.6-2.9-2.6-4.2s-.7-3.4-1-5.1c-4.2.8-4.6,1.3-5,4.8a25.7,25.7,0,0,1-.8,3.8,9.9,9.9,0,0,0-.3,2.4C199.7,155.7,199.5,160.1,201.3,164Zm67.9,33.3c1-6.6-1.3-11.8-6.6-15.8s-6.7-3.1-10.2,1.5c-1.1,1.4-1.9,3.2-3.2,4.3-3.1,2.8-4.5,6.3-5.4,10.2s.1,8.9,4,11.8,8.3,3.9,12.8,1.2a29.8,29.8,0,0,0,3-1.8,11.3,11.3,0,0,0,4.9-7C268.8,200.2,269,198.8,269.2,197.3Z" style="fill: #d2cabd"/>
    <path d="M244.8,90.2l-4,2.8c-1.2-1.8-2.7-2.7-4.9-2.3s-1.8-.4-2.4-1.3l6.2-4.7A53.2,53.2,0,0,0,250.1,75c3.3-2.2,5.1-5.5,6.9-8.8A163.9,163.9,0,0,0,267.6,41c2.3-7.1,2.4-14.1,1.6-21.3a3.6,3.6,0,0,0-1.8-2.8,17.2,17.2,0,0,1-2.1-1.5l2.1-3,1.8-.9,5.9.5.3,3.9c-1.9,1-2,1.2-.7,2.9-.3,1.4-.7,2.8.5,4l.6,2.8c.1.6.4,1.5.2,1.8-2,1.8-.8,4.3-1.3,6.3a3.4,3.4,0,0,0-2.5,2.3c-1.4,3.6-2.8,7.3-4.1,11-.5,1.5-.8,3.1-1.4,4.6-1.9,4.8-3.8,9.4-5.7,14.1a21.5,21.5,0,0,1-1.4,2.6L253.2,77a15.1,15.1,0,0,0-1.6,3.1A17.4,17.4,0,0,0,244.8,90.2Z" style="fill: #2f2e3a"/>
    <path d="M275.1,12l-5.9-.5c-.6-.9-1.2-1.1-2-.3s-3.5-.6-5.2.8l.9,4.5-1.5,2.2-4-5.6a17.4,17.4,0,0,0-1-1.9c1-.5,2-1.5,3-1.6,4.5-.3,9.1-.4,13.6-.4C274.6,9.1,275.1,10.5,275.1,12Z" style="fill: #4a435b"/>
    <path d="M279.1,12.4a2.9,2.9,0,0,1-.2-.9,2.2,2.2,0,0,0,.5-.8c.7-.9,1.2-2.1,2.6-1.6s.9,1.8.7,2.9v.4Z" style="fill: #4a435b"/>
    <path d="M274.7,18.8c-1.3-1.7-1.2-1.9.7-2.9l.9.2v2Z" style="fill: #4a435b"/>
    <path d="M250.1,75a53.2,53.2,0,0,1-10.4,9.7l-6.2,4.7L229.4,91a48.6,48.6,0,0,1-17.5,4.8,25,25,0,0,1-7.7-.5,33.3,33.3,0,0,1-10.9-4.4c-2.5-1.6-4.8-3.6-7.4-4.7s-6.6-4.8-9.1-8a28.3,28.3,0,0,0-2-2.8,2.2,2.2,0,0,0-3-.7,2.3,2.3,0,0,0-.5,3.1c.7,1,1.5,1.8,2.1,2.7,2.7,3.9,6,7.5,6.9,12.3l-4.4-.8c-.2.8-.6,1.4-.5,2,.2,3.8.4,7.5.8,11.2a36,36,0,0,1,.3,7.3c-.3,3.7.8,5.4,4.2,6.8a13.7,13.7,0,0,0,2.9.7c-.4,2.2-.9,4.4-1.3,6.5l-5.1-1c-1.6,3.2-1.5,3.9.5,5.6s1.3.9,1.9,1.5,1.9,2.5,1.1,4-.7,4.7-.9,7.4l-6,1.3c-.7,2.7-1.4,5-2,7.4a7.4,7.4,0,0,0,0,3.3c.6,2.6-.3,4.9-1.4,7.1a22.9,22.9,0,0,1-1.8,2.9c.6.9,1,1.8,1.6,2.6s1.1,1.5,1.8,2.5l4.3.4-.3,5.9c-.6.4-1.4.6-1.6,1-1.1,2.9-3.3,5.3-3.3,8.6.1,1.2-.8,2.5-1.3,3.7l-2.1,4.9a15.8,15.8,0,0,1,1.6,2.7c.3.9.8,2,.4,2.8a7.5,7.5,0,0,0,.3,7.4,2.6,2.6,0,0,1,0,1.5,5.3,5.3,0,0,0,2.4,5.5,4.3,4.3,0,0,1,1.7,4.3,16.8,16.8,0,0,1-.7,3.9,5.5,5.5,0,0,0,.3,4.7,11,11,0,0,1,.9,6.2,19.3,19.3,0,0,0,.9,10.1,13,13,0,0,1,.3,7.8c-.5,2.6-2.5,3.8-5.1,3.3a8.4,8.4,0,0,1-1.4-.6,2.6,2.6,0,0,0-3.4,1l-3.5,4.7a40.7,40.7,0,0,1-3.3,4.8c-2.6,2.9-4.9,3.3-8.3,1.5a4.7,4.7,0,0,0-3.6-.9c-1.5.3-2.5-.7-3.2-1.8s-.8-1.8-1.2-2.6h-1.1c-.9.5-1.9.9-2.7.1a8.2,8.2,0,0,1-1.2-2,3.7,3.7,0,0,1-.1-1.5,2.7,2.7,0,0,0-2.2-2.8,5.2,5.2,0,0,1-3.2-2.2,4.4,4.4,0,0,0-3.5-2.4c-2.4-.3-3.1-1.8-3.8-3.8a25.4,25.4,0,0,0-3.5-6.5c-3.7-4.7-3.3-4.2-2.8-9.8a19.4,19.4,0,0,1,.2-2.4c.7-6.8.6-5.6-3.2-10.1-.1-.1-.1-.3-.3-.9,1.7-1.3,1.5-3.8,2.4-5.9a8.7,8.7,0,0,0-.4-8.4,5.7,5.7,0,0,1,.2-6,13.7,13.7,0,0,0,2-6.5,4.3,4.3,0,0,1,2.5-3.9c2.2-1,3.4-2.8,4.7-4.8a23.4,23.4,0,0,0,3.7-12.5c0-.8.2-1.6.2-2.4a5,5,0,0,1,2.4-4.1,18.2,18.2,0,0,0,3.1-3.1c2-3,2-6.4,1.6-9.9,0-.4-.9-.8-1.4-1.2a32.5,32.5,0,0,0,1.1-4.2,3.6,3.6,0,0,0-.3-2.3,3.5,3.5,0,0,0-2-1,1.6,1.6,0,0,0-1.5.8c-1.1,4.1-3.7,7.2-6.4,10.2s-3.1,3.2-4.8,4.7-3.1,2.8-4.7,4.2l-1.1.7-1.9,1.1c-1.5.6-3.1,1.2-4.5,1.9l-12.2,6.5a52.9,52.9,0,0,1-20.5,6.1c-6.7.8-13.4,1.5-20.1.6a84.1,84.1,0,0,1-22.7-6.3c-6.8-2.9-13.5-5.9-20-9.4C6.2,158,2.9,149.3,4.9,140.1a27.9,27.9,0,0,1,6.7-12.4c7.8-9,18.1-12.6,29.5-13.8a97.3,97.3,0,0,1,10.8.1c6.5.1,13.1.6,19.6.5,9.6-.1,19,.5,28.2,3.5a35.3,35.3,0,0,0,12.1,1.5,18.3,18.3,0,0,0,11-3.8,10.3,10.3,0,0,0,4.3-8.4c0-1.1-.1-2.3-.1-3.4a21.1,21.1,0,0,0-10.3-18.5c-4.9-3-10.1-5.5-15.2-8C86.5,69.9,71.7,62.2,58,52.6c-2-1.4-3.9-3-5.9-4.5-4-3.2-5.9-7.4-5.1-12.5.3-1.7.7-3.2,1.1-4.8,2.9-.9,5.2-2.4,6.2-5.4h.1c2.2.2,4.4.5,5.1-2.4l3.1-.8c2.1,1.1,3.2.8,5.1-1.1l1.9-.2c3.1,1.8,4.1,1.7,7.1-.7l3.9-.2c1.3,1.5,3.2,1.2,5,1.4,3.8.5,7.8.5,11.4,2.1a10.2,10.2,0,0,0,6.2.9,4.9,4.9,0,0,1,2.9.3l11.5,4,6.9,2.1c3.1.6,5.6,2.4,8,4.2a1.8,1.8,0,0,0,2.2,1.8.6.6,0,0,1,.6.3c.3,2.4,2,3,4,3.2l1.5,1.3c0,1.8,1.2,2.1,2.7,2.2h0c.1,2.4,1.6,3.1,3.7,3.2h0c.5,1.9.5,1.9,2.7,2.2h.1a2.8,2.8,0,0,0,1.4,2.9c1.4.8,2.5,2.4,4.6,2l.4-.3,4.6,3.5a1.8,1.8,0,0,0,2.2,1.8l2.4,1.6a1.8,1.8,0,0,0,2.2,1.8.7.7,0,0,1,.6.3c.1,1.9,1.3,2.2,2.8,2.2l5.5,3.6c.4.7.7,1.6,1.2,1.9,2.4,1.2,4.9,2.3,7.4,3.3.5.2,1.2-.1,1.8-.2l4.7,1.7c1.1,2.3,3.2,2.3,5.2,2.4.2.1.5-.3.7-.5l1.8.7c.5,1.6.7,1.7,2,.7l1.9.6c.1,1.1.8,1.6,1.7,2.1a20.7,20.7,0,0,0,11,1.4c.3,0,.5-.3.8-.5l1.9.2c4.5,2.6,6.1,2.8,10.4,1.4,1.2-.4,2.2-.6,2.6-2s.1-.4.2-.6l2.5-.3a7.5,7.5,0,0,0,6.4-1.8l3.7-3.1A5.6,5.6,0,0,1,250.1,75Zm-220,83.8a2.3,2.3,0,0,0,2.5,1.3c1.9.9,3.8.5,5.8.4,5.4-.2,7.9-2.5,8.2-7.4a36.5,36.5,0,0,0-1.9-13.5,14.8,14.8,0,0,0-13.3-10.5c-3.9-.3-5.8,1.2-6.3,5.1s-.8,7.1-1,10.7a26.9,26.9,0,0,0,.6,6.3,7.1,7.1,0,0,0,1.1,2.1C26.6,155.6,27.6,157.8,30.1,158.8Zm122.8,42.9h0c3.5.5,6.8-.7,10.1-1.1a2.6,2.6,0,0,0,1.6-4.2c-.6-.8-1.4-1.4-1.9-2.2s-.7-1.8-.4-2.2a8.5,8.5,0,0,0,.6-8.7c-.2-.4,0-1,0-1.5a1.8,1.8,0,0,0-1.3-2.2,4.5,4.5,0,0,1-4.9,1.9c-.1-1-.2-2-.4-3,2.7-1.2,4.1-3.6,5.3-6a12.8,12.8,0,0,1,3.7-4.9c1.3-.9,1.1-2.2-.2-3.2l-1.2-.9-3.1-3.1c-1.1-1.1-2-2.4-3.1-3.6,1.2-1.9,3.7-2.1,4-4.4s.6-4.1-1.4-5.7l-6.7,4.1a3.7,3.7,0,0,0-3.9,2.8,3.5,3.5,0,0,0-2.2,2.9l-2.4,9c-1.5,2.6-3,5.1-4.4,7.7-3.2,0-4.1.6-3.8,3.3a8.2,8.2,0,0,0,1.2,2.5,7.7,7.7,0,0,1-.7,1.6l-6.3.6a1.9,1.9,0,0,0-1.2,3.3l1.3,1.4a4.5,4.5,0,0,1,.8,5.2l-2.9,1.4a4.2,4.2,0,0,0-2.1,3.2c-.3,1.9,1.5,10.4,2.5,11.8l.3.4,5.3,4.9,4-1.1c1.1-.2,1.8.5,2.3,1.5-2.7,3.5-4.2,7.7-5.6,11.8a17.7,17.7,0,0,0,0,11.6c1.5,4.4,4,8.1,8.4,10.3a7,7,0,0,0,7.4-.4,12,12,0,0,0,4.5-5.7l2-5c1.4.3,2.9.5,3.4,2.2a2.7,2.7,0,0,0,.7,1.3,2.2,2.2,0,0,0,3.4.3,6,6,0,0,0,1.8-5.4,13.2,13.2,0,0,0-2.3-5.3c-1.6-2.3-2.7-4.8-2-7.8s-.7-4.5-3.1-5.4a26.1,26.1,0,0,1-8.1-5.4c-.2-.2-.6-.2-.9-.3a4.2,4.2,0,0,0-3,3.5l-4.9-.9c0-3.2,0-3.2-2.6-4a14,14,0,0,1-1.7-.9c3.5.4,6.9,0,9.7-2.4C152.2,205.4,152.3,205.3,152.9,201.7ZM83.6,51.1c4-2.4,5.6-5.6,4.5-10.2a51.1,51.1,0,0,0-2.9-8.3,10.9,10.9,0,0,0-6.4-6.2,3.7,3.7,0,0,0-2.9-.2c-1.9.8-3.8,2-4.5,4.1a58.2,58.2,0,0,0-2.4,10,9.6,9.6,0,0,0,1.7,7.8l.9,1.8c.4,2.4,2.3,2.9,4.1,3.5a6.1,6.1,0,0,0,6-.4c.4-.2.6-.7.9-1.1A3.9,3.9,0,0,0,83.6,51.1Zm15.1,74.4H89.2c-3.6.1-7.1.6-10.7.5a40.8,40.8,0,0,0-13,2.2c-5.3,1.7-8.2,6.3-7.3,11.7.6,3.8,1.5,7.4,2.4,11a9.3,9.3,0,0,0,5,5.8,12.9,12.9,0,0,0,9,1.4,17.6,17.6,0,0,0,8.8-4.2c3.7-3.5,7.6-6.6,10.9-10.6s8.5-9.1,14.1-11.9a4.8,4.8,0,0,0,2-2,1.6,1.6,0,0,0-.4-1.7,4.2,4.2,0,0,0-2.2-.8Zm2.2-61.2h.9a15.7,15.7,0,0,1,15,1.5l8.3,5.3,10.6,6.2a1.7,1.7,0,0,0,2.2-.2,2.4,2.4,0,0,0,.7-2.7l-1.1-1.6-4.9-7.9a140.4,140.4,0,0,0-12.2-17.2,20.4,20.4,0,0,0-13.9-7.4c-4.3-.4-7.4,1.2-9.4,4.8-2.8,5.2-2.3,10.4.1,15.6A6.2,6.2,0,0,0,100.9,64.3Z" style="fill: #cfc6b9"/>
    <path d="M136.4,148.9c.5.4,1.4.8,1.4,1.2.4,3.5.4,6.9-1.6,9.9a18.2,18.2,0,0,1-3.1,3.1,5,5,0,0,0-2.4,4.1c0,.8-.2,1.6-.2,2.4a23.4,23.4,0,0,1-3.7,12.5c-1.3,2-2.5,3.8-4.7,4.8a4.3,4.3,0,0,0-2.5,3.9,13.7,13.7,0,0,1-2,6.5,5.7,5.7,0,0,0-.2,6,8.7,8.7,0,0,1,.4,8.4c-.9,2.1-.7,4.6-2.4,5.9.2.6.2.8.3.9,3.8,4.5,3.9,3.3,3.2,10.1a19.4,19.4,0,0,0-.2,2.4c-.5,5.6-.9,5.1,2.8,9.8a25.4,25.4,0,0,1,3.5,6.5c.7,2,1.4,3.5,3.8,3.8a4.4,4.4,0,0,1,3.5,2.4,5.2,5.2,0,0,0,3.2,2.2,2.7,2.7,0,0,1,2.2,2.8,3.7,3.7,0,0,0,.1,1.5,8.2,8.2,0,0,0,1.2,2c.8.8,1.8.4,2.7-.1h1.1c.4.8.7,1.7,1.2,2.6s1.7,2.1,3.2,1.8a4.7,4.7,0,0,1,3.6.9c3.4,1.8,5.7,1.4,8.3-1.5a40.7,40.7,0,0,0,3.3-4.8l3.5-4.7a2.6,2.6,0,0,1,3.4-1,8.4,8.4,0,0,0,1.4.6c2.6.5,4.6-.7,5.1-3.3a13,13,0,0,0-.3-7.8,19.3,19.3,0,0,1-.9-10.1,11,11,0,0,0-.9-6.2,5.5,5.5,0,0,1-.3-4.7,16.8,16.8,0,0,0,.7-3.9,4.3,4.3,0,0,0-1.7-4.3A5.3,5.3,0,0,1,170,210a2.6,2.6,0,0,0,0-1.5,7.5,7.5,0,0,1-.3-7.4c.4-.8-.1-1.9-.4-2.8a15.8,15.8,0,0,0-1.6-2.7l2.1-4.9c.5-1.2,1.4-2.5,1.3-3.7,0-3.3,2.2-5.7,3.3-8.6.2-.4,1-.6,1.6-1a174.4,174.4,0,0,0,3.1,25.9c1.4,7.2,2.1,14.5,3.4,21.8s2.6,11.5,3.8,17.2c.7,3.2,1.6,6.4,2,9.7.9,7.5-1.7,13.8-7.4,18.8-2,1.8-4.3,3.4-6.5,5.2a9.1,9.1,0,0,1-5.5,1.8,24.6,24.6,0,0,1-11-2.2l-17.2-8.4a59.9,59.9,0,0,1-14.1-9.7,41.6,41.6,0,0,1-11.8-17.9A82,82,0,0,1,111,216c0-1.2.1-2.3,0-3.5-.6-9.4,2-18.1,6.1-26.5l12.7-24.9.8-1.8c1-1.8,2.2-3.5,3.2-5.3S135.5,150.6,136.4,148.9Zm32.9,114.7c-2-1-2.4-1-3.5-.4s-2,1.7-1.9,3.2.5,1.3.9,1.4a2.4,2.4,0,0,0,2.2-.1A5.3,5.3,0,0,0,169.3,263.6Zm7.4-1.8c-.2-.2-.3-.6-.5-.8a3,3,0,0,0-4.7,1.4,1.5,1.5,0,0,0,.3,1.3,2.6,2.6,0,0,0,2.6,1A3.3,3.3,0,0,0,176.7,261.8Z" style="fill: #d2cabd"/>
    <path d="M176.3,171.5l-4.3-.4c-.7-1-1.3-1.7-1.8-2.5s-1-1.7-1.6-2.6a22.9,22.9,0,0,0,1.8-2.9c1.1-2.2,2-4.5,1.4-7.1a7.4,7.4,0,0,1,0-3.3c.6-2.4,1.3-4.7,2-7.4l6-1.3c.2-2.7-.2-5.1.9-7.4s0-2.9-1.1-4-1.3-1-1.9-1.5-2.1-2.4-.5-5.6l5.1,1c1.9,1.1,3.6,1.4,5.3-.4a22.5,22.5,0,0,1,3.6-2.4,22.9,22.9,0,0,1,.8,2.8c.7,2,.9,4-.8,5.8a4.1,4.1,0,0,0-.4,2.3c-.1,1.2,0,2.5,0,3.8a13.6,13.6,0,0,0-2.4,2.4,57.1,57.1,0,0,0-3.5,7,61.9,61.9,0,0,1-5.5,10.9,15.5,15.5,0,0,0-2.4,7.5C176.8,167.9,176.6,169.7,176.3,171.5Z" style="fill: #d2cabd"/>
    <path d="M190.8,138.4c0-1.3-.1-2.6,0-3.8a4.1,4.1,0,0,1,.4-2.3c1.7-1.8,1.5-3.8.8-5.8a22.9,22.9,0,0,0-.8-2.8l.3-1,4.1-2.1a9,9,0,0,1,2.3.8,2.7,2.7,0,0,1,2,3c-.5,4.8-1.1,9.6-1.7,14.5l-.4.5c-1.4.8-3,.2-4.6.3Z" style="fill: #cfc6b9"/>
    <path d="M218.8,82.6l-1.9-.2-13.5-3-1.9-.6-2-.7-1.8-.7-3.9-2,3-1.4,1.9.6a2,2,0,0,0,2.6,1l1.4.5c.4.9,1,1.2,1.9.5l1.8.6c.4,1,1,1.5,2,.7l7.9.8a11.2,11.2,0,0,0,8.8.6c1.2.1,2.4.1,3.2-1.1l3.8,1v2.2c-.1.2-.1.4-.2.6-3.2.5-6.4,1.5-9.6.3C221.2,81.9,220,82.5,218.8,82.6Z" style="fill: #4a435b"/>
    <path d="M124.5,30.8l-6.9-2.1-11.5-4a4.9,4.9,0,0,0-2.9-.3,10.2,10.2,0,0,1-6.2-.9c-3.6-1.6-7.6-1.6-11.4-2.1-1.8-.2-3.7.1-5-1.4a12.4,12.4,0,0,1,3.3-.4,105.2,105.2,0,0,1,37.5,9C122.6,29.1,123.9,29.5,124.5,30.8Z" style="fill: #bdb4ab"/>
    <path d="M187.1,73.8c-.6.1-1.3.4-1.8.2-2.5-1-5-2.1-7.4-3.3-.5-.3-.8-1.2-1.2-1.9Z" style="fill: #bdb4ab"/>
    <path d="M54.3,25.4c-1,3-3.3,4.5-6.2,5.4C49.1,27.8,51.5,26.3,54.3,25.4Z" style="fill: #bdb4ab"/>
    <path d="M156.4,54l-.4.3c-2.1.4-3.2-1.2-4.6-2a2.8,2.8,0,0,1-1.4-2.9C152.6,50.3,154.5,52.1,156.4,54Z" style="fill: #bdb4ab"/>
    <path d="M76.7,20.2c-3,2.4-4,2.5-7.1.7C71.9,20.1,74.2,19.5,76.7,20.2Z" style="fill: #bdb4ab"/>
    <path d="M193.8,75.4l3.9,2c-.2.2-.5.6-.7.5-2-.1-4.1-.1-5.2-2.4Z" style="fill: #bdb4ab"/>
    <path d="M59.5,23c-.7,2.9-2.9,2.6-5.1,2.4A6.7,6.7,0,0,1,59.5,23Z" style="fill: #bdb4ab"/>
    <path d="M67.7,21.1c-1.9,1.9-3,2.2-5.1,1.1A8.3,8.3,0,0,1,67.7,21.1Z" style="fill: #bdb4ab"/>
    <path d="M139.3,40.3c-2-.2-3.7-.8-4-3.2A6.1,6.1,0,0,1,139.3,40.3Z" style="fill: #bdb4ab"/>
    <path d="M147.2,47.1c-2.1-.1-3.6-.8-3.7-3.2A5.9,5.9,0,0,1,147.2,47.1Z" style="fill: #bdb4ab"/>
    <path d="M171.2,65.2c-1.5,0-2.7-.3-2.8-2.2A3.9,3.9,0,0,1,171.2,65.2Z" style="fill: #bdb4ab"/>
    <path d="M149.9,49.3c-2.2-.3-2.2-.3-2.7-2.2A3.6,3.6,0,0,1,149.9,49.3Z" style="fill: #bdb4ab"/>
    <path d="M143.5,43.8c-1.5-.1-2.7-.4-2.7-2.2A3.6,3.6,0,0,1,143.5,43.8Z" style="fill: #bdb4ab"/>
    <path d="M167.8,62.7a1.8,1.8,0,0,1-2.2-1.8A2.7,2.7,0,0,1,167.8,62.7Z" style="fill: #bdb4ab"/>
    <path d="M163.2,59.3a1.8,1.8,0,0,1-2.2-1.8A2.7,2.7,0,0,1,163.2,59.3Z" style="fill: #bdb4ab"/>
    <path d="M134.7,36.8a1.8,1.8,0,0,1-2.2-1.8A2.7,2.7,0,0,1,134.7,36.8Z" style="fill: #bdb4ab"/>
    <path d="M232,81.4V79.2l5.8-3.5a46.2,46.2,0,0,0,8.7-7.8c6.2-6.8,11.9-13.9,14.1-23.1s3.1-15.7,1-23.7a19.7,19.7,0,0,1-.3-2.4l1.5-2.2c4.1,9.7,2.9,19.5.4,29.3a46,46,0,0,1-9.5,17.5c-4.3,5.1-8.5,10.4-14.1,14.2l-5.2,3.6Z" style="fill: #5d536c"/>
    <path d="M225.1,79.3a11.2,11.2,0,0,1-8.8-.6,12.5,12.5,0,0,1,3.2-.5,54.6,54.6,0,0,1,5.7.4A1.7,1.7,0,0,1,225.1,79.3Z" style="fill: #706578"/>
    <path d="M225.1,79.3a1.7,1.7,0,0,0,.1-.7,2.7,2.7,0,0,1,3.1-.4C227.5,79.4,226.3,79.4,225.1,79.3Z" style="fill: #5d536c"/>
    <path d="M201.3,75.6a2,2,0,0,1-2.6-1A2.1,2.1,0,0,1,201.3,75.6Z" style="fill: #706578"/>
    <path d="M204.6,76.6c-.9.7-1.5.4-1.9-.5A1.2,1.2,0,0,1,204.6,76.6Z" style="fill: #706578"/>
    <path d="M208.4,77.9c-1,.8-1.6.3-2-.7Z" style="fill: #706578"/>
    <path d="M191.5,122.7l-.3,1a22.5,22.5,0,0,0-3.6,2.4c-1.7,1.8-3.4,1.5-5.3.4.4-2.1.9-4.3,1.3-6.5,1.9-2.4,1.9-5.2,1.6-7.9-.8-6.6-2-13.2-4.9-19.3-.9-4.8-4.2-8.4-6.9-12.3-.6-.9-1.4-1.7-2.1-2.7a2.3,2.3,0,0,1,.5-3.1,2.2,2.2,0,0,1,3,.7,28.3,28.3,0,0,1,2,2.8c2.5,3.2,5,6.3,9.1,8s4.9,3.1,7.4,4.7a33.3,33.3,0,0,0,10.9,4.4,25,25,0,0,0,7.7.5A48.6,48.6,0,0,0,229.4,91l4.1-1.6c.6.9,1.2,1.5,2.4,1.3s3.7.5,4.9,2.3c-2.1,2.5-5,3.7-7.7,5.1a114.8,114.8,0,0,1-12.3,5.8c-3,1.3-5.7,3.3-8.5,4.9l-3.1,1.4c.2-1.1.3-2.2.5-3.3a3.7,3.7,0,0,1,2.6-2.1,13.6,13.6,0,0,0,6.9-5.6,9.7,9.7,0,0,0-2.7-.7l-7.3.6a12.9,12.9,0,0,1-4.4-.3,49.6,49.6,0,0,1-12.5-5.5,25.3,25.3,0,0,0-6.9-3c-.4,1-.8,1.8-1.1,2.7a20.3,20.3,0,0,0,.6,4.3,57.1,57.1,0,0,1,3.3,18.7,12.8,12.8,0,0,0,.9,3.2,1.8,1.8,0,0,1,.5.7A2.2,2.2,0,0,0,191.5,122.7Z" style="fill: #4a435b"/>
    <path d="M269.2,197.3c-.2,1.5-.4,2.9-.7,4.4a11.3,11.3,0,0,1-4.9,7,29.8,29.8,0,0,1-3,1.8c-4.5,2.7-8.9,1.6-12.8-1.2s-5-7.1-4-11.8,2.3-7.4,5.4-10.2c1.3-1.1,2.1-2.9,3.2-4.3,3.5-4.6,5.7-4.8,10.2-1.5S270.2,190.7,269.2,197.3Zm-17.6,9.1c2.2,2.1,4.6,1.6,7.2.7,1.5.7,2.7,0,4-.9,5.6-4.3,6.6-16.5-.7-21.9-3.2-2.3-4.9-2.9-8.1,1.1a5.6,5.6,0,0,0-.7,2.3c-.8,1.9-1.6,3.8-2.3,5.8s-1.2,3.2-1.8,4.9c-2.5.6-3.1,1.2-2.9,3s1.2,4.1,3.1,5.3A1.5,1.5,0,0,0,251.6,206.4Z" style="fill: #5d536c"/>
    <path d="M208.5,149.9a25,25,0,0,1,2.2,2.4,73.3,73.3,0,0,0,11.6,13.3,45.7,45.7,0,0,1,6.2,7.6,14.2,14.2,0,0,1,2.5,8.3,8.2,8.2,0,0,1-8.7,8.6,13.2,13.2,0,0,1-7.4-2.3c-7.3-5.7-12.8-12.7-13.7-22.3a3.8,3.8,0,0,1,.1-1.5l2.4,2.3c.6,1.1,1.1,2.3,1.7,3.5.5,3.7,1.8,6.9,5.2,8.9h0l1.8,2.6,1.3,1.4a14.2,14.2,0,0,0,7.3,3.7c4.1.8,7.1-2,6.6-6.2a15.9,15.9,0,0,0-6.6-11.5c-5.5-4.1-9.3-9.6-13-15.2C208.2,152.4,208.3,151.1,208.5,149.9Z" style="fill: #4a435b"/>
    <path d="M274.7,33.7c.5-2-.7-4.5,1.3-6.3.2-.3-.1-1.2-.2-1.8l-.6-2.8,1.6.3a30.9,30.9,0,0,1,.2,21.2c-2.8,7.6-6,15.2-9,22.8a44.4,44.4,0,0,1-2.4,4.9,16.5,16.5,0,0,1-4.5,5.7L247.8,88.6a17.3,17.3,0,0,1-3,1.6,17.4,17.4,0,0,1,6.8-10.1c1.5-.7,3.2-1.1,4.4-2.1s3.3-3.1,5.1-4.5a13.6,13.6,0,0,0,4.3-7c1.6-6.4,4.2-12.3,6.4-18.5A49.2,49.2,0,0,0,274.7,33.7Z" style="fill: #4a435b"/>
    <path d="M208.5,149.9c-.2,1.2-.3,2.5-.5,3.7a11.8,11.8,0,0,1-1.8-1.3,21.3,21.3,0,0,1-2.1-2.2,2.6,2.6,0,0,0-1.8,2.9,74.6,74.6,0,0,0,1,8.1c.4,1.7,1,3.4.4,5.2l-2.4-2.3c-1.8-3.9-1.6-8.3-2.5-12.4a9.9,9.9,0,0,1,.3-2.4,25.7,25.7,0,0,0,.8-3.8c.4-3.5.8-4,5-4.8.3,1.7-.2,3.6,1,5.1S207.6,148.5,208.5,149.9Z" style="fill: #2f2e3a"/>
    <path d="M191.5,122.7a2.2,2.2,0,0,1-1.9-2.8c5.6-3.4,11.5-6.2,16.3-10.8a15.7,15.7,0,0,1,3.8-2.2c-.2,1.1-.3,2.2-.5,3.3l-3,1.9a11.4,11.4,0,0,1-1.1,1.1l-9.5,7.4Z" style="fill: #2f2e3a"/>
    <path d="M276.8,23.1l-1.6-.3c-1.2-1.2-.8-2.6-.5-4l1.6-.7C276.5,19.7,276.7,21.4,276.8,23.1Z" style="fill: #5d536c"/>
    <path d="M205.1,113.2a11.4,11.4,0,0,0,1.1-1.1A11.4,11.4,0,0,1,205.1,113.2Z" style="fill: #4a435b"/>
    <path d="M234.5,81.1l5.2-3.6c5.6-3.8,9.8-9.1,14.1-14.2a46,46,0,0,0,9.5-17.5c2.5-9.8,3.7-19.6-.4-29.3L262,12c1.7-1.4,3.5-.8,5.2-.8a5,5,0,0,0,.2,1.2l-2.1,3a17.2,17.2,0,0,0,2.1,1.5,3.6,3.6,0,0,1,1.8,2.8c.8,7.2.7,14.2-1.6,21.3A163.9,163.9,0,0,1,257,66.2c-1.8,3.3-3.6,6.6-6.9,8.8a5.6,5.6,0,0,0-5.5,1.2l-3.7,3.1A7.5,7.5,0,0,1,234.5,81.1Z" style="fill: #bdb4ab"/>
    <path d="M274.7,33.7A49.2,49.2,0,0,1,271.8,48c-2.2,6.2-4.8,12.1-6.4,18.5a13.6,13.6,0,0,1-4.3,7c-1.8,1.4-3.2,3.2-5.1,4.5s-2.9,1.4-4.4,2.1a15.1,15.1,0,0,1,1.6-3.1l6.4-8.7a21.5,21.5,0,0,0,1.4-2.6c1.9-4.7,3.8-9.3,5.7-14.1.6-1.5.9-3.1,1.4-4.6,1.3-3.7,2.7-7.4,4.1-11A3.4,3.4,0,0,1,274.7,33.7Z" style="fill: #a22818"/>
    <path d="M267.4,12.4a5,5,0,0,1-.2-1.2c.8-.8,1.4-.6,2,.3Z" style="fill: #5d536c"/>
    <path d="M98.7,125.5l9.1,1.4a4.2,4.2,0,0,1,2.2.8,1.6,1.6,0,0,1,.4,1.7,4.8,4.8,0,0,1-2,2c-5.6,2.8-10.1,7.1-14.1,11.9s-7.2,7.1-10.9,10.6a17.6,17.6,0,0,1-8.8,4.2,12.9,12.9,0,0,1-9-1.4,9.3,9.3,0,0,1-5-5.8c-.9-3.6-1.8-7.2-2.4-11-.9-5.4,2-10,7.3-11.7a40.8,40.8,0,0,1,13-2.2c3.6.1,7.1-.4,10.7-.5Zm-34.1,8.4h-.1a3,3,0,0,0-3,2.7,17.9,17.9,0,0,0,1,10.5c.7,1.7.5,4,2.8,4.8a5.5,5.5,0,0,0,4,2.4l3.8.7c5.5-.3,9.4-3.3,12.4-7.8l1-.2c4.2-3.1,7.1-7.4,10.4-11.4a7.3,7.3,0,0,0,.9-2.2h.4c3.3-1.1,3.3-1.1,4.7-3.6h-3c-1.9-.2-3.8-.8-5.7-.6a150.7,150.7,0,0,1-19,.1l-3.7.5a7.1,7.1,0,0,0-4.6,2.1l-.6.3C65.2,132.3,64.8,133,64.6,133.9Z" style="fill: #4a435b"/>
    <path d="M100.9,64.3a6.2,6.2,0,0,1-3.7-3.7c-2.4-5.2-2.9-10.4-.1-15.6,2-3.6,5.1-5.2,9.4-4.8a20.4,20.4,0,0,1,13.9,7.4,140.4,140.4,0,0,1,12.2,17.2l4.9,7.9,1.1,1.6a2.4,2.4,0,0,1-.7,2.7,1.7,1.7,0,0,1-2.2.2L125.1,71l-8.3-5.3a15.7,15.7,0,0,0-15-1.5Zm26-1.3h0a31.5,31.5,0,0,0-8.6-12.7,38.6,38.6,0,0,1-3.8-3c-2.5-2.7-5.8-2.9-9.1-3.1a4.7,4.7,0,0,0-4.5,2.4c-1.8,3-1.9,6.2-1.5,9.5a2.6,2.6,0,0,0,2.2,2.4c2.5.7,5,1.3,7.6,1.8s2.7.1,3.8.7c3.7,2,8,3.1,11.2,5.9,1,.9,2,1.9,3.7,1.4l.3-1.8h-.1a12.9,12.9,0,0,0-.4-1.9A10.9,10.9,0,0,0,126.9,63Z" style="fill: #4a435b"/>
    <path d="M140.7,173.2c1.4-2.6,2.9-5.1,4.4-7.7l2,1.4a12.5,12.5,0,0,1-.3,1.9c-1.1,2.8-2.3,5.5-3.5,8.3-.4.3-1.1.4-1.2.7-2.2,5.3-4.8,10.5-5.2,16.4a47.3,47.3,0,0,0-.1,5.3c.4,3.1,2.8,5.7,6.6,4.6l2.8-.9c4.2-2.6,6.7-6.1,6.9-11.1,0-1,.1-2,.1-3.1V176.6a15.8,15.8,0,0,0-.4-3.8c-.2-.7-.9-1.2-1.4-1.9l.3-1.9a3.6,3.6,0,0,0,.3-3.6l-1.2-2.7c-.6-3,.2-6.2-1.1-9.1a3.7,3.7,0,0,1,3.9-2.8c.4,1.3.9,2.6,1.4,3.9a8.3,8.3,0,0,0,.4,1.5,138.7,138.7,0,0,0,.9,22.3c.2,1,.3,2,.4,3s0,3.6-.1,5.3c-.3,5.2-.6,10.4-3.7,14.9h0l-4.4,3.6c-2.8,2.4-6.2,2.8-9.7,2.4s-5.3-4.4-5.5-8.2a26.1,26.1,0,0,1,1.8-12,55.8,55.8,0,0,0,2.3-6.9,7.7,7.7,0,0,0,.7-1.6C138.9,177.1,139.8,175.2,140.7,173.2Z" style="fill: #5d536c"/>
    <path d="M143.1,212.6l4.9.9a12.5,12.5,0,0,1,7.3,8.5,37.4,37.4,0,0,0,2.1,5.9,10.4,10.4,0,0,1,.7,7.9l-2,5a12,12,0,0,1-4.5,5.7,7,7,0,0,1-7.4.4c-4.4-2.2-6.9-5.9-8.4-10.3a17.7,17.7,0,0,1,0-11.6c1.4-4.1,2.9-8.3,5.6-11.8Zm5,31.3c1.6.5,2.8-.4,3.7-1.5a16.2,16.2,0,0,0,3.3-11.8,2.6,2.6,0,0,0-1.9-2.5c-.5-1.2-.9-2.4-1.3-3.6a7.5,7.5,0,0,0-7.3-5.9,2.2,2.2,0,0,0-2.3,1.4l-1.7,5.6c-1.9-.1-2.7,1-2.8,2.6s.4,2.9.3,4.3c-.2,3,1.2,5.3,2.7,7.5a1.1,1.1,0,0,0,1.7.4c1.6,1.5,3.3,2.6,5.6,2.5a3.4,3.4,0,0,1-.1,1c0,.1-.1.3-.1.4S148,244.1,148.1,243.9Z" style="fill: #5d536c"/>
    <path d="M25.8,153.3a7.1,7.1,0,0,1-1.1-2.1,26.9,26.9,0,0,1-.6-6.3c.2-3.6.5-7.1,1-10.7s2.4-5.4,6.3-5.1a14.8,14.8,0,0,1,13.3,10.5,36.5,36.5,0,0,1,1.9,13.5c-.3,4.9-2.8,7.2-8.2,7.4l.6-3.4c2.4.3,3.8-1.1,4.2-3.2a22.5,22.5,0,0,0-2-15.3,18.2,18.2,0,0,0-2.7-3.5c-.8-.9-1.8-.4-2.6.2l-3.1-.5c.2-.9.6-1.9-.6-2.3a2,2,0,0,0-2.5.6c-.6.8,0,1.4.4,2.1-2.4,2.9-2,6.4-1.8,9.8l.3,6.3Z" style="fill: #5d536c"/>
    <path d="M71.6,49.9l-.9-1.8a13.4,13.4,0,0,0,2.9-7.5,17.7,17.7,0,0,1,1.9-5.9c1.1-2.2,3.3-2.7,5.4-2.6a3.4,3.4,0,0,1,3.2,3.2,6.8,6.8,0,0,0,.9,2.2,4,4,0,0,1,.1,3.7,6.2,6.2,0,0,0,.4,5.7l-1.9,4.2a3.9,3.9,0,0,1-1,.8c-5.5.5-5.5.5-10.5-1.9Z" style="fill: #2f2e3a"/>
    <path d="M158.1,235.8a10.4,10.4,0,0,0-.7-7.9,37.4,37.4,0,0,1-2.1-5.9,12.5,12.5,0,0,0-7.3-8.5,4.2,4.2,0,0,1,3-3.5c.3.1.7.1.9.3a26.1,26.1,0,0,0,8.1,5.4c2.4.9,3.7,2.7,3.1,5.4s.4,5.5,2,7.8a13.2,13.2,0,0,1,2.3,5.3,6,6,0,0,1-1.8,5.4,2.2,2.2,0,0,1-3.4-.3,2.7,2.7,0,0,1-.7-1.3C161,236.3,159.5,236.1,158.1,235.8Z" style="fill: #d2cabd"/>
    <path d="M180.3,92.8c2.9,6.1,4.1,12.7,4.9,19.3.3,2.7.3,5.5-1.6,7.9a13.7,13.7,0,0,1-2.9-.7c-3.4-1.4-4.5-3.1-4.2-6.8a36,36,0,0,0-.3-7.3c-.4-3.7-.6-7.4-.8-11.2-.1-.6.3-1.2.5-2Z" style="fill: #d2cabd"/>
    <path d="M83.6,51.1l1.9-4.2a6.2,6.2,0,0,1-.4-5.7,4,4,0,0,0-.1-3.7,6.8,6.8,0,0,1-.9-2.2,3.4,3.4,0,0,0-3.2-3.2c-2.1-.1-4.3.4-5.4,2.6a17.7,17.7,0,0,0-1.9,5.9,13.4,13.4,0,0,1-2.9,7.5A9.6,9.6,0,0,1,69,40.3a58.2,58.2,0,0,1,2.4-10c.7-2.1,2.6-3.3,4.5-4.1a3.7,3.7,0,0,1,2.9.2,10.9,10.9,0,0,1,6.4,6.2,51.1,51.1,0,0,1,2.9,8.3C89.2,45.5,87.6,48.7,83.6,51.1Z" style="fill: #5d536c"/>
    <path d="M156.3,178.5a138.7,138.7,0,0,1-.9-22.3,8.3,8.3,0,0,1-.4-1.5c-.5-1.3-1-2.6-1.4-3.9l6.7-4.1c2,1.6,1.7,3.6,1.4,5.7s-2.8,2.5-4,4.4c1.1,1.2,2,2.5,3.1,3.6l3.1,3.1,1.2.9c1.3,1,1.5,2.3.2,3.2a12.8,12.8,0,0,0-3.7,4.9C160.4,174.9,159,177.3,156.3,178.5Z" style="fill: #d2cabd"/>
    <path d="M143.1,212.6l-1.7.6c-.5-1-1.2-1.7-2.3-1.5l-4,1.1-5.3-4.9-.3-.4c-1-1.4-2.8-9.9-2.5-11.8a4.2,4.2,0,0,1,2.1-3.2l2.9-1.4a4.5,4.5,0,0,0-.8-5.2l-1.3-1.4a1.9,1.9,0,0,1,1.2-3.3l6.3-.6a55.8,55.8,0,0,1-2.3,6.9,26.1,26.1,0,0,0-1.8,12c.2,3.8,1.3,7,5.5,8.2a14,14,0,0,0,1.7.9C143.1,209.4,143.1,209.4,143.1,212.6Z" style="fill: #d2cabd"/>
    <path d="M152.9,201.7c3.1-4.5,3.4-9.7,3.7-14.9.1-1.7.1-3.5.1-5.3a4.5,4.5,0,0,0,4.9-1.9,1.8,1.8,0,0,1,1.3,2.2c0,.5-.2,1.1,0,1.5a8.5,8.5,0,0,1-.6,8.7c-.3.4,0,1.6.4,2.2s1.3,1.4,1.9,2.2a2.6,2.6,0,0,1-1.6,4.2C159.7,201,156.4,202.2,152.9,201.7Z" style="fill: #d2cabd"/>
    <path d="M25.8,153.3l2.8-2a23.4,23.4,0,0,1,2.5,3c1.6,2.2,3.5,3.4,6.3,2.3a7,7,0,0,1,1.4-.3,1.2,1.2,0,0,1,.2.8l-.6,3.4c-2,.1-3.9.5-5.8-.4a1.9,1.9,0,0,0-2.5-1.3C27.6,157.8,26.6,155.6,25.8,153.3Z" style="fill: #4a435b"/>
    <path d="M149.7,153.6c1.3,2.9.5,6.1,1.1,9.1a3.4,3.4,0,0,0-2.2,1.7,20.7,20.7,0,0,1-1.5,2.5l-2-1.4,2.4-9A3.5,3.5,0,0,1,149.7,153.6Z" style="fill: #2f2e3a"/>
    <path d="M203.4,79.4l13.5,3c-.3.2-.5.5-.8.5a20.7,20.7,0,0,1-11-1.4C204.2,81,203.5,80.5,203.4,79.4Z" style="fill: #bdb4ab"/>
    <path d="M218.8,82.6c1.2-.1,2.4-.7,3.4-.3,3.2,1.2,6.4.2,9.6-.3-.4,1.4-1.4,1.6-2.6,2C224.9,85.4,223.3,85.2,218.8,82.6Z" style="fill: #bdb4ab"/>
    <path d="M71.6,49.9h.5c5,2.4,5,2.4,10.5,1.9-.3.4-.5.9-.9,1.1a6.1,6.1,0,0,1-6,.4C73.9,52.8,72,52.3,71.6,49.9Z" style="fill: #5d536c"/>
    <path d="M140.7,173.2c-.9,2-1.8,3.9-2.6,5.8a8.2,8.2,0,0,1-1.2-2.5C136.6,173.8,137.5,173.2,140.7,173.2Z" style="fill: #d2cabd"/>
    <path d="M148.5,205.3l4.4-3.6C152.3,205.3,152.2,205.4,148.5,205.3Z" style="fill: #d2cabd"/>
    <path d="M30.1,158.8a1.9,1.9,0,0,1,2.5,1.3A2.3,2.3,0,0,1,30.1,158.8Z" style="fill: #5d536c"/>
    <path d="M199.5,78.1l2,.7C200.2,79.8,200,79.7,199.5,78.1Z" style="fill: #bdb4ab"/>
    <path d="M169.3,263.6a5.3,5.3,0,0,1-2.3,4.1,2.4,2.4,0,0,1-2.2.1c-.4-.1-.8-.9-.9-1.4s.8-2.4,1.9-3.2S167.3,262.6,169.3,263.6Z" style="fill: #cfc6b9"/>
    <path d="M176.7,261.8a3.3,3.3,0,0,1-2.3,2.9,2.6,2.6,0,0,1-2.6-1,1.5,1.5,0,0,1-.3-1.3,3,3,0,0,1,4.7-1.4C176.4,261.2,176.5,261.6,176.7,261.8Z" style="fill: #cfc6b9"/>
    <path d="M209.7,106.9a15.7,15.7,0,0,0-3.8,2.2c-4.8,4.6-10.7,7.4-16.3,10.8a1.8,1.8,0,0,0-.5-.7c1-4,1.7-8,0-12a17.2,17.2,0,0,1-.4-2.4c-.4-2.6-.8-5.1-1.4-7.7s-1-3.5-3-4.1c.3-.9.7-1.7,1.1-2.7a25.3,25.3,0,0,1,6.9,3,49.6,49.6,0,0,0,12.5,5.5,12.9,12.9,0,0,0,4.4.3l7.3-.6a9.7,9.7,0,0,1,2.7.7,13.6,13.6,0,0,1-6.9,5.6A3.7,3.7,0,0,0,209.7,106.9ZM192.1,111c3.7-2.1,4.4-3.4,3.9-6.7l-4.2,2.6A35.8,35.8,0,0,0,192.1,111Z" style="fill: #a22818"/>
    <path d="M184.3,93c2,.6,2.6,2.3,3,4.1s1,5.1,1.4,7.7a17.2,17.2,0,0,0,.4,2.4c1.7,4,1,8,0,12a12.8,12.8,0,0,1-.9-3.2,57.1,57.1,0,0,0-3.3-18.7A20.3,20.3,0,0,1,184.3,93Z" style="fill: #7d7285"/>
    <path d="M249.2,198.4c.6-1.7,1.1-3.3,1.8-4.9s1.5-3.9,2.3-5.8a28.3,28.3,0,0,1,4-1.7,3.7,3.7,0,0,1,4.7,2.4c1.6,3.5,2.2,7.1.5,10.8s-2.5,5.3-3.7,7.9c-2.6.9-5,1.4-7.2-.7A16.6,16.6,0,0,1,249.2,198.4Z" style="fill: #2f2e3a"/>
    <path d="M203.7,166.3c.6-1.8,0-3.5-.4-5.2a74.6,74.6,0,0,1-1-8.1,2.6,2.6,0,0,1,1.8-2.9,21.3,21.3,0,0,0,2.1,2.2,11.8,11.8,0,0,0,1.8,1.3c3.7,5.6,7.5,11.1,13,15.2a15.9,15.9,0,0,1,6.6,11.5c.5,4.2-2.5,7-6.6,6.2a14.2,14.2,0,0,1-7.3-3.7l-1.3-1.4c.1-1.4-.1-2.5-1.8-2.6h0c-.3-3.8-2.3-6.6-5.2-8.9C204.8,168.6,204.3,167.4,203.7,166.3Z" style="fill: #a22818"/>
    <path d="M205.4,169.8c2.9,2.3,4.9,5.1,5.2,8.9C207.2,176.7,205.9,173.5,205.4,169.8Z" style="fill: #7d7285"/>
    <path d="M210.6,178.8c1.7.1,1.9,1.2,1.8,2.6Z" style="fill: #7d7285"/>
    <path d="M73.1,155.1l-3.8-.7a5.5,5.5,0,0,1-4-2.4,12.8,12.8,0,0,0-.5-2.7c-1.6-5.1-2.4-10.1-.3-15.3h.1l1.7-1.6.6-.3c.1,1.1.2,2.2.4,3.3s.4.4.9.7l2.1-3.2a18.6,18.6,0,0,0,3.3-.4c1.5-.4,2.2-1.4,1.6-3a150.7,150.7,0,0,0,19-.1c1.9-.2,3.8.4,5.7.6l-1.7,3.6h-.4c-1.7-.2-2.6.8-3.6,2s-3.9,4.8-6,7.1a5.8,5.8,0,0,0-1.7,4.5l-1,.2c-1.7-.3-2.8.6-4,1.4l-8,5.6A3,3,0,0,0,73.1,155.1Z" style="fill: #a22818"/>
    <path d="M64.5,134c-2.1,5.2-1.3,10.2.3,15.3a12.8,12.8,0,0,1,.5,2.7c-2.3-.8-2.1-3.1-2.8-4.8a17.9,17.9,0,0,1-1-10.5A3,3,0,0,1,64.5,134Z" style="fill: #706578"/>
    <path d="M86.5,147.1a5.8,5.8,0,0,1,1.7-4.5c2.1-2.3,4.1-4.7,6-7.1s1.9-2.2,3.6-2a7.3,7.3,0,0,1-.9,2.2C93.6,139.7,90.7,144,86.5,147.1Z" style="fill: #7d7285"/>
    <path d="M75.2,129.4c.6,1.6-.1,2.6-1.6,3a18.6,18.6,0,0,1-3.3.4L68.2,136c-.5-.3-.9-.5-.9-.7s-.3-2.2-.4-3.3a7.1,7.1,0,0,1,4.6-2.1Z" style="fill: #706578"/>
    <path d="M73.1,155.1a3,3,0,0,1,.4-.8l8-5.6c1.2-.8,2.3-1.7,4-1.4C82.5,151.8,78.6,154.8,73.1,155.1Z" style="fill: #7d7285"/>
    <path d="M98.2,133.5l1.7-3.6h3C101.5,132.4,101.5,132.4,98.2,133.5Z" style="fill: #7d7285"/>
    <path d="M66.3,132.3l-1.7,1.6C64.8,133,65.2,132.3,66.3,132.3Z" style="fill: #706578"/>
    <path d="M127.7,64.5a12.9,12.9,0,0,1,.4,1.9h.1l-.3,1.8c-1.7.5-2.7-.5-3.7-1.4C121,64.1,116.7,63,113,61c-1.1-.6-2.6-.4-3.8-.7s-5.1-1.1-7.6-1.8a2.6,2.6,0,0,1-2.2-2.4c-.4-3.3-.3-6.5,1.5-9.5a4.7,4.7,0,0,1,4.5-2.4c3.3.2,6.6.4,9.1,3.1a38.6,38.6,0,0,0,3.8,3c0,.8-.2,1.8.2,2.4,1.9,2.9,4,5.8,6.1,8.7.5.7,1.5,1,2.3,1.6h0A10.9,10.9,0,0,1,127.7,64.5Z" style="fill: #a22818"/>
    <path d="M126.9,63c-.8-.6-1.8-.9-2.3-1.6-2.1-2.9-4.2-5.8-6.1-8.7-.4-.6-.2-1.6-.2-2.4A31.5,31.5,0,0,1,126.9,63Z" style="fill: #706578"/>
    <path d="M127.7,64.5a10.9,10.9,0,0,0-.8-1.5A10.9,10.9,0,0,1,127.7,64.5Z" style="fill: #706578"/>
    <path d="M128.2,66.5h0Z" style="fill: #706578"/>
    <path d="M147.1,166.9a20.7,20.7,0,0,0,1.5-2.5,3.4,3.4,0,0,1,2.2-1.7l1.2,2.7-.3,3.6-.3,1.9c-1.2,4.1-.1,8.1.4,12.1.2,2.1-.1,4.3,1.4,6s-.1,2.1-.1,3.1-1.4.9-1.7,1.6a28.8,28.8,0,0,1-4.7,7.2c-.4.5-.3,1.5-.5,2.3l-2.8.9c-3.8,1.1-6.2-1.5-6.6-4.6a47.3,47.3,0,0,1,.1-5.3c1.9-1.3,2.7-3.3,3.4-5.3s1.5-4.6,2.2-7,.5-3.2.8-4.8,2.4-5.5,3.5-8.3A12.5,12.5,0,0,0,147.1,166.9Z" style="fill: #a22818"/>
    <path d="M143.3,177.1c-.3,1.6-.4,3.3-.8,4.8s-1.4,4.7-2.2,7-1.5,4-3.4,5.3c.4-5.9,3-11.1,5.2-16.4C142.2,177.5,142.9,177.4,143.3,177.1Z" style="fill: #7d7285"/>
    <path d="M153.2,189c-1.5-1.7-1.2-3.9-1.4-6-.5-4-1.6-8-.4-12.1.5.7,1.2,1.2,1.4,1.9a15.8,15.8,0,0,1,.4,3.8Z" style="fill: #7d7285"/>
    <path d="M146.2,203.2c.2-.8.1-1.8.5-2.3a28.8,28.8,0,0,0,4.7-7.2c.3-.7,1.1-1.1,1.7-1.6C152.9,197.1,150.4,200.6,146.2,203.2Z" style="fill: #7d7285"/>
    <path d="M151.7,169l.3-3.6A3.6,3.6,0,0,1,151.7,169Z" style="fill: #7d7285"/>
    <path d="M155,154.7a8.3,8.3,0,0,0,.4,1.5A8.3,8.3,0,0,1,155,154.7Z" style="fill: #cfc6b9"/>
    <path d="M140.6,225.6l1.7-5.6a2.2,2.2,0,0,1,2.3-1.4,7.5,7.5,0,0,1,7.3,5.9c.4,1.2.8,2.4,1.3,3.6.5,5.7-.6,10.8-5.1,14.8-2.3.1-4-1-5.6-2.5a29.1,29.1,0,0,1-1.9-14.3Z" style="fill: #2f2e3a"/>
    <path d="M140.6,225.6v.5a29.1,29.1,0,0,0,1.9,14.3,1.1,1.1,0,0,1-1.7-.4c-1.5-2.2-2.9-4.5-2.7-7.5.1-1.4-.3-2.9-.3-4.3S138.7,225.5,140.6,225.6Z" style="fill: #7d7285"/>
    <path d="M148.1,243.9c-.1.2-.2.3-.2.4v-.4Z" style="fill: #b0a79c"/>
    <path d="M38.8,156.3a7,7,0,0,0-1.4.3c-2.8,1.1-4.7-.1-6.3-2.3a23.4,23.4,0,0,0-2.5-3l-.3-6.3c-.2-3.4-.6-6.9,1.8-9.8l2.7-.4,3.1.5c1.6,3.4,3.3,6.7,4.9,10.1a8.4,8.4,0,0,1-.5,8.4Z" style="fill: #2f2e3a"/>
  </g>
</svg>
