<svg xmlns="http://www.w3.org/2000/svg" width="258" height="622" viewBox="0 0 258 622">
  <title>faitmapage</title>
  <g id="Layer_17" data-name="Layer 17">
    <path d="M11.5,495.1a7.1,7.1,0,0,1,.9-2.8c.2-.3.8-.4,1.2-.6s.1-1.3.2-2l-2.9-.4c-.2,2-.5,4-.8,5.9Z" style="fill: #5d536c"/>
    <path d="M17.8,419a13.7,13.7,0,0,1-.5-2.8c-.1-4-.2-8.1-.1-12.1s.4-8.4.7-12.5a6,6,0,0,1,.9-2.2c.5-7.4.9-14.8,1.4-22.2.1-1.8.3-3.5.5-5.3a32.9,32.9,0,0,1,.2-9.9c-.6-5.6-1.1-11.3-1.7-17,0-.6.1-1.3.1-1.9s-.5-2.7-.7-4a15.5,15.5,0,0,0-.4-2.1c-.1-.7-.1-1.3-.2-1.9a32.3,32.3,0,0,1-1.4-5.1,84.1,84.1,0,0,1-.6-11.2,92.9,92.9,0,0,0-2.4-22.3,15.7,15.7,0,0,1,0-2.2c2.6,1.2,3.9,3.4,6,4.6l2.5.3c1.3-.2,2.5-.6,2.5-2.3-1.9-1-4.3-1.1-5.6-3.2h-.9a1.8,1.8,0,0,1-1.6-1.6l-1.1-1.6a4.4,4.4,0,0,1-1.7-.7,4.9,4.9,0,0,1-.8-2.3c-.1-5-2.7-9.6-3.1-14.6-.1-1.6-.9-3.1-1.3-4.7S7.7,254,7.4,252s-.5-2.7-.7-4.1l-1.2-1.4c-1.9,4.5-3.4,9.3-4.9,14l.9,3.2c.7,1.9,1.5,3.6.3,5.5a2.5,2.5,0,0,0,.5,2.3c1.9,2.3,2.7,5.1,3.4,7.9l2.4-1.2a3.3,3.3,0,0,1,2.2,3.1c.1,1.3-.1,2.6-.1,3.9s.7,4.4,1.1,6.6a2.5,2.5,0,0,1,.5,2.6l.3,5.4c1.5,1,1.2,2.3.7,3.7v4.3c.7.6.8,1.3,0,1.9l.3,5c.7.6.9,1.2.1,1.9l-.3,2.1a10,10,0,0,0,.8,1.4h0l-.3,1.4c.2,1.7.5,3.3.7,4.9s.3,1.5.5,2.2c.3,2.3.5,4.6.8,6.9s.9,2.8,1.3,4.2a9,9,0,0,1,1.3,5.5c-.2,2.6-.6,5.3-.9,8v2.3c1.5,2.2.3,4.7.7,7,0,.3-.6.7-.9,1.1-.1,2.5-.3,5.1-.4,7.7s1.1,2.5,0,3.8v2.1c1.5,1.5,1.4,1.6-.1,3.1s-.9,5.8-1.3,8.7a8.7,8.7,0,0,1-.8,7.7c-.2,3-1,5.9-.2,8.9,1.4,1.3,1.2,2.6,0,3.9l.3,6.1c.7.6.8,1.2,0,1.8,0,3.4-.1,6.7-.2,10,.8.7.8,1.3,0,1.9s-.1,2-.1,3a2.1,2.1,0,0,0,1.8-1.8,23.6,23.6,0,0,1,1.2-2.8C17.3,424.8,17.5,421.9,17.8,419ZM7.5,270.2c-.4-.3-1.1-.6-1.2-1A39,39,0,0,1,5,263.5c-.3-1.6.4-2.8,1.7-4.2.8,2,.2,3.9.5,5.5s.7,3.2,1,4.8Z" style="fill: #4a435b"/>
    <path d="M84.5,159.5c-.2-1-.6-1.9-.7-2.8-.5-8.4-.9-16.7-1.5-25-.5-6.7-1.3-13.4-2-20.1-1.6-14.5.3-28.7,4.4-42.7C87.8,58.7,92,49,96.2,39.2c3.4-7.8,6.7-15.7,10-23.5a8.3,8.3,0,0,1,.7-1.3,1.8,1.8,0,0,1,2.9-.3,4.6,4.6,0,0,1,1.6,3.4c0,3.3.2,6.6,0,9.8-.6,7.9-1.4,15.7-2,23.5a61.2,61.2,0,0,0,.4,7.4c.5,5.7.7,11.5,1.9,17.1,1.6,8.1,3.8,16.2,6,24.3s4.2,15.1,6.2,22.7a38.2,38.2,0,0,1,.6,6.8c.3,3.1.4,6.2.6,9.3a9.7,9.7,0,0,1-.1,2.4l-2.1-.3c-.3-4.1-.6-8.2-1.1-12.3a15.7,15.7,0,0,0-.8-3.1,35.3,35.3,0,0,0-3.4-14.3,14.6,14.6,0,0,1-1.2-3.7c-2.1-7.8-4.2-15.5-6.2-23.3a61.4,61.4,0,0,1-1.5-7.2c-.7-5.7-1.3-11.4-1.9-17.1a96.3,96.3,0,0,1,0-18.6c.4-4.7.9-9.5,1.3-14.2.1-.8.2-1.7-1.2-2a13.1,13.1,0,0,0-3,4.8L94.6,50.1A142.8,142.8,0,0,0,83.9,86.2l-.7,7.1L82.9,97v2.1c0,1.3-.1,2.6-.1,3.9a21.8,21.8,0,0,0-.1,2.5c.5,6.3,1.1,12.7,1.7,19,.2,1.9.6,3.9.7,5.8.4,7.9.8,15.7,1.1,23.5.1,1.7.1,3.3.2,4.9Z" style="fill: #706578"/>
    <path d="M185.7,159.6l6.3,6.1c8.3,8.2,14,18,18.4,28.7a37.1,37.1,0,0,1,1.4,24.4,73,73,0,0,1-2.6,7.9,9.1,9.1,0,0,1-1.7,2.3c.1-1.2.2-2.5.4-3.6l-2.2-2.4c.7-.6,1.7-1.1,2-1.9,3-8.5,3.4-17.1,0-25.5a80.3,80.3,0,0,0-15.6-25.4,67.6,67.6,0,0,0-10.9-9.8,2.1,2.1,0,0,0-3.1.2c-1.1-.8-2.4-1.4-2.7-2.9s1-1,.9-1.5c-.1-2.2.1-4.1,1.6-5.9s2-4.8,1.6-7.4a15.3,15.3,0,0,0-2.8-7.3,16.1,16.1,0,0,0-4.4-7.1l-2.7-3.3a29.5,29.5,0,0,0-6.7-7.8h-.2l-.9-1.3-.5-.6v-.4l-.3.4h-.2l-.9.8-2.4,3.8-1.6,2.4a135.3,135.3,0,0,0-11.5,39.9c-.7,5.8-1.1,11.7-1.8,17.6-.2,1.9-.6,3.8-.9,5.8l-2.7-.6c.5-3.9,1.2-7.7,1.5-11.7a173.4,173.4,0,0,1,9.2-43.9c1.1-3.1,2.4-6.1,3.8-9.1s3.6-7.3,5.6-11.2a13.1,13.1,0,0,1,2.9,1.7c5.1,6,10.2,12,14.9,18.2a39.9,39.9,0,0,1,4.7,8.6c2.2,5,2.6,10.1-.4,15a5.9,5.9,0,0,0-.6,1.4c.2,2.3,2,3.2,3.7,4.1Z" style="fill: #706578"/>
    <path d="M22.1,289.2c1.3-.2,2.5-.6,2.5-2.3l5.2,1.3c2.3.5,4.6,1.5,7.4,1.3.2-.9.8-1.8.7-2.7a53.6,53.6,0,0,0-.6-6.9c-.3-3-.7-6.1-.9-9.2a29,29,0,0,1,2.3-13.4,24.6,24.6,0,0,1,2.2-3.9,7.3,7.3,0,0,1,6.8-3.2,48.9,48.9,0,0,1,5.3.9c6.6,1.9,12.1,5.5,17.4,9.8l5.2,4.4-3.6.5-3.3-2.3-2.8-2.2L64.1,260l-1.1-.8a28.7,28.7,0,0,0-13-5.4c-4.3-.8-6,.1-7.9,4a25.9,25.9,0,0,0-2.7,13.4c.4,3.6.9,7.1,1.2,10.7s.7,7.8.8,11.8c.1,2.3-1.6,3.3-3.5,1.9a20.7,20.7,0,0,0-6.2-2.9Z" style="fill: #5d536c"/>
    <path d="M85.5,267c4.2-5.7,6.1-12.2,7.1-19.1a105,105,0,0,0,.9-24.4c-.7-8.2-1.6-16.3-2.8-24.4-.9-6-2.4-11.8-3.5-17.8-.8-3.8-1.4-7.7-2-11.6a19,19,0,0,1-.1-3.4l3.4.9c-.8,2.5-.2,4.9.3,7.3s1.3,7.4,2.2,11.1a216.6,216.6,0,0,1,5,33.9,138,138,0,0,1,.5,15.7c-.4,9.4-1.7,18.6-5,27.5l-.6.9c-.5.9-1,1.8-1.6,2.7l-2.1,2.2a.9.9,0,0,1-.7.1A14,14,0,0,1,85.5,267Z" style="fill: #706578"/>
    <path d="M122.9,140.5l2.1.3a28.7,28.7,0,0,1-1.3,11.6c-1.2.7-1.4,1.7-.5,2.9v4.5a6.1,6.1,0,0,1,.7,1.4L132,177l-.3,3.9c-.8-.4-1.6-.7-2.3-.1s-2.7,2.3-4,3.5a2.1,2.1,0,0,1-3.3-.3,3.6,3.6,0,0,1-.8-1.8c-.1-3.7-1.8-6.6-4.3-9.4s-1.5-3.5-2.3-5.3c-2.1-5.1-2.1-5.1,1.6-8.7a11.1,11.1,0,0,0,5.3-8.2C122.2,147.3,122.5,143.9,122.9,140.5Zm-4.2,27.7c.2,2.5,1.3,4.1,3.2,4.8s3.1-.3,4.1-2.1c-1.1-2-1.4-4.5-3.9-6Z" style="fill: #4a435b"/>
    <path d="M205.7,223l2.2,2.4c-.2,1.1-.3,2.4-.4,3.6a50.5,50.5,0,0,1-3.1,12h-2.2c-1.5-1.5-2.6-.3-3.7.5,1.1,2.9,1.1,2.9,2.9,4.2l2.1,1.4-.2,2.9-3.3,1.2c-1.9,2.2-3.9,4.1-7.2,3a10.6,10.6,0,0,1,1.1-11.9c1-1.3,1.5-2.4.9-4a7.2,7.2,0,0,1,.9-6.5,9.4,9.4,0,0,0,1.1-6.1,12.7,12.7,0,0,1,.6-1.8c1.7-3.4,3.5-4,6.8-2A8.8,8.8,0,0,1,205.7,223Zm-9,23a2.6,2.6,0,0,0-1.7,3.4,1.9,1.9,0,0,0,1.6.6,2.4,2.4,0,0,0,.9-3.7C197.4,246.1,197,246.1,196.7,246Zm6.9-11.3c1.5-1.1,1.4-2.5,1.4-3.7s-.7-1.2-1.1-1.2a1.6,1.6,0,0,0-1.5.9C201.7,232.2,202.1,233.5,203.6,234.7Z" style="fill: #4a435b"/>
    <path d="M200,251.1l3.3-1.2a31.7,31.7,0,0,1,.2,4.3c-1,12.5.2,24.7,2.5,37a140.4,140.4,0,0,0,6.9,22.9c1.5,5.1,4.1,9.7,6.4,14.5l2.7,5.1a4.9,4.9,0,0,1-6.2-1.7,2.6,2.6,0,0,0,.4-3.1l-2.4-5.2a20.9,20.9,0,0,0-1.4-1.7l-1.5.8a9.1,9.1,0,0,0-.9-1.7,11.4,11.4,0,0,0-1.6-1.5.9.9,0,0,1-.3-.6c1.8-1,1.4-2.5.7-3.9.7-3.1-.5-5.7-2.1-8.1-.1-.2-.6-.2-.9-.3s-.5-2.3-.7-3.4.8-1.2,0-1.8h0a6.1,6.1,0,0,0,0-1.9c-.7-3.9-1.6-7.7-2.2-11.5a125.3,125.3,0,0,1-2.3-24.4c.1-3.4.1-6.8.1-10.2A7.3,7.3,0,0,0,200,251.1Z" style="fill: #706578"/>
    <path d="M138.9,185.2l2.7.6c-.1,1.8-.6,3.8,2,4.5l1.1.6,1.4.9.3,3.9c.3,2.6-1.2,4.1-3.6,5.2a3.3,3.3,0,0,1-4.3-1.3,28.2,28.2,0,0,1-1.8-2.9l-2.6.9c-2.5.4-4-.4-5-2.8s-.7-5.6,2.6-8.4l1.5-.6.6-1.7,3-.2Zm-.7,7.3c.6-.7,1.1-1.1,1-1.3a2.4,2.4,0,0,0-1-1.4c-.1-.1-1,.4-1,.5S137.8,191.5,138.2,192.5Z" style="fill: #4a435b"/>
    <path d="M88.5,167.2l-3.4-.9-.6-6.8,1.9-.8c.8.2,1.6.2,2-.7s1.3-2.4,2-3.8h4.4c3.8,4,3.9,7,.3,11.1l-2.6,2.1C91.1,168.2,89.9,167.5,88.5,167.2Zm2.7-3.2c1.5-.5,2.4-.9,2.7-1.9a3.8,3.8,0,0,0,0-3.7c-.2-.4-1.3-.4-1.6,0S90.9,161.6,91.2,164Z" style="fill: #4a435b"/>
    <path d="M85.5,267a14,14,0,0,0,1,1.6l-1.8,1.3c-1.9,1.3-4,1.1-6,.4l-3.1-1.4c-.1-.1-.2-.2-.4-.1s-.7-2.5.9-3.1C79,267.8,82,268.7,85.5,267Z" style="fill: #5d536c"/>
    <path d="M136.8,183.9l-3,.2a4.2,4.2,0,0,1-2.1-3.2l.3-3.9Z" style="fill: #706578"/>
    <path d="M202.2,240.9h2.2c.1,2,.2,4.1-.9,6l-2.1-1.4C201.6,244,201.9,242.5,202.2,240.9Z" style="fill: #706578"/>
    <path d="M123.2,155.3c-.9-1.2-.7-2.2.5-2.9A2.2,2.2,0,0,1,123.2,155.3Z" style="fill: #706578"/>
    <path d="M258.4,358.3h-.7c0-.2.1-.5.1-.7s.4-.1.4,0A1.4,1.4,0,0,1,258.4,358.3Z" style="fill: #d9d0c3"/>
    <path d="M209.7,234.3a1.2,1.2,0,0,0-.5-.5l.6-.4.3.2Z" style="fill: #d2c9bc"/>
    <path d="M123.9,161.2a6.1,6.1,0,0,0-.7-1.4A6.1,6.1,0,0,1,123.9,161.2Z" style="fill: #706578"/>
    <path d="M108.6,604.8c-.7-2-.3-4.1,0-6.1s2.1-4.6,4.1-6.3l.4-.2,2,1.5c-3.1,2.9-4.4,6.5-3.4,10.6,1.8,7.3,13.3,15.2,21.9,7.3a26.7,26.7,0,0,1,4.3-3.2,36.5,36.5,0,0,0,10.6-10.1,71.5,71.5,0,0,0,4.9-7.3c4.9-8.9,9.7-17.8,14.4-26.8a45.8,45.8,0,0,1,9.3-12.5c6.6-6.3,13.4-12.4,20.2-18.6,4.8-4.2,7.1-9.9,9.2-15.8a56.3,56.3,0,0,0,5.8-25.1c-.1-6.8-.3-13.5-3.7-19.6l-.9-2.8a44,44,0,0,0-1.8-5.1c-2.2-4.6-4.5-9.1-6.7-13.7L191,434.8l2-1.4c1.8,3.2,3.7,6.3,5.4,9.5s3.7,7.1,5.6,10.7l3.1,6.4c2,4.9,3.9,9.8,5.8,14.7.3.8.5,1.7.8,2.6s.3,2.9.6,4.3a62.7,62.7,0,0,1-.9,24.4,100.1,100.1,0,0,1-5.8,16.7c-1.2,3-2.8,5.8-4.3,8.7s-3.9,4-6,5.8c-6,5.6-12.1,11-18,16.6a45.4,45.4,0,0,0-6.9,8.3,115.9,115.9,0,0,0-7.3,13.4,170.4,170.4,0,0,1-13.9,24.2,39.9,39.9,0,0,1-7.6,8.3,130.3,130.3,0,0,1-12,8.6,11.6,11.6,0,0,1-10.8,1.1c-5.6-2.1-9.9-5.6-12-11.5A6.8,6.8,0,0,0,108.6,604.8Z" style="fill: #706578"/>
    <path d="M224.7,337.7c1.6,2.2,3.4,4.3,4.9,6.6a101.4,101.4,0,0,1,9.5,17.8,16,16,0,0,1-5,18.5l-4.7,3.7a164.3,164.3,0,0,0-30.1,29.4c-2.3,2.8-4,6-6,9-.6.8-1.1,1.6-1.6,2.4-.5-.9-.9-1.8-1.4-2.6,1.6-4.6,4.7-8.2,7.8-11.7,4.7-5.2,9.5-10.3,14.3-15.5,1.8-1.1,3.4-2.4,4-4.5l1.3-.7c4.3-3.5,8.7-6.8,12.9-10.5,7.1-6.3,8.3-11.2,4.3-20.4a114.8,114.8,0,0,0-5.6-10.3c-1.3-2.2-2.9-4.3-4.4-6.4s-2.1-1.3-3.3-.4c-.2-2.6-.2-2.6,1.8-3.6Z" style="fill: #706578"/>
    <path d="M190.3,422.5c.5.8.9,1.7,1.4,2.6-.9,3,.1,5.6,1.3,8.3l-2,1.4-1.7-2.4a9.3,9.3,0,0,0-2.6,1.5c-1.4,1.4-2.8,1-4.3.1l-.9-1.2c-.4-2.1-.7-4.1-1.1-6.2l.6-1.3a3.1,3.1,0,0,1,2.7-2.3,3.2,3.2,0,0,1,3.5,1.9l1.3,1.1.9-1.4Z" style="fill: #4a435b"/>
    <path d="M224.7,337.7l-1.3.8c-2,1-2,1-1.8,3.6-.3.5-.4.9-.7,1.3-1.8,2.2-3.7,2.6-5.8,1a8.3,8.3,0,0,1-2.3-3,14.7,14.7,0,0,1-1.1-4.7,5.8,5.8,0,0,1,.8-3.1,3.3,3.3,0,0,1,3.3-1.6,4.9,4.9,0,0,0,6.2,1.7Zm-6,3a2.4,2.4,0,0,0-1.1-3.2,1.7,1.7,0,0,0-2,1,2.3,2.3,0,0,0,1.7,2.6C217.7,341.2,218.4,340.8,218.7,340.7Z" style="fill: #4a435b"/>
    <path d="M14,481.9l-.2,7.8-2.9-.4.3-7.8c1.3-2.9,1.8-5.8.6-8.8.4-5.4.8-10.7,1.3-16.1.4-2.1,1.2-4.3,0-6.5s-.1-1.9-.1-2.9c.3-4.2.6-8.5,1-12.7l2.7-.9c.2,2.1,1.2,3.3,3.4,3.5.1.8.6,1.7.3,2.3-1.5,2.7-1.8,5.8-2.4,8.8-1.3,5.6-1.6,11.2,1.5,16.4-.3.8-.6,1.7-1.6,1.2a11.6,11.6,0,0,1-2.4-1.4c-.7,1.3-.7,1.3-.4,2.6-.3,4-.7,7.9-1,11.9C13,479.8,13,480.8,14,481.9Z" style="fill: #4a435b"/>
    <path d="M12,495.1a2.8,2.8,0,0,1,1.3.3l.3-3.7c-.4.2-1,.3-1.2.6a7.1,7.1,0,0,0-.9,2.8Z" style="fill: #4a435b"/>
    <path d="M17.1,353.3c-1.2-1.3-.6-2.8-.6-4.2-.2-3.1-.3-6.1-.4-9.2h.6a9,9,0,0,1,1.3,5.5C17.8,347.9,17.4,350.6,17.1,353.3Z" style="fill: #5d536c"/>
    <path d="M16.9,363.7c-1.1-2.7-.6-5.4.2-8.1,1.5,2.2.3,4.7.7,7C17.8,362.9,17.2,363.3,16.9,363.7Z" style="fill: #5d536c"/>
    <path d="M14.3,396.8a12.8,12.8,0,0,1,.8-7.7A8.7,8.7,0,0,1,14.3,396.8Z" style="fill: #5d536c"/>
    <path d="M17.1,427.8a3.2,3.2,0,0,1,.3.9c-.2,1.6-.4,3.3-.7,4.9l-2.7.9a14.8,14.8,0,0,1,.1-2.1,2.1,2.1,0,0,0,1.8-1.8A23.6,23.6,0,0,1,17.1,427.8Z" style="fill: #5d536c"/>
    <path d="M16.5,375.2a4.2,4.2,0,0,1,0-3.8C17.7,372.6,17.6,373.9,16.5,375.2Z" style="fill: #5d536c"/>
    <path d="M14.1,409.6v-3.9C15.5,407,15.3,408.3,14.1,409.6Z" style="fill: #5d536c"/>
    <path d="M12.8,303.5a4.5,4.5,0,0,1-.7-3.7C13.6,300.8,13.3,302.1,12.8,303.5Z" style="fill: #5d536c"/>
    <path d="M16.4,380.4v-3.1C18,378.8,17.9,378.9,16.4,380.4Z" style="fill: #5d536c"/>
    <path d="M14.4,417.5v-1.8C15.1,416.3,15.2,416.9,14.4,417.5Z" style="fill: #5d536c"/>
    <path d="M12.8,309.7v-1.9C13.5,308.4,13.6,309.1,12.8,309.7Z" style="fill: #5d536c"/>
    <path d="M13.2,316.6a12.1,12.1,0,0,1-.1-1.9C13.8,315.3,14,315.9,13.2,316.6Z" style="fill: #5d536c"/>
    <path d="M11.8,294.4a2.1,2.1,0,0,1-.5-2.6A2.5,2.5,0,0,1,11.8,294.4Z" style="fill: #5d536c"/>
    <path d="M18.2,327c1.4.9,1.4,1,.4,2.1Z" style="fill: #b0a79c"/>
    <path d="M14.2,429.4v-1.9C15,428.2,15,428.8,14.2,429.4Z" style="fill: #5d536c"/>
    <path d="M16.5,282c.5.5,1.1,1,1.6,1.6A1.8,1.8,0,0,1,16.5,282Z" style="fill: #5d536c"/>
    <path d="M13.4,321.6a7.7,7.7,0,0,1-.2-1.5h.5Z" style="fill: #d5cbbe"/>
    <path d="M13.7,320.2h-.5a.4.4,0,0,1,.5,0Z" style="fill: #5d536c"/>
    <path d="M178.1,160.6c.1.5.3,1,.4,1.5a28.4,28.4,0,0,0-.6,3.1,2.1,2.1,0,0,0,1.8,2.3c5.6,2,5.5,7,5.8,11.6,1,1.3,2.4,1,3.6,1.1,3.5.4,5.3,3.7,3.6,6.7a35.8,35.8,0,0,1-2.9,3.9c-2.9.7-4.4-1.1-5.6-3.1a49.7,49.7,0,0,1-3-6.1l-1.2-.5c-2.6-.6-3.7-2.3-3.9-4.9s-.1-3.2-.2-5c-5.7-1.9-6.6-6.2-5.5-11.4a4.4,4.4,0,0,1,.2-1,2.8,2.8,0,0,0,2.9-1.6l1.9.5C175.7,159.2,177,159.8,178.1,160.6Zm-3.2,5a11.4,11.4,0,0,0,1.6-1.6c.3-1.1-.2-2.3-1-2.3s-1.3.6-1.3,1A16.7,16.7,0,0,0,174.9,165.6Zm7.6,9.9a20.3,20.3,0,0,0-1.8-1.5,2.4,2.4,0,0,0-.8.9c-.2,1,.5,1.7,1.3,1.5S181.9,176,182.5,175.5Z" style="fill: #4a435b"/>
    <path d="M162.7,117.4l-.9-1.3Z" style="fill: #c3bbb2"/>
    <path d="M160.7,115.5l-.9.8Z" style="fill: #c3bbb2"/>
    <polygon points="161.3 115.5 160.9 115.5 161.2 115.1 161.3 115.5" style="fill: #c3bbb2"/>
    <path d="M64.1,260l-1.1-.8Z" style="fill: #b0a79c"/>
    <path d="M95.2,272.2c-.2.4-.7.9-.6,1.2.6,4.1-2.3,5.8-5.1,7.5s-3.8.1-5.6-.2a22.7,22.7,0,0,1,.2-5.2,23.6,23.6,0,0,1,2.3-5.2l-1.7-.4,1.8-1.3a.9.9,0,0,0,.7-.1,2.3,2.3,0,0,0,2.5.1c2.1-.1,3.1,1.8,4.7,2.6h-.1c-.1.7-.1,1.4,1,1.2Zm-7.7,5c2.2.6,3.1-.4,3.6-1.8s.3-2-1.3-3.2Z" style="fill: #4a435b"/>
    <path d="M91.5,262.7l-.6.9Z" style="fill: #b0a79c"/>
    <path d="M198.6,302.4c1.9-2.1,4.2-1.5,6.5-.9h0v1.8c.2,1.1.5,2.3.7,3.4.1,2.9-.5,5.5-3.1,7.3a2.4,2.4,0,0,1-2.7.1l-1.2-1.2C197.1,309.4,197.7,305.9,198.6,302.4Z" style="fill: #5d536c"/>
    <path d="M204.6,327.2c-2.5-1.8-2.5-4.3-2.1-6.9s1.9-4,4-5.1a6,6,0,0,1,2.3-.1c.7,1.4,1.1,2.9-.7,3.9s-1.4.4-1.5.8a11.2,11.2,0,0,0-.3,3.2c0,.3.6.8.9.8s.8-.5.9-.9.2-2.2.3-3.3a11.4,11.4,0,0,1,1.6,1.5,9.1,9.1,0,0,1,.9,1.7c-.9,3.6-1.6,4.2-5.2,4.6Z" style="fill: #4a435b"/>
    <path d="M205.1,303.3v-1.8C205.9,302.1,206,302.7,205.1,303.3Z" style="fill: #bdb4ab"/>
    <path d="M138.2,192.5c-.4-1-.8-1.6-1-2.2s.9-.6,1-.5a2.4,2.4,0,0,1,1,1.4C139.3,191.4,138.8,191.8,138.2,192.5Z" style="fill: #7d7285"/>
    <path d="M143.6,190.3l1.1.6Z" style="fill: #706578"/>
    <path d="M131.7,186.4l1.5-.6Z" style="fill: #706578"/>
    <path d="M94.1,169.4c-.6-.6-1.1-1.3-1.6-1.9l2.6-2.1.3,2.1Z" style="fill: #706578"/>
    <path d="M127.2,420.8c-.6,2.9-1.3,5.8-1.8,8.6-1.7,10.9-1.5,21.8-.7,32.8l1.2,14.6c.1.8.1,1.6,1.1,2h-.1a5.9,5.9,0,0,0-.5,2.3c.4,4.5.6,9.1,1.3,13.6a33.2,33.2,0,0,0,8.3,17c3.6,4.1,8.6,5.1,13.8,4.6,2.6-.2,4.4-2.2,5.7-4.3a78.7,78.7,0,0,0,4.7-8.6c1.1-2.5,1.9-5.2,2.9-7.7s1.5-2.9,2.3-4.3l2.2.2a3.4,3.4,0,0,1,.1,1v.3l.2.2-1.1,1.4a7.1,7.1,0,0,0-.1,1.4,17.1,17.1,0,0,1-1.1,1.4l-.6,1.8c-2,4.2-4,8.4-5.9,12.6a7,7,0,0,0-.3,1.4v.2a4.5,4.5,0,0,0-2.4,2.8,27.8,27.8,0,0,0-2.7,2.1c-.2.3-.1.8-.2,1.3h-.1c-.9-.9-1.9-.3-2.8,0a32,32,0,0,1-12.6-2.3c-3.8-1.8-5.9-5.2-8.1-8.6a10.1,10.1,0,0,1-.7-1.5l-3.3-6.7-1.2-6.2c-.2-1-.3-2-.4-3,.1-7.4-1.2-14.7-2-22l-.3-5c-.1-1.3-.1-2.5-.2-3.8a3.1,3.1,0,0,1-.1-1l-.2-3.1v-4.8c0-1,0-2,.1-3.1a8.8,8.8,0,0,1-.2-1.7c0-.8-.1-1.5-1-1.8s1-1.3,1.1-2c.3-2.4.4-4.8.6-7.1s.3-2,.4-3,.3-1.9.4-2.9l.3-2.8c.2-1.1.4-2.2.5-3.2l.3-1c.4-1,.8-1.9,1.1-2.8Z" style="fill: #706578"/>
    <path d="M167.6,491.6l-2.2-.2a13.7,13.7,0,0,0,.5-2.8,8.3,8.3,0,0,0-.6-2.1.5.5,0,0,0-.6.1,3.7,3.7,0,0,1-4.8-.9c-1.5-1.5-2.2-3.3-1.4-5.3a19.7,19.7,0,0,1,2.1-4.4,2.9,2.9,0,0,1,4.3-.5,13.9,13.9,0,0,1,1.5,1.9l1.4,1.7,4.8-2.2a10.3,10.3,0,0,1,0-3.5,7,7,0,0,1,1.5-3.4,3.4,3.4,0,0,1,4.4-1,7.5,7.5,0,0,1,3.9,10.5,30.8,30.8,0,0,1-2.4,3.4,11.1,11.1,0,0,0,.7,1.6,9.6,9.6,0,0,0,1.4,1.5c.4-.2,1-.3,1.2-.6s1.6-2.5,3.3-2.6,3.2,1.8,4.7,2.8a6.6,6.6,0,0,1,1.2,6.3c-1.6,2.4-3,5.1-6.5,4.6l-2.7,11.4-1.6-.2c.5-3,1.1-5.9,1.5-8.9a6.3,6.3,0,0,0-1.3-5.4c.1-2.6-1.3-4.3-3.2-5.8l-1.1-1.2v.2a6.4,6.4,0,0,0-1-1.3l-.8-.9c-.3-1.8-2-2.3-3.2-3.2l-1.7.3c-.8,2-1.6,4.1-2.5,6.1s-1.2,1.2-.4,2ZM178,472a8,8,0,0,0-1.2,2.1c-.4,2.3.1,3.8,1.3,4.2s.7-.1.8-.3a3.6,3.6,0,0,0,.4-4.4A18.2,18.2,0,0,0,178,472Zm12.1,17.9a7.9,7.9,0,0,0-1.5-1.9c-.6-.5-1.6.5-1.8,1.6s.6,2,1.3,1.8A10.3,10.3,0,0,0,190.1,489.9Z" style="fill: #4a435b"/>
    <path d="M181.7,507.7l1.6.2c-.4,4-2.1,7.5-3.9,11s-4.9,8.9-7.4,13.3c-4.9,8.5-10.3,16.7-17.3,23.6-2.7,2.8-5.6,5.5-8.4,8.2s-4.7,4.1-6.8,6.4c-7.9,8.1-15.7,16.2-24.4,23.3l-2-1.5c.9-2,2.5-3.3,4.1-4.7l7.9-7c2.1-.5,2.8-2.6,4.1-4s5.2-4.7,7.1-7.7a49.5,49.5,0,0,0,8.5-8c5.2-3.3,8.9-8.2,13-12.7.2-.2.2-.6.3-.9H158a4,4,0,0,0,2.4-2.8l1-1.6c.4-.3,1-.4,1.2-.8l6.7-10.7c.9-1.2,1.9-2.5,1.5-4.2,2-1.1,3-3,3.8-5a11.4,11.4,0,0,1,1-1.9c1.1-2.3,2.3-4.5,3.5-6.8Z" style="fill: #7d7285"/>
    <path d="M108.6,604.8a6.8,6.8,0,0,1,.2,1.4A6.8,6.8,0,0,0,108.6,604.8Z" style="fill: #7d7285"/>
    <path d="M177.6,486.4l1.1,1.2Z" style="fill: #d9d0c3"/>
    <path d="M176.7,485.3a6.4,6.4,0,0,1,1,1.3A6.4,6.4,0,0,0,176.7,485.3Z" style="fill: #d9d0c3"/>
    <path d="M129.2,507.2a10.1,10.1,0,0,0,.7,1.5A10.1,10.1,0,0,1,129.2,507.2Z" style="fill: #d9d0c3"/>
    <path d="M165.6,497.3a17.1,17.1,0,0,0,1.1-1.4A17.1,17.1,0,0,1,165.6,497.3Z" style="fill: #d9d0c3"/>
    <path d="M166.8,494.5l1.1-1.4Z" style="fill: #d9d0c3"/>
    <path d="M187.2,424.9l2.2-.3-.9,1.4Z" style="fill: #706578"/>
    <path d="M182.4,434l-.9-1.2Z" style="fill: #706578"/>
    <path d="M11.8,472.7c1.2,3,.7,5.9-.6,8.8A23.7,23.7,0,0,1,11.8,472.7Z" style="fill: #5d536c"/>
    <path d="M13.1,450.1c1.2,2.2.4,4.4,0,6.5C11.9,454.5,12.6,452.3,13.1,450.1Z" style="fill: #5d536c"/>
    <path d="M79.1,449.9c.7-.3,1.7-.5,2-1a33.4,33.4,0,0,0,2.8-5.7A61,61,0,0,0,87,416.1c-.7-6.2-1.6-12.4-2.1-18.6a116.3,116.3,0,0,1,.1-13.2,34.3,34.3,0,0,1,4.5-15.9,13.4,13.4,0,0,0,.7-1.8l1.9-2.1a1.6,1.6,0,0,1,2.4-.4,36.8,36.8,0,0,1-1.5,3.5,42.4,42.4,0,0,0-5.9,22.5c.1,7.9,1.3,15.7,2.2,23.5A77.5,77.5,0,0,1,85.9,446a23.2,23.2,0,0,1-1.6,3.6,80.2,80.2,0,0,1-9.4,14.3,55.4,55.4,0,0,1-7.9,7.4,45.7,45.7,0,0,1-6.8,4.7,18.4,18.4,0,0,1-4.1,1.6c-.1-.8-.1-1.6-.2-2.3,2.5-1.7,5-3.4,7.4-5.2s1.9-1.7,1.4-3.2a15.4,15.4,0,0,0,4.3-4.5c.8.1,1.9.6,2.3.3,3.7-3.3,6.9-6.9,8.1-11.9.1-.3-.2-.6-.3-.9Z" style="fill: #706578"/>
    <path d="M110.7,358.1H113l4.5,3.5c0,.6-.2,1.4.1,1.8,2.8,4.3,5.6,8.4,8.3,12.6h0a49.2,49.2,0,0,1,1.4,5.5c.7,3.8,1.2,7.7,1.7,11.5a11.8,11.8,0,0,0,.4,2.8c.2.4,1,.6,1.5.9h0c-.5.4-1.3.7-1.3,1.1-.3,3.6-.4,7.2-.5,10.9,0,.2.4.5.6.7-.2,2.3-.6,4.4-3.6,4.3,0-1.6-.2-3.2-.1-4.8a144.4,144.4,0,0,0,.5-14.7,42.7,42.7,0,0,0-15.4-32.3,4.4,4.4,0,0,1-.8-1.1c1.7-.3,1.7-.3.9-1.7Z" style="fill: #706578"/>
    <path d="M110.7,358.1l.5.8c.8,1.4.8,1.4-.9,1.7-5.2-2.9-9.8-1.5-14.1,1.7a58.4,58.4,0,0,0-2.8-8,5.9,5.9,0,0,0-2.4-3.5c-.2-2.9,1.9-4.3,3.8-5.9a5.4,5.4,0,0,1,4.6-1c2.5.3,3.5,1.1,4.1,3.5a38.7,38.7,0,0,1,.5,4.9,14.3,14.3,0,0,1-.1,2.9Zm-11.6-2.4a7.2,7.2,0,0,0,1.9-5.1,3.7,3.7,0,0,0-.8-2.2c-.6-.9-2.7-.8-2.9.2a15.7,15.7,0,0,0-.4,4.3A2.7,2.7,0,0,0,99.1,355.7Z" style="fill: #4a435b"/>
    <path d="M55.9,475.3c.1.7.1,1.5.2,2.3-2.3.9-4.5,1.9-7.1,1.8l-1.2.2a35.8,35.8,0,0,1-14.9-1.7l-.9-.2c-4.2-.8-7.4-3.3-10.3-6.1l-4-4.2c-.8-.8-1.7-1.1-2.6-.4-.3-1.3-.3-1.3.4-2.6a11.6,11.6,0,0,0,2.4,1.4c1,.5,1.3-.4,1.6-1.2l3.1,3.1a25.1,25.1,0,0,0,15,8.3c5,.9,10,1.4,14.9-.1A20.2,20.2,0,0,1,55.9,475.3Z" style="fill: #5d536c"/>
    <path d="M126.1,413.5c3,.1,3.4-2,3.6-4.3,2.3-3.1,2.5-3.1,5.8-1.4,0,1.2.2,2.4,1.6,2.9a31.1,31.1,0,0,1-.1,5.3,7.8,7.8,0,0,1-4.2,5.2c-1.9,1.1-3.8.6-5.6-.4l-2.2-.6C125.4,418,125.7,415.8,126.1,413.5Zm7.5-3.4c-1,2.8-1.7,4.5-2.3,6.3a1.2,1.2,0,0,0,.5,1.1,1.1,1.1,0,0,0,1.2-.4C134.5,415.2,134.5,413.1,133.6,410.1Z" style="fill: #4a435b"/>
    <path d="M14,481.9c-1-1.1-1-2.1.1-3A2.9,2.9,0,0,1,14,481.9Z" style="fill: #5d536c"/>
    <path d="M94.4,364.1c0-1.7.1-1.8,1.7-1.9A2.5,2.5,0,0,1,94.4,364.1Z" style="fill: #706578"/>
    <path d="M47.8,479.6l1.2-.2Z" style="fill: #706578"/>
    <path d="M32,477.7l.9.2Z" style="fill: #706578"/>
    <path d="M150.9,279.4c-.1-1.3-.6-2.7-.2-3.8,1.3-3.8,1.1-7.8.8-11.7-.4-5.5-1.1-11-1.8-16.5a12.7,12.7,0,0,0-.9-3l-2.5.3c-5.8.4-11.7,1-17.5,1.3-2.5.1-3.3-1.2-2.8-3.9a4.4,4.4,0,0,0-.5-3.7c-1.4-2.1-.7-3.8,1.7-4.2l12.5-2.2a33,33,0,0,0,5.6-1.6c1.6-.6,2-1.6,1.7-3.2a19,19,0,0,0-2.7-6.8c-1.4-2.3-.9-4.2,1.6-5a18.5,18.5,0,0,0,6.7-3.8,9.5,9.5,0,0,1,1.7-1,2.6,2.6,0,0,1,3.2,1.6,9.9,9.9,0,0,1,.3,2.4c.4,4.8.8,9.5,1.1,14.2,0,.2.1.3.1.5.3,6,1.9,5.7,6.9,4.9,1.9-.3,3.5-1.6,5.3-2.5a21,21,0,0,1,3-1.5,2.3,2.3,0,0,1,2.9,1.9q.6,3.9.9,7.8c.2,3.8-.1,4.2-3.6,5.9a5.7,5.7,0,0,0-1.6,1.1l-3.6-1.2a9.2,9.2,0,0,0-5.2-.2,1.9,1.9,0,0,0-1.4,2.6.7.7,0,0,0,0,.9c-.8,3.9.5,7.8.6,11.6s.5,5.9.5,8.8a39.1,39.1,0,0,1-.5,4.8,4.3,4.3,0,0,1-4.2,4,43.7,43.7,0,0,0-5.2,1.2A28.1,28.1,0,0,1,150.9,279.4Zm-17.7-42.2h-.1c-1.7.2-2.1,1.3-2.1,2.8s.8,2,2.1,2.2l7.3-.4c2.9-.2,5.8-.4,8.4-1.8l3.8,1.1a1.7,1.7,0,0,1,.1.7c-.7,2.9.2,5.7.6,8.5,0,.4.7.6,1,.9v3.1a40.1,40.1,0,0,0-.1,4.9c.1,3.8.5,7.6.6,11.5.1,1.5.4,2.9,1.7,3.8s.9,0,1.3,0A4.1,4.1,0,0,0,160,270c-.5-7.1-.4-14.3-1.7-21.4-.2-1.4,0-2.9-.1-4.4s2.1-2.3,2.6-3.8l-1.5-1.6c-2.4-2.6-3.9-5.4-3.8-9.2s-.8-6.4-1.3-9.6a2.3,2.3,0,0,0-.6-1.3,2,2,0,0,0-1.8-.4,2.9,2.9,0,0,0-2,2.5,17,17,0,0,0,0,3.9,49.9,49.9,0,0,0,1.6,5.1,3.1,3.1,0,0,1-2.4,4.1,15.5,15.5,0,0,1-2.3.6l-11.6,1.9Zm40.5,1.4a2.1,2.1,0,0,0-2.1-2.3,6.6,6.6,0,0,0-4.8,2,1.9,1.9,0,0,0-.5,1.7c.4.6,1.3,1.4,1.8,1.3a32.8,32.8,0,0,0,5-1.7C173.4,239.5,173.6,238.9,173.7,238.6Z" style="fill: #4a435b"/>
    <path d="M139.8,331.2l2.6-1c2.7-1.3,4.1-1.2,6,.9s3.4,4,5.1,5.9,4.9,5.5,7.4,8.3c.5.6,1.1,1.2,2,.9h.1c-.5,1,.2,1.5.7,2.1,2.1,2.6,4.3,5,6.2,7.6,3.4,4.4,4.8,9.7,6.1,14.9a4.9,4.9,0,0,1-5.8,5.7c-2.9-.6-5.3-2.2-6-5.1-1.2-5.3-4.4-9.1-7.7-12.9s-5.8-6.7-7.6-10.8a21.8,21.8,0,0,0-2.6-3.6,28.6,28.6,0,0,1-2.8-4,7.2,7.2,0,0,0-2.7-3.3c-2.1-1.2-2.2-3-1.7-5.1A.7.7,0,0,0,139.8,331.2Zm32,41.3a9,9,0,0,0,.2-2.7c-1.3-4.5-2.3-9.2-5.6-12.9l-17.8-20.3a8.6,8.6,0,0,0-1.3-1.4c-.5-.4-1.1-.8-1.8.1a76.2,76.2,0,0,0,9.6,15.2c2.7,3.2,5.5,6.5,8.1,9.8a27.7,27.7,0,0,1,4.9,8.5,9.2,9.2,0,0,0,1.6,2.9C170,372.1,170.8,372.1,171.8,372.5Z" style="fill: #4a435b"/>
    <path d="M170.6,421.8c.8,2.3,1.8,4.5,2.4,6.9a21.9,21.9,0,0,1,.3,9.2c-.2,1.9-.4,3.8-.5,5.8l-.6,1.9c-1.6,6.3-6,9.5-12,10.6a12.6,12.6,0,0,1-14.1-8.1,36.1,36.1,0,0,1-2.3-9,52,52,0,0,1,.1-14.2,21.4,21.4,0,0,1,5-11,6.1,6.1,0,0,1,5-2.6c4.3.2,8.6.4,12.1,3.2l2.3,3.1h-.1l.9,1.4Zm-18.5-5.4a11.9,11.9,0,0,0-4,7.1,46.4,46.4,0,0,0-.5,16.6,27.9,27.9,0,0,0,1.4,5.7c2.5,7.1,10.1,9,15.9,4.2a11.2,11.2,0,0,0,3.8-6.6c1.2-5.9,2.1-11.7-.5-17.4-1.2-2.5-2.7-4.8-4-7.3s-3.6-3.2-6.3-3Z" style="fill: #5d536c"/>
    <path d="M139.3,298.2a12.1,12.1,0,0,1-.1,1.9,54,54,0,0,1-1.1,5.8c-1.5,6.6-7.6,7.4-12.2,4.4a4.4,4.4,0,0,1-1.4-2.5,31,31,0,0,1-.2-4.3c.1-2.5.3-4.9.6-7.4.8-8.1.4-16.3,0-24.4a13.6,13.6,0,0,0-.2-2c-.3-3.1.5-5.8,3.4-7.6a3.2,3.2,0,0,0,1-1,11.6,11.6,0,0,1,7.1,1.3,2.8,2.8,0,0,1,1.6,3.2c-2.2,7.3.1,14.4.6,21.6Zm-10.8-2.1H128c-.1,3.1-.2,6.2-.1,9.3,0,1.5,1,2.3,2.5,2.6a2.4,2.4,0,0,0,2.9-1.4,29.1,29.1,0,0,0,1.6-5,48.8,48.8,0,0,0,.2-10.8c-.7-6.1-1.1-12.3-1.6-18.5-.2-2-.4-3.9-1.6-5.6s-.9-.7-1.3-.6a1.3,1.3,0,0,0-1,.8,16.2,16.2,0,0,0-.9,3.8c-.2,4.4-.2,8.8-.2,13.2S128.5,292,128.5,296.1Z" style="fill: #4a435b"/>
    <path d="M58,322.9a4.3,4.3,0,0,1,1.7-3.3l15-10a2.4,2.4,0,0,1,1,2.3l-10.6,8.6a5.2,5.2,0,0,0-1,1.1c-1,1.4-.8,2.8.6,4.4s2.4,1.8,3.9.9a27.7,27.7,0,0,0,4.8-3.4c5.2-4.8,11.1-8.6,17-12.5l.4-.2,7.6-6.3a2.2,2.2,0,0,0,1-2.6c-.6-2.1-1.1-4.4-3.5-5.8-2.2,1.4-4.8,2.4-6.4,4.3-3.2,4-7.4,6.9-11.4,10l-.6-2.9,14.1-12.7,4.1-3.3c4.4,1.9,6.6,5.4,8.2,9.3l.6,4c-2.3,1.8-4.6,3.5-6.8,5.5a40,40,0,0,1-7.1,5.1,9,9,0,0,0-1.9,1.5l-.9.7a30,30,0,0,0-4.6,2.6q-6,4.8-12,9.9c-2.9,2.4-4.3,2.6-7.2.2a62.5,62.5,0,0,1-4.4-4.5l-.5-.9Z" style="fill: #4a435b"/>
    <path d="M189.9,348.3a11.6,11.6,0,0,1-7.5-3.2c-4.6-4.6-9.7-8.7-13.6-14-.3-.5-.7-1.2-1.2-1.4-3.3-1.3-4.8-4.3-6.9-6.7a9.5,9.5,0,0,1-1.5-2c-1.2-2.1-1-3.7,1.1-5a7.2,7.2,0,0,0,3.1-2.9c.7-1.3,2.1-1.4,3.3-.3,3.5,3.1,6.9,6,10.2,9.3A161.7,161.7,0,0,0,189,333.4c2.2,1.9,4.2,4.2,6.3,6.2a4.6,4.6,0,0,1,.8,5.8,5.2,5.2,0,0,1-5.2,3Zm-26.2-31.8a1.7,1.7,0,0,0-.5,2.6c1.8,2.3,3.8,4.5,5.7,6.7a47.8,47.8,0,0,1,4.5,4.5,96.2,96.2,0,0,0,10.7,11.4,9.5,9.5,0,0,0,6.1,2.9c.6,0,1.5-.2,1.7-.6a3.1,3.1,0,0,0,.1-2.3,18.1,18.1,0,0,0-2.8-3.4c-4.9-4.7-9.9-9.5-14.9-14.1-1.9-1.8-3.9-3.5-6-5.2S165.6,316.7,163.7,316.5Z" style="fill: #4a435b"/>
    <path d="M94.2,319.8c1.6-1.2,3.1-2.5,4.7-3.6s3.5-1.2,5.2.5l3.4,3.6c1.4,1.6,1.3,1.7,1.9,5.1-5.2,2.2-8.6,6.8-12.9,10.3s-6.4,5.5-9.6,8.3l-6.7,5.8c-2.6,2.2-4.6,2-6.6-.7s-2.4-7.1.6-10.1,8.3-7.5,12.3-11.3c2.2-2,4.1-4.2,6.1-6.3ZM77.9,346.3a22.6,22.6,0,0,0,2-1.3c4.2-3.4,8.4-6.7,12.5-10.2s6.6-5.8,9.9-8.8l1.1-1a2.7,2.7,0,0,0,.1-3.2,2.3,2.3,0,0,0-2.9-1.2,14.2,14.2,0,0,0-6.1,3.9c-1.9,2-3.9,3.9-5.9,5.8l-10.1,9.3a20.9,20.9,0,0,0-2,2.2C75.5,343.4,75.8,344.4,77.9,346.3Z" style="fill: #4a435b"/>
    <path d="M185.6,266c.9,5.3.1,10.4-.2,15.6-.2,2.6-.1,5.2-.1,7.8-.1,4.8,0,9.5-.2,14.2-.1,3.2-1.8,4.3-4.9,3.7s-3.8-1.3-4-4.6c-.3-5.8-.4-11.7-.6-17.5l-.3-9.3V274c.2-4.5.4-9,.7-13.5,1.8-1.5,3.4-.8,5,.1s3.2,3.2,4.5,5Zm-4.4.2a5.6,5.6,0,0,0-.8,1.5,29.8,29.8,0,0,0-.9,4.3c-1.4,9.4-.5,18.8.7,28.2l1,.4a6.1,6.1,0,0,0,.5-1.8c.5-8.9,1-17.9,1.3-26.8a19.9,19.9,0,0,0-.7-4.8C182.2,266.9,181.8,266.7,181.2,266.2Z" style="fill: #4a435b"/>
    <path d="M54.8,376.1l.6-2.9c1.1.1,2.4-.1,3,1.1s1.2,2.7,0,4.1a2.4,2.4,0,0,0-.6.8c-.7,1.6-.9,3.1.9,4.3s.5,1,.8,1.7L56,386c-.3,1.8-.3,3.6-1.1,4.9s-2.3,2-3.5,3a2.2,2.2,0,0,0,1.7,2.5c1.4.5,3.1.1,4.3,2s-.3,2.1-.6,3.4c-.7,3.1-2,6.1-2.1,9.4-.4,1.1-.8,2.1-1.1,3.2l-2.9.9v-.8c.2-1.7.6-3.4.7-5.1s-.3-3.5-2.3-4.3c.1-.3,0-.6.1-.9a8.3,8.3,0,0,0-1-7.5c-.8-1.1-1-2.6-1.5-4a1.8,1.8,0,0,0-.9-2.8.8.8,0,0,1-.4-.7c.3-1.4.4-2.9,2.4-3l.2.3-.2-.3.6-3.2h3.5a2,2,0,0,0,1.8-1.8c.3-1.1.5-2.2.8-3.2S55.5,376.8,54.8,376.1Z" style="fill: #2f2e3a"/>
    <path d="M54.7,411.2c.1-3.3,1.4-6.3,2.1-9.4.3-1.3.4-2.5.6-3.4s-2.9-1.5-4.3-2a2.2,2.2,0,0,1-1.7-2.5c1.2-1,2.8-1.7,3.5-3s.8-3.1,1.1-4.9l3.5-.8c-.3-.7-.4-1.5-.8-1.7s-1.6-2.7-.9-4.3a2.4,2.4,0,0,1,.6-.8c1.2-1.4.6-2.8,0-4.1s-1.9-1-3-1.1-.3-2.1-.5-3.1a.7.7,0,0,1,.6.1c2.1-.9,2.1-1.1.8-3.1l.3-1.1c3.4.4,5.7,2.9,8.3,4.7a2.3,2.3,0,0,1,.6,2.7c-2.9,7.3-3.9,15.2-5.8,22.8-.5,2.2-1,4.4-.1,6.7s-.6,3.8-1.7,5.4S55.7,410.3,54.7,411.2Z" style="fill: #4a435b"/>
    <path d="M79.4,382.5c.8,1.4,1.8,2.7,2.5,4.1a6.8,6.8,0,0,1-2.2,8.7c-2.5,1.9-5.1,1.1-6-1.9a7.9,7.9,0,0,1,.4-6.2c.8-1.4,1.7-2.7,2.8-4.3a19.7,19.7,0,0,1-2.1-3.8,10.8,10.8,0,0,1-.4-4.4,9.8,9.8,0,0,1,2.3-6.3c1.8-2.1,3.7-2.1,5.3,0,2.6,3.6,3.2,6.1.5,9.8C81.5,379.6,80.4,381,79.4,382.5Zm.5,7.6a6.7,6.7,0,0,0-1.3-1.5c-.7-.4-1.6.7-1.4,1.9s.7.8,1.1,1.3Z" style="fill: #4a435b"/>
    <path d="M127,478.8c0-1.3.1-2.6.2-3.9.3-5.2,2.1-6.6,7.3-5.5a6.2,6.2,0,0,1,2.6,1.2,4.6,4.6,0,0,1,1.8,5.2c-.4,1.1-.7,2.2-1.2,3.3a26.8,26.8,0,0,1-1.8,3.1c.7.9,1.2,2,2.1,2.5s2.7,3.2,2.8,5.4a8.7,8.7,0,0,1-1.2,5.7,3.5,3.5,0,0,0-2.9,2.2c-4.6-1.9-6.2-5.5-5.7-10.2.1-1.6.3-3.2.4-5s-3-2.6-4.5-4Zm8.9-3.7c-.5-.7-.7-1.6-1.3-2s-1.6,0-2.1.6a5.6,5.6,0,0,0-1.1,2,2.2,2.2,0,0,0,1,2.5,1.8,1.8,0,0,0,2.4-.9Zm.9,18.1c1.3-2.4,1.3-2.6.6-3.9a1.2,1.2,0,0,0-1.7-.4C134,490.2,134.5,491.8,136.8,493.2Z" style="fill: #4a435b"/>
    <path d="M51.9,383H48.4l-.6,3.2h0c-2,.1-2.1,1.6-2.4,3-2.6-2.4-3.1-5.6-3.3-8.8a26.8,26.8,0,0,0-1.9-7.9,12,12,0,0,0-1.5-2.4,27.7,27.7,0,0,0-1-2.6,7.8,7.8,0,0,1,4.8-5.2,16.3,16.3,0,0,1,6.3,9C50,375.2,50.9,379.1,51.9,383Z" style="fill: #4a435b"/>
    <path d="M50.7,415.3l2.9-.9c-.9,4.7-1.5,9.6-2.8,14.3s-3,5-7.2,2.7c-1.2-.7-2.6-1.3-3.8-2.1s-2.2-2-1.6-3.6a81.4,81.4,0,0,1,3.5-8.6c2.3-4.1,4.9-8,7.4-12,2,.8,2.3,2.5,2.3,4.3s-.5,3.4-.7,5.1c-.9.1-2.1,0-2.7.5-3.4,2.7-5.2,6.3-4.5,10.7A10,10,0,0,0,45,428a7.1,7.1,0,0,0,3.9-5.1Z" style="fill: #4a435b"/>
    <path d="M193.5,271.2h2.3c1.1,2.2,2.1,4.2,3,6.2a5.7,5.7,0,0,1,.1,2.9c-.4,1.5-1.2,3-1.7,4.5,2.9,3,3.7,4.6,4.3,8.4a5.8,5.8,0,0,1-.8,4.3,4.4,4.4,0,0,1-4.2,2c-2.7-1.9-3.1-4.7-3-7.7.1-1.5.3-2.9.5-4.8-1.7-1.8-3.8-3.9-3.3-7.2S190.8,273.5,193.5,271.2Zm2.9,9a12.3,12.3,0,0,0-.9-2.3c-.2-.5-1.3-.3-1.5.2s-.2.3-.2.5a5.9,5.9,0,0,0-.2,1.4c.1,1,.8,1.7,1.4,1.4A5,5,0,0,0,196.4,280.2Zm2.5,14.5a2.8,2.8,0,0,0-.8-3.1,1,1,0,0,0-.9-.2c-.2.1-.6.3-.6.6a2.8,2.8,0,0,0,.7,3.1,1.3,1.3,0,0,0,.9.2Z" style="fill: #4a435b"/>
    <path d="M127.4,434.5a40.2,40.2,0,0,1,1-4.5c1-2.9,3.8-3.8,6.2-1.9a6.1,6.1,0,0,1,2.6,4,73.5,73.5,0,0,1,1,8.2,7.1,7.1,0,0,1-5.6,7,2.6,2.6,0,0,1-2.9-1.2,12.2,12.2,0,0,1-1.4-3.6C127.9,439.6,127.6,436.7,127.4,434.5Zm5.4-1.9c-1.4,3.6-1.7,5.9-1,8.5a1.5,1.5,0,0,0,1.9,1.3c1.6-1.7,1.1-4,.9-6.2S134.4,433.3,132.8,432.6Z" style="fill: #5d536c"/>
    <path d="M25.1,363.3l2.1-3.3c-.4-1.2-.9-2.3-1.4-3.5l4.9,2.4c0,.8,0,1.6.8,2.1a12.7,12.7,0,0,1,4.5,6.6c-.1,1.1-.3,2.2-.4,3.4s-1.1,3.4-2.2,4.8-3.7,2.2-5.7.3a8.5,8.5,0,0,1-2.8-6.5C24.9,367.5,25,365.4,25.1,363.3Zm5.2,1.5a3.4,3.4,0,0,0-2,3.5,4.9,4.9,0,0,0,1.3,3.6,1.3,1.3,0,0,0,2-.2C32.7,369.2,32.3,367,30.3,364.8Z" style="fill: #5d536c"/>
    <path d="M125.9,375.9c.2-.5.7-1.1.6-1.6-.5-2.5-1.1-4.9-1.7-7.4V365c.4-1.5.9-2.8,2.7-3.1a4.2,4.2,0,0,0,1.9-.6,4.8,4.8,0,0,1,6.6,4.4,41.2,41.2,0,0,1-.9,8.6c-.3,1.1-1.5,2.1-2.5,3a2.4,2.4,0,0,1-3.1.2c-.9-.5-1.6-1.2-2.4-1.7s-.8,0-1.2.1Zm5.2-11.3a11.6,11.6,0,0,0-1.7,5.9,2.9,2.9,0,0,0,.5,1.8,2.1,2.1,0,0,0,1.4,1c.3.1.9-.4,1-.7a7.5,7.5,0,0,0,.3-7C132.4,365.3,131.8,365.1,131.1,364.6Z" style="fill: #4a435b"/>
    <path d="M130.9,396.5h0c0-1.5,0-3,.1-4.4a11.2,11.2,0,0,1,1.5-5.6,5.9,5.9,0,0,1,4.1-3c2.3-.5,3.8.1,4.7,2.4a14.2,14.2,0,0,1-.4,10.9c-1.8,3.9-6.2,4.2-9.1.7Zm6.5-9.8c-.8,1.9-1.4,3.2-1.9,4.6s.2,3.1,1.6,4.2c1.7-1.8,1.7-1.9,1.8-3.3A6.1,6.1,0,0,0,137.4,386.7Z" style="fill: #4a435b"/>
    <path d="M20.7,435l-1.2-6.1c.8-3.6,1.7-7.3,4.6-10l1.8-.3c3.2,2.7,3.5,6.5,3.8,10.2a3.3,3.3,0,0,1-.7,2.3,39.7,39.7,0,0,1-4.2,4C23.5,436.1,22.1,435.9,20.7,435Zm4.5-8.3a2.3,2.3,0,0,0-1.7,3.6,1.1,1.1,0,0,0,1.2.3,2.4,2.4,0,0,0,1.3-3.1C25.9,427.1,25.4,426.9,25.2,426.7Z" style="fill: #4a435b"/>
    <path d="M131,450.5a4.1,4.1,0,0,1,1.6.6c2.5,2.3,4.7,4.9,5.1,8.6s-3.5,7-6.8,6.5a4,4,0,0,1-3.6-2.9,14.4,14.4,0,0,1,1.5-11.3C129.2,451.3,130.3,451,131,450.5Zm.8,5.2c-1.2,1.8-1.6,3.3-1.1,5a2.6,2.6,0,0,0,1.6,1.5,2.5,2.5,0,0,0,1.8-1.2C135.1,459.1,134.4,457.7,131.8,455.7Z" style="fill: #4a435b"/>
    <path d="M37.5,463.2a2,2,0,0,0-2.2.3,16.3,16.3,0,0,1-3.4,1.9,3.4,3.4,0,0,1-4.8-3.2,19.3,19.3,0,0,1,.4-5.3c.2-1.4.7-2.8,0-4.2a5.3,5.3,0,0,1,4-2.9c.4.7.8,1.6,1.4,1.9,3.3,2,4.5,4.9,3.8,8.7a2.3,2.3,0,0,0,.9,2.5Zm-5.9-5.9c-.2.7-.5,1.4-.6,2s.4.8.7,1.1.8-.2.8-.3a17.9,17.9,0,0,0,.2-2.3Z" style="fill: #5d536c"/>
    <path d="M82.7,427.8a15.7,15.7,0,0,1-.5,2.5,5.2,5.2,0,0,1-5,3.9,2.3,2.3,0,0,1-1.7-.8c-2.8-3.5-1.9-11,1.7-13.8,1.5-1.2,2.9-.9,4.1.8S82.9,424.9,82.7,427.8ZM79,424a4.1,4.1,0,0,0-1.2,4.7,1,1,0,0,0,.7.4.8.8,0,0,0,.8-.4A5.3,5.3,0,0,0,79,424Z" style="fill: #4a435b"/>
    <path d="M117.5,361.5,113,358a12.7,12.7,0,0,1,.7-7.7c1.1-2.8,3.1-3.9,5.7-3.4a5.3,5.3,0,0,1,4.6,5.9C123.7,357,121.9,360.2,117.5,361.5Zm.8-11.3c-.9.5-.3,1.4-.5,2.1a21.5,21.5,0,0,1-1,2.7c-.1.8-.1,1.8.8,2a2.6,2.6,0,0,0,2-.8,7.5,7.5,0,0,0,1.3-2.5C121.4,352,120.8,351.2,118.3,350.2Z" style="fill: #4a435b"/>
    <path d="M136.7,498a3.5,3.5,0,0,1,2.9-2.2l.3,1.4c1.2.9,2.2-.1,3.2-.3,2.6-.3,4,.5,5,2.9a6.2,6.2,0,0,1-1.7,7.5,4.2,4.2,0,0,1-6.1-.1,8.2,8.2,0,0,1-2.7-5C137.4,500.8,137,499.4,136.7,498Zm8.1,1.8a28.5,28.5,0,0,0-2.1,2.2c-.6,1-.4,1.8.4,2a1.3,1.3,0,0,0,1.9-1A24.4,24.4,0,0,0,144.8,499.8Z" style="fill: #5d536c"/>
    <path d="M83.3,408.2a9,9,0,0,1-3.3,5.9,4,4,0,0,1-6.5-2.3c-.6-3-.3-5.9,2.2-8.1a38.6,38.6,0,0,1,3.8-3,1.8,1.8,0,0,1,2.7,1.2C82.7,404,83,406.1,83.3,408.2Zm-3.6-3.8c-1.6,2.2-2.6,3.5-2.4,5.4,0,.3.3.7.5.7a1.9,1.9,0,0,0,1.3-.1C80.4,409,80.6,407.3,79.7,404.4Z" style="fill: #4a435b"/>
    <path d="M29.9,397.5a3.3,3.3,0,0,0-1,0c-2.4.5-4-.5-5.1-2.7a7.6,7.6,0,0,0-.8-1.1,14.2,14.2,0,0,1-.4-2,12.3,12.3,0,0,0-.2-2c.5-2.3,2-3.7,3.6-5.1a3.2,3.2,0,0,1,4.7.4,12.6,12.6,0,0,1,1.9,2.8,9.5,9.5,0,0,1,.5,6.2C32.7,395.8,31.2,396.6,29.9,397.5Zm-3.3-7.7c.1.8.3,2,.5,3.3a.9.9,0,0,0,.7.6c.4,0,1.1-.1,1.3-.4a4,4,0,0,0-.2-5.3c-.2-.3-.8-.3-1.3-.3s-.5.4-.6.6A4.8,4.8,0,0,0,26.6,389.8Z" style="fill: #4a435b"/>
    <path d="M69,462.4a15.4,15.4,0,0,1-4.3,4.5H62.3a3.6,3.6,0,0,1-3.2-2.7c-.4-1.4-.7-2.8-1.1-4.2a9.8,9.8,0,0,1,6.5-6.2c1.9-.7,3.1-.1,3.8,1.8S69.8,460.1,69,462.4Zm-2.7-2.2a6.6,6.6,0,0,0-.1-1.3,1.3,1.3,0,0,0-2.2-.6,5,5,0,0,0-1.3,1.9c-.3,1.3.4,2.9,1.4,3.2s1.9-.8,2.2-2.6Z" style="fill: #4a435b"/>
    <path d="M193.4,411.6a24.6,24.6,0,0,1-2.5,4.8c-1.5,2-4.1,1.6-5.1-.7a22.9,22.9,0,0,1-1.5-5.1c-.5-2.9,1.3-5.1,4.3-5.5s4.1,1.2,4.5,4.1C193.2,409.8,193.3,410.4,193.4,411.6Z" style="fill: #5d536c"/>
    <path d="M24.1,415.8l-1.6-.5a22.5,22.5,0,0,1-1.1-11.2,4.9,4.9,0,0,1,2.1-3.7,4,4,0,0,1,3.7-.2l1,2.1a.6.6,0,0,0,.2.8l.3,2c0,.7.1,1.4.1,2.1s-.1,1.9-.2,2.9a6.7,6.7,0,0,1-2.6,5.4Zm1.2-6.3a9.8,9.8,0,0,0,.5-2.2c0-.2-.6-.6-.9-.8a1.3,1.3,0,0,0-.7.6,3.7,3.7,0,0,0,.1,1.8C24.3,409.1,24.7,409.2,25.3,409.5Z" style="fill: #4a435b"/>
    <path d="M200.4,471.5c2.8,0,4,2.1,5.2,4a7.5,7.5,0,0,1,.9,6.5c-.8,2.4-2.7,3.1-5.1,2.6h-.3v.3a1.3,1.3,0,0,0-1.5-1c-.3-.6-.8-1.2-.8-1.7.2-3,.4-6.1.7-9.1C199.4,472.5,200.1,472,200.4,471.5Z" style="fill: #4a435b"/>
    <path d="M89.6,351.7c2.2,3.5,2.2,6.9.2,10.6s-2.9,3.4-5.5,3.2a4.8,4.8,0,0,1-3-3.5,8.7,8.7,0,0,1,0-5.3c.6-2,2.1-3.3,3.7-4.5S88,351.3,89.6,351.7Zm-3.3,10a5.4,5.4,0,0,0,2.5-4.9c-.1-1-.4-1.9-1.7-1.7C84.2,359.1,84.2,359.2,86.3,361.7Z" style="fill: #4a435b"/>
    <path d="M200,489h1c4.8-.2,5.8.8,5.2,5.5-.1,1.4,0,2.9-1.5,3.9-3.1,2.1-5.3,1.7-7.2-1.6-.8-1.4-1.3-2.9-2-4.4l2.8-1.8Zm2.5,5.2c-.4-.3-.6-.7-1-.9s-.4.3-.7.4l.8,1C201.6,494.8,202.1,494.5,202.5,494.2Z" style="fill: #4a435b"/>
    <path d="M154.4,499.7c-3.6-.3-4.8-2.6-3.9-5.5a7.8,7.8,0,0,1,5.4-5.3,3.8,3.8,0,0,1,5,4.6,14.4,14.4,0,0,1-1.5,3.6A4.3,4.3,0,0,1,154.4,499.7Zm2.6-7.3c-.6.2-1.2.3-1.3.6a7.1,7.1,0,0,0-.6,2.2c0,.5,1.1,1,1.5.5a7.5,7.5,0,0,0,1-2C157.7,493.4,157.2,492.9,157,492.4Z" style="fill: #4a435b"/>
    <path d="M192.6,458.7a14,14,0,0,1,3-1.5,4,4,0,0,1,4.4,2.4c1.5,3.1,1.8,6.2-1.2,8.8a8,8,0,0,1-4.6-.1l-1.6-3C192.7,463.1,191.5,460.9,192.6,458.7Z" style="fill: #5d536c"/>
    <path d="M37.5,463.2v-.3a7,7,0,0,1,1.1-2.1,2.5,2.5,0,0,1,3.5-.2,13.4,13.4,0,0,1,2.7,4,4.2,4.2,0,0,1-1,4.9c-1.3,1.2-2.3,2.8-4.4,2.7a7.9,7.9,0,0,0-3.1-4.1C36.7,466.5,37.1,464.9,37.5,463.2Z" style="fill: #4a435b"/>
    <path d="M79.1,449.9h0L77,451.1c-3.6,1.4-6.5-.6-6.5-4.5a9.3,9.3,0,0,1,2.7-6.1,2.3,2.3,0,0,1,2.1-.6,4.2,4.2,0,0,1,3.8,3.3C79.6,445.5,80.1,447.7,79.1,449.9Zm-3.7-5.2-.4.3c-.6,1-.5,2.1.4,2.5a1.1,1.1,0,0,0,.8-.2v-2.2C76.1,444.9,75.6,444.8,75.4,444.7Z" style="fill: #4a435b"/>
    <path d="M223.2,359.3a17.1,17.1,0,0,1,1.3-3.4,3.4,3.4,0,0,1,4.3-1.3,5.5,5.5,0,0,1,2.7,7.4,6.8,6.8,0,0,1-2.8,2.5C225.2,366,222.5,363.7,223.2,359.3Z" style="fill: #5d536c"/>
    <path d="M56,467.6a5.5,5.5,0,0,1-6.6,5.3,3.2,3.2,0,0,1-2-1.8c-1.3-2.7.7-7.1,3.5-8.2a3.7,3.7,0,0,1,4.8,2.3A12.9,12.9,0,0,1,56,467.6Z" style="fill: #4a435b"/>
    <path d="M186.5,445.2l.4-.2c1.4-.9,2.8-1.9,4.4-.9a5.9,5.9,0,0,1,3.3,5,9.7,9.7,0,0,1-.2,2.9,2.9,2.9,0,0,1-3,2.4,28.5,28.5,0,0,1-2.9-.3l-1.6-1.2a14,14,0,0,1-1-1.6l.2-.2v-.2c-.1-.3-.1-.7-.2-1S186.3,446.8,186.5,445.2Z" style="fill: #5d536c"/>
    <path d="M227.8,374.7c-.3,2.8-1.1,4.5-2.7,5.7s-5.1.7-5.5-2.1a7.8,7.8,0,0,1,3.5-8c1.8-1.3,3.5-.8,4.1,1.3A18,18,0,0,1,227.8,374.7Z" style="fill: #4a435b"/>
    <path d="M204.1,396.6c-.2,2.9-.9,4.8-2.6,6.3a3.4,3.4,0,0,1-3.2.6,2.8,2.8,0,0,1-1.7-2.7,11.8,11.8,0,0,1,2.1-7.3,3.1,3.1,0,0,1,3.3-1.6c1.1.2,1.9,1.5,2.1,3Z" style="fill: #4a435b"/>
    <path d="M192.5,257.8l.5-.2c.9-.5,1.7-1.6,3-1a3.9,3.9,0,0,1,2.1,3.5,28.1,28.1,0,0,1,0,2.9c-.1,4.2-1.3,5.4-5.7,6l-2.2-2.7c-.1-.6-.3-1.2-.4-1.8a13.4,13.4,0,0,1,.1-2l.9-2.8A15.4,15.4,0,0,1,192.5,257.8Zm3.3,6.4c0-1.7-.7-2.8-1.5-2.4a2,2,0,0,0-1.1,1.3c-.3,1.1.4,2.3,1.2,2.2S195.5,264.5,195.8,264.2Z" style="fill: #4a435b"/>
    <path d="M31.5,449.8a5.3,5.3,0,0,0-4,2.9l-3-.2c.2-1.4.5-2.7,1.9-3.5a1.9,1.9,0,0,0,2.4-1.1,5.4,5.4,0,0,0,0-1.8l-1.8.2a3.9,3.9,0,0,1-1.4-3.8,1.8,1.8,0,0,1,2.8-1.3l3.8,2.9A4.8,4.8,0,0,1,31.5,449.8Z" style="fill: #4a435b"/>
    <path d="M32.2,444.1l-3.8-2.9a1.8,1.8,0,0,0-2.8,1.3,3.9,3.9,0,0,0,1.4,3.8l-.6,2.7c-1.4.8-1.7,2.1-1.9,3.5a2.8,2.8,0,0,1-2.2-2.9,16.8,16.8,0,0,1,1.6-8.5,3.3,3.3,0,0,1,5.3-1.3C30.6,440.9,32,442.1,32.2,444.1Z" style="fill: #5d536c"/>
    <path d="M36.4,468.1a7.9,7.9,0,0,1,3.1,4.1C36.2,472.4,35.8,471.9,36.4,468.1Z" style="fill: #5d536c"/>
    <path d="M137.1,410.7c-1.4-.5-1.6-1.7-1.6-2.9A2.6,2.6,0,0,1,137.1,410.7Z" style="fill: #706578"/>
    <path d="M45.8,389.9a1.8,1.8,0,0,1,.9,2.8Z" style="fill: #4a435b"/>
    <path d="M198.8,312.9l1.2,1.2Z" style="fill: #706578"/>
    <path d="M185.9,451.3a14,14,0,0,0,1,1.6A14,14,0,0,1,185.9,451.3Z" style="fill: #d9d0c3"/>
    <path d="M28.4,403.1a.6.6,0,0,1-.2-.8l.4.5Z" style="fill: #b6ada1"/>
    <path d="M164.7,486.6a.5.5,0,0,1,.6-.1l-.2.2Z" style="fill: #706578"/>
    <path d="M199.5,483.9a1.3,1.3,0,0,1,1.5,1Z" style="fill: #d9d0c3"/>
    <path d="M169.1,419l-.9-1.4Z" style="fill: #d9d0c3"/>
    <path d="M204.6,327.2l1.1.2Z" style="fill: #706578"/>
    <path d="M185.8,449.9c.1.3.1.7.2,1a1.6,1.6,0,0,1-.4-.7Z" style="fill: #d9d0c3"/>
    <path d="M51.5,269.8c1.9,3.8,1.7,7.1,1.4,10.5,1.5,1.2,3.5,2.1,3.6,4.3a58.7,58.7,0,0,1,.5,5.9c0,2.1-1.8,3.4-3.3,4.9.4,1.2.8,2.4,1.1,3.7a8.4,8.4,0,0,1-3.4,9c-1.7,1.1-2.9,1.1-4.4-.1s-1-.9-1.5-1.3l-1.1-.8c-1.2.4-.8,1.4-1.1,2a8.7,8.7,0,0,1-.5,1.9c-1.6,2.7-4.6,2.9-6.4.4a10.7,10.7,0,0,1-1-2.2c-.3-1.5-.5-2.9-.7-4.4-.5-3.2,1.4-5,4.6-4.4a21.1,21.1,0,0,1,3.4,1.3c1.8-1.9,4.1-3.5,5.4-6.3a3.7,3.7,0,0,0-.5-1.7,7.1,7.1,0,0,1-.8-8.2,4.1,4.1,0,0,0,.1-1.2c-.9-1.2-2.8-1.8-2.9-4a15.6,15.6,0,0,1,1.6-8,13.9,13.9,0,0,1,1.5-1.9,14.2,14.2,0,0,0-1.1-1.8c-1.6-1.9-1.3-3.9-.4-5.9a10.9,10.9,0,0,1,5.3-4.9,3,3,0,0,1,3.6.9,10.5,10.5,0,0,1,2.5,6.7,4.2,4.2,0,0,1-1.2,2.6C54.6,267.8,53.1,268.6,51.5,269.8Zm.8,21.7c1.7-2,1.9-2.3,1.7-3.8s-.5-1.5-1.5-1.5a2,2,0,0,0-2,1.7A4,4,0,0,0,52.3,291.5Zm-2.5-25.8a3.1,3.1,0,0,0,3.3-1.6c.6-1.2.1-2.2-.5-3.2s-1.1-.6-1.2-.5a5.7,5.7,0,0,0-1.7,2.2A8.2,8.2,0,0,0,49.8,265.7Zm2.6,35.6c-.6-1.1-1-2.1-1.6-3s-1-.3-1.3-.1-1.6,2.6-.9,3.4a3.4,3.4,0,0,0,2.1.9C51.1,302.5,51.6,301.9,52.4,301.3Zm-3.5-26c-1.6,1.4-1.8,2.1-1.1,3.4a1.4,1.4,0,0,0,1.2.4c1.1-.3,1.3-1.3.6-3.2C49.5,275.6,49.1,275.5,48.9,275.3Z" style="fill: #4a435b"/>
    <path d="M94.4,136.8c-.9.4-1.7.9-2.6,1.2s-3.4-.2-3.8-2.1-1.3-6.7,1-9.9c-2.9-3.4-2.9-7.1-1.2-10.9a6.3,6.3,0,0,0-1-1.2c-3.1-2.9-3.4-4.8-1.3-8.5a13.3,13.3,0,0,1,1.4-1.9l1.2-.8.8-.9a21.9,21.9,0,0,1-1.5-4.3,16.3,16.3,0,0,1,.3-4.4,8.7,8.7,0,0,1,1.1-3.2c1.7-2,1.9-4.4,2.5-6.8l2.6-1.7a9.4,9.4,0,0,0,0,2.9c0,.3.9.8,1,.7a4.6,4.6,0,0,0,1.5-1.6c.4-.9-.1-1.6-1.1-1.8l-1.4-.2c.6-3,.6-3,4.2-3.6l2,.3c1.5,1.2,2.7,2.9,4.9,3.2a19.6,19.6,0,0,1,.5,4.8,12.3,12.3,0,0,1-1.4,4.6c-.9,1.8-2.7,2-4.1.6a20,20,0,0,0-1.9-2.2,1.5,1.5,0,0,0-1.3,0,2.3,2.3,0,0,0-.8,1.1c0,.1-.1.3,0,.5,1.4,3.9-.3,7-3,9.9,2.6,3.8,3.2,7.6-.3,11.2,2.6,4.1,3.9,8.2.7,12.6C96.3,128.2,97.8,132.3,94.4,136.8Zm-.5-42.6c-.7-.4-1.3-.9-1.7-.8a2,2,0,0,0-1.5,2.2,1,1,0,0,0,.4.8,1.9,1.9,0,0,0,1.3,0A11.7,11.7,0,0,0,93.9,94.2Zm-4.7,13.7c1.8.7,2.4.6,2.8-.5a2,2,0,0,0-.1-1.7c-.4-.6-1.1-.3-1.5.3A12.2,12.2,0,0,0,89.2,107.9ZM93,132a5.7,5.7,0,0,0-.1-1.3.6.6,0,0,0-.5-.6c-.2-.1-.8,0-.8.2a10.9,10.9,0,0,0-.4,2.6c0,.2.4.5.6.5a1.2,1.2,0,0,0,.8-.4A10.4,10.4,0,0,0,93,132Z" style="fill: #4a435b"/>
    <path d="M24.3,332.6l3.5-5.6c-3-3.5-4.3-7.6-2.8-12.4-1.8-2.7-3.9-5.5-4.1-9l.3-4a27.3,27.3,0,0,1,2.3-2.5,3,3,0,0,1,4.4.3c2.6,3.3,4.8,6.7,2.6,11.2a12.3,12.3,0,0,0-.4,1.6c3,2.8,5.3,6.1,5,10.6l-.9,2.7c-1.2,1.7-1.2,1.7.8,3.3,1.6,3.6,1,7.1.2,10.7l-.9.8-2.2.9c-2.3,1.2-4.1.4-5.7-1.3S24.1,335.3,24.3,332.6Zm8-1-4,2a3.2,3.2,0,0,0,1.3,3.6,1.8,1.8,0,0,0,2.8-.6A5.8,5.8,0,0,0,32.3,331.6ZM27,306c-.7.9-1.3,1.3-1.4,1.8a2.4,2.4,0,0,0,.5,1.6c.4.5,1.5-.4,1.5-1.3A12.2,12.2,0,0,0,27,306Zm4,14.2h-.5a1.5,1.5,0,0,0-1,1.9c.1.4.6.6,1,.8a6.7,6.7,0,0,0,.9-1.4C31.5,321.1,31.2,320.6,31,320.2Z" style="fill: #4a435b"/>
    <path d="M101.5,225.9c-3-4.1-3.1-6.4-.7-12a9.1,9.1,0,0,0-1.6-1.1,4.1,4.1,0,0,1-2.1-4.6,35.9,35.9,0,0,1,1.1-5.7c.7-2.2,2-2.9,4.1-2.9a4.7,4.7,0,0,1,4.6,3.1,6.7,6.7,0,0,1-.5,5.7c-.7,1-1.3,2.1-2,3.2,7.7,4.7,7,8.4,2.3,12.8.3,1,.7,2,1.1,3.1a11.1,11.1,0,0,1,0,7.2,6.5,6.5,0,0,1-2.6,3.5,4.7,4.7,0,0,1-4.7.4,4.5,4.5,0,0,1-2.1-4.7c.6-2,1.4-4,2.1-6Zm3.4-5.2a13.3,13.3,0,0,0,1.2-.6c1-1,1.2-1.8.3-2.9a1.9,1.9,0,0,0-1.5-.7c-1.1.3-1.3,1.3-1.2,2.3a2,2,0,0,0,.4,1.3C104.2,220.4,104.5,220.5,104.9,220.7Zm-1-17.6c-.7.1-1.2,0-1.3.2a5.1,5.1,0,0,0-.9,1.6c-.4,1.4,0,2.3.7,2.3s1.6-.9,1.9-1.7a3.2,3.2,0,0,0,.1-1.4A4.6,4.6,0,0,0,103.9,203.1Zm1.3,28.1c-2.3.5-3.1,1.4-3,2.9a1.5,1.5,0,0,0,.9,1c.4.1,1.2-.1,1.2-.3A20.9,20.9,0,0,0,105.2,231.2Z" style="fill: #4a435b"/>
    <path d="M163.3,129.3c5.6-.5,5.9-.2,5.4,5.2l-.3,2.4a7.3,7.3,0,0,1-4.1,2.3l-2-.6c-.3-.3-.6-.9-.9-.9s-.9.8-.7,1.5l-1.1,2.1a2.4,2.4,0,0,0-1.4,2.3c0,2.7.1,5.5.1,8.2s-.8,4.5-3.1,5.9l-4.4-1.7c0-1.6-.1-3.3,0-4.9a7.8,7.8,0,0,1,.3-3.4c2.5-4.9,2.3-10.4,3.6-15.5.5-2,.8-3.9,2.5-5.2a11.9,11.9,0,0,1,2.5-1.3l2.3,2.6C161.9,129.4,162.5,129.5,163.3,129.3Z" style="fill: #4a435b"/>
    <path d="M150.8,156l4.4,1.7c-.1.7-.5,1.7-.2,2.2,1.3,2,1.1,4,.7,6.1a8,8,0,0,1-.3,1.5,39.3,39.3,0,0,0-1.8,12.8,10.8,10.8,0,0,1-3,8,1.1,1.1,0,0,0-.8.3l-3-.5c-2.7-4.2-1.9-8.5.3-12.5.9-1.7,1.5-3.2.9-5.1V170c-.7-4.1-.4-7.9,3.2-10.5A33.9,33.9,0,0,0,150.8,156Z" style="fill: #5d536c"/>
    <path d="M93.9,81.4l-2.6,1.7c.2-3.5.2-3.5,3.1-7.6-1-1.8-2.1-3.9-1.1-6.2A16.7,16.7,0,0,1,98,62.6a1.8,1.8,0,0,1,2.6.5,8.2,8.2,0,0,1-.5,10.7c-1.1,1.1-2.7,2-2,4-3.6.6-3.6.6-4.2,3.6Zm4.9-11.1c-.3-.5-.5-.9-.6-.9s-1.1.4-1.1,1,.3.5.4.7Z" style="fill: #5d536c"/>
    <path d="M198.6,204.1l2.9-.4c2.9-.3,4.6,1.2,4.6,4.2s-.4,5.9-3,8.1-5.6,1.3-6.2-2.1a12,12,0,0,1,1-8.1l.8-1.8Z" style="fill: #5d536c"/>
    <path d="M94.1,169.4l1.3-1.9a2.8,2.8,0,0,1,2.8,0,8.5,8.5,0,0,1,3.9,3.6,20.7,20.7,0,0,1,1,3.3,5.9,5.9,0,0,1-6.2,6.9,3,3,0,0,1-3.1-2C92.6,176,92,172.7,94.1,169.4Zm5.6,5.7a3.5,3.5,0,0,0-.1-1.2c-.4-.5-.8-1.2-1.3-1.2a1.9,1.9,0,0,0-1.5.9,8.8,8.8,0,0,0,0,2.8,1.4,1.4,0,0,0,1.1.9,1.7,1.7,0,0,0,1.2-.7A5.8,5.8,0,0,0,99.7,175.1Z" style="fill: #4a435b"/>
    <path d="M105.5,190.1c.2,2.5-4.1,6.1-6.4,6a4.7,4.7,0,0,1-4.2-2.8,6.2,6.2,0,0,1,1.8-7.4,17.8,17.8,0,0,1,3.6-2.5,3.2,3.2,0,0,1,4.8,2.4A31.3,31.3,0,0,1,105.5,190.1Zm-4.9-3.3c-.4.5-1.1.9-1.2,1.4a5.7,5.7,0,0,0,.4,2.2c.2.4.7.8,1.1.7s1-.4,1-.7a13.1,13.1,0,0,0,0-2.8C101.8,187.3,101.2,187.2,100.6,186.8Z" style="fill: #4a435b"/>
    <path d="M94.4,271.2c1.2-1.1.8-2.7,1.2-4.1s.6-2.5,1-3.8a3.4,3.4,0,0,1,3.2-2.5,3.2,3.2,0,0,1,3.3,2.4,21.8,21.8,0,0,1,1.1,6.1c0,3-2.4,4.7-5.4,4.1-1.2-.3-2.4-.8-3.6-1.2h.1c.2-.9,0-1.3-1-1.2Z" style="fill: #5d536c"/>
    <path d="M169.3,140.6c3.2.3,3.4.6,3.9,3.1a6.7,6.7,0,0,1-1,5.2,7.2,7.2,0,0,0-1,6.9l-2.9.2c-3.5-3.9-3.9-8.3-2.1-13Z" style="fill: #4a435b"/>
    <path d="M198.7,204c-.6-1.3-2-.7-3-1.2s-3-2-3-4,.2-4.6.4-6.8a2.4,2.4,0,0,1,2.1-2.4,2.7,2.7,0,0,1,2.5,1c3.6,4,3.8,5,1.9,10-.4,1.1-1.9,2-1,3.5Z" style="fill: #4a435b"/>
    <path d="M108.4,252.7a9.8,9.8,0,0,1-.6,2.4,4.2,4.2,0,0,1-4,3,4.4,4.4,0,0,1-4.6-2.8c-2.2-5.2.6-8.4,5.8-10.1a2.3,2.3,0,0,1,2.8,1.4C108.9,248.3,108.7,250,108.4,252.7Zm-3.3-3.7c-1.8.5-2.4,2-2.8,3.5a1.6,1.6,0,0,0,.9,1.5,1.8,1.8,0,0,0,1.7-.3C106.3,252.5,106.3,251.5,105.1,249Z" style="fill: #4a435b"/>
    <path d="M117.8,129.9a8.9,8.9,0,0,1,1.1,9.6,7.2,7.2,0,0,1-1.4,2c-1.3,1.5-2.5,1.7-4.3.8a14.8,14.8,0,0,1-2.1-1.3c-1.6-2.4-1.1-5-.3-7.5S113.6,129,117.8,129.9Zm-2.6,8.9c2.1-1.7,2.5-2.7,1.7-4.5a1.2,1.2,0,0,0-.7-.5,1.7,1.7,0,0,0-1.3.5C114.1,135.6,114.3,137.1,115.2,138.8Z" style="fill: #4a435b"/>
    <path d="M107.1,93c.6.8,1.3,1.2,1.3,1.7a6.4,6.4,0,0,0,1.8,3.9c1.7,1.7,1.9,4.1,2.4,6.3a2.1,2.1,0,0,1-1.4,2.3,3.9,3.9,0,0,1-5.3-2c-1.2-3.3-1.9-6.6-.8-10C105.4,94.4,106.3,93.9,107.1,93Z" style="fill: #4a435b"/>
    <path d="M95.1,150.8c-5.4,2.5-6.4,1.8-7-4-.2-2.4-.3-4.6,1.8-6.4l4.2-.7C98.6,143.4,98.8,145.9,95.1,150.8Zm-1.2-7.2c-.9.5-1.5.6-1.7.9a6.2,6.2,0,0,0-.7,2.3,1.5,1.5,0,0,0,.8,1.1,1.6,1.6,0,0,0,1.2-.3,14.3,14.3,0,0,0,.9-2.7A3.5,3.5,0,0,0,93.9,143.6Z" style="fill: #4a435b"/>
    <path d="M110.1,110.7c1.9.7,3.4,1.9,3.7,3.7a11.8,11.8,0,0,1-.3,7.2,6.6,6.6,0,0,1-2.4,2.3,2.7,2.7,0,0,1-3.1-.4l-.4-.4c-2-2.2-1.6-4.8-1.3-7.4A5.6,5.6,0,0,1,110.1,110.7Zm.3,9.2c1.4-.4,1.6-1.5,1.5-2.7a1.5,1.5,0,0,0-.9-1,1.6,1.6,0,0,0-1.2.5C108.9,117.7,109.1,118.2,110.4,119.9Z" style="fill: #4a435b"/>
    <path d="M65.4,263.9a6,6,0,0,0,.8.8c.7,1.8,1.8,3.5,2.2,5.4s-1,4.7-3.7,5.4a2.7,2.7,0,0,1-2.7-.8,8.5,8.5,0,0,1-1.7-2.9,19.1,19.1,0,0,1-.6-4.8c0-3.2,1.5-4.2,4.8-3.5Zm-1.1,3.6-1,2a1.8,1.8,0,0,0,1,2.3c.4,0,1.1-.5,1.1-.7A19.7,19.7,0,0,0,64.3,267.5Z" style="fill: #4a435b"/>
    <path d="M74.6,272.4a3.8,3.8,0,0,0,1-.3,3.8,3.8,0,0,1,4.8.7,5.4,5.4,0,0,1,1.5,5.7,17.7,17.7,0,0,1-1.5,3.1l-1,.9a7.8,7.8,0,0,1-5.8-.4h-.1l-1.2-1.7-.3-2.8A4.8,4.8,0,0,1,74.6,272.4Zm4.5,5c.1-1.3-.6-2.4-1.5-2.3s-1.2.9-1.3,1.7a3.3,3.3,0,0,0,0,1.4,1.2,1.2,0,0,0,1.9.5A7.7,7.7,0,0,0,79.1,277.4Z" style="fill: #4a435b"/>
    <path d="M111.4,150.3c.6-2.3,1.3-4.5,3.3-5.9a3.1,3.1,0,0,1,1.8-.5c2.9.4,4.9,4.3,3.5,6.8s-2.9,3.9-5.6,4.3-2.3-.8-2.7-2A24.8,24.8,0,0,1,111.4,150.3Z" style="fill: #4a435b"/>
    <path d="M179.7,167.5a2.1,2.1,0,0,1-1.8-2.3,28.4,28.4,0,0,1,.6-3.1,19.7,19.7,0,0,1,.7,2.6C179.4,165.7,179.5,166.6,179.7,167.5Z" style="fill: #706578"/>
    <path d="M56.3,367.1c1.3,2,1.3,2.2-.8,3.1A3.5,3.5,0,0,1,56.3,367.1Z" style="fill: #2f2e3a"/>
    <path d="M149.8,188.6a1.1,1.1,0,0,1,.8-.3Z" style="fill: #c3bbb2"/>
    <path d="M30.7,358.9l-4.9-2.4-1.5-4.1c-.2-2.7.4-5.1,2.9-6.7a3.3,3.3,0,0,1,4.7.5,8.5,8.5,0,0,1,2.5,5.1c-1.7,1.7-1.2,4-1.6,6Zm-.3-4c1.3-2.2,1.4-3.7-.5-5.4C29.3,351.3,28.7,352.7,30.4,354.9Z" style="fill: #4a435b"/>
    <path d="M32.8,357.3c.4-2-.1-4.3,1.6-6C35.6,354.5,35.3,355.5,32.8,357.3Z" style="fill: #5d536c"/>
    <path d="M54.8,376.1c.7.7.6,1.4-.3,1.9Z" style="fill: #4a435b"/>
    <path d="M168.5,487.6c-.1.7-.3,1.4-.4,2S167.6,488.1,168.5,487.6Z" style="fill: #706578"/>
    <path d="M172.7,481.2l-1.7.3Z" style="fill: #706578"/>
    <path d="M135.2,600.5c-.5,4-2.7,6.9-6,9.1a3.4,3.4,0,0,1-4.5-.5,22.9,22.9,0,0,1-3.2-4.3c-1.3-2.5.1-7.4,2.5-9.3s2.3-1.4,3.4-2.1a4.1,4.1,0,0,1,5,.6A7.9,7.9,0,0,1,135.2,600.5Zm-8.1,5.8a7.1,7.1,0,0,0,4.2-4.1,5,5,0,0,0-.5-5,1.3,1.3,0,0,0-2.1.1,3.4,3.4,0,0,0-.5,1.9c0,1.7-1.2,2.1-2.4,2.6s-.3.6-.6,1.1S126.3,604.9,127.1,606.3Z" style="fill: #5d536c"/>
    <path d="M148.1,586.2c-.3,2.9-3.6,6.3-6.5,6.6a4.6,4.6,0,0,1-4.3-1.8c-2.4-3.3-1.8-11.5,3.3-13.7,2.2-.9,3.7-.8,5.2,1.1A12.8,12.8,0,0,1,148.1,586.2Zm-5.3-5.9a11.7,11.7,0,0,0-1.1,1.6c-.2.4-.3.9-.5,1.3s-1.1,1.6-1.5,2.5a2.6,2.6,0,0,0,1.4,3.2,2.6,2.6,0,0,0,2.8-1.4C145.1,585.1,144.8,582.9,142.8,580.3Z" style="fill: #5d536c"/>
    <path d="M160.7,568.7c-.1,3.2-2.1,5-4.5,6.5a4.1,4.1,0,0,1-6.2-2.6c0-.4-.2-.7-.1-1,.5-4.3,1.8-8.3,5.6-10.9a3,3,0,0,1,4.8,2.1,20.4,20.4,0,0,1,.3,3.4A20.9,20.9,0,0,1,160.7,568.7Zm-3.2-.4a8.5,8.5,0,0,0,0-1.7c-.2-.4-.4-1-.7-1.1a1.5,1.5,0,0,0-1.3.3,5.2,5.2,0,0,0-1.6,4.4c.1.4.4,1,.8,1.1a1.4,1.4,0,0,0,1.3-.3A29.1,29.1,0,0,0,157.5,568.3Z" style="fill: #5d536c"/>
    <path d="M192.4,516.4l1.9,3.5.3,3.1a10.9,10.9,0,0,0-.1,1.8c-1,2-1.9,4.1-3.9,5.5s-2.2,1.5-3.6.8a4,4,0,0,1-2.6-3.7,13.4,13.4,0,0,1,4-10.1A4.5,4.5,0,0,1,192.4,516.4Zm-3.5,10.1c2-2.1,2-2.1.8-4.4A4,4,0,0,0,188.9,526.5Z" style="fill: #5d536c"/>
    <path d="M172.1,550.5a17.8,17.8,0,0,1-4.4,8.2,3.1,3.1,0,0,1-5.2-.9,6,6,0,0,1-.3-5.2,43.1,43.1,0,0,1,2.2-4.9c1-2.1,2.8-3,4.7-2.5a4.5,4.5,0,0,1,3.1,4.5A5.4,5.4,0,0,0,172.1,550.5Zm-2.7-.1c-2.4.1-3.4.9-3.8,2.1s-.3,1.9.1,2.2,1.5,0,1.9-.7S168.5,552,169.4,550.4Z" style="fill: #5d536c"/>
    <path d="M182.8,537.4c-.3,2.7-.7,4.9-2.3,6.7a4.4,4.4,0,0,1-6.5.3,3.6,3.6,0,0,1-1.1-3.6c.7-2,1.3-4.1,2.1-6a4.8,4.8,0,0,1,3.5-2.5,3.5,3.5,0,0,1,4.2,3A17.9,17.9,0,0,1,182.8,537.4Zm-3.8.4c-1.6.1-2,1.3-2.3,2.6s.3.9.6,1a1.2,1.2,0,0,0,1.1-.4A2.9,2.9,0,0,0,179,537.8Z" style="fill: #5d536c"/>
    <path d="M197,506.2l-3,3.4h-.5c-2.4,1-4.5.6-6-1.5s-.4-4.8,1.5-6.5a8.1,8.1,0,0,1,4.7-2.5c2.6-.1,4.4,1.6,4.1,4.2C197.7,504.3,197.2,505.3,197,506.2Z" style="fill: #5d536c"/>
    <path d="M148.8,240c-2.6,1.4-5.5,1.6-8.4,1.8l-7.3.4v-5h.1l1.9-.8,11.6-1.9a15.5,15.5,0,0,0,2.3-.6,3.1,3.1,0,0,0,2.4-4.1,49.9,49.9,0,0,1-1.6-5.1,17,17,0,0,1,0-3.9,2.9,2.9,0,0,1,2-2.5,2,2,0,0,1,1.8.4,2.3,2.3,0,0,1,.6,1.3c.5,3.2,1.3,6.4,1.3,9.6s1.4,6.6,3.8,9.2l1.5,1.6c-.5,1.5-2.7,1.9-2.6,3.8s-.1,3,.1,4.4c1.3,7.1,1.2,14.3,1.7,21.4a4.1,4.1,0,0,1-2.2,4.5,3.2,3.2,0,0,0-.2-1.4,29.5,29.5,0,0,1-1.7-9.4c-.1-3.1.3-6.5-1.6-9.4v-3.1c.8-2.7.1-5.4-.4-8-.1-.6-.8-1-1.2-1.4a1.7,1.7,0,0,0-.1-.7,5.9,5.9,0,0,0,0-2.3,2.6,2.6,0,0,0-1.4-1.5c-1.1-.4-1.8.2-2.2,1.3S148.9,239.5,148.8,240Z" style="fill: #a22818"/>
    <path d="M154.3,254.3c1.9,2.9,1.5,6.3,1.6,9.4a29.5,29.5,0,0,0,1.7,9.4,3.2,3.2,0,0,1,.2,1.4c-.4,0-1,.2-1.3,0s-1.6-2.3-1.7-3.8c-.1-3.9-.5-7.7-.6-11.5A40.1,40.1,0,0,1,154.3,254.3Z" style="fill: #706578"/>
    <path d="M173.7,238.6c-.1.3-.3.9-.6,1a32.8,32.8,0,0,1-5,1.7c-.5.1-1.4-.7-1.8-1.3a1.9,1.9,0,0,1,.5-1.7,6.6,6.6,0,0,1,4.8-2A2.1,2.1,0,0,1,173.7,238.6Z" style="fill: #a22818"/>
    <path d="M152.7,241.8c.4.4,1.1.8,1.2,1.4.5,2.6,1.2,5.3.4,8-.3-.3-1-.5-1-.9C152.9,247.5,152,244.7,152.7,241.8Z" style="fill: #706578"/>
    <path d="M148.8,240c.1-.5.1-1,.2-1.4s1.1-1.7,2.2-1.3a2.6,2.6,0,0,1,1.4,1.5,5.9,5.9,0,0,1,0,2.3Z" style="fill: #2f2e3a"/>
    <path d="M133.1,237.2v5c-1.3-.2-2.1-.8-2.1-2.2S131.4,237.4,133.1,237.2Z" style="fill: #706578"/>
    <path d="M135.1,236.4l-1.9.8Z" style="fill: #706578"/>
    <path d="M50.7,415.3l-1.8,7.6A7.1,7.1,0,0,1,45,428a10,10,0,0,1-1.5-2.3c-.7-4.4,1.1-8,4.5-10.7.6-.5,1.8-.4,2.7-.5Z" style="fill: #a22818"/>
    <polygon points="47.8 386.2 48 386.5 47.8 386.2 47.8 386.2" style="fill: #4a435b"/>
    <path d="M75.4,444.7c.2.1.7.2.8.4v2.2a1.1,1.1,0,0,1-.8.2c-.9-.4-1-1.5-.4-2.5Z" style="fill: #b0a79c"/>
    <path d="M149.5,431.5c.6-4.3,2.4-7.3,3.8-10.4a2.4,2.4,0,0,1,3.5-.5c5,4.9,9.2,10.3,8.5,17.9a15.5,15.5,0,0,1-1.2,4.2,4.5,4.5,0,0,1-5.6,2.8c-4.1-1-7.3-3-8.1-7.5C149.9,435.6,149.7,433.1,149.5,431.5Zm9.8,9.9a2.2,2.2,0,0,0,2.6-1.7c1-4.4.3-8.4-3.7-11.2l-1.4-1.2-1-1.4a6.9,6.9,0,0,1-1.1,1.3c-.3,2.5-.6,5.1-.7,7.6S155.2,440.3,159.3,441.4Z" style="fill: #4a435b"/>
    <path d="M156.8,427.3l1.4,1.2a22.1,22.1,0,0,0,1.4,4.1,8.6,8.6,0,0,1,.5,6.1,27.6,27.6,0,0,1-.8,2.7c-4.1-1.1-5.5-2.7-5.3-6.6s.4-5.1.7-7.6Z" style="fill: #a22818"/>
  </g>
</svg>
