<svg xmlns="http://www.w3.org/2000/svg" width="240" height="622" viewBox="0 0 240 622">
  <title>lesarstsvoisins</title>
  <g id="Layer_18" data-name="Layer 18">
    <g>
      <path d="M35.4,434.3a2.1,2.1,0,0,1,.4.6l-.6.3a.5.5,0,0,1-.3-.3Z" style="fill: #c4baae"/>
      <path d="M240,248.1a17.6,17.6,0,0,1-6.8-.8,6.5,6.5,0,0,1-1.3.4l-6.6-1.3-4.9-.5c-4.2-.3-5.4,1.2-4,5.1a19.8,19.8,0,0,1,1,4.2c.3,1.8.4,3.6.6,5.3a3.3,3.3,0,0,1,.4,3.7c.1.8.1,1.6.2,2.4l2.9-.7c-.1-1-.1-2-.1-2.9s-1.5-1.8-.3-4v-3c-1.1-.7-1.2-1.7-1.1-2.9a3.6,3.6,0,0,1,2-3l.3-.2c1.4-1,2.8-.5,4.3-.2l5,.6c2.8.2,5.6-.3,8.2,1.3h.8" style="fill: #4a435b"/>
      <path d="M224.2,238.5a1.2,1.2,0,0,1-1.7.3c-5.5-3.7-11.3-3.5-17.3-1.5-1,.4-2.2.8-3.1-.3s1.3-2.1,2.6-2.5c5.9-1.9,11.8-2.2,17.5.9l2.6,1.4C224.7,237.4,225.7,238.4,224.2,238.5Z" style="fill: #4a435b"/>
      <path d="M226.6,244.6l-2.7-4.5c-.3-.7-.4-1.2.3-1.6s2,.2,2.9.8a1.8,1.8,0,0,0,2.5,1.2c2.9,1,3,1.3,2.2,4.5C230,245.9,228.2,246.1,226.6,244.6Z" style="fill: #4a435b"/>
      <path d="M226.6,244.6c1.6,1.5,3.4,1.3,5.2.4.5.8.9,1.6,1.4,2.3a6.5,6.5,0,0,1-1.3.4l-6.6-1.3Z" style="fill: #5d536c"/>
      <path d="M229.6,240.5a1.8,1.8,0,0,1-2.5-1.2A3.2,3.2,0,0,1,229.6,240.5Z" style="fill: #5d536c"/>
      <path d="M225.8,356.6c-.4,9-.8,18-1.3,27-.8,12.8,0,25.5,1.3,38.2,1,10.3,2,20.6,3.3,30.8,0,.2.1.4.1.6l4.4.5V453a47.3,47.3,0,0,1-1.6-13,17,17,0,0,0-.4-2.2c-.1-.6-.4-1.2-.5-1.9-.7-7.1-1.3-14.3-2.2-21.4-1.5-11.1-.9-22.2-.5-33.3.2-8.2.7-16.4,1.1-24.5v-2.5c-.4-6.8-.6-13.7-1.1-20.5-1.4-19.3-2.9-38.5-5.3-57.7-.4-3.4-1.1-6.7-1.6-10.1l-2.9.7a9.7,9.7,0,0,0-.1,2.4c.7,6.2,1.4,12.4,2.2,18.6s1.6,11,2,16.5.5,11.2.9,16.7c.6,10.6,1.4,21.2,2.1,31.9A25.4,25.4,0,0,1,225.8,356.6Z" style="fill: #5d536c"/>
      <path d="M181.9,429c7.4,5.8,7.4,5.8,13.1,15.4.3.6.8,1,1.4,1.9.6-.7,1.4-1.1,1.7-1.8,1.1-2.5,2.1-5.1,3.1-7.6l2.3,1.6a33.3,33.3,0,0,1-4.1,9.5,8.3,8.3,0,0,0-1.3,6,36.9,36.9,0,0,1-4,20.4,24.2,24.2,0,0,1-8,9.1,10.8,10.8,0,0,1-5.6,1.7l-2.9-.2a4,4,0,0,0-3.4,1.7c-1.7,2.1-3.3,4.4-5.2,6.4-4.2,4.4-9.3,6.7-15.4,6.2a14.9,14.9,0,0,1-9.3-4.1l-1-1c-1.7-1.4-2.7-1.5-4.3-.2a9.5,9.5,0,0,0-1.9,1.6c-5.5,5.5-16.5,6.4-23.6-1.8-1.5-1.8-2.7-3.8-4.3-6.1-4.5-1.2-9.8-1.8-14-5.3s-6.9-7.7-9.6-12.3l-4.6,1c-4.7.9-8.3-1.3-11-4.8a17.4,17.4,0,0,1-2.8-6.2c-1.9-8.6-3.5-17.3-1.9-26.2a10.5,10.5,0,0,0-.6-5.3,29.7,29.7,0,0,1,.8-23.4c1-2.2.8-4.5.8-6.8A66.9,66.9,0,0,1,73,368.6a5.8,5.8,0,0,1,1.3-1.4l1.3,1.4-1.8,5.1a72.9,72.9,0,0,0-4.6,19.5,17.9,17.9,0,0,0,.1,3.2,19.1,19.1,0,0,0,2.4,0l4.3-.9a8.2,8.2,0,0,1,7.4,3.1,6.4,6.4,0,0,1-.7,9.2c-3.2,2.8-6.8,2.7-10.6,1.5a29.1,29.1,0,0,1-3.5-1.8c-2,1.1-2.2,2.9-2.5,4.6-1,5.9-.7,9.1,1.4,13.7a9.7,9.7,0,0,0,1.9-1.5c1.3-1.2,2.4-2.7,3.7-3.8a9.4,9.4,0,0,1,9.2-2,6.8,6.8,0,0,1,5,8.8,12.8,12.8,0,0,1-13.8,9.3H73c-5.4-1.7-5.5.8-5.4,4.9A79.5,79.5,0,0,0,69.1,456a26.6,26.6,0,0,0,3.3,8.2c2.2,3.2,5.4,4.1,9.1,3.6a2.6,2.6,0,0,0,2.4-3.1c-.1-1.4-.4-2.9-.6-4.3a30.3,30.3,0,0,1,1.6-15.5,9.6,9.6,0,0,1,.7-1.8,7.4,7.4,0,0,1,8.8-3.6,7,7,0,0,1,4.6,7.8,15.7,15.7,0,0,1-1.6,5.6A94,94,0,0,1,91,464c-2,2.8-2.2,5.3-.6,8.1a23.9,23.9,0,0,0,13.2,11.2,14,14,0,0,0,2.8.6,2.2,2.2,0,0,0,2.5-1.9,12.3,12.3,0,0,0,.2-1.9c0-4.4,1.5-8.4,3.3-12.3a26.3,26.3,0,0,1,3.8-5.6,7.2,7.2,0,0,1,2.8-2c3.1-1.3,5.9-.1,7.4,2.9a9.4,9.4,0,0,1,.8,5.2,21,21,0,0,1-9.6,16.4l-4,2.5c2,6,6.8,9.6,12.5,9.7s11.3-3.6,13-8.8a58.1,58.1,0,0,0,.9-5.8c1.5,1,1.2,2.5,1,4s-.3,2.2-.5,3.3a1.2,1.2,0,0,0,.8.5c.2,0,.8-.1.8-.3a17.9,17.9,0,0,0,.2-2.3c0-1.5-.1-3,1.5-3.9,0,1,.1,2,0,3a7.8,7.8,0,0,0,3.5,7.1,13.1,13.1,0,0,0,12.5,2c5.7-1.8,9.2-6,12-11,.7-1.1.1-2.1-.5-3.2a45.7,45.7,0,0,1-3.5-7,18.4,18.4,0,0,1-1.1-6.2c0-2.9.5-5.8.6-8.8s4.6-4.8,7.1-2.8a14.3,14.3,0,0,1,3.1,3.8,12.7,12.7,0,0,1,2,7.4l-.9,8.8c-.2,1.5-.6,2.9-.9,4.2s2.3,1.2,3.6,1.1,3.9-.7,5.3-2.3a47.8,47.8,0,0,0,4.8-6.1c3.3-5.3,4.6-12.4,3.7-19.2a11.8,11.8,0,0,0-2.7.3c-4.3,1.4-7.8-.1-10.7-3.1-4.8-4.9-5.6-10.9-4.3-17.3.3-1.5,1-2.8.6-4.3Zm-69.7,49.4a27.1,27.1,0,0,0-.1,2.9,1.8,1.8,0,0,0,2.4,1.6,4,4,0,0,0,1.8-.7,17.4,17.4,0,0,0,8.1-14.8,8.9,8.9,0,0,0-.8-3.2,2.6,2.6,0,0,0-3.4-1.3,7.8,7.8,0,0,0-3.9,3.5A34.2,34.2,0,0,0,112.2,478.4Zm76-26.5a20,20,0,0,0,2.9-.3c1.8-.3,2.6-1.8,2.2-3.7l-.3-.9a37.3,37.3,0,0,0-7.8-11.8,3.6,3.6,0,0,0-1.2-.8,2.2,2.2,0,0,0-3.5,1.3c-1.5,4.9.2,11.1,4.2,14.3A24.5,24.5,0,0,0,188.2,451.9Zm-92-4.8a4.5,4.5,0,0,0-3.1-4.9c-2.1-.5-4,.4-5.1,2.7a26.8,26.8,0,0,0-1.5,16.3,1.9,1.9,0,0,0,.8,1.1,2.4,2.4,0,0,0,1.7-.4,35,35,0,0,0,7.1-14.3A.7.7,0,0,0,96.2,447.1ZM74.6,433.6a6.9,6.9,0,0,0,5.6-1.2,11.2,11.2,0,0,0,4.1-5.9,4,4,0,0,0-2.5-5.1,6.6,6.6,0,0,0-4.8.1,11.5,11.5,0,0,0-6.4,6.9,3.4,3.4,0,0,0,1.8,4.5A12.8,12.8,0,0,0,74.6,433.6Zm95,30.9c-.2,3.1-.3,6.2.8,9.2a17.6,17.6,0,0,0,1.9,3.9,3.1,3.1,0,0,0,2.1.9c.4,0,1-.8,1.2-1.3a37.5,37.5,0,0,0,1.3-5.8,16.5,16.5,0,0,0-2.1-9.9,7.6,7.6,0,0,0-1.9-2.1,1.7,1.7,0,0,0-2.5.7C170.1,461.6,169.9,463,169.6,464.5ZM77.4,398.3a6.5,6.5,0,0,0-6.2,2.5,3.1,3.1,0,0,0,.5,4.7c2.4,1.9,5.1,1.8,7.9.8a3.7,3.7,0,0,0,1.7-5.7A4.7,4.7,0,0,0,77.4,398.3Z" style="fill: #706578"/>
      <path d="M112.8,229.8c-2.3-.8-3.6-2.7-4.8-4.7a26.5,26.5,0,0,1-3.8-12.5c0-2.8-.2-5.6,0-8.4a15.7,15.7,0,0,1,3.5-8.9c3-3.8,6-7.3,10.4-9.4a16.9,16.9,0,0,1,5.6-1.6,6.2,6.2,0,0,1,6,2.6,37.1,37.1,0,0,1,3.6,5.2c2.1,4.3,3.8,8.7,5.8,13a27.3,27.3,0,0,1,2.1,10.1c.1,3.1.1,6.2.1,9.3.1,9.2,2.3,17.9,7.5,25.6a26.7,26.7,0,0,0,3.8,4.4c5,4.9,10.1,9.9,15.3,14.6a31.2,31.2,0,0,0,13.2,7.3,14.8,14.8,0,0,0,10.5-1.2c2.7-1.3,3.6-3,3-6a22,22,0,0,0-1.3-3.6c-1-2.1-2.2-4.1-3-6.2a36.9,36.9,0,0,1-1.9-5.6,9.3,9.3,0,0,1,2.3-8.7l3-3.1.5.5.8,1,.3.4a1.4,1.4,0,0,1-.5.8c-3.9,4.3-4,9-1.5,14,1.4,2.7,2.5,5.4,3.7,8.1a14.8,14.8,0,0,1,1,2.7,6.3,6.3,0,0,1-2.3,6.6c-3.1,2.5-6.7,3.3-10.5,3.5h-5.1c-.8,1.7.3,2.5.9,3.4a23.1,23.1,0,0,1-2.3,29.2c-2.6,2.7-5.8,3.4-8.9,1.7a7.3,7.3,0,0,1-4-4.7c1.7,0,2.5,1.1,3.5,2.1a2.9,2.9,0,0,0,4.2.1,3.1,3.1,0,0,0,3.2-1.4,7.7,7.7,0,0,0,1.7-4.3c5.8-7,4.9-17.5-2.1-23a10.8,10.8,0,0,0-4.4-1.8c-2.5-.6-3.2.1-4.4,3.1a38.7,38.7,0,0,1-2.7,4.3,14.3,14.3,0,0,0-2.7,5c-2.2-3.1-1-6.4-.1-9.4s3.7-5,6.6-6.3l3.2-1c-.2-.5-.2-.9-.4-1.1-5.3-3.4-9.2-8.3-13.9-12.4a85.1,85.1,0,0,1-10.3-10.5,37.8,37.8,0,0,1-7.8-16.7,59.6,59.6,0,0,1-1.2-14.6c.2-7.4-.9-14.4-4.3-21-1.3-2.6-2.5-5.3-3.8-7.9a18.3,18.3,0,0,0-2.6-3.6,4.4,4.4,0,0,0-5.4-1.1,26.5,26.5,0,0,0-12.9,10.9A23.5,23.5,0,0,0,107,206a28.4,28.4,0,0,0,4.1,18.4,18.4,18.4,0,0,0,2.1,2.5l.9-1.9,3,4.9Z" style="fill: #5d536c"/>
      <path d="M70.3,310.7l.3-4.9c1-3.1,2.1-6.2,3.1-9.3a3.2,3.2,0,0,1,2.9-2.3c3-.1,4.8-1.8,6-4.3s4.9-5.2,7.4-7.8a5.4,5.4,0,0,1,2.2-.9l12.1-1.8a19.8,19.8,0,0,0,3-.6c.9-1.7,0-2.9-.4-4a28.7,28.7,0,0,1-1.4-11.6c0-1.8.2-3.6,1.8-4.9.2,1,.3,2.1,1.5,2.6.1,3.1-.4,6.1.2,9.3a16.5,16.5,0,0,0,3.7,7.9c1.2,1.3,2.2,2.7,3.2,3.8s-1.1,1.7-1.9,1.6l-7.3-1.1a29.4,29.4,0,0,0-9.8.5c-6.8,1.3-10.5,6-13.6,11.8a21.7,21.7,0,0,0,2.8,3.1,24.9,24.9,0,0,1,5.1,6.5,15.6,15.6,0,0,1,1.5,4.1c.7,3.2-1,5-4.3,4.8a10.2,10.2,0,0,1-8.5-7.2,26.4,26.4,0,0,1-.8-4.9c-.1-1.1-.2-2.2-.3-3.1a1.8,1.8,0,0,0-2.6.8,19.4,19.4,0,0,0-2.8,9.3,38.1,38.1,0,0,0,4.3,19,8,8,0,0,0,3.4,3.7l3.9-2.9a11.3,11.3,0,0,1,8.4-2,8.8,8.8,0,0,1,2.7,1c2.6,1.5,3,3.8,1.3,6.2a9.1,9.1,0,0,1-5.3,3.4,15.5,15.5,0,0,1-7.7.2,4.4,4.4,0,0,0-5.4,2.4L77,343l-2-.3c.5-1.5,1-3,1.6-4.5s1.3-2.6,2.1-4a33.9,33.9,0,0,1-6.3-13.1C71.5,317.7,71,314.2,70.3,310.7Zm13.2,22.4c3.8,1.6,6.9,1.7,9.9,0a2.8,2.8,0,0,0,1.6-2.8c0-.9-1.1-1.8-2.5-2C88.7,327.8,86.1,329.6,83.5,333.1Zm-.6-34c-1.6,2.3-.8,4.3-.1,6.2a6.4,6.4,0,0,0,3.8,4.1h.5a1.7,1.7,0,0,0,2.1-1.9c-.3-2.7-1.8-4.8-3.5-6.7A15,15,0,0,0,82.9,299.1Z" style="fill: #5d536c"/>
      <path d="M123.9,330.4c.3-1.5.4-2.9.7-4.4a15.7,15.7,0,0,1,13.3-11.9c3.1-.2,5.7.5,7.8,3.2a17.9,17.9,0,0,1,3.6,6.8c1.1,4.9,2.3,9.8,3.6,14.8a6.9,6.9,0,0,1-.9,5.6,15.9,15.9,0,0,1-3.6,4.5,67.3,67.3,0,0,1-9.6,6c-3.2,1.6-6.8.7-9.4-1.9a17.5,17.5,0,0,1-4.5-8.6A44.4,44.4,0,0,1,123.9,330.4Zm16.7-13.1a1.1,1.1,0,0,0-2-.2h-.9c-6.8,1.6-9.2,4.5-9.9,10.8-.3,1.9-.6,3.8-.8,5.8-.3,4.6,1.2,9,2.6,13.4a10.4,10.4,0,0,0,2.3,3.7c1.6,1.6,3.6,1.9,6,.6a12.2,12.2,0,0,0-1.4-1.6c-3.9-2.4-5.6-6.2-6.7-10.4a20.3,20.3,0,0,1,0-11.2l5.4-5.3c3.7-.2,6.3,1.6,8.4,4.5.7,1.3,1.3,2.5,2.9,2.8,2-5.7.2-9.7-5.7-12.9Zm3.3,26.9-1.9-.7-1.5-.2a8.5,8.5,0,0,1-4.9-11.6,2,2,0,0,1,1.6-.7c.3-.1.9.4,1.1.7a4.3,4.3,0,0,1,.4,1.9c0,2.1,1.4,3.6,2.6,5.1a2.1,2.1,0,0,0,1.7.5,1.9,1.9,0,0,0,1.1-1.4c.3-4-.9-7.4-4.3-9.8s-6.6-.9-7.4,3.1.4,9.4,3.1,13.5a4.4,4.4,0,0,0,3.6,2.2A5.2,5.2,0,0,0,143.9,344.2Z" style="fill: #4a435b"/>
      <path d="M105.9,426.6a20.2,20.2,0,0,0-3.3-.9,8.9,8.9,0,0,1-6.4-4.2,39,39,0,0,1-4.2-7.1c-2.8-6.3-1.3-12.1,2.7-17.4a15.2,15.2,0,0,1,3.5-2.6c.9-.6,2-1,3.1-1.6a10.6,10.6,0,0,0-2.8-5.8,15.9,15.9,0,0,1-3.6-10.4c-.2-4.9,2.6-8.1,7.5-8.4a26.4,26.4,0,0,1,4.9.2c4.8.6,6.4,2.5,6.7,7.8l-6-3.2c-.2-.4-.4-1.1-.6-1.2a36.3,36.3,0,0,0-5.7-.3,3.9,3.9,0,0,0-2.1,1.1c-1,.7-.8,1.6.5,3l1.5,8c.2,1.3.4,2.7,1.7,3.3,3,1.3,6,3.2,9.6,1.9l-4.3,5.6a4.2,4.2,0,0,0,.6,1.5,21.2,21.2,0,0,1,5.2,14.8c-.1,3.7-.1,7.2-2.9,10.1a7.3,7.3,0,0,0-1,2,24.3,24.3,0,0,0,2.8,1c4.9,1,8.3,3.6,9.6,8.6a77.3,77.3,0,0,1,2.3,9.5c.5,3.8-.5,7.1-4.4,8.9a18,18,0,0,1-.8-2.1,2.2,2.2,0,0,0-.9-2.2,17.9,17.9,0,0,0,2.7-2.8c1.7-2.5,1.5-4.8-.6-7-.7-.7-1.3-1.5-1.9-2.2s-.5-3.2-.7-4.6l-3.5-2.4a2,2,0,0,0-1.7-2A10.8,10.8,0,0,0,105.9,426.6Zm.1-5.8c3.9-.2,4.5-.9,3.9-4.6a25.5,25.5,0,0,1-.2-3.9,2.8,2.8,0,0,0,2-3,32.1,32.1,0,0,0-.7-4.3c-.7-2.9-1.9-5.7-4.4-7.5a7.1,7.1,0,0,0-3.1-1.3,9.1,9.1,0,0,0-8.6,6.8l-1.2,6.2c-.3,1.4.5,2.2,1.7,2.7s-.8,2.9-.2,4.3l3.1,2a4,4,0,0,0,2,3.2,6,6,0,0,0,4.1,1.1C105.4,422.3,105.7,421.6,106,420.8Z" style="fill: #5d536c"/>
      <path d="M131.4,384.5a48.9,48.9,0,0,1,2.6-7.3c2.1-3.8,5.6-6.3,9.3-8.4a6.2,6.2,0,0,1,6.9.4c-.3.8-.7,1.6-1,2.3l-1.8-.5h-1.2l-1.1.2c-2,.2-1.9,1.9-2.3,3.2a8.4,8.4,0,0,0-5.9,4.6c-.3.6-.1,1.4-.2,2.7l3.3-2.2a6.7,6.7,0,0,1,7.3-.7l3,1.4c.6.8.9,1.8,1.7,2.3,2.6,1.9,3.1,4.4,2.5,7.4a24.5,24.5,0,0,0-.4,3.9,17.5,17.5,0,0,1-1.6,2.5c-2.7,3-5.4,3.1-8.3.1a18.1,18.1,0,0,1-2.4-3.7,3.1,3.1,0,0,1-.1-1.9,2.8,2.8,0,0,1,1.6-1.6,2.4,2.4,0,0,1,2.1.7c.6.7.6,1.9,1.1,2.7a3.3,3.3,0,0,0,1.9,1.1,1.9,1.9,0,0,0,1.6-1c1.8-4.3,1.5-6.1-1.3-8.9s-7.1-3.3-9.5,1.7-2,9.2-.7,13.9,4,6.8,7.3,8.9a4.7,4.7,0,0,0,5.2.1c2.1-1.4,4-3,4.8-5.4s1.8-5,1.5-7.7a17,17,0,0,0,2.1-7.7l.3-.2c.6,1.4,1.1,2.8,1.6,4.3-.3,3.2-.7,6.5-1,9.7-.8,1.4-1.9,2.7-2.3,4.2-1.3,4.5-4.5,6.6-8.6,7.9a6.2,6.2,0,0,1-7.4-2.2,44.5,44.5,0,0,1-3.8-5.8c-3.7-6.8-4.8-14-2.2-21.6.1-.2-.2-.5-.4-1.1l-2.3,2.4Z" style="fill: #4a435b"/>
      <path d="M112.8,229.8h4.3l-3-4.9a20.2,20.2,0,0,1-1.1-3.2c-.4-5.4-.4-10.8,3-15.5.7-1.1,1.1-2.4,1.7-3.5,1.7-3,4.4-4.2,7.5-2.8s6.6,4.3,6.4,8.9l-1.8-1.4c-2-1.4-2.4-1.3-3.8,1.1l-2.8-.5a2.9,2.9,0,0,0-2.1,1.8c-.6,1.2-1.1,2.4-2.7,2.6l-.7-.6c-2.7,2.8-1.7,6.3-1.5,9.5s2.3,4.6,4.1,6.4a4.7,4.7,0,0,0,8.2-1.4l.3-3,3.5-.8c.5,4.7-1.3,8.1-5.6,9.9-2.4,1-3.7,3-5.3,4.8a5.2,5.2,0,0,0-1.1,4.2c.3,2.4.8,4.8,1.2,7.2s.5,1.9.8,2.8c.8,3.6.5,4-3.5,4.5l-1.9-2.3c2.4-1.5,2.6-1.7,2.1-3.6s-.8-2.5-1.1-3.7a22.4,22.4,0,0,1,.1-11.5Z" style="fill: #4a435b"/>
      <path d="M150.9,421.9c8,4.9,9.9,12.5,9.1,21.2-.5,6-7.2,12.8-14.2,12.6-3.5-.1-6.4-1.5-8.1-4.6-3.5-6.1-5-12.5-2.6-19.3,1.8-4.9,4.7-8.9,9.7-11.1ZM139,437.8a31.5,31.5,0,0,0,.1,5.3c.9,5.5,3.1,8,8,7.6h.5c1.5,1.3,3,1,4.5,0,3.4-2.2,4.8-5.5,5.3-9.3.1-1.2-.7-1.8-1.8-2-.1-2.2-.3-4.4-.5-6.7.7-.5,1.3-1.3.7-2.1-2.2-2.4-4.3-4.9-6.6-7.1a3.1,3.1,0,0,0-3.7-.2c-1,.4-1.1,1.1-.5,2.8l-.3,3c-1.2.8-2.7,1.3-3.7,2.3S137.8,435,139,437.8Z" style="fill: #4a435b"/>
      <path d="M205.3,331.7c-2.9-.6-5.1.3-6.1,3.3a2.7,2.7,0,0,1-1,1.1h-.9a.9.9,0,0,1-.6-.7,3.3,3.3,0,0,1,0-1.4,14.5,14.5,0,0,1,5.5-7.4,5.1,5.1,0,0,1,7.3,1,16,16,0,0,1,2.3,3.8,62.4,62.4,0,0,1,5.2,19.8c.9,7.1-1.2,13.3-7.2,17.8a8.5,8.5,0,0,1-11.5-.8c-3.8-3.9-6.2-8.4-4.6-14.2,2.2,0,2.2,0,3-2.5h1.8c-.3,2.3-.5,4.6-.7,7a1.9,1.9,0,0,0-.6,2.6,20.6,20.6,0,0,0,2.5,4c2.9,3.2,5.4,3.2,9.2.4,1.8-2,2.4-4.5,3.2-7,2.2-7,1.4-13.8-1.5-20.4-1.2-2.7-2.9-5.1-3.4-8a1.5,1.5,0,0,0-1.9-1.2Z" style="fill: #5d536c"/>
      <path d="M119.3,434.5c.6.7,1.2,1.5,1.9,2.2,2.1,2.2,2.3,4.5.6,7a17.9,17.9,0,0,1-2.7,2.8,3.9,3.9,0,0,1-4.6-.1c-.8-.5-1.8-1.1-2-1.9a10,10,0,0,1-.5-3.8c.1-1.7,1.9-1.7,2.7-2.7s0-.2.1-.5a1.7,1.7,0,0,0-2.8-.5,4.9,4.9,0,0,0-1.7,2.8,34.9,34.9,0,0,0,.5,7.2c.1.7,1,1.4,1.6,1.7,2.5.8,5.1,1.6,7.6,0a18,18,0,0,0,.8,2.1,5.6,5.6,0,0,1-2,1.4c-4.1,1.4-10.7-1-12.7-4.9a27.7,27.7,0,0,1-3.3-11.6,12.2,12.2,0,0,1,3.1-9.1,10.8,10.8,0,0,1,7.5-1.1,2,2,0,0,1,1.7,2h-1.9c-1.2-1-1.4-.9-2,.7-1.7.1-3.3.5-4,2.2s-1.2,3,0,4.6c.5-.2,1.1-.2,1.4-.5,2-1.5,4.2-1.4,6.4-.8S117.9,434.2,119.3,434.5Zm-2.2,9c.6-.3,1.3-.4,1.4-.7a8.2,8.2,0,0,0,.2-2.2c0-.1-.5-.4-.8-.4s-1.1,1-1.2,1.8S116.9,442.6,117.1,443.5Z" style="fill: #2f2e3a"/>
      <path d="M114.9,303.3c1.3,4.8-.5,8.7-3.2,12.3s-6.6,4-10.3,1.3a12.8,12.8,0,0,1-5-8.2,26.9,26.9,0,0,1-.1-10.2c.7-3.8,2.6-5.6,6.5-6.1,2.1-.3,4.3-.6,6.2.5s2,1.3,1.2,2.8a10.6,10.6,0,0,1-1.9-.6c-2.1-1.2-4.1-.6-6.2,0a2.4,2.4,0,0,0-1.8,2.1c-.1.9.6,1.4,2.1,1.6h.9c3,0,5.8.5,8.2,2.6A12.5,12.5,0,0,0,114.9,303.3Zm-14.6,2.6a13.7,13.7,0,0,0-.5,3.2c.1,2.6,1.9,4,3.7,5.3s3.9,1.5,6.1-.5c.6-.6.9-1.3.1-2-4.8.1-4.8.1-7.5-3.8C101.9,307.6,101.4,307.2,100.3,305.9Zm5.7,2.9c.9-.3,1.5-.3,1.7-.6a4.4,4.4,0,0,0-.2-6.1c-1.3-1.4-3.2-1.6-5.3-.3-.3.2-.3.8-.6,1.4l3,1.3C105,305.9,105.4,307.1,106,308.8Z" style="fill: #2f2e3a"/>
      <path d="M138,306.6c-4.9,1.5-8.9.5-11.7-3.3a21.2,21.2,0,0,1-2.9-5.6,47.8,47.8,0,0,1-1.7-21.3,11.4,11.4,0,0,1,1.5-4c.7-1.3,1.8-2.3,2.6-3.6s4.1-4.5,7.7-4a7.9,7.9,0,0,0,5-1.6c3-1.9,5.1-1.4,7.2,1.3a12.7,12.7,0,0,1,1.8,2.9,31.8,31.8,0,0,1,.7,21.1l-1.5-3c0-3.6,0-7.2-.1-10.8a12.1,12.1,0,0,0-3.5-8.4,1.5,1.5,0,0,0-2.4-.2,18.6,18.6,0,0,1,.3,2.6,9.5,9.5,0,0,1-.9,2.1H139a5.9,5.9,0,0,0-8.4-2c-3,2.6-5.6,5.3-6,9.6a59.4,59.4,0,0,0,.6,14.6,20.4,20.4,0,0,0,3.3,8.1,4.3,4.3,0,0,0,3.3,2.5l1.3.7c.1,1.1.7,1.6,1.8,1.8Z" style="fill: #5d536c"/>
      <path d="M191.6,303.4c-1.2-2.4-.4-4.8.3-7.1a18.1,18.1,0,0,1,7.5-9.5,8.3,8.3,0,0,1,5.6-1.2c4.3.4,9.1,4.8,9.8,9.1a13.2,13.2,0,0,1,.4,4.4c-.6,5.2-1.3,10.4-2.2,15.5a10.8,10.8,0,0,1-7.2,8.1c-3.6,1.4-6.2.8-8.8-2.1-1-1.1-2.2-2.1-2.2-3.7H198l2.9,2.5c2,1.4,3.6.2,5.3-.8a.5.5,0,0,1,.5-.3l2.2-2.2,1.2-3.3a22.1,22.1,0,0,1,1.5-9.5,16.3,16.3,0,0,0,.8-6.2,7.6,7.6,0,0,0-2.4-5.7c-2-1.7-4.5-1.8-6.8-2.5a1.7,1.7,0,0,0-1.3.4c-2.3,1.3-3.5,3.6-5,5.6-.2.2.1.6.2,1a8.7,8.7,0,0,1-1.1.9,5.7,5.7,0,0,0-3.7,5.3C192.3,302.6,191.9,303,191.6,303.4Z" style="fill: #4a435b"/>
      <path d="M201,379.6a12.6,12.6,0,0,1,.5-2.8c1.3-2.8,3.5-3.9,6.4-3,4.6,1.2,7.8,4,9.1,8.7a31,31,0,0,1,1,5.3c.4,3.4.6,6.8,1,10.2.6,5.3-1.6,9.2-5.8,12.2l-2.9,1.8h-.1a6.6,6.6,0,0,1-5.5,0c-1.8-1-3.5-2.1-4-4.3l2-.2,2.4,1.1c3.1,1.2,5.6-.1,7.8-2.2a9.9,9.9,0,0,0,3-7.8c-.1-.9.2-1.9-1-2.3l-2.5,1.2c-.4-.4-.8-.8-1.4-.1h0a4.1,4.1,0,0,1-1.1-.7,17,17,0,0,1,.4-2.2c1.3-.1,2.2-.7,2-2.2s-.8-4.5-1.1-6.7c.7-.2,1.8-.3,1.6-1.3a8.4,8.4,0,0,0-3.4-6.1,5.9,5.9,0,0,0-3.7-.7c-1.3,0-1.7,1.3-2,2.4Z" style="fill: #5d536c"/>
      <path d="M209.9,396.6a4.1,4.1,0,0,0,1.1.7c.3,1.9-.9,2.6-2.4,3.1l-1.1.3-4.4-1.5c-1.9-3-3.1-6-2.2-9.7.1-.5-.3-1.1-.4-1.6-1.9-.1-2.2,1.2-2.3,2.2-.4,3.3-.1,6.5,2.1,9.2s1.5,2.8,2.2,4.2.2,2.6.2,3.9l-2,.2a40.7,40.7,0,0,1-4.8-11.6c-1.1-4.7-.4-8.9,2.7-12.7a23.5,23.5,0,0,0,2.4-3.7l2.7.2c2.8,1.5,6,2.4,7.5,5.7s.7,4.4,1.1,6.7-.7,2.1-2,2.2-1-2.5-2.7-2l-3.1,1.1c-.5,2,.3,3.2,2,3.5A20.9,20.9,0,0,0,209.9,396.6Zm-6-9.6a7.5,7.5,0,0,0,2-.2,1.9,1.9,0,0,0,1.1-1.4,2.2,2.2,0,0,0-1-1.4,2.9,2.9,0,0,0-3.2.1,2.4,2.4,0,0,0-.9,1.5c.1.5.8.9,1.2,1.3Z" style="fill: #2f2e3a"/>
      <path d="M113.6,361.4a.5.5,0,0,1-.5.3c-2.4-1.3-4.7-2.8-7.1-3.9a8.7,8.7,0,0,1-3.9-3.4c.4-3.3.2-3.6-2.8-3.8v-.2c.9-2.4,1.4-4.7.6-7.2s1.1-3.8,1.7-5.7l6.4-3.3c3.2-.2,5.6,1.6,7.9,3.6h-.1a5.2,5.2,0,0,1,1,1.1h-.1c0,.5-.1,1-.1,1.5v2.6a14.5,14.5,0,0,0-.4,2.8,5.3,5.3,0,0,1-2.5,4.2,19.4,19.4,0,0,1-3.4.2c-2.8-.2-4-1.5-4.7-4.5-.1-.6.1-1.4-.9-1.8a13.1,13.1,0,0,0,2.2,10,7.9,7.9,0,0,0,2.3,1.6c1.2,1.6,2.3,3.2,4.7,2.7Zm-6.9-21.3c1.6,1.1,3,2.3,2.5,4.4a1.4,1.4,0,0,0,.1.9,1.7,1.7,0,0,0,2.7,1.1,4.1,4.1,0,0,0,1.2-5.9c-1.7-2.5-3.6-3-6-1.4C107.1,339.2,107,339.4,106.7,340.1Z" style="fill: #2f2e3a"/>
      <path d="M192.1,384.7a34.7,34.7,0,0,1-1.2,11.1c-1.4,4.8-4.7,7.7-9.5,8.9s-6.8.2-9.1-3-2.8-3.6-3.4-5.9l1.6-1.3,3.1,1.8c1.2,4.2,3.1,5.8,6.3,5.3s4.4-1.2,5.8-3.3a9.9,9.9,0,0,0,.5-2.4l-4.7.2,2.8-2.6a7.7,7.7,0,0,0,2.9-6.8c-.1-1.1-.9-1.6-2-1.7l-2.5-1.5c.1-1.1.2-2.1.2-3.2a1.5,1.5,0,0,0,.7-2.4,6.5,6.5,0,0,0-3.9-3.4l-.2-1.8c.9-.9,2-1.2,3-.2s3.4,3.3,4.2,5.7A12.8,12.8,0,0,0,192.1,384.7Z" style="fill: #4a435b"/>
      <path d="M162.1,293.3a14.3,14.3,0,0,1,2.7-5,38.7,38.7,0,0,0,2.7-4.3c2.9-.8,5,.4,6.9,2.6,4.5,5.1,5.9,10.8,3.3,17.2-2.9,1.7-5.5,1.6-8-.7a12.7,12.7,0,0,0-2.6-1.5c-.8,1.9-.6,3.4.7,4.6s3.8,3.5,5.7,5.2a2.9,2.9,0,0,1-4.2-.1c-1-1-1.8-2.1-3.5-2.1h0a9.3,9.3,0,0,0-2.4-6.6C162.9,299.5,162.5,296.4,162.1,293.3Zm11.4-1.5a21.8,21.8,0,0,0-2.2-3.1,2.6,2.6,0,0,0-4.2.3,6.3,6.3,0,0,0-1.3,3,30.8,30.8,0,0,0-.3,5.3c0,.4.4.7.9,1.5.3-.9.6-1.5.7-2s.4-2.6.7-3.8,1.3-2.4,3.9-1.2l-1.5,2.9a5,5,0,0,0,1.3,6.1,2.5,2.5,0,0,0,4.2-1.4,5.3,5.3,0,0,0,0-2.8A41.6,41.6,0,0,0,173.5,291.8Z" style="fill: #2f2e3a"/>
      <path d="M196.7,351.5c-.8,2.5-.8,2.5-3,2.5a23.2,23.2,0,0,1,3.5-13,7.5,7.5,0,0,1,8-3.5,7,7,0,0,1,1.7.9,9.1,9.1,0,0,1,1.7,2.3,26.4,26.4,0,0,1,1.1,16.2c-.7,2.8-3.3,4.2-6.3,4l-4.4-.2-1.2-2.1c.2-2.4.4-4.7.7-7a6.7,6.7,0,0,1,5.4-4.3,5.9,5.9,0,0,0,1.9-.5,2.4,2.4,0,0,0,1.5-2.7,3.9,3.9,0,0,0-2.7-3.2,4.2,4.2,0,0,0-5,1.9A16.7,16.7,0,0,0,196.7,351.5Zm10.9.1h-3.2a2.8,2.8,0,0,0-2.9,1.5,3.8,3.8,0,0,0,.5,3.7,3.1,3.1,0,0,0,5,0A5.1,5.1,0,0,0,207.6,351.6Z" style="fill: #2f2e3a"/>
      <path d="M133.3,385.1l2.3-2.4c.2.6.5.9.4,1.1-2.6,7.6-1.5,14.8,2.2,21.6a44.5,44.5,0,0,0,3.8,5.8,6.2,6.2,0,0,0,7.4,2.2c4.1-1.3,7.3-3.4,8.6-7.9.4-1.5,1.5-2.8,2.3-4.2a12.5,12.5,0,0,1,1.2,1.7l2.9-1.5c1.4,1.7-1.6,7-5.7,10.6-1.4-.3-2.5.3-3.7,1.1a29.1,29.1,0,0,1-4.2,2.5c-4.5,1.9-7.9,1.2-11-2.5a25.5,25.5,0,0,1-4.2-6.6c-2.8-6.6-4.5-13.4-2.5-20.6C133.2,385.7,133.2,385.4,133.3,385.1Z" style="fill: #7d7285"/>
      <path d="M173.3,429.2c-1.3-.7-2.7-1.2-3.9-2-3.5-2.5-4.6-5.6-3.3-9.8a22.3,22.3,0,0,1,2.7-5.6,5.1,5.1,0,0,1,6.4-2.2,3.2,3.2,0,0,0,1.6,3.6,2.8,2.8,0,0,1,1.6,3.5c-1.1,1.3-2.8.5-4.1,1s-1.1,1.6-.5,2a4.3,4.3,0,0,0,1.9,1.4l5.2.7-.2,2.1-5.2,1.4c-1.2.3-1.3,1.2-1.1,2.3Z" style="fill: #2f2e3a"/>
      <path d="M112.9,388.8c-3.6,1.3-6.6-.6-9.6-1.9-1.3-.6-1.5-2-1.7-3.3l-1.5-8c2.2-2.4,5-2.7,7.9-2.6l6,3.2c.7,2.3,1.3,4.5.7,6.9-1.3.8-1.5,1.7-.6,2.9Z" style="fill: #2f2e3a"/>
      <path d="M166.5,350.4a19.7,19.7,0,0,1-1.3-9.6c.2-2.9.8-5.6,2.8-7.6s1-2.7,1.2-4.1c.8.2,1.8.2,2.3.7a7.7,7.7,0,0,0,5.2,2.2l2.5,2c1,2.7,2,5.5,3.1,8.2a5.7,5.7,0,0,1-2.7,5.7l-.6.8v1h0l-2.8-.6c-5.2-.9-5.8-5.5-4.8-8.9.1-.5,1.2-1,1.9-1.1s1.5.6,1.4,1.6-.2,2.2-.2,3.4a1.7,1.7,0,0,0,2,1.7,2.9,2.9,0,0,0,1.8-1.3,7.7,7.7,0,0,0-.4-6.1c-1.3-2.6-3.1-4-5.2-3.8s-3.8,2.1-4.3,4.7-.8,7.5,1.8,10.7l-.2,1.9Z" style="fill: #2f2e3a"/>
      <path d="M192.1,384.7a12.8,12.8,0,0,1-5.4-6.5c-.8-2.4-2.6-4-4.2-5.7s-2.1-.7-3,.2h-1.2c-5,1-6.7,2.8-7.2,7.6a25.2,25.2,0,0,1-.6,4.8,20.3,20.3,0,0,0-.6,8.1l-1.7,1.5c-2-2.4-1.6-5.1-1.1-7.9s.9-4.2.7-6.2c-.7-7.2,6.7-12.5,13.4-10.8a28.5,28.5,0,0,1,5.2,1.5,11,11,0,0,1,6,8.9A16.6,16.6,0,0,1,192.1,384.7Z" style="fill: #5d536c"/>
      <path d="M116.6,342.9v-2.7c.4-.4.8-.8.1-1.4h.1a5.2,5.2,0,0,0-1-1.1h.1c.7-2-.3-3.4-1.5-4.8a4,4,0,0,0-3.9-1.5c-1.5.3-2.1,1.4-2.5,2.7l-6.4,3.3c.7-3.6,3.2-6,6-8s5.6-1.4,8,.9a17.2,17.2,0,0,1,5.3,11.2,71.2,71.2,0,0,1,.1,11.3c-.2,3.9-2.7,6.5-5.9,8.4a3.7,3.7,0,0,1-1.5.1l.3-3.3c.8-1,1.3-2.3,2.3-3s2.7-4.2,2.3-6.9l-.3-3.8C118.1,343.5,117.4,343.1,116.6,342.9Z" style="fill: #4a435b"/>
      <path d="M191.6,303.4c.3-.4.7-.8.7-1.2a5.7,5.7,0,0,1,3.7-5.3,8.7,8.7,0,0,0,1.1-.9l4.3.4a5.9,5.9,0,0,1,5.4,4.8c.7,3.1,1.6,6.4.2,9.6l-2.8,2.3h-3.5l-2.4-7.5a5.2,5.2,0,0,1,.6-1.3c1.4-1.5,3.1-1.3,3.8.6a16,16,0,0,1,.3,2.3c.1.6-.3,1.4.8,1.4,1.1-2.7,1.4-4.8.7-6.4a4.3,4.3,0,0,0-1.8-2.2c-3.6-2-6.4-.6-7,3.5a26.4,26.4,0,0,0,.2,2.8c-.9,3.9.7,7.2,2.1,10.6h-3.2a1.8,1.8,0,0,0-.9-2.3C192.9,310.9,191.4,307.3,191.6,303.4Z" style="fill: #2f2e3a"/>
      <path d="M179.2,334l-2.5-2a2.3,2.3,0,0,0-1.2-2.4,17.3,17.3,0,0,1-1.9-1.5l2.2-.8a14.6,14.6,0,0,1,6.1,3.9,8.9,8.9,0,0,1,2.7,4,53,53,0,0,1,2.2,10.5c.7,6.7-4.7,13.2-11.5,14.2-3.1.5-4.9-.3-6.4-3.2s-2.6-3.8-2.4-6.3l3.4,1.5a23.9,23.9,0,0,0,1.3,2.1c1.9,3.4,2.9,3.8,5.9,2.3a27.1,27.1,0,0,0,3.5-2.4c2.9-1.7,3.3-4.7,3.6-7.6l-.5-2.2v-1.8c.3-2.4-.7-4.5-1.7-6.6A3.3,3.3,0,0,0,179.2,334Z" style="fill: #4a435b"/>
      <path d="M133.3,385.1c-.1.3-.1.6-.2.9-2,7.2-.3,14,2.5,20.6a25.5,25.5,0,0,0,4.2,6.6c3.1,3.7,6.5,4.4,11,2.5a29.1,29.1,0,0,0,4.2-2.5c1.2-.8,2.3-1.4,3.7-1.1-3.3,3.7-4.1,4.3-9.7,7.2l1.9,2.6-6.1-1.2c.1-.9,0-1.7-.9-2-6.2-2-9.3-6.9-11.4-12.6-.6-1.6-1.1-3.4-1.7-5-2-5-1.3-9.9-.3-14.9a7,7,0,0,1,.9-1.7Z" style="fill: #5d536c"/>
      <path d="M132.3,222.6l-3.5.8a17.1,17.1,0,0,1-8.4-.8c-2.2-1.9-2.5-4.4-2.1-7.1.2-.3.1-.5-.2-.7l.3-2.3c1.6-.2,2.1-1.4,2.7-2.6a2.9,2.9,0,0,1,2.1-1.8l1.4,3a56.7,56.7,0,0,0-2.3,5.7,2.1,2.1,0,0,0,1.2,2.8,3.7,3.7,0,0,0,2.7.2c.6-.4.7-1.6,1.1-2.5a1.9,1.9,0,0,0,.8-2.4,7.1,7.1,0,0,0-2.1-6.3c1.4-2.4,1.8-2.5,3.8-1.1l1.8,1.4a10.6,10.6,0,0,1,.6,5.3,2,2,0,0,0,.3,2.6A10.4,10.4,0,0,1,132.3,222.6Z" style="fill: #2f2e3a"/>
      <path d="M149.2,371.5c.3-.7.7-1.5,1-2.3,3.8,1.3,6.1,4.3,7.8,7.6a30.7,30.7,0,0,1,3.7,13.9,1.8,1.8,0,0,1-.4.9c-.5-1.5-1-2.9-1.6-4.3s.1-.7,0-.9-.4-.6-.6-.9-.4.6-.3.8a6.7,6.7,0,0,0,.6,1.2,17,17,0,0,1-2.1,7.7l-3.2-1.5a24.5,24.5,0,0,1,.4-3.9c.6-3,.1-5.5-2.5-7.4-.8-.5-1.1-1.5-1.7-2.3l.3-2.4c2,.2,2.4,2.1,3.4,3.3a1.1,1.1,0,0,0,1.8.2,9.4,9.4,0,0,0-.4-1.6C154.2,376.2,151.6,374,149.2,371.5Z" style="fill: #7d7285"/>
      <path d="M210.2,411.9h.1l2.6,1.1c4.4,1.5,6.6,4.7,6.5,9.2a24.3,24.3,0,0,1-2.6,9.9,12.4,12.4,0,0,1-1.9,2.1l-1.9-.5,2-4.5a13.9,13.9,0,0,0,1.5-6.6,7.9,7.9,0,0,0-1.9-5.5,2.1,2.1,0,0,0-2.6-.6c-.9.5-1.6,2.1-1.1,2.9a13.7,13.7,0,0,0,1.9,2.2,3.7,3.7,0,0,1,.7,4.1,1.9,1.9,0,0,1-2.5.9,4.8,4.8,0,0,1-1.1-.9,9.5,9.5,0,0,1-.9-11.7Z" style="fill: #706578"/>
      <path d="M199,360.7l4.4.2c3,.2,5.6-1.2,6.3-4a26.4,26.4,0,0,0-1.1-16.2,9.1,9.1,0,0,0-1.7-2.3c1.1-2.6-.7-4.6-1.6-6.7V329a1.5,1.5,0,0,1,1.9,1.2c.5,2.9,2.2,5.3,3.4,8,2.9,6.6,3.7,13.4,1.5,20.4-.8,2.5-1.4,5-3.2,7a12.3,12.3,0,0,0-3.3-.1c-2.3.6-3.7-.3-4.9-2Z" style="fill: #7d7285"/>
      <path d="M173.3,429.2l1.1-1.6c3.2.4,6.2-.1,8.8-3.1l-2.5-.6a14.9,14.9,0,0,1,.2-2.1c.2-2.2.3-4.4-2.5-5.1a2.8,2.8,0,0,0-1.6-3.5,3.2,3.2,0,0,1-1.6-3.6,5.4,5.4,0,0,1,1.8,0,17.8,17.8,0,0,1,8,6.3,9,9,0,0,1,1.8,7.4,7.3,7.3,0,0,1-4.9,5.7l-3.9,1Z" style="fill: #4a435b"/>
      <path d="M146.7,285.5l1.5,3c.2,4-1.1,7.6-2.6,11.2a10.4,10.4,0,0,1-7.6,6.9l-3.1-.6c-1.1-.2-1.7-.7-1.8-1.8,2-.4,4-.5,5.8-1.7a8.2,8.2,0,0,0,4.2-5.1,62.3,62.3,0,0,0,1.5-6.2Z" style="fill: #2f2e3a"/>
      <path d="M213,433.8l1.9.5c-2.1,3.9-5.3,5.2-9.5,4.4l-1.9-.2-2.3-1.6-.6-3.6v-.2c-1.4-4-.4-8,.3-12a1.8,1.8,0,0,1,1.3-1.2,1.4,1.4,0,0,1,1.5,1.6c.2,2.2.3,4.5.4,6.8-.9.6-.9,1.3-.1,1.9-.1,5.8,1.1,6.1,5.8,6.3l1.5-.9Z" style="fill: #5d536c"/>
      <path d="M114.9,303.3a12.5,12.5,0,0,1-3.4-1.9c-2.4-2.1-5.2-2.6-8.2-2.6h-.9c-1.5-.2-2.2-.7-2.1-1.6a2.4,2.4,0,0,1,1.8-2.1c2.1-.6,4.1-1.2,6.2,0a10.6,10.6,0,0,0,1.9.6h-.1l.9,1.2h-.1c.5.8,1,.3,1.5.1C114.9,298.3,115,300.8,114.9,303.3Z" style="fill: #706578"/>
      <path d="M102.1,354.4a8.7,8.7,0,0,0,3.9,3.4c2.4,1.1,4.7,2.6,7.1,3.9-4.2,3.2-6.9,3-9.9-.8-1.6-2.1-3.3-4.1-3.3-6.9Z" style="fill: #5d536c"/>
      <path d="M75.6,368.6l-1.3-1.4a7.9,7.9,0,0,0,.5-6.4c-.7-2.3-.6-4.7-.9-7.1h2c.2,1.1.4,2.2.7,3.3s.9,1.9,3.2,1.5l1.2,1.3a4.5,4.5,0,0,1-.6,1.2c-1.5,1.8-1.4,3.4,0,5.2a4.7,4.7,0,0,1,.7,1.2l-1.3,1.2C78.4,368,77,367,75.6,368.6Z" style="fill: #5d536c"/>
      <path d="M143.8,483.6c-1.6.9-1.5,2.4-1.5,3.9a17.9,17.9,0,0,1-.2,2.3c0,.2-.6.3-.8.3a1.2,1.2,0,0,1-.8-.5c.2-1.1.4-2.2.5-3.3s.5-3-1-4c.1-2.6.3-5.2.4-7.8,1-.9,1.9-1.9,3.3-1.9a1.1,1.1,0,0,1,.3.8,1.9,1.9,0,0,0,.5,2.7A17.3,17.3,0,0,1,143.8,483.6Z" style="fill: #4a435b"/>
      <path d="M90.7,362.1a4.6,4.6,0,0,1-.7-.7c-1.6-2.5-3.9-3.2-6.7-3l-1.9-1.2c5.5-2.7,9.1-1.1,11.6,5Z" style="fill: #706578"/>
      <path d="M175.8,327.3l-2.2.8a17.3,17.3,0,0,0,1.9,1.5,2.3,2.3,0,0,1,1.2,2.4,7.7,7.7,0,0,1-5.2-2.2c-.5-.5-1.5-.5-2.3-.7a3.2,3.2,0,0,1,2.4-3.1A3.8,3.8,0,0,1,175.8,327.3Z" style="fill: #5d536c"/>
      <path d="M81.1,367.4a41.3,41.3,0,0,0,4.5,1.7,29.9,29.9,0,0,0,4.1.4,1.7,1.7,0,0,1-1.4,2.4,6.6,6.6,0,0,1-5.1-.7,27.8,27.8,0,0,1-3.4-2.6Z" style="fill: #5d536c"/>
      <path d="M108.8,260.9c-1.2-.5-1.3-1.6-1.5-2.6s.8-2.2,1.3-3.3l.3-.2,5.3-.8c-.1.8-.3,1.6-.4,2.4C111.2,256.9,109.8,258.7,108.8,260.9Z" style="fill: #4a435b"/>
      <path d="M76.6,344.9c-.3,2.3-.5,4.5-.7,6.8l-2.2-.3a10.5,10.5,0,0,1,.8-6.8Z" style="fill: #5d536c"/>
      <path d="M90.7,362.1H93c.8,2.3,1,4.5-1.7,6.4a5.4,5.4,0,0,1-.6-1.8C90.6,365.2,90.7,363.7,90.7,362.1Z" style="fill: #5d536c"/>
      <path d="M99.9,343.2c.8,2.5.3,4.8-.6,7.2A6.7,6.7,0,0,1,99.9,343.2Z" style="fill: #4a435b"/>
      <path d="M163.4,302.6a9.3,9.3,0,0,1,2.4,6.6C163.6,307.5,163,305.3,163.4,302.6Z" style="fill: #5d536c"/>
      <path d="M113.8,256.4c.1-.8.3-1.6.4-2.4l2.7-.3,1.9,2.3Z" style="fill: #5d536c"/>
      <path d="M197.5,238.8c1.2-1.4,2.6-2.3,4.7-1.7-.5,2.3-2.2,3.1-3.7,4A22.9,22.9,0,0,1,197.5,238.8Z" style="fill: #4a435b"/>
      <path d="M143.7,472.6c-1.4,0-2.3,1-3.3,1.9s-.5-1.2-.4-1.7a1.9,1.9,0,0,1,1.8-1.8C143,470.9,143.5,471.6,143.7,472.6Z" style="fill: #706578"/>
      <path d="M102.1,354.4l-2.2-.4-.6-3.4C102.3,350.8,102.5,351.1,102.1,354.4Z" style="fill: #4a435b"/>
      <path d="M197.5,238.8a22.9,22.9,0,0,0,1,2.3l-3.2,2.8-.3-.4-.8-1-.5-.5Z" style="fill: #5d536c"/>
      <path d="M73.7,351.4l2.2.3v2h-2A1.8,1.8,0,0,1,73.7,351.4Z" style="fill: #706578"/>
      <path d="M218,260.5a3.3,3.3,0,0,1,.4,3.7A2.8,2.8,0,0,1,218,260.5Z" style="fill: #5d536c"/>
      <path d="M114.1,386c-.9-1.2-.7-2.1.6-2.9A2,2,0,0,1,114.1,386Z" style="fill: #5d536c"/>
      <path d="M144.5,476.1a1.9,1.9,0,0,1-.5-2.7A2.1,2.1,0,0,1,144.5,476.1Z" style="fill: #706578"/>
      <path d="M193.9,314.5a1.8,1.8,0,0,1,.9,2.3A1.6,1.6,0,0,1,193.9,314.5Z" style="fill: #4a435b"/>
      <path d="M76.6,344.9l-2.1-.3a10.5,10.5,0,0,1,.5-1.9l2,.3A12.9,12.9,0,0,0,76.6,344.9Z" style="fill: #706578"/>
      <path d="M132.5,216.8a2,2,0,0,1-.3-2.6A1.9,1.9,0,0,1,132.5,216.8Z" style="fill: #4a435b"/>
      <path d="M81.4,357.2l1.9,1.2L81,359.8l-1.2-1.3Z" style="fill: #5d536c"/>
      <path d="M203.9,430.2c-.8-.6-.8-1.3.1-1.9A1.2,1.2,0,0,1,203.9,430.2Z" style="fill: #706578"/>
      <path d="M168.2,394.8l1.7-1.5.6,1.2-1.6,1.3A3.6,3.6,0,0,1,168.2,394.8Z" style="fill: #4a435b"/>
      <polygon points="108.9 254.8 108.6 255 108.6 254.6 108.9 254.8" style="fill: #5d536c"/>
      <path d="M211.2,435.6l-1.5.9Z" style="fill: #706578"/>
      <path d="M112.4,296.8c-.5.2-1,.7-1.5-.1Z" style="fill: #2f2e3a"/>
      <path d="M111,296.8l-.9-1.2Q111.6,295.3,111,296.8Z" style="fill: #2f2e3a"/>
      <path d="M200.5,433.1v.2h-.2Z" style="fill: #706578"/>
      <path d="M239.7,251.6c-2.9.5-5.7.9-8.2-1.3C234.3,250.5,237.1,250,239.7,251.6Z" style="fill: #5d536c"/>
      <path d="M221.9,250.1,221,256c-1.1-.7-1.2-1.7-1.1-2.9A3.6,3.6,0,0,1,221.9,250.1Z" style="fill: #5d536c"/>
      <path d="M221.1,259a4.7,4.7,0,0,1,.3,4C219.9,261.2,219.9,261.2,221.1,259Z" style="fill: #5d536c"/>
      <path d="M226.5,249.7l-4.3.2C223.6,248.9,225,249.4,226.5,249.7Z" style="fill: #5d536c"/>
      <path d="M237.9,447.1c-.8.3-1.2.6-1.6.5a1.6,1.6,0,0,1-.9-2.3c.2-.3,1-.6,1.1-.5A23.2,23.2,0,0,1,237.9,447.1Z" style="fill: #cac0b3"/>
      <path d="M232,440a17,17,0,0,0-.4-2.2l3.2-.2c.7,1,.2,1.6-.6,1.9A17.4,17.4,0,0,1,232,440Z" style="fill: #cac0b3"/>
      <path d="M96.9,256a12.7,12.7,0,0,1-.6,1.6,3,3,0,0,1-2.8,1.5c-1.2-.4-2.5-2.2-2.1-3.5s1.7-4.5,2.7-6.7a1.4,1.4,0,0,1,1.1-.6c.5.2,1.2.7,1.2,1.2S96.7,253.4,96.9,256Z" style="fill: #c4baae"/>
      <path d="M112.2,478.4a34.2,34.2,0,0,1,4.1-12,7.8,7.8,0,0,1,3.9-3.5,2.6,2.6,0,0,1,3.4,1.3,8.9,8.9,0,0,1,.8,3.2,17.4,17.4,0,0,1-8.1,14.8,4,4,0,0,1-1.8.7,1.8,1.8,0,0,1-2.4-1.6A27.1,27.1,0,0,1,112.2,478.4Z" style="fill: #c3bbb2"/>
      <path d="M188.2,451.9a24.5,24.5,0,0,1-3.5-1.9c-4-3.2-5.7-9.4-4.2-14.3a2.2,2.2,0,0,1,3.5-1.3,3.6,3.6,0,0,1,1.2.8A37.3,37.3,0,0,1,193,447l.3.9c.4,1.9-.4,3.4-2.2,3.7A20,20,0,0,1,188.2,451.9Z" style="fill: #c3bbb2"/>
      <path d="M96.2,447.1a.7.7,0,0,1-.1.5A35,35,0,0,1,89,461.9a2.4,2.4,0,0,1-1.7.4,1.9,1.9,0,0,1-.8-1.1A26.8,26.8,0,0,1,88,444.9c1.1-2.3,3-3.2,5.1-2.7A4.5,4.5,0,0,1,96.2,447.1Z" style="fill: #c3bbb2"/>
      <path d="M74.6,433.6a12.8,12.8,0,0,1-2.2-.7,3.4,3.4,0,0,1-1.8-4.5,11.5,11.5,0,0,1,6.4-6.9,6.6,6.6,0,0,1,4.8-.1,4,4,0,0,1,2.5,5.1,11.2,11.2,0,0,1-4.1,5.9A6.9,6.9,0,0,1,74.6,433.6Z" style="fill: #c3bbb2"/>
      <path d="M169.6,464.5c.3-1.5.5-2.9.8-4.4a1.7,1.7,0,0,1,2.5-.7,7.6,7.6,0,0,1,1.9,2.1,16.5,16.5,0,0,1,2.1,9.9,37.5,37.5,0,0,1-1.3,5.8c-.2.5-.8,1.3-1.2,1.3a3.1,3.1,0,0,1-2.1-.9,17.6,17.6,0,0,1-1.9-3.9C169.3,470.7,169.4,467.6,169.6,464.5Z" style="fill: #c3bbb2"/>
      <path d="M77.4,398.3a4.7,4.7,0,0,1,3.9,2.3,3.7,3.7,0,0,1-1.7,5.7c-2.8,1-5.5,1.1-7.9-.8a3.1,3.1,0,0,1-.5-4.7A6.5,6.5,0,0,1,77.4,398.3Z" style="fill: #c3bbb2"/>
      <path d="M177.7,303.8c2.6-6.4,1.2-12.1-3.3-17.2-1.9-2.2-4-3.4-6.9-2.6,1.2-3,1.9-3.7,4.4-3.1a10.8,10.8,0,0,1,4.4,1.8c7,5.5,7.9,16,2.1,23A10.7,10.7,0,0,1,177.7,303.8Z" style="fill: #b0a79c"/>
      <path d="M177.7,303.8a10.7,10.7,0,0,0,.7,1.9,7.7,7.7,0,0,1-1.7,4.3,3.1,3.1,0,0,1-3.2,1.4c-1.9-1.7-3.9-3.4-5.7-5.2s-1.5-2.7-.7-4.6a12.7,12.7,0,0,1,2.6,1.5C172.2,305.4,174.8,305.5,177.7,303.8Z" style="fill: #7d7285"/>
      <path d="M194.2,242.5l.8,1Z" style="fill: #4a435b"/>
      <path d="M83.5,333.1c2.6-3.5,5.2-5.3,9-4.8,1.4.2,2.5,1.1,2.5,2a2.8,2.8,0,0,1-1.6,2.8C90.4,334.8,87.3,334.7,83.5,333.1Z" style="fill: #c3bbb2"/>
      <path d="M82.9,299.1a15,15,0,0,1,2.8,1.8c1.7,1.9,3.2,4,3.5,6.7a1.7,1.7,0,0,1-2.1,1.9h-.5a6.4,6.4,0,0,1-3.8-4.1C82.1,303.4,81.3,301.4,82.9,299.1Z" style="fill: #b6ada1"/>
      <path d="M143.9,344.2a5.2,5.2,0,0,1-4.8,2.6,4.4,4.4,0,0,1-3.6-2.2c-2.7-4.1-4.1-8.6-3.1-13.5s4-5.3,7.4-3.1,4.6,5.8,4.3,9.8a1.9,1.9,0,0,1-1.1,1.4,2.1,2.1,0,0,1-1.7-.5c-1.2-1.5-2.6-3-2.6-5.1a4.3,4.3,0,0,0-.4-1.9c-.2-.3-.8-.8-1.1-.7a2,2,0,0,0-1.6.7,8.5,8.5,0,0,0,4.9,11.6l1.5.2Z" style="fill: #b0a79c"/>
      <path d="M140.8,317.4c5.9,3.2,7.7,7.2,5.7,12.9-1.6-.3-2.2-1.5-2.9-2.8.9-.7,1.3-1.7.5-2.5a15.6,15.6,0,0,0-3.6-3.2,6.6,6.6,0,0,0-3.2-.5,2.3,2.3,0,0,0-2.1,1.7l-5.4,5.3-2-.3c.7-6.3,3.1-9.2,9.9-10.8C139,318.7,139.3,318.7,140.8,317.4Z" style="fill: #7d7285"/>
      <path d="M127.8,328l2,.3a20.3,20.3,0,0,0,0,11.2c1.1,4.2,2.8,8,6.7,10.4a12.2,12.2,0,0,1,1.4,1.6c-2.4,1.3-4.4,1-6-.6a10.4,10.4,0,0,1-2.3-3.7c-1.4-4.4-2.9-8.8-2.6-13.4C127.2,331.8,127.5,329.9,127.8,328Z" style="fill: #b0a79c"/>
      <path d="M135.2,323a2.3,2.3,0,0,1,2.1-1.7,6.6,6.6,0,0,1,3.2.5,15.6,15.6,0,0,1,3.6,3.2c.8.8.4,1.8-.5,2.5C141.5,324.6,138.9,322.8,135.2,323Z" style="fill: #b0a79c"/>
      <path d="M140.8,317.4c-1.5,1.3-1.8,1.3-3.1-.2h.9l2,.2Z" style="fill: #c3bbb2"/>
      <path d="M140.6,317.3l-2-.2A1.1,1.1,0,0,1,140.6,317.3Z" style="fill: #7d7285"/>
      <path d="M98.3,418.2l-3.1-2c-.6-1.4,1.3-2.8.2-4.3s.1-2,0-3c-.2-3.6,1.4-6.5,4-8.9s3.8-1.9,5.6-.2a12.4,12.4,0,0,1,1.7,2.3c2.1,3.1,2.5,6.7,3,10.2a25.5,25.5,0,0,0,.2,3.9c.6,3.7,0,4.4-3.9,4.6-.6-.2-1.4-.3-1.8-.8A7.5,7.5,0,0,0,98.3,418.2Zm3.3-6c1.6-1.6,2.8,1.3,4.3.4.9-4,.9-4-3.6-10.1a10.2,10.2,0,0,0-3.3,9.6c-.1.8,0,1.7.9,1.9S101.5,413.2,101.6,412.2Z" style="fill: #2f2e3a"/>
      <path d="M109.7,412.3c-.5-3.5-.9-7.1-3-10.2a12.4,12.4,0,0,0-1.7-2.3c-1.8-1.7-3.8-1.5-5.6.2s-4.2,5.3-4,8.9c.1,1,0,2,0,3s-2-1.3-1.7-2.7l1.2-6.2a9.1,9.1,0,0,1,8.6-6.8,7.1,7.1,0,0,1,3.1,1.3c2.5,1.8,3.7,4.6,4.4,7.5a32.1,32.1,0,0,1,.7,4.3A2.8,2.8,0,0,1,109.7,412.3Z" style="fill: #7d7285"/>
      <path d="M113.2,427.4h1.9l3.5,2.4c.2,1.4.4,3,.7,4.6-1.4-.3-2.9-.5-4.3-.9s-4.4-.7-6.4.8c-.3.3-.9.3-1.4.5-1.2-1.6-.7-3.1,0-4.6s2.3-2.1,4-2.2A1.3,1.3,0,0,0,113.2,427.4Z" style="fill: #b0a79c"/>
      <path d="M120,448.7c-2.5,1.6-5.1.8-7.6,0-.6-.3-1.5-1-1.6-1.7a34.9,34.9,0,0,1-.5-7.2A4.9,4.9,0,0,1,112,437a1.7,1.7,0,0,1,2.8.5c-.1.3,0,.5-.1.5s-2.6,1-2.7,2.7a10,10,0,0,0,.5,3.8c.2.8,1.2,1.4,2,1.9a3.9,3.9,0,0,0,4.6.1A2.2,2.2,0,0,1,120,448.7Z" style="fill: #7d7285"/>
      <path d="M108,373c-2.9-.1-5.7.2-7.9,2.6-1.3-1.4-1.5-2.3-.5-3a3.9,3.9,0,0,1,2.1-1.1,36.3,36.3,0,0,1,5.7.3C107.6,371.9,107.8,372.6,108,373Z" style="fill: #b0a79c"/>
      <path d="M98.3,418.2a7.5,7.5,0,0,1,5.9,1.8c.4.5,1.2.6,1.8.8s-.6,1.5-1.6,1.7a6,6,0,0,1-4.1-1.1A4,4,0,0,1,98.3,418.2Z" style="fill: #706578"/>
      <path d="M154.1,393.7l3.2,1.5c.3,2.7-.7,5.2-1.5,7.7s-2.7,4-4.8,5.4a4.7,4.7,0,0,1-5.2-.1c-3.3-2.1-6.2-4.8-7.3-8.9s-1.5-9.3.7-13.9,5.6-5.6,9.5-1.7,3.1,4.6,1.3,8.9a1.9,1.9,0,0,1-1.6,1,3.3,3.3,0,0,1-1.9-1.1c-.5-.8-.5-2-1.1-2.7a2.4,2.4,0,0,0-2.1-.7,2.8,2.8,0,0,0-1.6,1.6,3.1,3.1,0,0,0,.1,1.9,18.1,18.1,0,0,0,2.4,3.7c2.9,3,5.6,2.9,8.3-.1A17.5,17.5,0,0,0,154.1,393.7Z" style="fill: #b6ada1"/>
      <path d="M150.6,377.7l-.3,2.4-3-1.4a6.7,6.7,0,0,0-7.3.7l-3.3,2.2c.1-1.3-.1-2.1.2-2.7a8.4,8.4,0,0,1,5.9-4.6l7.8,3.3Z" style="fill: #b0a79c"/>
      <path d="M149.2,371.5c2.4,2.5,5,4.7,6.2,8.1a9.4,9.4,0,0,1,.4,1.6,1.1,1.1,0,0,1-1.8-.2c-1-1.2-1.4-3.1-3.4-3.3h0c.1-2.4-1.5-3.5-3.5-4.1a2.5,2.5,0,0,1-2-2.4l1.1-.2h1.2Z" style="fill: #b2a79e"/>
      <path d="M145.1,371.1a2.5,2.5,0,0,0,2,2.4c2,.6,3.6,1.7,3.5,4.1l-7.8-3.3C143.2,373,143.1,371.3,145.1,371.1Z" style="fill: #7d7285"/>
      <path d="M147.4,371h0Z" style="fill: #7d7285"/>
      <path d="M118.4,212.5l-.3,2.3v.4l.3.3c-.4,2.7-.1,5.2,2.1,7.1.6,2.5,2.3,3.5,4.7,3.6l3.4.2a4.7,4.7,0,0,1-8.2,1.4c-1.8-1.8-3.9-3.6-4.1-6.4s-1.2-6.7,1.5-9.5Z" style="fill: #b0a79c"/>
      <path d="M127.3,217.3c-.4.9-.5,2.1-1.1,2.5a3.7,3.7,0,0,1-2.7-.2,2.1,2.1,0,0,1-1.2-2.8,56.7,56.7,0,0,1,2.3-5.7l-1.4-3,2.8.5a7.1,7.1,0,0,1,2.1,6.3C126.9,215.4,126.6,216.2,127.3,217.3Z" style="fill: #b0a79c"/>
      <path d="M128.5,226.4l-3.4-.2c-2.4-.1-4.1-1.1-4.7-3.6a17.1,17.1,0,0,0,8.4.8Z" style="fill: #a22818"/>
      <path d="M155.1,432.7c.2,2.3.4,4.5.5,6.7s-1.5,5.3-4.8,5.9a8.3,8.3,0,0,1-7.4-4l-.6-2.1c.3-2.1.7-4.1,1.1-6.2,2.9-1.1,2.9-1.1,4.6.9a34.9,34.9,0,0,0-1.9,3.9,3,3,0,0,0,1.4,3.4c1.3.6,2.2,0,3-1s1.6-.9,1-2.1a5.7,5.7,0,0,0-.7-4.4,4.8,4.8,0,0,0-3.3-3.8,31.8,31.8,0,0,0-3.3-.8l.3-3a8.1,8.1,0,0,1,7.6,3.6C153.4,430.8,154.3,431.7,155.1,432.7Z" style="fill: #2f2e3a"/>
      <path d="M143.4,441.3a8.3,8.3,0,0,0,7.4,4,3.6,3.6,0,0,1-1.7,4.2l-1.5,1.2h-.5c-4.9.4-7.1-2.1-8-7.6a31.5,31.5,0,0,1-.1-5.3,6.5,6.5,0,0,0,.8-1.7c.5-2.2,1.9-3.1,4.1-3.1-.4,2.1-.8,4.1-1.1,6.2S142,440.5,143.4,441.3Z" style="fill: #bcb2a6"/>
      <path d="M147.6,450.7l1.5-1.2a3.6,3.6,0,0,0,1.7-4.2c3.3-.6,3.9-3.3,4.8-5.9,1.1.2,1.9.8,1.8,2-.5,3.8-1.9,7.1-5.3,9.3C150.6,451.7,149.1,452,147.6,450.7Z" style="fill: #7d7285"/>
      <path d="M143.9,433c-2.2,0-3.6.9-4.1,3.1a6.5,6.5,0,0,1-.8,1.7c-1.2-2.8.3-4.7,2-6.4s2.5-1.5,3.7-2.3a31.8,31.8,0,0,1,3.3.8,4.8,4.8,0,0,1,3.3,3.8l-2.8.2C146.8,431.9,146.8,431.9,143.9,433Z" style="fill: #7d7285"/>
      <path d="M155.1,432.7c-.8-1-1.7-1.9-2.5-3a8.1,8.1,0,0,0-7.6-3.6c-.6-1.7-.5-2.4.5-2.8a3.1,3.1,0,0,1,3.7.2c2.3,2.2,4.4,4.7,6.6,7.1C156.4,431.4,155.8,432.2,155.1,432.7Z" style="fill: #7d7285"/>
      <path d="M196.7,351.5a16.7,16.7,0,0,1,2.9-8.7,4.2,4.2,0,0,1,5-1.9,3.9,3.9,0,0,1,2.7,3.2,2.4,2.4,0,0,1-1.5,2.7,5.9,5.9,0,0,1-1.9.5,6.7,6.7,0,0,0-5.4,4.3Z" style="fill: #b0a79c"/>
      <path d="M199,360.7l1.7,2.8c1.2,1.7,2.6,2.6,4.9,2a12.3,12.3,0,0,1,3.3.1c-3.8,2.8-6.3,2.8-9.2-.4a20.6,20.6,0,0,1-2.5-4,1.9,1.9,0,0,1,.6-2.6Z" style="fill: #b0a79c"/>
      <path d="M117.1,443.5c-.2-.9-.4-1.2-.4-1.5s.2-1.6,1.2-1.8.8.3.8.4a8.2,8.2,0,0,1-.2,2.2C118.4,443.1,117.7,443.2,117.1,443.5Z" style="fill: #7d7285"/>
      <path d="M113.2,427.4a1.3,1.3,0,0,1-2,.7C111.8,426.5,112,426.4,113.2,427.4Z" style="fill: #5d536c"/>
      <path d="M100.3,305.9c1.1,1.3,1.6,1.7,1.9,2.2,2.7,3.9,2.7,3.9,7.5,3.8.8.7.5,1.4-.1,2-2.2,2-3.8,2.1-6.1.5s-3.6-2.7-3.7-5.3A13.7,13.7,0,0,1,100.3,305.9Z" style="fill: #7d7285"/>
      <path d="M106,308.8c-.6-1.7-1-2.9-1.4-4.3l-3-1.3c.3-.6.3-1.2.6-1.4,2.1-1.3,4-1.1,5.3.3a4.4,4.4,0,0,1,.2,6.1C107.5,308.5,106.9,308.5,106,308.8Z" style="fill: #7d7285"/>
      <path d="M131.8,303.5a4.3,4.3,0,0,1-3.3-2.5,20.4,20.4,0,0,1-3.3-8.1,59.4,59.4,0,0,1-.6-14.6c.4-4.3,3-7,6-9.6a5.9,5.9,0,0,1,8.4,2c-2.7.1-5.5-.5-7.9,1.2a10.7,10.7,0,0,0-4.3,10.3l.9,7.2a6.8,6.8,0,0,0-.2,1.9c1,2.9,2,5.8,3.1,8.7C131.1,301.1,132.1,302.1,131.8,303.5Z" style="fill: #b0a79c"/>
      <path d="M146.7,285.5l-2.1,5.7-2.4-1.6c2.6-4.7,2.8-9.7,1.5-14.9-.5-1.9-1.3-3.6-3.6-3.8h0a9.5,9.5,0,0,0,.9-2.1,18.6,18.6,0,0,0-.3-2.6,1.5,1.5,0,0,1,2.4.2,12.1,12.1,0,0,1,3.5,8.4C146.7,278.3,146.7,281.9,146.7,285.5Z" style="fill: #7d7285"/>
      <path d="M131.8,303.5c.3-1.4-.7-2.4-1.2-3.5-1.1-2.9-2.1-5.8-3.1-8.7a6.8,6.8,0,0,1,.2-1.9l5.5,3.1c-2.3,1.2-2.7,1.8-2.2,3.5,1.2,3.9,3.5,6.5,7.9,6.5-1.8,1.2-3.8,1.3-5.8,1.7Z" style="fill: #706578"/>
      <path d="M131.1,271.9c2.4-1.7,5.2-1.1,7.9-1.2h1.1l.2,4.1-2.5-1c-1.2-.4-2.4-.6-3.5.4S132,273,131.1,271.9Z" style="fill: #706578"/>
      <path d="M207,310.8c1.4-3.2.5-6.5-.2-9.6a5.9,5.9,0,0,0-5.4-4.8l-4.3-.4c-.1-.4-.4-.8-.2-1,1.5-2,2.7-4.3,5-5.6a1.7,1.7,0,0,1,1.3-.4c2.3.7,4.8.8,6.8,2.5a7.6,7.6,0,0,1,2.4,5.7,16.3,16.3,0,0,1-.8,6.2,22.1,22.1,0,0,0-1.5,9.5C207.9,312.9,207.9,312.9,207,310.8Z" style="fill: #b0a79c"/>
      <path d="M207,310.8c.9,2.1.9,2.1,3.1,2.1l-1.2,3.3a2.5,2.5,0,0,0-2.2,2.2.5.5,0,0,0-.5.3l-5.3.8L198,317c-1.4-3.4-3-6.7-2.1-10.6l2.4-.7,2.4,7.5c0,.9.3,1.7,1.3,1.8a1.9,1.9,0,0,0,2.2-1.9Z" style="fill: #a22818"/>
      <path d="M200.9,319.5l5.3-.8C204.5,319.7,202.9,320.9,200.9,319.5Z" style="fill: #b0a79c"/>
      <path d="M206.7,318.4a2.5,2.5,0,0,1,2.2-2.2Z" style="fill: #b0a79c"/>
      <path d="M208.6,400.4c1.5-.5,2.7-1.2,2.4-3.1h1.4l2.5-1.2c1.2.4.9,1.4,1,2.3-1.9.7-2.7,2.4-3.8,3.8s-3.3,4-6,4.7c-.5.1-.7,1-1,1.5l-2.4-1.1c0-1.3-.1-2.6-.2-3.9a15.5,15.5,0,0,0,3.7.4,4.5,4.5,0,0,0,2.5-.9c.8-.5.6-1.3-.1-1.9Z" style="fill: #706578"/>
      <path d="M211.2,385.5c-1.5-3.3-4.7-4.2-7.5-5.7.3-1.1.7-2.4,2-2.4a5.9,5.9,0,0,1,3.7.7,8.4,8.4,0,0,1,3.4,6.1C213,385.2,211.9,385.3,211.2,385.5Z" style="fill: #b0a79c"/>
      <path d="M205.1,408.5c.3-.5.5-1.4,1-1.5,2.7-.7,4.3-2.7,6-4.7s1.9-3.1,3.8-3.8a9.9,9.9,0,0,1-3,7.8C210.7,408.4,208.2,409.7,205.1,408.5Z" style="fill: #b2a79e"/>
      <path d="M209.9,396.6a20.9,20.9,0,0,1-3.4.4c-1.7-.3-2.5-1.5-2-3.5l3.1-1.1c1.7-.5,2.3.6,2.7,2A17,17,0,0,0,209.9,396.6Z" style="fill: #7d7285"/>
      <path d="M212.4,397.4H211C211.6,396.6,212,397,212.4,397.4Z" style="fill: #2f2e3a"/>
      <path d="M200.3,399.3c-2.2-2.7-2.5-5.9-2.1-9.2.1-1,.4-2.3,2.3-2.2.1.5.5,1.1.4,1.6-.9,3.7.3,6.7,2.2,9.7Z" style="fill: #7d7285"/>
      <path d="M200.3,399.3h2.8l4.4,1.5,1.1.4c.7.6.9,1.4.1,1.9a4.5,4.5,0,0,1-2.5.9,15.5,15.5,0,0,1-3.7-.4C201.8,402.1,201.1,400.7,200.3,399.3Z" style="fill: #b2a79e"/>
      <path d="M203.9,387h-.8c-.4-.4-1.1-.8-1.2-1.3a2.4,2.4,0,0,1,.9-1.5,2.9,2.9,0,0,1,3.2-.1,2.2,2.2,0,0,1,1,1.4,1.9,1.9,0,0,1-1.1,1.4A7.5,7.5,0,0,1,203.9,387Z" style="fill: #7d7285"/>
      <path d="M208.6,401.1l-1.1-.4,1.1-.3Z" style="fill: #7d7285"/>
      <path d="M116.6,342.9c.8.2,1.5.6,1.6,1.5l.3,3.8c.4,2.7.1,5.1-2.3,6.9s-1.5,2-2.3,3c-2.4.5-3.5-1.1-4.7-2.7a6.3,6.3,0,0,0,4.5-5.5,5.3,5.3,0,0,0,2.5-4.2A14.5,14.5,0,0,1,116.6,342.9Z" style="fill: #7d7285"/>
      <path d="M113.7,349.9a6.3,6.3,0,0,1-4.5,5.5,7.9,7.9,0,0,1-2.3-1.6,13.1,13.1,0,0,1-2.2-10c1,.4.8,1.2.9,1.8.7,3,1.9,4.3,4.7,4.5A19.4,19.4,0,0,0,113.7,349.9Z" style="fill: #b0a79c"/>
      <path d="M106.7,340.1c.3-.7.4-.9.5-.9,2.4-1.6,4.3-1.1,6,1.4a4.1,4.1,0,0,1-1.2,5.9,1.7,1.7,0,0,1-2.7-1.1,1.4,1.4,0,0,1-.1-.9C109.7,342.4,108.3,341.2,106.7,340.1Z" style="fill: #b0a79c"/>
      <path d="M108,334.2c.4-1.3,1-2.4,2.5-2.7a4,4,0,0,1,3.9,1.5c1.2,1.4,2.2,2.8,1.5,4.8C113.6,335.8,111.2,334,108,334.2Z" style="fill: #7d7285"/>
      <path d="M115.8,337.8a5.2,5.2,0,0,1,1,1.1A5.2,5.2,0,0,0,115.8,337.8Z" style="fill: #7d7285"/>
      <path d="M116.7,338.8c.7.6.3,1-.1,1.4S116.7,339.3,116.7,338.8Z" style="fill: #7d7285"/>
      <path d="M185.2,385c1.1.1,1.9.6,2,1.7a7.7,7.7,0,0,1-2.9,6.8l-2.8,2.6c-1.1-.1-2.2.1-3.3-.1a15.3,15.3,0,0,1-2.7-1.1c-2.8-2.2-3.3-5.2-3.2-8.5.1-1.2.3-2.5.4-3.8a.5.5,0,0,0,.2-.6,5.4,5.4,0,0,1,.5-1.1l2.7-.9c2.3-.2,4.6-.9,6.8.3,0,1.1-.1,2.1-.2,3.2l-.5.2h-2a3.9,3.9,0,0,0-3.9,1.4,3.6,3.6,0,0,0-.1,4.5c.8,1.9,2.1,3,4.1,2.1S185.7,388.8,185.2,385Z" style="fill: #2f2e3a"/>
      <path d="M172.7,382.6c-.1,1.3-.3,2.6-.4,3.8-.1,3.3.4,6.3,3.2,8.5a13.3,13.3,0,0,1-1.9,1.4l-3.1-1.8-.6-1.2a20.3,20.3,0,0,1,.6-8.1,25.2,25.2,0,0,0,.6-4.8c.5-4.8,2.2-6.6,7.2-7.6l-2,2.1a8.8,8.8,0,0,0-2.9,6,5.4,5.4,0,0,0-.5,1.1h-.4Z" style="fill: #b0a79c"/>
      <path d="M173.6,396.3a13.3,13.3,0,0,0,1.9-1.4,15.3,15.3,0,0,0,2.7,1.1c1.1.2,2.2,0,3.3.1l4.7-.2a9.9,9.9,0,0,1-.5,2.4c-1.4,2.1-3.5,2.9-5.8,3.3S174.8,400.5,173.6,396.3Z" style="fill: #b2a79e"/>
      <path d="M185.2,385c.5,3.8-2.1,5.4-4.9,6.6s-3.3-.2-4.1-2.1c2.4-1.5,4.7-3.1,6-5.8l.5-.2Z" style="fill: #7d7285"/>
      <path d="M182.9,380.3c-2.2-1.2-4.5-.5-6.8-.3a4.1,4.1,0,0,1,1.4-3.5l2.2-2a6.5,6.5,0,0,1,3.9,3.4A1.5,1.5,0,0,1,182.9,380.3Z" style="fill: #b6ada1"/>
      <path d="M179.7,374.5l-2.2,2a4.1,4.1,0,0,0-1.4,3.5l-2.7.9a8.8,8.8,0,0,1,2.9-6l2-2.1h1.2C179.6,373.3,179.6,373.9,179.7,374.5Z" style="fill: #7d7285"/>
      <path d="M173.5,291.8a41.6,41.6,0,0,1,2.2,4.8,5.3,5.3,0,0,1,0,2.8,2.5,2.5,0,0,1-4.2,1.4,5,5,0,0,1-1.3-6.1l1.5-2.9Z" style="fill: #b0a79c"/>
      <path d="M173.5,291.8h-1.8c-2.6-1.2-3.4-1-3.9,1.2s-.4,2.5-.7,3.8-.4,1.1-.7,2c-.5-.8-.9-1.1-.9-1.5a30.8,30.8,0,0,1,.3-5.3,6.3,6.3,0,0,1,1.3-3,2.6,2.6,0,0,1,4.2-.3A21.8,21.8,0,0,1,173.5,291.8Z" style="fill: #5d536c"/>
      <path d="M207.6,351.6a5.1,5.1,0,0,1-.6,5.1,3.1,3.1,0,0,1-5,0,3.8,3.8,0,0,1-.5-3.7,2.8,2.8,0,0,1,2.9-1.5Z" style="fill: #b0a79c"/>
      <path d="M178.4,416.7c2.8.7,2.7,2.9,2.5,5.1l-5.2-.7a4.3,4.3,0,0,1-1.9-1.4c-.6-.4-.2-1.8.5-2S177.3,418,178.4,416.7Z" style="fill: #706578"/>
      <path d="M180.7,423.9l2.5.6c-2.6,3-5.6,3.5-8.8,3.1-.2-1.1-.1-2,1.1-2.3Z" style="fill: #7d7285"/>
      <path d="M170.1,350c-2.6-3.2-2.6-6.9-1.8-10.7s2.5-4.6,4.3-4.7,3.9,1.2,5.2,3.8a7.7,7.7,0,0,1,.4,6.1,2.9,2.9,0,0,1-1.8,1.3,1.7,1.7,0,0,1-2-1.7c0-1.2.2-2.3.2-3.4s-.5-1.7-1.4-1.6-1.8.6-1.9,1.1c-1,3.4-.4,8,4.8,8.9l2.8.6c-.7,1.7-2.2,2.1-3.9,1.8Z" style="fill: #b0a79c"/>
      <path d="M170.1,350l4.9,1.5c1.7.3,3.2-.1,3.9-1.8h0l.4-.2-.3-.8.6-.8a5.7,5.7,0,0,0,2.7-5.7h1.4v1.8c.2.7.3,1.5.5,2.2-.3,2.9-.7,5.9-3.6,7.6a1.5,1.5,0,0,0-2.1-.6,8.8,8.8,0,0,1-6,.4c-.4-.1-.9.2-1.3.3a23.9,23.9,0,0,1-1.3-2.1C170,351.3,170,350.6,170.1,350Z" style="fill: #7d7285"/>
      <path d="M183.7,342.3h-1.4c-1.1-2.7-2.1-5.5-3.1-8.2a3.3,3.3,0,0,1,2.8,1.7C183,337.8,184,339.9,183.7,342.3Z" style="fill: #706578"/>
      <path d="M179,348.7l.3.8-.4.2C178.9,349.4,179,349,179,348.7Z" style="fill: #b0a79c"/>
      <path d="M198.3,305.7l-2.4.7a26.4,26.4,0,0,1-.2-2.8c.6-4.1,3.4-5.5,7-3.5a4.3,4.3,0,0,1,1.8,2.2c.7,1.6.4,3.7-.7,6.4-1.1,0-.7-.8-.8-1.4a16,16,0,0,0-.3-2.3c-.7-1.9-2.4-2.1-3.8-.6A5.2,5.2,0,0,0,198.3,305.7Z" style="fill: #b0a79c"/>
      <path d="M204.2,313.1A1.9,1.9,0,0,1,202,315c-1-.1-1.3-.9-1.3-1.8Z" style="fill: #b0a79c"/>
      <path d="M171.2,354c.4-.1.9-.4,1.3-.3a8.8,8.8,0,0,0,6-.4,1.5,1.5,0,0,1,2.1.6,27.1,27.1,0,0,1-3.5,2.4C174.1,357.8,173.1,357.4,171.2,354Z" style="fill: #b0a79c"/>
      <path d="M184.2,346.3c-.2-.7-.3-1.5-.5-2.2S184,345.6,184.2,346.3Z" style="fill: #706578"/>
      <path d="M127.3,217.3c-.7-1.1-.4-1.9.8-2.4A1.9,1.9,0,0,1,127.3,217.3Z" style="fill: #4a435b"/>
      <path d="M118.3,215.5l-.3-.3v-.4C118.4,215,118.5,215.2,118.3,215.5Z" style="fill: #4a435b"/>
      <path d="M159.4,387.5a6.7,6.7,0,0,1-.6-1.2c-.1-.2.2-.5.3-.8s.5.5.6.9,0,.6,0,.9Z" style="fill: #4a435b"/>
      <path d="M138.9,302.5c-4.4,0-6.7-2.6-7.9-6.5-.5-1.7-.1-2.3,2.2-3.5l2.6.4h1.4c2.2-.2,3.3-2.1,4.9-3.2l2.5,1.6a62.3,62.3,0,0,1-1.5,6.2A8.2,8.2,0,0,1,138.9,302.5Z" style="fill: #c0b6aa"/>
      <path d="M99,412.1a10.2,10.2,0,0,1,3.3-9.6c4.5,6.1,4.5,6.1,3.6,10.1-1.5.9-2.7-2-4.3-.4Z" style="fill: #b0a79c"/>
      <path d="M99,412.1h2.6c-.1,1-.3,2-1.7,1.8S98.9,412.9,99,412.1Z" style="fill: #5d536c"/>
      <path d="M148.5,433.9l2.8-.2a5.7,5.7,0,0,1,.7,4.4,1.8,1.8,0,0,0-1,2.1c-.8,1-1.7,1.6-3,1a3,3,0,0,1-1.4-3.4A34.9,34.9,0,0,1,148.5,433.9Z" style="fill: #b6ada1"/>
      <path d="M143.4,441.3c-1.4-.8-1.5-.9-.6-2.1Z" style="fill: #7d7285"/>
      <path d="M151,440.2a1.8,1.8,0,0,1,1-2.1C152.6,439.3,152,439.9,151,440.2Z" style="fill: #7d7285"/>
      <path d="M135.8,292.9l-2.6-.4-5.5-3.1-.9-7.2a10.7,10.7,0,0,1,4.3-10.3c.9,1.1,1.5,2.5,3.2,2.5a2.8,2.8,0,0,1-1.2,3.6,3.9,3.9,0,0,0-3.1,3.8,9,9,0,0,0,1.3,6c1.5,2.3,1.9,2.4,5.2,1.2a3.3,3.3,0,0,0,1.4-.4,14.9,14.9,0,0,0,3.8-7.6c.6-2.2-.3-4.1-1.4-6l-.2-4.1c2.3.2,3.1,1.9,3.6,3.8,1.3,5.2,1.1,10.2-1.5,14.9-1.7,1.1-2.8,3-5,3.2Z" style="fill: #2f2e3a"/>
      <path d="M140.3,275c1.1,1.9,2,3.8,1.4,6a14.9,14.9,0,0,1-3.8,7.6,3.3,3.3,0,0,1-1.4.4c-.2-.4-.2-1-.5-1.3a11.2,11.2,0,0,1-2.9-9.7,2.8,2.8,0,0,0,1.2-3.6c1.1-1,2.3-.8,3.5-.4Z" style="fill: #bcb2a6"/>
      <path d="M182.2,383.7c-1.3,2.7-3.6,4.3-6,5.8a3.6,3.6,0,0,1,.1-4.5,3.9,3.9,0,0,1,3.9-1.4Z" style="fill: #a22818"/>
      <path d="M172.7,382.6l-.2-.5h.4A.5.5,0,0,1,172.7,382.6Z" style="fill: #7d7285"/>
      <path d="M135.8,292.9h0Z" style="fill: #706578"/>
      <path d="M133.1,278a11.2,11.2,0,0,0,2.9,9.7c.3.3.3.9.5,1.3-3.3,1.2-3.7,1.1-5.2-1.2a9,9,0,0,1-1.3-6A3.9,3.9,0,0,1,133.1,278Z" style="fill: #706578"/>
    </g>
  </g>
</svg>
