<svg xmlns="http://www.w3.org/2000/svg" width="486" height="538" viewBox="0 0 486 538">
  <title>lesgrandsvoisins</title>
  <g id="Layer_13" data-name="Layer 13">
    <g>
      <path d="M241.4,237.4c-2.5-.6-3.4-2.5-3.4-4.8s.4-6.8.6-10.2c.1-1.3.5-2.7.2-3.9-1.7-7.3-1.5-14.7-1.9-22-.4-5.2-.5-10.4-.5-15.7a123.2,123.2,0,0,0-1.4-17.1c-.5-3.2-.7-6.5-.9-9.8-.6-9.3-1-18.6-1.5-27.9-.9-14.6-1.2-29.1.3-43.7.3-3.1.4-6.2.7-9.3.1-1.1.5-2.2.7-3.3l3.6-.2c.1-.9.3-1.9.4-2.9-2.7-3.6-2-7.2-.1-10.9s1.7-5.7,2.6-8.5l-2.7-.4-1,1.7-1.5,3.1c-.7-1.7-.7-1.7-.4-4l.3-11.7,1.2-23.3a5.5,5.5,0,0,1-1.8.1,4.1,4.1,0,0,1-1.9-.5v.4c-.6,11-.8,21.9-1.2,32.9-.4,9.3-.9,18.6-1.4,28s-1.4,18.3-1.5,27.4.7,20.6,1.1,30.9c.3,8,.7,16.1,1.1,24.1a37.7,37.7,0,0,0,.4,5.8c1.4,8.8,1.3,17.7,1.5,26.5s.8,15,1.3,22.5a77,77,0,0,1-.4,18.6,17.6,17.6,0,0,1,0,2.3c-.3,2.6-.6,2.8-3.6,2.8a17,17,0,0,0-3.2,1,7.6,7.6,0,0,1-6.1,0c-.3,1.1-.7,2.1-1,3.2l-3.1.2-9.6-.8c-1.3-.1-2.5-.4-2.8-2a22.3,22.3,0,0,1-3.2.9c-7.7.4-15.4.5-23,.5-5.1,0-10.2.4-15.2.6s-12.4-.8-18.6-1.5c-3.7-.5-7.5-.8-11.2-1.2l-20.5-2.1c-3.1.8-6.2,0-9.2-.2l-13.5-1.4-6.8-.3a7.2,7.2,0,0,1-5.2-.3c-12.8-.4-25.5-.7-38.3-.1-4.6.2-9.2-.1-13.7-.2H10.9a4.6,4.6,0,0,1,3.9,3.6h4.4c1.5,0,2.2,1.1,2,2.7a6.3,6.3,0,0,1-.3,1.9,12,12,0,0,0-.7,6.2,21.7,21.7,0,0,1,.1,4.4,11.4,11.4,0,0,0,1.8,6.5l4.7,8.6,3.3,1.7,1.7-1.6c-1.1-.7-2.3-1.3-2.8-2.6a9.5,9.5,0,0,0-1-1.7c-4.9-7.2-5.5-14.8-2.4-22.9a13.4,13.4,0,0,1,.7-1.8c0-.2.2-.3.6-.7a10.4,10.4,0,0,1,2.4-.6c12.3-.2,24.6-.6,36.8-.6,6.7.1,13.4,1,20.1,1.4l29.4,1.8c8.5.7,17,1.4,25.5,2.4a172.4,172.4,0,0,0,31.3,1.5,84.4,84.4,0,0,1,13.3.2c8,.6,16,0,24,.4a48.9,48.9,0,0,1,5.4.3,58.3,58.3,0,0,0,13.2.2c1.7-.2,3.3-.4,4.9.4s4,.2,5.2-1.9l.8-1.3,1.4-.3C241.9,238.9,241.9,238.9,241.4,237.4Z" style="fill: #5d536c"/>
      <path d="M218.5,487.9c1.7-1,1.7-2.7,1.8-4.3a115.9,115.9,0,0,1,2.3-15.5,23.9,23.9,0,0,1,4.2-8.8,6.7,6.7,0,0,1,2.1-2,4.3,4.3,0,0,1,6.8,2.1,8.5,8.5,0,0,1,.4,2.3c.2,4,.6,7.9.5,11.8a112.7,112.7,0,0,1-.8,14.2c-.5,4.5-1.8,8.9-2.6,13.4a24.3,24.3,0,0,1-3,8.7,6.1,6.1,0,0,1-1.3,1.5c-.3-2.3-.6-4.7-1-7a6.8,6.8,0,0,0-1-1.8c-1.4,2.2-2.5,4.3-5.2,4.3a27,27,0,0,1-1.2-9.4c0-1.4-.1-2.8-1.5-3.7S218.7,489.8,218.5,487.9Zm8.7,8.2c3.2-7.5,2.6-15.4,3.5-23.1.1-1.3.5-2.8-.4-4.5a5.7,5.7,0,0,0-2.1,4.4C227.4,480.6,225.8,488.3,227.2,496.1Z" style="fill: #7d7285"/>
      <path d="M179.1,483.8c-.2.7-.3,1.3-.5,1.9-1.8.8-1.3,2.9-2.5,4.1a10.7,10.7,0,0,0-2.6,3.9,39.7,39.7,0,0,1-3.7,8.4c-2.2,3.3-2.7,6.9-3,10.6a13.6,13.6,0,0,1-.3,2.9c-.2.5-.8.9-1.3,1.3.1-3.2.1-6.4.2-10.1-1.8-1.1-3.8-2.6-4.4-5.1a13.4,13.4,0,0,1,.1-2.8,2.5,2.5,0,0,0,.9-.4c1.9-2.2,3.6-4.6,6.3-6a5.4,5.4,0,0,0,2.3-3c1.3-3.5,2.4-7.1,3.5-10.6l7.2-20.4c1.4-3.6,3-7.3,4.5-10.9s2-5.2,3.2-7.7a5.5,5.5,0,0,0,.4-4.7l3.3-3.9a12.4,12.4,0,0,1,1.8.2c4.2,1.5,5.1,3,3.6,7a64.6,64.6,0,0,1-4.8,10.7c-4.2,7.2-6.9,14.9-9.7,22.6-1.3,3.3-2.5,6.7-3.8,10.1C178.9,482.3,178.4,482.8,179.1,483.8Z" style="fill: #5d536c"/>
      <path d="M304.9,499.1c2.4-.7,4.1.2,5.5,2.2a15.7,15.7,0,0,1,2.6,7.2,93.7,93.7,0,0,1-1,20.5,27.9,27.9,0,0,1-1.4,4.7c-1.2,3.3-4.9,4-7.3,1.2a34.1,34.1,0,0,1-3-4.4H300c0-.3.2-.7.1-.9-1.6-3.4-3.1-6.8-4.8-10.1-.3-.5-1.3-.8-2-1.2s-.7-1.8-.9-2.5.4-.9.6-1c2.8-1.8,3-4.4,1.9-7.2a5.7,5.7,0,0,1-.4-4.2c1.1,2.1,2.2,4.3,3.2,6.5,2.1,4.6,4.2,9.2,6.2,13.8.4.8.8,1.5,2,1.1a58,58,0,0,0,.9-12.5c.1-2.8-.1-5.5-2.1-7.8a11.5,11.5,0,0,1-.9-2.8C304.1,500.9,304.5,500,304.9,499.1Z" style="fill: #706578"/>
      <path d="M276.2,503.7c.3,7.8,1,15.6,4.4,22.8.5,1.2,1.1,2.3,1.7,3.5a10.8,10.8,0,0,1,1,2.7,2.5,2.5,0,0,1-2.9,3.3,14,14,0,0,1-2.8-.6c-1.4-3.1-3-6.2-4.1-9.3s-2.2-6.5-3.2-9.7c.1-1.4-.1-2.7-1.5-3.3s-4.8-.2-5.9,1.2a16.9,16.9,0,0,0-1.3,3.1l-1.8,2.9c-.8-1.7-2.6-3.1-1.9-5.4a36.2,36.2,0,0,1,3.3-2,6.6,6.6,0,0,0,4-5.6c1.3-.4,2.9-.3,3.8-1.7-.1-4.6-.2-4.8-2.2-6.9-.3.2-.7.4-.7.6-.6,2.5-1.2,5-1.7,7.5l-3.5-.6c.9-4.9,1.2-9.7,6.3-11.8-.1-2-.1-3.6-.2-5.2,2.1.5,3.3,2,4.3,3.7a61.3,61.3,0,0,1,3.5,7.3C275.3,501.3,275.7,502.5,276.2,503.7Z" style="fill: #706578"/>
      <path d="M174.1,478.9c-1.1,3.5-2.2,7.1-3.5,10.6a5.4,5.4,0,0,1-2.3,3c-2.7,1.4-4.4,3.8-6.3,6a2.5,2.5,0,0,1-.9.4h-2.8c.2-4.3.7-8.4,2.8-12.2.5-.9.4-2.2.6-3.5l-2,.9a27.9,27.9,0,0,1,.7-3.8l4.5-13.4a22.6,22.6,0,0,1,1.3-2c.4.7,1,1.5.9,2.2-.2,2.9-.7,5.8-1.1,8.7s-.8,3.8-1,5.7.4,1.1.9,2.4a33.4,33.4,0,0,0,3.7-10.2,24.9,24.9,0,0,1,1.2-4.7c.8-2.3,1.8-4.5,2-7a9.2,9.2,0,0,1,.9-2.8c1.4-3.6,2.8-7.3,4.3-10.9a12.4,12.4,0,0,1,1.4-1.8c.3,3.8-1.2,7.3-2,11-1.2,5.2-2.6,10.4-3.9,15.6a17.4,17.4,0,0,0-.5,3.9C173.1,477.6,173.8,478.2,174.1,478.9Zm-9.4,9.4-.6-.3a.5.5,0,0,0-.3.3l.4.6Z" style="fill: #706578"/>
      <path d="M165.2,516.9c.5-.4,1.1-.8,1.3-1.3a13.6,13.6,0,0,0,.3-2.9c.3-3.7.8-7.3,3-10.6a39.7,39.7,0,0,0,3.7-8.4,10.7,10.7,0,0,1,2.6-3.9c1.2-1.2.7-3.3,2.5-4.1.5,1.8-.4,3.2-.9,4.8-1.6,5.3-3.5,10.5-4.8,15.9a64.1,64.1,0,0,0-1.5,10.7,9.3,9.3,0,0,0,.7,4.3,6.3,6.3,0,0,0,8.1,4.3A43.7,43.7,0,0,0,187,523c1.9-.8,3.5-2.3,6-2.8.1.8.4,1.5.2,2-3.2,8.1-13.8,12.1-21.3,7.8A12.6,12.6,0,0,1,165.2,516.9Z" style="fill: #7d7285"/>
      <path d="M159.7,484l2-.9c-.2,1.3-.1,2.6-.6,3.5-2.1,3.8-2.6,7.9-2.8,12.2-.1.3-.3.5-.4.8s-1.7,1-1.7,2.2a12.2,12.2,0,0,1-10.2,5,7.5,7.5,0,0,0-6.3,3c-2,2.2-2.5,3.8-2.4,7.4l4,.4c.3.4.6.7.6,1a12,12,0,0,1-.3,3.8,3.3,3.3,0,0,1-5.5,1.6c-3.1-2.5-4.9-5.4-4-9.8a21.5,21.5,0,0,1,6.3-11.4c2.2-1.9,4.6-3.2,7.6-2.5s4.9-.6,6.7-2.9a42.4,42.4,0,0,0,5.7-10.2A30.5,30.5,0,0,0,159.7,484Z" style="fill: #5d536c"/>
      <path d="M179.4,446.4a12.4,12.4,0,0,0-1.4,1.8c-1.5,3.6-2.9,7.3-4.3,10.9a9.2,9.2,0,0,0-.9,2.8c-.2,2.5-1.2,4.7-2,7a24.9,24.9,0,0,0-1.2,4.7,33.4,33.4,0,0,1-3.7,10.2c-.5-1.3-1-1.9-.9-2.4s.7-3.8,1-5.7.9-5.8,1.1-8.7c.1-.7-.5-1.5-.9-2.2l1.8-5.6c.8-.4,1.2-1,.6-1.8s.5-1.4.7-2,1.2-1,.6-1.9c1.7-5.6,3.4-11.3,5.2-16.9a16.3,16.3,0,0,1,2.2-3.8c.9-1.4,2.2-1.6,3.9-1.1a2.5,2.5,0,0,1,1.9,2.5,12.5,12.5,0,0,1-.3,1.9C181.7,439.6,180.6,443,179.4,446.4Z" style="fill: #5d536c"/>
      <path d="M199.2,516.2c-2.2-.1-3.7-1.4-5.1-3l-2.4-2.8c-.1-2.3-.3-4.6-.5-6.9s1.2-4,.7-6.1-1.4-1.5-2.5-1.1a7.8,7.8,0,0,0-2.1-1.6,3.1,3.1,0,0,1-1.8-2.4c2-3.4,5.4-3.1,8.8-3.1a13.3,13.3,0,0,1,1.4-1.9,5.8,5.8,0,0,1,2.5-1.2c2.1-.2,3.6,1,3.3,3.1-.4,3.7-1.2,7.4-1.9,11s-1,4.5-1.2,6.7.3,2.9,3.2,4C201.4,512.9,201.6,515.1,199.2,516.2Z" style="fill: #5d536c"/>
      <path d="M287.3,531c-2.3-1.2-1.7-3.3-1.7-5.2l.3-5,.3-2.8a32.1,32.1,0,0,0,.7-5.3c.1-4,0-8-.1-12.1s.5-3.9,4.2-4.5a12,12,0,0,1,3.5,7.4,5.7,5.7,0,0,0,.4,4.2c1.1,2.8.9,5.4-1.9,7.2-.2.1-.3.5-.6,1s.6,1.6.9,2.5l-1.5,10.9a2,2,0,0,0-1,2.1h-.1Z" style="fill: #5d536c"/>
      <path d="M218.5,487.9c.2,1.9-.8,4,.5,5.8-.4,2-.7,4.1-1.1,6.1l-2.5-3.4c-.9,3.2-2,5.7.7,7.9a5.9,5.9,0,0,1-2.8,4.6c-2.3-.8-2.3-.8-2.1-2.3a13.2,13.2,0,0,1,.4-2.4l-7.4,2.9a21.1,21.1,0,0,1,0-12.9c1-3.7,3.5-6.1,6.5-8.1a5.8,5.8,0,0,1,4.6-.8A3.9,3.9,0,0,1,218.5,487.9Zm-4.8,3.2a11.7,11.7,0,0,0-4,8.8c-.1.5.3,1,.8,2.3C212.9,498.6,214.5,495.7,213.7,491.1Zm-8.8,9.9a3.6,3.6,0,0,0-.3,1.6c.1.4.5.7.8,1a5.6,5.6,0,0,0,.4-1.2A6.3,6.3,0,0,0,204.9,501Z" style="fill: #706578"/>
      <path d="M185.5,492.3a3.1,3.1,0,0,0,1.8,2.4,7.8,7.8,0,0,1,2.1,1.6c-.8,1.2-1.7,2.4-2.4,3.7s-2.2,4.3-1.6,7.2a5.2,5.2,0,0,0,2-.6c1.3-.9,2.5-2,3.8-3.1.2,2.3.4,4.6.5,6.9s-2.7,2.4-4.3,3a6,6,0,0,1-8.5-4.6,9.7,9.7,0,0,1-.1-3.4C179.6,500.3,181.2,495.6,185.5,492.3Z" style="fill: #706578"/>
      <path d="M228.5,515.4l1,2.7c.5,1.5.9,3.1,1.5,4.6s2.8,4,5.8,3.1c.2-.1.6.1.9.1s.6,2.8-.2,4a3.9,3.9,0,0,1-3.3,1.7,7.1,7.1,0,0,1-5.7-2.5,53.6,53.6,0,0,1-3.8-5.5c-.8-1.3-1.2-2.7-2-4.3l-5.1,1.1a17.7,17.7,0,0,0,.2-3.2,16.7,16.7,0,0,0-.8-3l4.1-2.8a6.3,6.3,0,0,0,3.8,6.4Z" style="fill: #7d7285"/>
      <path d="M217,514.2a16.7,16.7,0,0,1,.8,3,17.7,17.7,0,0,1-.2,3.2l-.7.2c-1.4-.6-2.9-1-4.3,0a9,9,0,0,1-4.8-3,4.7,4.7,0,0,0-3.7-1.9c.3-2,.3-3.8-1.8-5a5.8,5.8,0,0,0,1.9-3.6l7.4-2.9a13.2,13.2,0,0,0-.4,2.4c-.2,1.5-.2,1.5,2.1,2.3l-.9,2.2c-.9,2.1.4,4.7,3.3,3.6Z" style="fill: #5d536c"/>
      <path d="M228.5,515.4l-3.6,2.4a6.3,6.3,0,0,1-3.8-6.4l.6-4.6c2.7,0,3.8-2.1,5.2-4.3a6.8,6.8,0,0,1,1,1.8c.4,2.3.7,4.7,1,7S228.6,514.1,228.5,515.4Z" style="fill: #5d536c"/>
      <path d="M245.1,508.6a2.5,2.5,0,0,1,1.2,3.3,2.7,2.7,0,0,1-3,1.8c-2.2-.2-4.4-.6-6.6-.9a11.4,11.4,0,0,1-1.1-1.1c-2.4-3-1.9-4.4,2-5.2h1l2.7.9Z" style="fill: #706578"/>
      <path d="M257.3,496.4c.4-1.7.9-3.3,1.3-4.9a3.7,3.7,0,0,1,.9,3.2c-.3,2.4-.6,4.9-.7,7.3s-1.4,3.5-3.5,4.1c.5-2.5,1.1-5.1,1.6-7.6A15.5,15.5,0,0,1,257.3,496.4Z" style="fill: #706578"/>
      <path d="M202.3,510.7c2.1,1.2,2.1,3,1.8,5s-3.1,1.9-4.9.5c2.4-1.1,2.2-3.3,2.4-5.3A.6.6,0,0,1,202.3,510.7Z" style="fill: #706578"/>
      <path d="M259.8,520.3l1.8-2.9,1.4.3c1.2.3,2,1,1.8,2.3a2.5,2.5,0,0,1-2.1,2.3,26.2,26.2,0,0,1-2.8,0h-.6A11.7,11.7,0,0,1,259.8,520.3Z" style="fill: #ded4c6"/>
      <path d="M258.3,524.3c-1.4.2-2.9.5-3.6-1.2,1.3-1.5,3-.9,4.6-.8h.6Z" style="fill: #706578"/>
      <path d="M476.5,500.1a5.3,5.3,0,0,1-1.7,1c-.2,0-.6-.6-.9-.9a6.7,6.7,0,0,1,1.4-1.1C475.4,499,475.9,499.6,476.5,500.1Z" style="fill: #ded4c6"/>
      <path d="M212.6,520.6c1.4-1,2.9-.6,4.3,0A3.1,3.1,0,0,1,212.6,520.6Z" style="fill: #7d7285"/>
      <path d="M241.3,507.4l-2.7-.9c.3-.9.7-1.9,1.9-1.5S241.4,506.5,241.3,507.4Z" style="fill: #ded4c6"/>
      <path d="M286.2,518l-.3,2.8C284.5,519.4,284.6,519.1,286.2,518Z" style="fill: #ded4c6"/>
      <path d="M472,480.4c-.6.3-1.1.6-1.3.5s-.4-.6-.6-1,.5-.4.7-.3A3.5,3.5,0,0,1,472,480.4Z" style="fill: #ded4c6"/>
      <path d="M169.9,453.5c.6.9.3,1.4-.6,1.9Z" style="fill: #706578"/>
      <path d="M168.6,457.4c.6.8.2,1.4-.6,1.8Z" style="fill: #706578"/>
      <path d="M156.2,501.8c0-1.2.4-2,1.7-2.2A2.3,2.3,0,0,1,156.2,501.8Z" style="fill: #706578"/>
      <path d="M179.1,483.8c-.7-1-.2-1.5.7-1.9A1.3,1.3,0,0,1,179.1,483.8Z" style="fill: #7d7285"/>
      <path d="M44.2,271.2l1.5-.5Z" style="fill: #d5cbbe"/>
      <path d="M322.4,528.9a10.7,10.7,0,0,0,9.1,1c1.1-.3,2.1-.8,3.2-1.2s2.9-.2,3.6,1.4a2.6,2.6,0,0,1-1,3.8c-7.1,5.1-13,3.5-18.9-.7a3.5,3.5,0,0,1-1.3-1.4c-.7-1.8-1.9-3.7-2-5.5-.4-7.7.2-15.3,3.9-22.4a5.2,5.2,0,0,1,5.5-3.1c2.6.3,4.3,1.5,4.6,4.2s-1.8,1.8-3,2.3a3.3,3.3,0,0,0-2.3,2.3C321.8,515.9,321,522.3,322.4,528.9Z" style="fill: #706578"/>
      <path d="M420.3,96.9l3.3-16.2c.8-3.9,1-4.3,3.4-7.4a14.6,14.6,0,0,1,8.5,1.3l7.9,3.7,12.3,8.4,3.2,2.4,3.8,3.2,4.3,4.5.3.2c2.1,3.9,5.1,7.1,8,10.3h-.1c.3.6.3,1.4.7,1.8,2.2,2.6,3.1,5.6,3.9,8.8l-1.6,1.3a72.5,72.5,0,0,0-10-16.7c-9-10.8-20.3-18.3-32.7-24.5a17.5,17.5,0,0,0-3.2-1.2c-3.2-1-4.7-.4-5.6,2.7s-1.1,5.1-1.8,7.7-1.8,6.5-2.7,9.8Z" style="fill: #706578"/>
      <path d="M485.8,153.2c-.9-1.5-.6-3-.3-4.5C486.5,150.1,486,151.6,485.8,153.2Z" style="fill: #d9d0c3"/>
      <path d="M484,164.3a3.8,3.8,0,0,1,1-3.4C485,162.1,485,163.4,484,164.3Z" style="fill: #d9d0c3"/>
      <path d="M422.2,97.1c.9-3.3,1.9-6.5,2.7-9.8s1-5.2,1.8-7.7,2.4-3.7,5.6-2.7a17.5,17.5,0,0,1,3.2,1.2c12.4,6.2,23.7,13.7,32.7,24.5a72.5,72.5,0,0,1,10,16.7c.3,1.5.6,2.9,1,4.3a93.5,93.5,0,0,1,3.7,24.7,76.1,76.1,0,0,1-3.6,23.7,57.5,57.5,0,0,1-15.4,24.7c-9.1,8.9-20,15.3-31.9,19.9l-25.2,9.7a101,101,0,0,0-35,23c-8.9,8.9-16.7,18.5-22.4,29.7a78.2,78.2,0,0,0-3.8,9c-3.1,8.8-1.5,17.2,2.1,25.3a63.2,63.2,0,0,0,8,13.5l-.9,3.3c-.7,2.1-.4,3,1.8,3.7a8.6,8.6,0,0,1,5.5,4.5c.6,1.1,1.8,1.8,2.5,2.7a4.8,4.8,0,0,1,0,1.2c-.3,3.1.4,3.8,3.4,2.5a3.3,3.3,0,0,1,4.3.9c1.4,1.6,2.7,3.3,4.2,4.9a8.3,8.3,0,0,0,3,2.3c2.1.6,3.1,2.1,4.2,3.8,2.9,5.2,3,5.2-2.9,5.9-3.1.3-6.2.3-8.9-1.8a4.4,4.4,0,0,0-3.2-.4c-2.5.6-5.2,1-6.6,3.5l-6.4.3a6.3,6.3,0,0,1-2.7-3.6c-.7-2.6-2.5-3.6-5.1-3.7a14.7,14.7,0,0,1-3.4-.7c-1.1-3.1-3.5-4.6-6.6-5.2l.3-.3a29.2,29.2,0,0,0,2.1-2.8,3.2,3.2,0,0,0-.7-4.3c-1.1-1-2.3-1.9-3.5-2.8l-.3-1.8c.8-.2,1.7-.4,1.5-1.4s-.2-2.8-1.6-3.5c-.4-3.4-.9-6.8-1.2-10.2-.6-6.1-.9-12.1-1.5-18.1s-1.2-10.8-1.8-16.1a10.5,10.5,0,0,0-.5-1.9,2.5,2.5,0,0,0-3.7-1.3c-3.3,1.9-5.6,4.6-6,8.5a67.7,67.7,0,0,0,0,7.8c.6,10.3,1.1,20.6,1.7,30.9a14.6,14.6,0,0,1-.2,2.9,7.7,7.7,0,0,1-.7,1.6,3.7,3.7,0,0,1-3.6-1.5,52,52,0,0,1-5.5-6.9c-3.5-5.4-5.4-11.5-6.7-17.8-.9-4.3-1.4-8.7-2.2-13.1a56.2,56.2,0,0,0-1.6-7.1,2.2,2.2,0,0,0-3.6-.8c-3.6,3.8-6.5,7.8-6.9,13.2a26.3,26.3,0,0,0,.9,9.7,87.3,87.3,0,0,1,3.2,23.3c0,2.5-.2,4.9-.4,7.4a10.8,10.8,0,0,1-.8,1.9,5.4,5.4,0,0,1-1.3,0,5.2,5.2,0,0,1-1.3-.6,21.8,21.8,0,0,1-8.3-11.3c-1-2.9-1.9-5.9-2.9-8.8-.2-4.9-.4-9.7-.7-14.5a10.9,10.9,0,0,0-4.7-9.1c-2.1-1.6-2.5-1.6-4.5-.2s-2.9,2.5-5,2.2h-1.3l-1.2,1.7c0,.6.1,1.1.1,1.6,0,2.4-.2,4.9-.1,7.3.3,5.2.7,10.5,1.1,15.7.2,2.9.6,5.9,1,8.8.4,4.4.9,8.8,1.4,13.1-1.4-.2-2.9-.9-4,.7s-.7,3.1.1,4.6,1.4,2.6,2.2,3.9c7.4,12.1,11.8,25.5,15.1,39.2,1.5,6.4,2.8,12.8,4.2,19.3a58.5,58.5,0,0,0,9.6,21.8c2.8,4.1,5.6,8.2,8.4,12.1,1.4,1.9,3,3.6,4.4,5.4a3.2,3.2,0,0,0,4,.8,13.8,13.8,0,0,0,3.3-2c2.1-1.8,3-4.2,3.7-6.8a73.6,73.6,0,0,0,2.2-17.5c0-5.8,1.8-11,4.2-16,1.5-3.1,3.5-6,6.8-7.5,2.8,3.1,5.1,6.3,4.7,10.8-.2,2.8.3,3.3,3.2,4s3,.3,3.6,2.2-1.6,2.4-1.7,3.8c-.5,3.8-1.9,7.7.2,11.5a4,4,0,0,1,.2,1.9,10.8,10.8,0,0,0,1.9,8.3c1.6,2.3,1.4,4.9-.6,7.2a7.4,7.4,0,0,0-1.8,2.9,4.2,4.2,0,0,1-3.6,3.5,7,7,0,0,0-1.9.6c-1.3.7-2.5,1.8-2,3.5s-.3,3.8-1.4,5.4l-4.9,6.9a7.3,7.3,0,0,0-5.6.1,23,23,0,0,1-8.3-3.7c.9-1.5.9-2.3,0-2.7l-3.6-1.3a14.7,14.7,0,0,1-.6-1.4,7.4,7.4,0,0,0-4.8-5.7c-3.5-1.4-7-2.5-10.6-3.6-.8-.2-1.9.4-2.8.6a57.1,57.1,0,0,1-11.2-10.2c-12.3-14-20.6-30.2-26-48.1a162.1,162.1,0,0,1-5.4-23.9,104.6,104.6,0,0,1-.4-25c.7-7.7,1.7-15.3,2.9-22.9s2.2-18.2,2.7-27.4a48.8,48.8,0,0,0-2.9-19.3,32.4,32.4,0,0,0-7.5-12.1,19.3,19.3,0,0,0-11.6-5.8,43.4,43.4,0,0,0-21.7,2.7,59.8,59.8,0,0,0-21.3,13.8,112.9,112.9,0,0,0-19,25.5,70.5,70.5,0,0,0-8.5,26.5c-1,8.2-.7,16.4-.9,24.6-.2,10.3-.8,20.6-3.5,30.7a60.4,60.4,0,0,1-17.5,29.1,74.8,74.8,0,0,1-29.1,16.9,52.4,52.4,0,0,1-25.2,1.5l-2-.2c-11.8-.7-22.3-5.3-32.4-10.9a83,83,0,0,1-21-16A143.3,143.3,0,0,1,9.8,389.4,77.3,77.3,0,0,1,1.5,370c-2-7.6-1.2-15,.9-22.3,3.4-12,10.2-21.6,19.7-29.4a144.5,144.5,0,0,1,11.8-8.8c7.2-4.8,15.3-7.3,23.7-9.3l29.6-6.9A39.9,39.9,0,0,0,105.4,283c6.3-5.9,7.5-14.2,3.2-21.5-3-5.2-7.2-8.9-13.2-10.4a19,19,0,0,0-6.3-.5,36.7,36.7,0,0,0-15.3,4.9c-4.9,2.8-10,5.5-15.1,8.2A39.7,39.7,0,0,1,46,267.5a20.8,20.8,0,0,1-11-1.4l-3.2-1.3c-1.1-.7-2.3-1.3-2.8-2.6a9.5,9.5,0,0,0-1-1.7c-4.9-7.2-5.5-14.8-2.4-22.9a13.4,13.4,0,0,1,.7-1.8c0-.2.2-.3.6-.7a10.4,10.4,0,0,1,2.4-.6c12.3-.2,24.6-.6,36.8-.6,6.7.1,13.4,1,20.1,1.4l29.4,1.8c8.5.7,17,1.4,25.5,2.4a172.4,172.4,0,0,0,31.3,1.5,84.4,84.4,0,0,1,13.3.2c8,.6,16,0,24,.4a48.9,48.9,0,0,1,5.4.3,58.3,58.3,0,0,0,13.2.2c1.7-.2,3.3-.4,4.9.4s4,.2,5.2-1.9l.8-1.3,1.4-.3c1.3-.1,1.3-.1.8-1.6,1.1-4.3.5-8.9,2.3-13,.4-.8,0-1.9,0-2.9l-.3-13.1c0-1.5-.1-3-.2-4.4s-.5-5.5-.5-8.3c0-4.7.2-9.4.3-14.1a3.4,3.4,0,0,0-.1-1,12.4,12.4,0,0,1,.5-7.7c-.7-2-1.8-3.7-1.8-5.4,0-5.6-.5-11.3.4-17,.3-1.4.3-2.9.5-4.4s.9-1.4-.8-2.1l.3-2.9c1.6-1.5,1.4-3.5,1.2-5.3s-1-1.1-1.5-1.6.1-1.3.2-2a2.3,2.3,0,0,0,2.1-2.3,75.8,75.8,0,0,0,.3-8.3,4.6,4.6,0,0,1,.7-3.2c1.6-1.7,1.6-3.8,1.4-6a19.4,19.4,0,0,1,2.2-10.3c1.1-2.2,1.8-4.2,1.3-6.5a4.3,4.3,0,0,1,.6-3.7,9.1,9.1,0,0,0,1.9-7.8,7.7,7.7,0,0,1,.2-1.5,12.4,12.4,0,0,0-1-7.1,7,7,0,0,1-.7-5.3c.5-1.4.3-2.9.6-4.2.9-3.8,1.8-7.7,5.5-10a10,10,0,0,0,4.7-6.1,8.8,8.8,0,0,1,3.6-5.1,45,45,0,0,1,6.5-4.2c4.2-1.8,8.6-3.2,13.4-2.1,1.4.4,3,.7,3.5,2.3s-.6,2.7-1.8,3.7l-.4.2c-4.5-2.5-8.5-1-12.2,1.9a20.9,20.9,0,0,0-2.2,2c-1.6,1.5-3,3.3-4.8,4.7s-5.6,5.4-6,9.6l-.9,1.5c.9,1.9.3,4,.4,5.9s-.4,2.4.4,3.4a108.8,108.8,0,0,0-1.7,18.1c-.1,10.8,1.4,21.5,2.9,32.2a174.5,174.5,0,0,0,7.4,29.5,28.2,28.2,0,0,0,7.1,11.7,8.5,8.5,0,0,0,12.6-.3,22.7,22.7,0,0,0,2.9-4,40.9,40.9,0,0,0,4.4-14c1.2-10.6,2.4-21.2.3-31.8-.1-.5-.1-1-.2-1.5-1.5-11.7-2-23.5-2.4-35.3l-.6-17.1c1.2-.2,2.2-.6,2.3-2.1a2.4,2.4,0,0,0-1.3-2.4,8.8,8.8,0,0,0-2.3-.7l-3.9-8.9c5.7.1,5.7.1,6.9,5.3l6.7,1.4a1.8,1.8,0,0,0,2.4-1.8c0-.8-.2-1.6-.2-2.4s-.2-2.4.3-3.3a22.9,22.9,0,0,0,1.3-7.3c.3-3.7,2.8-6.1,5.1-8.6.2-.3.9-.3,1.4-.4s.6,1.9.8,2.9a94.8,94.8,0,0,1-.4,33.6,129.1,129.1,0,0,0-.3,50.7c1.8,9,4.7,17.6,9.9,25.4,8.7,13,25.2,18.7,39.6,13,2-.6,4.1-1,6.1-1.8A76.9,76.9,0,0,0,386,143.4c4.1-3.2,8.2-6.5,12.1-10a91.2,91.2,0,0,0,21.4-27.9C420.8,102.9,421.3,99.9,422.2,97.1ZM195.7,256h0c-.5-1.2-1.2-1.4-2.2-.6l-1.8.4-2.2.2-1.9.3a2.9,2.9,0,0,0-3.1.3h-2.8l-2.8-.6-16.2-1.5c-8.8-.8-17.6-1.6-26.4-2.6-6.5-.8-13-1.9-19.4-2.9l-1.5-.2a2.2,2.2,0,0,0-2.3,2.6,17.3,17.3,0,0,0,1.4,4.2c1.4,3.1,3.1,6.1,4.4,9.2a58.2,58.2,0,0,1,3,8.9c1.1,4.5-.9,8.3-3.2,11.9-.3.4-.7.9-1.1,1-3.8,1.1-5.5,4.4-7.6,7.3-5.4,7.9-12.6,13.6-21,18.2a12.3,12.3,0,0,1-11.2.5c-3-1.3-6.2-2.4-9.3-3.4-9.2-3.1-16.6.4-23.4,6.3a5.2,5.2,0,0,0-1,1.1c-1.6,2.3-1.5,4.3.4,6.2a23.5,23.5,0,0,0,4.7,3.6c1.7,1,3.5,1.6,5.3,2.5,5,2.3,7.9,6.2,9.5,11.3a7.8,7.8,0,0,1-1.2,7.5c-2,2.4-4,4.7-6.1,7s-5.7,3.1-9,1.6a41.4,41.4,0,0,1-6.9-3.7,9.9,9.9,0,0,0-11.6-.2,71.3,71.3,0,0,0-9.8,7.3c-5.2,4.8-7.3,10.8-4.7,17.8a59.5,59.5,0,0,0,7.6,14.3c3.5,4.8,8.5,7.1,14.1,8.2a10.3,10.3,0,0,0,1.8-.1c.3-.4.6-.6.7-.9s.6-2.9.8-4.4a42.1,42.1,0,0,1,2.4-10.5,26.5,26.5,0,0,1,9.4-12.3c2.7-2.2,6.7-1.4,8.8,1a10.3,10.3,0,0,1,2.5,6.7,22.5,22.5,0,0,1-1.6,7.7c-.8,2.5-1.5,5-1,7.7s.5,4.2,1.3,6.1a39.9,39.9,0,0,0,8.9,13.3,33.8,33.8,0,0,0,20.1,9.3,39.3,39.3,0,0,0,21-3.4c4.1-.8,7.4-3.2,10.7-5.7,4.8-3.6,5.5-8.7,4.3-14.1a7.6,7.6,0,0,0-6.6-6.4l-3.4-.5L98,391.2c-6.6-.8-10.4-5.1-9.8-11.7a26.1,26.1,0,0,1,7.3-16.2l4-3.7a21.8,21.8,0,0,1,13.6,3.1c2.9,1.8,5.8,3.7,9.3,4.3l3.6,1.4,1.3.5a10.5,10.5,0,0,0,5.8.6l1.3-.4c6.5-1.9,10.4-6.4,10.9-12.8s0-9.9-2.5-14.3a72.5,72.5,0,0,0-4.8-8.6,40.5,40.5,0,0,1-6.2-12.7,21,21,0,0,1,1.7-17.5,69.9,69.9,0,0,1,7.4-10.4A101.1,101.1,0,0,1,159,277c6.6-4.5,13.6-8.5,20.6-12.4,1.7-.9,3.7-1.4,4.6-3.4l2.1-1h-.1a6.6,6.6,0,0,1,4.5-1.2h3.4c1.1.6,1.8.4,2.2-.9a3.6,3.6,0,0,0,.2-1.1Zm185.7-56.4a70,70,0,0,1-24.7,5.2l-3.9.3a1.7,1.7,0,0,0-1.5,1.7,1.4,1.4,0,0,0,1.5,1.5c3.3-.1,6.5-.2,9.8-.5s7.7-.9,11.6-1.6a5.9,5.9,0,0,1,6.1,1.8l4.7-1.9a53.6,53.6,0,0,1,12,.4,19.2,19.2,0,0,0,8.6-.2h2.1l1.9-.3a6.6,6.6,0,0,0,2.4.1c4-1,8-1.9,11.8-3.2a70.5,70.5,0,0,0,23.6-14.7,33.6,33.6,0,0,0,8.3-10.8l.8-1.3a25.3,25.3,0,0,0,7.3-15.7c.2-1.6.5-3.1.7-4.7,1-4.3.3-8.7,0-13,0-.3-.3-.6-.4-.9,0-5-2.2-9.5-3.9-14a21.9,21.9,0,0,0-10.9-12.6l-2.6-1.5a16.4,16.4,0,0,0-6.1-3.6l-2.4-1.1c-1.6-1.4-3.4-2.5-5.7-1.6a7.9,7.9,0,0,1-.9,2.3c-1.5,1.8-1,3.6-.4,5.5a49.4,49.4,0,0,1,1.6,24.7c-.5,2.3-1.2,4.4-1.7,6.7a31.8,31.8,0,0,1-6.7,13.5c-3.3,4-6.8,7.9-10.3,11.7-7.6,8.2-15.3,16.2-24.2,22.9Zm-60.8,48.1c0-2.2,0-3.8-.1-5.4-.3-5.8-1.8-11.3-3.2-16.9a41.8,41.8,0,0,0-8.8-16.8c-3.2-3.7-7.2-5.7-12.1-5.4a43,43,0,0,0-7.2,1c-4.5,1.1-8.8,2.7-13.4,3.4s-8.7,2.6-13.1,3.8a5.1,5.1,0,0,0-3.8,5.7c.2,3,.4,6.2.8,9.2a13.5,13.5,0,0,1,0,4.9c-3.1,15,.8,28.1,11.1,39.4a49.5,49.5,0,0,0,10.9,8.4,13.5,13.5,0,0,0,11.3,1.1,31.6,31.6,0,0,0,11.4-6.6c3.6-3.4,7.1-6.8,9.6-11.1s3.3-6,4.8-9.2S320.1,249.3,320.6,247.7ZM49.7,257.1h2.1c3.9-.5,5.8-3,5.1-6.8a41.1,41.1,0,0,0-1.7-5.7,6.8,6.8,0,0,0-3-3.7l-2.8-2c-1.5-1-2.8-.9-3.8.5a19.6,19.6,0,0,0-3.5,9.6C41.7,253.6,44.7,256.7,49.7,257.1Zm209-191.5-.7-.5s-.3.2-.3.3l.4.6Z" style="fill: #d9d0c3"/>
      <path d="M321.4,482.9a7.3,7.3,0,0,1,5.6-.1l4.9-6.9c1.1-1.6,2.1-3.2,1.4-5.4s.7-2.8,2-3.5a7,7,0,0,1,1.9-.6,4.2,4.2,0,0,0,3.6-3.5,7.4,7.4,0,0,1,1.8-2.9c2-2.3,2.2-4.9.6-7.2a10.8,10.8,0,0,1-1.9-8.3,4,4,0,0,0-.2-1.9c-2.1-3.8-.7-7.7-.2-11.5.1-1.4,1.2-2.6,1.7-3.8s-2.2-1.9-3.6-2.2-3.4-1.2-3.2-4c.4-4.5-1.9-7.7-4.7-10.8a9.1,9.1,0,0,1,9.8,1.2,17.3,17.3,0,0,1,6.1,8.6,57.4,57.4,0,0,1,2.5,23.3,64.9,64.9,0,0,0-.1,10.8,21,21,0,0,0,9,16.1c5.5,4.1,11.5,4.3,17.7,2.2,3.7-1.3,5.2-5.2,4-8.9-.3-.9-.8-1.8-1.2-2.7a23.5,23.5,0,0,1-1.1-16.3,8.4,8.4,0,0,1,4.4-5.6,12.8,12.8,0,0,1,6.6-1.5,14.8,14.8,0,0,1,9,3.7c2.8,2.7,5.6,5.5,8.3,8.4,6.8,7.2,14.9,10.9,25,9.8,6.3-.7,10.7-3.4,13.2-9.4,4.2-10.1,6-20.5,3-31.2a143,143,0,0,0-4.8-14.4,29.8,29.8,0,0,0-10.1-13.6q-2.8-2.1-5.7-3.9a95.9,95.9,0,0,0-21.9-8.6c-5.5-1.6-11.1-2.9-16.7-4.2-9.7-2.4-19.4-4.6-29.1-6.9-2.7-.7-5.4-1.3-8.1-2.2-6.8-2.4-11.4-6.9-13-14.1,3.1.6,5.5,2.1,6.6,5.2a14.7,14.7,0,0,0,3.4.7c2.6.1,4.4,1.1,5.1,3.7a6.3,6.3,0,0,0,2.7,3.6l6.4-.3c1.4-2.5,4.1-2.9,6.6-3.5a4.4,4.4,0,0,1,3.2.4c2.7,2.1,5.8,2.1,8.9,1.8,5.9-.7,5.8-.7,2.9-5.9-1.1-1.7-2.1-3.2-4.2-3.8a8.3,8.3,0,0,1-3-2.3c-1.5-1.6-2.8-3.3-4.2-4.9a3.3,3.3,0,0,0-4.3-.9c-3,1.3-3.7.6-3.4-2.5a4.8,4.8,0,0,0,0-1.2c-.7-.9-1.9-1.6-2.5-2.7a8.6,8.6,0,0,0-5.5-4.5c-2.2-.7-2.5-1.6-1.8-3.7l.9-3.3c7.1,7.3,15.3,13,24,18.1l35,20c14.6,8.3,29.6,16.2,43.7,25.5a79.6,79.6,0,0,1,18.1,15.7,40,40,0,0,1,7,13.4c3.2,11,1.1,21-5.8,30.1a76.1,76.1,0,0,1-20,17.9c-8.1,5.2-16.7,9.1-25.3,13A153.5,153.5,0,0,1,384.6,493a143.4,143.4,0,0,1-31.4-.7A116.7,116.7,0,0,1,323,484Zm37.9-6.4-3.7-3c-5.7,1-6.1,1.2-9.2,4.1.9,2.8.9,3.2,2.7,4.4s5.2,3.3,7.7,5a8.2,8.2,0,0,0,6.1,1.3,12.4,12.4,0,0,1,4.3-.1c2.6.3,4.1-.7,4.9-3.1s.5-1.8.8-2.9c-3.5-2-7-3.7-9.3-7.1Zm-20.4-59.9c-.3.2-.9.4-1,.8s1.1,3.5,2.4,3.6a1.9,1.9,0,0,0,1.1-.7A3.1,3.1,0,0,0,338.9,416.6Z" style="fill: #ded4c6"/>
      <path d="M290.7,465.1c.9-.2,2-.8,2.8-.6,3.6,1.1,7.1,2.2,10.6,3.6a7.4,7.4,0,0,1,4.8,5.7,14.7,14.7,0,0,0,.6,1.4l3.6,1.3c.9.4.9,1.2,0,2.7C305.1,475.4,297.4,471,290.7,465.1Z" style="fill: #ded4c6"/>
      <path d="M286.5,44.7l.4-.2c1.2-1,2.3-2.1,1.8-3.7s-2.1-1.9-3.5-2.3c-4.8-1.1-9.2.3-13.4,2.1a45,45,0,0,0-6.5,4.2,8.8,8.8,0,0,0-3.6,5.1A10,10,0,0,1,257,56c-3.7,2.3-4.6,6.2-5.5,10-.3,1.3-.1,2.8-.6,4.2a7,7,0,0,0,.7,5.3,12.4,12.4,0,0,1,1,7.1,7.7,7.7,0,0,0-.2,1.5,9.1,9.1,0,0,1-1.9,7.8,4.3,4.3,0,0,0-.6,3.7c.5,2.3-.2,4.3-1.3,6.5a19.4,19.4,0,0,0-2.2,10.3c.2,2.2.2,4.3-1.4,6a4.6,4.6,0,0,0-.7,3.2,75.8,75.8,0,0,1-.3,8.3,2.3,2.3,0,0,1-2.1,2.3l-2.1-1.3c-1.5-1.3-1.7-2.2-.8-3.8s1.2-2,1.7-3a7.7,7.7,0,0,0,.1-7.5,6.7,6.7,0,0,1-.2-6,6.9,6.9,0,0,0,.2-2.9c.1-1.9-.1-3.9.1-5.8s.5-5.5.8-8.3l2.3.9c1.8.7,3.1-.1,4-1.8-.7-1.6-1.6-2.8-3.6-2.4l-2.5.4c-.3-3.8-.6-7.7-1-11.5-.3-2.1-.5-4.1.4-6.1s0-2.4-1.5-3.1a10.5,10.5,0,0,0-1.9-.5c.1-.9.3-1.9.4-2.9,2-3,1.7-6.4,1.4-9.7-.1-.5-1-.8-1.5-1.2.9-2.8,1.7-5.7,2.6-8.5l1.2-3c.7-1.8,1.5-3.5,2.3-5.3l3.7-5.5c2.9-4.5,5.7-9,10.1-12.3a11.2,11.2,0,0,0,3.1-1c1.3-.8,2.3-1.8,3.5-2.7s4.7-4.6,8.5-4.1c.4.1.9-.3,1.3-.5a4.2,4.2,0,0,1,3.8-.1,5.1,5.1,0,0,0,3.2.2c3.5-1.6,6.6-.9,10,.2a10.7,10.7,0,0,0,5.3.5c2.9-.6,4.6.6,6.3,3-1.8,2.3-1.7,5-1.5,7.8,0,.3-.1.6-.1.9s-.2,2.2,1.1,2.3,1.4-.7,1.8-1.3a4.6,4.6,0,0,0,1.1-2.2c.2-2.6,1.8-3.7,4-4.2A30.4,30.4,0,0,1,312.6,30c-.5.1-1.2.1-1.4.4-2.3,2.5-4.8,4.9-5.1,8.6a22.9,22.9,0,0,1-1.3,7.3c-.5.9-.3,2.2-.3,3.3s.2,1.6.2,2.4a1.8,1.8,0,0,1-2.4,1.8l-6.7-1.4c-1.2-5.2-1.2-5.2-6.9-5.3Z" style="fill: #d5cbbe"/>
      <path d="M237.9,69.5a10.5,10.5,0,0,1,1.9.5c1.5.7,2.1,1.6,1.5,3.1s-.7,4-.4,6.1c.4,3.8.7,7.7,1,11.5a26.4,26.4,0,0,1-.2,2.9c-.3,2.8-.7,5.5-.8,8.3s0,3.9-.1,5.8a6.9,6.9,0,0,1-.2,2.9,6.7,6.7,0,0,0,.2,6,7.7,7.7,0,0,1-.1,7.5c-.5,1-1.1,2-1.7,3s-.7,2.5.8,3.8l2.1,1.3c-.1.7-.1,1.3-.2,2s-.4,2.8-.4,4.2a13.4,13.4,0,0,0,.7,2.7l-.3,2.9.8,2.1c-.2,1.5-.2,3-.5,4.4-.9,5.7-.4,11.4-.4,17,0,1.7,1.1,3.4,1.8,5.4a12.4,12.4,0,0,0-.5,7.7,3.4,3.4,0,0,1,.1,1c-.1,4.7-.3,9.4-.3,14.1,0,2.8.4,5.5.5,8.3s.2,2.9.2,4.4l.3,13.1c0,1,.4,2.1,0,2.9-1.8,4.1-1.2,8.7-2.3,13-2.5-.6-3.4-2.5-3.4-4.8s.4-6.8.6-10.2c.1-1.3.5-2.7.2-3.9-1.7-7.3-1.5-14.7-1.9-22-.4-5.2-.5-10.4-.5-15.7a123.2,123.2,0,0,0-1.4-17.1c-.5-3.2-.7-6.5-.9-9.8-.6-9.3-1-18.6-1.5-27.9-.9-14.6-1.2-29.1.3-43.7.3-3.1.4-6.2.7-9.3.1-1.1.5-2.2.7-3.3Z" style="fill: #c3bbb2"/>
      <path d="M90.1,231.6c.2-1,.7-1.8,1.8-1.9a54.3,54.3,0,0,1,15.6.4c2.1.3,4.3.8,5.3,3.1-3.1.8-6.2,0-9.2-.2Z" style="fill: #cfc6b9"/>
      <path d="M204.5,236c3-1.8,6.5-1.5,9.8-1.6s4.5.7,6.7,1c-.3,1.1-.7,2.1-1,3.2l-3.1.2-9.6-.8C206,237.9,204.8,237.6,204.5,236Z" style="fill: #d5cbbe"/>
      <path d="M238.2,55.7c.5.4,1.4.7,1.5,1.2.3,3.3.6,6.7-1.4,9.7C235.6,63,236.3,59.4,238.2,55.7Z" style="fill: #c3bbb2"/>
      <path d="M230.3,234.4l-.6-4.2c1.3-1.6,2.8-.9,4.2-.9a17.6,17.6,0,0,1,0,2.3C233.6,234.2,233.3,234.4,230.3,234.4Z" style="fill: #d5cbbe"/>
      <path d="M242,44.2l-1.2,3-2.7-.4a6,6,0,0,1,2-4.2Z" style="fill: #706578"/>
      <path d="M78.1,231a2.5,2.5,0,0,1,2.7-1.5,2.6,2.6,0,0,1,2.5,1.8A7.2,7.2,0,0,1,78.1,231Z" style="fill: #cfc6b9"/>
      <path d="M235.2,47.6l1.9.9-1.5,3.1C234.9,49.9,234.9,49.9,235.2,47.6Z" style="fill: #706578"/>
      <path d="M22.9,230.8c1.3-2.1,1.7-2.1,3.2-.1Z" style="fill: #cfc6b9"/>
      <path d="M239.2,239.3l-.8,1.3Z" style="fill: #c3bbb2"/>
      <path d="M259.3,522.3c-1.6-.1-3.3-.7-4.6.8-2.5-1.3-2.1-3.3-1.4-5.4.9-.4,1.1-1,.4-1.9s.3-1.3.4-1.9c1.6-.8,1.7-1,.2-2.1a6.8,6.8,0,0,1,1-5.7c2.1-.6,3.4-1.7,3.5-4.1s.4-4.9.7-7.3a3.7,3.7,0,0,0-.9-3.2c.1-1.1.1-2.3.3-3.4s2-2.9,4-1.9,2.7,2,4.1,3,.1,3.2.2,5.2c-5.1,2.1-5.4,6.9-6.3,11.8l3.5.6.8.5a6.6,6.6,0,0,1-4,5.6,36.2,36.2,0,0,0-3.3,2c-.7,2.3,1.1,3.7,1.9,5.4A11.7,11.7,0,0,0,259.3,522.3Z" style="fill: #5d536c"/>
      <path d="M164.7,488.3l-.5.6-.4-.6a.5.5,0,0,1,.3-.3Z" style="fill: #5d536c"/>
      <path d="M287.3,531l3.4.4C289.2,532.6,288.8,532.6,287.3,531Z" style="fill: #706578"/>
      <path d="M290.8,531.4a2,2,0,0,1,1-2.1C292.4,530.4,292.1,531.2,290.8,531.4Z" style="fill: #706578"/>
      <path d="M204.9,501a6.3,6.3,0,0,1,.9,1.4,5.6,5.6,0,0,1-.4,1.2c-.3-.3-.7-.6-.8-1A3.6,3.6,0,0,1,204.9,501Z" style="fill: #5d536c"/>
      <path d="M253.7,515.8c.7.9.5,1.5-.4,1.9S253.6,516.5,253.7,515.8Z" style="fill: #706578"/>
      <path d="M254.3,511.8c1.5,1.1,1.4,1.3-.2,2.1C254.2,513.2,254.2,512.5,254.3,511.8Z" style="fill: #706578"/>
      <path d="M258.1,21.1c-4.4,3.3-7.2,7.8-10.1,12.3l-3.7,5.5-1.4-1.5a23.2,23.2,0,0,1,1.6-3.6c5.2-7.8,10.8-15.2,18.4-20.9a91.7,91.7,0,0,1,14.5-9.3,24.9,24.9,0,0,1,20-1.5,15.5,15.5,0,0,0,2.3.6l3.4,1.4-.2.3a58.3,58.3,0,0,1,8.2,11,18,18,0,0,0,.8,2.1c.7,2,1.5,4.1,2.2,6.2l.6,2.1c.2.9.5,1.9.7,2.9l.9,4.1a11,11,0,0,0,.2,1.8c.1,1.4.2,2.7.4,4.1a12.8,12.8,0,0,0,.1,1.9c.1,1.3.3,2.7.4,4v3.9c-.3,3.6-.4,7.2-.9,10.8-.9,6.1-2,12.2-2.9,18.4a86.3,86.3,0,0,0-.6,19c.1,1,.1,1.9.2,2.8a30.6,30.6,0,0,0,.9,10l.3,2.1c.1,1.1-.2,2.3,1,3.1h-.1a6.4,6.4,0,0,0,.7,4.9c.2,1,.5,2,.8,3a17.2,17.2,0,0,0,.7,2.1,40.1,40.1,0,0,0,7.2,16c7.9,11.2,18.7,15.8,32.3,14l3.8-.6,1.4,1.5c-14.4,5.7-30.9,0-39.6-13-5.2-7.8-8.1-16.4-9.9-25.4a129.1,129.1,0,0,1,.3-50.7,94.8,94.8,0,0,0,.4-33.6c-.2-1-.6-1.9-.8-2.9a30.4,30.4,0,0,0-3.1-10.1l-.6-1.9-.6-1.1-4.2-6.5A11.1,11.1,0,0,0,299,6.1c-6.4-2.8-13-3.5-19.5-.6a65.9,65.9,0,0,0-20.2,13.6A5.1,5.1,0,0,0,258.1,21.1Z" style="fill: #706578"/>
      <path d="M362.2,155.6l-1.4-1.5a22.5,22.5,0,0,1,2.1-1.2c18.5-6.7,32.8-18.9,45.1-33.8a70.5,70.5,0,0,0,10.9-19c.4-1.1,1-2.1,1.4-3.2l1.9.2c-.9,2.8-1.4,5.8-2.7,8.4a91.2,91.2,0,0,1-21.4,27.9c-3.9,3.5-8,6.8-12.1,10a76.9,76.9,0,0,1-17.7,10.4C366.3,154.6,364.2,155,362.2,155.6Z" style="fill: #7d7285"/>
      <path d="M313,96.7a86.3,86.3,0,0,1,.6-19c.9-6.2,2-12.3,2.9-18.4.5-3.6.6-7.2.9-10.8a2.3,2.3,0,0,1,1.4,2.4c-.7,5.7-.8,11.6-2.2,17.3s-1.3,9.7-1.6,14.5a29.9,29.9,0,0,1-.4,4.3,68.1,68.1,0,0,0-.5,7.8A1.9,1.9,0,0,1,313,96.7Z" style="fill: #d9d0c3"/>
      <path d="M475.3,107.3c-2.9-3.2-5.9-6.4-8-10.3l4.9,1c1,2.2,2,4.1,2.8,6A17.6,17.6,0,0,1,475.3,107.3Z" style="fill: #ded4c6"/>
      <path d="M314.1,109.5a30.6,30.6,0,0,1-.9-10c.5.5,1.4,1,1.5,1.6a34.9,34.9,0,0,1,.5,6.5C315.2,108.2,314.5,108.9,314.1,109.5Z" style="fill: #d9d0c3"/>
      <path d="M328.3,64.2c.3.1.7.2.7.5s0,1.9-.7,1.9a1.2,1.2,0,0,1-.7-.5C327.2,65.2,327.6,64.3,328.3,64.2Z" style="fill: #d9d0c3"/>
      <path d="M316,119.6a6.4,6.4,0,0,1-.7-4.9C317.6,116.9,317.7,117.5,316,119.6Z" style="fill: #d9d0c3"/>
      <path d="M316.9,38.7c-.2-1.4-.3-2.7-.4-4.1C318.6,36,318.6,36.6,316.9,38.7Z" style="fill: #d9d0c3"/>
      <path d="M317.4,44.6c-.1-1.3-.3-2.7-.4-4C319,42,319,42.5,317.4,44.6Z" style="fill: #d9d0c3"/>
      <path d="M316.3,32.8l-.9-4.1C317.6,30.4,317.8,31,316.3,32.8Z" style="fill: #d9d0c3"/>
      <path d="M311.9,17.5a18,18,0,0,1-.8-2.1C313.1,16,313.1,16,311.9,17.5Z" style="fill: #d9d0c3"/>
      <path d="M314.7,25.8l-.6-2.1,1.6.7Z" style="fill: #d9d0c3"/>
      <path d="M317.5,124.7a17.2,17.2,0,0,1-.7-2.1C318.6,123.3,318.6,123.5,317.5,124.7Z" style="fill: #d9d0c3"/>
      <path d="M315.4,114.7c-1.2-.8-.9-2-1-3.1C315.8,112.3,315.8,113.4,315.4,114.7Z" style="fill: #d9d0c3"/>
      <path d="M337.9,350.9c1.6,7.2,6.2,11.7,13,14.1,2.7.9,5.4,1.5,8.1,2.2,9.7,2.3,19.4,4.5,29.1,6.9,5.6,1.3,11.2,2.6,16.7,4.2a95.9,95.9,0,0,1,21.9,8.6q2.9,1.8,5.7,3.9a29.8,29.8,0,0,1,10.1,13.6,143,143,0,0,1,4.8,14.4c3,10.7,1.2,21.1-3,31.2-2.5,6-6.9,8.7-13.2,9.4-10.1,1.1-18.2-2.6-25-9.8-2.7-2.9-5.5-5.7-8.3-8.4a14.8,14.8,0,0,0-9-3.7,12.8,12.8,0,0,0-6.6,1.5,8.4,8.4,0,0,0-4.4,5.6,23.5,23.5,0,0,0,1.1,16.3c.4.9.9,1.8,1.2,2.7,1.2,3.7-.3,7.6-4,8.9-6.2,2.1-12.2,1.9-17.7-2.2a21,21,0,0,1-9-16.1,64.9,64.9,0,0,1,.1-10.8,57.4,57.4,0,0,0-2.5-23.3,17.3,17.3,0,0,0-6.1-8.6,9.1,9.1,0,0,0-9.8-1.2c-3.3,1.5-5.3,4.4-6.8,7.5-2.4,5-4.2,10.2-4.2,16a73.6,73.6,0,0,1-2.2,17.5c-.7,2.6-1.6,5-3.7,6.8a13.8,13.8,0,0,1-3.3,2,3.2,3.2,0,0,1-4-.8c-1.4-1.8-3-3.5-4.4-5.4-2.8-3.9-5.6-8-8.4-12.1a58.5,58.5,0,0,1-9.6-21.8c-1.4-6.5-2.7-12.9-4.2-19.3-3.3-13.7-7.7-27.1-15.1-39.2-.8-1.3-1.5-2.6-2.2-3.9s-1.2-3-.1-4.6,2.6-.9,4-.7a17.7,17.7,0,0,1,.6,1.7c.4,1.7,1.5,1.7,2.8,1.3,1.1,2.1-1.3,2.6-2,4.2,1.2,2.2,2.5,4.5,3.6,6.9a155.2,155.2,0,0,1,9.2,25.8c2.2,9.1,4.3,18.1,6.3,27.2a58.4,58.4,0,0,0,8.8,20.1l9.6,13.7a35.8,35.8,0,0,0,2.6,2.9,2.1,2.1,0,0,0,3.1.1,8.7,8.7,0,0,0,2.3-3.1,32.8,32.8,0,0,0,1.8-6.1,106.7,106.7,0,0,0,1.3-11.2,62.8,62.8,0,0,1,1.9-13.6l3.5-7.5.6-1.8,2.1-2c3-3.6,6.7-5.5,11.6-4.4s10.2,5,12.4,10.8,3.9,13.1,3.6,20.1c-.1,4.3-.2,8.6-.4,12.8-.3,6.9,2.6,12.4,7.5,16.9a13.4,13.4,0,0,0,12.8,3,6.4,6.4,0,0,0,2.6-1.3,3.5,3.5,0,0,0,1.6-4.3c-.3-1.2-.9-2.4-1.3-3.6a27.5,27.5,0,0,1-.5-17.9c1.5-4.9,5.1-7.4,10-8.2s11.3,1.1,15.8,5.1c2.6,2.3,4.8,4.9,7.2,7.4,6.5,6.8,14.1,10.3,23.7,9.1,4.4-.6,7.4-2.7,9.2-6.5a47.1,47.1,0,0,0,3.6-9.7c1.7-7,2.1-14.2-.1-21.3-1.4-4.7-3.2-9.3-4.9-13.9a25,25,0,0,0-4.5-7.5c-4.7-5.8-10.9-9.3-17.7-12-10.5-4.1-21.5-6.8-32.6-9.1-4.8-1-9.5-2.3-14.3-3.3l-19.7-4.3L348,368c-1.6-1.1-3.3-2.1-4.9-3.3a20.5,20.5,0,0,1-6.7-8.1c-1.6-3.2-2.2-6.7-3.3-10.1-.3-5.7-.4-11.5-.9-17.2-.6-8-1.5-15.9-2.3-23.9-.4-3.9-1-7.8-1.6-11.7-.2-.9-.7-1.7-1-2.7a4.5,4.5,0,0,0-3.3,4.2,51.9,51.9,0,0,0-.4,8.8c.3,6.5.9,13,1.4,19.6.3,3.5.6,7.1.7,10.7a53.4,53.4,0,0,1-.5,6.9,1.8,1.8,0,0,1-2.5,1.5,14.6,14.6,0,0,1-3.6-1.6,26.3,26.3,0,0,1-7.2-7.3A51.7,51.7,0,0,1,304,316c-1.3-5.3-2.1-10.6-3.2-15.9-.3-1.4-.3-2.9-1.2-3.9h-.8a2.4,2.4,0,0,0-.8.6c-2.9,2.8-3.8,6.5-3.5,10.3a72.4,72.4,0,0,0,1.7,10.2,95.6,95.6,0,0,1,2.1,29.2,18.7,18.7,0,0,1-.4,2.5c-.4,2.1-1.6,2.9-3.5,1.8a25.5,25.5,0,0,1-6-4.1,28.8,28.8,0,0,1-9.6-22.3l2,1.2c1,2.9,1.9,5.9,2.9,8.8a21.8,21.8,0,0,0,8.3,11.3,5.2,5.2,0,0,0,1.3.6,5.4,5.4,0,0,0,1.3,0,10.8,10.8,0,0,0,.8-1.9c.2-2.5.4-4.9.4-7.4a87.3,87.3,0,0,0-3.2-23.3,26.3,26.3,0,0,1-.9-9.7c.4-5.4,3.3-9.4,6.9-13.2a2.2,2.2,0,0,1,3.6.8,56.2,56.2,0,0,1,1.6,7.1c.8,4.4,1.3,8.8,2.2,13.1,1.3,6.3,3.2,12.4,6.7,17.8a52,52,0,0,0,5.5,6.9,3.7,3.7,0,0,0,3.6,1.5,7.7,7.7,0,0,0,.7-1.6,14.6,14.6,0,0,0,.2-2.9c-.6-10.3-1.1-20.6-1.7-30.9a67.7,67.7,0,0,1,0-7.8c.4-3.9,2.7-6.6,6-8.5a2.5,2.5,0,0,1,3.7,1.3,10.5,10.5,0,0,1,.5,1.9c.6,5.3,1.3,10.7,1.8,16.1s.9,12,1.5,18.1c.3,3.4.8,6.8,1.2,10.2,0,1.6.1,3.2.1,4.9l.3,1.8c.1,1.7-.1,3.5.1,5.2s.5,3.5,2,4.7Z" style="fill: #706578"/>
      <path d="M464.5,155.6c-.2,1.6-.5,3.1-.7,4.7a19.6,19.6,0,0,0-3.4-.1c-1.8.1-2.7.8-2.9,2.6a40.2,40.2,0,0,0-.2,4.9,12.9,12.9,0,0,0-6.2,8.7,10.1,10.1,0,0,0-.7,1.5c-1.8.5-2.1,2.2-2.9,3.6s-3,3.8-5.9,3.4c1-1.3,2.7-2.3,1.6-4.9-2.8,1.7-4.4,4.2-6.5,6.2a8.7,8.7,0,0,0-.9,1.7l2.2.4a2.2,2.2,0,0,1-1.8,2c-1.8.6-3.6,1.6-4.1,3.2s-3.4,4.4-5.6,5.8c-4.4,2.8-9.1,5-14.6,4.5l1.9-1.4a10.1,10.1,0,0,1,6.9-3.1,9.4,9.4,0,0,0,2.2-.7c.4-.1.5-.7,1-1.5a20.4,20.4,0,0,0-3.6.1,3.7,3.7,0,0,1-2.7-.5c-2-1.5-2.1-1.4-4.3.4-2.9-1-2.9-1-1.7-4.4a35.6,35.6,0,0,0,4.9-1.9,51.5,51.5,0,0,0,4.5-3.2c.1-1.8-1.1-2.4-2.1-3.1l6.1-4.6a1.2,1.2,0,0,0,.2-2.1l-3.8,1.5-.3-.4c-.1-.8.8-1.9-1-2.4-1.9,2.5-3.7,5.2-5.6,7.8a2.5,2.5,0,0,0-2.1,1.8c-2.2,0-3.9,1-5.4,3.3l2.4-.3c-.8,1.6-2.2,3.1-2.3,4.7-.1,3.6-1.8,5.3-5.1,6.1a21,21,0,0,0-3,1.5,11.1,11.1,0,0,0-1.7,1.6c1.3.3,2,.7,2.8.6a16.2,16.2,0,0,1,6.2.2c.2.1.6-.2.9-.4l4.7.4-2.3,2.1-1.9.3c-.8-1-1.4-.8-2.1.1a19.2,19.2,0,0,1-8.6.2,53.6,53.6,0,0,0-12-.4,5.4,5.4,0,0,0-1.3-.7,1.8,1.8,0,0,1-1.3-2.2c2.7-1.6,5.4-3.1,8-4.8.7-.5.9-1.6,1.4-2.4,2.6-.4,4.4-2.1,6-4a18.4,18.4,0,0,1,5.2-4.4c1.6-.8,3.5-1.9,4.1-3.3s3.6-4.2,5.7-5.9l3.7-3.3c2.5-2.5,3.8-6.2,7.7-7.1a1.6,1.6,0,0,0,.7-.7c2-3.5,5-6.5,5.6-10.8a27.2,27.2,0,0,1,1.1-3.8c.8-2.7,1.7-5.3,4.3-6.8a3.4,3.4,0,0,0,1.6-2.9c.1-1,.1-2,.1-2.9,0-3.2,0-6.4-.1-9.6,0-1.6.5-3.4-.1-4.8-1-2.9-.8-5.7-.8-8.6v-4.8a3.3,3.3,0,0,1,1.6-3.4l2.4,1.1c1.3,3.4,1.1,7.2,3,11.3a7.4,7.4,0,0,0,.8-2.2c0-2.2.3-4.2,2.3-5.5l2.6,1.5a21.9,21.9,0,0,1,10.9,12.6c1.7,4.5,3.9,9,3.9,14-2.7,3.5-2.9,7.5-1.8,11.6A2.9,2.9,0,0,0,464.5,155.6Zm-62.3,36.5,1.1-.9v-.3l-.2.2-1.1.9-.3.2v.2Zm52.5-42.4c2.1-1.4,2.4-2.4,1.2-4.1a.8.8,0,0,0-.8-.2c-.3,0-.7.3-.7.5s.1,2.5.2,3.7h-.9c-.9,0-1.7.2-1.8,1.2s.7,1.4,1.6,1.4,1.1-.3,1.7-.4S454.8,150.3,454.7,149.7ZM440,147.8a2.9,2.9,0,0,0,.1,3.3c1.7-.1,2-1.2,1.7-2.7a5.7,5.7,0,0,0,1.3-5c-.1-.7,0-1.7-.9-1.6Zm19-15.5c-1.1,4.5-1,4.8,1.6,7.9,1.1-1.1,1-2.3.8-3.6S461.2,133.3,459,132.3Zm-17.2,27.8c-1.6,2.2-2.5,3.6-2.2,5.5,0,.3.5.8.8.9a1.3,1.3,0,0,0,1.2-.4C442.6,164.5,442.7,162.9,441.8,160.1Zm6.1-17.3c1.5-6.4,1.3-7.4-1.6-9.5C446.9,136.5,446.4,139.2,447.9,142.8ZM428,188.7l-3,2.3a7.6,7.6,0,0,0-.7,1.3c1.1,1.2,2.1.7,3,0S429.3,190.7,428,188.7ZM444.9,152a6.9,6.9,0,0,0,.6-5,4.2,4.2,0,0,0-.8-1.2C444.2,147.9,443.1,149.9,444.9,152Zm-9.2,5.1a5.1,5.1,0,0,0,2.9-4,1.7,1.7,0,0,0-.6-1.1,1,1,0,0,0-.9.1A4.7,4.7,0,0,0,435.7,157.1Zm-39.9,40.6a5.1,5.1,0,0,0,4.3-2c.2-.2.1-.8,0-1.2s-.6-.3-.8-.2A6.7,6.7,0,0,0,395.8,197.7Zm52.5-75.8-.4.2c-.1.1-.2.3-.1.4s.5,1.3.8,2l.4-.3c-.1-.7-.1-1.4-.2-2.2Z" style="fill: #2f2e3a"/>
      <path d="M60.2,394.7c-.5-2.7.2-5.2,1-7.7a22.5,22.5,0,0,0,1.6-7.7,10.3,10.3,0,0,0-2.5-6.7c-2.1-2.4-6.1-3.2-8.8-1a26.5,26.5,0,0,0-9.4,12.3,42.1,42.1,0,0,0-2.4,10.5c-.2,1.5-.5,2.9-.8,4.4s-.4.5-.7.9a10.3,10.3,0,0,1-1.8.1c-5.6-1.1-10.6-3.4-14.1-8.2a59.5,59.5,0,0,1-7.6-14.3c-2.6-7-.5-13,4.7-17.8a71.3,71.3,0,0,1,9.8-7.3,9.9,9.9,0,0,1,11.6.2,41.4,41.4,0,0,0,6.9,3.7c3.3,1.5,6.4,1.2,9-1.6s4.1-4.6,6.1-7A7.8,7.8,0,0,0,64,340c-1.6-5.1-4.5-9-9.5-11.3-1.8-.9-3.6-1.5-5.3-2.5a23.5,23.5,0,0,1-4.7-3.6c-1.9-1.9-2-3.9-.4-6.2a5.2,5.2,0,0,1,1-1.1c6.8-5.9,14.2-9.4,23.4-6.3,3.1,1,6.3,2.1,9.3,3.4a12.3,12.3,0,0,0,11.2-.5c8.4-4.6,15.6-10.3,21-18.2,2.1-2.9,3.8-6.2,7.6-7.3.4-.1.8-.6,1.1-1,2.3-3.6,4.3-7.4,3.2-11.9a58.2,58.2,0,0,0-3-8.9c-1.3-3.1-3-6.1-4.4-9.2a17.3,17.3,0,0,1-1.4-4.2,2.2,2.2,0,0,1,2.3-2.6l1.5.2c6.4,1,12.9,2.1,19.4,2.9,8.8,1,17.6,1.8,26.4,2.6l16.2,1.5,2.8.6c.7,1.7.4,3.9,2.5,4.8-.9,2-2.9,2.5-4.6,3.4-7,3.9-14,7.9-20.6,12.4a101.1,101.1,0,0,0-18.1,15.8,69.9,69.9,0,0,0-7.4,10.4,21,21,0,0,0-1.7,17.5,40.5,40.5,0,0,0,6.2,12.7,72.5,72.5,0,0,1,4.8,8.6c2.5,4.4,3,9.3,2.5,14.3s-4.4,10.9-10.9,12.8l-1.3.4a10.5,10.5,0,0,1-5.8-.6l-1.3-.5-3.6-1.4,1.8-1.7a54.7,54.7,0,0,0,6.8,1.4,8.6,8.6,0,0,0,4.7-.9c3.6-2.1,6.4-5.1,6.6-9.7a32.5,32.5,0,0,0-.1-5.4c-.6-5.3-3.3-9.9-6.2-14.2a56.9,56.9,0,0,1-6.6-12.1c-2.8-8.1-2.6-16.1,2.1-23.6s10.6-13.7,17.2-19.4a103.5,103.5,0,0,1,19-13.1c3.7-2,7.4-4.3,11-6.5.9-.5,1.7-1.1,1-2.4s-4-.8-6.1-1l-40.1-4.1-9.8-1.1c-1.7-.1-3.6-.5-5.1.8,0,.3-.1.5,0,.6,1.9,5.2,4,10.3,5.9,15.5s.7,12-2.7,17.4a5.3,5.3,0,0,1-2.5,2.2c-3.5,1.2-5.6,3.9-7.6,6.7A66,66,0,0,1,95,312.2c-2.3,1.5-4.9,2.7-7.3,4a7.9,7.9,0,0,1-6.2.7,42.6,42.6,0,0,1-4.7-1.5c-3.7-1.3-7.3-2.8-11.1-3.8-7.2-2-12.7,1.3-17.8,5.8a2.2,2.2,0,0,0-.1,3.5,17.4,17.4,0,0,0,2.9,2.5c1.4.8,3,1.5,4.4,2.2,6.1,2.8,9.7,7.6,11.7,13.8a10.2,10.2,0,0,1-1.5,9.4,58.7,58.7,0,0,1-8,9.2,7,7,0,0,1-4.8,2.1,12,12,0,0,1-7.2-1.4c-2-1.1-4-2.1-6-3.4a8.6,8.6,0,0,0-10.5.5,72.4,72.4,0,0,0-9,7.6c-2.6,2.7-4,6-3,9.9.4,1.6.7,3.2,1.2,4.7a52.2,52.2,0,0,0,7.2,12.3,18.4,18.4,0,0,0,7.6,5.3c2,.8,3.2.2,3.7-1.8s.9-4.8,1.4-7.2c1.5-8.1,6.4-13.9,12.9-18.5a6.9,6.9,0,0,1,8.7.1c4.2,3,7,6.9,6.2,12.5-.2,1.6-.4,3.2-.7,4.9s-1.3,6-1.9,9.1Z" style="fill: #5d536c"/>
      <path d="M286.5,44.7l2.2,2.4,3.9,8.9c.4,1.7.9,3.5,1.3,5.2l.6,17.1c.4,11.8.9,23.6,2.4,35.3.1.5.1,1,.2,1.5,2.1,10.6.9,21.2-.3,31.8a40.9,40.9,0,0,1-4.4,14,22.7,22.7,0,0,1-2.9,4,8.5,8.5,0,0,1-12.6.3,28.2,28.2,0,0,1-7.1-11.7,174.5,174.5,0,0,1-7.4-29.5c-1.5-10.7-3-21.4-2.9-32.2a108.8,108.8,0,0,1,1.7-18.1,3.5,3.5,0,0,0-.4-3.4c-.1-1.9.5-4-.4-5.9l.9-1.5c.4-4.2,2.7-7.1,6-9.6s3.2-3.2,4.8-4.7a20.9,20.9,0,0,1,2.2-2C278,43.7,282,42.2,286.5,44.7Zm8.5,94.4c1.2-7.6.7-15.3-.4-23-1.6-12.3-2.3-24.7-2.9-37.1-.2-5.6-.8-11.1-1.2-16.7A31.1,31.1,0,0,0,287.6,52a8.5,8.5,0,0,0-3.4-4.1c-1.5-1-3.1-1.3-4.6-.2-4.2,3.2-9.3,5.7-10.2,11.8a7.6,7.6,0,0,1-.9,1.8,74,74,0,0,0-5.1,18.4,117.3,117.3,0,0,0-.3,28.4,190.6,190.6,0,0,0,4.8,28c1.5,6,3.4,11.9,5.2,17.9a22.1,22.1,0,0,0,5.2,8.2c3.7,3.9,7.6,3.4,10.6-1.1l.3-.4c2-3.7,3.9-7.5,4.5-11.8S294.5,142.4,295,139.1Z" style="fill: #706578"/>
      <path d="M320.6,247.7c-.5,1.6-1,3.6-1.8,5.5s-3.1,6.2-4.8,9.2-6,7.7-9.6,11.1a31.6,31.6,0,0,1-11.4,6.6,13.5,13.5,0,0,1-11.3-1.1,49.5,49.5,0,0,1-10.9-8.4c-10.3-11.3-14.2-24.4-11.1-39.4a13.5,13.5,0,0,0,0-4.9c-.4-3-.6-6.2-.8-9.2a5.1,5.1,0,0,1,3.8-5.7c4.4-1.2,8.5-3.2,13.1-3.8s8.9-2.3,13.4-3.4a43,43,0,0,1,7.2-1c4.9-.3,8.9,1.7,12.1,5.4a41.8,41.8,0,0,1,8.8,16.8c1.4,5.6,2.9,11.1,3.2,16.9C320.6,243.9,320.6,245.5,320.6,247.7Zm-5.5,5.9a3.9,3.9,0,0,0,2.2-3.1c1.2-5.2,1.6-10.3-1.1-15.2l-1.5-4.7c-1.1-3.2-1.4-6.7-3.1-9.7a8.5,8.5,0,0,0-1.4-5.4c-1-1.5-1.9-3-3.9-3.1l-.7-1.1c-.5-2.6-.7-2.7-3.4-3.2s-4-1.5-6.2-1.4-3.1.2-4.7.3l-9.7,2.5c-.8.3-1.3,1.3-2,1.9s-3.9.9-5.9.7a1.4,1.4,0,0,0-2.1-.1,16.6,16.6,0,0,0-4.5,6.3l-4.5,13.4c-2,5.8-1.4,11.4-.4,17.2,1.4,4.3,2.7,8.6,5.2,12.6a74.8,74.8,0,0,0,7.1,8.7,17.1,17.1,0,0,0,9.6,5.5l1.9.5c4.4,2,8.3.7,11.9-2s8.3-6.4,11.1-11c2.6-1.2,3.8-3.6,4.9-6Zm-48.6-40c-3.4.8-3.7.9-4.1,1.8a10.9,10.9,0,0,0-.4,8.4C264.4,220.6,265.1,217.4,266.5,213.6Z" style="fill: #5d536c"/>
      <path d="M436.6,117.1c0,2.9-.2,5.7.8,8.6.6,1.4.1,3.2.1,4.8-1.6,2.5-1.3,5.4-1.5,8.2-.1.9.9,1.2,1.6,1.4s0,1.9-.1,2.9a3.4,3.4,0,0,1-1.6,2.9c-2.6,1.5-3.5,4.1-4.3,6.8a27.2,27.2,0,0,0-1.1,3.8c-.6,4.3-3.6,7.3-5.6,10.8a1.6,1.6,0,0,1-.7.7c-3.9.9-5.2,4.6-7.7,7.1l-3.7,3.3c-2.1,1.7-4.4,3.1-5.7,5.9s-2.5,2.5-4.1,3.3a18.4,18.4,0,0,0-5.2,4.4c-1.6,1.9-3.4,3.6-6,4l-1.9-1.4c8.9-6.7,16.6-14.7,24.2-22.9,3.5-3.8,7-7.7,10.3-11.7a31.8,31.8,0,0,0,6.7-13.5c.5-2.3,1.2-4.4,1.7-6.7a49.4,49.4,0,0,0-1.6-24.7c-.6-1.9-1.1-3.7.4-5.5a7.9,7.9,0,0,0,.9-2.3c2.3-.9,4.1.2,5.7,1.6a3.3,3.3,0,0,0-1.6,3.4l-2.7-.7C435.1,113.9,434.3,116.1,436.6,117.1Z" style="fill: #5d536c"/>
      <path d="M99.5,359.6l-4,3.7a26.1,26.1,0,0,0-7.3,16.2c-.6,6.6,3.2,10.9,9.8,11.7l18.5,2.1,3.4.5a7.6,7.6,0,0,1,6.6,6.4c1.2,5.4.5,10.5-4.3,14.1-3.3,2.5-6.6,4.9-10.7,5.7a1.7,1.7,0,0,1,.3-2.1c.5-.3.7-1,1-1.5a21.7,21.7,0,0,0,8.9-5.9c4.7-5.2,2.5-12.1-4.3-13.5l-2.9-.5-15.6-1.9c-1.3-.1-2.5-.4-3.8-.6a10,10,0,0,1-7.2-4.7,14.2,14.2,0,0,1-2.9-9.6,30.9,30.9,0,0,1,5.8-15.5c2-2.8,4-5.6,7.4-6.9l2.4.5Z" style="fill: #706578"/>
      <path d="M409.6,205.9l2.3-2.1h0c5.5.5,10.2-1.7,14.6-4.5,2.2-1.4,4.6-2.8,5.6-5.8s2.3-2.6,4.1-3.2a2.2,2.2,0,0,0,1.8-2v.2l1.1-.9h0a5.2,5.2,0,0,1,1.1-1h0a7.6,7.6,0,0,1,1.1-1.4V185h.3c2.9.4,4.5-1.3,5.9-3.4s1.1-3.1,2.9-3.6,0,1.3,1.1,1.6,1.2-2.2-.4-3.1a12.9,12.9,0,0,1,6.2-8.7,40.2,40.2,0,0,1,.2-4.9c.2-1.8,1.1-2.5,2.9-2.6a19.6,19.6,0,0,1,3.4.1,25.3,25.3,0,0,1-7.3,15.7,3.6,3.6,0,0,0-.4-.9c-.1-.2-.4-.6-.5-.6a2.6,2.6,0,0,0-1,.7c-.5,1.1,0,1.8,1.1,2.1a33.6,33.6,0,0,1-8.3,10.8,70.5,70.5,0,0,1-23.6,14.7C420,204.1,416,205,412,206A6.6,6.6,0,0,1,409.6,205.9Z" style="fill: #4a435b"/>
      <path d="M280.8,325.7l-2-1.2a40.3,40.3,0,0,1-.8-12,1,1,0,0,0-.2-.9,17.7,17.7,0,0,0-3.1-6.5,1.2,1.2,0,0,0-1.6-.9,8.2,8.2,0,0,0-5.5,6.4,25.8,25.8,0,0,0-.7,6.8c.4,5.7,1,11.3,1.6,17s2.2,13.8,1.8,20.9c-1.3.4-2.4.4-2.8-1.3a17.7,17.7,0,0,0-.6-1.7c-.5-4.3-1-8.7-1.4-13.1-.4-2.9-.8-5.9-1-8.8-.4-5.2-.8-10.5-1.1-15.7-.1-2.4.1-4.9.1-7.3,0-.5-.1-1-.1-1.6l1.2-1.7h1.3c2.1.3,3.3-1.4,5-2.2l4.5.2a10.9,10.9,0,0,1,4.7,9.1C280.4,316,280.6,320.8,280.8,325.7Z" style="fill: #4a435b"/>
      <path d="M49.7,257.1c-5-.4-8-3.5-7.6-8.1a19.6,19.6,0,0,1,3.5-9.6c1-1.4,2.3-1.5,3.8-.5l2.8,2a6.8,6.8,0,0,1,3,3.7,41.1,41.1,0,0,1,1.7,5.7c.7,3.8-1.2,6.3-5.1,6.8Z" style="fill: #4a435b"/>
      <path d="M112.8,416.4c-.3.5-.5,1.2-1,1.5a1.7,1.7,0,0,0-.3,2.1,39.3,39.3,0,0,1-21,3.4,33.8,33.8,0,0,1-20.1-9.3,39.9,39.9,0,0,1-8.9-13.3c-.8-1.9-.9-4.1-1.3-6.1h2.9a28.7,28.7,0,0,0,11.3,18.7c7.4,5.4,15.7,8.4,25.3,6.6C104.2,419.1,108.5,417.7,112.8,416.4Z" style="fill: #7d7285"/>
      <path d="M382.4,203.2a1.8,1.8,0,0,0,1.3,2.2,5.4,5.4,0,0,1,1.3.7l-4.7,1.9a5.9,5.9,0,0,0-6.1-1.8c-3.9.7-7.8,1.2-11.6,1.6s-6.5.4-9.8.5a1.4,1.4,0,0,1-1.5-1.5,1.7,1.7,0,0,1,1.5-1.7l3.9-.3a70,70,0,0,0,24.7-5.2c.1.6.4,1.1.3,1.6A2,2,0,0,0,382.4,203.2Z" style="fill: #5d536c"/>
      <path d="M99.5,359.6l1.1-1.8h.1l3.7.4a2.1,2.1,0,0,0,2.2-1.3,8.7,8.7,0,0,1,2.8.5l14.8,7.9-1.8,1.7c-3.5-.6-6.4-2.5-9.3-4.3A21.8,21.8,0,0,0,99.5,359.6Z" style="fill: #7d7285"/>
      <path d="M382.4,203.2a2,2,0,0,1-.7-2c.1-.5-.2-1-.3-1.6l8.5-5,1.9,1.4c-.5.8-.7,1.9-1.4,2.4C387.8,200.1,385.1,201.6,382.4,203.2Z" style="fill: #7d7285"/>
      <path d="M184.2,261.2c-2.1-.9-1.8-3.1-2.5-4.8h2.8c1.2,1.2,2.2.8,3.1-.3l1.9-.3c.9,1,1.6.7,2.2-.2l1.8-.4,2.2.6h0a8.3,8.3,0,0,1,.8,1.2,3.6,3.6,0,0,1-.2,1.1,2.1,2.1,0,0,0-2.2.9h-3.4a6.6,6.6,0,0,0-4.5,1.2h.1Z" style="fill: #2f2e3a"/>
      <path d="M464.5,155.6a2.9,2.9,0,0,1-2.2-2.3c-1.1-4.1-.9-8.1,1.8-11.6.1.3.4.6.4.9C464.8,146.9,465.5,151.3,464.5,155.6Z" style="fill: #4a435b"/>
      <path d="M446.7,113.6c-2,1.3-2.3,3.3-2.3,5.5a7.4,7.4,0,0,1-.8,2.2c-1.9-4.1-1.7-7.9-3-11.3A16.4,16.4,0,0,1,446.7,113.6Z" style="fill: #5d536c"/>
      <path d="M338.2,350.6c-1.5-1.2-1.8-3-2-4.7s0-3.5-.1-5.2c1.2.9,2.4,1.8,3.5,2.8a3.2,3.2,0,0,1,.7,4.3A29.2,29.2,0,0,1,338.2,350.6Z" style="fill: #ded4c6"/>
      <path d="M293.9,61.2c-.4-1.7-.9-3.5-1.3-5.2a8.8,8.8,0,0,1,2.3.7,2.4,2.4,0,0,1,1.3,2.4C296.1,60.6,295.1,61,293.9,61.2Z" style="fill: #d5cbbe"/>
      <path d="M242,141.1a13.4,13.4,0,0,1-.7-2.7c0-1.4.3-2.8.4-4.2.5.5,1.5,1,1.5,1.6S243.6,139.6,242,141.1Z" style="fill: #d5cbbe"/>
      <path d="M455.7,177.3c-1.1-.3-1.6-1-1.1-2.1a2.6,2.6,0,0,1,1-.7c.1,0,.4.4.5.6a3.6,3.6,0,0,1,.4.9Z" style="fill: #2f2e3a"/>
      <path d="M335.8,338.9c0-1.7-.1-3.3-.1-4.9,1.4.7,1.5,2.2,1.6,3.5S336.6,338.7,335.8,338.9Z" style="fill: #ded4c6"/>
      <path d="M275.4,302.1l-4.5-.2C272.9,300.5,273.3,300.5,275.4,302.1Z" style="fill: #706578"/>
      <path d="M187.6,256.2c-.9,1.1-1.9,1.5-3.1.3A2.9,2.9,0,0,1,187.6,256.2Z" style="fill: #5d536c"/>
      <path d="M405.6,206.3c.7-.9,1.3-1.1,2.1-.1Z" style="fill: #4a435b"/>
      <path d="M258.7,65.6l-.6.4-.4-.6c0-.1.3-.3.3-.3Z" style="fill: #d5cbbe"/>
      <path d="M194.1,259.2a2.1,2.1,0,0,1,2.2-.9C195.9,259.6,195.2,259.8,194.1,259.2Z" style="fill: #5d536c"/>
      <path d="M195.7,255.9l-2.2-.6C194.5,254.5,195.2,254.7,195.7,255.9Z" style="fill: #5d536c"/>
      <path d="M191.7,255.7c-.6.9-1.3,1.2-2.2.2Z" style="fill: #5d536c"/>
      <path d="M242.5,146.1l-.8-2.1C243.4,144.7,243.4,144.9,242.5,146.1Z" style="fill: #d5cbbe"/>
      <path d="M260.8,70.3a3.5,3.5,0,0,1,.4,3.4C260.4,72.7,260.6,71.5,260.8,70.3Z" style="fill: #d5cbbe"/>
      <path d="M126,368.4l1.3.5Z" style="fill: #7d7285"/>
      <path d="M133.1,369.5l1.3-.4Z" style="fill: #7d7285"/>
      <path d="M261.3,62.9l-.9,1.5Z" style="fill: #d5cbbe"/>
      <path d="M196.5,257.2a8.3,8.3,0,0,0-.8-1.2A8.3,8.3,0,0,1,196.5,257.2Z" style="fill: #5d536c"/>
      <path d="M186.3,260.2h0Z" style="fill: #5d536c"/>
      <path d="M265.9,304.1h0Z" style="fill: #706578"/>
      <path d="M263.4,305.8c0,.6.1,1.1.1,1.6S263.4,306.4,263.4,305.8Z" style="fill: #706578"/>
      <path d="M359.3,476.5l4.3-1.4c2.3,3.4,5.8,5.1,9.3,7.1-.3,1.1-.5,2-.8,2.9s-2.3,3.4-4.9,3.1a12.4,12.4,0,0,0-4.3.1,8.2,8.2,0,0,1-6.1-1.3c-2.5-1.7-5.2-3.2-7.7-5s-1.8-1.6-2.7-4.4c3.1-2.9,3.5-3.1,9.2-4.1Z" style="fill: #d9d0c3"/>
      <path d="M338.9,416.6a3.1,3.1,0,0,1,2.5,3.7,1.9,1.9,0,0,1-1.1.7c-1.3-.1-2.8-2.3-2.4-3.6S338.6,416.8,338.9,416.6Z" style="fill: #d9d0c3"/>
      <path d="M151.1,180.3a6,6,0,0,1-1.8.7c-.2,0-.7-.7-.6-1a.9.9,0,0,1,1.3-.9C150.4,179.2,150.6,179.7,151.1,180.3Z" style="fill: #d5cbbe"/>
      <path d="M242.9,37.4l1.4,1.5c-.8,1.8-1.6,3.5-2.3,5.3l-1.9-1.6A11,11,0,0,1,242.9,37.4Z" style="fill: #5d536c"/>
      <path d="M303.1,4.1l-3.4-1.4c.3-1.2.1-2.8,1.9-2.8s2,1.2,1.8,3.3A2.4,2.4,0,0,1,303.1,4.1Z" style="fill: #dbd2c3"/>
      <path d="M308.9,18l.6,1.9c-2.2.5-3.8,1.6-4,4.2a4.6,4.6,0,0,1-1.1,2.2c-.4.6-1.2,1.4-1.8,1.3s-1.1-1.3-1.1-2.3.1-.6.1-.9c-.2-2.8-.3-5.5,1.5-7.8-1.7-2.4-3.4-3.6-6.3-3a10.7,10.7,0,0,1-5.3-.5c-3.4-1.1-6.5-1.8-10-.2a5.1,5.1,0,0,1-3.2-.2,4.2,4.2,0,0,0-3.8.1c-.4.2-.9.6-1.3.5-3.8-.5-6,2-8.5,4.1s-2.2,1.9-3.5,2.7a11.2,11.2,0,0,1-3.1,1,5.1,5.1,0,0,1,1.2-2A65.9,65.9,0,0,1,279.5,5.5c6.5-2.9,13.1-2.2,19.5.6a11.1,11.1,0,0,1,5.1,4.3l4.2,6.5Z" style="fill: #d9d0c3"/>
      <path d="M241.7,93.6a26.4,26.4,0,0,0,.2-2.9l2.5-.4c2-.4,2.9.8,3.6,2.4-.9,1.7-2.2,2.5-4,1.8Z" style="fill: #d9d0c3"/>
      <path d="M308.9,18l-.6-1.1Z" style="fill: #d5cbbe"/>
      <path d="M407.2,203.4c-.3.2-.7.5-.9.4a16.2,16.2,0,0,0-6.2-.2c-.8.1-1.5-.3-2.8-.6a11.1,11.1,0,0,1,1.7-1.6,21,21,0,0,1,3-1.5c3.3-.8,5-2.5,5.1-6.1.1-1.6,1.5-3.1,2.3-4.7l3-3a2.5,2.5,0,0,1,2.1-1.8,16.6,16.6,0,0,0,2.1.6,22.3,22.3,0,0,0,2.3-.4c1,.7,2.2,1.3,2.1,3.1a51.5,51.5,0,0,1-4.5,3.2,35.6,35.6,0,0,1-4.9,1.9c-1.2,3.4-1.2,3.4,1.7,4.4.5,2.4-.5,3.8-2.9,4.6A14.1,14.1,0,0,0,407.2,203.4Z" style="fill: #4a435b"/>
      <path d="M418.9,184.5a22.3,22.3,0,0,1-2.3.4,16.6,16.6,0,0,1-2.1-.6c1.9-2.6,3.7-5.3,5.6-7.8,1.8.5.9,1.6,1,2.4l-.4.6.7-.2,3.8-1.5a1.2,1.2,0,0,1-.2,2.1Z" style="fill: #706578"/>
      <path d="M407.2,203.4a14.1,14.1,0,0,1,3.2-1.7c2.4-.8,3.4-2.2,2.9-4.6,2.2-1.8,2.3-1.9,4.3-.4a3.7,3.7,0,0,0,2.7.5,20.4,20.4,0,0,1,3.6-.1c-.5.8-.6,1.4-1,1.5a9.4,9.4,0,0,1-2.2.7,10.1,10.1,0,0,0-6.9,3.1l-1.9,1.4h0Z" style="fill: #7d7285"/>
      <path d="M441.6,184.9h-.3v.4a7.6,7.6,0,0,0-1.1,1.4h0c-.8-.1-1.1.2-1.1,1h0c-.7-.1-1.1.1-1.1.9v-.2l-2.2-.4a8.7,8.7,0,0,1,.9-1.7c2.1-2,3.7-4.5,6.5-6.2C444.3,182.6,442.6,183.6,441.6,184.9Z" style="fill: #b0a79c"/>
      <path d="M459,132.3c2.2,1,2.2,2.7,2.4,4.3s.3,2.5-.8,3.6C458,137.1,457.9,136.8,459,132.3Z" style="fill: #b0a79c"/>
      <path d="M441.8,160.1c.9,2.8.8,4.4-.2,6a1.3,1.3,0,0,1-1.2.4c-.3-.1-.8-.6-.8-.9C439.3,163.7,440.2,162.3,441.8,160.1Z" style="fill: #706578"/>
      <path d="M447.9,142.8c-1.5-3.6-1-6.3-1.6-9.5C449.2,135.4,449.4,136.4,447.9,142.8Z" style="fill: #5d536c"/>
      <path d="M437.6,140.1c-.7-.2-1.7-.5-1.6-1.4.2-2.8-.1-5.7,1.5-8.2C437.6,133.7,437.6,136.9,437.6,140.1Z" style="fill: #b0a79c"/>
      <path d="M428,188.7c1.3,2,.2,2.8-.7,3.6s-1.9,1.2-3,0a7.6,7.6,0,0,1,.7-1.3Z" style="fill: #5d536c"/>
      <path d="M440,147.8l2.2-6c.9-.1.8.9.9,1.6a5.7,5.7,0,0,1-1.3,5Z" style="fill: #5d536c"/>
      <path d="M454.6,149.6c-.1-1.2-.2-2.5-.2-3.7s.4-.5.7-.5a.8.8,0,0,1,.8.2c1.2,1.7.9,2.7-1.2,4.1Z" style="fill: #5d536c"/>
      <path d="M444.9,152c-1.8-2.1-.7-4.1-.2-6.2a4.2,4.2,0,0,1,.8,1.2A6.9,6.9,0,0,1,444.9,152Z" style="fill: #5d536c"/>
      <path d="M435.7,157.1a4.7,4.7,0,0,1,1.4-5,1,1,0,0,1,.9-.1,1.7,1.7,0,0,1,.6,1.1A5.1,5.1,0,0,1,435.7,157.1Z" style="fill: #7d7285"/>
      <path d="M412.4,186.1l-3,3-2.4.3C408.5,187.1,410.2,186.1,412.4,186.1Z" style="fill: #706578"/>
      <path d="M395.8,197.7a6.7,6.7,0,0,1,3.5-3.4c.2-.1.8.1.8.2s.2,1,0,1.2A5.1,5.1,0,0,1,395.8,197.7Z" style="fill: #4a435b"/>
      <path d="M436.6,117.1c-2.3-1-1.5-3.2-2.7-5.5l2.7.7Z" style="fill: #7d7285"/>
      <path d="M454.7,149.7c.1.6.3,1.2.5,2.2s-1.2.5-1.7.4-1.7-.5-1.6-1.4.9-1.2,1.8-1.2h1Z" style="fill: #5d536c"/>
      <path d="M440,147.8l1.8.6c.3,1.5,0,2.6-1.7,2.7A2.9,2.9,0,0,1,440,147.8Z" style="fill: #b0a79c"/>
      <path d="M448.3,121.9h.5c.1.8.1,1.5.2,2.2l-.4.3c-.3-.7-.6-1.4-.8-2s0-.3.1-.4Z" style="fill: #706578"/>
      <path d="M451.1,176.4c1.6.9,1,1.9.4,3.1s-.8-1.1-1.1-1.6A10.1,10.1,0,0,1,451.1,176.4Z" style="fill: #d9d0c3"/>
      <path d="M403.2,191.1l.2-.2v.3Z" style="fill: #4a435b"/>
      <path d="M402.1,192l1.1-.9h.1l-1.1.9Z" style="fill: #4a435b"/>
      <path d="M402.2,192.1l-.3.3v-.2l.3-.2Z" style="fill: #4a435b"/>
      <path d="M273.7,212.1c2,.2,4.1.6,5.9-.7a78.9,78.9,0,0,0,8.7-2.1,15.5,15.5,0,0,0,2.3-.7c.4-.3.5-1,.7-1.6s3.1-.3,4.7-.3,4.4-.3,6.2,1.4c.2,2,2,2.4,3.4,3.2l.7,1.1c1.2,2.4,2.4,4.9,3.8,7.4.2.5,1,.7,1.5,1.1,1.7,3,2,6.5,3.1,9.7l1.5,4.7c.1,5.5.3,11-1.4,16.4a6.3,6.3,0,0,0,.3,1.9l-1.2,3.6c-.4,0-1.1-.3-1.3-.2-2,1.6-3.6,3.4-3.6,6.2-2.8,4.6-6.9,7.8-11.1,11s-7.5,4-11.9,2l-1.9-.5a17.1,17.1,0,0,1-9.6-5.5,74.8,74.8,0,0,1-7.1-8.7c-2.5-4-3.8-8.3-5.2-12.6.4-4.7,1-9.4,1.3-14.1s.7-6.4,2.7-9.1a9,9,0,0,0,1.3-3.2,24.9,24.9,0,0,1,4.3-7.6A19.6,19.6,0,0,0,273.7,212.1Zm26.2,36.3,2.1-.3h0c.6-3.7.3-7.1-2.6-9.8a8,8,0,0,1-1.3-1.9c0-3.2.5-6.2,2.9-8.6a3.5,3.5,0,0,0,.7-3.7c.7-.4,1.4-1,.4-1.7s-1,.2-1.5.5-.1.6-.1.9l-2.8-.3c-.8-1.3-2-1.3-3.3-1a34.4,34.4,0,0,0-2.7-2.7,2.2,2.2,0,0,0-1.6-.6c-.7.3-1.1,1-1.6,1.5s-.8.1-.9.3c-2.2,3-5.3,4.6-8.8,5.6l-1.4.5c-2.2,1.1-2.9,3.2-1.6,5.2a8,8,0,0,0,1.8,2.3l3.7,3.1c-.3,2.4-.8,4.8-1,7.2s1.1,3.5,3.6,3.2a15.3,15.3,0,0,0,2.5-.6l2.2-4.6h2l2.1.5c1.8,1.7,3.6,3.4,5.5,5C298.5,248.7,299.3,248.4,299.9,248.4Zm8.8,4.7c2.2-1.7,2.3-2.2.4-3.9Z" style="fill: #a22818"/>
      <path d="M273.7,212.1a19.6,19.6,0,0,1-1.9,2.8,24.9,24.9,0,0,0-4.3,7.6,9,9,0,0,1-1.3,3.2c-2,2.7-2.5,5.8-2.7,9.1s-.9,9.4-1.3,14.1c-1-5.8-1.6-11.4.4-17.2l4.5-13.4a16.6,16.6,0,0,1,4.5-6.3A1.4,1.4,0,0,1,273.7,212.1Z" style="fill: #7d7285"/>
      <path d="M315.1,253.6a6.3,6.3,0,0,1-.3-1.9c1.7-5.4,1.5-10.9,1.4-16.4,2.7,4.9,2.3,10,1.1,15.2A3.9,3.9,0,0,1,315.1,253.6Z" style="fill: #b2a79e"/>
      <path d="M266.5,213.6c-1.4,3.8-2.1,7-4.5,10.2a10.9,10.9,0,0,1,.4-8.4C262.8,214.5,263.1,214.4,266.5,213.6Z" style="fill: #bdb4ab"/>
      <path d="M291.3,207c-.2.6-.3,1.3-.7,1.6a15.5,15.5,0,0,1-2.3.7,78.9,78.9,0,0,1-8.7,2.1c.7-.6,1.2-1.6,2-1.9Z" style="fill: #7d7285"/>
      <path d="M311.6,220.9c-.5-.4-1.3-.6-1.5-1.1-1.4-2.5-2.6-5-3.8-7.4,2,.1,2.9,1.6,3.9,3.1A8.5,8.5,0,0,1,311.6,220.9Z" style="fill: #b0a79c"/>
      <path d="M309,263.2c0-2.8,1.6-4.6,3.6-6.2.2-.1.9.2,1.3.2C312.8,259.6,311.6,262,309,263.2Z" style="fill: #7d7285"/>
      <path d="M305.6,211.3c-1.4-.8-3.2-1.2-3.4-3.2C304.9,208.6,305.1,208.7,305.6,211.3Z" style="fill: #b0a79c"/>
      <path d="M98.2,357.3a2.6,2.6,0,0,1,2.7-1.1,10,10,0,0,0-.2,1.6h-.1Z" style="fill: #7d7285"/>
      <path d="M440.2,186.8a7.6,7.6,0,0,1,1.1-1.4A7.6,7.6,0,0,0,440.2,186.8Z" style="fill: #2f2e3a"/>
      <path d="M439.1,187.7c0-.8.3-1.1,1.1-1A5.2,5.2,0,0,0,439.1,187.7Z" style="fill: #2f2e3a"/>
      <path d="M438,188.5c0-.8.4-1,1.1-.9Z" style="fill: #2f2e3a"/>
      <path d="M274.7,305.1l-1.6-.9A1.2,1.2,0,0,1,274.7,305.1Z" style="fill: #706578"/>
      <path d="M278,312.5c-.1-.2-.3-.4-.3-.6s.1-.2.1-.3A1,1,0,0,1,278,312.5Z" style="fill: #706578"/>
      <path d="M100.7,357.8a10,10,0,0,1,.2-1.6,9.5,9.5,0,0,1,5.7.7,2.1,2.1,0,0,1-2.2,1.3Z" style="fill: #706578"/>
      <path d="M339.5,383c.2.7.5,1.1.4,1.4s-.7.4-1,.5-.4-.6-.3-.8A3.5,3.5,0,0,1,339.5,383Z" style="fill: #ded4c6"/>
      <path d="M421.4,179.3l-.7.2.4-.6Z" style="fill: #2f2e3a"/>
      <path d="M297.7,223.6l2.8.3,1.2.3a3.5,3.5,0,0,1-.7,3.7c-2.4,2.4-2.9,5.4-2.9,8.6h-1.4c-.5-.6-1-1.6-1.9-1.1s-2.7,1.9-2.4,3.8l-1.7,2.4-2.1,1.4-2.2,4.6a15.3,15.3,0,0,1-2.5.6c-2.5.3-3.8-.8-3.6-3.2s.7-4.8,1-7.2,1-3.1,1.1-4.7c2.2-.3,1.9-2.2,2.4-3.7a6.9,6.9,0,0,1,1.7-3.8,6.6,6.6,0,0,0,2-4.8c.5-.5.9-1.2,1.6-1.5a2.2,2.2,0,0,1,1.6.6,34.4,34.4,0,0,1,2.7,2.7C295.3,225.3,296,225.5,297.7,223.6Zm-11.2,10.2c.2.6.3,1.5.9,1.9a1.8,1.8,0,0,0,2.6-.2l3-3.7c.6-.8,1.1-1.7.4-2.7s-1.7-.7-2.7-.6a3.4,3.4,0,0,0-3.3,2.4C287.1,231.8,286.8,232.7,286.5,233.8Zm-2.6,6.8c.3.3.6.9,1.1,1.1s1-.4,1.1-.8a3.3,3.3,0,0,0-.1-1.7.8.8,0,0,0-1.5-.2C284.3,239.4,284.2,239.9,283.9,240.6Z" style="fill: #4a435b"/>
      <path d="M282.4,233.1c-.1,1.6.3,3.4-1.1,4.7l-3.7-3.1a8,8,0,0,1-1.8-2.3c-1.3-2-.6-4.1,1.6-5.2l1.4-.5c3.5-1,6.6-2.6,8.8-5.6.1-.2.6-.2.9-.3a6.6,6.6,0,0,1-2,4.8,6.9,6.9,0,0,0-1.7,3.8,3.9,3.9,0,0,0-4.9,1.3Z" style="fill: #5d536c"/>
      <path d="M296.7,236.5h1.4a8,8,0,0,0,1.3,1.9c2.9,2.7,3.2,6.1,2.6,9.8h0l-2.1.3c-1.7-2.8-3.7-4.9-7.2-5l-2.1-.5a5.7,5.7,0,0,1,.1-1.3l1.7-2.4c1.3,1.1,2.7,2.2,4.7,1.8C297,239.3,296.8,237.9,296.7,236.5Z" style="fill: #5d536c"/>
      <path d="M292.7,243.4c3.5.1,5.5,2.2,7.2,5-.6,0-1.4.3-1.7,0C296.3,246.8,294.5,245.1,292.7,243.4Z" style="fill: #706578"/>
      <path d="M308.7,253.1l.4-3.9C311,250.9,310.9,251.4,308.7,253.1Z" style="fill: #b0a79c"/>
      <path d="M297.7,223.6c-1.7,1.9-2.4,1.7-3.3-1C295.7,222.3,296.9,222.3,297.7,223.6Z" style="fill: #7d7285"/>
      <path d="M301.7,224.2l-1.2-.3c0-.3-.1-.8.1-.9s1.3-.7,1.5-.5S302.4,223.8,301.7,224.2Z" style="fill: #7d7285"/>
      <path d="M290.7,241.6a5.7,5.7,0,0,0-.1,1.3h-2Z" style="fill: #706578"/>
      <path d="M302,248.1h0Z" style="fill: #706578"/>
      <path d="M286.5,233.8c.3-1.1.6-2,.9-2.9a3.4,3.4,0,0,1,3.3-2.4c1-.1,2-.2,2.7.6s.2,1.9-.4,2.7l-3,3.7a1.8,1.8,0,0,1-2.6.2C286.8,235.3,286.7,234.4,286.5,233.8Z" style="fill: #c3bbb2"/>
      <path d="M296.7,236.5c.1,1.4.3,2.8.4,4.5-2,.4-3.4-.7-4.7-1.8s1.1-2.9,2.4-3.8S296.2,235.9,296.7,236.5Z" style="fill: #bdb4ab"/>
      <path d="M282.4,233.1l-2.5-2.4a3.9,3.9,0,0,1,4.9-1.3C284.3,230.9,284.6,232.8,282.4,233.1Z" style="fill: #bdb4ab"/>
      <path d="M283.9,240.6c.3-.7.4-1.2.6-1.6a.8.8,0,0,1,1.5.2,3.3,3.3,0,0,1,.1,1.7c-.1.4-.9.9-1.1.8S284.2,240.9,283.9,240.6Z" style="fill: #7d7285"/>
    </g>
  </g>
</svg>
