<svg xmlns="http://www.w3.org/2000/svg" viewBox="0 0 549.3 73.1"><defs><style>.cls-1{fill:#fff;}.cls-2{fill:#335899;}.cls-3{fill:#fefefe;}.cls-4{fill:#335898;}.cls-5{fill:#34599a;}.cls-6{fill:#355999;}.cls-7{fill:#345899;}.cls-8{fill:#fdfdfe;}.cls-9{fill:#91b7d2;}.cls-10{fill:#345898;}.cls-11{fill:#c0c2d4;}.cls-12{fill:#f9fafb;}.cls-13{fill:#abcee1;}.cls-14{fill:#3a5c9b;}.cls-15{fill:#45629d;}.cls-16{fill:#4a669f;}.cls-17{fill:#fcfcfd;}.cls-18{fill:#f6f9f9;}.cls-19{fill:#afcddd;}.cls-20{fill:#fafbfc;}</style></defs><title>logolesgrandsvoisinscom</title><g id="Layer_2" data-name="Layer 2"><g id="lsgrandsvoisinscom"><path class="cls-1" d="M198.8,14.4a21.2,21.2,0,0,1-2-1.2,2.1,2.1,0,0,1-.7-1.1c-.3-2,1.6-5.6,3.4-6.3,3.7-1.5,7.1-1.6,9.9,1.8a1.8,1.8,0,0,0,2,.6,27.4,27.4,0,0,1,2.8-.5c.3.4.8.9.6,1.3-4.7,12.9-2.5,26.3-3.2,39.6a7.6,7.6,0,0,1-.3,2.1c-.9,3.3-3.7,5.9-2.8,9.9s3.2,7.2,8.3,7.4,8.4-.3,11.4-4.4,4.8-3.9,7.8.1,3.8,4.5,7.7,4.4c8.1-.3,10.2-1.8,11.5-9.9.2-.7.3-1.5.5-2.3s.4-2.6,1.2-3.6c3.7-5.3,2.4-10.4-.7-15.4-.6-4.9-3.4-8-7.7-10-2.2-5.8-1.5-7.3,4.2-8.7,3.6-.8,2.8-3.2,1.8-5s-2.8-4.7-5.8-4.2-5,3.2-5.8,6.1c-1.4,4.7-3.9,8.2-8.8,9.5a2.1,2.1,0,0,1-1.1-.7c-.6-5.7-3.9-9.3-8.9-11.8A8.4,8.4,0,0,1,220,7.7c.5-.5,1-1.3,1.7-1.5s1.2.1,1.7.4,3.6,3.3,6.2,3.2a.9.9,0,0,1,.8.5c1.5,2.4,4.9,3,6,5.9.1.3.8.4,1.2.5s.4-.5.5-.7a19.3,19.3,0,0,0,.1-2.4,3.5,3.5,0,0,1,1.5-2.9c2.5-1.7,4.6-3.9,7.5-5.1s6.7-.4,8.6,2.1c.4.5.6,1.2,1,1.6,3.4,3.1,2.9,6.7,1.6,10.5a2.9,2.9,0,0,1-2.3,2.2l-1.9.4a1.5,1.5,0,0,0-.5,2.6l1.5,1.1c2.3,2.1,4.3,4.3,4.2,7.7a2.9,2.9,0,0,0,1.8,2.7c1.7.8,2,2.3,2,4,0,3.3-.1,6.7,0,10a5.5,5.5,0,0,1-1.9,4.7c-1.3,1.1-2.3,2.3-1.3,4.1-.7,3-.8,6.1-3.4,8.3a4,4,0,0,0-1.5,1.7c-1.2,2.9-3.9,3.3-6.4,3.6a25,25,0,0,1-6.7,0c-2.3-.3-4.6-.9-6.3-2.9a10.2,10.2,0,0,0-2.3-1.8c-1.7-1-2.2-1-3.7.4-5.9,5.3-12.7,5.1-19.8,3.4a3.2,3.2,0,0,1-.9-.3c-1.2-.3-1.3-2.5-2.9-2.1s-2.1,1.4-3.3,1.9-4,1.6-6.4.6-3.1-2.6-4-4.5c-.2-.4-.3-.9-.5-1.3a1,1,0,0,0-.8-.4,1.2,1.2,0,0,0-.7.5c-2,5.6-2.1,5.6-7.7,5.6h-10c-3.6,0-5.3-1.2-6.3-4.7s-1-4.6-1.5-7c-1.6,1.2-1.4,2.8-1.6,4.4s-.6,3.3-3.4,3.4a8,8,0,0,0-5.6,2.4c-2.5,2.3-5.6,1.8-8.6,1.1-.8-.1-1.6-1.1-2.1-1.8a27.5,27.5,0,0,1-1.4-3c-.5-1.1-1.2-1.3-1.7-.5s-2.7,2-4.6,1.9a19.3,19.3,0,0,0-3.4,0c-2.2.1-3.9-.4-5.1-2.5s-2.3-1.6-3.7.2a9.5,9.5,0,0,0-1.2,1.6c-1.5,3.4-4.5,4.2-7.8,4.5a56.6,56.6,0,0,0-8.1.7,6.3,6.3,0,0,1-5.6-2.1,101.3,101.3,0,0,1-6.8-7.9,8.8,8.8,0,0,1-1.7-5.3c.3-2.9.2-6.1,2.7-8.4,2.7.8,3,3,2.7,5.3-.6,4.9,1.5,8.4,5.4,11.1,1.1,2.8,3.6,2.5,6,2.5,8.7.1,10.8-1,11.6-10.4a9.4,9.4,0,0,1,.6-2.8,52.5,52.5,0,0,0,3.1-6.3c.5-1.6,1.1-3.2,3.2-2.8s2,2.2,2.1,3.8a14.6,14.6,0,0,1-1,6.5,4.6,4.6,0,0,0,1,5.6c1.3,2.2,3.4,2.7,5.8,2.5.6.1.6.1.3-1.4.3-3.3,0-6.6.3-10s.7-4,3.1-4,2.6,1.9,3.1,3.7-.6,6.5,2.6,8.7c1,1.1,1.1,2.6,1.3,4,.4,3.1,2.5,4,4.9,1.9a10.3,10.3,0,0,1,5.7-2.8c3.5-.4,1.6-4,3-5.7s3.2-4.8,4.7-7.2a3.3,3.3,0,0,1,3.6-1.6c1.7.4,1.1,1.9,1.4,3.1,1.1,4.2-.2,8.6,1.2,12.7.6,2.2,2,3.1,4.3,2.7l1.9-.3c9-.8,9-.8,9-10.1a55.8,55.8,0,0,1,.2-8.2c.3-2.6,1.2-4.8,4.6-3.3a5.2,5.2,0,0,1,1,1.1c.9,2.9.4,5.9.5,8.8s.2,4.1,2.4,5.2a4.4,4.4,0,0,1,.8,1.1c.1.6,0-.1.2.4.8,2-.6,5.6,3.3,5.3s2.3-3.8,2.7-6.1c.1-.5.1-.9.2-1.4.6-4.4,0-9,2.8-12.9.6-.7.4-1.8.3-2.8-.9-8.6.7-17.1.3-25.7a3.5,3.5,0,0,1,.3-1.4,6.9,6.9,0,0,0,.3-4.9l-.5-1.2c-3.2-3.4-4.3-3.2-5.6.7A3.1,3.1,0,0,1,198.8,14.4Z"/><path class="cls-2" d="M467.7,34.6l.2-.2v-.3c.9-2.3,0-5.1,2-7h0c.1-1.6.3-3,1.7-4h0c1.7-5.6,5.7-9.5,10.1-12.9,2.2-1.7,5.1-2.4,7.6-.6s4.2,3.9,3.3,7.3-1.4,5.3-4.4,5.6-2.5-3-3.3-5.1a23.4,23.4,0,0,0-7.7,11.2,55.1,55.1,0,0,0-3.3,21.7c.2,2.6.5,5.2,3.5,6.2s4.2-1.7,6.2-3.2c5.5-4.4,6.1-10.6,7.2-16.8s4.1-13.1,9.3-17.9c3.3-3,6.1-2.6,8.7.9,9.8,13.1,7,26.5,1,40h0c-.7,2.2-1.2,4.7-3.8,5.7h0c-4.6,5.1-11.2,1.1-14.7-3.3a5.6,5.6,0,0,1-1.3-3.5,4.9,4.9,0,0,1,.5-2.3c-.8.5-.5,1.9-.8,3-3.8,6.6-10,6.5-16.3,5.5s-6.5-5.8-7.5-9.6A29.2,29.2,0,0,1,467.7,34.6Z"/><path class="cls-3" d="M509.7,59.5a10.6,10.6,0,0,1,.4-1.9c3.4-9,3.9-18.3,2.8-27.8-.3-3-1.2-5.6-3.7-7.5a4.7,4.7,0,0,1-1.3-2.4c-1.1-2.6-3.5-3.5-5.8-1.9a18.5,18.5,0,0,0-3.7,3.7,37.8,37.8,0,0,0-6.7,15.7c-.6,3.3-.9,6.7-1.2,10-.1,1.4-.2,2.5-2,2.6s-2.5,1.2-3.3,2.5-1,2-1.6,3a6.4,6.4,0,0,1-8.7,1.9,2.5,2.5,0,0,1-1.1-1.4,22.7,22.7,0,0,1-1.3-5.6,61.7,61.7,0,0,1,3.1-21.7A28.7,28.7,0,0,1,485,15.1a2.5,2.5,0,0,1,1.7-.2c.3.1.5.8.5,1.3a13.7,13.7,0,0,1-.2,1.9,6,6,0,0,0-.6,2.2,1.7,1.7,0,0,0,.9,1.5,2,2,0,0,0,1.7-.2c2.3-2,3.2-6.7,1.9-9.3a5,5,0,0,0-6.6-2.4,17.2,17.2,0,0,0-4,2.6,29.8,29.8,0,0,0-7.1,8.3c-.5.8-1.1,1.5-1.7,2.3-.5-2.4,1.4-4.6.7-7a2.7,2.7,0,0,1,1.1-.6c.6-.1,1.6.2,1.7,0,1.3-2.9,5.3-3.9,4.8-7.8h4.8c2.7-.1,5.5-.3,6.9,2.9.2.5,1,.8,1.6,1a2,2,0,0,1,1.4,2.1c0,1.2,0,2.3.1,3.4a2.1,2.1,0,0,0,3.4,1.7,8.6,8.6,0,0,0,1.3-1.4,5.2,5.2,0,0,1,6-1.5c1.8.6,3.5.8,4.3,3.1s2,1.9,3.1,2.8c1.6-1.4,1.3-3,1.7-4.5s.6-1.8,1.9-1.6a6.1,6.1,0,0,0,1.9-.1c2.9-.2,2.9-.2,3.3,3.1v.5l-.7.5c-3.1.9-2.8,3.4-2.8,5.8.2,13-.7,26.1.9,39.1l-.3.7c-4.1-.3-4.4-.6-4.8-4.8-.1-.9.1-2-.9-2.5s-1.9.8-2.8,1.3Z"/><path class="cls-1" d="M36.6,7.7a3.3,3.3,0,0,1,3.5-1.9A2.9,2.9,0,0,0,43,4.4c1.2-2.6,3.7-2.9,6-3.3s6,.4,8.9,1.1a3.2,3.2,0,0,1,1.4,1.2l3.5,5.1a4.5,4.5,0,0,1,.3,4.6,8.7,8.7,0,0,0,0,7.4,2.8,2.8,0,0,1,.2,1.8c-1.7,2.9.4,5.6.4,8.4,0,.8.9,1.7,1.6,2.3s2.1,3.4,2.1,5.6c-.1,4.1-.1,8.3,0,12.4,0,2-.3,3.8-1.9,5.2a5.7,5.7,0,0,0-2.1,4.1,4.5,4.5,0,0,1-2.8,3.6,6.8,6.8,0,0,0-1.7.9c-2.4,3-6,2.5-9.1,3.3a6.2,6.2,0,0,1-4.6-.9,5.2,5.2,0,0,0-5.5-.1c-1.1.6-2.4.8-3.5,1.4s-4.7.2-6.8-.9c-.3-.2-.3-.9-.4-1.3s.8-1.6,1.5-1.6c4.7.1,8.5-2.9,12.9-3.9a3.9,3.9,0,0,1,1.4.5c3.9,4.1,7.6,3.6,11.6-.2,6.1-5.7,6.9-12.8,6.8-20.4,0-2.1-1.3-3.1-2.6-4.3a3.5,3.5,0,0,1-.7-1.2c.1-5.1-2.7-7.4-7.6-7.7a2.3,2.3,0,0,1-.8-1.1,4,4,0,0,1,2.7-4.1c4.5-1.6,5.2-4.6,4.7-9-.3-2.4-.3-4.5-2.3-6.3a6.4,6.4,0,0,0-9,0c-3.4,3-5.6,6.5-5,11.2a25.4,25.4,0,0,1,.1,3.9v2.7a21.9,21.9,0,0,0,.4,5.7c.5,1.9,1.1,3.6,3.6,3.3s4.2,1.9,6.2,3.1a2.3,2.3,0,0,1,.8,1.2c.9,3.1,1.4,6.1.5,9.3S52.5,51.1,50,51l-1.4-.2a4.7,4.7,0,0,0-3.1.1l-1.4.5c-2.6,3.2-6.1,4-10.1,3.7s-5.3-1.6-5.7-5,.7-8.1,4.2-8.9c1.8-.5,3.4-.7,3.4-3.1S34,36,32.6,35.8s-3.8-1.6-3.9-4.1-.4-7.9-.1-11.9c.1-2.3.9-3.9,3.4-4.6C37.6,13.7,37.6,13.6,36.6,7.7Z"/><path class="cls-4" d="M383.2,31.7c0-.5.1-1,.1-1.5a56.2,56.2,0,0,0,0-14.2v-.2c1.6-3.4,3.8-3.6,5.8-.1s3.9,7.3,4.5,11.5a34.5,34.5,0,0,0,1,5.6h-.1a40.4,40.4,0,0,1,4.7,10.4c-.2-9,.9-16.8.4-24.7a9.3,9.3,0,0,1,1.4-5.9c1.6-2.5,3.6-3.8,6-.7v-.2l-.2.2a4.2,4.2,0,0,1,1.5,4.3c-1.5,14.2-.4,28.5-.7,42.7-.1.6,0-.2,0,.5-.1,5.1-1.8,8.5-4.6,8.3s-5.7-3.6-6.9-6.9c-.7-1.7-.8-3.5-1.3-5.1h0c-3.1-3.5-3.7-8.2-5.7-12.3.6,8.1-1.6,15.9-2.4,23.9V67a2.6,2.6,0,0,1-2,2h.1c-3.7,1.1-5.3-1.3-5-4.1C380.9,53.7,380,42.5,383.2,31.7Z"/><path class="cls-1" d="M95.2,44.2a3,3,0,0,1-1.9-3V32.1a4.1,4.1,0,0,1,1.2-3c2.1-2.3,2.6-5,2.6-8,0-1.1.1-2.2,0-3.3a4.2,4.2,0,0,1,2.5-4.7,5.6,5.6,0,0,0,2.2-2.4A9.4,9.4,0,0,1,106,6.3a9.5,9.5,0,0,0,3-3c2-3.1,9.4-3.3,11.5-.2s3,2.8,4.5,4.2,1.5,1.1,3.4-.3a4.7,4.7,0,0,1,2.5-1.1c1.2-.1,1.6.8,1.7,1.8A2.2,2.2,0,0,1,131.4,9c-1,.5.2,1.3-.2,2,.1,8.1-.3,16.2-.2,24.3,0,2.9-1.6,4.3-4.5,4.4s-7-.1-10.5.1-4.9,1.8-3.7,5.2,1.8,3.8,2.4,5.7-1,5.2-3,7-3.9,1-5.5-.9a4.7,4.7,0,0,1-.6-1.5c-.4-8.1-.2-16.2-.1-24.2a7.8,7.8,0,0,1,.2-1.6c2-3.3,3.9-6.5,4.4-10.7s3.9-5.2,8.1-2.9l.9,1c2.1,1.9,3.4.4,4.5-1.2s1-2.8-.5-4-2-2.4-3.5-3.1l-1.1-.7c-1.8-2.9-3.6-3.3-5.6-.2a2.8,2.8,0,0,1-1.1.8c-5.5,1.2-10.4,6.8-11.2,12.4-.4,3-.1,6-.6,9-.1.5-.3.9-.4,1.3-1.7,2.7-3.4,5.2-2.9,8.7A4.7,4.7,0,0,1,95.2,44.2Z"/><path class="cls-3" d="M331.5,64.1c-1,.1-1.9-.2-2-1.4-.1-2.8,0-5.5-.1-8.2a13.1,13.1,0,0,0-.1-2.8,2.2,2.2,0,0,0-1-1.4,1.8,1.8,0,0,0-2.3,1.1c-.4,2-1.2,4-.5,6.1s.3,1.2.4,1.9a1.3,1.3,0,0,1-1,1.8c-1.6.3-2.3,1.5-3,2.8a2.6,2.6,0,0,1-2.4,1.3l-7.1-.3a3.7,3.7,0,0,1-1.2-.7,12.7,12.7,0,0,0-2.5-2.1c-1.9-.9-2.7-2.2-2.2-4.2s-.3-4.4-.1-6.6,0-4.1-.1-6.2-.8-2-2.1-1.1a8.8,8.8,0,0,0-1.5,1.2l-.6-.5c-1-1.9-.3-3.8.2-5.6,2-7.4,3.3-15,5-22.5a8.9,8.9,0,0,0,.3-2.8c-.2-.9-.5-1.6-1.4-1.8s-1.4.5-1.8,1.2a28.1,28.1,0,0,0-1.6,6.5c-1.3,7-1.9,14.3-5.7,20.6a1.7,1.7,0,0,1-1.4.2,5.6,5.6,0,0,1-1.9-3.8c-.7-6.6-3.7-12.8-3.8-19.6,0-1.1-.4-2.5-1.8-2.4s-1.5,1.8-1.4,3,.7,4.7,1.2,7,.7,3.8-.4,5.6l-.5.5c-2.8-1.6-4.1-4.1-3.4-7.1a12.5,12.5,0,0,0,0-5.1c-.4-2.1-.1-4.4-.1-6.7a15.9,15.9,0,0,1,8.7.4,3.4,3.4,0,0,1,2.6,3.6c-.1,3.6,0,7.3,0,11a4.1,4.1,0,0,0,1.6,3.8,1.2,1.2,0,0,0,1.9-.6,20.8,20.8,0,0,0,.3-2.3c.2-2.7-.4-5.5.6-8.1a1.7,1.7,0,0,0,0-1c-1.4-2.8.1-4.8,2.1-6.6a14.3,14.3,0,0,0,1.4-2c2-2.7,2.6-2.9,6.5-1.5h0l.9,3.5c.2.6.2,1.3.4,1.8s2.3,1.7,3.1.7,1.6-2.3,3.3-2a3.2,3.2,0,0,1-.5,2.7c-5.3,8.5-7.1,18-7.6,27.8A30.9,30.9,0,0,0,312,59c1,1.9,2.4,3.6,4.7,3.5s3.1-2,3.9-3.8c5.3-11.3,6.3-23.3,5.4-35.5-.4-5.6-5.1-7.7-8.9-10.6,1-1.7,2.8-.9,4.2-1s3.8.2,4.4,2.5a1.5,1.5,0,0,0,.9,1,6.6,6.6,0,0,1,3.4,3c.7,1.1,1.2,1,2.6-.2l.7-.6c1.7,1.9,1.5,4.2,1.3,6.4-.9,11.9-1.8,23.9-1.8,35.8C332.8,61.1,332.7,62.8,331.5,64.1Z"/><path class="cls-2" d="M429.2,52.2v.3c.1,6.7-3.2,11-9.2,13.6-4.5,1.9-8.2.7-10.2-3.9a18,18,0,0,1-.6-13.1c.7-2.1,2-3.8,4.5-3.6s3.1,2.4,3.3,4.6-.2,3.8.6,5.6c4.8-2.8,4.1-11.4-1.3-15-3.3-2.1-6-4.6-6.2-8.5A32.8,32.8,0,0,1,413,16.8c.4-.7,1.2-1.2,1.4-1.9,1.1-3.8,3.3-6.3,7.5-5.9s6.5,4.6,6.9,9.2a3.3,3.3,0,0,0,.4,1.3v2.3c-1,3.5.1,7.2-1.2,10.7-.9,1.5-2.3,2.3-4,1.4s-1.5-2.3-1.3-3.7a32.9,32.9,0,0,0,.3-9.9,2,2,0,0,0-1-1.6c-4.2,4.3-4,11.3.4,14.9a14.5,14.5,0,0,1,3.7,3.7c2.4,2.9,2.5,6.3,2.7,9.8C428.9,48.8,428.5,50.6,429.2,52.2Z"/><path class="cls-3" d="M429.2,19.5a18.7,18.7,0,0,1-.7-2.2,21.5,21.5,0,0,0-1-2.7c-1.3-2.5-3.2-4.6-6.2-4.7s-4.6,1.9-5.9,4.2a29.2,29.2,0,0,0-2.3,5.8,71,71,0,0,0-1.8,9.4c-.5,4.5,1,8.2,5.5,10.1a6.7,6.7,0,0,1,4.2,4.9,61.7,61.7,0,0,1,1.2,7.5,6.1,6.1,0,0,1-4.5,6.5c-.4.2-1.4-.4-1.4-.7a36.4,36.4,0,0,1-.4-5.7c-.1-1.1.1-2.3,0-3.4a2.2,2.2,0,0,0-1.7-2,2.4,2.4,0,0,0-2.7.5,6.2,6.2,0,0,0-1.4,2.5,22.6,22.6,0,0,0,.5,11.8,8,8,0,0,0,1.9,3.2,4.3,4.3,0,0,0,4.8,1.4,21.7,21.7,0,0,0,8.5-5.1,10,10,0,0,0,2.6-5.1,29.9,29.9,0,0,1,.8-3.2v.4c.2,7,.2,7-4.2,12a5,5,0,0,1-1.9,1.3c-1.1.7-2.3,1.2-3.3,1.9s-4.2,1.5-6.4-.5L412,66.4c-1.6-1.4-3.7-1.6-5.1,0a9,9,0,0,1-3,2.1c-2.1.8-3.5.8-5-1.1s-3.4-1.9-3.9-3.3-.3-4.1-.3-6.1.1-1.6.1-2.4l3.2,6.3a18.4,18.4,0,0,0,2.6,4,3.3,3.3,0,0,0,5.6-1.7,24.8,24.8,0,0,0,.3-4.7c0-11-.2-22-.1-33,0-3.2.5-6.3.6-9.5a45.1,45.1,0,0,0-.1-5.2c1.6-.3,2.9-.3,3.2,1.8a2.7,2.7,0,0,0,.6,1.2c.6.8,2.6.6,2.9-.3a2.9,2.9,0,0,0,.2-.9,4.8,4.8,0,0,1,1.9-4.2,8.1,8.1,0,0,1,5.8-1.7,12.7,12.7,0,0,1,2.8.6,2.7,2.7,0,0,1,1.2.6c1.2,1.7,2.4,3.3,3.5,5.1a6.2,6.2,0,0,1,.5,2.7A13.3,13.3,0,0,1,429.2,19.5Z"/><path class="cls-1" d="M3,36.5C2,36,.9,35.1,1.3,34c.9-2.8-.2-5.3-.7-7.9A11.5,11.5,0,0,1,.7,20a9.7,9.7,0,0,0,0-5.6,15.1,15.1,0,0,1-.5-4.2C.1,8,1.3,6.7,3.2,5.8a8.6,8.6,0,0,1,7.8.3c1.5.7,2.7,1.9,2.5,3.7a13.2,13.2,0,0,0,2.1,7.7,8.3,8.3,0,0,1,.9,4.6c-.4,3.3.7,6.3,1.2,9.4,0,.2.6.4,1,.5s.5-.6.4-.7c-1.2-2.5-.1-5,.4-7.4a10.8,10.8,0,0,0-.8-6.9c-.5-1.2-1.5-2.4-1-4s1.5-4.3,3.2-5.8a7.8,7.8,0,0,1,3.4-1.3c1.2-.2,1.7.8,1.8,1.8s-2.8,2-2.9,3.9a5.6,5.6,0,0,1-.4,1.2,4.5,4.5,0,0,0,.3,3l.3,1.4c.2,3.9.1,7.7.1,11.6a20,20,0,0,1-.4,2.4c-2.9,5.7-3.2,11.8-3.3,18.1C19.7,52.4,19,55,15,55s-4.7-2.6-4.6-5.8c.2-5.2-.5-10.3,1.8-15.5s.4-8.5-.5-12.6-1.1-5.3-1.8-7.9S9,9.1,6.5,9.5,5,12,4.8,13.5c-1.1,6,.6,12.1-.5,18.1C4,33.3,4.5,35.1,3,36.5Z"/><path class="cls-3" d="M22.3,12.6c.1-1.1.4-2.1.4-3.2s.7-1.8,2-1.7H36.6a2.8,2.8,0,0,1,1.9,2.6,13.5,13.5,0,0,1-.7,4.1,3.2,3.2,0,0,1-3.1,1.9c-1.1.1-2.2,0-3.3.2a2.2,2.2,0,0,0-1.3,1.2,15.9,15.9,0,0,0-.6,3.8c.1,3.6.3,7.3.5,11,0,1.4.6,1.9,2,2l3.9.2a1.6,1.6,0,0,1,1.6,1.9c0,.7-.3,1.3-.3,1.9-.3,3.5-.3,3.5-3.8,3.8a6.1,6.1,0,0,0-1.9.1c-.5.2-1.3.7-1.3,1.1-.2,2.8-1.3,5.6-.3,8.5a2.3,2.3,0,0,0,2.4,1.8h5.3c2,.1,3.8-.1,4.1-2.7.1-.4.9-.9,1.5-1a9.6,9.6,0,0,1,2.4,0c-1.3,3.7-.5,7.5-1.2,11.2a23.4,23.4,0,0,0-5.1,2.3,10.2,10.2,0,0,1-6.2,1.8,18.7,18.7,0,0,0-4.1.9H26.1c-4.4,1.2-5.2-3.4-8-4.8a8.3,8.3,0,0,1-.4-1.5c0-2.7-1.7-3.6-4-3.9s-4.2-1.8-4.2-4.4c-.3-12.4-.5-24.9.1-37.3a8.4,8.4,0,0,1,.6-1.4l.6-.6a7.4,7.4,0,0,1,.8,2.2c.1,2,0,4,1.4,5.9s.5,2.1.6,3.2-.1,4.7.7,7a4.4,4.4,0,0,1-1.2,4.9A4.2,4.2,0,0,0,11.7,39V51.4c0,1.8.6,2.3,2.3,2.4h2.4c1,0,2-.6,1.9-1.7-.3-3.6,1-7.1.3-10.8a4.9,4.9,0,0,1,.3-2.7c1-2.6,2.2-5.2,3.4-7.7,2.1,3,1.4,6.5.9,9.7a55,55,0,0,0,.4,18.1c.4,2.6,1.4,4.9,4.4,4.7s6.9-.5,9-3.6c1.1-1.5-.2-2.5-1.7-2.3-3.7.3-7.1.9-7.9-4.7-1.3-8.6-1.2-10.1,4.4-13.7.4-.2.7-.6.8-1.5-5.2-.3-5.4-3.8-5.4-7.9-.1-2.6-.5-5.1-.5-7.7,0-6.1,0-6.1,6.1-8,1.1-.3,2.4-.6,2.4-1.9s-1.6-1.7-2.8-1.9C28.7,9.7,25.8,12.5,22.3,12.6Z"/><path class="cls-3" d="M356.4,64.4c-1.3,1.5-3.8,1.7-4.4,4.1,0,.2-1,.4-1.6.4s-1.6-.5-2.3-.3-2.8.5-3.7-1.5-2.1-1.7-3.6-1.8h-4.7c1.2-14.6.3-29.3.6-43.9,0-2.3.5-5-3.4-4.8-.4-5.4.6-5,5-4.9,2.1,0,2.6.5,2.6,2.6s.1,4.1,0,6.2a4.1,4.1,0,0,1-.4,2.3c-2.5,2.8-.8,5.6.2,8s1.2,3.1.4,4.9a16.7,16.7,0,0,0-.8,3.2,6.6,6.6,0,0,0,0,2.8,6.9,6.9,0,0,1,0,5.1,2.9,2.9,0,0,0,3.5,3.7l2.8-.4a1.8,1.8,0,0,1,1.9,1.1,20.1,20.1,0,0,0,1.4,2.5,1.3,1.3,0,0,0,2.3-.4c1.6-3.9.9-7.8.1-11.7-1.4-1.4-2.6-3.2-4.8-3.5a1.9,1.9,0,0,1-1.6-1.5,13.3,13.3,0,0,1-1.1-5.6c.1-2.6-.2-5.1.1-7.7s.2-6.1,3-8.1c.4-.4.5-1.2.8-1.7s.5-1.4,1-1.5,3.3-1.1,3.4-3.4a1.9,1.9,0,0,1,1.1-.4,24.5,24.5,0,0,0,2.7.2c2.5-.2,2.5-.3,3.2,2.2.1.3.1.6.2.9l-.6.4c-7.1.2-9.7,5.3-11.6,10.9s-1.8,10.8,3.9,14.8,6.1,12.5,3.4,17.6-6.4,5.3-9.8,1.2c-1.8-2.1-2.7-1-3.3.7-1.4,3.9,2.2,8,6.6,7.6,2.3-.2,4.5-1.6,7-.7Z"/><path class="cls-5" d="M367.9,60.3V42.6c.7-8.4.4-16.8.9-25.2.1-1.8.4-3.5,2.3-4.3s3.4-.7,4.3,1.4h0c3,5.8,2.1,12.2,1.4,18.2-1,7.9-.5,15.8-.8,23.7-.1,1.3.4,2.8-.6,4.1h.1c-.9,1.3-.1,2.9-.9,4.2s-1.2,3.2-3.2,3-2.9-1.7-3.1-3.6S368.6,61.4,367.9,60.3Z"/><path class="cls-3" d="M191.2,47c-2.8-.8-3.7-.4-3.8,2.1s-.1,7.6,0,11.4a23.8,23.8,0,0,1-1.1,7,1.8,1.8,0,0,1-2,1.6,18.2,18.2,0,0,1-3.3,0,10.2,10.2,0,0,0-6,.5c-1.6.7-2.8-.3-4.1-.8s-.6-.7-.7-1.1-.1-1.6-.2-2.4h.8c4.6,1.5,5.5,1,5.6-3.6q.2-21.3,0-42.6a14.5,14.5,0,0,0-.4-2.9c-.6-1.8-.1-4.7-2.8-4.9s-3.1,2.3-4.4,3.9-.8,6.5-4.4,7.9c-2.4-5.9-.2-12.4,5-15.1a3.2,3.2,0,0,1,3.6-.2h1.9c4.6-2,6.2,2.4,8.9,4.4a40.3,40.3,0,0,1-.3,10.4c-1.5,10.5-1.8,21-2.3,31.5-.2,3-.3,6.3,2.2,8.9,2-1.6,1.5-3.6,1.6-5.5v-21c0-1.8-.1-3.5.8-5.2a1.7,1.7,0,0,1,1.3-.8C191,35.4,193.1,40.7,191.2,47Z"/><path class="cls-6" d="M333.3,16.5c.1-.1.3-.2.3-.4s1.2-2.9,3.1-2.3,1.7,2.1,1.7,3.6,0,4.4,0,6.7l-.3,30.1c0,1.9-.1,3.8-.1,5.7a7.2,7.2,0,0,1-1.9,5.3h0c-1.9,1.3-3.3.2-4.6-1.1h0a25.3,25.3,0,0,1-.3-3.8c.5-11.5,1.1-22.9,1.7-34.4.2-2.9.3-5.7.4-8.6A.6.6,0,0,0,333.3,16.5Z"/><path class="cls-1" d="M173,7.7c-3.6.2-5.5,3-7.2,5.4s-1.1,4.2-1.4,6.3a24.1,24.1,0,0,0,0,3.8l-.4.5c-2.7,1.7-1.4,4.5-1.9,6.9s-.2,4.7-.8,7a3.8,3.8,0,0,1-.6,1.3c-2.5,2.2-2.6,5.2-2.8,8.2s.1,3.5-.5,5.2a3.5,3.5,0,0,1-.8,1.3c-4.1,1.6-7.2.1-8.4-4.5-.8-3-1.1-6.1-2.5-9s1.8-4.8,2.7-7.2c3.5-1.5,3-4.8,3.7-7.6a3.7,3.7,0,0,1,1.7-2.2c2.4,1.4,2.8,3.4,2,6.1s-.9,3.7-2.3,5.1-3.3,5.7-1.8,9.2a5.9,5.9,0,0,1,.2,1.4c.4,1.2,1.3,2,2,1.7s.8-1.3.8-2.1a13.9,13.9,0,0,1,2-7.7,8.5,8.5,0,0,0,.9-3.1c.1-2.1,0-4.2,0-6.3s.6-5,3.2-6.4a3.5,3.5,0,0,0,1.6-3.3,12.1,12.1,0,0,0,0-1.9,6.4,6.4,0,0,1,2.5-6.3,6.7,6.7,0,0,0,1.4-1.9,3.2,3.2,0,0,1,3.1-1.8C171,5.8,172.3,6.2,173,7.7Z"/><path class="cls-3" d="M130.7,8.7l1.9-1h11.6c6.1-.9,10.3,4.4,8.6,10.7-2,.1-2.6-1.6-3.6-2.8a18,18,0,0,0-4.4-4.3c-6.2-3.6-11.5-.6-11.8,6.3-.6,13.7-2.3,27.3-1.9,41.1a6.1,6.1,0,0,1-.8,3.2l-.6.6-1.5-1.2c-1.6-1.2-2.1-2.5-1-4.4a14.3,14.3,0,0,0,1.4-9.3c0-.5-.7-1.1-1.2-1.2a1.9,1.9,0,0,0-1.3,1c-.7,2.8-1.6,5.5-4,7.4l-.5-.4c-1.2-3.7-1.5-7.1,2-9.9,1.8-1.4,1-2.5-.9-2.8a12.4,12.4,0,0,0-4.3.4c-4.7.9-4.7.9-2.1,4.6s-1,12.8-4.8,14.1-4.6-.7-4.8-4.1a13.4,13.4,0,0,0,1.8.7,2.4,2.4,0,0,0,3.2-1.2,25.6,25.6,0,0,1,2-2.6,1.6,1.6,0,0,0,.2-2.2c-1.9-1.5-1.7-4-2.9-5.9s-.4-4.6.6-7.1h16.2a1.9,1.9,0,0,0,1.9-1.8V33.7a85.1,85.1,0,0,0,0-10.1c-.3-4.1,1.1-8.1.2-12.2-.2-.8.5-1.8.8-2.7Z"/><path class="cls-3" d="M360.3,11.4l4,.4c-.6,4,0,7.9.2,11.8a24.7,24.7,0,0,1-.8,6c-.1.5-.9.9-1.4,1.1s-3,.6-2.9,2.5,1.6,1.9,2.7,2.2,1.3,1.2,1.4,2.5a90.8,90.8,0,0,1,.5,12.8c0,2.2.2,4.4-.6,6.6s.2,1.8.2,2.7a1.9,1.9,0,0,1-.5,1.2c-1.7.4-2.7,1.7-4,2.6a11.8,11.8,0,0,1-2.7.6l-.3-.3c-.1-1.4.8-2.3,1.5-3.4,6.9-10,5.1-20.9-4.5-28a5.8,5.8,0,0,1-2.7-5.3,23.7,23.7,0,0,1,3.3-9.9c.7-1.3,1.7-2.5,3.4-2.1s2,1.8,2.2,3.3,0,5.1.5,8.5c2.1-5.8.2-10.7.3-15.6Z"/><path class="cls-3" d="M539.7,69.2c-.5-.2-1.2-.2-1.3-.5-1.2-2.1-2.1-4.3-1.3-6.8a15.3,15.3,0,0,0,.1-8.5c-.4-1.3-.2-2.8-.4-4.2A7.2,7.2,0,0,0,536,47a2.4,2.4,0,0,0-1.7-.2c-.3.1-.6.7-.8,1.1a3.1,3.1,0,0,1-3.4,2.1h-1c-5.4,1.7-5.4,2-3.7,6.4,1.1,2.8.5,4.9-.8,7.3a3,3,0,0,1-3.2,1.5,1.9,1.9,0,0,0-.2-.7c2-7.3-.4-14.6-.2-21.9a36.9,36.9,0,0,1,.3-5.8c.2-.9.4-2,1.5-2.2s1.6.9,2.1,1.7a22.8,22.8,0,0,1,1.5,3.6c.8,1.8,1,4.4,3.5,4.7s3.3-2.6,4.5-4.4a16.5,16.5,0,0,1,2.2-3.6c1.4-1.6,2.4-1.2,3,.7a9.1,9.1,0,0,1,.4,3.3c0,9.2.1,18.5,0,27.8Z"/><path class="cls-3" d="M490.6,57.7c.6,1.3,1,2.7,1.7,3.9,3.4,4.9,7.7,6,13.6,3.5a7.6,7.6,0,0,1,.1,1.5c-.1,2-.7,2.6-2.5,2.5s-3.6-.8-5.6-.1-2.3.1-3.4-2.1a3.5,3.5,0,0,0-1.1-1.5,13,13,0,0,1-3.5-3.1,1.4,1.4,0,0,0-2.4.3c-.7,2.3-2.6,2.6-4.4,2.7-4.5.1-9,0-13.4,0-1.3,0-2-.6-1.8-1.7.5-2.9-.9-5-2.8-6.7a3.9,3.9,0,0,1-1.3-2.9c.1-4.4,0-8.7.1-13,0-1.4.7-2.8.8-4.2s1.4-2.3,3-2.2l-1.5,13.3A20.8,20.8,0,0,0,468,58.6a8.9,8.9,0,0,0,8.6,5.7H478c5.2.4,8.9-1.7,10.9-6.6C489.5,57,490,57.1,490.6,57.7Z"/><path class="cls-3" d="M544.5,11.5c1.6,0,2.9.3,2.9,2.3s1,2.3.4,3.7a2.2,2.2,0,0,0,.2,1.8c1.5,1.6,1.2,3.5,1.3,5.4a76,76,0,0,1-1.7,18.4,15.9,15.9,0,0,0-.2,3.8c-.1,5.7,0,11.4,0,17.1a19.3,19.3,0,0,1-.1,2.4c-.1,2.2-.1,2.2-2.8,2.8a3,3,0,0,1-.4-.8c.1-11.9-.8-23.8.7-35.7.9-6.8-.9-13.6-.7-20.4Z"/><path class="cls-3" d="M3,36.5c.2-3.6-.4-7.3.8-10.8.3-.8-.3-1.9-.3-2.8s-.7-4.1-.3-6.1S3.3,11,3.9,8c2.2-.9,4,.2,5.9,1a2.4,2.4,0,0,1,.8,1.6,11,11,0,0,1,.2,1.8l-.2.2c-2.9.3-4.4,1.7-4.3,4.7.4,12.4-1.6,24.8-1,37.2.3,6.5,1.5,7.6,7.8,6.4,1.7-.3,3.5-.9,5.1.3l.2.3c.3,3.8-1.8,5.1-5.2,5.1H9.4C2.1,66.6.4,64,3,56.7Z"/><path class="cls-3" d="M220,7.7a3.5,3.5,0,0,1,2.3,1.4,17.9,17.9,0,0,0,4.2,3,25.5,25.5,0,0,1,5.6,4.8,6.4,6.4,0,0,1,1.3,3.4,24.1,24.1,0,0,1,0,3.8c-3-.3-3.3-3.2-4.6-5.1-2.3-3.5-5.2-5.9-9.7-6-2.6-.1-4.3.9-4.4,3.7-.3,9-2,17.8-2.1,26.8,0,2,.7,4.6-2.1,5.8,0-7-.5-14,.3-20.9a47.3,47.3,0,0,0-.4-5.2c0-1.3-.3-2.8,1-3.9s.7-2.2,0-3.4-1.4-2.8.8-4.2a4.1,4.1,0,0,0,2-4Z"/><path class="cls-1" d="M183.6,11.7c-1.7-.2-3.4.2-4.2-2.1s-2.7-1.9-4.5-1.9c1.5-2.7,4-2.2,6.2-1.5a15,15,0,0,0,3.5.9c2.9.3,5.2,2.1,7.7,3.4a4.7,4.7,0,0,1,1.7,2.7c.5,2,.8,4,1.2,6.2l3.6-2.1a2.9,2.9,0,0,1,1,2.6,7.7,7.7,0,0,1-.2,1.5c-1.6,6.3-1.8,6.3-8.1,2.5a2.8,2.8,0,0,1-.9-1c-1.5-2.9.9-6.7-2.2-9.1l-1.1-.6-.9-.5a3.1,3.1,0,0,1-1-.5l-1.4-.4Z"/><path class="cls-3" d="M407,11.8l-.9-.3c-2.7-.7-4.2-.1-4.7,2.4a68.8,68.8,0,0,0-1,9c-.2,6.6-.1,13.1-.1,19.6a16.7,16.7,0,0,1-.3,3.8c-2.1-2.5-4.4-8.1-5.5-13.6,1.2.3,1.6,2.4,3.2,1.5s.7-2.3.8-3.5c.2-2.8-.4-5.7.7-8.4.3-.5,0-1.3-.1-1.9s-.4-1.5-.5-2.3c-.5-4.7-.2-5.3,3.4-8.5.8-.7,1.5-2,2.7-1.5A3.3,3.3,0,0,1,407,11.8Z"/><path class="cls-1" d="M3,56.7c.3,2.8.6,5.5.9,8.6h9.4a6.7,6.7,0,0,0,3.2-.4c.6-.3.6-1.5,1-2.3a8.7,8.7,0,0,1,.9-1.1c1.3,0,2.9-.1,3.3,1.2s2.6,2.7,4.4,3.6c-.9,1.7-1.7,2.4-2.7,1.7s-4.6-.8-7.1-.3S9,69.5,5.1,68.3C2.7,67.6.9,66.4.4,64.1s-.8-5.2,1.8-6.9Z"/><path class="cls-3" d="M375.4,60.5c.1-9.3.3-18.5.3-27.8,0-6.1-.2-12.2-.3-18.2a4.7,4.7,0,0,1,3,4.8c.2,3.9,1.3,7.7,1.1,11.7a11.7,11.7,0,0,0,.8,3.6c-2.9.4-3.9,2.3-3.8,5V57.1C376.5,58.3,376.7,59.6,375.4,60.5Z"/><path class="cls-3" d="M521.5,19.2c3.9.8,5.6,3.7,6.7,7.2a18.1,18.1,0,0,0,1.3,3.5c.3.5,1.4.7,2.1.6s1.1-.8,1.2-1.2c.2-2.7.1-5.4,1.1-8,.2-.4.2-1.2.5-1.3,2.8-.9,2.1-3.5,2.9-5.5s1.3-2.9,3.3-3l.3.7c-2.2,6.7-3.5,13.8-6.6,20.3-.8,1.7-1.5,4-3.6,4s-2.7-2.4-3.4-4.1a56.6,56.6,0,0,0-4.8-8.7c-.8-1.3-2.1-2.5-1.3-4.3Z"/><path class="cls-3" d="M386.8,67.2c.5-8.6.9-17.2,1.4-25.9a3.6,3.6,0,0,1,.2-1.4c0-.2.3-.5.5-.6a1,1,0,0,1,.7.4l5.3,15.9-2.1-.8c-1.8-1.2-1.8-1.2-2,1.1a2.9,2.9,0,0,1-1.3,2.4c-1.3.7-1.5,1.9-1.5,3.2a24.1,24.1,0,0,1-.1,3.8C387.8,66,387.2,66.5,386.8,67.2Z"/><path class="cls-3" d="M95.2,44.2c.1-1.1.1-2.2.3-3.3s.5-1,.3-1.3c-1.8-4,1-6.3,3.3-8.8,1.8,2.3,1.2,4.9.9,7.4-.9,5.2-.5,10.4-.5,15.7s2.3,7.2,3.6,10.7l-.3.8c-1.9,0-3.5-.5-3.8-2.7a1.9,1.9,0,0,0-.7-1.3c-2.6-1.6-1.9-4.3-1.5-6.3s-.3-4.3-1.6-6.1Z"/><path class="cls-3" d="M383.2,31.7c0,1.6,0,3.2-.1,4.8-.7,8.4-1.5,16.7-2.2,25.1a28.5,28.5,0,0,0-.3,2.9c.1,2.9.9,3.7,4.4,4.4-.3.4-.6,1-.9,1-2.8.1-4.6-1.5-4.7-4.1s0-5.4-.1-8.1.6-5.4.1-8.1a3,3,0,0,1,.1-2.3,4.3,4.3,0,0,0,.4-4.8,4.4,4.4,0,0,1-.1-3.2,24.2,24.2,0,0,0,.5-4.7,1.9,1.9,0,0,0,2-1.5C382.4,32.6,382.9,32.2,383.2,31.7Z"/><path class="cls-3" d="M298.7,64.4c.3,2.4-.3,4.4-2.9,5.2a6,6,0,0,1-2.3.2,23,23,0,0,1-2.8-.6c-2.6-.5-4-2.2-3.3-4.7a11.1,11.1,0,0,0-.1-6.5,15.8,15.8,0,0,1-.1-3.8c0-7.8-.1-15.5-.1-23.3l.2-.2c2.5.7,2.2,2.9,2.1,4.6-.2,7.4,1.5,14.6,1.1,21.9a15.8,15.8,0,0,0,.5,4.3c1.1,5.2,2.4,5.7,7,2.8Z"/><path class="cls-1" d="M152.6,18.6c.5-2.3-.7-4.2-1.2-6.4-2.3-.7-2.7-3.8-5.4-4.1a5.8,5.8,0,0,1-1.8-.4c.1-.8.3-1.6,1.2-1.7a9.7,9.7,0,0,1,3.4-.1,5.2,5.2,0,0,1,2,.9c.7.6,1.1,1.6,1.9,2.1,3.8,2.6,3.5,6.4,2.8,10.2-.1.8-1.1,1.4-1.7,2.1a2.8,2.8,0,0,1-1.2-1.4A2.4,2.4,0,0,1,152.6,18.6Z"/><path class="cls-3" d="M394.6,32.8c-.9-2.7-1.9-5.3-2.8-8s-2-6.4-4-9.2l-.9-1.1c-.8-1-1.7-1-2.8.1a12.5,12.5,0,0,0-.8,1.2c.1-4.5.6-4.8,4.6-3.5a3.7,3.7,0,0,1,2.7,3,13.1,13.1,0,0,0,3,6.4,5.2,5.2,0,0,1,1.1,3C394.8,27.4,394.6,30.1,394.6,32.8Z"/><path class="cls-3" d="M452.4,57.6c3,1.3,3.4,2,1.8,4.3s-2.1,4-4.6,4.5l-.4.2c-1.7,4-5,2.1-7.9,2.6-.1-3.9-1.4-7.3.5-10.6l2.8-1,.3.6a5,5,0,0,1-.4,1.3c-.7,1.9-2.4,4.1.7,5a4.3,4.3,0,0,0,5.7-2.9c.5-1.1.3-2.5,1-3.6Z"/><path class="cls-3" d="M375.4,14.5a9.9,9.9,0,0,0-2-1.1,2.9,2.9,0,0,0-3.6,2.3c-.1.8-.1,1.6-.2,2.4-.3,6.6-.6,13.2-1,19.9a36.5,36.5,0,0,1-.7,4.6c0-8.3-.1-16.6,0-24.9a29.7,29.7,0,0,1,.9-5.2h0c1.9-.2,3.6-1.4,5.6-.8a2.1,2.1,0,0,1,1.4,1C376,13.2,375.6,13.9,375.4,14.5Z"/><path class="cls-3" d="M333.3,3.8a6.5,6.5,0,0,1,.2-1.1A3.4,3.4,0,0,1,337.8.1a3.8,3.8,0,0,1,2.9,4.2c-.4,3.4-1.4,4-4.7,2.9-.3-.1-.5-.3-.8-.3S333.2,5.9,333.3,3.8Z"/><path class="cls-3" d="M369.3.5c.4,0,1-.2,1.3,0s2.9-.9,3.5.4.9,3.6,1.2,5.4-.7,1.2-1.2,1.2a14.8,14.8,0,0,1-4.2,0A2.3,2.3,0,0,1,368,4.7C368.4,3.3,368.8,2,369.3.5Z"/><path class="cls-3" d="M302.7,45.3c-.1,4.2-.1,8.5-.1,12.7,0,1.7-.1,3-2,3.8s-1.3,1.7-1.9,2.6v-.2c-2.3-5.6,1.1-10.7,1.6-16,.1-1.3.4-3,2.3-3.1Z"/><path class="cls-3" d="M199,20.4c-.1-1-.1-2.1-.2-3.1V14.4c.1-1.5.1-3.1.2-4.6a2.4,2.4,0,0,1,2.8-1.9l1.8.6c2.8.8,2.8.8,2.8,4.1-3.7-.6-5.6.6-5.5,4.6C200.9,18.5,200.9,20.1,199,20.4Z"/><path class="cls-3" d="M429.2,52.2a26.1,26.1,0,0,1-.6-2.7,28.3,28.3,0,0,0-3.2-12c-.8-1.6-1.1-3,1.3-3.3l.7.4c-.6,1.1-.8,2.3.2,3s1.7,3.3,1.7,5.2S429.2,49.1,429.2,52.2Z"/><path class="cls-3" d="M367.9,60.3l.9,3.1a7.1,7.1,0,0,0,.7,2.2,2,2,0,0,0,2.2,1.4,3,3,0,0,0,1.8-1.3,21.7,21.7,0,0,0,1.2-3.6l.8-1.7a12.8,12.8,0,0,1-.1,3.4,10,10,0,0,1-1.9,3.7,2.7,2.7,0,0,1-3.4.8c-1.2-.6-2.2-1.3-2.2-2.8Z"/><path class="cls-3" d="M444.6,57.6c0-.9.1-1.9.1-2.8a12,12,0,0,1,7.5,0c.1.9.1,1.8.2,2.8l-.3.2c-2.4.1-4.9.8-7.3,0Z"/><path class="cls-3" d="M427.3,32.4c.6-3.5,1.2-7.1,1.9-10.6,0,3.5,0,7,.1,10.5a2.1,2.1,0,0,1-1.9,2.3h0A1.7,1.7,0,0,1,427.3,32.4Z"/><path class="cls-3" d="M383.3,16a34,34,0,0,1,0,14.2Z"/><path class="cls-3" d="M540.6,11.5a3.2,3.2,0,0,1,.6-1.7,3.6,3.6,0,0,1,2.1-1.4c1,.1,1.1,1.3,1.2,2.2v.9l-.3.4a2.7,2.7,0,0,1-3.4-.2Z"/><path class="cls-3" d="M505.9,65.1c1.3-1.9,2.6-3.8,3.8-5.7,0,1-.1,2.1-.2,3.1C509,65.1,509,65.1,505.9,65.1Z"/><path class="cls-3" d="M469.8,27.1c-.6,2.3-1.3,4.6-2,7,0-1.9-.1-3.8,0-5.6S468.8,27.1,469.8,27.1Z"/><path class="cls-3" d="M471.5,23.1c-.5,1.3-1.1,2.6-1.7,4C468.4,24.2,468.5,23.9,471.5,23.1Z"/><path class="cls-3" d="M544.5,69.2a8.7,8.7,0,0,1-1.1.9c-1.9,1.1-2,1.1-3.7-.9l.2-.3a3.6,3.6,0,0,1,4.4,0Z"/><path class="cls-3" d="M152.7,19.2l1.1,2v1.9l-.9,2-.6-.6C151.5,22.7,151.3,20.9,152.7,19.2Z"/><path class="cls-3" d="M331.5,64.1a6.8,6.8,0,0,0,4.6,1.1C333.8,66.9,333,66.7,331.5,64.1Z"/><path class="cls-3" d="M521.4,65.3c-1.4,1.2-1.4,1.2-2.9,0l.3-.3a2.1,2.1,0,0,1,2.5.1Z"/><path class="cls-3" d="M384.9,69l2-2C386.7,68.8,386.7,68.8,384.9,69Z"/><polygon class="cls-3" points="441.8 58.6 441.4 58.4 441.5 58.2 441.8 58.6"/><path class="cls-3" d="M368.8,12.5l-.4-.2.4.2Z"/><path class="cls-3" d="M309.3,8.7l.2-.4-.2.4Z"/><path class="cls-7" d="M199,20.4c.2-1.2.5-2.4.7-3.7s.1-1.9.3-2.8c.7-3.1,3-3.8,5.6-1.9l.8.6h0a4.2,4.2,0,0,1,0,4.7h.1c-.5,8.7-1,17.3-1.7,26-.5,6.1-1.7,12.1-2.1,18.3a.6.6,0,0,0-.1.7c-.6,2-.2,4.7-3.4,4.9s-3.4-2.5-4.1-4.7h0c-3.9-4.5-2.7-10.2-3.9-15.4h0c-.2-5.6-2.1-10.9-3.9-16.2a1.6,1.6,0,0,1-.3-1.6c-.2.5-.1,1.1-.5,1.6-.1,8.5-.2,16.9-.2,25.4,0,1.9.1,3.8.1,5.7a4.6,4.6,0,0,1-.6,2.3,2.7,2.7,0,0,1-4.7.1,6.5,6.5,0,0,1-.8-2.7,111.7,111.7,0,0,1-.3-15.3c.5-10.1,1.8-20,2.4-30.1.1-1.6,0-3.2,1.2-4.5h0a1.2,1.2,0,0,1,1.8-.1c.2.3.4.3.6.2a1.8,1.8,0,0,1,1.3.9h-.1c2.9,3,2.9,7,3.9,10.6H191c3.5,4.5,4.2,10.2,5.9,15.4a17.9,17.9,0,0,0,.2,2.3c0,.6.9-.2.3.2s.1.1-.2-.4a4,4,0,0,1-.2-1.9c-.3-6,.9-11.8,1.9-17.7A.5.5,0,0,0,199,20.4Z"/><path class="cls-2" d="M210.5,49.3a5.9,5.9,0,0,0,.5-1.9c.7-8.7,1.4-17.4,2-26.2.1-2.1.1-4.1.1-6.2s.6-3.2,3.3-3.6c5.3-.7,9.5,1.1,12.5,5.4,1.6,2.3,3,4.8,4.5,7.3h0a6.1,6.1,0,0,1,2.1,4.1c.6,9.9.9,19.8-3,29.2-3.1,7.4-8.6,11.2-16.1,11.3-4.1,0-6.8-2.4-7.3-6.5a25.5,25.5,0,0,1,1.3-11.3Z"/><path class="cls-3" d="M210.4,50.9c0,3.8-.1,7.7-.1,11.5a5.8,5.8,0,0,0,1,3.6,5.5,5.5,0,0,0,5.8,2.3c6.3-1,11-3.9,13.6-10A39,39,0,0,0,234.1,45c.4-5.1.3-10.2.3-15.3a50.3,50.3,0,0,0-1-5.6,5.3,5.3,0,0,0,4.5-3.1c.2-.4.4-1,.8-1.2,2.8-.9,2.9-3.6,3.1-5.7s.4-2.5,2.1-2.8,1.3-1.1,1.4-1.8,1.2-1.9,2.7-1.8h2.3A2.9,2.9,0,0,1,252.8,9a17.1,17.1,0,0,0,2.2,2.5,4.8,4.8,0,0,1,1.5,3.8c-.1,3,.1,4-3.6,4-1.2,0-3,0-3.5.7a5.4,5.4,0,0,0-.7,5c.1.6.1,1.2.2,1.9l-.5.4c-2.9.7-3.6-1.1-3.3-3.2s1.2-6.1,4.6-7.3c1.8-.5,3.1-1.5,2-3.4s-2.5-.9-3.8-.1c-6.8,4.2-7.7,14.2-1.8,19.3a9.7,9.7,0,0,1,2.9,3.8c3.2,7.4,2.6,14.7-1.2,21.7-1.9,3.4-3.7,3.6-6.4,1.3-1.1-.9-1.9-2.5-3.6-1.2s-1.1,2.8-.4,4.4c2.2,4.6,7,5.5,11.3,2.5s4.3-6.7,7.1-9.5h.7c-.2,1.7-.5,3.5-.7,5.2a18.5,18.5,0,0,0,.1,2.3c.1,1-.1,1.7-1.2,1.6s-1.6.6-2,1.6a6.8,6.8,0,0,1-1,2.1,3.2,3.2,0,0,1-2,1l-9.6-.3c-1.3-.1-2.3-.3-3-1.8a23.8,23.8,0,0,0-3.5-5,2.1,2.1,0,0,0-3.3,0l-.3.4-5.3,6c-3.6.1-7.3.3-10.9.2a3.5,3.5,0,0,1-2.6-1.1c-1.6-2-4.2-3.6-3.7-6.8a4.9,4.9,0,0,0-.4-2.4c-.7-1.5-.3-2.6.8-3.9A32.2,32.2,0,0,0,210.4,50.9Z"/><path class="cls-3" d="M149,32.7a6.5,6.5,0,0,1-2.2,5.1,1.5,1.5,0,0,0-.1,2.5c2.2,1.9,2.5,4.3,2.3,6.9s2.2,4.3,3.7,6.3c.2.3.9.3,1.3.2l2.7-.8c2.1,2.7-.6,5.6.5,8.5,1.4-.6,1.2-2.5,2.7-3l.6.2-.6,6.4-1.7.3c-2.4-.1-4.7,0-6,2.7-.3.6-1.5,1-2.4,1.1a21.6,21.6,0,0,1-3.6,0c-1.4-2.5-1-5.1-1.2-7.5l.7-.3c1.9.3,2.4,4.4,4.8,2.6s-.3-3.9-.9-5.8c-1.6-5-3.2-10-5-14.9s-1.3-7.2,3.8-10.7Z"/><path class="cls-3" d="M145,61.6c-2.8-.7-3.7-1.4-3.3-3.6s-.8-4.6-.7-7c.1-.5-.9-1.3-1.5-1.6s-1.9.7-1.9,1.7c-.1,2.6-.2,5.1-.2,7.7s.2,3.8-.9,5.6h0a5,5,0,0,1-6-.3c-.4-.4-.5-1.1-.8-1.6l.3-.2c4.5-.4,5.4-3.2,4.7-7.1a37.3,37.3,0,0,1-.4-10c.2-2.2.9-4.2,3.5-4.6s3.5,1.6,4.1,3.7c1.2,4.3,2.5,8.6,3.6,12.9.4,1.4.8,2.9-.2,4.2Z"/><path class="cls-3" d="M202.7,61.5c-.3-7.5.5-15,1.2-22.5l1.5-15.7c.2-2.1-.1-4.2,1.1-6.1.1,5.8.3,11.5.4,17.3a3.7,3.7,0,0,1-.5,1.7c-1.2,1.8-.8,3.7-.5,5.6s.5,3.4.6,5.2a3.4,3.4,0,0,1-1.5,3.7,3.1,3.1,0,0,0-1.3,2.9v5.3A2.9,2.9,0,0,1,202.7,61.5Z"/><path class="cls-3" d="M122.1,54.8a16,16,0,0,1-.1,3.8c-.4,2.8.2,6.1-3.1,7.7-.4.2-.4.9-.7,1.3s-.5.9-.9.9c-3.6.3-7.2.6-10.8.6s-3-.3-3.7-3.7l.2-.2c1-.8,2-.2,3.1.1,6.6,2.1,9.7.6,12.7-5.8.8-1.8.5-4.3,3.1-4.9Z"/><path class="cls-3" d="M170,65.3a3.1,3.1,0,0,1-1.2-3.3,14.2,14.2,0,0,0-.4-7.9,3.7,3.7,0,0,1,.1-1.8c.1-.7.7-1.7-.4-1.9a3.7,3.7,0,0,0-2.1.8c-.4.4-.5,1.1-.9,1.6-1.3,2.1-2.2,4.6-4.6,5.8l-.2-.2c-1.8-6.6,2.3-11.6,8.9-11,1.6.2,2.7.9,2.5,2.3-.7,5.2,1,10.6-1.5,15.5Z"/><path class="cls-3" d="M256.6,36.5c.1.1.2.1.3.3s2.5,1.9,2.7,3.1a65.4,65.4,0,0,1,.6,8.9,2.6,2.6,0,0,1-.7,1.7c-1.7,1.4-1.7,3.7-3,5.2h-.2c-.2-.3-.6-.5-.6-.8-.1-5.9-.6-11.9.3-17.8Z"/><path class="cls-3" d="M195.1,62.4a17.9,17.9,0,0,0,1.2,2.4c1.5,2.3,4.2,2,5.5-.4a14.3,14.3,0,0,0,.8-2.2,24,24,0,0,1,.3,3.7c-.3,3-1.5,3.9-4.3,3.6a6,6,0,0,1-2.3-.6,1.8,1.8,0,0,1-1.1-1.3A45.1,45.1,0,0,1,195.1,62.4Z"/><path class="cls-3" d="M191.2,47l3.4,12.7c.2.9.3,1.8.5,2.7l-2.2-.9c-1.4-.3-1.7-1.3-1.7-2.5Z"/><path class="cls-3" d="M248.9,26.9c2.5-.4,4.1,1,5.5,2.8s3.1,4,2.2,6.8l-.3.2c-3.4-2.5-5.1-6.4-7.7-9.6Z"/><path class="cls-3" d="M206.4,17.3V12.6C207.9,14.5,207.9,15.3,206.4,17.3Z"/><path class="cls-3" d="M136.5,64.4l.4.2-.4-.2Z"/><path class="cls-8" d="M496.8,47.2c.6-3.7.9-7.5,1.6-11.3a31.1,31.1,0,0,1,3.8-9.7c.6-1.1,1.3-1.1,2.3-.3a5.2,5.2,0,0,1,2.6,3.8c1,8.5.7,16.8-2.3,24.9a18.6,18.6,0,0,1-2.5,4.6,1.6,1.6,0,0,1-2.5.4,5.1,5.1,0,0,1-2.6-4.2c-.1-2.7-.1-5.4-.1-8.1Z"/><path class="cls-9" d="M490.6,57.7h-1.7a8.7,8.7,0,0,1,.7-1.7c.1-.3.4-.4.7-.6a5.9,5.9,0,0,0,.4.8C490.7,56.8,490.6,57.3,490.6,57.7Z"/><path class="cls-10" d="M521.3,65.1h-2.5c-1.8-1.7-1.7-4-1.8-6.2-.2-8.4-.3-16.7-.4-25,0-4.1,0-8.3-.1-12.4s1.1-3.6,3.9-2.5l.8.5a9.1,9.1,0,0,0,.9,1.7,50.9,50.9,0,0,1,7.4,13.3,17.8,17.8,0,0,0,1,2.1,17.4,17.4,0,0,0,1.5-2.2,71.4,71.4,0,0,0,5.9-16.2c.5-2.3,1.1-4.6,2.9-6.4l3.4.2a6.9,6.9,0,0,1,1.5,4.4,121.7,121.7,0,0,1,.2,19.1c-.2,4.2-.2,8.5-.2,12.8V63.5a8.5,8.5,0,0,1-1.4,5.4h-4.4c-1.4-1.7-1.4-3.8-1.4-5.9V36.7c-1.1-.3-1.2.7-1.5,1.3s-1.6,3.4-2.5,5.2a8.2,8.2,0,0,1-1.2,2c-1.9,2.4-4.7,2.3-6.3-.2a19.2,19.2,0,0,1-1.7-3.9c-.6-1.7-1.2-3.4-1.7-5s-.4-.5-.5-.8-.8.8-.8,1.3l.6,14.8.3,9A5.5,5.5,0,0,1,521.3,65.1Z"/><path class="cls-7" d="M44.4,61.3a18.9,18.9,0,0,1-.9-2.1c-.8-3.4-.7-6.5,2.1-9.1a.4.4,0,0,0,.6-.2,1.3,1.3,0,0,1,1.9.1h0c2.2-.1,1.9,4,4.1,2.8s1.5-3.6,1.8-5.6a19.2,19.2,0,0,0-1-9.8h.1c-2.2-1.7-4.2-3.3-6.9-4.1-4.3-1.2-4-5.2-4.7-8.6V22.5c.8-2.5.3-5,.8-7.6s3.5-6.4,6.5-8.4,7.2-.6,9,2.8,1.1,5.5.9,8.4a3.1,3.1,0,0,1-3.1,3.1c-1.8.1-2.4-1.2-2.8-2.7s0-2.3-.9-3.2c-3.4,3.6-3.4,7.4,0,12.1H52c4.8.9,7.6,3.8,8.6,8.6h0c4.9,8,2.7,20.3-4.5,25.8-4,3.1-7.6,3-11.7-.1Z"/><path class="cls-3" d="M51.9,27c-3.4-.9-3.7-1.1-3.8-3.8s-.1-6.7,2-9.6a6.5,6.5,0,0,1,1.6-1.7,1.2,1.2,0,0,1,1.6.4c.2,1.1.4,2.2.5,3.3s.2,2.5.5,3.7a2,2,0,0,0,1.5,1,1.9,1.9,0,0,0,1.3-1,17.2,17.2,0,0,0,.1-9c-1.2-3.7-4.6-5-8-3a11.5,11.5,0,0,0-4.8,5.2c-.9,2-1.4,4.2-2.1,6.3s-.5,2.5-.8,3.7c0-2.4-.2-4.8,0-7.2s.5-5.4,3.3-6.9A4.4,4.4,0,0,0,46.1,7c2-3.4,5.2-3.3,8.4-3a6.3,6.3,0,0,1,2.4,1.5,12.6,12.6,0,0,0,2.4,2.2,2.2,2.2,0,0,1,1.2,2.8,8.3,8.3,0,0,0-.1,6c.7,2.4-.8,4.7-3.2,5.6S52.4,23.9,51.9,27Z"/><path class="cls-3" d="M44.4,61.3c6.2,3.7,16.1-.6,17.3-10.1a39.4,39.4,0,0,0-.6-12.8c-.2-.9-.3-1.9-.5-2.8l1.3.6a3.6,3.6,0,0,1,2.6,4.1c-.2,1.2-.3,2.5-.4,3.8a5.5,5.5,0,0,0-.1,1.8c.8,4.4-.8,8.1-3,11.7a8.7,8.7,0,0,1-1.6,1.7c-.7.7-1.6,1.3-1.9,2.2-1.6,3.5-4.4,4.3-7.9,3.8h-.5c-2.5.4-3.9-.6-4.4-3.1Z"/><path class="cls-3" d="M53,37.4a9.4,9.4,0,0,1,1.3,2.4,30.7,30.7,0,0,1,.8,10.5,6.3,6.3,0,0,1-2.4,4.5c-1,.9-2.7,1.3-2.9.7a4.9,4.9,0,0,1-.1-2.1c.2-1.5-.9-2.3-1.6-3.4,1.4-.1,3.1.1,4-.6s.7-2.5,1.2-3.8a5.5,5.5,0,0,0,.1-3.6A23.8,23.8,0,0,1,53,37.4Z"/><path class="cls-3" d="M41.5,24.7a13.4,13.4,0,0,1,.7,1.8,8.8,8.8,0,0,0,5.5,6.7,26.8,26.8,0,0,1,3.4,1.6,3.4,3.4,0,0,1,2,2.6c-1.1,0-2.3.2-3-1s-2.2-1.9-4.1-1.3-2.9.1-3.6-2.3A20.3,20.3,0,0,1,41.5,24.7Z"/><path class="cls-3" d="M60.6,35.6A18.4,18.4,0,0,0,52,27a29.4,29.4,0,0,1,4.2,0,4.6,4.6,0,0,1,4.3,4.3A30.9,30.9,0,0,1,60.6,35.6Z"/><path class="cls-3" d="M48.1,50H46.2C46.9,49,47.5,48.9,48.1,50Z"/><path class="cls-7" d="M121.9,54.6c-.8,2.1-1.6,4.1-2.5,6.1-3.6,7.6-7.6,8.9-15.1,5l-1.3-.5c-3.6-3.4-4.9-7.8-4.8-12.5s.3-10.5.6-15.7c0-2,.2-4.1.3-6.2h0c.9-5.5,1.2-11.1,4.5-16.1,2.2-3.5,4.6-6.2,8.8-7h.1c2.2-1.7,4.4-1.5,6.6.2h0c4.2,2.4,5.5,5.2,4,8.7s-2.8,3.4-4.8.7h.1c-1.1-1-.5-3.3-2.8-3.3s-3.5,1.2-4.5,3c-2.1,3.7-2.3,8.1-4.4,11.8a.5.5,0,0,0-.1.7,181.7,181.7,0,0,0,0,26.6c-.2.2-.1.4.1.6a2.8,2.8,0,0,0,1.3,2.4c2.4,1.9,3.5,1.7,5-.7a24,24,0,0,0,3.3-8.9c.3-1.8.1-2.1-1.6-2.8a4.8,4.8,0,0,1-1.8-.7,4,4,0,0,1-1.3-1.8c-.2-1.1.6-1.8,1.5-2.3l.4-.2,10.4-1.4a2.7,2.7,0,0,1,2.7,2.2,2.8,2.8,0,0,1-1.4,2.8,3.1,3.1,0,0,1-1.3.6,2,2,0,0,0-1.5,2.1C122.3,50.2,122.1,52.4,121.9,54.6Z"/><path class="cls-3" d="M112.4,7.7c-5.5,2.6-8.6,7.2-10.4,12.8-.8,2.7-1.4,5.4-2.1,8.2a18,18,0,0,1-.8,2.1c.1-3.3-.6-6.6.5-9.9a2.3,2.3,0,0,0-.1-1.4c-.9-1.9,0-2.9,1.7-3.8a2.9,2.9,0,0,0,1.5-1.6c.2-1.7,1.6-2.3,2.3-3.4C106.8,7.7,109.4,7.4,112.4,7.7Z"/><path class="cls-3" d="M106.7,28.8a26.6,26.6,0,0,1,3.6-12.2c1.2-2.1,2.9-3.8,5.5-4.1s2.5.4,2.6,1.9a28.1,28.1,0,0,1,0,2.9c-.2-.1-.4-.1-.5-.3s-2.5-2.2-4.1-1.4a4.5,4.5,0,0,0-2.9,4.4C111.1,23.7,110,26.8,106.7,28.8Z"/><path class="cls-3" d="M118.3,17.2l.7.6c1.8.8,2.6.6,3-.8,1-3.3,1-6.3-2.3-8.5a2.2,2.2,0,0,1-.6-.7c.8.1,1.7-.1,2.2.3a37.1,37.1,0,0,1,4,3.9,2.1,2.1,0,0,1,.5,1.3c.2,2.9-3.2,6.2-5.9,5.9A1.7,1.7,0,0,1,118.3,17.2Z"/><path class="cls-3" d="M106.6,56.1a11.8,11.8,0,0,1-.8-3.1,137.7,137.7,0,0,1,.2-21.3,10.4,10.4,0,0,1,.6-2.2Z"/><path class="cls-3" d="M119.1,7.9l-6.6-.2c.3-.9.2-2,.8-2.6A3.7,3.7,0,0,1,116.8,4a2.1,2.1,0,0,1,1.1.7A30.3,30.3,0,0,1,119.1,7.9Z"/><path class="cls-3" d="M130.7,8.7l-.4-.2.4.2Z"/><path class="cls-10" d="M302.5,45.1c-.4,1.5-1,3-1.3,4.6-.9,4.8-1.8,9.7-2.6,14.5-.4.7-.7,1.5-1.1,2.2a3.4,3.4,0,0,1-3.9,2,3.5,3.5,0,0,1-3.1-2.6,8.6,8.6,0,0,1-.6-2.3c-.2-2.4-.6-4.8-.7-7.1-.3-6.6-.6-13.1-1-19.6-.1-2.1.2-4.2-.9-6.1-.6-4.1-1.1-8.2-1.7-12.3-.1-1.4-.3-2.8-.3-4.2a1.7,1.7,0,0,1,2-1.6,9.7,9.7,0,0,1,3.4,1.6,2.4,2.4,0,0,1,1,2.9,5.3,5.3,0,0,0-.2,3.7c1.5,6.5,2.9,13.1,4.3,19.6.6.4.5.9.4,1.5s.1-1.1.5-1.6c1.9-6.7,3.9-13.5,4.8-20.5a40.2,40.2,0,0,1,1.2-5.6,14.3,14.3,0,0,1,.9-2.7,3.2,3.2,0,0,1,3.2-1.7,3.4,3.4,0,0,1,2.5,3.1,18.8,18.8,0,0,1-.5,3.3l-6.3,27.5A6.5,6.5,0,0,0,302.5,45.1Z"/><path class="cls-7" d="M317.1,12.6c1.4-.2,2.8-.6,3.8.9a10,10,0,0,0,2.1,2,10.7,10.7,0,0,1,4.6,9.5c-.1,5.3-.4,10.5-.7,15.8s-2.4,12.5-5,18.4a17.4,17.4,0,0,1-1.8,3.3,4,4,0,0,1-5.6,1.1,10.5,10.5,0,0,1-5.2-7.1,44,44,0,0,1-1.6-9.4,67.5,67.5,0,0,1,1.9-19A45.8,45.8,0,0,1,317,12.7Z"/><path class="cls-11" d="M296.7,40.3c-.1.5-.3,1.1-.4,1.6l-.5-1.5Z"/><path class="cls-12" d="M427.3,32.4a15.5,15.5,0,0,0,.1,2.2c-1.8.6-1.8.6-2,2.9-1.9-1.6-3.7-3.5-6.3-4.2a2.1,2.1,0,0,1-1.5-2.2,28.7,28.7,0,0,1,2.7-14.4c.8-1.4,2.2-1.5,2.9,0a11.1,11.1,0,0,1,1.3,4c0,3-.3,6-.5,9,0,.7-.3,1.3-.3,1.9s-.2,1.6.7,2a1.7,1.7,0,0,0,2.1-.5Z"/><path class="cls-7" d="M22.3,12.6c3.3-3.8,7.8-3.9,12.3-3.8A3.3,3.3,0,0,1,37.7,12a3.7,3.7,0,0,1-3.4,3.4h-.5c-1.8-.1-3.7-.5-5.5.7,0,1.7-.1,3.4-.1,5.2,0,4.1.2,8.3.3,12.4,0,1.2.3,1.8,1.6,1.9h3.3a2,2,0,0,1,2,1.7,2.2,2.2,0,0,1-1.3,2.3l-3.6,1.4c-2.3.8-2.4.8-2.3,3.3s.6,7.3,1,11a1.4,1.4,0,0,0,1.7,1.2,55.8,55.8,0,0,1,5.7-.8,2.7,2.7,0,0,1,3,1.9,3.2,3.2,0,0,1-1.3,3.8,28.3,28.3,0,0,1-4.3,2,35.3,35.3,0,0,1-5.6,1.4,4.7,4.7,0,0,1-5.9-4.1c-.9-6.5-1.6-13-.8-19.5.4-3.5.4-7,.6-10.5V29.2a42.6,42.6,0,0,0-.1-13.8h0a2.3,2.3,0,0,1,.1-2.9Z"/><path class="cls-3" d="M22.2,15.4a4.2,4.2,0,0,1,.8,1.2c.1,4.2.4,8.4-.7,12.6C22.3,24.6,22.3,20,22.2,15.4Z"/><path class="cls-3" d="M22.3,12.5a28.1,28.1,0,0,1-.1,2.9C21,13.9,21,13.9,22.3,12.5Z"/><path class="cls-7" d="M18.2,61.2l-8,1.7c-3.6.7-6.1-1-6.1-4.6-.1-7.4,0-14.7.1-22.1s.5-12.4.8-18.6c.1-1.3.1-2.6.2-3.9a3,3,0,0,1,2.2-2.8c1.3-.4,2,.6,2.8,1.4s.2.2.4.3c0,8.3.1,16.6.2,24.9V51.4c0,1.1.2,2.2.2,3.3h4.5c3.7.1,4.9,2.3,3.2,5.7A2.2,2.2,0,0,1,18.2,61.2Z"/><path class="cls-7" d="M360.1,11.6c3.3,5.5,2.4,11.3.8,17.1a.9.9,0,0,1-.5.7,3.1,3.1,0,0,1-1.3.3c-.3-.1-.6-.4-.6-.6s-.1-2.2-.2-3.3c0-2.7-.1-5.5-.3-8.2a2,2,0,0,0-1-1.5c-.4-.1-1.2.4-1.5.8a20.5,20.5,0,0,0-3.9,11.6,2.8,2.8,0,0,0,2,3c5.6,2.2,7.7,6.8,8.7,12.2a25.9,25.9,0,0,1,.1,10,17.6,17.6,0,0,1-6.3,10.4c-2.3.6-4.6,1.4-6.9,1.8A7.7,7.7,0,0,1,341,55.3a4.4,4.4,0,0,1,1.5-1.8,2.5,2.5,0,0,1,4.1,1.4c.2.6.1,1.3.3,1.9s1.1,1.9,2.4,1.6a6.2,6.2,0,0,0,5.4-4.8,17.7,17.7,0,0,0-.9-12.6,6,6,0,0,0-2.9-3c-4.5-2.3-5.7-6.2-5.1-10.9a28.1,28.1,0,0,1,4.3-11.6,9,9,0,0,1,1.5-1.9C354,11.1,356.7,9.9,360.1,11.6Z"/><path class="cls-7" d="M170.2,65.2c.2-5.2.3-10.5.5-15.7,0-1-.5-1.4-1.5-1.1l-5.5,1.7a2.6,2.6,0,0,0-2,1.8c-.5,2.2-1,4.4-1.4,6.5s-1.2,3.3-1.9,4.8a2.1,2.1,0,0,1-1.4,1,1.3,1.3,0,0,1-1.4-1.5,43.8,43.8,0,0,1,.4-5.2c.2-1.5.5-3.1.7-4.6h0c1-4.9.4-10.2,3.7-14.5.3-.1.3-.3.2-.6,1.5-4.8.6-10.3,3.8-14.7h0c.9-2.6,1.9-5.1,2.8-7.6a13.7,13.7,0,0,1,3.7-5.5c2.1-2,4.8-1.4,5.6,1.4a43.4,43.4,0,0,1,1.1,6.1,31,31,0,0,1,.2,4.3c0,13.9-.1,27.7-.2,41.6a12.1,12.1,0,0,1-.1,1.9c-.3,1.5-1,2.7-2.6,3a3.2,3.2,0,0,1-3.7-1.6A8.6,8.6,0,0,1,170.2,65.2Z"/><path class="cls-13" d="M186.5,30.8l.3-1.6a14.2,14.2,0,0,1,.5,1.6Z"/><path class="cls-3" d="M164.4,23.1a53.1,53.1,0,0,1-3.8,14.7c0-2.5-.4-5,.4-7.4s-.1-2.2-.3-3.2a3.9,3.9,0,0,1,.8-3.1C162.2,23,163.3,23.1,164.4,23.1Z"/><path class="cls-3" d="M160.4,38.4c-1.2,4.9-2.5,9.7-3.7,14.5a36.6,36.6,0,0,1,1-12.3A2.8,2.8,0,0,1,160.4,38.4Z"/><path class="cls-3" d="M152.9,25.1c-.1,1.2-.1,2.4-.1,3.7-.1,3.1-.3,3.3-3.8,3.9l-.2-.2a6.7,6.7,0,0,1,3.8-7.6Z"/><path class="cls-2" d="M152.6,24.9l-3.8,7.6c-1.5,1.9-3.6,3.5-4.4,5.6s1.2,4.4,2,6.7c1.8,5.6,4,11.1,6,16.6l.3.9a3.2,3.2,0,0,1-1.4,3.7,2.9,2.9,0,0,1-3.8-1c-.8-1.1-1.5-2.4-2.2-3.6-1.8-6.3-3.5-12.5-5.2-18.8a1.5,1.5,0,0,0-1.8-1.2c-1.4.1-2.4.8-2.5,1.7a19.3,19.3,0,0,0-.1,2.4c.1,3.5.3,6.9.4,10.4,0,1.5.1,2.9,0,4.3-.4,3.3-2.3,4.1-5.4,2.6l-.7-.5c0-7.2-.1-14.3.1-21.5.4-9,1-18.1,1.5-27.1,0-.7.1-1.3.1-1.9a2.6,2.6,0,0,1,1.8-2.1c8.4-3,14.2-.1,17.8,6.4.4.9.9,1.7,1.3,2.5s-.1.5.1.6C152.7,21.1,152.7,23,152.6,24.9Z"/><path class="cls-3" d="M196.1,39.3l-4.2-12.5c-.4-1.2-.6-2.4-.9-3.6,2.1-.1,3.5,1.1,5.1,2.2s1.5.1,1.7-.8-.2-2.6,1.1-3.5a121.7,121.7,0,0,1-1.1,19.1C196.7,40.9,196.5,39.9,196.1,39.3Z"/><path class="cls-3" d="M191.1,23.2l-3.9-10.6c3.4.4,3.9.7,4,3.4S191.1,20.8,191.1,23.2Z"/><path class="cls-3" d="M185.4,11.5h-1.8C184.1,10.6,184.8,10.6,185.4,11.5Z"/><path class="cls-3" d="M187.3,12.6l-1.3-.9Z"/><path class="cls-14" d="M444.8,57.8c2.4-1.3,4.9-1.8,7.3,0a10.1,10.1,0,0,1,.4,2.3c.1,3-.8,4.3-3.6,5.3a14.6,14.6,0,0,1-3.6.9,3.2,3.2,0,0,1-3-4.6A28.4,28.4,0,0,1,444.8,57.8Z"/><path class="cls-15" d="M338.4,5.1c-.5.2-1.1.8-1.7.8A1.5,1.5,0,0,1,335.2,4a1.4,1.4,0,0,1,1.7-1.2C337.9,2.9,338.5,3.8,338.4,5.1Z"/><path class="cls-16" d="M372.3,6.9a1.8,1.8,0,0,1-2-1.6,1.7,1.7,0,0,1,1.5-1.6A2,2,0,0,1,374,5.1C374.2,5.9,373.4,6.8,372.3,6.9Z"/><path class="cls-3" d="M217.1,38.4c.1-6.4.3-12.8.3-19.2,0-2,1.2-2.4,2.9-1.8l1.6,1c3,3,5.3,6.6,5.7,10.8.7,7.5.5,15.1-1.9,22.3a30.4,30.4,0,0,1-2.8,6.1,5.2,5.2,0,0,1-2.1,1.8c-3.4,1.4-3.9,1.6-3.9-2.3V38.4Z"/><path class="cls-7" d="M248.6,27.1c4,2.1,5.8,5.8,7.7,9.6a63,63,0,0,1,0,18.9c-.5,1-.9,2-1.3,3a18.6,18.6,0,0,1-6.5,8.2c-3.5,2.6-7.2,2.3-10.2-1a14.5,14.5,0,0,1-2.6-4,4.5,4.5,0,0,1,.4-4.6,3,3,0,0,1,5.2-.2c.4.6.7,1.4,1.1,2.1s1.8,1.4,3.1.2a11.3,11.3,0,0,0,3-5.3,32.9,32.9,0,0,0,.9-12.9c-.1-.7-.3-1.5-.5-2.3a9.1,9.1,0,0,0-4.5-5.9c-3.9-2.2-4.8-4.5-4-8.8a21.9,21.9,0,0,1,6-11.2,9.1,9.1,0,0,1,3.2-2,3.1,3.1,0,0,1,3.9,2,5.8,5.8,0,0,1-.6,4.6,1.5,1.5,0,0,1-2.4.6c-1.1-.6-1.8-.4-2.3.6a39.3,39.3,0,0,0-2,5.4,2.8,2.8,0,0,0,.3,2.2C246.9,26.8,247.9,26.9,248.6,27.1Z"/><path class="cls-17" d="M316.3,55.5c-4.1-8.5-3.1-25.6,2.1-35.7a4.7,4.7,0,0,1,3.2,3.7,2.9,2.9,0,0,1,.2.9c-.2,10.3-.2,20.5-4.7,30C317,54.7,316.7,54.9,316.3,55.5Z"/><path class="cls-18" d="M171,24c0,5.8.1,11.5.1,17.2,0,2.1-.2,2.3-2.4,2.8l-4,.7c-.2-.5-.5-.8-.4-1.1,1.9-6.5,3.9-13,5.8-19.5C170.4,23.6,170.7,23.6,171,24Z"/><path class="cls-19" d="M171,24h-.9c.2-.5.3-1.1.5-1.6Z"/><path class="cls-20" d="M135.6,25.6V16.5c0-2.1.8-2.8,2.9-2.8a8.6,8.6,0,0,1,8.3,7.3,6.6,6.6,0,0,1-.8,3.6,73.4,73.4,0,0,1-6,8.6c-.9,1.2-2.4,2-3.6,3-1.6-1.4-.5-3.2-.7-4.9s0-3.8,0-5.7Z"/></g></g></svg>