<svg xmlns="http://www.w3.org/2000/svg" xmlns:xlink="http://www.w3.org/1999/xlink" width="235" height="621" viewBox="0 0 235 621">
  <defs>
    <clipPath id="clip-path">
      <rect id="SVGID" x="150.74" y="742" width="164.45" height="222" style="fill: none"/>
    </clipPath>
    <clipPath id="clip-path-2">
      <rect id="SVGID-2" data-name="SVGID" x="-89.75" y="588.26" width="708.03" height="1001.95" style="fill: none"/>
    </clipPath>
  </defs>
  <title>fairemain</title>
  <g id="Layer_18" data-name="Layer 18">
    <path d="M240,247.14a19.45,19.45,0,0,1-6.71-.82,3.73,3.73,0,0,1-1.36.34c-2.2-.37-4.4-.84-6.59-1.27-1.63-.17-3.24-.39-4.87-.52-4.26-.32-5.4,1.21-4,5.11a22.43,22.43,0,0,1,1,4.21c.27,1.77.37,3.56.55,5.35,1.07,1.11.92,2.37.43,3.67l.15,2.38,2.91-.69c0-1-.06-2-.1-2.94-1.5-1.76-1.5-1.76-.31-4l-.06-3a2.63,2.63,0,0,1-1.06-2.88,3.53,3.53,0,0,1,1.93-3l.33-.23c1.39-1,2.83-.5,4.26-.15l5,.58c2.77.17,5.64-.27,8.19,1.27l.84,0" style="fill: #4a435b"/>
    <path d="M224.23,237.48a1.2,1.2,0,0,1-1.7.35c-5.49-3.76-11.31-3.56-17.32-1.53-1.05.35-2.17.82-3.12-.3.08-1.63,1.34-2.1,2.59-2.5,6-1.91,11.84-2.19,17.53.94l2.56,1.4C224.71,236.42,225.7,237.36,224.23,237.48Z" style="fill: #4a435b"/>
    <path d="M226.6,243.62l-2.67-4.57c-.36-.61-.42-1.17.31-1.57,1.27-.82,2,.21,2.82.85a2,2,0,0,0,2.51,1.21c2.89,1,3.06,1.3,2.19,4.51C230,244.87,228.21,245.09,226.6,243.62Z" style="fill: #4a435b"/>
    <path d="M226.6,243.62c1.61,1.47,3.36,1.25,5.16.43l1.48,2.27a3.73,3.73,0,0,1-1.36.34c-2.2-.37-4.4-.84-6.59-1.27Z" style="fill: #5d536c"/>
    <path d="M229.57,239.54a2,2,0,0,1-2.51-1.21A2.8,2.8,0,0,1,229.57,239.54Z" style="fill: #5d536c"/>
    <path d="M225.81,355.58c-.42,9-.8,18-1.36,27-.79,12.81.06,25.55,1.32,38.27,1,10.26,2.06,20.53,3.35,30.76,0,.21,0,.41.07.62l4.38.42c0-.2,0-.4,0-.6A52.69,52.69,0,0,1,232,439c-.12-.73-.23-1.46-.35-2.19a10.74,10.74,0,0,1-.52-1.88c-.76-7.15-1.3-14.33-2.24-21.46-1.46-11.09-.84-22.2-.52-33.3.24-8.17.73-16.33,1.11-24.5,0-.82,0-1.64,0-2.45-.35-6.86-.6-13.72-1.09-20.57-1.37-19.24-2.85-38.48-5.27-57.63-.43-3.39-1.09-6.75-1.64-10.12l-2.91.69a15.36,15.36,0,0,0-.09,2.44q1.08,9.27,2.22,18.54c.68,5.53,1.56,11,2,16.58s.5,11.12.85,16.67c.67,10.61,1.43,21.22,2.14,31.84A36.64,36.64,0,0,1,225.81,355.58Z" style="fill: #5d536c"/>
    <path d="M181.92,428c7.37,5.86,7.37,5.86,13.09,15.42.33.54.75,1,1.37,1.84.67-.66,1.4-1.1,1.68-1.73,1.14-2.51,2.14-5.1,3.19-7.65l2.22,1.65a33.09,33.09,0,0,1-4.06,9.44,8.9,8.9,0,0,0-1.34,6,37,37,0,0,1-4,20.43,24.46,24.46,0,0,1-8,9.09,10.38,10.38,0,0,1-5.57,1.64,19.32,19.32,0,0,1-2.94-.11,3.75,3.75,0,0,0-3.38,1.62c-1.72,2.18-3.35,4.46-5.26,6.47-4.15,4.38-9.24,6.67-15.38,6.18a14.67,14.67,0,0,1-9.24-4.06c-.36-.34-.66-.74-1-1.05-1.68-1.44-2.68-1.5-4.35-.25a17.88,17.88,0,0,0-1.85,1.62c-5.47,5.49-16.49,6.48-23.61-1.82-1.48-1.72-2.65-3.71-4.29-6-4.49-1.17-9.77-1.83-14-5.28s-7-7.72-9.58-12.34c-1.76.37-3.18.69-4.6,1-4.75.92-8.33-1.2-11-4.78a16.62,16.62,0,0,1-2.84-6.17c-1.92-8.64-3.48-17.35-1.89-26.25a10,10,0,0,0-.63-5.28,30,30,0,0,1,.78-23.39c1-2.2.86-4.43.84-6.73a65.87,65.87,0,0,1,6.76-29.85,6.9,6.9,0,0,1,1.28-1.44l1.24,1.47c-.59,1.69-1.16,3.38-1.78,5.06a74.58,74.58,0,0,0-4.63,19.52,27.56,27.56,0,0,0,.11,3.16,13.41,13.41,0,0,0,2.42.06c1.45-.23,2.87-.75,4.32-.88a8,8,0,0,1,7.4,3,6.5,6.5,0,0,1-.7,9.23c-3.2,2.83-6.85,2.75-10.61,1.48a28.2,28.2,0,0,1-3.54-1.74c-1.94,1-2.11,2.87-2.43,4.6-1.06,5.86-.74,9.07,1.38,13.62a15.7,15.7,0,0,0,1.89-1.4c1.27-1.27,2.38-2.72,3.73-3.89a9.53,9.53,0,0,1,9.22-1.91,6.78,6.78,0,0,1,5,8.74,12.82,12.82,0,0,1-13.8,9.29,2.53,2.53,0,0,1-.48-.07c-5.46-1.68-5.51.77-5.43,4.9A72.59,72.59,0,0,0,69.14,455a23,23,0,0,0,3.3,8.14c2.19,3.22,5.33,4.15,9,3.62a2.64,2.64,0,0,0,2.47-3.07c-.14-1.46-.42-2.91-.65-4.37a31.17,31.17,0,0,1,1.6-15.46,12.61,12.61,0,0,1,.71-1.83,7.51,7.51,0,0,1,8.84-3.53,7.11,7.11,0,0,1,4.62,7.79,18.52,18.52,0,0,1-1.67,5.62A84.09,84.09,0,0,1,91,463c-2,2.81-2.23,5.29-.63,8.17a24.09,24.09,0,0,0,13.18,11.19,11.16,11.16,0,0,0,2.87.57A2.2,2.2,0,0,0,108.9,481a9.88,9.88,0,0,0,.22-1.95,29.14,29.14,0,0,1,3.23-12.26,28.32,28.32,0,0,1,3.84-5.63,7.16,7.16,0,0,1,2.78-1.92,5.4,5.4,0,0,1,7.39,2.84,9.7,9.7,0,0,1,.87,5.26,21.11,21.11,0,0,1-9.65,16.32c-1.33.89-2.69,1.73-4,2.54,2,6,6.76,9.56,12.47,9.65s11.28-3.51,13-8.78a36.8,36.8,0,0,0,.94-5.79c1.51,1,1.19,2.55,1,4-.12,1.11-.37,2.2-.48,3.3,0,.16.45.48.72.52s.8-.14.83-.3a13.9,13.9,0,0,0,.21-2.32c0-1.48-.12-3,1.47-3.85,0,1,.08,2,0,2.93a7.77,7.77,0,0,0,3.51,7.14,13.32,13.32,0,0,0,12.55,2c5.68-1.77,9.2-6,12-11,.64-1.12,0-2.15-.55-3.2a52.31,52.31,0,0,1-3.5-7,18.77,18.77,0,0,1-1.1-6.22c0-2.93.54-5.86.62-8.8.09-3.48,4.54-4.85,7.05-2.8a13.85,13.85,0,0,1,3.12,3.73,13,13,0,0,1,2,7.49c-.22,2.93-.53,5.85-.91,8.77-.18,1.44-.6,2.86-.9,4.21,1,1.46,2.34,1.21,3.6,1.05,2-.25,4-.68,5.32-2.24a51.47,51.47,0,0,0,4.8-6.16c3.3-5.24,4.61-12.42,3.68-19.14a11.56,11.56,0,0,0-2.7.25c-4.29,1.38-7.74-.13-10.66-3.13-4.76-4.9-5.64-10.86-4.33-17.3.29-1.42,1-2.76.61-4.29Zm-69.75,49.38c0,.94-.1,1.92-.06,2.89a1.8,1.8,0,0,0,2.41,1.67,6.07,6.07,0,0,0,1.78-.73,17.35,17.35,0,0,0,8.07-14.79,8.39,8.39,0,0,0-.82-3.25,2.49,2.49,0,0,0-3.3-1.22,7.59,7.59,0,0,0-4,3.48A32.62,32.62,0,0,0,112.17,477.37Zm76-26.5a27.73,27.73,0,0,0,2.91-.24,2.84,2.84,0,0,0,2.25-3.69,7.74,7.74,0,0,0-.3-.93,37.53,37.53,0,0,0-7.8-11.78,5,5,0,0,0-1.17-.86,2.3,2.3,0,0,0-3.52,1.34A13.81,13.81,0,0,0,184.7,449,21.08,21.08,0,0,0,188.16,450.87Zm-91.94-4.73a4.45,4.45,0,0,0-3.11-4.9c-2.15-.59-4,.35-5.07,2.7a26.39,26.39,0,0,0-1.54,16.24c.08.42.47,1.05.79,1.09a2.15,2.15,0,0,0,1.7-.4,35.6,35.6,0,0,0,7.15-14.25C96.18,446.47,96.19,446.3,96.22,446.14ZM74.57,432.63a7.32,7.32,0,0,0,5.66-1.24,11,11,0,0,0,4.06-5.9,3.9,3.9,0,0,0-2.52-5.06,6.57,6.57,0,0,0-4.76,0,11.38,11.38,0,0,0-6.4,6.92,3.46,3.46,0,0,0,1.8,4.52A11.21,11.21,0,0,0,74.57,432.63Zm95.06,30.83a22,22,0,0,0,.75,9.24,16.39,16.39,0,0,0,2,3.9,2.78,2.78,0,0,0,2,.93c.4,0,1-.81,1.18-1.36a32.7,32.7,0,0,0,1.33-5.72,16.55,16.55,0,0,0-2.07-9.93,8.46,8.46,0,0,0-2-2.14,1.57,1.57,0,0,0-2.4.76C170.09,460.56,169.9,462,169.63,463.46Zm-92.2-66.14a6.65,6.65,0,0,0-6.25,2.44,3.11,3.11,0,0,0,.5,4.72c2.45,1.93,5.14,1.85,7.87.81a3.73,3.73,0,0,0,1.77-5.66A4.72,4.72,0,0,0,77.43,397.32Z" style="fill: #706578"/>
    <path d="M112.83,228.82c-2.29-.86-3.64-2.69-4.81-4.69a25.63,25.63,0,0,1-3.77-12.57c-.06-2.77-.23-5.56,0-8.32a16.13,16.13,0,0,1,3.52-9c2.93-3.77,6-7.25,10.42-9.36a16.37,16.37,0,0,1,5.55-1.59,6.17,6.17,0,0,1,6,2.57,40.29,40.29,0,0,1,3.61,5.23c2.07,4.27,3.79,8.71,5.77,13a26.4,26.4,0,0,1,2.06,10c.14,3.11.12,6.22.16,9.33.13,9.21,2.26,17.84,7.47,25.55a29.39,29.39,0,0,0,3.79,4.47c5,4.91,10.08,9.84,15.3,14.57a30.68,30.68,0,0,0,13.21,7.27,14.7,14.7,0,0,0,10.5-1.13c2.72-1.37,3.58-3,3-6a16.6,16.6,0,0,0-1.32-3.69c-1-2.08-2.13-4.07-3-6.17a35.39,35.39,0,0,1-1.84-5.58,9.18,9.18,0,0,1,2.24-8.67c1-1.08,2-2.09,3.08-3.13.15.17.31.33.47.49l.81,1,.34.39a5.82,5.82,0,0,1-.5.84c-3.94,4.31-4.09,9-1.51,14,1.34,2.62,2.49,5.34,3.68,8a14,14,0,0,1,1,2.77,6.22,6.22,0,0,1-2.27,6.55c-3.09,2.54-6.69,3.3-10.51,3.48-1.75.08-3.51,0-5.12.06-.76,1.66.27,2.44.91,3.32,6.32,8.75,5.32,21.69-2.26,29.29-2.64,2.65-5.87,3.35-8.91,1.71a7.28,7.28,0,0,1-4-4.72c1.62-.08,2.49,1.1,3.49,2.08,1.36,1.34,2.77,1.23,4.18.1a3.33,3.33,0,0,0,3.22-1.42,7.13,7.13,0,0,0,1.61-4.26c5.81-7,4.94-17.54-2-23a11.22,11.22,0,0,0-4.38-1.88c-2.49-.55-3.24.1-4.44,3.1a36.89,36.89,0,0,1-2.74,4.37,14.77,14.77,0,0,0-2.68,4.94c-2.2-3.11-1-6.36-.05-9.39s3.63-5,6.56-6.26a25.54,25.54,0,0,1,3.18-1c-.18-.53-.19-1-.39-1.11-5.24-3.46-9.21-8.32-13.86-12.43a94.48,94.48,0,0,1-10.35-10.44,38.11,38.11,0,0,1-7.75-16.76,61.36,61.36,0,0,1-1.23-14.64c.22-7.31-.84-14.35-4.27-20.93-1.36-2.61-2.49-5.34-3.86-7.94a16.71,16.71,0,0,0-2.54-3.58,4.47,4.47,0,0,0-5.38-1.1c-5.42,2.32-10,5.77-12.92,10.89A20.21,20.21,0,0,0,107,205a27.9,27.9,0,0,0,4,18.35,20.2,20.2,0,0,0,2.17,2.47l.92-1.87,2.93,4.89Z" style="fill: #5d536c"/>
    <path d="M70.28,309.67c.12-1.64.23-3.27.34-4.91q1.55-4.63,3.08-9.29a3.08,3.08,0,0,1,2.92-2.24c3-.16,4.76-1.86,6-4.35,1.68-3.32,4.91-5.18,7.4-7.73a4.08,4.08,0,0,1,2.19-.91c4-.64,8.07-1.2,12.11-1.81,1.08-.16,2.15-.43,3-.61.84-1.72,0-2.87-.44-4.05a28.9,28.9,0,0,1-1.45-11.59c.07-1.79.24-3.63,1.8-4.91.29,1,.36,2.15,1.55,2.62.06,3.09-.38,6.16.24,9.29a16.19,16.19,0,0,0,3.65,7.88c1.17,1.32,2.25,2.72,3.19,3.86-.27,1.5-1.1,1.67-1.92,1.57-2.43-.3-4.85-.72-7.28-1.07a29.06,29.06,0,0,0-9.75.51c-6.79,1.3-10.49,6-13.67,11.79a31.17,31.17,0,0,0,2.81,3,23.1,23.1,0,0,1,5.08,6.56,14.54,14.54,0,0,1,1.53,4.11c.72,3.17-1,5-4.32,4.74A10.21,10.21,0,0,1,79.89,305a32.4,32.4,0,0,1-.77-4.83c-.14-1.1-.21-2.21-.3-3.18a1.8,1.8,0,0,0-2.65.86,19.38,19.38,0,0,0-2.76,9.31,37.62,37.62,0,0,0,4.29,18.93,8,8,0,0,0,3.36,3.73c1.35-1,2.62-2,3.94-2.88a11.13,11.13,0,0,1,8.38-2,8,8,0,0,1,2.74,1c2.57,1.52,3,3.83,1.26,6.21a9.3,9.3,0,0,1-5.24,3.43,15.73,15.73,0,0,1-7.77.11A4.49,4.49,0,0,0,79,338.08c-.73,1.28-1.36,2.61-2,3.91l-2-.26c.55-1.51,1-3.05,1.66-4.52s1.32-2.57,2.07-4a35.45,35.45,0,0,1-6.27-13.07C71.55,316.69,71,313.16,70.28,309.67Zm13.24,22.41c3.79,1.63,6.87,1.73,9.9,0A3,3,0,0,0,95,329.27c-.05-.9-1.17-1.76-2.52-1.95C88.69,326.79,86.07,328.63,83.52,332.08Zm-.65-34c-1.61,2.3-.79,4.29-.09,6.19a6.48,6.48,0,0,0,3.82,4.13,3.56,3.56,0,0,0,.47.1,1.7,1.7,0,0,0,2.16-1.86c-.32-2.69-1.83-4.79-3.58-6.7A14.77,14.77,0,0,0,82.87,298.06Z" style="fill: #5d536c"/>
    <path d="M124,329.39c.22-1.45.36-2.92.67-4.35a15.48,15.48,0,0,1,13.28-11.9,8.13,8.13,0,0,1,7.76,3.14,17.12,17.12,0,0,1,3.64,6.81c1.11,4.94,2.31,9.86,3.56,14.76a6.82,6.82,0,0,1-.85,5.64,16.78,16.78,0,0,1-3.63,4.54,68.64,68.64,0,0,1-9.54,5.93c-3.27,1.66-6.85.72-9.44-1.85a17.09,17.09,0,0,1-4.46-8.59A41.71,41.71,0,0,1,124,329.39Zm16.61-13.12a1.16,1.16,0,0,0-2-.18c-.29.05-.57.08-.86.11-6.87,1.64-9.19,4.55-10,10.78-.25,1.93-.61,3.85-.73,5.78-.29,4.68,1.17,9.06,2.56,13.41a9.91,9.91,0,0,0,2.32,3.68c1.61,1.69,3.59,2,6,.64a8.58,8.58,0,0,0-1.42-1.55c-3.89-2.44-5.59-6.29-6.72-10.47a20.7,20.7,0,0,1,0-11.15l5.45-5.32c3.68-.15,6.34,1.64,8.43,4.48.62,1.28,1.24,2.56,2.87,2.83,2-5.68.19-9.71-5.69-13Zm3.38,26.92c-1-.38-1.49-.59-1.95-.7s-1-.1-1.45-.24a8.39,8.39,0,0,1-4.94-11.51,2.26,2.26,0,0,1,1.6-.78,1.51,1.51,0,0,1,1.1.76,4.32,4.32,0,0,1,.44,1.87c0,2.15,1.38,3.61,2.54,5.15a1.91,1.91,0,0,0,1.72.45,2,2,0,0,0,1.13-1.37c.26-4-.92-7.45-4.37-9.78s-6.54-1-7.36,3c-1,4.93.43,9.38,3.08,13.49a4.38,4.38,0,0,0,3.59,2.28A5.55,5.55,0,0,0,143.94,343.19Z" style="fill: #4a435b"/>
    <path d="M105.86,425.65a18.85,18.85,0,0,0-3.27-1,8.64,8.64,0,0,1-6.36-4.12,47.3,47.3,0,0,1-4.28-7.1c-2.72-6.31-1.27-12.17,2.78-17.44a13.1,13.1,0,0,1,3.5-2.57c.92-.59,1.93-1.05,3-1.64A10.62,10.62,0,0,0,98.51,386c-2.6-3-3.47-6.6-3.62-10.42-.2-4.91,2.62-8.05,7.55-8.39a25.72,25.72,0,0,1,4.88.19c4.82.61,6.41,2.52,6.72,7.84L108,372c-.21-.4-.39-1.12-.64-1.15a41.65,41.65,0,0,0-5.68-.35,4.34,4.34,0,0,0-2.09,1.06c-1,.74-.82,1.67.49,3,.5,2.67,1,5.34,1.48,8,.23,1.29.44,2.71,1.73,3.27,3,1.31,6,3.24,9.57,1.91l-4.3,5.63a4,4,0,0,0,.6,1.45,21,21,0,0,1,5.18,14.88c-.09,3.64-.1,7.2-2.88,10.05a7.63,7.63,0,0,0-1,2,21.57,21.57,0,0,0,2.76,1c4.93,1,8.35,3.58,9.64,8.59a81.61,81.61,0,0,1,2.31,9.5c.51,3.78-.55,7.15-4.43,8.93l-.83-2.12a2,2,0,0,0-.85-2.15,22.16,22.16,0,0,0,2.68-2.81c1.73-2.53,1.45-4.79-.63-7.06-.65-.71-1.26-1.44-1.88-2.17l-.69-4.58-3.49-2.38a2.05,2.05,0,0,0-1.73-2A10.54,10.54,0,0,0,105.86,425.65Zm.1-5.86c4-.19,4.53-.85,4-4.6-.19-1.26-.17-2.56-.25-3.85a2.73,2.73,0,0,0,2-3A31.93,31.93,0,0,0,111,404c-.74-2.9-1.92-5.61-4.43-7.44a6.11,6.11,0,0,0-3.09-1.29,8.94,8.94,0,0,0-8.6,6.77c-.45,2.06-.79,4.16-1.2,6.24-.27,1.41.54,2.11,1.67,2.62,1.15,1.51-.78,2.92-.21,4.3l3.17,2a3.62,3.62,0,0,0,1.93,3.17,6,6,0,0,0,4.15,1.11C105.37,421.32,105.72,420.6,106,419.79Z" style="fill: #5d536c"/>
    <path d="M131.4,383.55c.84-2.46,1.35-5.09,2.58-7.33,2.09-3.81,5.64-6.3,9.31-8.43a6.18,6.18,0,0,1,6.93.41l-1.06,2.34-1.72-.55-1.29-.11-1,.21c-2,.18-1.95,1.89-2.37,3.24-2.8.45-4.56,2.29-5.88,4.59-.31.53-.12,1.35-.2,2.65,1.46-1,2.38-1.58,3.27-2.22a6.83,6.83,0,0,1,7.31-.65l3.07,1.42a9.23,9.23,0,0,0,1.64,2.31c2.62,1.89,3.16,4.35,2.51,7.34a33.49,33.49,0,0,0-.39,3.89,17,17,0,0,1-1.55,2.49c-2.73,3.09-5.47,3.17-8.37.12a15.75,15.75,0,0,1-2.32-3.69,2.45,2.45,0,0,1-.11-1.89,3,3,0,0,1,1.57-1.64,2.51,2.51,0,0,1,2.1.74c.56.73.54,1.9,1.07,2.67a3.05,3.05,0,0,0,1.93,1.13,1.89,1.89,0,0,0,1.54-.95c1.88-4.39,1.51-6.11-1.25-8.89-3.88-3.91-7.1-3.35-9.54,1.66-2.21,4.55-1.94,9.21-.66,13.92,1.11,4.06,4,6.73,7.34,8.88a4.59,4.59,0,0,0,5.14.08,10.82,10.82,0,0,0,4.8-5.43c.83-2.47,1.82-4.94,1.5-7.65a17,17,0,0,0,2.1-7.69l.34-.22c.53,1.42,1.07,2.83,1.6,4.25q-.51,4.89-1,9.76a21.84,21.84,0,0,0-2.29,4.24c-1.26,4.46-4.47,6.58-8.58,7.88a6.25,6.25,0,0,1-7.4-2.27,42.41,42.41,0,0,1-3.76-5.72c-3.77-6.88-4.89-14.07-2.22-21.64.07-.2-.18-.52-.39-1.06l-2.38,2.34Z" style="fill: #4a435b"/>
    <path d="M112.83,228.82l4.25.06L114.15,224a12.65,12.65,0,0,1-1.12-3.17c-.41-5.42-.47-10.8,2.94-15.54a31.67,31.67,0,0,0,1.74-3.5c1.65-2.95,4.41-4.17,7.46-2.74,3.64,1.72,6.62,4.24,6.41,8.88l-1.83-1.38c-1.93-1.42-2.31-1.3-3.74,1.1l-2.76-.49a2.62,2.62,0,0,0-2.15,1.75c-.57,1.15-1.14,2.4-2.67,2.62l-.75-.66c-2.66,2.86-1.7,6.32-1.48,9.58.19,2.74,2.28,4.54,4.09,6.36a4.88,4.88,0,0,0,4.31,1.77,4.62,4.62,0,0,0,3.9-3.2c.09-1,.18-2,.26-3l3.52-.74c.53,4.61-1.27,8-5.54,9.81-2.44,1-3.76,3-5.37,4.84a5.11,5.11,0,0,0-1,4.16c.31,2.42.73,4.83,1.16,7.23.18,1,.55,1.88.77,2.83.83,3.55.51,3.94-3.49,4.47l-1.85-2.29c2.42-1.48,2.59-1.75,2.09-3.62-.34-1.24-.77-2.46-1.11-3.7a22.54,22.54,0,0,1,.14-11.53Z" style="fill: #4a435b"/>
    <path d="M150.86,420.88c8,4.93,9.93,12.48,9.18,21.21-.51,6-7.26,12.82-14.22,12.6-3.54-.12-6.39-1.44-8.15-4.56-3.42-6.08-5-12.48-2.52-19.32,1.77-4.91,4.67-8.94,9.65-11.1ZM139,436.77a37.41,37.41,0,0,0,.1,5.3c.85,5.55,3.1,8.05,8,7.6a4,4,0,0,1,.49,0c1.46,1.33,3,1,4.44.07,3.39-2.19,4.89-5.5,5.31-9.37.13-1.13-.65-1.74-1.73-1.95l-.51-6.69c.66-.58,1.25-1.38.62-2.1-2.1-2.47-4.25-4.92-6.58-7.18a3.33,3.33,0,0,0-3.71-.2c-.92.42-1.05,1.15-.44,2.81-.1,1-.21,2-.31,3.07a16.81,16.81,0,0,0-3.69,2.24C139.32,432.08,137.77,434.05,139,436.77Z" style="fill: #4a435b"/>
    <path d="M205.35,330.66c-3-.55-5.13.38-6.19,3.39a2.42,2.42,0,0,1-1,1,1.07,1.07,0,0,1-.91,0,1.11,1.11,0,0,1-.6-.68,2.8,2.8,0,0,1,.06-1.44,15.17,15.17,0,0,1,5.42-7.41,5.13,5.13,0,0,1,7.38,1,19.39,19.39,0,0,1,2.27,3.76,64.22,64.22,0,0,1,5.24,19.85c.83,7.05-1.28,13.28-7.2,17.78a8.51,8.51,0,0,1-11.55-.77c-3.83-4-6.16-8.46-4.63-14.19,2.19,0,2.19,0,3-2.58l1.79.16c-.23,2.32-.46,4.63-.68,6.95a2,2,0,0,0-.59,2.6,19,19,0,0,0,2.53,4c2.89,3.2,5.37,3.24,9.15.38,1.87-2,2.43-4.5,3.21-7,2.18-7,1.38-13.75-1.48-20.38-1.16-2.67-2.86-5.09-3.42-8a1.44,1.44,0,0,0-1.93-1.12Z" style="fill: #5d536c"/>
    <path d="M119.29,433.5c.62.73,1.23,1.46,1.88,2.17,2.08,2.27,2.36,4.53.63,7.06a22.16,22.16,0,0,1-2.68,2.81,4,4,0,0,1-4.61-.15,4.72,4.72,0,0,1-2.06-1.93,10.72,10.72,0,0,1-.42-3.81c0-1.63,1.83-1.67,2.66-2.6.09-.1.06-.3.1-.57A1.64,1.64,0,0,0,112,436a4.68,4.68,0,0,0-1.72,2.78,39.14,39.14,0,0,0,.46,7.25,2.74,2.74,0,0,0,1.67,1.62c2.47.83,5,1.61,7.53,0l.83,2.12a8,8,0,0,1-2,1.39c-4.18,1.4-10.72-1-12.74-4.9a26.94,26.94,0,0,1-3.27-11.64,12.31,12.31,0,0,1,3-9,10.54,10.54,0,0,1,7.52-1.14,2.05,2.05,0,0,1,1.73,2l-1.87-.12c-1.19-1-1.39-.93-2.06.65-1.7.11-3.25.55-4,2.24-.65,1.47-1.12,3,0,4.6a4.84,4.84,0,0,0,1.44-.48c2-1.58,4.14-1.48,6.43-.8C116.42,433,117.87,433.22,119.29,433.5Zm-2.22,9c.63-.27,1.32-.36,1.41-.65a6.88,6.88,0,0,0,.22-2.23c0-.13-.51-.4-.75-.37-1,.13-1.1,1-1.23,1.79C116.67,441.3,116.85,441.62,117.07,442.48Z" style="fill: #2f2e3a"/>
    <path d="M114.88,302.32c1.35,4.73-.44,8.72-3.22,12.29s-6.54,4-10.31,1.25a12.78,12.78,0,0,1-5-8.16,27.65,27.65,0,0,1,0-10.22c.7-3.8,2.62-5.54,6.53-6.12,2.11-.31,4.26-.58,6.2.59.94.57,2,1.29,1.13,2.72a10.3,10.3,0,0,1-1.86-.57c-2.08-1.17-4.13-.57-6.17,0a2.3,2.3,0,0,0-1.83,2c-.09.89.6,1.42,2,1.57a8,8,0,0,0,1,0c3,0,5.79.52,8.15,2.64A16.49,16.49,0,0,0,114.88,302.32Zm-14.59,2.58a22,22,0,0,0-.53,3.24c.12,2.56,1.91,4,3.79,5.31,2.26,1.59,3.87,1.44,6-.56.65-.6.9-1.33.08-2-4.78.17-4.77.17-7.43-3.77C101.9,306.59,101.44,306.18,100.29,304.9Zm5.72,2.91c.86-.29,1.46-.31,1.71-.61a4.53,4.53,0,0,0-.22-6.15c-1.28-1.37-3.2-1.5-5.26-.25-.32.2-.38.83-.6,1.36l2.92,1.37C105,304.93,105.44,306.13,106,307.81Z" style="fill: #2f2e3a"/>
    <path d="M138,305.64c-4.93,1.5-8.95.48-11.71-3.3a20.45,20.45,0,0,1-2.87-5.62,46.78,46.78,0,0,1-1.74-21.28,12.35,12.35,0,0,1,1.5-4.07c.7-1.28,1.81-2.31,2.62-3.53,1.84-2.78,4.1-4.53,7.71-4.07a7.6,7.6,0,0,0,5-1.57c2.92-1.88,5.07-1.39,7.22,1.33a11.59,11.59,0,0,1,1.76,2.92,32.13,32.13,0,0,1,.72,21.05l-1.54-3c0-3.59,0-7.18-.1-10.77a12.17,12.17,0,0,0-3.51-8.4,1.59,1.59,0,0,0-2.41-.24,11.81,11.81,0,0,1,.3,2.6,7.87,7.87,0,0,1-.88,2.15l-1.08-.12a5,5,0,0,0-4.24-2.85,5.16,5.16,0,0,0-4.19.84c-3,2.57-5.61,5.35-6,9.65a61.24,61.24,0,0,0,.6,14.57,21.94,21.94,0,0,0,3.28,8.07,4.88,4.88,0,0,0,3.37,2.58l1.27.65a1.92,1.92,0,0,0,1.76,1.81C135.91,305.2,137,305.43,138,305.64Z" style="fill: #5d536c"/>
    <path d="M191.63,302.44c-1.25-2.43-.44-4.82.28-7.13a18.09,18.09,0,0,1,7.45-9.48A8.17,8.17,0,0,1,205,284.6c4.32.44,9.05,4.8,9.85,9.11a15.16,15.16,0,0,1,.39,4.38c-.64,5.19-1.3,10.39-2.27,15.53-.76,4-3.42,6.63-7.18,8.09-3.61,1.41-6.19.78-8.81-2.14-1-1.06-2.2-2-2.17-3.7L198,316l2.84,2.49c2,1.47,3.66.2,5.34-.74a.58.58,0,0,1,.46-.38c.75-.73,1.51-1.45,2.27-2.17.38-1.12.77-2.23,1.15-3.34a22.83,22.83,0,0,1,1.54-9.49,15.9,15.9,0,0,0,.78-6.18,7.42,7.42,0,0,0-2.45-5.65c-1.91-1.71-4.41-1.84-6.72-2.5a2,2,0,0,0-1.38.33c-2.29,1.32-3.44,3.67-5,5.67-.12.16.12.61.2.93-.36.32-.66.78-1.08,1a5.74,5.74,0,0,0-3.66,5.29C192.3,301.63,191.88,302,191.63,302.44Z" style="fill: #4a435b"/>
    <path d="M201,378.65a10.42,10.42,0,0,1,.47-2.84c1.29-2.81,3.48-3.86,6.41-3,4.56,1.27,7.83,4,9.09,8.72a36.52,36.52,0,0,1,1,5.29c.39,3.41.58,6.84,1,10.24.59,5.27-1.58,9.18-5.74,12.17-.93.66-2,1.18-2.94,1.76h-.05a6.6,6.6,0,0,1-5.5-.07c-1.86-.94-3.53-2.09-4-4.32l2-.19,2.33,1.14c3.15,1.18,5.6-.15,7.81-2.23a9.39,9.39,0,0,0,3-7.78c0-.88.28-1.91-1-2.26l-2.47,1.21c-.44-.47-.88-.9-1.43-.14v0l-1.15-.73c.15-.74.29-1.48.43-2.23,1.33-.13,2.2-.72,2-2.19-.34-2.25-.73-4.49-1.1-6.74.78-.16,1.82-.25,1.68-1.29a8.37,8.37,0,0,0-3.49-6.08,6.24,6.24,0,0,0-3.63-.71c-1.27.07-1.7,1.31-2,2.42Z" style="fill: #5d536c"/>
    <path d="M209.85,395.61l1.15.73c.31,1.87-.89,2.59-2.36,3.11l-1.14.25-4.36-1.52c-1.94-2.93-3.17-6-2.29-9.66.12-.5-.23-1.12-.35-1.66-1.88,0-2.24,1.25-2.34,2.28-.31,3.26,0,6.45,2.17,9.13l2.18,4.24c.07,1.28.15,2.57.23,3.86l-2,.19A37.5,37.5,0,0,1,195.89,395c-1.09-4.71-.39-9,2.76-12.75a40.27,40.27,0,0,0,2.39-3.61l2.66.14c2.77,1.52,6,2.4,7.46,5.66.37,2.25.76,4.49,1.1,6.74.22,1.47-.65,2.06-2,2.19-.37-1.4-1-2.48-2.71-1.95-1.06.33-2.1.73-3,1.06-.51,2.05.3,3.19,2,3.46A12,12,0,0,0,209.85,395.61Zm-5.93-9.6a7.27,7.27,0,0,0,2-.25,1.9,1.9,0,0,0,1.07-1.31,2.07,2.07,0,0,0-1-1.45,2.89,2.89,0,0,0-3.18.1,2.09,2.09,0,0,0-.89,1.52c0,.44.73.85,1.16,1.25C203.2,386,203.41,385.92,203.92,386Z" style="fill: #2f2e3a"/>
    <path d="M113.63,360.4a.67.67,0,0,1-.55.28c-2.36-1.32-4.65-2.83-7.11-3.91a8.55,8.55,0,0,1-3.89-3.37c.43-3.28.19-3.6-2.78-3.81v-.24a10.59,10.59,0,0,0,.58-7.12c.58-1.91,1.16-3.81,1.73-5.72l6.38-3.35c3.24-.12,5.6,1.66,7.87,3.65v0l.92,1.12,0-.06c0,.48-.11.95-.16,1.42,0,.9,0,1.79,0,2.69a23.76,23.76,0,0,0-.38,2.76,5.28,5.28,0,0,1-2.47,4.22,20.09,20.09,0,0,1-3.36.21c-2.87-.28-4-1.49-4.71-4.56-.13-.59.12-1.33-.94-1.74a13.24,13.24,0,0,0,2.19,10c.5.72,1.56,1.06,2.37,1.57,1.11,1.67,2.27,3.24,4.66,2.75Zm-6.93-21.26c1.58,1.1,3,2.23,2.51,4.33a2.57,2.57,0,0,0,.08.95,1.79,1.79,0,0,0,2.67,1.1,4,4,0,0,0,1.2-5.88c-1.71-2.53-3.59-3-6-1.47C107.06,338.24,107,338.44,106.7,339.14Z" style="fill: #2f2e3a"/>
    <path d="M192.15,383.67a37.62,37.62,0,0,1-1.24,11.13,12.15,12.15,0,0,1-9.51,8.88c-3.64.86-6.75.18-9.13-3-1.37-1.83-2.8-3.6-3.41-5.86l1.67-1.3,3.12,1.82c1.18,4.17,3.06,5.76,6.25,5.21,2.3-.39,4.44-1.19,5.78-3.24a7.27,7.27,0,0,0,.48-2.4l-4.66.16c.94-.84,1.86-1.7,2.8-2.52a7.78,7.78,0,0,0,2.88-6.82c-.1-1.15-.92-1.61-2-1.75l-2.53-1.46c.08-1.07.17-2.14.25-3.21a1.58,1.58,0,0,0,.67-2.44,6.27,6.27,0,0,0-4-3.32l-.13-1.83c.9-1,1.94-1.23,2.92-.23,1.67,1.71,3.46,3.29,4.29,5.71A12.39,12.39,0,0,0,192.15,383.67Z" style="fill: #4a435b"/>
    <path d="M162.08,292.27a14.77,14.77,0,0,1,2.68-4.94A36.89,36.89,0,0,0,167.5,283c2.92-.75,5,.48,6.9,2.61,4.5,5.14,5.91,10.81,3.28,17.28-2.85,1.66-5.5,1.57-8-.76a14.75,14.75,0,0,0-2.61-1.53,3.91,3.91,0,0,0,.7,4.66c1.83,1.82,3.84,3.47,5.77,5.18-1.42,1.14-2.83,1.25-4.19-.09-1-1-1.87-2.16-3.49-2.08l0-.07a8.94,8.94,0,0,0-2.47-6.53Q162.72,297,162.08,292.27Zm11.44-1.48a24.8,24.8,0,0,0-2.23-3.09,2.59,2.59,0,0,0-4.19.28,7.19,7.19,0,0,0-1.34,3,36,36,0,0,0-.29,5.3c0,.36.41.72.89,1.48a13.53,13.53,0,0,0,.79-2c.25-1.26.32-2.57.62-3.82.52-2.17,1.34-2.39,3.94-1.2-.51,1-1.06,2-1.52,3a4.91,4.91,0,0,0,1.34,6.09,2.55,2.55,0,0,0,4.18-1.41,5.65,5.65,0,0,0,0-2.83A49.21,49.21,0,0,0,173.52,290.79Z" style="fill: #2f2e3a"/>
    <path d="M196.67,350.45c-.81,2.57-.81,2.57-3,2.58a23.07,23.07,0,0,1,3.58-13,7.38,7.38,0,0,1,7.95-3.55,5.73,5.73,0,0,1,1.65.94,10.53,10.53,0,0,1,1.77,2.28,25.91,25.91,0,0,1,1,16.17c-.7,2.87-3.21,4.23-6.31,4.09-1.45-.07-2.91-.18-4.36-.27-.4-.71-.81-1.41-1.21-2.11.22-2.32.45-4.63.68-6.95a7,7,0,0,1,5.47-4.31,10.89,10.89,0,0,0,1.87-.47,2.38,2.38,0,0,0,1.47-2.75,3.75,3.75,0,0,0-2.66-3.15,4.12,4.12,0,0,0-5,1.87A17.77,17.77,0,0,0,196.67,350.45Zm10.92.14c-1.31,0-2.27-.11-3.24-.09-1.18,0-2.3.25-2.82,1.5a3.56,3.56,0,0,0,.52,3.69,3,3,0,0,0,5,0A5.19,5.19,0,0,0,207.59,350.59Z" style="fill: #2f2e3a"/>
    <path d="M133.26,384.08l2.38-2.34c.21.54.46.86.39,1.06-2.67,7.57-1.55,14.76,2.22,21.64a42.41,42.41,0,0,0,3.76,5.72,6.25,6.25,0,0,0,7.4,2.27c4.11-1.3,7.32-3.42,8.58-7.88a21.84,21.84,0,0,1,2.29-4.24l1.25,1.66,2.86-1.47c1.44,1.68-1.55,7-5.7,10.59a4.69,4.69,0,0,0-3.65,1.08,23.27,23.27,0,0,1-4.2,2.5c-4.5,1.88-7.92,1.18-11-2.5a26.41,26.41,0,0,1-4.24-6.56c-2.77-6.57-4.46-13.38-2.49-20.57C133.16,384.72,133.2,384.4,133.26,384.08Z" style="fill: #7d7285"/>
    <path d="M173.29,428.18a29.9,29.9,0,0,1-3.87-2c-3.52-2.48-4.66-5.65-3.36-9.79a21.82,21.82,0,0,1,2.76-5.63,5.15,5.15,0,0,1,6.36-2.2,3.16,3.16,0,0,0,1.58,3.6c1.39.76,2.12,1.84,1.63,3.49-1.12,1.32-2.77.55-4.1,1-.65.24-1.06,1.55-.54,2a4.77,4.77,0,0,0,1.92,1.33c1.7.38,3.47.5,5.21.72l-.22,2.06c-1.72.47-3.45.91-5.16,1.43-1.17.35-1.33,1.27-1.11,2.33Z" style="fill: #2f2e3a"/>
    <path d="M112.88,387.79c-3.58,1.33-6.54-.6-9.57-1.91-1.29-.56-1.5-2-1.73-3.27-.47-2.68-1-5.35-1.48-8,2.16-2.34,5-2.7,7.92-2.6l6,3.23c.66,2.24,1.3,4.49.66,6.85a1.8,1.8,0,0,0-.58,3C113.71,386,113.29,386.88,112.88,387.79Z" style="fill: #2f2e3a"/>
    <path d="M166.48,349.43c-1.38-3.08-1.46-6.34-1.28-9.63.15-2.85.82-5.62,2.85-7.65,1.28-1.28,1-2.63,1.19-4,.75.21,1.73.19,2.22.68a8.25,8.25,0,0,0,5.23,2.16l2.52,2c1,2.73,2,5.45,3,8.18a5.63,5.63,0,0,1-2.62,5.72c-.26.16-.4.49-.59.74l-.15,1.08,0-.07c-.94-.18-1.87-.37-2.81-.54-5.24-.94-5.87-5.47-4.87-8.95.15-.51,1.24-1,1.94-1.06.9-.1,1.46.63,1.44,1.56,0,1.14-.2,2.27-.19,3.41a1.76,1.76,0,0,0,1.91,1.76,2.74,2.74,0,0,0,1.81-1.3,7.65,7.65,0,0,0-.39-6.17c-1.23-2.58-3.1-4-5.17-3.82-1.83.15-3.81,2.17-4.35,4.77-.78,3.78-.8,7.49,1.88,10.69l-.27,1.89Z" style="fill: #2f2e3a"/>
    <path d="M192.15,383.67a12.39,12.39,0,0,1-5.41-6.47c-.83-2.42-2.62-4-4.29-5.71-1-1-2-.72-2.92.23l-1.26.07c-5,1-6.68,2.76-7.21,7.6a23.87,23.87,0,0,1-.56,4.81,21.6,21.6,0,0,0-.63,8.15l-1.66,1.49c-2-2.41-1.57-5.14-1.12-7.91a25.94,25.94,0,0,0,.69-6.28c-.68-7.19,6.74-12.46,13.46-10.8a24.66,24.66,0,0,1,5.11,1.59,11,11,0,0,1,6.1,8.87A22.27,22.27,0,0,1,192.15,383.67Z" style="fill: #5d536c"/>
    <path d="M116.55,341.94c0-.9,0-1.79,0-2.69.38-.44.86-.86.16-1.42l0,.06-.92-1.12v0c.69-2-.27-3.42-1.5-4.8a4,4,0,0,0-3.87-1.5,3.23,3.23,0,0,0-2.5,2.65l-6.38,3.35c.68-3.63,3.14-6,5.94-8s5.62-1.44,8,.86a17.7,17.7,0,0,1,5.36,11.28,70.28,70.28,0,0,1,.07,11.24c-.24,3.9-2.7,6.51-5.94,8.41-.37.21-.95.07-1.44.1.1-1.1.19-2.19.28-3.28a14.49,14.49,0,0,1,2.31-3c2.37-1.82,2.66-4.18,2.32-6.85-.16-1.26-.23-2.54-.37-3.81C118.07,342.47,117.4,342.1,116.55,341.94Z" style="fill: #4a435b"/>
    <path d="M191.63,302.44c.25-.41.67-.81.7-1.24a5.74,5.74,0,0,1,3.66-5.29c.42-.17.72-.63,1.07-1l4.33.42a5.91,5.91,0,0,1,5.41,4.86c.71,3.07,1.59,6.34.16,9.53l-2.71,2.32-3.51.16c-.81-2.52-1.63-5-2.44-7.55a5.23,5.23,0,0,1,.63-1.3c1.35-1.51,3.09-1.25,3.75.57a12.92,12.92,0,0,1,.33,2.35c.08.55-.29,1.38.79,1.34,1.08-2.62,1.43-4.77.72-6.39a4.87,4.87,0,0,0-1.83-2.13c-3.57-2.05-6.4-.64-7,3.44a12.8,12.8,0,0,0,.24,2.87c-.93,3.83.66,7.17,2.08,10.54l-3.22-.12v0a1.87,1.87,0,0,0-.93-2.35C192.94,309.85,191.41,306.32,191.63,302.44Z" style="fill: #2f2e3a"/>
    <path d="M179.21,333l-2.52-2a2.24,2.24,0,0,0-1.15-2.35,17.11,17.11,0,0,1-1.94-1.56l2.19-.77a14.3,14.3,0,0,1,6.15,3.88,9.85,9.85,0,0,1,2.65,4,60.35,60.35,0,0,1,2.24,10.51c.68,6.75-4.76,13.27-11.5,14.24-3.1.44-4.91-.35-6.45-3.21-1.06-2-2.63-3.8-2.4-6.28l3.39,1.47,1.29,2.12c1.94,3.38,2.92,3.82,5.94,2.29a29.13,29.13,0,0,0,3.5-2.42c2.89-1.73,3.29-4.64,3.61-7.59l-.52-2.22c0-.6,0-1.21,0-1.82.3-2.41-.71-4.47-1.71-6.53A3.18,3.18,0,0,0,179.21,333Z" style="fill: #4a435b"/>
    <path d="M133.26,384.08c-.06.32-.1.64-.19,1-2,7.19-.28,14,2.49,20.57a26.41,26.41,0,0,0,4.24,6.56c3.12,3.68,6.54,4.38,11,2.5a23.27,23.27,0,0,0,4.2-2.5,4.69,4.69,0,0,1,3.65-1.08c-3.27,3.74-4.09,4.35-9.74,7.21l1.9,2.58-6-1.17c.09-.87,0-1.69-1-2-6.15-2.06-9.21-6.89-11.33-12.56-.63-1.68-1.11-3.41-1.77-5.07-1.94-4.93-1.29-9.91-.29-14.88a6,6,0,0,1,.95-1.65Z" style="fill: #5d536c"/>
    <path d="M132.28,221.65l-3.51.74a17,17,0,0,1-8.33-.77c-2.27-1.9-2.51-4.41-2.18-7.11a.45.45,0,0,0-.12-.75l.29-2.24c1.53-.22,2.1-1.47,2.67-2.62a2.62,2.62,0,0,1,2.15-1.75l1.36,2.94c-.93,2.19-1.8,3.88-2.35,5.67a2.26,2.26,0,0,0,1.23,2.85,3.47,3.47,0,0,0,2.68.17c.63-.39.75-1.61,1.1-2.46a1.94,1.94,0,0,0,.85-2.42,7.1,7.1,0,0,0-2.11-6.26c1.43-2.4,1.81-2.52,3.74-1.1l1.83,1.38a9.52,9.52,0,0,1,.59,5.3,2.14,2.14,0,0,0,.34,2.62A10.27,10.27,0,0,1,132.28,221.65Z" style="fill: #2f2e3a"/>
    <path d="M149.16,370.54l1.06-2.34c3.83,1.26,6.07,4.35,7.8,7.58a30.26,30.26,0,0,1,3.7,13.91c0,.29-.26.57-.4.86-.53-1.42-1.07-2.83-1.61-4.25a2.89,2.89,0,0,0,0-.93,4.75,4.75,0,0,0-.63-.88c-.1.27-.33.57-.27.8a6.87,6.87,0,0,0,.58,1.23,17,17,0,0,1-2.1,7.69l-3.19-1.55a33.49,33.49,0,0,1,.39-3.89c.65-3,.11-5.45-2.51-7.34a9.23,9.23,0,0,1-1.64-2.31c.1-.81.2-1.62.29-2.43,2,.23,2.34,2.09,3.33,3.3a1.15,1.15,0,0,0,1.86.22,14.17,14.17,0,0,0-.39-1.64C154.2,375.22,151.56,373,149.16,370.54Z" style="fill: #7d7285"/>
    <path d="M210.23,411h.05c.89.4,1.75.86,2.67,1.18,4.33,1.48,6.57,4.66,6.42,9.19a23.4,23.4,0,0,1-2.59,9.87,10.79,10.79,0,0,1-1.9,2.12L213,432.8c.68-1.49,1.31-3,2-4.46a15.35,15.35,0,0,0,1.5-6.65,8.1,8.1,0,0,0-1.92-5.44,2.13,2.13,0,0,0-2.61-.68c-1,.57-1.6,2.09-1.07,3a16.79,16.79,0,0,0,1.88,2.18,3.68,3.68,0,0,1,.69,4.1,1.84,1.84,0,0,1-2.47.87,4.78,4.78,0,0,1-1.15-.89,9.43,9.43,0,0,1-.89-11.73C209.42,412.37,209.82,411.66,210.23,411Z" style="fill: #706578"/>
    <path d="M199,359.67c1.45.09,2.91.2,4.36.27,3.1.14,5.61-1.22,6.31-4.09a25.91,25.91,0,0,0-1-16.17,10.53,10.53,0,0,0-1.77-2.28c1.19-2.63-.69-4.56-1.5-6.74,0-.88-.07-1.76-.1-2.62a1.44,1.44,0,0,1,1.93,1.12c.56,2.94,2.26,5.36,3.42,8,2.86,6.63,3.66,13.37,1.48,20.38-.78,2.5-1.34,5-3.21,7a12.63,12.63,0,0,0-3.3-.06c-2.22.54-3.7-.36-4.88-2.05C200.06,361.57,199.55,360.6,199,359.67Z" style="fill: #7d7285"/>
    <path d="M173.29,428.18l1.1-1.57c3.24.34,6.21-.06,8.8-3.08l-2.53-.68c.08-.69.15-1.37.22-2.06.2-2.2.3-4.36-2.49-5.11.49-1.65-.24-2.73-1.63-3.49a3.16,3.16,0,0,1-1.58-3.6,6.12,6.12,0,0,1,1.87,0c3.38,1.16,5.82,3.58,7.95,6.3a8.77,8.77,0,0,1,1.77,7.39,7.12,7.12,0,0,1-4.85,5.67L178,429Z" style="fill: #4a435b"/>
    <path d="M146.69,284.47l1.54,3c.22,4-1.18,7.64-2.64,11.25a10.75,10.75,0,0,1-7.59,6.89c-1.05-.21-2.09-.44-3.15-.63a1.93,1.93,0,0,1-1.76-1.82c2-.37,4.06-.49,5.8-1.71a8.17,8.17,0,0,0,4.21-5.12c.65-2,1-4.08,1.47-6.13Z" style="fill: #2f2e3a"/>
    <path d="M213,432.8l1.89.51c-2,3.91-5.28,5.23-9.52,4.38a17,17,0,0,0-1.89-.17l-2.22-1.65-.66-3.54-.1-.23c-1.38-4.05-.36-8.05.32-12a1.88,1.88,0,0,1,1.32-1.19c.91-.07,1.43.72,1.49,1.58.17,2.27.24,4.54.36,6.81-.87.63-.84,1.29-.06,2-.12,5.8,1.13,6.07,5.81,6.27l1.51-.9Z" style="fill: #5d536c"/>
    <path d="M114.88,302.32a16.49,16.49,0,0,1-3.4-1.89c-2.36-2.12-5.14-2.65-8.15-2.64a8,8,0,0,1-1,0c-1.45-.15-2.14-.68-2-1.57a2.3,2.3,0,0,1,1.83-2c2-.61,4.09-1.21,6.17,0a10.3,10.3,0,0,0,1.86.57l-.11-.05,1,1.16-.09-.08c.45.79,1,.27,1.49.09C114.91,297.33,115,299.79,114.88,302.32Z" style="fill: #706578"/>
    <path d="M102.08,353.4a8.55,8.55,0,0,0,3.89,3.37c2.46,1.08,4.75,2.59,7.11,3.91-4.19,3.23-6.84,3.06-9.92-.82-1.6-2-3.22-4.1-3.25-6.89Z" style="fill: #5d536c"/>
    <path d="M75.57,367.63l-1.24-1.47a8.42,8.42,0,0,0,.52-6.4c-.72-2.23-.66-4.71-.93-7.07h2c.23,1.11.41,2.23.71,3.32.46,1.72.88,1.89,3.26,1.5.38.43.77.86,1.16,1.28a6,6,0,0,1-.64,1.26c-1.5,1.73-1.34,3.41,0,5.11a9.32,9.32,0,0,1,.74,1.21l-1.31,1.23C78.41,367,77,366,75.57,367.63Z" style="fill: #5d536c"/>
    <path d="M143.77,482.63c-1.59.86-1.46,2.37-1.47,3.85a13.9,13.9,0,0,1-.21,2.32c0,.16-.56.33-.83.3s-.73-.36-.72-.52c.11-1.1.36-2.19.48-3.3.16-1.44.48-3-1-4q.22-3.89.44-7.78c1-.88,1.83-1.93,3.32-1.9a1.08,1.08,0,0,1,.24.77,1.84,1.84,0,0,0,.51,2.68A17,17,0,0,1,143.77,482.63Z" style="fill: #4a435b"/>
    <path d="M90.73,361.07a3.49,3.49,0,0,1-.73-.64c-1.57-2.5-3.92-3.23-6.7-3l-2-1.23c5.54-2.65,9.12-1.1,11.61,5Z" style="fill: #706578"/>
    <path d="M175.79,326.29l-2.19.77a17.11,17.11,0,0,0,1.94,1.56,2.24,2.24,0,0,1,1.15,2.35,8.25,8.25,0,0,1-5.23-2.16c-.49-.49-1.47-.47-2.22-.68a3,3,0,0,1,2.37-3.08A3.58,3.58,0,0,1,175.79,326.29Z" style="fill: #5d536c"/>
    <path d="M81.14,366.36a39,39,0,0,0,4.5,1.73,26.19,26.19,0,0,0,4,.43c.46,1.62-.35,2.12-1.33,2.39a7,7,0,0,1-5.16-.68,25.48,25.48,0,0,1-3.36-2.64Z" style="fill: #5d536c"/>
    <path d="M108.8,259.89c-1.19-.47-1.26-1.61-1.55-2.62.45-1.08.9-2.17,1.34-3.25l.36-.24q2.64-.39,5.29-.75c-.16.8-.31,1.61-.46,2.41C111.17,255.87,109.81,257.68,108.8,259.89Z" style="fill: #4a435b"/>
    <path d="M76.55,343.9q-.33,3.39-.67,6.8l-2.17-.3a10.68,10.68,0,0,1,.79-6.84Z" style="fill: #5d536c"/>
    <path d="M90.73,361.07l2.23.11c.85,2.36,1.05,4.56-1.67,6.44a7.32,7.32,0,0,1-.62-1.81C90.62,364.23,90.7,362.65,90.73,361.07Z" style="fill: #5d536c"/>
    <path d="M99.88,342.23a10.59,10.59,0,0,1-.58,7.12A6.77,6.77,0,0,1,99.88,342.23Z" style="fill: #4a435b"/>
    <path d="M163.35,301.63a8.94,8.94,0,0,1,2.47,6.53A6.39,6.39,0,0,1,163.35,301.63Z" style="fill: #5d536c"/>
    <path d="M113.78,255.44c.15-.8.3-1.61.46-2.41l2.68-.33,1.85,2.29Z" style="fill: #5d536c"/>
    <path d="M197.47,237.79a4.33,4.33,0,0,1,4.71-1.73c-.53,2.37-2.23,3.1-3.72,4Z" style="fill: #4a435b"/>
    <path d="M143.75,471.61c-1.49,0-2.36,1-3.32,1.9a4.89,4.89,0,0,1-.43-1.72,1.89,1.89,0,0,1,1.85-1.76A1.68,1.68,0,0,1,143.75,471.61Z" style="fill: #706578"/>
    <path d="M102.08,353.4,99.91,353l-.6-3.38C102.27,349.8,102.51,350.12,102.08,353.4Z" style="fill: #4a435b"/>
    <path d="M197.47,237.79l1,2.29-3.11,2.8-.34-.39-.81-1c-.16-.16-.32-.32-.47-.49Z" style="fill: #5d536c"/>
    <path d="M73.71,350.4l2.17.3c0,.66,0,1.32,0,2h-2A1.87,1.87,0,0,1,73.71,350.4Z" style="fill: #706578"/>
    <path d="M218,259.54c1.07,1.11.92,2.37.43,3.67A2.78,2.78,0,0,1,218,259.54Z" style="fill: #5d536c"/>
    <path d="M114.12,385a1.8,1.8,0,0,1,.58-3A2.12,2.12,0,0,1,114.12,385Z" style="fill: #5d536c"/>
    <path d="M144.5,475.06a1.84,1.84,0,0,1-.51-2.68A2.15,2.15,0,0,1,144.5,475.06Z" style="fill: #706578"/>
    <path d="M193.88,313.5a1.87,1.87,0,0,1,.93,2.35A1.73,1.73,0,0,1,193.88,313.5Z" style="fill: #4a435b"/>
    <path d="M76.55,343.9l-2-.34c.15-.61.3-1.22.46-1.83l2,.26Z" style="fill: #706578"/>
    <path d="M132.51,215.84a2.14,2.14,0,0,1-.34-2.62A1.91,1.91,0,0,1,132.51,215.84Z" style="fill: #4a435b"/>
    <path d="M81.35,356.17l2,1.23L81,358.78l-1.15-1.28Z" style="fill: #5d536c"/>
    <path d="M203.92,429.23c-.78-.67-.81-1.33.06-2A1.3,1.3,0,0,1,203.92,429.23Z" style="fill: #706578"/>
    <path d="M168.21,393.84l1.66-1.49.66,1.17-1.67,1.3C168.64,394.49,168.42,394.17,168.21,393.84Z" style="fill: #4a435b"/>
    <polygon points="108.95 253.78 108.59 254.02 108.61 253.65 108.95 253.78" style="fill: #5d536c"/>
    <path d="M211.24,434.6l-1.51.9Z" style="fill: #706578"/>
    <path d="M112.41,295.79c-.51.18-1,.7-1.49-.09Z" style="fill: #2f2e3a"/>
    <path d="M111,295.78l-1-1.16C111.12,294.39,111.44,294.78,111,295.78Z" style="fill: #2f2e3a"/>
    <path d="M200.49,432.1l.1.23-.22-.06Z" style="fill: #706578"/>
    <path d="M239.69,250.58c-2.88.54-5.74.94-8.19-1.27C234.27,249.48,237.14,249,239.69,250.58Z" style="fill: #5d536c"/>
    <path d="M221.87,249.11,221,255a2.63,2.63,0,0,1-1.06-2.88A3.53,3.53,0,0,1,221.87,249.11Z" style="fill: #5d536c"/>
    <path d="M221.06,258a4.29,4.29,0,0,1,.31,4C219.87,260.2,219.87,260.2,221.06,258Z" style="fill: #5d536c"/>
    <path d="M226.46,248.73l-4.26.15C223.59,247.91,225,248.38,226.46,248.73Z" style="fill: #5d536c"/>
    <path d="M177.68,302.85c.22.62.45,1.24.67,1.87a7.13,7.13,0,0,1-1.61,4.27,3.33,3.33,0,0,1-3.22,1.42c-1.92-1.72-3.93-3.37-5.76-5.19a3.91,3.91,0,0,1-.7-4.66,14.75,14.75,0,0,1,2.61,1.53C172.18,304.42,174.83,304.51,177.68,302.85Z" style="fill: #7d7285"/>
    <path d="M194.2,241.5l.81,1Z" style="fill: #4a435b"/>
    <path d="M140.82,316.35c5.88,3.25,7.7,7.28,5.69,13-1.63-.27-2.25-1.55-2.87-2.83.87-.71,1.21-1.66.46-2.5a16.23,16.23,0,0,0-3.56-3.17,6.32,6.32,0,0,0-3.24-.53,2.3,2.3,0,0,0-2.09,1.72l-5.45,5.32-2-.34c.77-6.23,3.09-9.14,10-10.78C139,317.67,139.27,317.68,140.82,316.35Z" style="fill: #7d7285"/>
    <path d="M140.82,316.35c-1.55,1.33-1.79,1.32-3.1-.15.29,0,.57-.06.86-.11l2,.18Z" style="fill: #c3bbb2"/>
    <path d="M140.56,316.27l-2-.18A1.16,1.16,0,0,1,140.56,316.27Z" style="fill: #7d7285"/>
    <path d="M98.34,417.18l-3.17-2c-.57-1.38,1.36-2.79.2-4.3,0-1,.09-1.95,0-2.91-.2-3.7,1.39-6.55,4-9,1.83-1.69,3.83-1.82,5.58-.13a13.39,13.39,0,0,1,1.74,2.32c2,3.09,2.43,6.66,2.93,10.19.08,1.29.06,2.59.25,3.85.57,3.75,0,4.41-4,4.6a6.18,6.18,0,0,1-1.78-.74A7.59,7.59,0,0,0,98.34,417.18Zm3.24-5.94c1.6-1.68,2.84,1.22,4.37.38.81-4.05.81-4.05-3.67-10.17A10.59,10.59,0,0,0,99,411.11c-.09.84,0,1.7,1,1.88C101.25,413.23,101.48,412.24,101.58,411.24Z" style="fill: #2f2e3a"/>
    <path d="M109.67,411.34c-.5-3.53-.89-7.1-2.93-10.19a13.39,13.39,0,0,0-1.74-2.32c-1.75-1.69-3.75-1.56-5.58.13-2.62,2.44-4.21,5.29-4,9,0,1,0,1.94,0,2.91-1.12-.51-1.93-1.21-1.66-2.62.41-2.08.75-4.18,1.2-6.24a8.94,8.94,0,0,1,8.6-6.77,6.11,6.11,0,0,1,3.09,1.29c2.51,1.83,3.69,4.54,4.43,7.44a31.93,31.93,0,0,1,.62,4.37A2.73,2.73,0,0,1,109.67,411.34Z" style="fill: #7d7285"/>
    <path d="M120,447.69c-2.51,1.57-5.06.79-7.53,0a2.74,2.74,0,0,1-1.67-1.62,39.14,39.14,0,0,1-.46-7.25A4.68,4.68,0,0,1,112,436a1.64,1.64,0,0,1,2.76.48c0,.27,0,.47-.1.57-.83.93-2.62,1-2.66,2.6a10.72,10.72,0,0,0,.42,3.81,4.72,4.72,0,0,0,2.06,1.93,4,4,0,0,0,4.61.15A2,2,0,0,1,120,447.69Z" style="fill: #7d7285"/>
    <path d="M98.34,417.18a7.59,7.59,0,0,1,5.84,1.87,6.18,6.18,0,0,0,1.78.74c-.24.81-.59,1.53-1.54,1.67a6,6,0,0,1-4.15-1.11A3.62,3.62,0,0,1,98.34,417.18Z" style="fill: #706578"/>
    <path d="M145.13,370.09a2.4,2.4,0,0,0,2,2.41c2,.64,3.54,1.73,3.45,4.14l-7.82-3.3C143.18,372,143.11,370.27,145.13,370.09Z" style="fill: #7d7285"/>
    <path d="M147.44,370l-1.29-.11Z" style="fill: #7d7285"/>
    <path d="M128.5,225.37l-3.44-.16c-2.39-.1-4.06-1.14-4.62-3.59a17,17,0,0,0,8.33.77Z" style="fill: #a22818"/>
    <path d="M155.13,431.73l.51,6.69c-.89,2.56-1.56,5.3-4.83,5.93a8.55,8.55,0,0,1-7.44-4l-.6-2.15c.37-2.05.75-4.1,1.12-6.15,2.94-1.13,2.94-1.13,4.59.93a33.22,33.22,0,0,0-1.86,3.91,2.88,2.88,0,0,0,1.4,3.34c1.24.59,2.17,0,2.94-1,1.09-.3,1.69-.85,1-2a5.54,5.54,0,0,0-.73-4.43,4.72,4.72,0,0,0-3.26-3.84,19.9,19.9,0,0,0-3.29-.75c.1-1,.21-2,.31-3.06a8,8,0,0,1,7.56,3.69C153.35,429.8,154.28,430.74,155.13,431.73Z" style="fill: #2f2e3a"/>
    <path d="M147.62,449.67a13,13,0,0,1,1.49-1.2,3.51,3.51,0,0,0,1.7-4.12c3.27-.63,3.94-3.37,4.83-5.93,1.08.21,1.86.82,1.73,1.95-.42,3.87-1.92,7.18-5.31,9.37C150.59,450.68,149.08,451,147.62,449.67Z" style="fill: #7d7285"/>
    <path d="M143.89,432c-2.14,0-3.59.86-4,3.11a6.55,6.55,0,0,1-.83,1.65c-1.25-2.72.3-4.69,2-6.4a16.81,16.81,0,0,1,3.69-2.24,18.92,18.92,0,0,1,3.29.74,4.72,4.72,0,0,1,3.26,3.84l-2.78.23C146.83,430.88,146.83,430.88,143.89,432Z" style="fill: #7d7285"/>
    <path d="M155.13,431.73c-.85-1-1.78-1.93-2.55-3a8,8,0,0,0-7.56-3.69c-.61-1.66-.48-2.39.44-2.81a3.33,3.33,0,0,1,3.71.2c2.33,2.26,4.48,4.71,6.58,7.18C156.38,430.35,155.79,431.15,155.13,431.73Z" style="fill: #7d7285"/>
    <path d="M117.07,442.48c-.22-.86-.4-1.18-.35-1.46.13-.77.2-1.66,1.23-1.79.24,0,.75.24.75.37a6.88,6.88,0,0,1-.22,2.23C118.39,442.12,117.7,442.21,117.07,442.48Z" style="fill: #7d7285"/>
    <path d="M113.24,426.42a1.34,1.34,0,0,1-2.07.65C111.85,425.49,112.05,425.43,113.24,426.42Z" style="fill: #5d536c"/>
    <path d="M100.29,304.9c1.15,1.28,1.61,1.69,1.95,2.18,2.66,3.94,2.65,3.94,7.43,3.77.82.71.57,1.44-.08,2-2.17,2-3.78,2.15-6,.56-1.88-1.32-3.67-2.75-3.79-5.31A22,22,0,0,1,100.29,304.9Z" style="fill: #7d7285"/>
    <path d="M106,307.81c-.57-1.68-1-2.88-1.45-4.28l-2.92-1.37c.22-.53.28-1.16.6-1.36,2.06-1.25,4-1.12,5.26.25a4.53,4.53,0,0,1,.22,6.15C107.47,307.5,106.87,307.52,106,307.81Z" style="fill: #7d7285"/>
    <path d="M146.69,284.47l-2.12,5.76-2.42-1.62c2.68-4.74,2.8-9.74,1.52-14.88-.48-1.92-1.23-3.64-3.58-3.84v-.08a7.87,7.87,0,0,0,.88-2.15,11.81,11.81,0,0,0-.3-2.6,1.59,1.59,0,0,1,2.41.24,12.17,12.17,0,0,1,3.51,8.4C146.71,277.29,146.66,280.88,146.69,284.47Z" style="fill: #7d7285"/>
    <path d="M131.82,302.55c.29-1.43-.77-2.4-1.21-3.59-1.08-2.86-2.11-5.74-3.07-8.65a5,5,0,0,1,.17-1.89l5.51,3.12c-2.35,1.21-2.71,1.73-2.2,3.47,1.15,3.93,3.47,6.48,7.87,6.47-1.74,1.22-3.81,1.34-5.8,1.71Z" style="fill: #706578"/>
    <path d="M131.06,270.92c2.45-1.68,5.25-1.1,7.95-1.23l1.08.12v.08l.23,4.11c-.86-.33-1.7-.7-2.57-1a3.19,3.19,0,0,0-3.46.37C132.56,273.41,132,272,131.06,270.92Z" style="fill: #706578"/>
    <path d="M207,309.77c.91,2.16.91,2.16,3.12,2.08l-1.15,3.33a2.53,2.53,0,0,0-2.27,2.18.58.58,0,0,0-.46.38l-5.34.74L198,316c-1.41-3.37-3-6.71-2.07-10.54l2.35-.75c.81,2.51,1.63,5,2.44,7.55,0,.86.26,1.63,1.22,1.71a2,2,0,0,0,2.29-1.87Z" style="fill: #a22818"/>
    <path d="M200.86,318.48l5.34-.74C204.52,318.68,202.88,320,200.86,318.48Z" style="fill: #b0a79c"/>
    <path d="M206.66,317.36a2.53,2.53,0,0,1,2.27-2.18Z" style="fill: #b0a79c"/>
    <path d="M208.64,399.45c1.47-.52,2.67-1.24,2.36-3.11v0l1.43.14,2.47-1.21c1.24.35.93,1.38.95,2.26-1.81.69-2.6,2.42-3.73,3.78-1.68,2-3.3,4-6.07,4.71-.43.1-.67,1-1,1.52l-2.33-1.14c-.07-1.29-.15-2.58-.22-3.87a23.25,23.25,0,0,0,3.7.4,5.19,5.19,0,0,0,2.53-.9c.79-.53.57-1.32-.11-1.94C208.63,399.86,208.64,399.65,208.64,399.45Z" style="fill: #706578"/>
    <path d="M209.85,395.61a12,12,0,0,1-3.34.34c-1.68-.27-2.49-1.41-2-3.46.94-.33,2-.73,3-1.06,1.73-.53,2.34.55,2.71,1.95C210.14,394.13,210,394.87,209.85,395.61Z" style="fill: #7d7285"/>
    <path d="M212.43,396.45l-1.43-.14C211.55,395.55,212,396,212.43,396.45Z" style="fill: #2f2e3a"/>
    <path d="M200.33,398.27c-2.2-2.68-2.48-5.87-2.17-9.13.1-1,.46-2.3,2.34-2.28.12.54.47,1.16.35,1.66-.88,3.64.35,6.73,2.29,9.67Z" style="fill: #7d7285"/>
    <path d="M203.92,386c-.51-.09-.72-.05-.82-.14-.43-.4-1.13-.81-1.16-1.25a2.09,2.09,0,0,1,.89-1.52A2.89,2.89,0,0,1,206,383a2.07,2.07,0,0,1,1,1.45,1.9,1.9,0,0,1-1.07,1.31A7.27,7.27,0,0,1,203.92,386Z" style="fill: #7d7285"/>
    <path d="M208.63,400.06l-1.13-.36,1.14-.25C208.64,399.65,208.63,399.86,208.63,400.06Z" style="fill: #7d7285"/>
    <path d="M116.55,341.94c.85.16,1.52.53,1.62,1.48.14,1.27.21,2.55.37,3.81.34,2.67,0,5-2.32,6.85a14.49,14.49,0,0,0-2.31,3c-2.39.49-3.55-1.08-4.66-2.75a6.26,6.26,0,0,0,4.45-5.45,5.28,5.28,0,0,0,2.47-4.22A23.76,23.76,0,0,1,116.55,341.94Z" style="fill: #7d7285"/>
    <path d="M108,333.16a3.23,3.23,0,0,1,2.5-2.65,4,4,0,0,1,3.87,1.5c1.23,1.38,2.19,2.83,1.5,4.8C113.59,334.82,111.23,333,108,333.16Z" style="fill: #7d7285"/>
    <path d="M115.85,336.77l.92,1.12Z" style="fill: #7d7285"/>
    <path d="M116.73,337.83c.7.56.22,1-.16,1.42C116.62,338.78,116.68,338.31,116.73,337.83Z" style="fill: #7d7285"/>
    <path d="M185.22,384c1,.14,1.86.6,2,1.75a7.78,7.78,0,0,1-2.88,6.82c-.94.82-1.86,1.68-2.8,2.52a20,20,0,0,1-3.29-.11,14.78,14.78,0,0,1-2.72-1c-2.82-2.17-3.34-5.22-3.17-8.5.06-1.27.24-2.53.37-3.8a.47.47,0,0,0,.16-.62l.55-1.07,2.72-.88c2.29-.29,4.59-1,6.82.26-.08,1.07-.17,2.14-.25,3.21a1.11,1.11,0,0,1-.52.2c-.65,0-1.3-.07-1.95-.14a4,4,0,0,0-3.93,1.42,3.64,3.64,0,0,0-.1,4.53c.81,1.82,2.13,3,4.12,2.11C183.13,389.39,185.73,387.78,185.22,384Z" style="fill: #2f2e3a"/>
    <path d="M185.22,384c.51,3.8-2.09,5.41-4.91,6.66-2,.87-3.31-.29-4.12-2.11,2.42-1.49,4.73-3.11,6-5.81a1.11,1.11,0,0,0,.52-.2Z" style="fill: #7d7285"/>
    <path d="M179.66,373.55c-.72.66-1.42,1.36-2.17,2a3.93,3.93,0,0,0-1.37,3.51l-2.72.88a8.63,8.63,0,0,1,2.88-6c.7-.67,1.33-1.42,2-2.13l1.25-.07C179.57,372.33,179.61,372.94,179.66,373.55Z" style="fill: #7d7285"/>
    <path d="M173.52,290.79l-1.81,0c-2.6-1.19-3.42-1-3.94,1.2-.3,1.25-.37,2.56-.62,3.82a13.53,13.53,0,0,1-.79,2c-.48-.76-.9-1.12-.89-1.48a36,36,0,0,1,.29-5.3,7.19,7.19,0,0,1,1.34-3,2.59,2.59,0,0,1,4.19-.28A24.8,24.8,0,0,1,173.52,290.79Z" style="fill: #5d536c"/>
    <path d="M170.14,349c1.63.49,3.24,1.11,4.91,1.44s3.13,0,3.89-1.79l0,.07c.12-.09.36-.18.36-.25a6.31,6.31,0,0,0-.21-.83c.19-.25.33-.58.59-.74a5.66,5.66,0,0,0,2.63-5.72l1.43.07c0,.61,0,1.22,0,1.83.17.73.35,1.47.52,2.21-.32,2.95-.72,5.86-3.61,7.59a1.55,1.55,0,0,0-2-.61,8.88,8.88,0,0,1-6,.41c-.39-.11-.9.21-1.36.33l-1.29-2.12Z" style="fill: #7d7285"/>
    <path d="M183.7,341.26l-1.43-.07L179.21,333a3.18,3.18,0,0,1,2.78,1.72C183,336.79,184,338.85,183.7,341.26Z" style="fill: #706578"/>
    <path d="M179.05,347.65a6.31,6.31,0,0,1,.21.83c0,.07-.24.16-.36.25Z" style="fill: #b0a79c"/>
    <path d="M204.25,312.09A2,2,0,0,1,202,314c-1-.08-1.22-.85-1.22-1.71Z" style="fill: #b0a79c"/>
    <path d="M184.21,345.3c-.17-.74-.35-1.48-.52-2.21C183.87,343.82,184,344.56,184.21,345.3Z" style="fill: #706578"/>
    <path d="M127.27,216.32c-.71-1.16-.35-1.94.85-2.42A1.94,1.94,0,0,1,127.27,216.32Z" style="fill: #4a435b"/>
    <path d="M118.26,214.51l-.3-.34.18-.41A.45.45,0,0,1,118.26,214.51Z" style="fill: #4a435b"/>
    <path d="M159.38,386.52a6.87,6.87,0,0,1-.58-1.23c-.06-.23.17-.53.27-.8a4.75,4.75,0,0,1,.63.88,2.89,2.89,0,0,1,0,.93Z" style="fill: #4a435b"/>
    <path d="M99,411.11l2.59.13c-.1,1-.33,2-1.64,1.75C99,412.81,98.9,412,99,411.11Z" style="fill: #5d536c"/>
    <path d="M143.37,440.31c-1.41-.8-1.44-.93-.6-2.15Z" style="fill: #7d7285"/>
    <path d="M151,439.18a1.76,1.76,0,0,1,1-2C152.65,438.33,152.05,438.88,151,439.18Z" style="fill: #7d7285"/>
    <path d="M135.85,291.94l-2.63-.4-5.51-3.12q-.45-3.62-.89-7.25a10.7,10.7,0,0,1,4.24-10.25c.9,1.05,1.5,2.49,3.23,2.45a2.85,2.85,0,0,1-1.2,3.63c-2,.45-2.89,1.79-3.1,3.78a8.93,8.93,0,0,0,1.33,6c1.48,2.3,1.89,2.45,5.18,1.23.46-.13,1.05-.12,1.35-.42a15,15,0,0,0,3.88-7.63c.52-2.21-.36-4.11-1.41-6l-.23-4.11c2.35.2,3.1,1.92,3.58,3.84,1.28,5.14,1.16,10.14-1.52,14.88-1.65,1.06-2.71,3-4.91,3.22Z" style="fill: #2f2e3a"/>
    <path d="M182.17,382.72c-1.25,2.7-3.56,4.32-6,5.81a3.64,3.64,0,0,1,.1-4.53,4,4,0,0,1,3.93-1.42C180.87,382.65,181.52,382.68,182.17,382.72Z" style="fill: #a22818"/>
    <path d="M172.69,381.62l-.16-.55.32-.08A.48.48,0,0,1,172.69,381.62Z" style="fill: #7d7285"/>
    <path d="M135.85,291.94l1.39-.11Z" style="fill: #706578"/>
    <path d="M133.09,277a11.1,11.1,0,0,0,2.87,9.71,4.24,4.24,0,0,1,.54,1.3c-3.29,1.22-3.7,1.07-5.18-1.23a8.93,8.93,0,0,1-1.33-6C130.2,278.79,131.07,277.45,133.09,277Z" style="fill: #706578"/>
  </g>
</svg>
