<svg id="Layer_13" data-name="Layer 13" xmlns="http://www.w3.org/2000/svg" width="259" height="243" viewBox="0 0 259 243">
  <title>fairemain</title>
  <path d="M14.44,252.36c-2.55-.56-3.48-2.46-3.45-4.72,0-3.43.4-6.85.62-10.27a13.54,13.54,0,0,0,.19-3.89c-1.71-7.24-1.48-14.63-1.94-22-.33-5.21-.46-10.45-.49-15.68A119.61,119.61,0,0,0,8,178.71c-.49-3.23-.76-6.5-1-9.77-.54-9.31-1-18.63-1.5-27.95-.83-14.56-1.15-29.11.3-43.66.31-3.09.45-6.21.75-9.3a28.58,28.58,0,0,1,.73-3.38l3.58-.11c.13-1,.25-1.94.38-2.91-2.65-3.61-2-7.25-.08-10.89.84-2.86,1.69-5.71,2.53-8.57l-2.69-.37-.93,1.71c-.49,1-1,2-1.54,3.13-.7-1.79-.7-1.79-.38-4,.1-3.91.15-7.81.33-11.71.35-7.78.77-15.54,1.15-23.32a5.06,5.06,0,0,1-1.81.14A5.14,5.14,0,0,1,6,27.22l0,.4c-.57,11-.79,21.93-1.24,32.88-.39,9.33-.87,18.64-1.37,28-.49,9.15-1.42,18.3-1.47,27.46-.06,10.3.62,20.61,1,30.91.32,8,.71,16,1.1,24a52.16,52.16,0,0,0,.44,5.87C5.91,185.52,5.79,194.35,6,203.2c.16,7.51.77,15,1.36,22.53a79.36,79.36,0,0,1-.44,18.61,16.2,16.2,0,0,1,0,2.31c-.31,2.54-.61,2.74-3.66,2.77a24.38,24.38,0,0,0-3.22.94,7.4,7.4,0,0,1-6.06.06c-.32,1-.65,2.06-1,3.14a23.43,23.43,0,0,1-3.06.2c-3.2-.2-6.4-.49-9.59-.75-1.34-.11-2.56-.41-2.88-2a15.69,15.69,0,0,1-3.2.87c-7.66.42-15.33.48-23,.53-5.07,0-10.13.35-15.2.58-6.26.29-12.39-.8-18.57-1.52-3.73-.44-7.48-.78-11.22-1.16l-20.5-2.12c-3.08.81-6.13,0-9.18-.22-4.51-.34-9-.88-13.5-1.34l-6.77-.33a7.57,7.57,0,0,1-5.22-.27c-12.77-.47-25.54-.72-38.32-.16-4.56.2-9.15-.07-13.73-.13l-3.14,0-12-.07a4.53,4.53,0,0,1,3.9,3.62c1.45,0,2.9,0,4.35.07s2.26,1.1,2.09,2.68a6.67,6.67,0,0,1-.37,1.91,12,12,0,0,0-.65,6.25,25.86,25.86,0,0,1,.12,4.4,11.42,11.42,0,0,0,1.7,6.52c1.62,2.82,3.17,5.68,4.75,8.52l3.31,1.69,1.65-1.53c-1.06-.73-2.27-1.29-2.8-2.62a8.62,8.62,0,0,0-.94-1.71c-4.94-7.19-5.56-14.84-2.44-22.89.23-.61.44-1.23.68-1.84a4.81,4.81,0,0,1,.59-.69,10.92,10.92,0,0,1,2.45-.55c12.28-.26,24.56-.66,36.83-.6,6.7,0,13.39.95,20.09,1.38,9.8.64,19.62,1.08,29.41,1.81,8.49.63,17,1.36,25.43,2.42A172.27,172.27,0,0,0-54.57,256a94.54,94.54,0,0,1,13.25.2c8,.66,16,.05,24,.38,1.8.07,3.6.14,5.39.32a58.63,58.63,0,0,0,13.24.24c1.6-.2,3.25-.44,4.81.38,2.44,1.29,4.05.23,5.23-1.93l.84-1.31c.45-.08.89-.17,1.34-.22C14.89,253.91,14.89,253.92,14.44,252.36Z" style="fill: #5d536c"/>
  <path d="M193.33,111.94q1.63-8.11,3.26-16.24c.79-3.94,1-4.35,3.42-7.43a14.21,14.21,0,0,1,8.46,1.38c2.66,1.2,5.29,2.46,7.93,3.69l12.34,8.36,3.15,2.38,3.78,3.23,4.31,4.52.27.18c2.1,3.91,5.15,7.07,8.1,10.32l-.1.09a5.53,5.53,0,0,0,.66,1.79c2.18,2.55,3.09,5.64,3.94,8.77l-1.69,1.36a68.21,68.21,0,0,0-10-16.74c-9-10.75-20.27-18.35-32.66-24.5a22.49,22.49,0,0,0-3.2-1.23c-3.16-1-4.68-.34-5.63,2.75-.76,2.49-1.11,5.1-1.75,7.63-.84,3.31-1.78,6.6-2.68,9.89Z" style="fill: #706578"/>
  <path d="M195.24,112.14c.9-3.29,1.84-6.58,2.68-9.89.64-2.53,1-5.14,1.75-7.63,1-3.09,2.47-3.74,5.63-2.75a22.49,22.49,0,0,1,3.2,1.23c12.39,6.15,23.68,13.75,32.66,24.5a68.21,68.21,0,0,1,10,16.74c.34,1.42.63,2.86,1,4.27a93.3,93.3,0,0,1,3.71,24.67A79.48,79.48,0,0,1,252.35,187a57.64,57.64,0,0,1-15.44,24.75,93.26,93.26,0,0,1-31.86,19.92c-8.4,3.25-16.87,6.33-25.25,9.62a101.74,101.74,0,0,0-35,23.07c-8.85,8.85-16.68,18.48-22.35,29.7a76.83,76.83,0,0,0-3.89,9c-3,8.72-1.46,17.15,2.18,25.3a58.63,58.63,0,0,0,8,13.43c-.31,1.1-.63,2.19-.94,3.29-.61,2.16-.31,3.1,1.82,3.76a8.76,8.76,0,0,1,5.54,4.46,13.44,13.44,0,0,0,2.52,2.68c0,.57,0,.89,0,1.21-.35,3.17.38,3.81,3.33,2.53a3.4,3.4,0,0,1,4.38.93c1.4,1.6,2.67,3.32,4.13,4.86a7.84,7.84,0,0,0,3,2.32c2.11.65,3.14,2.08,4.16,3.85,3,5.16,3,5.13-2.87,5.81-3.13.36-6.15.38-8.89-1.71a4.24,4.24,0,0,0-3.23-.49c-2.48.64-5.17,1.07-6.61,3.55l-6.4.26a5.83,5.83,0,0,1-2.63-3.58c-.77-2.59-2.52-3.62-5.11-3.7a21,21,0,0,1-3.4-.66c-1.13-3.17-3.53-4.66-6.58-5.28l.27-.28c.68-.91,1.45-1.77,2-2.75a3.1,3.1,0,0,0-.67-4.37c-1.09-1-2.29-1.83-3.45-2.74-.09-.62-.19-1.24-.29-1.86.77-.14,1.62-.34,1.49-1.33-.16-1.33-.18-2.79-1.64-3.54-.41-3.41-.89-6.81-1.2-10.23-.55-6-.92-12.06-1.49-18.08-.5-5.37-1.17-10.73-1.8-16.08a6.64,6.64,0,0,0-.55-1.88,2.39,2.39,0,0,0-3.62-1.27c-3.36,1.84-5.65,4.54-6,8.44a58.31,58.31,0,0,0,0,7.82c.51,10.29,1.09,20.58,1.62,30.87a14.37,14.37,0,0,1-.15,2.93,6.41,6.41,0,0,1-.67,1.6,3.77,3.77,0,0,1-3.64-1.53,55.52,55.52,0,0,1-5.53-6.84c-3.5-5.44-5.39-11.56-6.7-17.83-.9-4.32-1.37-8.72-2.13-13.07a57.92,57.92,0,0,0-1.61-7.16,2.2,2.2,0,0,0-3.65-.73c-3.54,3.73-6.52,7.76-6.92,13.18a26.9,26.9,0,0,0,.94,9.71,87.74,87.74,0,0,1,3.2,23.28,69.28,69.28,0,0,1-.4,7.34,6.92,6.92,0,0,1-.82,2,4.68,4.68,0,0,1-1.31,0,4.83,4.83,0,0,1-1.3-.66,22.27,22.27,0,0,1-8.32-11.26c-1-2.94-1.89-5.89-2.84-8.84-.21-4.83-.4-9.65-.66-14.48a11.22,11.22,0,0,0-4.79-9.05c-2.07-1.6-2.47-1.62-4.48-.25-1.64.79-2.85,2.56-5,2.19l-1.3,0-1.17,1.74.09,1.54c0,2.44-.23,4.9-.1,7.34.27,5.23.67,10.45,1.09,15.67.24,2.94.63,5.86,1,8.79.49,4.39,1,8.77,1.49,13.16-1.41-.22-2.9-.95-4,.65s-.71,3.12.09,4.62c.69,1.31,1.44,2.58,2.2,3.84C45.6,388.65,50,402,53.3,415.75c1.54,6.36,2.8,12.8,4.15,19.21a59.77,59.77,0,0,0,9.68,21.87c2.81,4,5.54,8.12,8.4,12.11,1.34,1.86,2.92,3.54,4.37,5.32a3.17,3.17,0,0,0,4,.87,13.15,13.15,0,0,0,3.32-2c2.07-1.77,3-4.18,3.7-6.78a70.29,70.29,0,0,0,2.14-17.53c0-5.77,1.84-11,4.26-16,1.49-3.11,3.45-6,6.82-7.46,2.81,3.05,5,6.3,4.64,10.8-.23,2.79.35,3.3,3.18,4,1.41.33,3,.25,3.65,2.24-.56,1.14-1.6,2.38-1.75,3.73-.44,3.82-1.83,7.7.2,11.51a3.34,3.34,0,0,1,.25,1.91,10.87,10.87,0,0,0,1.84,8.3,5.44,5.44,0,0,1-.57,7.2,8,8,0,0,0-1.74,2.91,4.33,4.33,0,0,1-3.64,3.46,6.19,6.19,0,0,0-1.85.61c-1.36.75-2.5,1.84-2,3.51.63,2.19-.31,3.82-1.44,5.44-1.57,2.26-3.2,4.49-4.93,6.92a6.88,6.88,0,0,0-5.55.08,24.21,24.21,0,0,1-8.34-3.73c.91-1.46,1-2.34,0-2.72-1.18-.49-2.42-.84-3.56-1.23a7,7,0,0,1-.65-1.46,7.38,7.38,0,0,0-4.82-5.7c-3.45-1.37-7-2.51-10.57-3.55-.81-.23-1.86.37-2.81.58a56.5,56.5,0,0,1-11.16-10.23c-12.3-14-20.66-30.2-26-48.05a165.1,165.1,0,0,1-5.46-23.93,104.06,104.06,0,0,1-.39-25c.74-7.67,1.74-15.3,2.91-22.92,1.39-9.06,2.22-18.23,2.74-27.38a50.42,50.42,0,0,0-2.95-19.34,32.88,32.88,0,0,0-7.46-12A19.6,19.6,0,0,0,4.3,285.41c-7.51-1.14-14.72.12-21.72,2.68a58.82,58.82,0,0,0-21.26,13.77,113.36,113.36,0,0,0-19,25.55,71.45,71.45,0,0,0-8.55,26.51c-1,8.17-.64,16.36-.82,24.54-.23,10.34-.87,20.65-3.51,30.71A60.08,60.08,0,0,1-88.1,438.26a73.33,73.33,0,0,1-29.06,16.93,53.77,53.77,0,0,1-25.27,1.55,16.09,16.09,0,0,0-1.95-.29c-11.78-.64-22.32-5.26-32.38-10.81a85.43,85.43,0,0,1-21-16,136.8,136.8,0,0,1-19.44-25.24A77.52,77.52,0,0,1-225.48,385c-2-7.57-1.21-15,.87-22.31,3.36-11.91,10.19-21.56,19.67-29.35,3.79-3.12,7.75-6.07,11.83-8.8,7.19-4.81,15.32-7.36,23.66-9.31l29.68-6.94A39.65,39.65,0,0,0-121.57,298c6.23-5.87,7.47-14.14,3.18-21.52-3-5.15-7.25-8.9-13.17-10.32a19.44,19.44,0,0,0-6.3-.58,37.3,37.3,0,0,0-15.33,4.89c-5,2.88-10,5.55-15.1,8.24a39,39,0,0,1-12.66,3.78A20.19,20.19,0,0,1-192,281.1c-1.06-.45-2.13-.85-3.2-1.27-1.06-.73-2.27-1.29-2.8-2.62a8.62,8.62,0,0,0-.94-1.71c-4.94-7.19-5.56-14.84-2.44-22.89.23-.61.44-1.23.68-1.84a4.81,4.81,0,0,1,.59-.69,10.92,10.92,0,0,1,2.45-.55c12.28-.26,24.56-.66,36.83-.6,6.7,0,13.39.95,20.09,1.38,9.8.64,19.62,1.08,29.41,1.81,8.49.63,17,1.36,25.43,2.42A172.27,172.27,0,0,0-54.57,256a94.54,94.54,0,0,1,13.25.2c8,.66,16,.05,24,.38,1.8.07,3.6.14,5.39.32a58.63,58.63,0,0,0,13.24.24c1.6-.2,3.25-.44,4.81.38,2.44,1.29,4.05.23,5.23-1.93l.84-1.31c.45-.08.89-.17,1.34-.22,1.32-.13,1.32-.12.87-1.68,1-4.27.47-8.81,2.28-13,.35-.81,0-1.92,0-2.89q-.13-6.57-.29-13.14c0-1.46-.11-2.92-.2-4.38-.16-2.75-.49-5.51-.5-8.27,0-4.71.16-9.42.24-14.13a3.16,3.16,0,0,0-.08-1,12.38,12.38,0,0,1,.56-7.67c-.77-2.09-1.88-3.74-1.88-5.39,0-5.68-.5-11.39.48-17.06.25-1.44.29-2.92.43-4.38,1-1.25.92-1.36-.73-2.06.08-1,.17-2,.25-2.94,1.62-1.49,1.44-3.47,1.24-5.35-.06-.58-1-1.07-1.52-1.6,0-.65.11-1.3.16-2A2.24,2.24,0,0,0,17,144.93c.16-2.76.35-5.52.32-8.29,0-1.18-.13-2.28.69-3.22,1.53-1.76,1.59-3.83,1.39-6a19,19,0,0,1,2.2-10.3c1.1-2.18,1.75-4.19,1.25-6.51a4.17,4.17,0,0,1,.68-3.72,9.3,9.3,0,0,0,1.9-7.78,4.54,4.54,0,0,1,.12-1.46,12,12,0,0,0-1-7.17,7.14,7.14,0,0,1-.67-5.24c.45-1.41.31-2.93.63-4.26.89-3.75,1.76-7.68,5.45-10a9.77,9.77,0,0,0,4.65-6.06,8.67,8.67,0,0,1,3.62-5.09,39.57,39.57,0,0,1,6.58-4.2c4.2-1.82,8.58-3.2,13.3-2.09,1.46.34,3,.68,3.54,2.24s-.62,2.74-1.79,3.7a2.91,2.91,0,0,1-.42.25C55,57.2,51,58.71,47.31,61.58a27,27,0,0,0-2.16,2,54.47,54.47,0,0,1-4.89,4.73c-3.28,2.48-5.57,5.45-6,9.65l-.92,1.44c1,1.93.32,4,.45,6-.24,1.17-.45,2.34.37,3.39a116.74,116.74,0,0,0-1.72,18c0,10.87,1.4,21.56,2.94,32.25a176.39,176.39,0,0,0,7.4,29.52,28.45,28.45,0,0,0,7.1,11.63,8.49,8.49,0,0,0,12.64-.3,19.81,19.81,0,0,0,2.82-4,39.13,39.13,0,0,0,4.44-14c1.18-10.59,2.38-21.19.27-31.81-.1-.48-.08-1-.14-1.47-1.49-11.71-2-23.49-2.41-35.28-.19-5.73-.43-11.46-.64-17.18,1.26-.11,2.2-.6,2.28-2a2.35,2.35,0,0,0-1.24-2.44A12.62,12.62,0,0,0,65.6,71l-3.95-9c5.72.09,5.72.09,7,5.32,2.32.5,4.51,1,6.7,1.46a1.87,1.87,0,0,0,2.37-1.8c0-.81-.25-1.62-.24-2.43a8.94,8.94,0,0,1,.29-3.37,22.63,22.63,0,0,0,1.37-7.2c.3-3.71,2.72-6.17,5-8.67.28-.3.93-.24,1.41-.34a23.76,23.76,0,0,1,.78,2.83A95.34,95.34,0,0,1,86,81.52c-3.32,16.89-3.73,33.75-.28,50.64,1.84,9,4.7,17.66,9.88,25.41,8.71,13,25.23,18.74,39.59,13.05a51.89,51.89,0,0,0,6.08-1.8A78.45,78.45,0,0,0,159,158.42c4.11-3.26,8.21-6.54,12.11-10a91.32,91.32,0,0,0,21.39-27.89C193.79,117.9,194.35,114.94,195.24,112.14ZM-31.28,271l0-.07c-.43-1.2-1.15-1.37-2.12-.57l-1.88.34-2.13.26-1.9.28a3,3,0,0,0-3.09.27l-2.82-.05a23.82,23.82,0,0,0-2.85-.63c-5.38-.52-10.78-.94-16.16-1.46-8.81-.85-17.63-1.63-26.41-2.67-6.51-.77-13-1.92-19.44-2.89a10.42,10.42,0,0,0-1.47-.13,2.26,2.26,0,0,0-2.33,2.55,18.09,18.09,0,0,0,1.39,4.15c1.44,3.12,3.15,6.13,4.48,9.29a59.85,59.85,0,0,1,3,8.82c1.11,4.5-1,8.31-3.24,12a2.25,2.25,0,0,1-1.1.95c-3.82,1.14-5.54,4.39-7.57,7.36-5.4,7.88-12.65,13.58-21,18.13a12.14,12.14,0,0,1-11.29.5c-3-1.29-6.12-2.34-9.23-3.38-9.19-3.07-16.65.43-23.44,6.3a5.77,5.77,0,0,0-.94,1.14c-1.61,2.28-1.59,4.22.39,6.16a25.22,25.22,0,0,0,4.66,3.56,54.11,54.11,0,0,0,5.33,2.51C-167.52,346-164.61,350-163,355a7.7,7.7,0,0,1-1.17,7.46c-1.94,2.42-4,4.73-6.12,7-2.56,2.78-5.68,3.11-9,1.6a46.85,46.85,0,0,1-6.92-3.7,9.68,9.68,0,0,0-11.51-.17,68.85,68.85,0,0,0-9.89,7.25c-5.2,4.85-7.26,10.79-4.64,17.83a58,58,0,0,0,7.59,14.27c3.51,4.8,8.47,7.08,14.08,8.22a6,6,0,0,0,1.77-.13c.33-.4.66-.63.72-.91.3-1.43.61-2.87.79-4.33a48.16,48.16,0,0,1,2.39-10.52,27.63,27.63,0,0,1,9.4-12.32,6.55,6.55,0,0,1,8.81,1,10.16,10.16,0,0,1,2.57,6.73,23.59,23.59,0,0,1-1.59,7.66c-.86,2.5-1.57,5-1,7.7.4,2.06.46,4.26,1.26,6.15a40.74,40.74,0,0,0,8.94,13.31,34.12,34.12,0,0,0,20.06,9.3,39.24,39.24,0,0,0,21-3.43c4.14-.83,7.48-3.17,10.74-5.67,4.81-3.68,5.52-8.69,4.33-14.12a7.71,7.71,0,0,0-6.65-6.38c-1.13-.19-2.25-.43-3.38-.56q-9.27-1.08-18.54-2.11c-6.55-.72-10.42-5.09-9.81-11.66a26.27,26.27,0,0,1,7.39-16.21c1.24-1.29,2.62-2.45,3.94-3.68a21.5,21.5,0,0,1,13.59,3.09c2.9,1.77,5.82,3.66,9.28,4.28l3.65,1.4,1.25.53a11.09,11.09,0,0,0,5.87.56l1.27-.34c6.5-1.89,10.39-6.41,10.94-12.87.41-5-.06-9.83-2.5-14.31a76.44,76.44,0,0,0-4.88-8.5,42.17,42.17,0,0,1-6.19-12.74,21.25,21.25,0,0,1,1.77-17.54,67,67,0,0,1,7.4-10.36A97.56,97.56,0,0,1-68,292a236.25,236.25,0,0,1,20.62-12.37c1.68-.91,3.7-1.46,4.62-3.43l2.11-1-.15.08a6.9,6.9,0,0,1,4.53-1.26c1.12.05,2.24.07,3.36.09,1.09.69,1.85.47,2.21-.81.08-.39.17-.78.25-1.17Zm185.65-56.34a71.34,71.34,0,0,1-24.71,5.19c-1.3.05-2.6.08-3.89.25a1.61,1.61,0,0,0-1.43,1.69,1.41,1.41,0,0,0,1.5,1.56c3.25-.09,6.5-.19,9.72-.52,3.88-.41,7.76-.92,11.59-1.65A6.06,6.06,0,0,1,153.3,223l4.66-1.85a49.61,49.61,0,0,1,12,.42,19.5,19.5,0,0,0,8.63-.19l2-.16,2-.29a8.19,8.19,0,0,0,2.4.13,121.66,121.66,0,0,0,11.79-3.28,70.28,70.28,0,0,0,23.58-14.67,33.81,33.81,0,0,0,8.28-10.77l.79-1.29a25.14,25.14,0,0,0,7.32-15.74c.24-1.56.48-3.12.73-4.67,1-4.35.27-8.7,0-13,0-.3-.28-.57-.43-.85,0-5-2.14-9.49-3.82-14.05a22.13,22.13,0,0,0-11-12.6c-.87-.44-1.68-1-2.51-1.5a16.22,16.22,0,0,0-6.16-3.56l-2.37-1.09c-1.66-1.4-3.39-2.53-5.73-1.65a8.06,8.06,0,0,1-.89,2.35c-1.48,1.81-1,3.56-.35,5.52a48.65,48.65,0,0,1,1.52,24.68c-.45,2.24-1.16,4.42-1.67,6.65A32,32,0,0,1,197.44,175c-3.34,4-6.83,7.92-10.38,11.75-7.56,8.16-15.29,16.14-24.19,22.87ZM93.61,262.71c0-2.18,0-3.82-.11-5.45-.27-5.76-1.76-11.29-3.19-16.84a42.13,42.13,0,0,0-8.8-16.81,14.22,14.22,0,0,0-12.09-5.4,42.19,42.19,0,0,0-7.25,1c-4.46,1-8.82,2.71-13.32,3.34s-8.76,2.62-13.14,3.87a5.06,5.06,0,0,0-3.83,5.61c.2,3.1.39,6.2.84,9.26a13.63,13.63,0,0,1,0,4.85c-3.12,15.07.78,28.13,11.13,39.43A44.91,44.91,0,0,0,54.67,294,13.29,13.29,0,0,0,66,295.05a29.81,29.81,0,0,0,11.38-6.59c3.57-3.36,7.13-6.8,9.61-11.09,1.72-3,3.31-6,4.74-9.12A47.45,47.45,0,0,0,93.61,262.71Zm-270.93,9.44a20.64,20.64,0,0,0,2.1-.06c3.87-.44,5.83-3,5.09-6.8a40,40,0,0,0-1.66-5.64,6.92,6.92,0,0,0-3-3.78c-1-.59-1.86-1.29-2.8-1.93-1.52-1-2.88-.94-3.83.46a19.41,19.41,0,0,0-3.53,9.56C-185.25,268.56-182.34,271.74-177.32,272.15Zm209-191.59a4.57,4.57,0,0,0-.66-.47s-.29.2-.27.26a3.23,3.23,0,0,0,.33.64Z" style="fill: #d9d0c3"/>
  <path d="M59.48,59.74a2.91,2.91,0,0,0,.42-.25c1.17-1,2.32-2.07,1.79-3.7s-2.08-1.9-3.54-2.24c-4.72-1.11-9.1.27-13.3,2.09a39.57,39.57,0,0,0-6.58,4.2,8.67,8.67,0,0,0-3.62,5.09A9.77,9.77,0,0,1,30,71c-3.69,2.3-4.56,6.23-5.45,10-.32,1.33-.18,2.85-.63,4.26a7.14,7.14,0,0,0,.67,5.24,12,12,0,0,1,1,7.17,4.54,4.54,0,0,0-.12,1.46,9.3,9.3,0,0,1-1.9,7.78,4.17,4.17,0,0,0-.68,3.72c.5,2.32-.15,4.33-1.25,6.51a19,19,0,0,0-2.2,10.3c.2,2.18.14,4.25-1.39,6-.82.94-.7,2-.69,3.22,0,2.77-.16,5.53-.32,8.29a2.24,2.24,0,0,1-2.14,2.27,19.91,19.91,0,0,1-2-1.34c-1.53-1.29-1.68-2.16-.79-3.79.54-1,1.11-2,1.64-2.95a7.81,7.81,0,0,0,.16-7.5,6.41,6.41,0,0,1-.2-6,7.49,7.49,0,0,0,.21-2.86c0-2-.12-3.89,0-5.83.18-2.76.54-5.51.82-8.26l2.28.87c1.88.7,3.13-.07,4.09-1.84-.71-1.58-1.67-2.74-3.68-2.36l-2.41.42c-.35-3.84-.62-7.7-1.09-11.52-.27-2.11-.5-4.08.41-6.15.62-1.42,0-2.33-1.47-3.09a8.73,8.73,0,0,0-1.88-.42c.13-1,.25-1.94.38-2.91,2-3,1.7-6.42,1.37-9.77,0-.42-.95-.75-1.45-1.12.84-2.86,1.69-5.71,2.53-8.57l1.21-3c.76-1.75,1.53-3.5,2.29-5.26,1.26-1.85,2.56-3.68,3.77-5.57,2.86-4.47,5.7-9,10-12.21a14.86,14.86,0,0,0,3.16-1.06,30.85,30.85,0,0,0,3.45-2.73c2.51-2,4.76-4.59,8.52-4a2.49,2.49,0,0,0,1.35-.54,4.15,4.15,0,0,1,3.73-.12,5,5,0,0,0,3.27.23c3.42-1.65,6.61-.89,9.95.16a10.77,10.77,0,0,0,5.27.54c2.95-.66,4.63.6,6.32,3-1.82,2.31-1.72,5-1.48,7.8,0,.32-.06.65-.06,1,0,.95-.23,2.2,1.07,2.29.59,0,1.36-.77,1.83-1.36a4.47,4.47,0,0,0,1-2.18c.24-2.56,1.83-3.67,4.07-4.22a30.94,30.94,0,0,1,3,10.16c-.48.1-1.13,0-1.41.34-2.32,2.5-4.74,5-5,8.67a22.63,22.63,0,0,1-1.37,7.2,8.94,8.94,0,0,0-.29,3.37c0,.81.24,1.62.24,2.43a1.87,1.87,0,0,1-2.37,1.8c-2.19-.46-4.38-1-6.7-1.46-1.27-5.23-1.27-5.23-7-5.32Z" style="fill: #d5cbbe"/>
  <path d="M10.92,84.54A8.73,8.73,0,0,1,12.8,85c1.51.76,2.09,1.67,1.47,3.09-.91,2.07-.68,4-.41,6.15.47,3.82.74,7.68,1.09,11.52-.1,1-.19,1.94-.28,2.91-.28,2.75-.64,5.5-.82,8.26-.12,1.94,0,3.88,0,5.83a7.49,7.49,0,0,1-.21,2.86,6.41,6.41,0,0,0,.2,6,7.81,7.81,0,0,1-.16,7.5c-.53,1-1.1,2-1.64,2.95-.89,1.63-.74,2.5.79,3.79a19.91,19.91,0,0,0,2,1.34c0,.66-.11,1.31-.16,2a38.47,38.47,0,0,0-.38,4.27,11.92,11.92,0,0,0,.66,2.68c-.08,1-.17,2-.25,2.94.24.68.48,1.37.73,2.06-.14,1.46-.18,2.94-.43,4.38-1,5.67-.47,11.38-.48,17.06,0,1.65,1.11,3.3,1.88,5.39a12.38,12.38,0,0,0-.56,7.67,3.16,3.16,0,0,1,.08,1c-.08,4.71-.26,9.42-.24,14.13,0,2.76.34,5.52.5,8.27.09,1.46.16,2.92.2,4.38q.16,6.57.29,13.14c0,1,.36,2.08,0,2.89-1.81,4.16-1.26,8.7-2.28,13-2.55-.56-3.48-2.46-3.45-4.72,0-3.43.4-6.85.62-10.27a13.59,13.59,0,0,0,.19-3.9c-1.71-7.23-1.48-14.62-1.94-22-.33-5.21-.46-10.45-.49-15.68A119.61,119.61,0,0,0,8,178.71c-.49-3.23-.76-6.5-1-9.77-.54-9.31-1-18.63-1.5-27.95-.83-14.56-1.15-29.11.3-43.66.31-3.09.45-6.21.75-9.3a28.58,28.58,0,0,1,.73-3.38Z" style="fill: #c3bbb2"/>
  <path d="M11.22,70.74c.5.37,1.41.7,1.45,1.12.33,3.35.64,6.74-1.37,9.77C8.65,78,9.3,74.38,11.22,70.74Z" style="fill: #c3bbb2"/>
  <path d="M15,59.19l-1.21,3-2.69-.37a6.37,6.37,0,0,1,2-4.23Z" style="fill: #706578"/>
  <path d="M8.21,62.63l1.92.88c-.49,1-1,2-1.54,3.13C7.89,64.85,7.89,64.85,8.21,62.63Z" style="fill: #706578"/>
  <path d="M31.05,36.15c-4.33,3.26-7.17,7.74-10,12.21-1.21,1.89-2.51,3.72-3.77,5.57l-1.32-1.57a23.31,23.31,0,0,1,1.58-3.56C22.69,41,28.32,33.55,35.91,27.86A96,96,0,0,1,50.37,18.6c6.46-3.23,13.1-3.93,20-1.48.76.27,1.58.41,2.37.61l3.35,1.41-.13.29a53.5,53.5,0,0,1,8.1,11c.3.69.59,1.37.89,2l2.13,6.18.63,2.13c.24,1,.49,1.93.73,2.89.28,1.37.55,2.74.83,4.11.07.6.14,1.21.2,1.82.14,1.36.27,2.71.41,4.06,0,.64.07,1.28.11,1.92.14,1.34.27,2.68.41,4s0,2.62,0,3.93c-.29,3.58-.42,7.18-.9,10.73-.84,6.16-2,12.28-2.86,18.43a82,82,0,0,0-.61,19l.15,2.77a33.2,33.2,0,0,0,.9,10l.39,2c.1,1.11-.22,2.35,1,3.12l-.09.05a6.73,6.73,0,0,0,.68,4.91c.25,1,.5,1.95.76,2.93l.69,2.16a41,41,0,0,0,7.24,16c7.86,11.2,18.7,15.85,32.29,14,1.29-.17,2.58-.39,3.87-.59l1.33,1.5c-14.36,5.69-30.88,0-39.59-13.05-5.18-7.75-8-16.39-9.88-25.41-3.45-16.89-3-33.75.28-50.64a95.34,95.34,0,0,0,.37-33.65A23.76,23.76,0,0,0,85.58,45a30.82,30.82,0,0,0-3-10.15L81.9,33l-.57-1.12c-1.41-2.17-2.83-4.33-4.23-6.5A11.45,11.45,0,0,0,72,21.07c-6.39-2.72-13-3.45-19.53-.61a68.81,68.81,0,0,0-20.2,13.62A8.94,8.94,0,0,0,31.05,36.15Z" style="fill: #706578"/>
  <path d="M135.18,170.62l-1.33-1.5a12.3,12.3,0,0,1,2.09-1.23c18.42-6.71,32.77-18.86,45-33.74a71.41,71.41,0,0,0,11-19.1c.42-1,.93-2.07,1.4-3.11l1.91.2c-.89,2.8-1.45,5.76-2.73,8.36a91.32,91.32,0,0,1-21.39,27.89c-3.9,3.49-8,6.77-12.11,10a78.45,78.45,0,0,1-17.75,10.4A51.89,51.89,0,0,1,135.18,170.62Z" style="fill: #7d7285"/>
  <path d="M237.51,170.61c-.25,1.55-.49,3.11-.73,4.67-1.14-.05-2.28-.18-3.41-.12a2.7,2.7,0,0,0-2.9,2.69c-.21,1.59-.15,3.22-.21,4.88a13.13,13.13,0,0,0-6.21,8.7l-.61,1.44c-1.82.53-2.14,2.26-3,3.61-1.34,2.16-3,3.84-5.89,3.37,1-1.26,2.73-2.3,1.59-4.8-2.78,1.69-4.38,4.19-6.44,6.16a6.57,6.57,0,0,0-.91,1.69l2.18.41a2.29,2.29,0,0,1-1.83,2c-1.77.54-3.62,1.55-4.11,3.19-.91,3-3.33,4.37-5.58,5.78-4.43,2.78-9.12,5-14.62,4.49a11.87,11.87,0,0,0,1.92-1.41,9.9,9.9,0,0,1,6.87-3.08,6.77,6.77,0,0,0,2.3-.68c.32-.16.45-.71.92-1.52a35.29,35.29,0,0,0-3.54.07,3.51,3.51,0,0,1-2.71-.51c-2.05-1.41-2.1-1.33-4.3.44-2.91-1-2.91-1-1.74-4.41a38.72,38.72,0,0,0,4.93-1.9A43.94,43.94,0,0,0,194,202.6c.13-1.76-1.1-2.38-2.12-3.15,2.06-1.5,4.15-3,6.17-4.54a1.26,1.26,0,0,0,.15-2.14l-3.82,1.52-.31-.36c0-.84.83-1.94-1-2.45l-5.55,7.79a2.57,2.57,0,0,0-2.09,1.79c-2.2.08-3.87,1-5.45,3.37l2.41-.33c-.79,1.58-2.18,3.14-2.24,4.75-.14,3.58-1.85,5.29-5.09,6.1a12.86,12.86,0,0,0-3.09,1.47,12.73,12.73,0,0,0-1.7,1.55,10,10,0,0,0,2.8.66,15.62,15.62,0,0,1,6.24.2c.23.06.58-.25.87-.38l4.68.31-2.23,2.14-2,.29c-.75-1-1.41-.74-2,.16a19.5,19.5,0,0,1-8.63.19,49.61,49.61,0,0,0-12-.42,6,6,0,0,0-1.22-.75,1.75,1.75,0,0,1-1.32-2.22c2.66-1.56,5.38-3.05,8-4.75.7-.46,1-1.58,1.43-2.4a9.85,9.85,0,0,0,6-4,17.74,17.74,0,0,1,5.24-4.35c1.54-.88,3.44-1.92,4.1-3.37,1.25-2.78,3.63-4.12,5.72-5.9,1.25-1.05,2.45-2.16,3.62-3.31,2.49-2.45,3.84-6.15,7.76-7.05.27-.06.51-.42.67-.69,2-3.51,5-6.56,5.6-10.82a30.34,30.34,0,0,1,1.1-3.76c.77-2.71,1.69-5.31,4.36-6.84a3.44,3.44,0,0,0,1.59-2.9c.07-1,.07-2,.11-2.94l-.12-9.59c0-1.6.44-3.36-.08-4.76-1.07-2.86-.81-5.73-.86-8.62l0-4.83a3.35,3.35,0,0,1,1.65-3.34l2.37,1.09c1.31,3.39,1.07,7.21,3,11.25a10.2,10.2,0,0,0,.75-2.19c0-2.17.34-4.2,2.37-5.5.83.5,1.64,1.06,2.51,1.5a22.13,22.13,0,0,1,11,12.6c1.68,4.56,3.85,9,3.82,14.05-2.69,3.53-2.86,7.45-1.79,11.56A3,3,0,0,0,237.51,170.61Zm-62.3,36.53,1.06-.9.17-.38-.27.26-1.08.88-.31.21.16.19Zm52.48-42.46c2.1-1.41,2.4-2.41,1.2-4.08a1,1,0,0,0-.83-.23c-.26,0-.67.35-.67.53,0,1.24.15,2.49.24,3.73-.32,0-.64.06-1,.06-.87,0-1.71.19-1.76,1.19s.71,1.44,1.58,1.46a5.8,5.8,0,0,0,1.68-.49C228,165.93,227.82,165.3,227.69,164.68ZM213,162.8a3,3,0,0,0,.09,3.27c1.77-.1,2-1.22,1.74-2.67a5.68,5.68,0,0,0,1.3-5c-.14-.65,0-1.63-.94-1.57Zm19-15.51c-1,4.54-1,4.85,1.6,7.87a3.58,3.58,0,0,0,.86-3.57C234.16,150.05,234.21,148.3,232,147.29Zm-17.22,27.78c-1.56,2.19-2.43,3.64-2.19,5.5a1.43,1.43,0,0,0,.86,1,1.33,1.33,0,0,0,1.18-.47C215.57,179.51,215.72,177.85,214.75,175.07Zm6.1-17.31c1.52-6.31,1.38-7.32-1.57-9.43C219.89,151.49,219.37,154.19,220.85,157.76ZM201,203.7c-1.24.94-2.16,1.57-3,2.3a4.9,4.9,0,0,0-.72,1.28c1,1.17,2.08.76,3,0S202.28,205.67,201,203.7ZM217.89,167a6.78,6.78,0,0,0,.63-4.95c-.09-.44-.56-.81-.86-1.21C217.19,162.93,216.07,164.94,217.89,167Zm-9.15,5.17c1.75-1.09,2.71-2.31,2.88-4A1.67,1.67,0,0,0,211,167a.93.93,0,0,0-.88.13A4.69,4.69,0,0,0,208.74,172.14Zm-39.9,40.59a5.17,5.17,0,0,0,4.27-2c.22-.29.11-.86,0-1.28,0-.11-.62-.23-.84-.13A6.29,6.29,0,0,0,168.84,212.73Zm52.5-75.85a1.57,1.57,0,0,0-.39.19c-.1.1-.22.3-.19.39.28.68.59,1.35.89,2,.12-.08.34-.16.33-.24,0-.73-.11-1.47-.21-2.2C221.76,137,221.49,136.93,221.34,136.88Z" style="fill: #2f2e3a"/>
  <path d="M59.48,59.74l2.18,2.33q2,4.49,3.94,9c.42,1.71.85,3.41,1.28,5.12.21,5.72.45,11.45.64,17.18.39,11.79.92,23.57,2.41,35.28.06.49,0,1,.14,1.47,2.11,10.62.91,21.22-.27,31.81a39.13,39.13,0,0,1-4.44,14,19.81,19.81,0,0,1-2.82,4,8.49,8.49,0,0,1-12.64.3,28.45,28.45,0,0,1-7.1-11.63A176.39,176.39,0,0,1,35.4,139c-1.54-10.69-3-21.38-2.94-32.25a116.74,116.74,0,0,1,1.72-18,3.41,3.41,0,0,0-.37-3.39c-.13-2,.51-4-.45-6l.92-1.44c.41-4.2,2.7-7.17,6-9.65a54.47,54.47,0,0,0,4.89-4.73,27,27,0,0,1,2.16-2C51,58.71,55,57.2,59.48,59.74ZM68,154.15c1.15-7.7.67-15.36-.36-23C66,118.8,65.26,106.39,64.73,94c-.23-5.56-.8-11.1-1.22-16.65A31.6,31.6,0,0,0,60.61,67a8.88,8.88,0,0,0-3.4-4.09c-1.51-1-3.15-1.26-4.6-.17-4.23,3.2-9.29,5.72-10.22,11.81a8.38,8.38,0,0,1-.84,1.77,71.58,71.58,0,0,0-5.13,18.38,111.93,111.93,0,0,0-.3,28.39,187.5,187.5,0,0,0,4.76,28c1.56,6,3.4,11.94,5.22,17.87a21,21,0,0,0,5.23,8.23c3.69,3.85,7.58,3.42,10.57-1.06a4.64,4.64,0,0,0,.25-.42c2-3.76,4-7.54,4.51-11.86C67.06,160.62,67.55,157.39,68,154.15Z" style="fill: #706578"/>
  <path d="M93.61,262.71a47.45,47.45,0,0,1-1.86,5.54c-1.43,3.11-3,6.15-4.74,9.12-2.48,4.29-6,7.73-9.61,11.09A29.81,29.81,0,0,1,66,295.05,13.29,13.29,0,0,1,54.67,294a44.91,44.91,0,0,1-10.83-8.36c-10.35-11.3-14.25-24.36-11.13-39.43a13.63,13.63,0,0,0,0-4.85c-.45-3.06-.64-6.16-.84-9.26a5.06,5.06,0,0,1,3.83-5.61c4.38-1.25,8.51-3.21,13.14-3.87s8.86-2.3,13.32-3.34a42.19,42.19,0,0,1,7.25-1,14.22,14.22,0,0,1,12.09,5.4,42.13,42.13,0,0,1,8.8,16.81c1.43,5.55,2.92,11.08,3.19,16.84C93.57,258.89,93.56,260.53,93.61,262.71Zm-5.47,5.93a4,4,0,0,0,2.18-3.1c1.18-5.19,1.55-10.35-1.1-15.28-.52-1.54-1-3.08-1.56-4.63-1.06-3.25-1.35-6.74-3.07-9.78a8.46,8.46,0,0,0-1.41-5.38c-1-1.43-1.85-3-3.87-3.1l-.73-1.06c-.52-2.61-.67-2.76-3.35-3.22-1.8-1.72-4-1.49-6.24-1.42-1.57.06-3.14.23-4.71.35-3.23.81-6.49,1.54-9.68,2.51-.77.23-1.31,1.25-2,1.91-1.85,1.3-3.9.83-5.92.7a1.43,1.43,0,0,0-2.15-.17,16.1,16.1,0,0,0-4.43,6.33Q37.83,240,35.6,246.66c-2,5.85-1.42,11.46-.42,17.22,1.41,4.35,2.74,8.66,5.26,12.62a66.21,66.21,0,0,0,7.08,8.7,17.12,17.12,0,0,0,9.59,5.5,9.2,9.2,0,0,1,1.88.53c4.44,2,8.36.66,11.93-2.06,4.16-3.17,8.3-6.42,11.12-11,2.56-1.21,3.72-3.56,4.85-5.94C87.31,271,87.72,269.84,88.14,268.64Zm-48.6-40c-3.41.77-3.74.83-4.14,1.72a10.81,10.81,0,0,0-.4,8.43C37.36,235.6,38.09,232.36,39.54,228.64Z" style="fill: #5d536c"/>
  <path d="M209.59,132.09c0,2.89-.21,5.76.86,8.62.52,1.4.08,3.16.08,4.76-1.67,2.51-1.3,5.42-1.52,8.19-.07.9.86,1.2,1.64,1.4,0,1,0,2-.11,2.94a3.44,3.44,0,0,1-1.59,2.9c-2.67,1.53-3.59,4.13-4.36,6.84a30.34,30.34,0,0,0-1.1,3.76c-.64,4.26-3.56,7.31-5.6,10.82-.16.27-.4.63-.67.69-3.92.9-5.27,4.6-7.76,7.05-1.17,1.15-2.37,2.26-3.62,3.31-2.09,1.78-4.47,3.12-5.72,5.9-.66,1.45-2.56,2.49-4.1,3.37a17.74,17.74,0,0,0-5.24,4.35,9.85,9.85,0,0,1-6,4l-1.93-1.39c8.9-6.73,16.63-14.71,24.19-22.87,3.55-3.83,7-7.73,10.38-11.75a32,32,0,0,0,6.66-13.52c.51-2.23,1.22-4.41,1.67-6.65a48.65,48.65,0,0,0-1.52-24.68c-.63-2-1.13-3.71.35-5.52a8.06,8.06,0,0,0,.89-2.35c2.34-.88,4.07.25,5.73,1.65a3.35,3.35,0,0,0-1.65,3.34l-2.7-.64C208.15,128.88,207.28,131.06,209.59,132.09Z" style="fill: #5d536c"/>
  <path d="M182.62,220.9l2.23-2.14v0c5.5.55,10.19-1.71,14.62-4.49,2.25-1.41,4.67-2.75,5.58-5.78.49-1.64,2.34-2.65,4.11-3.19a2.29,2.29,0,0,0,1.83-2v.23l1.12-.92-.05,0c.38-.3.75-.61,1.12-.92l0,.05,1.17-1.41,0-.34.31-.18c2.87.47,4.55-1.21,5.89-3.37.83-1.35,1.15-3.08,3-3.61.24.54,0,1.35,1.05,1.59.62-1.11,1.19-2.16-.44-3a13.13,13.13,0,0,1,6.21-8.7c.06-1.66,0-3.29.21-4.88a2.7,2.7,0,0,1,2.9-2.69c1.13-.06,2.27.07,3.41.12A25.14,25.14,0,0,1,229.46,191a5.44,5.44,0,0,0-.32-.88c-.13-.24-.44-.66-.51-.62-.39.17-.88.37-1,.71-.51,1.08,0,1.75,1.08,2.08a33.81,33.81,0,0,1-8.28,10.77,70.28,70.28,0,0,1-23.58,14.67A121.66,121.66,0,0,1,185,221,8.19,8.19,0,0,1,182.62,220.9Z" style="fill: #4a435b"/>
  <path d="M155.42,218.15a1.75,1.75,0,0,0,1.32,2.22,6,6,0,0,1,1.22.75L153.3,223a6.06,6.06,0,0,0-6.15-1.82c-3.83.73-7.71,1.24-11.59,1.65-3.22.33-6.47.43-9.72.52a1.41,1.41,0,0,1-1.5-1.56,1.61,1.61,0,0,1,1.43-1.69c1.29-.17,2.59-.2,3.89-.25a71.34,71.34,0,0,0,24.71-5.19,4.64,4.64,0,0,1,.35,1.62A1.75,1.75,0,0,0,155.42,218.15Z" style="fill: #5d536c"/>
  <path d="M155.42,218.15a1.75,1.75,0,0,1-.7-1.9,4.64,4.64,0,0,0-.35-1.62l8.5-5L164.8,211c-.47.82-.73,1.94-1.43,2.4C160.8,215.1,158.08,216.59,155.42,218.15Z" style="fill: #7d7285"/>
  <path d="M237.51,170.61a3,3,0,0,1-2.24-2.33c-1.07-4.11-.9-8,1.79-11.56.15.28.41.55.43.85C237.78,161.91,238.47,166.26,237.51,170.61Z" style="fill: #4a435b"/>
  <path d="M219.75,128.57c-2,1.3-2.33,3.33-2.37,5.5a10.2,10.2,0,0,1-.75,2.19c-2-4-1.73-7.86-3-11.25A16.22,16.22,0,0,1,219.75,128.57Z" style="fill: #5d536c"/>
  <path d="M66.88,76.16C66.45,74.45,66,72.75,65.6,71a12.62,12.62,0,0,1,2.32.65,2.35,2.35,0,0,1,1.24,2.44C69.08,75.56,68.14,76.05,66.88,76.16Z" style="fill: #d5cbbe"/>
  <path d="M15,156.11a11.92,11.92,0,0,1-.66-2.68,38.47,38.47,0,0,1,.38-4.27c.53.53,1.46,1,1.52,1.6C16.43,152.64,16.61,154.62,15,156.11Z" style="fill: #d5cbbe"/>
  <path d="M228.67,192.31c-1.06-.33-1.59-1-1.08-2.08.16-.34.65-.54,1-.71.07,0,.38.38.51.62a5.44,5.44,0,0,1,.32.88C229.19,191.45,228.93,191.88,228.67,192.31Z" style="fill: #2f2e3a"/>
  <path d="M178.64,221.35c.61-.9,1.27-1.19,2-.16Z" style="fill: #4a435b"/>
  <path d="M31.68,80.56l-.6.43a3.23,3.23,0,0,1-.33-.64c0-.06.23-.28.27-.26A4.57,4.57,0,0,1,31.68,80.56Z" style="fill: #d5cbbe"/>
  <path d="M15.47,161.11c-.25-.69-.49-1.38-.73-2.06C16.39,159.75,16.43,159.86,15.47,161.11Z" style="fill: #d5cbbe"/>
  <path d="M33.81,85.34a3.41,3.41,0,0,1,.37,3.39C33.36,87.68,33.57,86.51,33.81,85.34Z" style="fill: #d5cbbe"/>
  <path d="M34.28,77.94l-.92,1.44Z" style="fill: #d5cbbe"/>
  <path d="M15.93,52.36l1.32,1.57c-.76,1.76-1.53,3.51-2.29,5.26l-1.87-1.62A11.35,11.35,0,0,1,15.93,52.36Z" style="fill: #5d536c"/>
  <path d="M81.9,33l.63,1.89c-2.24.54-3.83,1.65-4.07,4.21a4.47,4.47,0,0,1-1,2.18c-.47.59-1.24,1.41-1.83,1.36-1.3-.09-1.07-1.34-1.07-2.29,0-.33.09-.66.06-1-.24-2.76-.34-5.49,1.48-7.8-1.69-2.36-3.37-3.62-6.32-3a10.77,10.77,0,0,1-5.27-.54C61.15,27,58,26.26,54.54,27.91a5,5,0,0,1-3.27-.23,4.15,4.15,0,0,0-3.73.12,2.49,2.49,0,0,1-1.35.54c-3.76-.57-6,2-8.52,4a30.85,30.85,0,0,1-3.45,2.73,14.86,14.86,0,0,1-3.16,1.06,8.57,8.57,0,0,1,1.2-2.07,68.81,68.81,0,0,1,20.2-13.62C59,17.62,65.6,18.35,72,21.07a11.45,11.45,0,0,1,5.11,4.31c1.4,2.17,2.82,4.33,4.23,6.5Z" style="fill: #d9d0c3"/>
  <path d="M14.67,108.63c.09-1,.18-1.94.28-2.91l2.41-.42c2-.38,3,.78,3.68,2.36-1,1.77-2.21,2.54-4.09,1.84Z" style="fill: #d9d0c3"/>
  <path d="M81.9,33l-.57-1.12Z" style="fill: #d5cbbe"/>
  <path d="M180.17,218.45c-.29.13-.64.44-.87.38a15.62,15.62,0,0,0-6.24-.2,10,10,0,0,1-2.8-.66,12.73,12.73,0,0,1,1.7-1.55,12.86,12.86,0,0,1,3.09-1.47c3.24-.81,4.95-2.52,5.09-6.1.06-1.61,1.45-3.17,2.24-4.75l3-3a2.57,2.57,0,0,1,2.09-1.79,8.43,8.43,0,0,0,2.08.59,10.32,10.32,0,0,0,2.29-.41c1,.77,2.25,1.39,2.12,3.15a43.94,43.94,0,0,1-4.49,3.18,38.72,38.72,0,0,1-4.93,1.9c-1.17,3.42-1.17,3.42,1.74,4.41.44,2.42-.54,3.85-2.9,4.59A17.75,17.75,0,0,0,180.17,218.45Z" style="fill: #4a435b"/>
  <path d="M191.88,199.45a10.32,10.32,0,0,1-2.29.41,8.43,8.43,0,0,1-2.08-.59l5.55-7.79c1.84.51,1,1.61,1,2.45l-.33.56.64-.2,3.82-1.52a1.26,1.26,0,0,1-.15,2.14C196,196.47,193.94,198,191.88,199.45Z" style="fill: #706578"/>
  <path d="M180.17,218.45a17.75,17.75,0,0,1,3.25-1.77c2.36-.74,3.34-2.17,2.9-4.59,2.2-1.77,2.25-1.85,4.3-.44a3.51,3.51,0,0,0,2.71.51,35.29,35.29,0,0,1,3.54-.07c-.47.81-.6,1.36-.92,1.52a6.77,6.77,0,0,1-2.3.68,9.9,9.9,0,0,0-6.87,3.08,11.87,11.87,0,0,1-1.92,1.41v0Z" style="fill: #7d7285"/>
  <path d="M214.75,175.07c1,2.78.82,4.44-.15,6a1.33,1.33,0,0,1-1.18.47,1.43,1.43,0,0,1-.86-1C212.32,178.71,213.19,177.26,214.75,175.07Z" style="fill: #706578"/>
  <path d="M220.85,157.76c-1.48-3.57-1-6.27-1.57-9.43C222.23,150.44,222.37,151.45,220.85,157.76Z" style="fill: #5d536c"/>
  <path d="M201,203.7c1.27,2,.21,2.84-.75,3.62s-1.91,1.13-3,0A4.9,4.9,0,0,1,198,206C198.85,205.27,199.77,204.64,201,203.7Z" style="fill: #5d536c"/>
  <path d="M213,162.8l2.19-6c.89-.06.8.92.94,1.57a5.68,5.68,0,0,1-1.3,5Z" style="fill: #5d536c"/>
  <path d="M227.63,164.63c-.09-1.24-.21-2.49-.24-3.73,0-.18.41-.48.67-.53a1,1,0,0,1,.83.23c1.2,1.67.9,2.67-1.2,4.08Z" style="fill: #5d536c"/>
  <path d="M217.89,167c-1.82-2-.7-4-.23-6.16.3.4.77.77.86,1.21A6.78,6.78,0,0,1,217.89,167Z" style="fill: #5d536c"/>
  <path d="M208.74,172.14a4.69,4.69,0,0,1,1.36-5A.93.93,0,0,1,211,167a1.67,1.67,0,0,1,.64,1.1C211.45,169.83,210.49,171.05,208.74,172.14Z" style="fill: #7d7285"/>
  <path d="M185.42,201.06l-3,3-2.41.33C181.55,202.07,183.22,201.14,185.42,201.06Z" style="fill: #706578"/>
  <path d="M168.84,212.73a6.29,6.29,0,0,1,3.45-3.4c.22-.1.81,0,.84.13.09.42.2,1,0,1.28A5.17,5.17,0,0,1,168.84,212.73Z" style="fill: #4a435b"/>
  <path d="M227.69,164.68c.13.62.27,1.25.47,2.17a5.8,5.8,0,0,1-1.68.49c-.87,0-1.63-.51-1.58-1.46s.89-1.2,1.76-1.19c.33,0,.65,0,1-.06Z" style="fill: #5d536c"/>
  <path d="M221.34,136.88c.15.05.42.09.43.16.1.73.17,1.47.21,2.2,0,.08-.21.16-.33.24-.3-.67-.61-1.34-.89-2,0-.09.09-.29.19-.39A1.57,1.57,0,0,1,221.34,136.88Z" style="fill: #706578"/>
  <path d="M176.17,206.12l.27-.26-.17.38Z" style="fill: #4a435b"/>
  <path d="M175.09,207l1.08-.88.1.12-1.06.9Z" style="fill: #4a435b"/>
  <path d="M175.21,207.14l-.27.26-.16-.19.31-.21Z" style="fill: #4a435b"/>
  <path d="M46.73,227.14c2,.13,4.07.6,5.92-.7,2.91-.62,5.81-1.27,8.65-2.17a9.45,9.45,0,0,0,2.26-.69c.41-.25.5-1,.72-1.56,1.57-.12,3.14-.29,4.71-.35,2.19-.07,4.44-.3,6.24,1.43.19,2,2,2.36,3.35,3.21l.73,1.06c1.23,2.47,2.43,5,3.75,7.4.26.49,1,.73,1.53,1.08,1.72,3,2,6.53,3.07,9.78.51,1.55,1,3.09,1.56,4.63,0,5.54.25,11.09-1.4,16.49-.17.54.2,1.25.32,1.89l-1.25,3.6c-.43-.08-1-.38-1.28-.2-2,1.58-3.65,3.37-3.57,6.15-2.82,4.56-7,7.81-11.12,11-3.57,2.72-7.49,4-11.93,2.06a9.2,9.2,0,0,0-1.88-.53,17.12,17.12,0,0,1-9.59-5.5,66.21,66.21,0,0,1-7.08-8.7c-2.52-4-3.85-8.27-5.26-12.62.45-4.68,1-9.35,1.33-14,.23-3.29.73-6.41,2.71-9.19a12.21,12.21,0,0,0,1.32-3.12,23,23,0,0,1,4.27-7.59A28.83,28.83,0,0,0,46.73,227.14Zm26.19,36.21,2.11-.23v0c.54-3.62.31-7-2.66-9.71a9.13,9.13,0,0,1-1.29-2c0-3.18.53-6.16,3-8.54a3.61,3.61,0,0,0,.69-3.68c.72-.46,1.36-1,.41-1.74-.25-.19-1.05.25-1.53.52-.16.09-.08.58-.12.89l-2.81-.33c-.81-1.31-2-1.32-3.28-1-.87-.91-1.69-1.89-2.64-2.71a2.16,2.16,0,0,0-1.67-.58c-.63.25-1.07,1-1.58,1.49-.31.08-.76.06-.91.27a15.07,15.07,0,0,1-8.79,5.57,8.43,8.43,0,0,0-1.37.53,3.47,3.47,0,0,0-1.67,5.23,10.87,10.87,0,0,0,1.86,2.25c1.19,1.1,2.47,2.1,3.72,3.15-.34,2.39-.78,4.76-1,7.16s1,3.53,3.52,3.25a16.24,16.24,0,0,0,2.57-.67l2.2-4.55,1.94-.1,2.09.5c1.84,1.68,3.64,3.4,5.55,5C71.54,263.69,72.34,263.39,72.92,263.35Zm8.77,4.76c2.25-1.75,2.31-2.25.38-3.9Z" style="fill: #a22818"/>
  <path d="M213.15,201.78l1.17-1.41Z" style="fill: #2f2e3a"/>
  <path d="M212.07,202.65c0-.77.38-1.06,1.12-.92C212.82,202,212.45,202.35,212.07,202.65Z" style="fill: #2f2e3a"/>
  <path d="M211,203.54c0-.81.37-1.08,1.12-.92Z" style="fill: #2f2e3a"/>
  <path d="M194.38,194.29l-.64.2.33-.56Z" style="fill: #2f2e3a"/>
  <path d="M70.66,238.58l2.81.33,1.24.33a3.61,3.61,0,0,1-.69,3.68c-2.42,2.38-2.93,5.36-3,8.54l-1.37,0c-.47-.64-1-1.62-1.86-1.06-1.29.86-2.69,1.86-2.48,3.8l-1.71,2.33-2,1.44-2.21,4.56a16.24,16.24,0,0,1-2.57.67c-2.49.28-3.73-.81-3.52-3.25s.65-4.77,1-7.16c1.32-1.36,1-3.09,1-4.72,2.19-.32,2-2.22,2.42-3.69a7,7,0,0,1,1.74-3.84,6.47,6.47,0,0,0,1.95-4.75c.52-.52,1-1.24,1.59-1.49a2.16,2.16,0,0,1,1.67.58c1,.82,1.77,1.8,2.64,2.71C68.28,240.27,69,240.47,70.66,238.58ZM59.48,248.84c.24.57.37,1.45.88,1.9a1.8,1.8,0,0,0,2.6-.24c1.07-1.19,2-2.49,3-3.75.63-.8,1.07-1.7.38-2.62s-1.68-.72-2.66-.66a3.4,3.4,0,0,0-3.28,2.39C60.11,246.76,59.84,247.69,59.48,248.84Zm-2.6,6.72c.34.36.66.9,1.13,1.11.22.09.94-.39,1.05-.74a3.23,3.23,0,0,0,0-1.77.89.89,0,0,0-1.53-.16A13.79,13.79,0,0,0,56.88,255.56Z" style="fill: #4a435b"/>
  <path d="M55.37,248.11c-.09,1.63.28,3.36-1,4.72-1.25-1.05-2.53-2.05-3.72-3.15a10.87,10.87,0,0,1-1.86-2.25,3.47,3.47,0,0,1,1.67-5.23,8.43,8.43,0,0,1,1.37-.53,15.07,15.07,0,0,0,8.79-5.57c.15-.21.6-.19.9-.27a6.47,6.47,0,0,1-1.95,4.75,7,7,0,0,0-1.74,3.84,3.76,3.76,0,0,0-4.86,1.24Z" style="fill: #5d536c"/>
</svg>
