<svg xmlns="http://www.w3.org/2000/svg" width="23" height="55" viewBox="0 0 23 55">
  <title>fairemain</title>
  <g id="Layer_10" data-name="Layer 10">
    <path d="M20.76,50.2c-.49-6.86-1.63-13.56-4.74-19.78a3,3,0,0,1-3.11.95c-.83,2-.27,4.05.14,6,.34,1.69.89,3.34,1.35,5A2.65,2.65,0,0,1,14.57,46c-.8,1.1-1.93,1-3.1.69-.64-.07-1.28-.18-1.93-.21A12.29,12.29,0,0,1,.05,41.3c-4.39-5.61-8.91-11.12-13.38-16.66A6.46,6.46,0,0,0-14,24c-.29,1.07-.57,2.14-.86,3.21q2.52,3.24,5.05,6.47a41.31,41.31,0,0,1,3.85,5,37.26,37.26,0,0,0,5.52,7.3L.66,47.13a12.51,12.51,0,0,1-1.49.79,2.38,2.38,0,0,1-.91-.05c-1,0-2-.06-3-.09.18,1.08.37,2.15.56,3.23,2.75,0,5.5,0,8.25,0,1.62,0,3.25-.13,4.88-.26a13.37,13.37,0,0,1,8.45,1.8,7.18,7.18,0,0,0,1.32.61,1.58,1.58,0,0,0,1.92-1.06A9.64,9.64,0,0,0,20.76,50.2Z" style="fill: #4a435b"/>
    <path d="M-.48,45.92.66,47.13a12.51,12.51,0,0,1-1.49.79,2.38,2.38,0,0,1-.91-.05Z" style="fill: #5d536c"/>
    <path d="M-14,24l0,0c-.93-3.23-3.17-5.5-5.58-7.65a64.85,64.85,0,0,0-8.82-9.85c-3.79-3.27-7.85-3.74-12.33-1.84-2.11.89-4.23,1.78-6.31,2.74-5.82,2.71-11.65,2.37-17.72.7C-71.54,6.24-76.18,1.9-80.06-3.56a7.23,7.23,0,0,1,0-9.13c4.38-6,9.39-11.19,16.77-13.77C-52.45-30.26-45.81-38.25-42.32-49a46.14,46.14,0,0,0,1.73-7.14,14,14,0,0,0-4.64-13.32c-5.63-5-11.48-9.76-18.27-13.2-6.28-3.18-12.58-6.33-18.73-9.74a216.68,216.68,0,0,1-26.41-17,50.89,50.89,0,0,1-9.44-10c-.92-1.2-1.6-2.52-.68-4.07,4.47,1.07,6.48-.08,7.5-4.25a14.3,14.3,0,0,0-.65-9.07,9.56,9.56,0,0,0-2.51-3.48c-2.16-1.83-4.73-1.15-6,1.38-.75,1.43-1.46,2.87-2.19,4.3-1.45.24-2.67-.13-3.13-1.63a50.87,50.87,0,0,1-1.42-5.69c-1.53-8.6-.23-16.89,3-24.92a15.71,15.71,0,0,1,2-3.38c4.11-5.59,10.76-6.51,16.33-2.3a34.42,34.42,0,0,1,8,9.16,73,73,0,0,1,4.22,7.72c2.17,4.57,4.22,9.2,6.22,13.85a31.16,31.16,0,0,1,1.17,4.21,2.43,2.43,0,0,0-1.34,3.13c.41,1.67.66,3.37,1,5.06-.42-.23-1.11-.37-1.22-.71-1.2-3.46-3.3-6.71-2.65-10.64a4.26,4.26,0,0,0-.91-3.65c-1.34-1.5-2.17-3.58-4.58-4.26-.82,2.13-1.54,4.06-2.31,6-.65,1.61-2,2-3.56,1.79a14,14,0,0,0,.78-7.16c-.78-5.19-2.25-6.56-6.87-6a2.23,2.23,0,0,1,2-1.86c2.56-.31,3.26-2.55,3.16-4.31-.19-3.3-1.41-6.44-4.71-8.08a9.35,9.35,0,0,0-9.39.27c-2.58,1.57-5.38,3.21-5.29,7a11.34,11.34,0,0,1-.74,3.33c-1.16,3.81-.08,7.4,1.11,10.95a1.84,1.84,0,0,0,2.9.57,4.79,4.79,0,0,0,.93-1.13c1.3-2.51,3.43-2.76,5.86-2.22-1.16,2.67-.18,5,1.06,7.35,2,3.75,2.79,4.14,7.31,3.7l-.21,4.31c-2.69,1-3.26,1.73-2.15,3.68,2.1,3.68,4.41,7.24,6.75,10.76a8.62,8.62,0,0,0,2.53,2.27c1.83,1.17,3.63.89,5.42-.52,1.54-1.2,1.58-2.69,1.13-4.4a11.8,11.8,0,0,0-5.4-7.27c.3-.92.57-1.94,1.72-2.06s1.71.66,2.25,1.51a17.64,17.64,0,0,0,1.91,2.74,2,2,0,0,0,3,0c3.29,3.51,6.31,7.11,3.7,12.38-3-1.69-3.66-1.74-4.91.8-1.43,2.9-3.9,4.52-6.37,6.24-1-3.33-2.26-6.62-5.53-8.27a15.35,15.35,0,0,1-5.19-4.35,15.78,15.78,0,0,0-1.63-1.83A2.65,2.65,0,0,0-111-121a4.23,4.23,0,0,0,.59,3.74c.67.93,1.73,1.78,1.94,2.8.62,3,3,4.48,5,6.35s4.53,2.53,7,3.41a2.44,2.44,0,0,0,2.68-.76,14.52,14.52,0,0,1,6.49,3.17c2.24,1.7,3.61,1.65,5.45-.47,1.58-1.82,2.83-3.93,4.23-5.91l4.7,1.44c-.29,1-1.08,1.45-2,1.94-3.86,2-5.51,5.64-4.45,9.3a4,4,0,0,0,3.76,3.31c1,.08,2,.22,2.93.3,2.45.2,4.4,1.11,5.47,3.52a3.83,3.83,0,0,0,1.52,1.81c3.89,2,7.55,4.62,12.27,4.5a4.28,4.28,0,0,1,3,1.27c2.47,3,6.06,5.09,7.24,9.22,4.22.45,5.6,3.52,6.74,6.93A14.14,14.14,0,0,1-36.75-56c-.92,2.77-.89,5.86-2.78,8.32a1.91,1.91,0,0,0-.28,1.4c.67,3.07-1,4.91-3.2,6.62s-2.59,3.36-1.54,5.94a4.86,4.86,0,0,0,6.28,3.11,24.66,24.66,0,0,0,7.47-3.48c3.34-2.36,6.39-5.65,11.28-5.07,2,.24,3.52-1.8,3.58-3.94A11.85,11.85,0,0,0-16.35-46c-1-4.44-3.3-8.56-3.32-13.26a4.69,4.69,0,0,0-.61-1.86c-1-2.07-1.88-4.16-3-6.16-.68-1.23-1.11-2.4-.51-3.71.69-1.51,2.16-1.93,3.61-2.25a2.69,2.69,0,0,1,3.28,1.49c-.35.75-.7,1.51-1,2.26a2.79,2.79,0,0,0,.05,2.78c.61,1.5,1.27,3,1.75,4.53C-13-52.23-10-42.3-7-32.37a9.53,9.53,0,0,0,.89,1.7c.08.63.16,1.26.25,1.88s.25,1.42.38,2.12l.21,1.88c-.79,4.06.94,7.25,3.59,10.06a4,4,0,0,0,5.28,1,19.85,19.85,0,0,0,4.72-3.32c1.52-1.64,2.78-3.66,1.4-6.11,0-.64,0-1.28-.08-1.92A4.86,4.86,0,0,0,7.8-29.77q-1.53-4.27-3-8.55c.71-1.64,0-3.17-.4-4.73q-.91-3.77-1.84-7.54l2.61-1.06c1.48-.6,2.41-.29,3.07,1.2a6.38,6.38,0,0,1,.21,1.88c-1.64.08-2.5,1.08-2.23,2.55C6.79-42.67,7.25-39.24,9-36.2c2.29,4.08,4.4,5.07,8.87,3.72,3.58-1.07,7.05-2.52,10.58-3.78s7.24-2.89,11.18-3.24a18.92,18.92,0,0,0,8,2.15c4.57.35,9.12.83,13.68,1.3,1.46.15,2.91.43,4.35.69,2.4.45,4.78,1,7.19,1.39,4.67.74,9.48.46,14.06,2,.56.19,1.42-.48,2.14-.76,1.43.72,2.67,1.78,4.49,1.68,2.89-.17,5.8-.09,8.71-.11l5.48-.48q2.94,5.06,5.9,10.11c.8,1.36,1.06,3.13,2.84,3.76.09.66.19,1.32.29,2,.62,1.3,1.23,2.61,1.84,3.92l1.64,3.19c0,.66.07,1.33.1,2-2.61,0-5.21.07-7.81,0C103.35-7.11,94.22-7.41,85.11-8c-6.36-.42-12.71,0-19.06-.14-5.38-.1-10.76,0-16.13-.11l-.51-2.69a55.87,55.87,0,0,0-6.47.21c-3.95.6-7.88,1.41-11.11,4.05l-19.34.37a14.31,14.31,0,0,0-1.87-2.77A2.23,2.23,0,0,0,7.34-9a13.59,13.59,0,0,0,.79,5c.95,2.09,2.1,4.11,2.17,6.5a1.21,1.21,0,0,0,.07,1.91,33,33,0,0,0,0,3.85C11.16,16,12,23.68,12.91,31.37c-.83,2-.27,4.05.14,6,.34,1.69.89,3.34,1.35,5-.61,1.67-1.28,3.3-2.93,4.26-.64-.07-1.28-.18-1.93-.21A12.29,12.29,0,0,1,.05,41.3c-4.39-5.61-8.91-11.12-13.38-16.66A6.46,6.46,0,0,0-14,24ZM-29.47-31.45l-15.7,6A7.64,7.64,0,0,0-47.5-25c-5.29,2.71-10.53,5.5-15.79,8.26-2.26.93-4.55,1.81-6.78,2.8a2.2,2.2,0,0,0-1.27,2.44,20.63,20.63,0,0,0,.87,3.81,4.9,4.9,0,0,0,3.93,3.32,22.75,22.75,0,0,0,3.41.09c3,.86,5.85.21,8.59-.86,3.5-1.38,7-2.89,10.35-4.5,1.89-.9,3.53-2.29,5.42-3.17,4.89-2.29,9.85-4.41,14.77-6.63a38.48,38.48,0,0,0,5.26-2.62,16.87,16.87,0,0,0,3.57-3.29,4.24,4.24,0,0,0,.73-4.17c-1.07-3.37-6.07-6.58-9.45-4.88C-25.77-33.47-27.61-32.44-29.47-31.45Z" style="fill: #c3bbb2"/>
    <path d="M12.49-6.32l19.34-.37c1.66.61,3.21-.1,4.82-.32,2.41-.33,4.84-.5,7.27-.74.09,1.64-.39,2.89-2.2,3.22a2.56,2.56,0,0,0-2.2,1.65l-5,.65c-.7-.82-1.35-.68-2,.07L15.11-1.8A2.27,2.27,0,0,0,12.92-.24c-.53,1.67-1,3.39.23,5C14,11.86,14.94,19,15.79,26c.17,1.45.15,2.92.22,4.38a3,3,0,0,1-3.1.95C12,23.68,11.16,16,10.33,8.29a33,33,0,0,1,0-3.85c.89-.67.78-1.31-.07-1.91C10.23.14,9.08-1.88,8.13-4l1.72-2.6Z" style="fill: #2f2e3a"/>
    <path d="M11.47,46.68c1.65-1,2.32-2.59,2.93-4.26A2.65,2.65,0,0,1,14.57,46C13.77,47.09,12.64,47,11.47,46.68Z" style="fill: #5d536c"/>
    <path d="M13.15,4.76c-1.23-1.61-.76-3.33-.23-5A2.27,2.27,0,0,1,15.11-1.8c-.4,1.15-.84,2.29-1.19,3.46S13.4,3.73,13.15,4.76Z" style="fill: #4a435b"/>
    <path d="M10.3,2.53c.85.6,1,1.24.07,1.91A1.21,1.21,0,0,1,10.3,2.53Z" style="fill: #4a435b"/>
  </g>
</svg>
