<svg xmlns="http://www.w3.org/2000/svg" width="245" height="275" viewBox="0 0 245 275">
  <title>fairemain</title>
  <g id="Layer_10" data-name="Layer 10">
    <path d="M153.79,268.88a66.08,66.08,0,0,1-12.17-.68,38.37,38.37,0,0,0-4.81-.22c-.62.7-1.25.78-1.89,0a14.42,14.42,0,0,0-7,.05,1.77,1.77,0,0,1-2.92-.23,4.33,4.33,0,0,1-2.46-2.13c-.79-1.56-1.67-3.08-2.51-4.61l-1.49,2,1.64,3.19c.8.63.92,1.29.1,2-2.61,0-5.21.07-7.81,0-9.12-.38-18.25-.68-27.36-1.28-6.36-.42-12.71,0-19.06-.14-5.38-.1-10.76,0-16.13-.11-1.06.18-2.11.43-3.18.53a26.55,26.55,0,0,1-2.82,0c.09,1.64-.39,2.89-2.2,3.22a2.56,2.56,0,0,0-2.2,1.65c7.76-1,15.51-1.87,23.36-1.64,8.3.23,16.61.29,24.92.44.81,0,1.63.07,2.44.13,6.49.48,13,1.39,19.51,1.12a14.48,14.48,0,0,1,2.88.45l5,0c1.74-.08,3.49-.27,5.23-.22a4.44,4.44,0,0,1,3.74,1.86l2.67,1.64a15.88,15.88,0,0,1,2.21,1.55,3.8,3.8,0,0,0,3.33,1.1c.34-.94.68-1.88,1-2.82-.62-1.08-1.23-2.17-2-3.56a10.24,10.24,0,0,1,5.57.08l2,.15,2.95.38,4.9.18a3,3,0,0,1,3-.28l1.9,0" style="fill: #4a435b"/>
    <path d="M5.81,143c.24.65.47,1.29.7,1.94a63.88,63.88,0,0,0,11.57,20.27,29.2,29.2,0,0,0,7.76,6.66c6.71,3.79,13.51,4,20.47.29a41.4,41.4,0,0,0,6.27-4.53c2.28-1.87,2.84-4.64,2.58-7.55-.16-1.94-.3-3.87-.45-5.81,1.39,1.33,1.33,3.17,1.6,4.85a2.64,2.64,0,0,0,1.37,2.32c.5,3.6-1.21,6.34-3.56,8.74a22.23,22.23,0,0,1-3.83,3.07c-9.07,5.94-20.53,6.31-29.22-1A49,49,0,0,1,8.53,156.81c-3-6-5.54-12.23-8-18.47-1.79-4.56-3.13-9.3-4.63-14A183.23,183.23,0,0,1-10,102.08,91,91,0,0,0-20.65,73.7a23.83,23.83,0,0,0-11.16-10c-4.71-2.18-8.95-1.16-12.88,1.77a16.4,16.4,0,0,0-3,3.24c-4.8,6.17-7.73,13.27-10,20.66A62.29,62.29,0,0,0-59.49,99a17.62,17.62,0,0,0,1.05,8.19c.9-1.26,1.35-2,1.94-2.7.76-.85,1.68-1.56,2.41-2.43a19.37,19.37,0,0,0,1.64-2.45c1.05-1.68,2.13-3.32,4.18-4a14.15,14.15,0,0,1,2.38,1.65c3,3.16,3,7.11,2.86,11.09-.1,3-1.68,5.25-3.62,7.31a7.73,7.73,0,0,1-6.55,2.77c-.38,0-.8.36-1.22.56a5.75,5.75,0,0,0,.1,1.56C-50.48,131.33-44,140.24-35.72,148A3.7,3.7,0,0,0-32.58,149l-1.59,4c-8.92-7.63-16.35-16.37-21.22-27.21a124.23,124.23,0,0,1-5.39-14.21,37.78,37.78,0,0,1-.17-21.31,98.5,98.5,0,0,1,7.44-18.67c1.07-2.15,2.64-4.12,2.64-6.7A2.24,2.24,0,0,0-48.34,64a13.31,13.31,0,0,1,2.86-2.4c2-1.58,4.48-1.45,6.64-2.35,3.75-.14,7.17,1.09,10.51,2.6L-26.54,63c.95,1.15,1.91,2.29,3.63,2.09l.08.1a4.92,4.92,0,0,0,.51,1.69c1.52,2,3.14,3.86,4.73,5.78,1.07,2.18,2.16,4.34,3.2,6.52A73.25,73.25,0,0,1-9.11,93.29a9.35,9.35,0,0,0,.82,1.76q1.2,5.48,2.38,11c.14.71.29,1.42.43,2.13a61.47,61.47,0,0,0,1.31,6.23c2.68,8.42,5.45,16.8,8.25,25.17A27,27,0,0,0,5.81,143ZM-48,100.29a5.89,5.89,0,0,0-3.15,5.15,3.62,3.62,0,0,1-1.66,3.27c-1.41.94-1.29,2.51-.81,4,.61,1.87,2.34,2.49,3.84,1.34a8.44,8.44,0,0,0,3.4-6.26C-46.16,105.25-45.54,102.59-48,100.29Z" style="fill: #5d536c"/>
    <path d="M208.21,80.23l1.37.21L212.83,82l5.78,3a.62.62,0,0,0,.54.33l3,2.28a4.54,4.54,0,0,0,3.36,2.48s.08,0,.09,0a14,14,0,0,0,1.08,2.11c1.29,1.68,2.71,3.26,4,4.93a20.73,20.73,0,0,1,4.58,10.62c.46,4.21,1.15,8.4,1.38,12.62.2,3.56-.74,6.82-4.41,8.51-.26-.72-.51-1.43-.77-2.14,2.29-3.11,2.64-6.59,2-10.28-.48-2.91-.89-5.83-1.32-8.75a16.39,16.39,0,0,0-2.82-7.27c-4-5.44-8.14-10.61-14.25-14a51.74,51.74,0,0,0-15.24-5.26,26.62,26.62,0,0,0-10.26-.19,71,71,0,0,0-32.75,16c-4,3.41-7.65,7.16-10,12a24.7,24.7,0,0,1-2.41,3.7c-3.4,4.62-6.81,9.22-10.28,13.78-2.18,2.86-4.39,5.72-6.75,8.42a35.22,35.22,0,0,1-9.58,7.61,9.88,9.88,0,0,1-9.41.28,14.15,14.15,0,0,1-5.88-5.07,53,53,0,0,1-7.71-16.9,18.66,18.66,0,0,1,0-9.73,124.54,124.54,0,0,1,4.46-13c2.46-6.06,5.21-12,7.85-18a52.88,52.88,0,0,0,4-18.14,10.63,10.63,0,0,0-1.41-6.11c-3.25-5.69-7.91-9.18-14.63-9.18a83.16,83.16,0,0,0-12.23.73C73.05,48.93,64,52.88,55.27,57.37a28.16,28.16,0,0,0-8.65,7.18,60.06,60.06,0,0,0-8.81,15.24,69.94,69.94,0,0,0-4.87,17.46A36.54,36.54,0,0,0,34,112.78c1.65,5.83,5.16,10.56,8.67,15.3,3.9,5.27,7.8,10.53,10.67,16.47.49,1,.91,2.15,2.22,2.44l-3.54.22a15.91,15.91,0,0,1-1.53-1.86,140.86,140.86,0,0,0-10.08-15,50.93,50.93,0,0,1-7.23-11.54,42.53,42.53,0,0,1-1.5-29.8,86.88,86.88,0,0,1,9.63-22A35.8,35.8,0,0,1,56.56,53.55c5-2.36,10.2-4.49,15.42-6.42a57.83,57.83,0,0,1,25.15-3.28c8.56.73,13.46,6.17,16.56,13.53a12.4,12.4,0,0,1,.5,5.8,66.75,66.75,0,0,1-1.72,10.16A84.34,84.34,0,0,1,108.78,84c-3.33,8-7.12,15.84-9.68,24.16-.29.94-.45,1.91-.67,2.86a10.6,10.6,0,0,0-.39,8.23l.24,1.66a11.26,11.26,0,0,0,2,6.5c.83,2.74,1.85,5.36,4.24,7.17,3.2,6.07,8.73,8,13.55,4.35,5-3.85,9.77-8.09,13.17-13.61,1.62-2.63,3.54-5.08,5.38-7.57,2.22-3,4.76-5.83,6.7-9a59.61,59.61,0,0,1,8.78-11.6c1.85-1.84,3.45-4.21,5.75-5.19,2.6-1.1,4.07-3.86,7-4.25,1.22-1.53,3.78-1.21,4.57-3.33v0c.48,0,1.08.17,1.43,0,4-2.47,8.6-3.47,12.91-5.19l1.88-.42,3.17-.87a41.4,41.4,0,0,1,12,.53C203.26,78.85,205.72,79.61,208.21,80.23Z" style="fill: #5d536c"/>
    <path d="M52,147.21l3.54-.22a15.89,15.89,0,0,0,3.2-1.1,5.68,5.68,0,0,1,3.75-.77c4,.51,7.77-.75,11.53-1.83,1.94-.55,3.62-1.42,4.34-3.57a10.22,10.22,0,0,1,1.55-2.49,3.34,3.34,0,0,1,5.39-.62c2.56,2.33,2.62,6.58-.22,8.57a39.55,39.55,0,0,0-5.69,5.27,53.08,53.08,0,0,1-6.58,5.87c-4,3-8.44,4.24-13.26,1.65-.35-.19-.89,0-1.35,0l-.55,3.48a2.64,2.64,0,0,1-1.37-2.32c-.27-1.68-.21-3.52-1.6-4.85-.25-.91-.51-1.81-.77-2.72a3,3,0,0,0-1.49-3.43Zm7.51,2c-.65,2.59.51,4.26,2.11,5.76,1.38,1.29,3,1.09,4.61.59a13.47,13.47,0,0,0,4-1.79c2.21-1.66,4.25-3.54,6.29-5.41A12.27,12.27,0,0,0,78,146.08c-2.57-.51-4.42.79-6.42,1.22s-3.77,1-5.69,1.29C63.78,148.91,61.67,149,59.54,149.17Z" style="fill: #4a435b"/>
    <path d="M52.45,148.15a3,3,0,0,1,1.49,3.43A4.42,4.42,0,0,1,52.45,148.15Z" style="fill: #5d536c"/>
    <path d="M174.7,120.3c-4.47.71-8.19,3.09-12,5.34-5.78,3.42-10.87,7.75-16,12l-1.5-1.82a24.35,24.35,0,0,1,6.31-6.13,113,113,0,0,1,16.62-10.48,43.47,43.47,0,0,1,5-2c6.45-2.23,13.15-2.5,19.89-2.61,7-.12,12.75,2.54,17.79,7.13a23.46,23.46,0,0,0,1.77,1.69c2.63,2,5.23,4,8,5.75s5.52,1.89,8.16-.35c.87-.74,1.83-1.37,2.75-2.05l.77,2.14L226.13,134c-4.47-.08-8.07-2.29-11.47-4.83-2.95-2.21-5.86-4.5-8.61-7a14.41,14.41,0,0,0-7.78-3.74C190.3,117.45,182.38,117.49,174.7,120.3Z" style="fill: #4a435b"/>
    <path d="M-14,299l0,0c-.93-3.23-3.17-5.5-5.58-7.65a64.85,64.85,0,0,0-8.82-9.85c-3.79-3.27-7.85-3.74-12.33-1.84-2.11.89-4.23,1.78-6.31,2.74-5.82,2.71-11.65,2.37-17.72.7-6.76-1.85-11.4-6.19-15.28-11.65a7.23,7.23,0,0,1,0-9.13c4.38-6,9.39-11.19,16.77-13.77,10.81-3.8,17.45-11.79,20.94-22.51a46.14,46.14,0,0,0,1.73-7.14,14,14,0,0,0-4.64-13.32c-5.63-5-11.48-9.76-18.27-13.2-6.28-3.18-12.58-6.33-18.73-9.74a216.68,216.68,0,0,1-26.41-17,50.89,50.89,0,0,1-9.44-10c-.92-1.2-1.6-2.52-.68-4.07,4.47,1.07,6.48-.08,7.5-4.25a14.3,14.3,0,0,0-.65-9.07,9.56,9.56,0,0,0-2.51-3.48c-2.16-1.83-4.73-1.15-6,1.38-.75,1.43-1.46,2.87-2.19,4.3-1.45.24-2.67-.13-3.13-1.63a50.87,50.87,0,0,1-1.42-5.69c-1.53-8.6-.23-16.89,3-24.92a15.71,15.71,0,0,1,2-3.38c4.11-5.59,10.76-6.51,16.33-2.3a34.42,34.42,0,0,1,8,9.16,73,73,0,0,1,4.22,7.72c2.17,4.57,4.22,9.2,6.22,13.85a31.16,31.16,0,0,1,1.17,4.21,2.43,2.43,0,0,0-1.34,3.13c.41,1.67.66,3.37,1,5.06-.42-.23-1.11-.37-1.22-.71-1.2-3.46-3.3-6.71-2.65-10.64a4.26,4.26,0,0,0-.91-3.65c-1.34-1.5-2.17-3.58-4.58-4.26-.82,2.13-1.54,4.06-2.31,6-.65,1.61-2,2-3.56,1.79a14,14,0,0,0,.78-7.16c-.78-5.19-2.25-6.56-6.87-6a2.23,2.23,0,0,1,2-1.86c2.56-.31,3.26-2.55,3.16-4.31-.19-3.3-1.41-6.44-4.71-8.08a9.35,9.35,0,0,0-9.39.27c-2.58,1.57-5.38,3.21-5.29,7a11.34,11.34,0,0,1-.74,3.33c-1.16,3.81-.08,7.4,1.11,11a1.84,1.84,0,0,0,2.9.57,4.79,4.79,0,0,0,.93-1.13c1.3-2.51,3.43-2.76,5.86-2.22-1.16,2.67-.18,5,1.06,7.35,2,3.75,2.79,4.14,7.31,3.7l-.21,4.31c-2.69,1-3.26,1.73-2.15,3.68,2.1,3.68,4.41,7.24,6.75,10.76a8.62,8.62,0,0,0,2.53,2.27c1.83,1.17,3.63.89,5.42-.52,1.54-1.2,1.58-2.69,1.13-4.4a11.8,11.8,0,0,0-5.4-7.27c.3-.92.57-1.94,1.72-2.06s1.71.66,2.25,1.51a17.64,17.64,0,0,0,1.91,2.74,2,2,0,0,0,3,0c3.29,3.51,6.31,7.11,3.7,12.38-3-1.69-3.66-1.74-4.91.8-1.43,2.9-3.9,4.52-6.37,6.24-1-3.33-2.26-6.62-5.53-8.27a15.35,15.35,0,0,1-5.19-4.35,15.78,15.78,0,0,0-1.63-1.83A2.65,2.65,0,0,0-111,154a4.23,4.23,0,0,0,.59,3.74c.67.93,1.73,1.78,1.94,2.8.62,3,3,4.48,5,6.35s4.53,2.53,7,3.41a2.44,2.44,0,0,0,2.68-.76,14.52,14.52,0,0,1,6.49,3.17c2.24,1.7,3.61,1.65,5.45-.47,1.58-1.82,2.83-3.93,4.23-5.91l4.7,1.44c-.29,1.05-1.08,1.45-2,1.94-3.86,2-5.51,5.64-4.45,9.3a4,4,0,0,0,3.76,3.31c1,.08,2,.22,2.93.3,2.45.2,4.4,1.11,5.47,3.52a3.83,3.83,0,0,0,1.52,1.81c3.89,2,7.55,4.62,12.27,4.5a4.28,4.28,0,0,1,3,1.27c2.47,3,6.06,5.09,7.24,9.22,4.22.45,5.6,3.52,6.74,6.93a14.14,14.14,0,0,1-.32,9.16c-.92,2.77-.89,5.86-2.78,8.32a1.91,1.91,0,0,0-.28,1.4c.67,3.07-1,4.91-3.2,6.62s-2.59,3.36-1.54,5.94a4.86,4.86,0,0,0,6.28,3.11,24.66,24.66,0,0,0,7.47-3.48c3.34-2.36,6.39-5.65,11.28-5.07,2,.24,3.52-1.8,3.58-3.94a11.85,11.85,0,0,0-.41-2.88c-1-4.44-3.3-8.56-3.32-13.26a4.69,4.69,0,0,0-.61-1.86c-1-2.07-1.88-4.16-3-6.16-.68-1.23-1.11-2.4-.51-3.71.69-1.51,2.16-1.93,3.61-2.25a2.69,2.69,0,0,1,3.28,1.49c-.35.75-.7,1.51-1,2.26a2.79,2.79,0,0,0,.05,2.78c.61,1.5,1.27,3,1.75,4.53C-13,222.77-10,232.7-7,242.63a9.53,9.53,0,0,0,.89,1.7c.08.63.16,1.26.25,1.88s.25,1.42.38,2.12l.21,1.88c-.79,4.06.94,7.25,3.59,10.06a4,4,0,0,0,5.28,1,19.85,19.85,0,0,0,4.72-3.32c1.52-1.64,2.78-3.66,1.4-6.11,0-.64,0-1.28-.08-1.92a4.86,4.86,0,0,0-1.88-4.66q-1.53-4.28-3-8.55c.71-1.64,0-3.17-.4-4.73q-.91-3.76-1.84-7.54l2.61-1.06c1.48-.6,2.41-.29,3.07,1.2a6.38,6.38,0,0,1,.21,1.88c-1.64.08-2.5,1.08-2.23,2.55.62,3.35,1.08,6.78,2.79,9.82,2.29,4.08,4.4,5.07,8.87,3.72,3.58-1.07,7.05-2.52,10.58-3.78s7.24-2.89,11.18-3.24a18.92,18.92,0,0,0,8,2.15c4.57.35,9.12.83,13.68,1.3,1.46.15,2.91.43,4.35.69,2.4.45,4.78,1,7.19,1.39,4.67.74,9.48.46,14.06,2,.56.19,1.42-.48,2.14-.76,1.43.72,2.67,1.78,4.49,1.68,2.89-.17,5.8-.09,8.71-.11l5.48-.48q2.94,5.05,5.9,10.11c.8,1.36,1.06,3.13,2.84,3.76.09.66.19,1.32.29,2,.62,1.3,1.23,2.61,1.84,3.92l1.64,3.19c0,.66.07,1.33.1,2-2.61,0-5.21.07-7.81,0-9.12-.38-18.25-.68-27.36-1.28-6.36-.42-12.71,0-19.06-.14-5.38-.1-10.76,0-16.13-.11l-.51-2.69a55.87,55.87,0,0,0-6.47.21c-3.95.6-7.88,1.41-11.11,4.05l-19.34.37a14.31,14.31,0,0,0-1.87-2.77,2.23,2.23,0,0,0-3.28.13,13.59,13.59,0,0,0,.79,5c.95,2.09,2.1,4.11,2.17,6.5a1.21,1.21,0,0,0,.07,1.91,33,33,0,0,0,0,3.85c.83,7.7,1.71,15.39,2.58,23.08-.83,2-.27,4.05.14,6,.34,1.69.89,3.34,1.35,5-.61,1.67-1.28,3.3-2.93,4.26-.64-.07-1.28-.18-1.93-.21A12.29,12.29,0,0,1,.05,316.3c-4.39-5.61-8.91-11.12-13.38-16.66A6.46,6.46,0,0,0-14,299Zm-15.43-55.42-15.7,6a7.64,7.64,0,0,0-2.33.39c-5.29,2.71-10.53,5.5-15.79,8.26-2.26.93-4.55,1.81-6.78,2.8a2.2,2.2,0,0,0-1.27,2.44,20.63,20.63,0,0,0,.87,3.81,4.9,4.9,0,0,0,3.93,3.32,22.75,22.75,0,0,0,3.41.09c3,.86,5.85.21,8.59-.86,3.5-1.38,7-2.89,10.35-4.5,1.89-.9,3.53-2.29,5.42-3.17,4.89-2.29,9.85-4.41,14.77-6.63a38.48,38.48,0,0,0,5.26-2.62,16.87,16.87,0,0,0,3.57-3.29,4.24,4.24,0,0,0,.73-4.17c-1.07-3.37-6.07-6.58-9.45-4.88C-25.77,241.53-27.61,242.56-29.47,243.55Z" style="fill: #c3bbb2"/>
    <path d="M12.49,268.68l19.34-.37c1.66.61,3.21-.1,4.82-.32,2.41-.33,4.84-.5,7.27-.74.09,1.64-.39,2.89-2.2,3.22a2.56,2.56,0,0,0-2.2,1.65l-5,.65c-.7-.82-1.35-.68-2,.07l-17.45.36a2.27,2.27,0,0,0-2.19,1.56c-.53,1.67-1,3.39.23,5C14,286.86,14.94,294,15.79,301c.17,1.45.15,2.92.22,4.38a3,3,0,0,1-3.1.95c-.87-7.69-1.75-15.38-2.58-23.08a33,33,0,0,1,0-3.85c.89-.67.78-1.31-.07-1.91-.07-2.39-1.22-4.41-2.17-6.5l1.72-2.6Z" style="fill: #2f2e3a"/>
    <path d="M43.92,267.25c-2.43.24-4.86.41-7.27.74-1.61.22-3.16.93-4.82.32,3.23-2.64,7.16-3.45,11.11-4.05a55.87,55.87,0,0,1,6.47-.21l.51,2.69c-1.06.18-2.11.43-3.18.53A26.55,26.55,0,0,1,43.92,267.25Z" style="fill: #7d7285"/>
    <path d="M118.37,257.83c.55,1.09,1.1,2.18,1.66,3.26l-1.49,2c-.61-1.31-1.22-2.62-1.84-3.92Z" style="fill: #5d536c"/>
    <path d="M125,267.83l2.92.23A1.77,1.77,0,0,1,125,267.83Z" style="fill: #5d536c"/>
    <path d="M134.92,268l1.89,0C136.19,268.68,135.56,268.76,134.92,268Z" style="fill: #5d536c"/>
    <path d="M120.28,268.31c0-.66-.07-1.33-.1-2C121,267,121.1,267.61,120.28,268.31Z" style="fill: #5d536c"/>
    <path d="M8.4,226.43a6.38,6.38,0,0,0-.21-1.88c-.66-1.49-1.59-1.8-3.07-1.2l-2.61,1.06c-.53-1.52-1.12-3-1.58-4.58-.78-2.65-1.46-5.32-2.2-8-.35-1.25-.66-2.53-1.92-3.26l-.75-2.42a2,2,0,0,0-1.14-2.52l-.46-1.58a9.48,9.48,0,0,0-2.41-6.83.79.79,0,0,0-.24-.61c-1.24-2-1.63-2-3.21-.37h0l-1.67,1a4.83,4.83,0,0,1-.95-.16,23.4,23.4,0,0,0-17.43,0c-1.86.76-4.13.63-6.21.67a47.76,47.76,0,0,1-5.32-.47,2,2,0,0,0-1.77-2.14h0a3.42,3.42,0,0,0-2.18-3.38c-2-.88-4.1-1.58-6.16-2.36l-1.59-4.1a3.17,3.17,0,0,0,.53-.57c3.8,2.23,7.49,4.67,11.43,6.63A25.32,25.32,0,0,0-28,192a24,24,0,0,0,10-3.88,8.69,8.69,0,0,0,3.93-6,18.86,18.86,0,0,0-3.51-15.31c-1.72-2.36-3.82-4.46-5.78-6.65-1.09-1.22-2.32-2.31-3.33-3.59-.3-.39-.07-1.19-.09-1.8,4.32,1.17,8.65,2.09,13.11.79l1.17.22c-.06,2.53-.61,4.81-2.75,6.52a2.23,2.23,0,0,0-.36,3.12c2,3.14,3.51,6.67,7.06,8.38,0,2.88.1,5.43-1.63,7.74a7.17,7.17,0,0,0-.92,6.56c.58,2,2.51,2.28,4.16,3.05a20.28,20.28,0,0,1,8.37,7.35,5,5,0,0,1,.7,4.63,43.3,43.3,0,0,0-1.29,6.23A4.13,4.13,0,0,0,1,211.27a10.15,10.15,0,0,0,10.11,6.93c1.12-.07,2.12-.66,2-1.71-.32-3.63.79-7.63-2.47-10.6a2.66,2.66,0,0,1-.77-3.15c1.56-3.19,2.94-6.55,6.05-8.7,1.65-1.14,1.92-1.88,1.36-3.66-.44-1.4-.91-2.82-2.53-3.68-.64.18-1.4.44-2.18.58a.9.9,0,0,1-.8-.35,2.21,2.21,0,0,1-.09-1.36,1.65,1.65,0,0,1,1.92-1.17,41.18,41.18,0,0,1,4.73,1.25,4.46,4.46,0,0,1,3,3c.22.78.27,1.61.49,2.39a2.16,2.16,0,0,0,3.07,1.46c.89-.38,1.67-1,2.53-1.46,1.66-.86,2.75-.58,3.7,1.05s1.77,3.35,2.72,5.16c1.64-1.13,1.1-2.9,1.91-4.07a32.9,32.9,0,0,0,2.66-4.09,2.72,2.72,0,0,0-1.94-3.82,4.62,4.62,0,0,0-3.78.47c-.82.51-1.66,1-2.53,1.5a20.07,20.07,0,0,1-2.36-.9c-2.9-1.55-5.82-2.93-9.22-3-1.6,0-2.62-1.19-3.4-2.52s-1.27-2.74-2.31-3.65c-2.13-1.88-2.89-4.59-4.72-6.34a9.77,9.77,0,0,1,.49-1.25c2-3.39,1.85-4.63-.92-7.18-1.07-1-2.28-1.82-3.23-2.55-.43-1.72-.78-3.14-1.14-4.57a2,2,0,0,0-1.76-2.14c.48-4-2.36-6.6-4.23-9.58-.28-.45-1.1-.66-1.72-.79a28.2,28.2,0,0,0-2.91-.36l-2.81-.28a5.2,5.2,0,0,0-3.85-2.31,6.66,6.66,0,0,1,3.08-5.79,3.42,3.42,0,0,0,1.31-4.34c-1.58-3.58-1.36-7.71-3.53-11.13a7,7,0,0,1-.5-2.85c-.09-.81.21-1.81-.17-2.41-1.77-2.76-1.1-5.69-.76-8.57.49-4.14.63-8.17-2.18-11.68a1.88,1.88,0,0,1-.37-.9A8.4,8.4,0,0,0-20.89,86c-.57-2.72-.61-5-1.5-6.78C-24,75.92-26.16,72.86-28,69.86a49.76,49.76,0,0,1-5.12-.11c-1.76-.22-3.49-.76-5.25-1.09a7,7,0,0,0-1.61,0c-1.24,1.41-.46,2.76-.65,4A2.84,2.84,0,0,1-42,74.42a6.83,6.83,0,0,1-2.39.28,4.27,4.27,0,0,0-4.13,3.52c-.41,1.58-1,3.11-1.39,4.69C-51.2,88-51.18,88-55.11,90.42c.77,2.88.8,2.92,2.89,2.79.48,0,1-.21,1.45-.23,1.89-.06,2,0,2.5,2.69-2,.63-3.13,2.27-4.18,4a19.37,19.37,0,0,1-1.64,2.45c-.73.87-1.65,1.58-2.41,2.43-.59.67-1,1.44-1.94,2.7A17.62,17.62,0,0,1-59.49,99a62.29,62.29,0,0,1,1.87-9.61c2.23-7.39,5.16-14.49,10-20.66a16.4,16.4,0,0,1,3-3.24c3.93-2.93,8.17-4,12.88-1.77a23.83,23.83,0,0,1,11.16,10A91,91,0,0,1-10,102.08a183.23,183.23,0,0,0,5.91,22.28c1.5,4.68,2.84,9.42,4.63,14,2.45,6.24,5,12.47,8,18.47a49,49,0,0,0,12.54,15.44c8.69,7.34,20.15,7,29.22,1a22.23,22.23,0,0,0,3.83-3.07c2.35-2.4,4.06-5.14,3.56-8.74.17-1.12.35-2.24.55-3.48.46,0,1-.21,1.35,0,4.82,2.59,9.22,1.35,13.26-1.65a53.08,53.08,0,0,0,6.58-5.87,39.55,39.55,0,0,1,5.69-5.27c2.84-2,2.78-6.24.22-8.57a3.34,3.34,0,0,0-5.39.62,10.22,10.22,0,0,0-1.55,2.49c-.72,2.15-2.4,3-4.34,3.57-3.76,1.08-7.51,2.34-11.53,1.83a5.68,5.68,0,0,0-3.75.77,15.89,15.89,0,0,1-3.2,1.1c-1.31-.29-1.73-1.43-2.22-2.44-2.87-5.94-6.77-11.2-10.67-16.47-3.51-4.74-7-9.47-8.67-15.3a36.54,36.54,0,0,1-1.07-15.53,69.94,69.94,0,0,1,4.87-17.46,60.06,60.06,0,0,1,8.81-15.24,28.16,28.16,0,0,1,8.65-7.18c8.77-4.49,17.78-8.44,27.62-9.92a83.16,83.16,0,0,1,12.23-.73c6.72,0,11.38,3.49,14.63,9.18A10.63,10.63,0,0,1,111.16,62a52.88,52.88,0,0,1-4,18.14c-2.64,6-5.39,11.93-7.85,18a124.54,124.54,0,0,0-4.46,13,18.66,18.66,0,0,0,0,9.73,53,53,0,0,0,7.71,16.9,14.15,14.15,0,0,0,5.88,5.07,9.88,9.88,0,0,0,9.41-.28,35.22,35.22,0,0,0,9.58-7.61c2.36-2.7,4.57-5.56,6.75-8.42,3.47-4.56,6.88-9.16,10.28-13.78a24.7,24.7,0,0,0,2.41-3.7c2.39-4.81,6-8.56,10-12a71,71,0,0,1,32.75-16,26.62,26.62,0,0,1,10.26.19,51.74,51.74,0,0,1,15.24,5.26c6.11,3.37,10.29,8.54,14.25,14a16.39,16.39,0,0,1,2.82,7.27c.43,2.92.84,5.84,1.32,8.75.62,3.69.27,7.17-2,10.28-.92.68-1.88,1.31-2.75,2.05-2.64,2.24-5.43,2.14-8.16.35s-5.34-3.8-8-5.75a23.46,23.46,0,0,1-1.77-1.69c-5-4.59-10.83-7.25-17.79-7.13-6.74.11-13.44.38-19.89,2.61a43.47,43.47,0,0,0-5,2,113,113,0,0,0-16.62,10.48,24.35,24.35,0,0,0-6.31,6.13,7.28,7.28,0,0,0-1.18.86c-4.32,4.69-8.6,9.41-12.94,14.07-3.11,3.35-6.52,6.46-9.4,10-4,4.94-7.87,10-11.42,15.32a53.51,53.51,0,0,0-9,25.13,103.42,103.42,0,0,0,.65,23,55.88,55.88,0,0,0,4.48,15.49c.52,1.18.86,2.43,1.29,3.66l-5.47.47c-2,.39-3.81-.7-5.72-1.05A3,3,0,0,1,94,240.09c-.37-1.93-.66-3.87-1.05-5.79a142.5,142.5,0,0,1-2.7-18A126.29,126.29,0,0,1,91,187.91c0-.16,0-.33,0-.49A67.19,67.19,0,0,1,93,173.31a6.84,6.84,0,0,0,.14-2.43,1.52,1.52,0,0,0-.76-1.12,2.29,2.29,0,0,0-1.82.12,9.73,9.73,0,0,0-1.66,2.36c-2.06,3.47-5,5.81-9,6-5.58.21-11.21,0-15.81-4a5,5,0,0,0-1.64-1,2.74,2.74,0,0,0-1.87,0c-.49.23-.74.95-1.21,1.61a49.59,49.59,0,0,1,10.07,19.51A33.25,33.25,0,0,0,70.68,198c1.41,3.67,2.89,7.31,4.24,11,1.41,3.84,2.45,7.84,4.08,11.57,2.88,6.59,4.54,13.7,8.35,19.89-7-.16-13.9-1.72-20.7-3.18a129.44,129.44,0,0,0-14.45-2.14c-2.27-.23-4.56-.34-6.81-.69a14.85,14.85,0,0,1-3.08-1.22,11.47,11.47,0,0,1,1.59-1c1.82-.73,3.7-1.3,5.47-2.12,2.53-1.17,5-2.5,5.48-5.68.28-1.25.93-2.55.75-3.73a15.21,15.21,0,0,0-4.74-8.9,3.61,3.61,0,0,0-4.89-.46c-1.23.79-2.61,1.37-3.82,2.19a106.93,106.93,0,0,1-25.33,12.58c-1.53.53-3,1.24-4.51,1.86C11.07,227.29,10,226.22,8.4,226.43Zm209.39-118c.06-.22.17-.39.13-.52-3.22-11.08-11.21-15.62-21.79-14.74-6.37.53-11.83,3.59-17.32,6.52-5.19,2.77-10.43,5.44-15.57,8.31-3.42,1.91-6.71,4-10,6.17a14.58,14.58,0,0,0-2.21,2.34c1.21,1.65,1.83,3.48,3.36,5.11,2.19-.78,4.6-1.11,6.36-2.36a38,38,0,0,1,11.08-5.09c4.53-1.41,9-2.85,13.6-4.12a23.23,23.23,0,0,1,9.24-.83c3.4.44,6.82.86,10.19,1.48,3.11.57,6.11.77,9.13-.53C215.29,109.63,216.94,109.88,217.79,108.45ZM63.64,133.84c.88-3.49,1.71-6.64,2.43-9.82a18.42,18.42,0,0,0,.33-3.41c.23-5.75-1.4-11.32-1.67-17a2.64,2.64,0,0,0-.26-.94,3.51,3.51,0,0,0-3.67-1.86,2.38,2.38,0,0,0-2.17,2.27c-.22,1.28-.47,2.57-.79,3.83a61.37,61.37,0,0,0-1.3,20.92,18.9,18.9,0,0,0,1.15,4.73c.71,1.91,1.78,2.4,3.85,2.05A14.45,14.45,0,0,0,63.64,133.84Zm-24-42.06.26,0a36.71,36.71,0,0,0-.2,4.9,13.51,13.51,0,0,0,1.14,4.68c1.65,3.3,4.87,3.8,7.73,1.37a14.46,14.46,0,0,0,5-10.31c.24-3.09,0-6.21,0-9.32a8.58,8.58,0,0,0-.34-2.42c-1.23-3.8-5.56-5.29-8.59-2.4a11.88,11.88,0,0,0-3.55,5.77C40.49,86.62,40.11,89.21,39.63,91.78Zm29.1-10.35c-1.85,4.06-1.92,8.6-1.5,13.19A8.13,8.13,0,0,0,67.84,97c1.32,3.27,3.51,4.56,7,3.88a8,8,0,0,0,3.45-1.66,12.71,12.71,0,0,0,4.67-8.91c.31-4.79-1.09-9.08-5.41-11.87a3.56,3.56,0,0,0-4.53.19C71.74,79.6,70.32,80.38,68.73,81.43ZM-8.44,135.11c-.46,1-.85,1.53-.84,2,0,.31.75.94.91.87.49-.23,1.14-.68,1.21-1.13S-7.75,136-8.44,135.11Z" style="fill: #c8beb2"/>
    <path d="M107.67,243.36c-.43-1.23-.77-2.48-1.29-3.66a55.88,55.88,0,0,1-4.48-15.49,103.42,103.42,0,0,1-.65-23,53.51,53.51,0,0,1,9-25.13c3.55-5.28,7.4-10.38,11.42-15.32,2.88-3.54,6.29-6.65,9.4-10,4.34-4.66,8.62-9.38,12.94-14.07a7.28,7.28,0,0,1,1.18-.86l1.5,1.82c-3,4.91-7.09,9-11.07,13.09s-8.38,8.32-12.2,12.79c-5.86,6.86-11.08,14.21-14.71,22.55a54.32,54.32,0,0,0-4.14,16.12c-.92,8.86,0,17.67,1.34,26.43.71,4.44,2.77,8.38,4.7,12.36,1.48,3.07,3.19,6,4.79,9,.9,2.4,1.79,4.8,2.69,7.19h-1.69c-1.78-.63-2-2.4-2.84-3.76Q110.6,248.42,107.67,243.36Z" style="fill: #5d536c"/>
    <path d="M13.15,279.76c-1.23-1.61-.76-3.33-.23-5a2.27,2.27,0,0,1,2.19-1.56c-.4,1.15-.84,2.29-1.19,3.46C13.61,277.68,13.4,278.73,13.15,279.76Z" style="fill: #4a435b"/>
    <path d="M32.56,272.84c.64-.75,1.29-.89,2-.07Z" style="fill: #4a435b"/>
    <path d="M87.35,240.41c-3.81-6.19-5.47-13.3-8.35-19.89-1.63-3.73-2.67-7.73-4.08-11.57-1.35-3.68-2.83-7.32-4.24-11a33.25,33.25,0,0,1-1.34-3.69,49.59,49.59,0,0,0-10.07-19.51c.47-.66.72-1.38,1.21-1.61a2.74,2.74,0,0,1,1.87,0,5,5,0,0,1,1.64,1c4.6,4,10.23,4.19,15.81,4,4-.16,7-2.5,9-6a9.73,9.73,0,0,1,1.66-2.36,2.29,2.29,0,0,1,1.82-.12,1.52,1.52,0,0,1,.76,1.12,6.84,6.84,0,0,1-.14,2.43,67.19,67.19,0,0,0-1.9,14.11c0,.16,0,.33,0,.49a126.29,126.29,0,0,0-.75,28.43,142.5,142.5,0,0,0,2.7,18c.39,1.92.68,3.86,1.05,5.79a3,3,0,0,0,2.47,2.69c1.91.35,3.69,1.44,5.72,1.05-2.92,0-5.83-.05-8.72.12-1.82.1-3.06-1-4.49-1.68ZM68.81,180.85c1.3,4.32,2.27,8,3.47,11.49,1.63,4.81,3.73,9.48,5.08,14.36,1.66,6,4.1,11.75,6.24,17.58.9,2.46,1.85,4.9,2.9,7.29.33.75.56,2,2.27,1.36-.3-2.82-.63-5.72-.93-8.61-1.09-10.45-1.76-20.89-.37-31.38.49-3.72.41-7.52.55-11.28,0-.78.15-1.66-1.12-2.26-4.28,2.64-9.17,2.07-14.05,1.54C71.75,180.82,70.63,180.88,68.81,180.85Z" style="fill: #4a435b"/>
    <path d="M-16.88,203.28A2.39,2.39,0,0,0-15,200.86c0-1.92,1.17-3.13,2.32-4.4a2.05,2.05,0,0,0,1.32-2.2h0l3.21.37a.8.8,0,0,1,.24.62c-1.08,2.93.58,4.91,2.41,6.82.15.53.3,1.05.46,1.58a1.88,1.88,0,0,0,1.14,2.52l.75,2.42c-2.7,1.62-3.09,3.71-1.95,6.67,1.76,4.57,3,9.33,4.62,14a12.72,12.72,0,0,0,1.78,3.43c1,1.42,2.31,2.68,3.49,4Q6.27,241,7.8,245.23c-.32,1.93,0,3.61,1.88,4.66,0,.64.05,1.28.08,1.92-2.07,2.08-5,1.77-7.4,3.07-1.66-1.12-3.12-2.14-4.62-3.09-1-.59-2-1.06-3-1.58l-.21-1.88c1.09-.92.61-1.57-.38-2.12-.09-.62-.17-1.25-.25-1.88.92-.81.6-1.74.27-2.68a23.93,23.93,0,0,1-1.28-9.6,19.62,19.62,0,0,0-2-9.43c-2.32-5-5.38-9.66-6.89-15-.22-.8-1.28-1.37-1.94-2C-17.58,204.79-17.23,204-16.88,203.28Z" style="fill: #2f2e3a"/>
    <path d="M8.4,226.43c1.58-.21,2.67.86,3.91,1.52-.38,1-.77,2.09-1.17,3.17l3.23,5,5.06-.06c.29.54.46,1.28.91,1.56a2.3,2.3,0,0,0,1.83.19c3.72-1.42,7.4-2.94,11.09-4.43l1.29-1c2.79.21,5-.75,6.18-3.38l0,0c2.88.39,5.35-1.12,8-1.83a3.36,3.36,0,0,0,2.3-2.91l3.87.12c-.49,3.18-3,4.51-5.48,5.68-1.77.82-3.65,1.39-5.47,2.12a11.47,11.47,0,0,0-1.59,1l-2.72,2.32c-3.94.35-7.52,1.93-11.18,3.24s-7,2.71-10.58,3.78c-4.47,1.35-6.58.36-8.87-3.72-1.71-3-2.17-6.47-2.79-9.82C5.9,227.51,6.76,226.51,8.4,226.43Z" style="fill: #4a435b"/>
    <path d="M39.59,235.5l2.72-2.32a14.85,14.85,0,0,0,3.08,1.22c2.25.35,4.54.46,6.81.69a129.44,129.44,0,0,1,14.45,2.14c6.8,1.46,13.66,3,20.7,3.18L89,242.27c-.72.28-1.58.95-2.14.76-4.58-1.54-9.39-1.26-14.06-2-2.41-.38-4.79-.94-7.19-1.39-1.44-.26-2.89-.54-4.35-.69-4.56-.47-9.11-.95-13.68-1.3A18.92,18.92,0,0,1,39.59,235.5Z" style="fill: #b0a79c"/>
    <path d="M4.75,236.68c-1.18-1.33-2.45-2.59-3.49-4a12.72,12.72,0,0,1-1.78-3.43c-1.58-4.65-2.86-9.41-4.62-14-1.14-3-.75-5,1.95-6.67,1.26.73,1.57,2,1.92,3.26.74,2.66,1.42,5.33,2.2,8,.46,1.55,1,3.06,1.58,4.58q.93,3.78,1.84,7.54C4.73,233.51,5.46,235,4.75,236.68Z" style="fill: #5d536c"/>
    <path d="M-5.23,250.21c1,.52,2,1,3,1.58,1.5,1,3,2,4.62,3.09,2.36-1.3,5.33-1,7.4-3.07,1.38,2.45.12,4.47-1.4,6.11a19.85,19.85,0,0,1-4.72,3.32,4,4,0,0,1-5.28-1C-4.29,257.46-6,254.27-5.23,250.21Z" style="fill: #4a435b"/>
    <path d="M12.49,268.68l-2.64-.25L8.13,271a13.59,13.59,0,0,1-.79-5,2.23,2.23,0,0,1,3.28-.13A14.31,14.31,0,0,1,12.49,268.68Z" style="fill: #4a435b"/>
    <path d="M9.68,249.89c-1.88-1-2.2-2.73-1.88-4.66A4.86,4.86,0,0,1,9.68,249.89Z" style="fill: #4a435b"/>
    <path d="M116.41,257.23h1.69a.68.68,0,0,1,.26.6l-1.66,1.38C116.6,258.55,116.5,257.89,116.41,257.23Z" style="fill: #4a435b"/>
    <path d="M-12.52,155.78c1.75-.08,2.11-1.32,2.29-2.72A5.29,5.29,0,0,0-6,150.22c1.45-2.24,1.38-3.22-.3-5.66a15.46,15.46,0,0,1-1-2.13,28.2,28.2,0,0,1,2.91.36c.62.13,1.44.34,1.72.79,1.87,3,4.71,5.56,4.23,9.58a2,2,0,0,0,1.76,2.14c.36,1.43.71,2.85,1.14,4.57.95.73,2.16,1.56,3.23,2.55,2.77,2.55,2.9,3.79.92,7.18a9.77,9.77,0,0,0-.49,1.25c1.83,1.75,2.59,4.46,4.72,6.34,1,.91,1.58,2.4,2.31,3.65s1.8,2.49,3.4,2.52c3.4.07,6.32,1.45,9.22,3a20.07,20.07,0,0,0,2.36.9c.87-.51,1.71-1,2.53-1.5a4.62,4.62,0,0,1,3.78-.47,2.72,2.72,0,0,1,1.94,3.82,32.9,32.9,0,0,1-2.66,4.09c-.81,1.17-.27,2.94-1.91,4.07-.95-1.81-1.76-3.52-2.72-5.16s-2-1.91-3.7-1.05c-.86.44-1.64,1.08-2.53,1.46a2.16,2.16,0,0,1-3.07-1.46c-.22-.78-.27-1.61-.49-2.39a4.46,4.46,0,0,0-3-3,41.18,41.18,0,0,0-4.73-1.25,1.65,1.65,0,0,0-1.92,1.17,2.21,2.21,0,0,0,.09,1.36.9.9,0,0,0,.8.35c.78-.14,1.54-.4,2.18-.58,1.62.86,2.09,2.28,2.53,3.68.56,1.78.29,2.52-1.36,3.66-3.11,2.15-4.49,5.51-6.05,8.7a2.66,2.66,0,0,0,.77,3.15c3.26,3,2.15,7,2.47,10.6.1,1-.9,1.64-2,1.71A10.15,10.15,0,0,1,1,211.27a4.13,4.13,0,0,1-.15-1.91,43.3,43.3,0,0,1,1.29-6.23,5,5,0,0,0-.7-4.63A20.28,20.28,0,0,0-7,191.15c-1.65-.77-3.58-1.1-4.16-3.05a7.17,7.17,0,0,1,.92-6.56c1.73-2.31,1.65-4.86,1.63-7.74-3.55-1.71-5.07-5.24-7.06-8.38a2.23,2.23,0,0,1,.36-3.12C-13.13,160.59-12.58,158.31-12.52,155.78Z" style="fill: #c4bbb0"/>
    <path d="M34.55,232.38l-1.29,1c-2.78-.78-5.3.38-7.88,1.09-2,.55-4,1.06-5.95,1.59l-5.06.06-3.23-5c.4-1.08.79-2.13,1.17-3.17,1.5-.62,3-1.33,4.51-1.86a106.93,106.93,0,0,0,25.33-12.58c1.21-.82,2.59-1.4,3.82-2.19a3.61,3.61,0,0,1,4.89.46,15.21,15.21,0,0,1,4.74,8.9c.18,1.18-.47,2.48-.75,3.73L51,224.29l-1.82-.44c-1.54-1-1.66-1-3,.82-.35,1-1.14,1.39-2,1.87A28.32,28.32,0,0,0,40.7,229l0,0c-1.74.61-3.52,1.15-5.22,1.88C35.06,231.07,34.87,231.87,34.55,232.38Z" style="fill: #2f2e3a"/>
    <path d="M217.79,108.45c-.85,1.43-2.5,1.18-3.8,1.74-3,1.3-6,1.1-9.13.53-3.37-.62-6.79-1-10.19-1.48a23.23,23.23,0,0,0-9.24.83c-4.56,1.27-9.07,2.71-13.6,4.12a38,38,0,0,0-11.08,5.09c-1.76,1.25-4.17,1.58-6.36,2.36-1.53-1.63-2.15-3.46-3.36-5.11a14.58,14.58,0,0,1,2.21-2.34c3.29-2.12,6.58-4.26,10-6.17,5.14-2.87,10.38-5.54,15.57-8.31,5.49-2.93,10.95-6,17.32-6.52,10.58-.88,18.57,3.66,21.79,14.74C218,108.06,217.85,108.23,217.79,108.45Zm-48.12,2.8c3.57-1.17,7.14-2.35,10.72-3.49,6.33-2,12.68-3.11,19.3-1.12a39.38,39.38,0,0,0,7.78,1c2,.17,3.89-.23,5.07-2.18-1.28-5-4.56-7.45-9.31-8.41a20.82,20.82,0,0,0-11.15.53,103.18,103.18,0,0,0-22.45,11c-7.94,2.88-10.39,4.3-13,7.7.81,0,1.57.29,1.95,0C162,113.94,165.9,112.78,169.67,111.25Z" style="fill: #4a435b"/>
    <path d="M63.64,133.84a14.45,14.45,0,0,1-2.1.75c-2.07.35-3.14-.14-3.85-2.05a18.9,18.9,0,0,1-1.15-4.73,61.37,61.37,0,0,1,1.3-20.92c.32-1.26.57-2.55.79-3.83a2.38,2.38,0,0,1,2.17-2.27,3.51,3.51,0,0,1,3.67,1.86,2.64,2.64,0,0,1,.26.94c.27,5.7,1.9,11.27,1.67,17a18.42,18.42,0,0,1-.33,3.41C65.35,127.2,64.52,130.35,63.64,133.84Zm-1.89-25.76c-.73.27-1,.29-1,.38-1.9,6.36-1.84,12.83-.85,19.31.08.54.54,1.22,1.77.79A34.93,34.93,0,0,0,61.75,108.08Z" style="fill: #4a435b"/>
    <path d="M39.63,91.78c.48-2.57.86-5.16,1.47-7.69a11.88,11.88,0,0,1,3.55-5.77c3-2.89,7.36-1.4,8.59,2.4a8.58,8.58,0,0,1,.34,2.42c.05,3.11.25,6.23,0,9.32a14.46,14.46,0,0,1-5,10.31c-2.86,2.43-6.08,1.93-7.73-1.37a13.51,13.51,0,0,1-1.14-4.68,36.71,36.71,0,0,1,.2-4.9Zm7.6-9c-.59,1.75-1,3.69-2.92,4.71a2,2,0,0,0-.75,1.21c-.88,3.68-1.37,7.36.25,11a1.77,1.77,0,0,0,2.81.77,9.13,9.13,0,0,0,4-6.44,54.39,54.39,0,0,0,.52-7.76C51.13,83.8,50.69,83.53,47.23,82.74Z" style="fill: #4a435b"/>
    <path d="M68.73,81.43c1.59-1.05,3-1.83,4.26-2.82a3.56,3.56,0,0,1,4.53-.19c4.32,2.79,5.72,7.08,5.41,11.87a12.71,12.71,0,0,1-4.67,8.91,8,8,0,0,1-3.45,1.66c-3.46.68-5.65-.61-7-3.88a8.13,8.13,0,0,1-.61-2.36C66.81,90,66.88,85.49,68.73,81.43Zm11.2,8.07a8.88,8.88,0,0,0-2.6-7.59,2.13,2.13,0,0,0-3.36.37c-1.19,2.3-2.4,4.61-3.45,7-1.17,2.63-.54,5.12,1.09,7.34A2.94,2.94,0,0,0,76,97,10.22,10.22,0,0,0,79.93,89.5Z" style="fill: #4a435b"/>
    <path d="M3.34,155.3a2,2,0,0,1-1.76-2.14A2,2,0,0,1,3.34,155.3Z" style="fill: #c3bbb2"/>
    <path d="M19.43,236.09c2-.53,4-1,5.95-1.59,2.58-.71,5.1-1.87,7.88-1.09-3.69,1.49-7.37,3-11.09,4.43a2.3,2.3,0,0,1-1.83-.19C19.89,237.37,19.72,236.63,19.43,236.09Z" style="fill: #5d536c"/>
    <path d="M40.7,229a28.32,28.32,0,0,1,3.44-2.49c.89-.48,1.68-.88,2-1.87,1.09.07,2.18.14,3-.82l1.82.44a3.36,3.36,0,0,1-2.3,2.91C46.05,227.91,43.58,229.42,40.7,229Z" style="fill: #5d536c"/>
    <path d="M34.55,232.38c.32-.51.51-1.31,1-1.5,1.7-.73,3.48-1.27,5.22-1.88C39.5,231.63,37.34,232.59,34.55,232.38Z" style="fill: #5d536c"/>
    <path d="M49.16,223.85c-.81,1-1.9.89-3,.82C47.5,222.85,47.62,222.81,49.16,223.85Z" style="fill: #4a435b"/>
  </g>
</svg>
