<svg xmlns="http://www.w3.org/2000/svg" width="19" height="55" viewBox="0 0 19 55">
  <title>fairemain</title>
  <g id="Layer_14" data-name="Layer 14">
    <path d="M-1,47.65H.08c.42-1.25.86-2.49,1.31-3.73A53.58,53.58,0,0,0-9,45.59a8.91,8.91,0,0,1-2.43.07,27.8,27.8,0,0,1-11.15,2.67A98.39,98.39,0,0,1-36.15,48c-.41-.46-1-.85-1.2-1.39a2.86,2.86,0,0,0-2-1.85c-.68.41-1.6.67-2,1.27-1,1.55-2.39,1.47-3.88,1.23a3.22,3.22,0,0,1-3.12.31l-1.88.13c-1.3,1-2.69.7-4.09.27h-1.75l-7.4,1c-3.05-4.71-1.18-10.08-2.23-15C-63.63,32.3-62.4,30-59.56,30l6.79-4.59c0-.82-.11-1.64-.16-2.46l-2.65.94c-2.07,2.2-4.94,2.34-7.61,2.85-2,.38-3-.69-2.89-2.86.26-4.7.51-9.42,1-14.1a52.68,52.68,0,0,0-.08-14.08c-.4-2.54.07-5.22-1.16-7.63-.94-.92-1.83-2-3.37-1.22-2.93,1.41-6,1.2-9.15,1a77.84,77.84,0,0,0-13.21.4c-9.77,1-19.44,3-29.3,3-4.58,0-9.15-.29-13.73-.44s-9.16-.3-13.74-.42c-1.14,0-2.3.2-3.43.09-8.39-.77-16.69.35-25,1.06-3.08.26-6.21,0-9.31,0a59.07,59.07,0,0,0-6.38,0,176.25,176.25,0,0,1-34.83-.11c-3.1-.28-6.19-.62-9.29-.86-2.29-.17-4.58-.33-6.87-.33-5.08,0-10.15.11-15.23.2a18.69,18.69,0,0,0-3.43.29c-5.68,1.18-11.42,1-17.14.67-8-.48-16-1.2-24-1.82L-308.4-11l-6.11,1.15c-9.79,2.05-19.63,3.61-29.68,3.52-3.43,0-6.86.43-10.3.55-6.54.24-13.08.4-19.62.6-.66,0-1.32,0-2,.05a160.66,160.66,0,0,1-34.79-.94,44.7,44.7,0,0,0-7.41,0c.12,1.32.23,2.64.32,4h.94a12.49,12.49,0,0,1,8.83.76l2.9.26c2.34-.63,4.65-.16,7,.21l5.89.14a4.36,4.36,0,0,1,4-.1l3.92.06a8,8,0,0,1,5-.17h6.84a5.35,5.35,0,0,1,4-.1l3-.13a2.94,2.94,0,0,1,3-.07L-351.85-2a9.42,9.42,0,0,1,6-.2l2,.05a3.21,3.21,0,0,1,3-.16l3.9-.16A14,14,0,0,1-335.11-3c5.48-.93,10.94-2.06,16.46-2.67A138.35,138.35,0,0,1-304-6.28c3.92,0,7.84.29,11.75.61,12.27,1,24.52.48,36.79-.18,7.17-.38,14.38-.69,21.55.47,3.22.53,6.49.71,9.74,1l2,.07a2.29,2.29,0,0,1,2.93.31c8.27.7,16.51,0,24.76-.54,2.57-.16,5.16.08,7.74.14,2.87-.06,5.74-.16,8.6-.16a5.69,5.69,0,0,1,1.74.59l1.67-.6c5-.43,10.07-.94,15.12-1.24,2.77-.17,5.57.2,8.33,0,7.05-.53,14,.18,21,.9a5.39,5.39,0,0,1,1.33.54l1.63-.47,2,.09,1,0c1.79-.17,3.57-.36,5.36-.5,6-.46,12.07-1,18.12-1.32A97.1,97.1,0,0,1-90-6.49c4.42.27,8.8.47,13.12-.81a7.87,7.87,0,0,1,2.43-.13c4.07.16,4.85.7,5.59,4.67a34.54,34.54,0,0,1,.64,7.3c-.2,5.89-.69,11.77-1,17.66a64.37,64.37,0,0,0-.06,7.35c.34,5.55.8,11.1.27,16.66-.27,2.84.75,5.46,1.27,8.45,1,0,2.13.32,2.83-.07,4.82-2.67,10.12-2.43,15.32-2.83A2.77,2.77,0,0,1-47,52.86,2.63,2.63,0,0,0-44.41,54l1.69-1.2,1.89-1.12,1.08-.2c3.18.14,6.37.26,9.54.43,2.08.11,4.15.31,6.22.47a3.92,3.92,0,0,1,1.32-.58c6.29-.22,12.24-2.09,18.27-3.62A15.58,15.58,0,0,1-1,47.65Z" style="fill: #4a435b"/>
    <path d="M-36.15,48c-.41-.46-1-.85-1.2-1.39a2.86,2.86,0,0,0-2-1.85,23.42,23.42,0,0,1,3-3.8c4.74-4,9.47-8.08,14.48-11.73C-17.29,25.89-12.35,23-7.47,20a45.27,45.27,0,0,0,14-13.51C8.76,3.19,11-.06,13.16-3.3a2.83,2.83,0,0,1,2.19,1.57C11.09,6.43,5.94,13.92-1.44,19.59c-2.44,1.88-5.24,3.29-7.82,5-4.2,2.78-8.42,5.56-12.53,8.48-2.92,2.08-5.71,4.34-8.49,6.61-1.37,1.13-2.57,2.47-3.85,3.71C-35.85,44.49-37,45.83-36.15,48Z" style="fill: #5d536c"/>
    <path d="M-75.49-58.51c-6.22-.78-12.4,0-18.59.45-3.75.28-7.52.48-11.23,1.08-8.39,1.38-16.83,2.62-25.08,4.61-7.3,1.75-14.37,4.44-21.53,6.72-2.81.89-5.66,1.66-8.42,2.67-8.3,3-16.58,6.11-24.83,9.28-7.18,2.75-14.3,5.67-21.46,8.48-7.81,3.07-16,4.58-24.25,6a36.35,36.35,0,0,1-6.85.41c-13.16-.16-25.67-3-37.13-9.61a64.43,64.43,0,0,1-12.46-9.49,18.24,18.24,0,0,1-3-3.84A223.26,223.26,0,0,1-303-65.47c-.86-2-1.94-3.79-2.76-5.74-2.61-6.17-2.92-12.7-2.94-19.27,0-2.12-.08-4.25-.14-6.37-.16-5.53-3.07-9.13-8-11.32-.45-.2-.88-.44-1.31-.66.7-.32,1.54-1.06,2.08-.89a11,11,0,0,1,4.31,2.12,47.75,47.75,0,0,0,6.46,5.91,4,4,0,0,1,1.33,5.22c-.6,1.32-1.28,2.61-1.79,4a13.57,13.57,0,0,0-1.18,4.13,63.39,63.39,0,0,0,.42,7.78,2.35,2.35,0,0,0,1.84,2.06,2,2,0,0,0,2.54-.85,6.34,6.34,0,0,1,4-3.38c.11,1.59.21,3.19.32,4.79a14.91,14.91,0,0,0,2.48,8.16c-1.31.19-2.7.38-3.3,1.73a4.44,4.44,0,0,0-.44,2.82,29.87,29.87,0,0,0,2.9,7.15,38.2,38.2,0,0,1,2.7,4.58c1,2.11,2.3,3.91,4.81,4.49a9.16,9.16,0,0,1,4.44,2.89,10.93,10.93,0,0,0,1.8,1.29,3.23,3.23,0,0,0,2.14-3.71c-.16-2-.55-3.87-.81-5.81a18.85,18.85,0,0,1,.78-8.81c1.71-1,3.07-1.88,4.54-2.52a10.73,10.73,0,0,1,2.82-.39c-1,3.45-2,6.91-3,10.35a14.64,14.64,0,0,0,.9,10c.86,2.1,2,2.58,4.3,2.11,7.11-1.47,13.62-4.5,20-7.76a26,26,0,0,0,3.21-2.31c-.33-1.26-.56-2.37-.92-3.43-1.34-3.86-2.61-7.75-4.13-11.53-.94-2.34-2.75-3.07-5.19-2.53a10.31,10.31,0,0,0-2.28.87c-2.48,1.23-4.94,2.51-7.41,3.78a4.19,4.19,0,0,0-1.12-3.61,4.15,4.15,0,0,1-1.25-3.57,10.57,10.57,0,0,0-.07-1.95,1.51,1.51,0,0,0-1.86-1.12,19.08,19.08,0,0,0-2.12,1.18c-2.51,1.53-4.87,3.39-7.54,4.51-2.26,1-4.55,1.69-6.5,3.26a2.39,2.39,0,0,1-2.21.21c-.56-.32-.71-1.33-1-2a7,7,0,0,1,1.66-1c5.24-1.53,9.52-5,14.4-7.23A10.36,10.36,0,0,0-272-80.21a5.21,5.21,0,0,0,1.56-2.91,31.19,31.19,0,0,0-.53-7.29c-.6-2.92-2.7-4.36-5.72-4.33a28.5,28.5,0,0,0-3.86.56c.6-3.81,3.53-5.21,6.65-6.36a1.61,1.61,0,0,1,2,1,10.42,10.42,0,0,1,.44,1.89c.65,2.54.77,2.61,3.72,2.66.62,0,1.24.11,2.46.22-1,3.35,2.74,3.06,3.77,5.29a8.27,8.27,0,0,1-1.32,2c-1.74,1.48-2.29,3-1.05,5.14a16.8,16.8,0,0,1,1.15,3.68c1.52.5,2.91.94,4.29,1.42,2.79,1,5.44,1.41,7.4-1.56a1.24,1.24,0,0,1,.78-.55,4.18,4.18,0,0,1,2.28.16A3.89,3.89,0,0,1-246.24-77a21.6,21.6,0,0,0,2.05,6A5.94,5.94,0,0,1-244-66.7a10.93,10.93,0,0,0-.8,2.31,2.78,2.78,0,0,0,.54,2.14,2.19,2.19,0,0,0,2.14-.21c1.41-1.43,2.75-2.67,5-2.77.74,0,1.6-1,2.11-1.76a23.82,23.82,0,0,0,1.46-3.1,6.88,6.88,0,0,0,.36-4.7c-.76-4-1.14-8-1.58-12.09-.17-1.56.71-2.83,1.63-4,.79-1,1.68-1.91,2.88-3.26-1.7-.34-3-.32-4-.86a14.32,14.32,0,0,0-6-1.9,3.33,3.33,0,0,1-3.33-3,6.14,6.14,0,0,0-.43-1.4,3,3,0,0,0-3.49-2,34,34,0,0,0-3.89,1.08c-1.45-2.37-4-4.13-4.4-6.94-.45-3-2.06-5.42-3.29-8.06-.88-1.88-1.26-4-2.09-5.92a15.47,15.47,0,0,1-1.41-5.14c-.27-3.6-2.71-5-6.08-3.83-.92.33-1.87.53-2.81.78-1.83-4.14-3.77-8.2-6.92-11.59a16.52,16.52,0,0,1-4.22-15.3c2.9.69,4,2.62,3.66,5.46-.12,1.14-.22,2.28-.28,3.43a4.27,4.27,0,0,0,2.58,4.34c2.05,1,4.05,2.12,6.15,3A18.18,18.18,0,0,0-266.4-141c.49.07,1.07-.42,1.95-.8a15.69,15.69,0,0,0-1.74-2.08,3.51,3.51,0,0,1-1.41-3.91c1.08-3.35.48-6.8.89-10.18.3-2.44.56-4.84-.74-7.18a6.47,6.47,0,0,1-.24-2.88,18.7,18.7,0,0,0,.07-3.42,17.45,17.45,0,0,1,.84-9.13c1.28-3.88-.66-8.4-4.06-10.65a2.2,2.2,0,0,0-3.61,1.6,17.72,17.72,0,0,0-.17,4.87,6.15,6.15,0,0,1-.91,4.65,6.47,6.47,0,0,0-1,4.18,14.18,14.18,0,0,1-.55,3.79c-.41,1.89-1.06,3.64-.9,5.73.2,2.56-1,4.8-4,5.25.17-2.43.31-4.87.53-7.3.54-6.15-.46-12.38,1.21-18.48.58-2.12-.41-2.89-3.67-3.38-.25,1.25-.58,2.5-.76,3.77a30.83,30.83,0,0,1-4,11c-2.8,4.86-7.26,6.52-12.46,4.39a21,21,0,0,1-8.16-6c.21-1.89.08-3.52-1.95-4.55-4.46-2.26-4.88-5.91-2.8-9.9,1.88-3.58,3.55-7.29,6.52-10.21a28.77,28.77,0,0,1,8.39-6c.18.6.35,1.19.53,1.78-1.24,1.06-2.32,2.5-3.75,3.11-3.12,1.33-4.25,4-5.1,6.81-1,3.29-1.83,6.61-3.5,9.66-.32.59-.13,1.45-.21,2.62l3.55-1.47a26.56,26.56,0,0,0,2.36,2.48,6.08,6.08,0,0,0,8.1.2,10,10,0,0,0,4.29-9.83c-.52-4-1.38-8-2.09-12.08.58-.7,1.35-1.11,2.09-.44,1,.87,1.74,2,2.66,2.88,1.26,1.27,2.61,2.46,3.88,3.72a5.78,5.78,0,0,0,4.5,1.59,8.83,8.83,0,0,0,6.24-2.47c1.59-1.64,3.07-3.32,5.33-4.14.52-.19.7-1.28,1.07-2-1.72-1.57-4.47-1.48-4.94-4.27a7.2,7.2,0,0,1,.41-1.16c1.38-2.68,1.29-3.77-1-5.31a26.68,26.68,0,0,1-6.36-5.33,5.22,5.22,0,0,0-1.19-.85c-4.42-3-9.52-3.2-14.59-3.41a3.93,3.93,0,0,0-2.29.71,10.34,10.34,0,0,1-10.2,1.28c-3.54,2.54-7,4.95-10.42,7.49a10.34,10.34,0,0,1-5.75,2.49c-.15-.17-.3-.34-.46-.5,3.95-4.73,9.15-7.83,14.48-10.62a53.48,53.48,0,0,1,18.06-5.8,59.12,59.12,0,0,1,7.29-.35c6.13,0,10.55,3,14.47,7.51,2.81,3.23,4.64,7,6.85,10.54a1.65,1.65,0,0,0,1.14,2.28v0c.38,3.91,1,7.8,1.1,11.72.25,8,.1,16,.36,24.06s.82,16,1.25,24c.18,3.26.43,6.53.53,9.8a70.11,70.11,0,0,0,1.7,12.15c1.9,9.08,6.92,16.13,13.81,22.08a18.86,18.86,0,0,0,10.2,4.46,29.39,29.39,0,0,0,20.23-4.35c14.31-9.19,22.21-22.28,23.89-39.22.84-8.48-.56-16.62-3-24.7-1.65-5.48-4-10.73-5.14-16.37a35.57,35.57,0,0,1-.94-9.73q.27-4.17.71-8.33a17.14,17.14,0,0,1,.67-3.86c3.51-10.13,7.76-19.82,16-27.2a61.61,61.61,0,0,1,15.64-10.05,17.26,17.26,0,0,1,22.44,8.5A52,52,0,0,1-140.48-226c1.8,7.83,2.9,15.78,3.94,23.74.59,4.54,1.35,9.07,2.23,13.56a59.48,59.48,0,0,0,6.72,17.35c1.83,3.29,3.46,6.69,5.27,10a31.17,31.17,0,0,0,9.24,10.05,13.49,13.49,0,0,0,3,1.68c5.08,2,9.18.39,11.09-4.71a46.62,46.62,0,0,0,2.75-10.41c.74-6,1.09-12.07,1.29-18.12.2-5.89,0-11.79,0-17.68,0-5.57,0-11.13-.07-16.69-.07-4.09-.35-8.18-.57-12.26a43.38,43.38,0,0,1,1.18-14.15,30.19,30.19,0,0,1,9.09-14.9,48.17,48.17,0,0,1,19.74-10.59,36.8,36.8,0,0,1,8.25-1,9.08,9.08,0,0,1,7.29,3.46,22.6,22.6,0,0,1,5.31,12c.41,2.75.54,5.54.76,8.31.85,10.61,1.64,21.21,2.56,31.81.36,4.23,1.19,8.43,1.48,12.67a191.22,191.22,0,0,1,.47,26,54.68,54.68,0,0,0,.74,13.7,17.18,17.18,0,0,0,3,7.21c4.67,6.34,12.52,8.55,20.21,5.44a32.18,32.18,0,0,0,7.32-4A68.85,68.85,0,0,0,5.68-167.3a162,162,0,0,0,14.87-24.27c1.59-3.22,3-6.54,4.58-9.78,3.57-7.36,7.15-14.72,10.82-22,1.32-2.63,2.95-5.1,4.41-7.66.88-1.56,1.71-3.15,2.56-4.73,1.13-1.17,2.21-2.39,3.39-3.5a13.5,13.5,0,0,1,11.15-3.91,31.89,31.89,0,0,1,11.17,3.34,14.29,14.29,0,0,1,6.11,6.13c.81,6.13-.31,12.09-1.95,17.93a186.06,186.06,0,0,1-9.23,25.32c-.2.45-.38.91-.56,1.36-4.77,12.18-9.61,24.33-14.28,36.54C43.34-138.51,38-124.44,32.89-110.29c-1.66,4.59-2.67,9.43-3.87,14.18C27-88.18,26.11-80,24.57-72c-1.56,8.18-3.39,16.32-5,24.51-1,5.29-1.89,10.62-2.69,16a16.8,16.8,0,0,0,.27,3.85c-.21,3.1-.45,6.2-.61,9.3-.23,4.42-.48,8.83-2.21,13L13.16-3.3C11-.06,8.76,3.19,6.57,6.44A45.27,45.27,0,0,1-7.47,20c-4.88,3-9.82,5.94-14.44,9.31-5,3.65-9.74,7.72-14.48,11.73a23.42,23.42,0,0,0-3,3.8c-.68.41-1.6.67-2,1.27-1,1.55-2.39,1.47-3.88,1.23-1.71-1.21-1.72-1.21-3.12.31l-1.88.13c-2.23-1.34-2.25-1.34-4.09.27h-1.75a7.88,7.88,0,0,0-1.62-1.64c-3.35-1.78-3.44-2-1.76-5,.39-.7,1-1.53.92-2.18-.55-3,.23-6.22-1-9.18l6.79-4.59c3.31-.55,5.56-2.91,8.12-4.75L-41,21c-1.14,1.8-2.31,3.58-3.43,5.39a14.13,14.13,0,0,0-2.21,7.45,2.49,2.49,0,0,0,3.12,2.77A9.92,9.92,0,0,0-38.38,34c3.52-3,6.4-6.52,7.59-11.06,4.33.45,4.37.48,6.7-2.68,1.46-2,2.65-4.16,4.2-6.06A24.21,24.21,0,0,0-14.49.73,42.25,42.25,0,0,1-13.43-5a1.4,1.4,0,0,1,2-1.15c.27.94.57,2,.89,3.07A9.38,9.38,0,0,0-7,1.46a2.07,2.07,0,0,0,3.06-.35c2.22-3,4.45-6.06,5.15-9.93A78.16,78.16,0,0,0,2.46-25,98.93,98.93,0,0,1,3.54-41.64,24.28,24.28,0,0,1,7.78-52c.54-.79,1.18-1.51,1.71-2.17-1.45-3-1.83-3.43-3.93-2.49s-4.19.6-6.28.8A54.57,54.57,0,0,1-29.8-61.31a40,40,0,0,0-6-2c-.83-.25-2.38.63-2.35,1.34a3.59,3.59,0,0,0,.78,2.17,5.52,5.52,0,0,0,2.45,1.52,11.76,11.76,0,0,1,5.62,3.78,43.73,43.73,0,0,0,3.22,3,44.94,44.94,0,0,1,13.3,20.88,18.74,18.74,0,0,1-.06,12A32.29,32.29,0,0,1-22.18-4.41L-24-6.33a57.83,57.83,0,0,0,2.34-7.45,48.09,48.09,0,0,0-.87-20.43,23.23,23.23,0,0,0-1.72-4.56c-3.68-7.47-10.08-11.86-17.46-15a52.5,52.5,0,0,0-16.62-4C-64.08-58.16-69.75-59.09-75.49-58.51Zm86.84-19c1.72-1.14,1.72-1.14,1.15-3A15.22,15.22,0,0,0,12.66-83c-.26-3.13-2.89-5-5.81-4a17.47,17.47,0,0,0-5,2.84c-2.43,2-2.91,5.88-1,7.85,3.08,3.2,6.29,4,9.57.39A9.51,9.51,0,0,0,11.35-77.51Zm38.43-144a3,3,0,0,0-4.16,1.41,81.52,81.52,0,0,0-5.5,10.35c-1.63,4.08-1.56,8.36,1.23,12.13,2.56,3.45,6.12,3.77,9.18.77a31.64,31.64,0,0,0,6.82-9.51,17.14,17.14,0,0,0,.91-12c-.6-2.05-1.57-4.4-4.59-4ZM26.53-189.93c-3.19,2.35-3.26,2.44-3.76,5.61-.1.64-.14,1.3-.24,1.95-.68,4.35-1.14,8.76-2.11,13.05a71.81,71.81,0,0,1-3.75,12.64,38.27,38.27,0,0,0-2.36,23.83c1.54.8,2.66.54,3.42-.88a9,9,0,0,0,.55-1.36c2.18-6.24,6.25-11.43,9.57-17a10.6,10.6,0,0,1,1.89-2.24,102.22,102.22,0,0,0,11.69-13.82c2.91-3.92,5.49-8.16,9.56-11.09a2.11,2.11,0,0,0,.9-1.12,4.08,4.08,0,0,0-.1-2.28c-.18-.39-1.12-.67-1.67-.6a15.11,15.11,0,0,0-2.79.84A11.62,11.62,0,0,1,33.17-188c-.92-1.72-1.55-3.6-2.42-5.35a4.91,4.91,0,0,0-1.51-1.81,1.93,1.93,0,0,0-3.12,1.62C26.14-192.44,26.37-191.31,26.53-189.93Zm-207.15,23c6.43,0,12.16-1.66,16.72-6.6,1.66-1.8,3.47-3.4,4.52-5.7a16.59,16.59,0,0,1,2.35-3.14c1.32-1.66,2.75-3.25,4-5s2.51-3.84,2.58-6.25a24.54,24.54,0,0,0-4.37-14.8,5.67,5.67,0,0,0-.57-.79,2.86,2.86,0,0,0-3.17-.6,1.84,1.84,0,0,0-.85,2.5,7.2,7.2,0,0,1-.9,5.65c-1.52,2.89-3.09,5.76-4.49,8.71A18.46,18.46,0,0,1-171-186.1a9,9,0,0,1-6.48,1.71,25.2,25.2,0,0,1-9.29-2.91c-2.33-1.21-3.83-.39-3.83,2.15a7.89,7.89,0,0,0,.72,2.78,29.85,29.85,0,0,1,1.82,4C-187-173.66-184-170.25-180.62-166.94ZM-76.2-189.55a18.53,18.53,0,0,0,3.55-1.1c5.35-2.73,8.92-7.31,11.21-12.58,1.86-4.31,2.7-9.08,3.76-13.7a6.7,6.7,0,0,0-.68-3.72,2.65,2.65,0,0,0-2-1.09c-.45,0-1.2.64-1.41,1.16-.74,1.81-1.25,3.71-1.93,5.55-1.68,4.55-5.09,7-9.72,8a7.91,7.91,0,0,1-8.36-2.7c-1.6-1.86-3.1-3.81-4.7-5.66a12.71,12.71,0,0,0-2.47-2.34A2.31,2.31,0,0,0-92.58-216a11.74,11.74,0,0,0,.06,3.88,93.19,93.19,0,0,0,2.45,9.5,29.45,29.45,0,0,0,2.91,6.2C-84.81-192.64-81.37-190.31-76.2-189.55Zm-68.18,97.17c.17-.79.37-1.14.28-1.41a39.92,39.92,0,0,1-1.74-11.07,12.89,12.89,0,0,0-.87-3.78,1.55,1.55,0,0,0-2-.94,23.11,23.11,0,0,0-2.26.9,92.33,92.33,0,0,1-11.6,3.88c-3.27.83-6,.71-8.35-2-.08-.1-.31-.08-.77-.18-.36.53-1.07,1.12-1.15,1.78-.77,6.94.56,13.65,2.54,20.25a3.52,3.52,0,0,0,2.63,2.74C-159.83-85.19-152.74-90.06-144.38-92.38ZM-165-135.74h.36c0-3.41,0-6.82,0-10.23,0-4-.52-7.79-2.93-11.16a12.21,12.21,0,0,1-.88-2.74,7.2,7.2,0,0,0-3.79-4.25c-.94-.43-2.3.05-2.39,1-.37,3.88-1.45,7.69-1,11.66a36.19,36.19,0,0,1-.62,12.66,10.21,10.21,0,0,0,.08,5.32q.94,3.28,2,6.56a5.1,5.1,0,0,0,.65,1.3c1.19,1.77,2.91,2,4.55.55a10,10,0,0,0,3.61-6.73C-165.27-133.14-165.16-134.44-165-135.74Zm62,50.1c-1.32-.24-2.3-.68-3.15-.51-3,.58-6.07,1.28-9,2.13-2.5.7-4.83,1.92-7.58,1.63A2.1,2.1,0,0,0-125-80.24c-.09,2.6-.15,5.22,0,7.81.24,4.05,1.21,8.08.2,12,1.25,1.72,2.68,1.31,4.12.87l19.1-5.71c.18-.32.45-.6.47-.89a8.73,8.73,0,0,0-.09-2.4A60.54,60.54,0,0,1-103-85.64Zm-39.79,26.5a3.54,3.54,0,0,0-.21-1.28c-1.63-2.77-1.86-5.89-2.34-9a14.83,14.83,0,0,0-1.1-3.75c-1-2.18-2.79-2.76-4.78-1.34A16.9,16.9,0,0,1-158-71.83a48.56,48.56,0,0,0-7,2.18c-1.28.46-1.63,1.4-1.39,2.78,0,.17.09.32.12.48.76,4.91,2.92,9.76.59,14.82A1.86,1.86,0,0,0-165-49.9a3,3,0,0,0,2.23.29c2.29-.84,4.48-2,6.76-2.84,3.51-1.35,7.05-2.62,10.59-3.87A3.77,3.77,0,0,0-142.81-59.14Zm-16.31-108a31.15,31.15,0,0,0,.5,3.34c.81,3,1.86,5.92,2.54,8.94,1.51,6.74,5,12.33,9.55,17.39A4.78,4.78,0,0,0-141.2-136a4.61,4.61,0,0,0,3.13-4,10,10,0,0,0-1.56-7,198.65,198.65,0,0,1-10.82-19.13c-.77-1.61-1.76-3.15-3.86-3.55Zm-67.4,85c2,1.55,2.09,3.68,2.29,5.82s.57,4.54,1,6.79a2.61,2.61,0,0,0,4,2.08c1.48-.68,2.86-1.57,4.35-2.22a42.29,42.29,0,0,1,14.38-3.71c1.45-1.72,1-3.31.33-4.84a24.89,24.89,0,0,1-2-7.53,3.1,3.1,0,0,0-2.37-3.1c-3.37,1.62-7.24,2-11.14,2.25a4.45,4.45,0,0,0-1,.13,6.21,6.21,0,0,1-4.31,0,2.31,2.31,0,0,0-3,1C-224.7-84.64-225.37-83.72-226.52-82.15ZM-79.44-186.32a4.12,4.12,0,0,0-3.34,3.6c-.43,2.08-.86,4.16-1.14,6.26a122.31,122.31,0,0,1-2.73,15.4,35.57,35.57,0,0,0-.94,8.25c-.07,2.86,2.85,5.32,5.11,4.45,2.64-1,5-2.47,5.73-5.53.55-2.38,1.13-4.76,1.46-7.18,1.05-7.75-.76-15.24-2.42-22.72C-77.93-184.75-78.9-185.55-79.44-186.32ZM-126.31-93.7c4.29-1.58,7.92-3,11.62-4.24s7.52-2.21,11.28-3.28c.47-.14,1-.17,1.44-.33,2.32-.77,3.08-2,2.64-4.49-.49-2.73-1-5.45-1.63-8.16-.51-2.34-2.13-3.54-4.24-2.76-2.67,1-5.42,1.13-8.16,1.55-3.71.55-7.39,1.29-11.08,2a3.35,3.35,0,0,0-2.81,2.45c-1.29,4.94-2.05,10-.66,15A7.93,7.93,0,0,0-126.31-93.7Zm-88.26,62.6a8.14,8.14,0,0,0,1.74.37,7.66,7.66,0,0,0,1.9-.34c6.06-1.79,11.5-5.5,18.14-5.6,1.88,0,3-2.9,2-4.68a12.13,12.13,0,0,1-2-5.46c0-.82,0-1.64-.1-2.45a2.75,2.75,0,0,0-3.85-2.42,9,9,0,0,0-1.75.88,22.81,22.81,0,0,1-10.65,3.37c-3.88.3-6.32,2.07-8.15,5.5C-213.9-39.06-215.51-34.94-214.57-31.1ZM-87-81.84a6.08,6.08,0,0,0-.63,1.54,20.66,20.66,0,0,0,3.43,13c1.71,2.56,2.45,2.84,5.25,1.77,2.59-1,5.11-2.14,7.71-3.11,1.67-.63,3.43-1,5.13-1.59,1.87-.63,2.24-1.42,1.78-3.33-.61-2.54-1.17-5.08-1.77-7.62a47.48,47.48,0,0,0-1.16-4.74c-.82-2.4-2.38-3-4.55-1.84C-76.69-85.21-81.43-82.33-87-81.84Zm1.07-34.77c0,2.17.06,4.29-.14,6.38a22.77,22.77,0,0,0,.87,7.27c.45,2,1.54,2.68,3.56,2.43a13.94,13.94,0,0,0,1.91-.45c5.32-1.59,10.63-3.17,15.94-4.79a2.26,2.26,0,0,0,1.63-2.68c-.31-2.76-.57-5.54-1.11-8.25-1.12-5.77-2.47-6.47-8.12-4.62C-76-119.8-80.69-118.31-85.94-116.61Zm31-43.21a22,22,0,0,0-4.77-15,99,99,0,0,0-7.34-7.87,2.94,2.94,0,0,0-3.6-.51,2.34,2.34,0,0,0-.86,3c1.09,2.79,1.22,5.72,1.65,8.63.82,5.56,2.55,10.75,6.34,15.12,1.44,1.66,3.05,2.5,5.15,1.92A4.4,4.4,0,0,0-55-158.85C-55-159.17-55-159.5-54.95-159.82Zm21.65,51.5c.36-2.65.34-2.64-.07-3.8-1.1-3.08-2.23-6.15-3.24-9.26a35.76,35.76,0,0,0-4.86-9.05,4.8,4.8,0,0,0-1.05-1,2.09,2.09,0,0,0-3.21,1c-.94,2.44-2,4.85-2.73,7.36-1.16,3.91-2.16,7.88-3.11,11.84A2.19,2.19,0,0,0-50-108.37a6.56,6.56,0,0,0,1.55-.69,4.85,4.85,0,0,1,4.19-.61c3.2.66,6.44,1.16,9.67,1.67A3.64,3.64,0,0,0-33.3-108.32Zm-31.36-121.4a32,32,0,0,0-2-11.12,8.31,8.31,0,0,0-2.88-3.88,2.88,2.88,0,0,0-1.77-.7c-3.25.42-6.6.8-8.11,4.42a59.36,59.36,0,0,0-2.71,6.82,10.67,10.67,0,0,0,4.51,11.55C-72.09-219.08-65-222.73-64.66-229.72Zm-117.62,17.77c.07,1.53.08,3.48.27,5.42.5,5.12,4.17,6.19,8,5.66a8.3,8.3,0,0,0,4.7-2.36c5.19-5.73,5.88-12.14,1.18-18.67-1.65-2.29-4.05-2.56-6.45-1-1.08.72-2,1.94-3.18,2.15-2.41.45-3.21,1.87-3.52,4C-181.49-215.25-181.88-213.83-182.28-211.95ZM-7.14-116.86c.66-4.83-.24-6.68-4-9a4.7,4.7,0,0,0-4.61-.67,5.22,5.22,0,0,1-2.38.36c-2.62-.22-3.88,1.52-4.85,3.44-1.76,3.46-1.75,11.6,2.31,15.67a6.43,6.43,0,0,0,8.45,1,8.24,8.24,0,0,0,3.51-4.57C-8-112.86-7.58-115.11-7.14-116.86Zm-3,34a12,12,0,0,0-2.8-10.31,2.67,2.67,0,0,0-3.06-1,11.5,11.5,0,0,0-8.28,12.37c.23,3.31,2.17,5.83,5,6.5a7.57,7.57,0,0,0,7.86-3.74A23.69,23.69,0,0,0-10.13-82.82ZM-56.61-78.5a3.31,3.31,0,0,0,4,1.16A85,85,0,0,1-39.72-80a3.18,3.18,0,0,0,2.93-2.27c-2.14-4-4.28-8-6.43-12a7.69,7.69,0,0,0-.84-1.21,3,3,0,0,0-5.21.36,9.34,9.34,0,0,0-.95,2.26,50.85,50.85,0,0,1-5.29,12.09C-55.92-80.1-56.2-79.35-56.61-78.5ZM13-108.28c.06-1.47.12-2.28.11-3.09a5.32,5.32,0,0,0-.21-1.43,3.05,3.05,0,0,0-4.09-2.32,16.51,16.51,0,0,0-3.88,2c-3.06,2.18-3.39,7.69-.7,10.34a3.17,3.17,0,0,0,4,.7C10.6-103.77,13-105.57,13-108.28Zm-308.56-68.44a4.2,4.2,0,0,0-.48.55s.17.33.21.32a4.53,4.53,0,0,0,.69-.28Z" style="fill: #cfc7bd"/>
    <path d="M.08,47.65H-1a15.58,15.58,0,0,0-3.39.49c-6,1.53-12,3.4-18.27,3.62a3.92,3.92,0,0,0-1.32.58c.54.33,1.06.91,1.63,1a93.07,93.07,0,0,0,9.72.61c3.57-.06,7.15-.26,10.71-.24C-1.26,51.66-.6,49.65.08,47.65Z" style="fill: #b0a79c"/>
    <path d="M-22.18-4.41A32.29,32.29,0,0,0-12.85-18.6a18.74,18.74,0,0,0,.06-12A44.94,44.94,0,0,0-26.09-51.5a43.73,43.73,0,0,1-3.22-3,11.76,11.76,0,0,0-5.62-3.78,5.52,5.52,0,0,1-2.45-1.52A3.59,3.59,0,0,1-38.16-62c0-.71,1.52-1.59,2.35-1.34a40,40,0,0,1,6,2A54.57,54.57,0,0,0-.72-55.86c2.09-.2,4.19.14,6.28-.8S8-57.18,9.49-54.17C9-53.51,8.32-52.79,7.78-52A24.28,24.28,0,0,0,3.54-41.64,98.93,98.93,0,0,0,2.46-25,78.16,78.16,0,0,1,1.21-8.82C.51-4.95-1.72-1.93-3.94,1.11A2.07,2.07,0,0,1-7,1.46a9.38,9.38,0,0,1-3.54-4.59c-.32-1.06-.62-2.13-.89-3.07a1.4,1.4,0,0,0-2,1.15A42.25,42.25,0,0,0-14.49.73a24.21,24.21,0,0,1-5.4,13.47c-1.55,1.9-2.74,4.08-4.2,6.06-2.33,3.16-2.37,3.13-6.7,2.68C-32,27.48-34.86,31-38.38,34a9.92,9.92,0,0,1-5.19,2.63,2.49,2.49,0,0,1-3.12-2.77,14.13,14.13,0,0,1,2.21-7.45C-43.36,24.6-42.19,22.82-41,21c1.84-2.27,3.73-4.52,5.52-6.83,2.1-2.7,4.17-5.43,6.14-8.22C-26.95,2.54-24.07-.6-22.18-4.41Zm11.9-11c3.07,2.82,3.06,2.82,3,6.42a28.14,28.14,0,0,0,.15,3.9A2,2,0,0,0-6-3.72a2.06,2.06,0,0,0,1.66-.64A10.08,10.08,0,0,0-2-10.2c.49-5.37.87-10.75,1.19-16.13.15-2.44,0-4.9.09-7.35C-.5-38.75-.12-43.8,2.14-48.5a12.93,12.93,0,0,0,.65-2.78c-1.64-1.48-3.48-1-5.24-1a31,31,0,0,1-5.36.07c-4.52-.69-9-1.64-13.5-2.47A15.25,15.25,0,0,0-23-54.77c0,.51-.1.72,0,.82.58.78,1.15,1.58,1.8,2.3C-17-47-13.2-42.16-11.37-36c.28.93.91,1.75,1.26,2.66,1.57,4,2.48,8.1,1.15,12.42C-9.53-19.09-9.87-17.17-10.28-15.45ZM-25.21,16.42c1.56-2.24,3-4.18,4.32-6.24A19.73,19.73,0,0,0-17.77-.46c0-.76.17-1.65-1-2.08a7.5,7.5,0,0,0-1.43,1.12Q-26,6.1-31.76,13.68c-.14.18,0,.59,0,.9C-27.89,14.64-27.89,14.64-25.21,16.42Zm-9.9,3.16c-2.38,2-6.53,7.72-7.44,10.47a7.6,7.6,0,0,0,0,2.34C-36.14,28.84-34.29,25.55-35.11,19.58Z" style="fill: #5d536c"/>
  </g>
</svg>
