<svg xmlns="http://www.w3.org/2000/svg" viewBox="0 0 708 328"><title>fairemain</title><g id="Layer_14" data-name="Layer 14"><path d="M449,320.65h1.09c.42-1.25.86-2.49,1.31-3.73A53.58,53.58,0,0,0,441,318.59a8.91,8.91,0,0,1-2.43.07,27.8,27.8,0,0,1-11.15,2.67,98.39,98.39,0,0,1-13.52-.3c-.41-.46-1-.85-1.2-1.39a2.86,2.86,0,0,0-2-1.85c-.68.41-1.6.67-2,1.27-1,1.55-2.39,1.47-3.88,1.23a3.22,3.22,0,0,1-3.12.31l-1.88.13c-1.3,1-2.69.7-4.09.27h-1.75l-7.4,1c-3.05-4.71-1.18-10.08-2.23-14.95,2.09-1.74,3.32-4.08,6.16-4.05l6.79-4.59c-.05-.82-.11-1.64-.16-2.46l-2.65.94c-2.07,2.2-4.94,2.34-7.61,2.85-2,.38-3-.69-2.89-2.86.26-4.7.51-9.42,1-14.1a52.68,52.68,0,0,0-.08-14.08c-.4-2.54.07-5.22-1.16-7.63-.94-.92-1.83-2-3.37-1.22-2.93,1.41-6,1.2-9.15,1a77.84,77.84,0,0,0-13.21.4c-9.77,1-19.44,3-29.3,3-4.58,0-9.15-.29-13.73-.44s-9.16-.3-13.74-.42c-1.14,0-2.3.2-3.43.09-8.39-.77-16.69.35-25,1.06-3.08.26-6.21,0-9.31,0a59.07,59.07,0,0,0-6.38,0,176.25,176.25,0,0,1-34.83-.11c-3.1-.28-6.19-.62-9.29-.86-2.29-.17-4.58-.33-6.87-.33-5.08,0-10.15.11-15.23.2a18.69,18.69,0,0,0-3.43.29c-5.68,1.18-11.42,1-17.14.67-8-.48-16-1.2-24-1.82L141.6,262l-6.11,1.15c-9.79,2.05-19.63,3.61-29.68,3.52-3.43,0-6.86.43-10.3.55-6.54.24-13.08.4-19.62.6-.66,0-1.32,0-2,.05a160.66,160.66,0,0,1-34.79-.94,44.7,44.7,0,0,0-7.41,0c.12,1.32.23,2.64.32,4H33a12.49,12.49,0,0,1,8.83.76l2.9.26c2.34-.63,4.65-.16,7,.21l5.89.14a4.36,4.36,0,0,1,4-.1l3.92.06a8,8,0,0,1,5-.17h6.84a5.35,5.35,0,0,1,4-.1l3-.13a2.94,2.94,0,0,1,3-.07L98.15,271a9.42,9.42,0,0,1,6-.2l2,.05a3.21,3.21,0,0,1,3-.16l3.9-.16a14,14,0,0,1,1.86-.54c5.48-.93,10.94-2.06,16.46-2.67a138.35,138.35,0,0,1,14.69-.62c3.92,0,7.84.29,11.75.61,12.27,1,24.52.48,36.79-.18,7.17-.38,14.38-.69,21.55.47,3.22.53,6.49.71,9.74,1l2,.07a2.29,2.29,0,0,1,2.93.31c8.27.7,16.51,0,24.76-.54,2.57-.16,5.16.08,7.74.14,2.87-.06,5.74-.16,8.6-.16a5.69,5.69,0,0,1,1.74.59l1.67-.6c5-.43,10.07-.94,15.12-1.24,2.77-.17,5.57.2,8.33,0,7.05-.53,14,.18,21,.9a5.39,5.39,0,0,1,1.33.54l1.63-.47,2,.09,1,0c1.79-.17,3.57-.36,5.36-.5,6-.46,12.07-1,18.12-1.32a97.1,97.1,0,0,1,10.79.07c4.42.27,8.8.47,13.12-.81a7.87,7.87,0,0,1,2.43-.13c4.07.16,4.85.7,5.59,4.67a34.54,34.54,0,0,1,.64,7.3c-.2,5.89-.69,11.77-1,17.66a64.37,64.37,0,0,0-.06,7.35c.34,5.55.8,11.1.27,16.66-.27,2.84.75,5.46,1.27,8.45,1,0,2.13.32,2.83-.07,4.82-2.67,10.12-2.43,15.32-2.83a2.77,2.77,0,0,1,2.59,1.1,2.63,2.63,0,0,0,2.57,1.1l1.69-1.2,1.89-1.12,1.08-.2c3.18.14,6.37.26,9.54.43,2.08.11,4.15.31,6.22.47a3.92,3.92,0,0,1,1.32-.58c6.29-.22,12.24-2.09,18.27-3.62A15.58,15.58,0,0,1,449,320.65Z" style="fill:#4a435b"/><path d="M188,62.3A10.54,10.54,0,0,1,189,65c.38,4.06.75,8.14.87,12.22.26,8.35.19,16.7.55,25,.45,10.31,1.2,20.6,1.81,30.9a63.54,63.54,0,0,0,2.05,12.09c2,7.63,6.49,13.5,12.36,18.49a17.78,17.78,0,0,0,9.78,4.21,27.63,27.63,0,0,0,16.6-3.34,43.49,43.49,0,0,0,18.19-18.77A50.59,50.59,0,0,0,255.8,111a122.43,122.43,0,0,0-4.92-16,56.29,56.29,0,0,1-2.1-31.44c1-4.69,3.39-8.86,5.42-13.14,5.83-12.28,15.85-20.24,27.73-26.08,11.14-5.47,22.62.94,26.49,10.41a86.57,86.57,0,0,1,4.86,18c1.09,6.29,1.91,12.63,2.7,19,1.27,10.16,3.66,20,8.75,29,1.77,3.14,3.47,6.31,5.2,9.47a26.27,26.27,0,0,0,6.72,7.74,13.8,13.8,0,0,0,2,1.42c5.31,3,8.91,2.08,10.77-4.15,2.53-8.43,3-17.06,3.06-25.75.06-5.4.07-10.8.08-16.21,0-10,.16-20-.86-29.94a47.81,47.81,0,0,1,1.55-17,24.28,24.28,0,0,1,5.27-9.37A49.29,49.29,0,0,1,388.29.1a22,22,0,0,1,2.93-.23,12.2,12.2,0,0,1,11,5.16,25.94,25.94,0,0,1,5.61,13.89c.6,8,1.1,16,1.74,24,.35,4.41.78,8.81,1.36,13.19a249.46,249.46,0,0,1,2.46,36.22c0,2.29-.32,4.58-.45,6.87A41.19,41.19,0,0,0,414,110.9c2.21,9.42,11.53,12,17.4,10.36a19.19,19.19,0,0,0,7.05-3.15c3.88-3.2,8-6.17,11.45-9.91a103.62,103.62,0,0,0,10.73-14.54c7.06-10.88,11.89-22.92,17.57-34.51,3.39-6.91,7.16-13.63,10.81-20.41A9.23,9.23,0,0,1,490.62,37l2.3.25c-.85,1.58-1.68,3.17-2.56,4.73-1.46,2.56-3.09,5-4.41,7.66-3.67,7.31-7.25,14.67-10.82,22-1.57,3.24-3,6.56-4.58,9.78a162,162,0,0,1-14.87,24.27,68.85,68.85,0,0,1-13.94,13.76,32.18,32.18,0,0,1-7.32,4c-7.69,3.11-15.54.9-20.21-5.44a17.18,17.18,0,0,1-3-7.21,54.68,54.68,0,0,1-.74-13.7,191.22,191.22,0,0,0-.47-26c-.29-4.24-1.12-8.44-1.48-12.67-.92-10.6-1.71-21.2-2.56-31.81-.22-2.77-.35-5.56-.76-8.31a22.6,22.6,0,0,0-5.31-11.95,9.08,9.08,0,0,0-7.29-3.46,36.8,36.8,0,0,0-8.25,1,48.17,48.17,0,0,0-19.74,10.59,30.19,30.19,0,0,0-9.09,14.9,43.38,43.38,0,0,0-1.18,14.15c.22,4.08.5,8.17.57,12.26.11,5.56.05,11.12.07,16.69,0,5.89.21,11.79,0,17.68-.2,6-.55,12.12-1.29,18.12A46.62,46.62,0,0,1,351,118.68c-1.91,5.1-6,6.72-11.09,4.71a13.49,13.49,0,0,1-3-1.68,31.17,31.17,0,0,1-9.24-10c-1.81-3.3-3.44-6.7-5.27-10a59.48,59.48,0,0,1-6.72-17.35c-.88-4.49-1.64-9-2.23-13.56-1-8-2.14-15.91-3.94-23.74a52,52,0,0,0-3.82-11.64,17.26,17.26,0,0,0-22.44-8.5,61.61,61.61,0,0,0-15.64,10.05c-8.22,7.38-12.47,17.07-16,27.2A17.14,17.14,0,0,0,251,68q-.43,4.16-.71,8.33a35.57,35.57,0,0,0,.94,9.73c1.18,5.64,3.49,10.89,5.14,16.37,2.42,8.08,3.82,16.22,3,24.7-1.68,16.94-9.58,30-23.89,39.22a29.39,29.39,0,0,1-20.23,4.35,18.86,18.86,0,0,1-10.2-4.46c-6.89-5.95-11.91-13-13.81-22.08a70.11,70.11,0,0,1-1.7-12.15c-.1-3.27-.35-6.54-.53-9.8-.43-8-1-16-1.25-24s-.11-16-.36-24.06c-.12-3.92-.72-7.81-1.1-11.72Z" style="fill:#706578"/><path d="M127.19,102.84c-.75-1-1.51-2.09-2.27-3.14,0-2.11-1.59-3.13-2.87-4.37l-.94-1.79L120.36,92l-1.54-1.76c-.09-1.38-.42-2.62-1.88-3.19l0,0c-.33-1.07-.64-2.14-1-3.2-3.21-9.42-2.27-18.16,4.41-25.88,1.89-2.19,4-4.21,6-6.31l.92-.72c2.08-.79,4.09-1.67,5.37-3.64l3-1.23c4.19-1.31,7.92-3.76,12.29-4.67,5-1,9.84-2.35,15-2.33,8.69,0,15,4.28,19.52,11.25,1.91,2.95,4.14,5.92,4.63,9.62-.19.12-.37.24-.55.38l-1.45-.22c-2.21-3.56-4-7.31-6.85-10.54C174.35,45,169.93,42,163.8,42a59.12,59.12,0,0,0-7.29.35,53.48,53.48,0,0,0-18.06,5.8C133.12,51,127.92,54.05,124,58.78c-6.87,4.92-9.17,18.78-3.91,26.79.81,1.23,1.42,2.58,2.26,3.77,2.59,3.73,5.25,7.42,7.88,11.12q1.29,2.06,2.59,4.1c2.27,3.55,4.75,7,6.76,10.68,2.45,4.51,1.91,9.08-.71,13.43q-1.14,1.88-2.26,3.75l-.57.84c-.32.38-.65.76-1,1.13l-5.59,4.94-10.56,5.94-1.94.67c-6.89,1.79-13.82,1.52-20.84.79-6.47-.67-13-.85-19.5-1a74,74,0,0,0-8.23.68l-1.74.19-2.77-.1-2.13.33L56.62,148l-2,.48-2.73.44c.32-1,.65-1.92,1-2.88a.35.35,0,0,1,.46-.08,3.22,3.22,0,0,0,3.56-.86c11.24-2.74,22.62-2.88,34.06-1.82q3.9.36,7.79.84c7.22.89,14.3.66,21-2.69a47,47,0,0,0,13.78-10.17l1.75-2.48a10.07,10.07,0,0,0,2.87-7c.62-2.39-.69-4.26-1.68-6.22-.52-2.38-2.11-4-3.93-5.38l-1.49-2a3.16,3.16,0,0,0-2-3.15l-.8-1Z" style="fill:#5d536c"/><path d="M526.84,39.49c1.48,3.84,1,7.78.19,11.58a135,135,0,0,1-6.12,20.67c-6.35,16.31-12.73,32.61-19.26,48.85-4.71,11.68-8.78,23.61-13.27,35.38a213.8,213.8,0,0,0-7.82,26.79c-.3,1.27-.45,2.58-.69,3.87q-2,11.1-4,22.2c-2.21,12.22-5.08,24.33-6.59,36.68l-2.07-.2a16.8,16.8,0,0,1-.27-3.85c.8-5.34,1.66-10.67,2.69-16,1.59-8.19,3.42-16.33,5-24.51s2.43-16.17,4.45-24.1c1.2-4.75,2.21-9.59,3.87-14.18,5.12-14.15,10.45-28.22,15.83-42.27,4.67-12.21,9.51-24.36,14.28-36.54.18-.45.36-.91.56-1.36a186.06,186.06,0,0,0,9.23-25.32c1.64-5.84,2.76-11.8,2-17.93Z" style="fill:#7d7285"/><path d="M413.85,321c-.41-.46-1-.85-1.2-1.39a2.86,2.86,0,0,0-2-1.85,23.42,23.42,0,0,1,3-3.8c4.74-4,9.47-8.08,14.48-11.73,4.62-3.37,9.56-6.31,14.44-9.31a45.27,45.27,0,0,0,14-13.51c2.19-3.25,4.4-6.5,6.59-9.74a2.83,2.83,0,0,1,2.19,1.57c-4.26,8.16-9.41,15.65-16.79,21.32-2.44,1.88-5.24,3.29-7.82,5-4.2,2.78-8.42,5.56-12.53,8.48-2.92,2.08-5.71,4.34-8.49,6.61-1.37,1.13-2.57,2.47-3.85,3.71C414.15,317.49,413,318.83,413.85,321Z" style="fill:#5d536c"/><path d="M526.84,39.49l-2.1-.2a14.29,14.29,0,0,0-6.11-6.13,31.89,31.89,0,0,0-11.17-3.34,13.5,13.5,0,0,0-11.15,3.91c-1.18,1.11-2.26,2.33-3.39,3.5l-2.3-.25c.88-4.13,4.54-5.87,7.41-8.14,2-1.6,4.83-2,7.47-1.86a29.61,29.61,0,0,1,16.57,5.38C524.49,34.13,526.5,36.29,526.84,39.49Z" style="fill:#5d536c"/><path d="M413.85,321c-.84-2.2.3-3.54,2-4.64.67.43,1.31,1.16,2,1.24a57.59,57.59,0,0,0,7.31.42c3.58-.06,7.15-.43,10.73-.48.86,0,1.72.71,2.59,1.09a27.8,27.8,0,0,1-11.15,2.67A98.39,98.39,0,0,1,413.85,321Z" style="fill:#b0a79c"/><path d="M467.17,245.31l2.07.2c-.18,5.49-.31,11-.54,16.47a11.64,11.64,0,0,1-1.69,6l-2.66-.39c1.73-4.16,2-8.57,2.21-13C466.72,251.51,467,248.41,467.17,245.31Z" style="fill:#5d536c"/><path d="M464.34,267.6,467,268a4,4,0,0,1-1.66,3.28,2.83,2.83,0,0,0-2.19-1.57C463.56,269,464,268.3,464.34,267.6Z" style="fill:#7d7285"/><path d="M188,62.3l-1.73.07v0l.31-2.06c.18-.14.36-.26.55-.38C187.41,60.7,187.7,61.5,188,62.3Z" style="fill:#5d536c"/><path d="M22,182.83l.87-2.86a52.89,52.89,0,0,1,7.69-19.32c3.8-6.07,8.71-10.69,15.78-12.65,2.18-.61,4.33-1.29,6.49-1.94-.33,1-.66,1.92-1,2.88-1.64.73-3.31,1.37-4.89,2.22a59.88,59.88,0,0,0-7.16,4.16c-5.59,4.1-9.12,9.78-11.35,16.22a93.17,93.17,0,0,0-5.28,33.66c.35,11,2.54,21.39,9.09,30.48,3.37,4.69,7.29,8.8,13,10.78A7.78,7.78,0,0,0,50,247.93a9.79,9.79,0,0,0,8.69-2.23,24.63,24.63,0,0,0,4.71-4.91A74.2,74.2,0,0,0,72,224.38C76.83,212,82,199.86,89.9,189.12q3-4.14,6-8.3c1.24-1.71,2.46-3.43,3.69-5.15l0,0c.92-.65,1.91-1.22,2.77-1.95,8-6.9,17.48-9.86,28-9.89l1.57.37c.43.22.86.46,1.31.66,4.9,2.19,7.81,5.79,8,11.32.06,2.12.13,4.25.14,6.37,0,6.57.33,13.1,2.94,19.27.82,2,1.9,3.79,2.76,5.74a223.26,223.26,0,0,0,12.62,23.77,18.24,18.24,0,0,0,3,3.84,64.43,64.43,0,0,0,12.46,9.49c11.46,6.63,24,9.45,37.13,9.61a36.35,36.35,0,0,0,6.85-.41c8.22-1.47,16.44-3,24.25-6.05,7.16-2.81,14.28-5.73,21.46-8.48,8.25-3.17,16.53-6.24,24.83-9.28,2.76-1,5.61-1.78,8.42-2.67,7.16-2.28,14.23-5,21.53-6.72,8.25-2,16.69-3.23,25.08-4.61,3.71-.6,7.48-.8,11.23-1.08,6.19-.45,12.37-1.23,18.59-.45.37,1.06,1.26,1.22,2.22,1.39s2.09.52,3.14.79a25.88,25.88,0,0,1-3.37.36,214.36,214.36,0,0,0-47.87,4.42c-2.56.54-5.18.91-7.67,1.67q-14.34,4.35-28.61,8.94c-13.75,4.4-27,10.06-40.35,15.55a159.36,159.36,0,0,1-25.73,8.2c-10.55,2.36-21.17,1.66-31.75-.1A148.4,148.4,0,0,1,177.11,249c-9.69-4.72-17.45-11.53-22.73-21-3.35-6-6.39-12.18-9.68-18.21-4.58-8.37-7.12-17.18-6.45-26.81a37.46,37.46,0,0,0-.19-5.89c-.62-7.07-4.78-10.59-11.83-10.07a19.67,19.67,0,0,0-2.42.39c-1.61.33-3.2.68-4.8,1a32.83,32.83,0,0,0-16.8,9.66,114,114,0,0,0-16.83,23.51c-4.6,8.32-8.13,17.15-11.67,26-2.93,7.33-6.56,14.26-12,20.08a18.14,18.14,0,0,0-1.63,1.05,13.22,13.22,0,0,1-11.94,2.4,56.22,56.22,0,0,1-7.23-2.76c-1-.42-2-.91-3.06-1.36-.76-1-1.44-2.12-2.29-3.06-2-2.16-4.41-4-6-6.42a49.54,49.54,0,0,1-7.27-16.39A79.41,79.41,0,0,1,20.9,193C21.39,189.65,21.63,186.23,22,182.83Z" style="fill:#706578"/><path d="M56.84,145.12a3.22,3.22,0,0,1-3.56.86A3.85,3.85,0,0,1,56.84,145.12Z" style="fill:#706578"/><path d="M127.19,102.84l1,1.22Z" style="fill:#d2cabd"/><path d="M120.36,92l.75,1.54Z" style="fill:#d2cabd"/><path d="M374.51,214.49c-6.22-.78-12.4,0-18.59.45-3.75.28-7.52.48-11.23,1.08-8.39,1.38-16.83,2.62-25.08,4.61-7.3,1.75-14.37,4.44-21.53,6.72-2.81.89-5.66,1.66-8.42,2.67-8.3,3-16.58,6.11-24.83,9.28-7.18,2.75-14.3,5.67-21.46,8.48-7.81,3.07-16,4.58-24.25,6.05a36.35,36.35,0,0,1-6.85.41c-13.16-.16-25.67-3-37.13-9.61a64.43,64.43,0,0,1-12.46-9.49,18.24,18.24,0,0,1-3-3.84A223.26,223.26,0,0,1,147,207.53c-.86-1.95-1.94-3.79-2.76-5.74-2.61-6.17-2.92-12.7-2.94-19.27,0-2.12-.08-4.25-.14-6.37-.16-5.53-3.07-9.13-8-11.32-.45-.2-.88-.44-1.31-.66.7-.32,1.54-1.06,2.08-.89a11,11,0,0,1,4.31,2.12,47.75,47.75,0,0,0,6.46,5.91,4,4,0,0,1,1.33,5.22c-.6,1.32-1.28,2.61-1.79,4a13.57,13.57,0,0,0-1.18,4.13,63.39,63.39,0,0,0,.42,7.78,2.35,2.35,0,0,0,1.84,2.06,2,2,0,0,0,2.54-.85,6.34,6.34,0,0,1,4-3.38c.11,1.59.21,3.19.32,4.79a14.91,14.91,0,0,0,2.48,8.16c-1.31.19-2.7.38-3.3,1.73a4.44,4.44,0,0,0-.44,2.82,29.87,29.87,0,0,0,2.9,7.15,38.2,38.2,0,0,1,2.7,4.58c1,2.11,2.3,3.91,4.81,4.49a9.16,9.16,0,0,1,4.44,2.89,10.93,10.93,0,0,0,1.8,1.29,3.23,3.23,0,0,0,2.14-3.71c-.16-2-.55-3.87-.81-5.81a18.85,18.85,0,0,1,.78-8.81c1.71-1,3.07-1.88,4.54-2.52a10.73,10.73,0,0,1,2.82-.39c-1,3.45-2,6.91-3,10.35a14.64,14.64,0,0,0,.9,10.05c.86,2.1,2,2.58,4.3,2.11,7.11-1.47,13.62-4.5,20-7.76a26,26,0,0,0,3.21-2.31c-.33-1.26-.56-2.37-.92-3.43-1.34-3.86-2.61-7.75-4.13-11.53-.94-2.34-2.75-3.07-5.19-2.53a10.31,10.31,0,0,0-2.28.87c-2.48,1.23-4.94,2.51-7.41,3.78a4.19,4.19,0,0,0-1.12-3.61,4.15,4.15,0,0,1-1.25-3.57,10.57,10.57,0,0,0-.07-1.95,1.51,1.51,0,0,0-1.86-1.12,19.08,19.08,0,0,0-2.12,1.18c-2.51,1.53-4.87,3.39-7.54,4.51-2.26.95-4.55,1.69-6.5,3.26a2.39,2.39,0,0,1-2.21.21c-.56-.32-.71-1.33-1-2a7,7,0,0,1,1.66-1c5.24-1.53,9.52-5,14.4-7.23a10.36,10.36,0,0,0,3.12-2.34,5.21,5.21,0,0,0,1.56-2.91,31.19,31.19,0,0,0-.53-7.29c-.6-2.92-2.7-4.36-5.72-4.33a28.5,28.5,0,0,0-3.86.56c.6-3.81,3.53-5.21,6.65-6.36a1.61,1.61,0,0,1,2,1,10.42,10.42,0,0,1,.44,1.89c.65,2.54.77,2.61,3.72,2.66.62,0,1.24.11,2.46.22-1,3.35,2.74,3.06,3.77,5.29a8.27,8.27,0,0,1-1.32,2c-1.74,1.48-2.29,3-1.05,5.14a16.8,16.8,0,0,1,1.15,3.68c1.52.5,2.91.94,4.29,1.42,2.79,1,5.44,1.41,7.4-1.56a1.24,1.24,0,0,1,.78-.55,4.18,4.18,0,0,1,2.28.16,3.89,3.89,0,0,1,1.73,2.24,21.6,21.6,0,0,0,2.05,6,5.94,5.94,0,0,1,.17,4.31,10.93,10.93,0,0,0-.8,2.31,2.78,2.78,0,0,0,.54,2.14,2.19,2.19,0,0,0,2.14-.21c1.41-1.43,2.75-2.67,5-2.77.74,0,1.6-1,2.11-1.76a23.82,23.82,0,0,0,1.46-3.1,6.88,6.88,0,0,0,.36-4.7c-.76-4-1.14-8.05-1.58-12.09-.17-1.56.71-2.83,1.63-4,.79-1,1.68-1.91,2.88-3.26-1.7-.34-3-.32-4-.86a14.32,14.32,0,0,0-6-1.9,3.33,3.33,0,0,1-3.33-3,6.14,6.14,0,0,0-.43-1.4,3,3,0,0,0-3.49-2,34,34,0,0,0-3.89,1.08c-1.45-2.37-4-4.13-4.4-6.94-.45-3-2.06-5.42-3.29-8.06-.88-1.88-1.26-4-2.09-5.92a15.47,15.47,0,0,1-1.41-5.14c-.27-3.6-2.71-5-6.08-3.83-.92.33-1.87.53-2.81.78-1.83-4.14-3.77-8.2-6.92-11.59a16.52,16.52,0,0,1-4.22-15.3c2.9.69,4,2.62,3.66,5.46-.12,1.14-.22,2.28-.28,3.43a4.27,4.27,0,0,0,2.58,4.34c2,1,4,2.12,6.15,3A18.18,18.18,0,0,0,183.6,132c.49.07,1.07-.42,2-.8a15.69,15.69,0,0,0-1.74-2.08,3.51,3.51,0,0,1-1.41-3.91c1.08-3.35.48-6.8.89-10.18.3-2.44.56-4.84-.74-7.18a6.47,6.47,0,0,1-.24-2.88,18.7,18.7,0,0,0,.07-3.42,17.45,17.45,0,0,1,.84-9.13c1.28-3.88-.66-8.4-4.06-10.65a2.2,2.2,0,0,0-3.61,1.6,17.72,17.72,0,0,0-.17,4.87,6.15,6.15,0,0,1-.91,4.65,6.47,6.47,0,0,0-1,4.18,14.18,14.18,0,0,1-.55,3.79c-.41,1.89-1.06,3.64-.9,5.73.2,2.56-1,4.8-4,5.25.17-2.43.31-4.87.53-7.3.54-6.15-.46-12.38,1.21-18.48.58-2.12-.41-2.89-3.67-3.38-.25,1.25-.58,2.5-.76,3.77a30.83,30.83,0,0,1-4,11c-2.8,4.86-7.26,6.52-12.46,4.39a21,21,0,0,1-8.16-6c.21-1.89.08-3.52-1.95-4.55-4.46-2.26-4.88-5.91-2.8-9.9,1.88-3.58,3.55-7.29,6.52-10.21a28.77,28.77,0,0,1,8.39-6c.18.6.35,1.19.53,1.78-1.24,1.06-2.32,2.5-3.75,3.11-3.12,1.33-4.25,4-5.1,6.81-1,3.29-1.83,6.61-3.5,9.66-.32.59-.13,1.45-.21,2.62l3.55-1.47a26.56,26.56,0,0,0,2.36,2.48,6.08,6.08,0,0,0,8.1.2,10,10,0,0,0,4.29-9.83c-.52-4-1.38-8-2.09-12.08.58-.7,1.35-1.11,2.09-.44,1,.87,1.74,2,2.66,2.88,1.26,1.27,2.61,2.46,3.88,3.72a5.78,5.78,0,0,0,4.5,1.59,8.83,8.83,0,0,0,6.24-2.47c1.59-1.64,3.07-3.32,5.33-4.14.52-.19.7-1.28,1.07-2-1.72-1.57-4.47-1.48-4.94-4.27a7.2,7.2,0,0,1,.41-1.16c1.38-2.68,1.29-3.77-1-5.31a26.68,26.68,0,0,1-6.36-5.33,5.22,5.22,0,0,0-1.19-.85c-4.42-3-9.52-3.2-14.59-3.41a3.93,3.93,0,0,0-2.29.71,10.34,10.34,0,0,1-10.2,1.28c-3.54,2.54-7,5-10.42,7.49a10.34,10.34,0,0,1-5.75,2.49c-.15-.17-.3-.34-.46-.5,4-4.73,9.15-7.83,14.48-10.62a53.48,53.48,0,0,1,18.06-5.8A59.12,59.12,0,0,1,163.8,42c6.13,0,10.55,3,14.47,7.51,2.81,3.23,4.64,7,6.85,10.54a1.65,1.65,0,0,0,1.14,2.28v0c.38,3.91,1,7.8,1.1,11.72.25,8,.1,16,.36,24.06s.82,16,1.25,24c.18,3.26.43,6.53.53,9.8a70.11,70.11,0,0,0,1.7,12.15c1.9,9.08,6.92,16.13,13.81,22.08a18.86,18.86,0,0,0,10.2,4.46,29.39,29.39,0,0,0,20.23-4.35c14.31-9.19,22.21-22.28,23.89-39.22.84-8.48-.56-16.62-3-24.7-1.65-5.48-4-10.73-5.14-16.37a35.57,35.57,0,0,1-.94-9.73q.27-4.17.71-8.33a17.14,17.14,0,0,1,.67-3.86c3.51-10.13,7.76-19.82,16-27.2a61.61,61.61,0,0,1,15.64-10,17.26,17.26,0,0,1,22.44,8.5A52,52,0,0,1,309.52,47c1.8,7.83,2.9,15.78,3.94,23.74.59,4.54,1.35,9.07,2.23,13.56a59.48,59.48,0,0,0,6.72,17.35c1.83,3.29,3.46,6.69,5.27,10a31.17,31.17,0,0,0,9.24,10,13.49,13.49,0,0,0,3,1.68c5.08,2,9.18.39,11.09-4.71a46.62,46.62,0,0,0,2.75-10.41c.74-6,1.09-12.07,1.29-18.12.2-5.89,0-11.79,0-17.68,0-5.57,0-11.13-.07-16.69-.07-4.09-.35-8.18-.57-12.26a43.38,43.38,0,0,1,1.18-14.15,30.19,30.19,0,0,1,9.09-14.9A48.17,48.17,0,0,1,384.39,3.88a36.8,36.8,0,0,1,8.25-1,9.08,9.08,0,0,1,7.29,3.46,22.6,22.6,0,0,1,5.31,12c.41,2.75.54,5.54.76,8.31.85,10.61,1.64,21.21,2.56,31.81.36,4.23,1.19,8.43,1.48,12.67a191.22,191.22,0,0,1,.47,26,54.68,54.68,0,0,0,.74,13.7,17.18,17.18,0,0,0,3,7.21c4.67,6.34,12.52,8.55,20.21,5.44a32.18,32.18,0,0,0,7.32-4,68.85,68.85,0,0,0,13.94-13.76,162,162,0,0,0,14.87-24.27c1.59-3.22,3-6.54,4.58-9.78,3.57-7.36,7.15-14.72,10.82-22,1.32-2.63,2.95-5.1,4.41-7.66.88-1.56,1.71-3.15,2.56-4.73,1.13-1.17,2.21-2.39,3.39-3.5a13.5,13.5,0,0,1,11.15-3.91,31.89,31.89,0,0,1,11.17,3.34,14.29,14.29,0,0,1,6.11,6.13c.81,6.13-.31,12.09-2,17.93a186.06,186.06,0,0,1-9.23,25.32c-.2.45-.38.91-.56,1.36-4.77,12.18-9.61,24.33-14.28,36.54-5.38,14.05-10.71,28.12-15.83,42.27-1.66,4.59-2.67,9.43-3.87,14.18-2,7.93-2.91,16.07-4.45,24.1s-3.39,16.32-5,24.51c-1,5.29-1.89,10.62-2.69,16a16.8,16.8,0,0,0,.27,3.85c-.21,3.1-.45,6.2-.61,9.3-.23,4.42-.48,8.83-2.21,13l-1.19,2.1c-2.19,3.24-4.4,6.49-6.59,9.74a45.27,45.27,0,0,1-14,13.51c-4.88,3-9.82,5.94-14.44,9.31-5,3.65-9.74,7.72-14.48,11.73a23.42,23.42,0,0,0-3,3.8c-.68.41-1.6.67-2,1.27-1,1.55-2.39,1.47-3.88,1.23-1.71-1.21-1.72-1.21-3.12.31l-1.88.13c-2.23-1.34-2.25-1.34-4.09.27h-1.75a7.88,7.88,0,0,0-1.62-1.64c-3.35-1.78-3.44-2-1.76-5,.39-.7,1-1.53.92-2.18-.55-3,.23-6.22-1-9.18l6.79-4.59c3.31-.55,5.56-2.91,8.12-4.75l3.6.37c-1.14,1.8-2.31,3.58-3.43,5.39a14.13,14.13,0,0,0-2.21,7.45,2.49,2.49,0,0,0,3.12,2.77,9.92,9.92,0,0,0,5.19-2.63c3.52-3,6.4-6.52,7.59-11.06,4.33.45,4.37.48,6.7-2.68,1.46-2,2.65-4.16,4.2-6.06a24.21,24.21,0,0,0,5.4-13.47,42.25,42.25,0,0,1,1.06-5.78,1.4,1.4,0,0,1,2-1.15c.27.94.57,2,.89,3.07a9.38,9.38,0,0,0,3.54,4.59,2.07,2.07,0,0,0,3.06-.35c2.22-3,4.45-6.06,5.15-9.93A78.16,78.16,0,0,0,452.46,248a98.93,98.93,0,0,1,1.08-16.67A24.28,24.28,0,0,1,457.78,221c.54-.79,1.18-1.51,1.71-2.17-1.45-3-1.83-3.43-3.93-2.49s-4.19.6-6.28.8a54.57,54.57,0,0,1-29.08-5.45,40,40,0,0,0-6-2c-.83-.25-2.38.63-2.35,1.34a3.59,3.59,0,0,0,.78,2.17,5.52,5.52,0,0,0,2.45,1.52,11.76,11.76,0,0,1,5.62,3.78,43.73,43.73,0,0,0,3.22,3,44.94,44.94,0,0,1,13.3,20.88,18.74,18.74,0,0,1-.06,12,32.29,32.29,0,0,1-9.33,14.19L426,266.67a57.83,57.83,0,0,0,2.34-7.45,48.09,48.09,0,0,0-.87-20.43,23.23,23.23,0,0,0-1.72-4.56c-3.68-7.47-10.08-11.86-17.46-15a52.5,52.5,0,0,0-16.62-4C385.92,214.84,380.25,213.91,374.51,214.49Zm86.84-19c1.72-1.14,1.72-1.14,1.15-3a15.22,15.22,0,0,0,.16-2.42c-.26-3.13-2.89-5-5.81-3.95a17.47,17.47,0,0,0-5.05,2.84c-2.43,2-2.91,5.88-1,7.85,3.08,3.2,6.29,4,9.57.39A9.51,9.51,0,0,0,461.35,195.49Zm38.43-144a3,3,0,0,0-4.16,1.41,81.52,81.52,0,0,0-5.5,10.35c-1.63,4.08-1.56,8.36,1.23,12.13,2.56,3.45,6.12,3.77,9.18.77a31.64,31.64,0,0,0,6.82-9.51,17.14,17.14,0,0,0,.91-12c-.6-2-1.57-4.4-4.59-4ZM476.53,83.07c-3.19,2.35-3.26,2.44-3.76,5.61-.1.64-.14,1.3-.24,1.95-.68,4.35-1.14,8.76-2.11,13.05a71.81,71.81,0,0,1-3.75,12.64,38.27,38.27,0,0,0-2.36,23.83c1.54.8,2.66.54,3.42-.88a9,9,0,0,0,.55-1.36c2.18-6.24,6.25-11.43,9.57-17a10.6,10.6,0,0,1,1.89-2.24,102.22,102.22,0,0,0,11.69-13.82c2.91-3.92,5.49-8.16,9.56-11.09a2.11,2.11,0,0,0,.9-1.12,4.08,4.08,0,0,0-.1-2.28c-.18-.39-1.12-.67-1.67-.6a15.11,15.11,0,0,0-2.79.84A11.62,11.62,0,0,1,483.17,85c-.92-1.72-1.55-3.6-2.42-5.35a4.91,4.91,0,0,0-1.51-1.81,1.93,1.93,0,0,0-3.12,1.62C476.14,80.56,476.37,81.69,476.53,83.07Zm-207.15,23c6.43,0,12.16-1.66,16.72-6.6,1.66-1.8,3.47-3.4,4.52-5.7A16.59,16.59,0,0,1,293,90.62c1.32-1.66,2.75-3.25,4-5s2.51-3.84,2.58-6.25a24.54,24.54,0,0,0-4.37-14.8,5.67,5.67,0,0,0-.57-.79,2.86,2.86,0,0,0-3.17-.6,1.84,1.84,0,0,0-.85,2.5,7.2,7.2,0,0,1-.9,5.65c-1.52,2.89-3.09,5.76-4.49,8.71A18.46,18.46,0,0,1,279,86.9a9,9,0,0,1-6.48,1.71,25.2,25.2,0,0,1-9.29-2.91c-2.33-1.21-3.83-.39-3.83,2.15a7.89,7.89,0,0,0,.72,2.78,29.85,29.85,0,0,1,1.82,4C263,99.34,266,102.75,269.38,106.06ZM373.8,83.45a18.53,18.53,0,0,0,3.55-1.1c5.35-2.73,8.92-7.31,11.21-12.58,1.86-4.31,2.7-9.08,3.76-13.7a6.7,6.7,0,0,0-.68-3.72,2.65,2.65,0,0,0-1.95-1.09c-.45,0-1.2.64-1.41,1.16-.74,1.81-1.25,3.71-1.93,5.55-1.68,4.55-5.09,7-9.72,8a7.91,7.91,0,0,1-8.36-2.7c-1.6-1.86-3.1-3.81-4.7-5.66a12.71,12.71,0,0,0-2.47-2.34A2.31,2.31,0,0,0,357.42,57a11.74,11.74,0,0,0,.06,3.88,93.19,93.19,0,0,0,2.45,9.5,29.45,29.45,0,0,0,2.91,6.2C365.19,80.36,368.63,82.69,373.8,83.45Zm-68.18,97.17c.17-.79.37-1.14.28-1.41a39.92,39.92,0,0,1-1.74-11.07,12.89,12.89,0,0,0-.87-3.78,1.55,1.55,0,0,0-2-.94,23.11,23.11,0,0,0-2.26.9,92.33,92.33,0,0,1-11.6,3.88c-3.27.83-6,.71-8.35-2-.08-.1-.31-.08-.77-.18-.36.53-1.07,1.12-1.15,1.78-.77,6.94.56,13.65,2.54,20.25a3.52,3.52,0,0,0,2.63,2.74C290.17,187.81,297.26,182.94,305.62,180.62ZM285,137.26h.36c0-3.41,0-6.82,0-10.23,0-4-.52-7.79-2.93-11.16a12.21,12.21,0,0,1-.88-2.74,7.2,7.2,0,0,0-3.79-4.25c-.94-.43-2.3.05-2.39,1-.37,3.88-1.45,7.69-1,11.66a36.19,36.19,0,0,1-.62,12.66,10.21,10.21,0,0,0,.08,5.32q.94,3.28,2,6.56a5.1,5.1,0,0,0,.65,1.3c1.19,1.77,2.91,1.95,4.55.55a10,10,0,0,0,3.61-6.73C284.73,139.86,284.84,138.56,285,137.26Zm62,50.1c-1.32-.24-2.3-.68-3.15-.51-3,.58-6.07,1.28-9.05,2.13-2.5.7-4.83,1.92-7.58,1.63a2.1,2.1,0,0,0-2.23,2.15c-.09,2.6-.15,5.22,0,7.81.24,4.05,1.21,8.08.2,12,1.25,1.72,2.68,1.31,4.12.87l19.1-5.71c.18-.32.45-.6.47-.89a8.73,8.73,0,0,0-.09-2.4A60.54,60.54,0,0,1,347,187.36Zm-39.79,26.5a3.54,3.54,0,0,0-.21-1.28c-1.63-2.77-1.86-5.89-2.34-9a14.83,14.83,0,0,0-1.1-3.75c-1-2.18-2.79-2.76-4.78-1.34a16.9,16.9,0,0,1-6.78,2.64,48.56,48.56,0,0,0-7,2.18c-1.28.46-1.63,1.4-1.39,2.78,0,.17.09.32.12.48.76,4.91,2.92,9.76.59,14.82a1.86,1.86,0,0,0,.67,1.67,3,3,0,0,0,2.23.29c2.29-.84,4.48-2,6.76-2.84,3.51-1.35,7.05-2.62,10.59-3.87A3.77,3.77,0,0,0,307.19,213.86Zm-16.31-108a31.15,31.15,0,0,0,.5,3.34c.81,3,1.86,5.92,2.54,8.94,1.51,6.74,5,12.33,9.55,17.39A4.78,4.78,0,0,0,308.8,137a4.61,4.61,0,0,0,3.13-4,10,10,0,0,0-1.56-7,198.65,198.65,0,0,1-10.82-19.13c-.77-1.61-1.76-3.15-3.86-3.55Zm-67.4,85c2,1.55,2.09,3.68,2.29,5.82s.57,4.54,1,6.79a2.61,2.61,0,0,0,4,2.08c1.48-.68,2.86-1.57,4.35-2.22a42.29,42.29,0,0,1,14.38-3.71c1.45-1.72,1-3.31.33-4.84a24.89,24.89,0,0,1-2-7.53,3.1,3.1,0,0,0-2.37-3.1c-3.37,1.62-7.24,2-11.14,2.25a4.45,4.45,0,0,0-1,.13,6.21,6.21,0,0,1-4.31-.05,2.31,2.31,0,0,0-3,1C225.3,188.36,224.63,189.28,223.48,190.85ZM370.56,86.68a4.12,4.12,0,0,0-3.34,3.6c-.43,2.08-.86,4.16-1.14,6.26a122.31,122.31,0,0,1-2.73,15.4,35.57,35.57,0,0,0-.94,8.25c-.07,2.86,2.85,5.32,5.11,4.45,2.64-1,5-2.47,5.73-5.53.55-2.38,1.13-4.76,1.46-7.18,1.05-7.75-.76-15.24-2.42-22.72C372.07,88.25,371.1,87.45,370.56,86.68ZM323.69,179.3c4.29-1.58,7.92-3,11.62-4.24s7.52-2.21,11.28-3.28c.47-.14,1-.17,1.44-.33,2.32-.77,3.08-2,2.64-4.49-.49-2.73-1-5.45-1.63-8.16-.51-2.34-2.13-3.54-4.24-2.76-2.67,1-5.42,1.13-8.16,1.55-3.71.55-7.39,1.29-11.08,2a3.35,3.35,0,0,0-2.81,2.45c-1.29,4.94-2.05,9.95-.66,15A7.93,7.93,0,0,0,323.69,179.3Zm-88.26,62.6a8.14,8.14,0,0,0,1.74.37,7.66,7.66,0,0,0,1.9-.34c6.06-1.79,11.5-5.5,18.14-5.6,1.88,0,3-2.9,2-4.68a12.13,12.13,0,0,1-2-5.46c-.05-.82,0-1.64-.1-2.45a2.75,2.75,0,0,0-3.85-2.42,9,9,0,0,0-1.75.88,22.81,22.81,0,0,1-10.65,3.37c-3.88.3-6.32,2.07-8.15,5.5C236.1,233.94,234.49,238.06,235.43,241.9ZM363,191.16a6.08,6.08,0,0,0-.63,1.54,20.66,20.66,0,0,0,3.43,13c1.71,2.56,2.45,2.84,5.25,1.77,2.59-1,5.11-2.14,7.71-3.11,1.67-.63,3.43-1,5.13-1.59,1.87-.63,2.24-1.42,1.78-3.33-.61-2.54-1.17-5.08-1.77-7.62a47.48,47.48,0,0,0-1.16-4.74c-.82-2.4-2.38-3-4.55-1.84C373.31,187.79,368.57,190.67,363,191.16Zm1.07-34.77c0,2.17.06,4.29-.14,6.38a22.77,22.77,0,0,0,.87,7.27c.45,2,1.54,2.68,3.56,2.43a13.94,13.94,0,0,0,1.91-.45c5.32-1.59,10.63-3.17,15.94-4.79a2.26,2.26,0,0,0,1.63-2.68c-.31-2.76-.57-5.54-1.11-8.25-1.12-5.77-2.47-6.47-8.12-4.62C374,153.2,369.31,154.69,364.06,156.39Zm31-43.21a22,22,0,0,0-4.77-15,99,99,0,0,0-7.34-7.87,2.94,2.94,0,0,0-3.6-.51,2.34,2.34,0,0,0-.86,3c1.09,2.79,1.22,5.72,1.65,8.63.82,5.56,2.55,10.75,6.34,15.12,1.44,1.66,3,2.5,5.15,1.92a4.4,4.4,0,0,0,3.34-4.33C395,113.83,395,113.5,395.05,113.18Zm21.65,51.5c.36-2.65.34-2.64-.07-3.8-1.1-3.08-2.23-6.15-3.24-9.26a35.76,35.76,0,0,0-4.86-9.05,4.8,4.8,0,0,0-1-1,2.09,2.09,0,0,0-3.21,1c-.94,2.44-2,4.85-2.73,7.36-1.16,3.91-2.16,7.88-3.11,11.84a2.19,2.19,0,0,0,1.52,2.91,6.56,6.56,0,0,0,1.55-.69,4.85,4.85,0,0,1,4.19-.61c3.2.66,6.44,1.16,9.67,1.67A3.64,3.64,0,0,0,416.7,164.68ZM385.34,43.28a32,32,0,0,0-2-11.12,8.31,8.31,0,0,0-2.88-3.88,2.88,2.88,0,0,0-1.77-.7c-3.25.42-6.6.8-8.11,4.42a59.36,59.36,0,0,0-2.71,6.82,10.67,10.67,0,0,0,4.51,11.55C377.91,53.92,385,50.27,385.34,43.28ZM267.72,61.05c.07,1.53.08,3.48.27,5.42.5,5.12,4.17,6.19,8,5.66a8.3,8.3,0,0,0,4.7-2.36c5.19-5.73,5.88-12.14,1.18-18.67-1.65-2.29-4.05-2.56-6.45-1-1.08.72-2,1.94-3.18,2.15-2.41.45-3.21,1.87-3.52,4C268.51,57.75,268.12,59.17,267.72,61.05Zm175.14,95.09c.66-4.83-.24-6.68-4-9a4.7,4.7,0,0,0-4.61-.67,5.22,5.22,0,0,1-2.38.36c-2.62-.22-3.88,1.52-4.85,3.44-1.76,3.46-1.75,11.6,2.31,15.67a6.43,6.43,0,0,0,8.45,1,8.24,8.24,0,0,0,3.51-4.57C442,160.14,442.42,157.89,442.86,156.14Zm-3,34a12,12,0,0,0-2.8-10.31,2.67,2.67,0,0,0-3.06-1,11.5,11.5,0,0,0-8.28,12.37c.23,3.31,2.17,5.83,5,6.5a7.57,7.57,0,0,0,7.86-3.74A23.69,23.69,0,0,0,439.87,190.18Zm-46.48,4.32a3.31,3.31,0,0,0,4,1.16A85,85,0,0,1,410.28,193a3.18,3.18,0,0,0,2.93-2.27c-2.14-4-4.28-8-6.43-12a7.69,7.69,0,0,0-.84-1.21,3,3,0,0,0-5.21.36,9.34,9.34,0,0,0-1,2.26,50.85,50.85,0,0,1-5.29,12.09C394.08,192.9,393.8,193.65,393.39,194.5ZM463,164.72c.06-1.47.12-2.28.11-3.09a5.32,5.32,0,0,0-.21-1.43,3.05,3.05,0,0,0-4.09-2.32,16.51,16.51,0,0,0-3.88,2c-3.06,2.18-3.39,7.69-.7,10.34a3.17,3.17,0,0,0,4,.7C460.6,169.23,463,167.43,463,164.72ZM154.41,96.28a4.2,4.2,0,0,0-.48.55s.17.33.21.32a4.53,4.53,0,0,0,.69-.28Z" style="fill:#cfc7bd"/><path d="M397.07,295.94c3.76-3.13,7.68-6.1,11.25-9.43,7.17-6.68,12.17-14.89,16-23.85a16.49,16.49,0,0,0,1.24-4.22A50,50,0,0,0,424,238.06a20,20,0,0,0-7.44-10.67A42.5,42.5,0,0,0,406,221.18l-5.5-2.1c-.84-.48-1.62-1.26-2.7-.54l-17.94-1.87c-1.05-.27-2.08-.6-3.14-.79s-1.85-.33-2.22-1.39c5.74-.58,11.41.35,17.11.76a52.5,52.5,0,0,1,16.62,4c7.38,3.13,13.78,7.52,17.46,15a23.23,23.23,0,0,1,1.72,4.56,48.09,48.09,0,0,1,.87,20.43,59.38,59.38,0,0,1-2.33,7.45,12.34,12.34,0,0,0-1.18,1.54,89.51,89.51,0,0,1-17.87,23.59,18.39,18.39,0,0,0-1.56,1.85c-2.56,1.84-4.81,4.2-8.12,4.75C397.18,297.58,397.12,296.76,397.07,295.94Z" style="fill:#5d536c"/><path d="M383.69,261.06a21.55,21.55,0,0,1,2.42.23c2.47.5,3.11,1.15,3.19,3.53.18,5.66.28,11.33.43,17,.07,2.75,0,5.51.3,8.25.29,2.95.77,5.93,4.39,6.81-2.07,2.2-4.94,2.34-7.61,2.85-2,.38-3-.69-2.89-2.86.26-4.7.51-9.42,1-14.1a52.68,52.68,0,0,0-.08-14.08C384.45,266.15,384.92,263.47,383.69,261.06Z" style="fill:#b0a79c"/><path d="M450.08,320.65H449a15.58,15.58,0,0,0-3.39.49c-6,1.53-12,3.4-18.27,3.62a3.92,3.92,0,0,0-1.32.58c.54.33,1.06.91,1.63,1a93.07,93.07,0,0,0,9.72.61c3.57-.06,7.15-.26,10.71-.24C448.74,324.66,449.4,322.65,450.08,320.65Z" style="fill:#b0a79c"/><path d="M390.44,303c1.24,3,.46,6.14,1,9.18.12.65-.53,1.48-.92,2.18-1.68,3-1.59,3.23,1.76,5a7.88,7.88,0,0,1,1.62,1.64l-7.4,1c-3.05-4.71-1.18-10.08-2.23-14.95C386.37,305.3,387.6,303,390.44,303Z" style="fill:#b0a79c"/><path d="M395.66,321c1.84-1.61,1.86-1.61,4.09-.27C398.45,321.74,397.06,321.43,395.66,321Z" style="fill:#b0a79c"/><path d="M401.63,320.6c1.4-1.52,1.41-1.52,3.12-.31A3.22,3.22,0,0,1,401.63,320.6Z" style="fill:#b0a79c"/><path d="M407.28,325.76a1.49,1.49,0,0,1-1.69,1.2Z" style="fill:#b0a79c"/><path d="M410.25,324.44l-1.08.2Z" style="fill:#b0a79c"/><path d="M275.3,268.47l-1.67.6Z" style="fill:#cfc6b9"/><path d="M325.74,268.26l-1,0Z" style="fill:#cfc6b9"/><path d="M322.74,268.19l-1.63.47Z" style="fill:#cfc6b9"/><path d="M151.87,190.24a6.34,6.34,0,0,0-4,3.38,2,2,0,0,1-2.54.85,2.35,2.35,0,0,1-1.84-2.06,63.39,63.39,0,0,1-.42-7.78,13.57,13.57,0,0,1,1.18-4.13c.51-1.36,1.19-2.65,1.79-4a4,4,0,0,0-1.33-5.22,47.75,47.75,0,0,1-6.46-5.91,11,11,0,0,0-4.31-2.12c-.54-.17-1.38.57-2.08.89l-1.57-.37a9.84,9.84,0,0,0-2.5-1.35,12.41,12.41,0,0,0-7.22.52c-2.55,1-4.86.47-6.39-2a3.68,3.68,0,0,0-2.55-2.09,7.18,7.18,0,0,0-4.23-5c.29-1.56-.08-3.31,1.29-4.56,2.09-.29,4.17-.56,6.23-.89a2.36,2.36,0,0,0,2-2.41l1.94-.67a1.79,1.79,0,0,0,2.42,1c2-.74,3.72-1.9,5.91-2.1.7-.06,1.51-1.14,1.87-1.94a9.84,9.84,0,0,0,.36-2.86l5.59-4.94c.33-.37.66-.75,1-1.13l.57-.84c3.75.09,4,0,5.14-3a49,49,0,0,0,1.24-5.19c.67-2.67,2.54-3.78,5.09-2.86,1.67.59,3.21,1.53,4.85,2.19a10.63,10.63,0,0,0,2.34.43l-.15.21c-.25,1.44-.49,2.89-.77,4.34a6.39,6.39,0,0,0,1.81,5.84,17,17,0,0,1,3.9,6.18,3.47,3.47,0,0,0,3.34,2.45l2,.1,4.78,5.18A8.3,8.3,0,0,0,171,150c1.85,2.26,3.6,2.51,5.81.85a7.19,7.19,0,0,0,3.11-4.42l-1.49-.93c0-1.28,0-2.57,0-3.85.94-.25,1.89-.45,2.81-.78,3.37-1.2,5.81.23,6.08,3.83a15.47,15.47,0,0,0,1.41,5.14c.83,1.91,1.21,4,2.09,5.92,1.23,2.64,2.84,5,3.29,8.06.41,2.81,3,4.57,4.4,6.94a34,34,0,0,1,3.89-1.08,3,3,0,0,1,3.49,2,6.14,6.14,0,0,1,.43,1.4,3.33,3.33,0,0,0,3.33,3,14.32,14.32,0,0,1,6,1.9c1,.54,2.34.52,4,.86-1.2,1.35-2.09,2.26-2.88,3.26-.92,1.16-1.8,2.43-1.63,4,.44,4,.82,8.11,1.58,12.09a6.88,6.88,0,0,1-.36,4.7,23.82,23.82,0,0,1-1.46,3.1c-.51.75-1.37,1.72-2.11,1.76-2.22.1-3.56,1.34-5,2.77a2.19,2.19,0,0,1-2.14.21,2.78,2.78,0,0,1-.54-2.14,10.93,10.93,0,0,1,.8-2.31,5.94,5.94,0,0,0-.17-4.31,21.6,21.6,0,0,1-2.05-6,3.89,3.89,0,0,0-1.73-2.24,4.18,4.18,0,0,0-2.28-.16,1.24,1.24,0,0,0-.78.55c-2,3-4.61,2.54-7.4,1.56-1.38-.48-2.77-.92-4.29-1.42a16.8,16.8,0,0,0-1.15-3.68c-1.24-2.14-.69-3.66,1.05-5.14a8.27,8.27,0,0,0,1.32-2c-1-2.23-4.74-1.94-3.77-5.29-1.22-.11-1.84-.21-2.46-.22-3-.05-3.07-.12-3.72-2.66a10.42,10.42,0,0,0-.44-1.89,1.61,1.61,0,0,0-2-1c-3.12,1.15-6,2.55-6.65,6.36a45.32,45.32,0,0,0-10.53,4.74,8.05,8.05,0,0,1-2.59,1.25C153.33,185.44,152,187.31,151.87,190.24ZM174.52,163a5.37,5.37,0,0,0-.52-1.68,2.86,2.86,0,0,0-1.45-1c-.3-.06-.82.42-1.09.78a3.26,3.26,0,0,0-.47,1.32c-.18,1.11.57,2.16,1.48,1.9A8,8,0,0,0,174.52,163Z" style="fill:#cfc6b9"/><path d="M50,247.93a7.78,7.78,0,0,1-4.78-1.47,4.72,4.72,0,0,0-3.14-4.59c-4.12-1.65-5.39-5.9-8.3-8.64-1.6-1.51-2.43-3.82-3.59-5.79a3,3,0,0,1-.55-1.35,23.3,23.3,0,0,0-1.22-6.72,1.57,1.57,0,0,1,1.6-2c1.47,0,2.94.09,4.41.15.41.2.81.41,1.21.62.18,1.68,1.45,2.45,2.72,3.21.86,1.35,2.23,1.28,3.52,1.14A5.34,5.34,0,0,0,45.94,220a14.87,14.87,0,0,0,2.38-5.31,26.84,26.84,0,0,0-3.53-17A4.93,4.93,0,0,0,39.46,195c-.39-.78-.9-1.41-1.88-1.19a7.71,7.71,0,0,0-5,2.87c-1.3,1.88-2.56,3.79-3.83,5.68-.35.51-.54,1.26-1.57.91-.36-1.14-.83-2.33-1.11-3.57-1-4.55-1.46-9,2-12.88a5.5,5.5,0,0,0,1.27-3.07,8.27,8.27,0,0,0-.63-3.77,4.36,4.36,0,0,1,.68-5,10.15,10.15,0,0,0,2-3.34c.82-2.7,2.42-5,3.64-7.45a8.69,8.69,0,0,1,5.32-4.66c4.79-1.65,7.71-6,12-8.5a11.09,11.09,0,0,0,2.24-2.54l2-.48c.22.8.61,1.64,1.54,1.49,2.48-.4,5-.89,7.39-1.5.45-.11.73-.94,1.09-1.44l1.74-.19c1,1.72,2.6,1.62,4.27,1.26,2.76-.59,5-.12,6.59,2.61.86,1.55,2.53,1.93,4.23,1.79a27.52,27.52,0,0,1,3.35-.39,11,11,0,0,1,2.71.87c-.45,1.82-.83,3.35-1.22,4.89a6.08,6.08,0,0,1-1.17.88,110.92,110.92,0,0,0-19.63,11.15A10,10,0,0,1,63,171.21a46.4,46.4,0,0,1-9.77.42,11.43,11.43,0,0,0-10.59,4.58c0,1.9,1.2,2.88,2.27,3.84a25.71,25.71,0,0,1,7.77,13.4c.28,1.1.71,2.17,1.07,3.26a2.72,2.72,0,0,0,.3,2.91c0,1.37.07,2.74.11,4.11-.4,2.4-.89,4.79-1.16,7.2a21.52,21.52,0,0,0,0,4.88c.24,2.07,1.84,2.65,3.93,1.58.28-.14.55-.34.83-.51a3,3,0,0,0,2.93-1.39c1.21-2.13,2.47-4.23,3.57-6.42.79-1.59,1.62-3.18,1.07-5.14a3.35,3.35,0,0,1,1.23-3.53,10.41,10.41,0,0,0,3.27-5.9,26.84,26.84,0,0,1,3.5-8,21.37,21.37,0,0,0,1.54-3.06c1.9-4.66,4.47-8.63,9.65-10.28a16,16,0,0,0,4.75-2.5c3.19-2.45,6.67-1.52,10.45-1.63,0,2.46-.09,4.55-.12,6.65l0,0A3.34,3.34,0,0,0,96.15,177c-1.69,2.17-3.75,4-5,6.56a27,27,0,0,1-4.88,6.69,38.73,38.73,0,0,0-5.35,7.55c-1.41,2.39-2.59,4.92-4.13,7.21-1.71,2.53-2.79,5.11-2,7.9A6.16,6.16,0,0,1,74,214a8.51,8.51,0,0,0-3.64,6.57,12.86,12.86,0,0,1-3.59,7.36c-2.27,2.51-3.51,5.39-4.85,8.37-1.51,3.37-3.06,6.91-6.75,8.63-1.16.54-2.47.75-3.6,1.34C50.88,246.56,50.48,247.34,50,247.93Z" style="fill:#cfc6b9"/><path d="M54.57,148.5A11.09,11.09,0,0,1,52.33,151c-4.25,2.48-7.17,6.85-12,8.5a8.69,8.69,0,0,0-5.32,4.66c-1.22,2.48-2.82,4.75-3.64,7.45a10.15,10.15,0,0,1-2,3.34,4.36,4.36,0,0,0-.68,5,8.27,8.27,0,0,1,.63,3.77,5.5,5.5,0,0,1-1.27,3.07c-3.47,3.9-3.05,8.33-2,12.88.28,1.24.75,2.43,1.11,3.57,1,.35,1.22-.4,1.57-.91,1.27-1.89,2.53-3.8,3.83-5.68a7.71,7.71,0,0,1,5-2.87c1-.22,1.49.41,1.88,1.19a10.93,10.93,0,0,1-1.69,1c-2.54.93-3.78,2.91-4.51,5.36a19.11,19.11,0,0,0-.4,10.09c.5,2.05,1,4.09,1.55,6.13-1.47-.06-2.94-.17-4.41-.15a1.57,1.57,0,0,0-1.6,2,23.3,23.3,0,0,1,1.22,6.72,3,3,0,0,0,.55,1.35c1.16,2,2,4.28,3.59,5.79,2.91,2.74,4.18,7,8.3,8.64a4.72,4.72,0,0,1,3.14,4.59c-5.66-2-9.58-6.09-13-10.78-6.55-9.09-8.74-19.47-9.09-30.48a93.17,93.17,0,0,1,5.28-33.66c2.23-6.44,5.76-12.12,11.35-16.22A59.88,59.88,0,0,1,47,151.16c1.58-.85,3.25-1.49,4.89-2.22Z" style="fill:#cfc7bd"/><path d="M88.31,157.41c.39-1.54.77-3.07,1.22-4.89a11,11,0,0,0-2.71-.87,27.52,27.52,0,0,0-3.35.39c-1.7.14-3.37-.24-4.23-1.79-1.54-2.73-3.83-3.2-6.59-2.61-1.67.36-3.23.46-4.27-1.26a74,74,0,0,1,8.23-.68c6.51.18,13,.36,19.5,1,7,.73,14,1,20.84-.79a2.36,2.36,0,0,1-2,2.41c-2.06.33-4.14.6-6.23.89-1.37,1.25-1,3-1.29,4.55-1.14-.13-2.28-.2-3.4-.41a16.34,16.34,0,0,0-11.75,2.2A36.82,36.82,0,0,1,88.31,157.41Z" style="fill:#cfc7bd"/><path d="M155.25,124a10.63,10.63,0,0,1-2.34-.43c-1.64-.66-3.18-1.6-4.85-2.19-2.55-.92-4.42.19-5.09,2.86a49,49,0,0,1-1.24,5.19c-1.13,3.06-1.39,3.11-5.14,3q1.13-1.87,2.26-3.75c2.62-4.35,3.16-8.92.71-13.43-2-3.69-4.49-7.13-6.76-10.68q-1.31-2-2.59-4.1l.22-.17a13.17,13.17,0,0,0,3.3-.56A8,8,0,0,1,138,99.1c.68,2,1,4.17,2.09,6,3.06,5.2,6.33,10.28,11.15,14.12C152.92,120.49,154.63,121.78,155.25,124Z" style="fill:#cfc7bd"/><path d="M130.21,100.46c-2.63-3.7-5.29-7.39-7.88-11.12-.84-1.19-1.45-2.54-2.26-3.77-5.26-8-3-21.87,3.91-26.79l.45.5c-.44,3.72-.42,7.51-2.28,11a7.39,7.39,0,0,0,.64,8.68c1.32,1.76,2.64,3.83,2.08,6.34-.67,3,.38,5.31,2.34,7.58,1.8,2.08,3.4,4.44,3.22,7.46Z" style="fill:#cfc7bd"/><path d="M129.45,139.33a9.84,9.84,0,0,1-.36,2.86c-.36.8-1.17,1.88-1.87,1.94-2.19.2-4,1.36-5.91,2.1a1.79,1.79,0,0,1-2.42-1Z" style="fill:#cfc7bd"/><path d="M66.64,146.57c-.36.5-.64,1.33-1.09,1.44-2.44.61-4.91,1.1-7.39,1.5-.93.15-1.32-.69-1.54-1.49l5.12-1.22,2.13-.33Z" style="fill:#cfc7bd"/><path d="M186.26,62.34a1.65,1.65,0,0,1-1.14-2.28l1.45.22Z" style="fill:#706578"/><path d="M63.87,146.47l-2.13.33Z" style="fill:#706578"/><path d="M136,133.26c-.32.38-.65.76-1,1.13C135.37,134,135.7,133.64,136,133.26Z" style="fill:#cfc7bd"/><path d="M99.6,175.64c0-2.1.07-4.19.12-6.65-3.78.11-7.26-.82-10.45,1.63a16,16,0,0,1-4.75,2.5c-5.18,1.65-7.75,5.62-9.65,10.28a21.37,21.37,0,0,1-1.54,3.06,26.84,26.84,0,0,0-3.5,8,10.41,10.41,0,0,1-3.27,5.9,3.35,3.35,0,0,0-1.23,3.53c.55,2-.28,3.55-1.07,5.14-1.1,2.19-2.36,4.29-3.57,6.42a3,3,0,0,1-2.93,1.39c1.3-6.43,4-12.33,6.79-18.23s5.26-11.87,7.87-17.81c3.38-7.06,9.06-11.22,16.43-13.51A106,106,0,0,1,105,163.77c3.16-.47,5.55-1.77,6.64-4.93a3.68,3.68,0,0,1,2.55,2.09c1.53,2.51,3.84,3,6.39,2a12.41,12.41,0,0,1,7.22-.52,9.84,9.84,0,0,1,2.5,1.35c-10.48,0-19.91,3-28,9.89C101.51,174.42,100.52,175,99.6,175.64Z" style="fill:#cfc7bd"/><path d="M50,247.93c.5-.59.9-1.37,1.54-1.7,1.13-.59,2.44-.8,3.6-1.34,3.69-1.72,5.24-5.26,6.75-8.63,1.34-3,2.58-5.86,4.85-8.37a12.86,12.86,0,0,0,3.59-7.36A8.51,8.51,0,0,1,74,214a6.16,6.16,0,0,0,.79-1.09c-.77-2.79.31-5.37,2-7.9,1.54-2.29,2.72-4.82,4.13-7.21a38.73,38.73,0,0,1,5.35-7.55,27,27,0,0,0,4.88-6.69c1.28-2.58,3.34-4.39,5-6.56a3.34,3.34,0,0,1,3.49-1.29c-1.23,1.72-2.45,3.44-3.69,5.15q-3,4.16-6,8.3C82,199.86,76.83,212,72,224.38a74.2,74.2,0,0,1-8.66,16.41,24.63,24.63,0,0,1-4.71,4.91A9.79,9.79,0,0,1,50,247.93Z" style="fill:#cfc7bd"/><path d="M130.43,100.29c.18-3-1.42-5.38-3.22-7.46-2-2.27-3-4.59-2.34-7.58.56-2.51-.76-4.58-2.08-6.34a7.39,7.39,0,0,1-.64-8.68c1.86-3.44,1.84-7.23,2.28-11a10.34,10.34,0,0,0,5.75-2.49c3.39-2.54,6.88-4.95,10.42-7.49A10.34,10.34,0,0,0,150.8,48a3.93,3.93,0,0,1,2.29-.71c5.07.21,10.17.38,14.59,3.41a5.22,5.22,0,0,1,1.19.85,26.68,26.68,0,0,0,6.36,5.33c2.31,1.54,2.4,2.63,1,5.31a7.2,7.2,0,0,0-.41,1.16c.47,2.79,3.22,2.7,4.94,4.27-.37.71-.55,1.8-1.07,2-2.26.82-3.74,2.5-5.33,4.14a8.83,8.83,0,0,1-6.24,2.47,5.78,5.78,0,0,1-4.5-1.59c-1.27-1.26-2.62-2.45-3.88-3.72-.92-.92-1.69-2-2.66-2.88-.74-.67-1.51-.26-2.09.44a5.76,5.76,0,0,0-3.65-1.5c-.18-.59-.35-1.18-.53-1.78a28.77,28.77,0,0,0-8.39,6c-3,2.92-4.64,6.63-6.52,10.21-2.08,4-1.66,7.64,2.8,9.9,2,1,2.16,2.66,1.95,4.54-1.81.35-2,2-2.65,3.28a8,8,0,0,0-4.29.63A13.17,13.17,0,0,1,130.43,100.29Zm37.21-36.74c-2.18-1.59-3.56-1.65-4.91-.8a1.38,1.38,0,0,0-.53,1.2,1.33,1.33,0,0,0,1.07.73C164.48,64.47,165.66,64.08,167.64,63.55Z" style="fill:#cfc6b9"/><path d="M427.82,268.59a32.29,32.29,0,0,0,9.33-14.19,18.74,18.74,0,0,0,.06-12,44.94,44.94,0,0,0-13.3-20.88,43.73,43.73,0,0,1-3.22-3,11.76,11.76,0,0,0-5.62-3.78,5.52,5.52,0,0,1-2.45-1.52,3.59,3.59,0,0,1-.78-2.17c0-.71,1.52-1.59,2.35-1.34a40,40,0,0,1,6,2,54.57,54.57,0,0,0,29.08,5.45c2.09-.2,4.19.14,6.28-.8s2.48-.52,3.93,2.49c-.53.66-1.17,1.38-1.71,2.17a24.28,24.28,0,0,0-4.24,10.36A98.93,98.93,0,0,0,452.46,248a78.16,78.16,0,0,1-1.25,16.15c-.7,3.87-2.93,6.89-5.15,9.93a2.07,2.07,0,0,1-3.06.35,9.38,9.38,0,0,1-3.54-4.59c-.32-1.06-.62-2.13-.89-3.07a1.4,1.4,0,0,0-2,1.15,42.25,42.25,0,0,0-1.06,5.78,24.21,24.21,0,0,1-5.4,13.47c-1.55,1.9-2.74,4.08-4.2,6.06-2.33,3.16-2.37,3.13-6.7,2.68-1.19,4.54-4.07,8-7.59,11.06a9.92,9.92,0,0,1-5.19,2.63,2.49,2.49,0,0,1-3.12-2.77,14.13,14.13,0,0,1,2.21-7.45c1.12-1.81,2.29-3.59,3.43-5.39,1.84-2.27,3.73-4.52,5.52-6.83,2.1-2.7,4.17-5.43,6.14-8.22C423.05,275.54,425.93,272.4,427.82,268.59Zm11.9-11c3.07,2.82,3.06,2.82,3,6.42a28.14,28.14,0,0,0,.15,3.9,2,2,0,0,0,1.08,1.41,2.06,2.06,0,0,0,1.66-.64,10.08,10.08,0,0,0,2.3-5.84c.49-5.37.87-10.75,1.19-16.13.15-2.44,0-4.9.09-7.35.27-5.07.65-10.12,2.91-14.82a12.93,12.93,0,0,0,.65-2.78c-1.64-1.48-3.48-1-5.24-1a31,31,0,0,1-5.36.07c-4.52-.69-9-1.64-13.5-2.47a15.25,15.25,0,0,0-1.67-.13c0,.51-.1.72,0,.82.58.78,1.15,1.58,1.8,2.3,4.21,4.62,8,9.49,9.84,15.62.28.93.91,1.75,1.26,2.66,1.57,4,2.48,8.1,1.15,12.42C440.47,253.91,440.13,255.83,439.72,257.55Zm-14.93,31.87c1.56-2.24,3-4.18,4.32-6.24a19.73,19.73,0,0,0,3.12-10.64c0-.76.17-1.65-1-2.08a7.5,7.5,0,0,0-1.43,1.12q-5.82,7.51-11.55,15.1c-.14.18,0,.59,0,.9C422.11,287.64,422.11,287.64,424.79,289.42Zm-9.9,3.16c-2.38,2-6.53,7.72-7.44,10.47a7.6,7.6,0,0,0,0,2.34C413.86,301.84,415.71,298.55,414.89,292.58Z" style="fill:#5d536c"/><path d="M138,99.1c.68-1.26.84-2.93,2.65-3.28a20.94,20.94,0,0,0,8.16,6c5.2,2.13,9.66.47,12.46-4.39a30.83,30.83,0,0,0,4-11c.18-1.27.51-2.52.76-3.77,3.26.49,4.25,1.26,3.67,3.38-1.67,6.1-.67,12.33-1.21,18.48-.22,2.43-.36,4.87-.53,7.3-.24,1-.47,1.92-.7,2.88A16.52,16.52,0,0,0,171.5,130c3.15,3.39,5.09,7.45,6.92,11.59,0,1.28,0,2.57,0,3.85-2.54,1.59-4.93,3.65-8.29,2.79l-4.78-5.18c-3-5.86-5.92-11.73-8.92-17.57a6.43,6.43,0,0,0-1.32-1.34l.15-.21c-.62-2.19-2.33-3.48-4-4.8-4.82-3.84-8.09-8.92-11.15-14.12C139.06,103.27,138.7,101.1,138,99.1Zm6.94,5.64c0,1-.08,1.41.07,1.63,2.51,3.62,5,7.24,8.36,10.18s6.28,6.26,7.72,10.57c1.74,5.18,4.71,9.69,7.46,14.32a12,12,0,0,0,2.6,2.87,2.07,2.07,0,0,0,1.82.16,2,2,0,0,0,1-1.53,13.92,13.92,0,0,0-.84-3.77,25,25,0,0,0-5-7.79c-3.7-4.12-5-9.1-4.71-14.52.14-2.43.73-4.84,1-7.27q.47-3.89.73-7.78a8.56,8.56,0,0,0-.63-2.21c-1.14,1.11-2,1.82-2.68,2.63-3.51,4-7.79,5.1-12.84,3.53C147.78,105.38,146.53,105.13,145,104.74Z" style="fill:#4a435b"/><path d="M476.53,83.07c-.16-1.38-.39-2.51-.41-3.64a1.93,1.93,0,0,1,3.12-1.62,4.91,4.91,0,0,1,1.51,1.81c.87,1.75,1.5,3.63,2.42,5.35a11.62,11.62,0,0,0,14.16,5.59,15.11,15.11,0,0,1,2.79-.84c.55-.07,1.49.21,1.67.6a4.08,4.08,0,0,1,.1,2.28,2.11,2.11,0,0,1-.9,1.12c-4.07,2.93-6.65,7.17-9.56,11.09a102.22,102.22,0,0,1-11.69,13.82,10.6,10.6,0,0,0-1.89,2.24c-3.32,5.61-7.39,10.8-9.57,17a9,9,0,0,1-.55,1.36c-.76,1.42-1.88,1.68-3.42.88a38.27,38.27,0,0,1,2.36-23.83,71.81,71.81,0,0,0,3.75-12.64c1-4.29,1.43-8.7,2.11-13.05.1-.65.14-1.31.24-1.95C473.27,85.51,473.34,85.42,476.53,83.07Zm-9.13,44.6,1,.27c.69-.88,1.39-1.75,2.08-2.64a94.46,94.46,0,0,1,6-7.73c6.1-6.41,11.25-13.56,16.36-20.74a6.77,6.77,0,0,0,.59-1.9c-1.32-.33-2.41-.64-3.52-.85a15.26,15.26,0,0,1-8-4.54c-.58-.58-1.07-1.23-1.63-1.83a1.83,1.83,0,0,0-2.42-.59,16.8,16.8,0,0,0-1.75,5.79,58.68,58.68,0,0,1-2.27,10.52c-1.39,4.68-2.1,9.55-4.12,14.07a52.41,52.41,0,0,0-2.37,8A8.06,8.06,0,0,0,467.4,127.67Z" style="fill:#4a435b"/><path d="M167.28,114.74c.23-1,.46-1.92.7-2.88,3-.45,4.2-2.69,4-5.25-.16-2.09.49-3.84.9-5.73a14.18,14.18,0,0,0,.55-3.79,6.47,6.47,0,0,1,1-4.18,6.15,6.15,0,0,0,.91-4.65,17.72,17.72,0,0,1,.17-4.87,2.2,2.2,0,0,1,3.61-1.6c3.4,2.25,5.34,6.77,4.06,10.65a17.45,17.45,0,0,0-.84,9.13,18.7,18.7,0,0,1-.07,3.42,6.47,6.47,0,0,0,.24,2.88c1.3,2.34,1,4.74.74,7.18-.41,3.38.19,6.83-.89,10.18a3.51,3.51,0,0,0,1.41,3.91,15.69,15.69,0,0,1,1.74,2.08c-.88.38-1.46.87-2,.8a18.18,18.18,0,0,1-4.21-1.06c-2.1-.87-4.1-2-6.15-3a4.27,4.27,0,0,1-2.58-4.34c.06-1.15.16-2.29.28-3.43C171.24,117.36,170.18,115.43,167.28,114.74Z" style="fill:#cfc6b9"/><path d="M269.38,106.06c-3.39-3.31-6.34-6.72-7.44-11.42a29.85,29.85,0,0,0-1.82-4,7.89,7.89,0,0,1-.72-2.78c0-2.54,1.5-3.36,3.83-2.15a25.2,25.2,0,0,0,9.29,2.91A9,9,0,0,0,279,86.9a18.46,18.46,0,0,0,6.17-6.84c1.4-3,3-5.82,4.49-8.71a7.2,7.2,0,0,0,.9-5.65,1.84,1.84,0,0,1,.85-2.5,2.86,2.86,0,0,1,3.17.6,5.67,5.67,0,0,1,.57.79,24.54,24.54,0,0,1,4.37,14.8c-.07,2.41-1.26,4.38-2.58,6.25s-2.65,3.32-4,5a16.59,16.59,0,0,0-2.35,3.14c-1.05,2.3-2.86,3.9-4.52,5.7C281.54,104.4,275.81,106.05,269.38,106.06Zm-3.56-14.73a5.47,5.47,0,0,0,.31,4.82q4,8.37,12.45,4.54a19.93,19.93,0,0,0,7.52-6.15c2.78-3.63,5.43-7.36,8-11.15,2.32-3.43,2.25-7.22-.08-11.6a20,20,0,0,0-4.28,5.84c-1.17,2.15-2.1,4.45-3.44,6.49-3.29,5-9,9.76-16.51,7.82C268.56,91.62,267.27,91.55,265.82,91.33Z" style="fill:#4a435b"/><path d="M177.05,206.9a10.73,10.73,0,0,0-2.82.39c-1.47.64-2.83,1.55-4.54,2.52a18.85,18.85,0,0,0-.78,8.81c.26,1.94.65,3.86.81,5.81a3.23,3.23,0,0,1-2.14,3.71,10.93,10.93,0,0,1-1.8-1.29,9.16,9.16,0,0,0-4.44-2.89c-2.51-.58-3.82-2.38-4.81-4.49a38.2,38.2,0,0,0-2.7-4.58,29.87,29.87,0,0,1-2.9-7.15,4.44,4.44,0,0,1,.44-2.82c.6-1.35,2-1.54,3.3-1.73l4.15.18c.33.71.48,1.72,1,2a2.39,2.39,0,0,0,2.21-.21c2-1.57,4.24-2.31,6.5-3.26,2.67-1.12,5-3,7.54-4.51a19.08,19.08,0,0,1,2.12-1.18,1.51,1.51,0,0,1,1.86,1.12,10.57,10.57,0,0,1,.07,1.95,4.15,4.15,0,0,0,1.25,3.57,4.19,4.19,0,0,1,1.12,3.61,2.58,2.58,0,0,1-2.64.7C179,207,178,207,177.05,206.9Z" style="fill:#cfc6b9"/><path d="M373.8,83.45c-5.17-.76-8.61-3.09-11-6.9a29.45,29.45,0,0,1-2.91-6.2,93.19,93.19,0,0,1-2.45-9.5,11.74,11.74,0,0,1-.06-3.88,2.31,2.31,0,0,1,3.68-1.67,12.71,12.71,0,0,1,2.47,2.34c1.6,1.85,3.1,3.8,4.7,5.66a7.91,7.91,0,0,0,8.36,2.7c4.63-1.06,8-3.48,9.72-8,.68-1.84,1.19-3.74,1.93-5.55.21-.52,1-1.2,1.41-1.16a2.65,2.65,0,0,1,1.95,1.09,6.7,6.7,0,0,1,.68,3.72c-1.06,4.62-1.9,9.39-3.76,13.7-2.29,5.27-5.86,9.85-11.21,12.58A18.53,18.53,0,0,1,373.8,83.45Zm11.81-18L383,67.13a16.51,16.51,0,0,1-10.74,2.49c-3.54-.31-5.79-2.7-7.8-5.38a13.54,13.54,0,0,0-1.88-1.68c-.3.73-.71,1.2-.62,1.55A66.73,66.73,0,0,0,364.57,73a10.92,10.92,0,0,0,6.13,6c2.47,1,4.8,1,6.87-.81a27.57,27.57,0,0,0,8.56-11.63C386.17,66.46,386,66.28,385.61,65.49Z" style="fill:#4a435b"/><path d="M305.62,180.62c-8.36,2.32-15.45,7.19-23.3,10.21a3.52,3.52,0,0,1-2.63-2.74c-2-6.6-3.31-13.31-2.54-20.25.08-.66.79-1.25,1.15-1.78.46.1.69.08.77.18,2.32,2.67,5.08,2.79,8.35,2a92.33,92.33,0,0,0,11.6-3.88,23.11,23.11,0,0,1,2.26-.9,1.55,1.55,0,0,1,2,.94,12.89,12.89,0,0,1,.87,3.78,39.92,39.92,0,0,0,1.74,11.07C306,179.48,305.79,179.83,305.62,180.62ZM280.55,174c.23,4-.18,8.22,2.56,12.11a38.14,38.14,0,0,0,3.81-1.2c3.46-1.49,6.89-3,10.31-4.61a7.44,7.44,0,0,0,2.11-1.21,4.77,4.77,0,0,0,1.61-2.29c.45-2.89.59-5.82-.67-8.49-.55-.11-.9-.3-1.17-.22q-8.46,2.48-16.91,5A12.81,12.81,0,0,0,280.55,174Z" style="fill:#4a435b"/><path d="M177.05,206.9c.95.1,1.9.14,2.84.3a2.58,2.58,0,0,0,2.64-.7c2.47-1.27,4.93-2.55,7.41-3.78a10.31,10.31,0,0,1,2.28-.87c2.44-.54,4.25.19,5.19,2.53,1.52,3.78,2.79,7.67,4.13,11.53.36,1.06.59,2.17.92,3.43a26,26,0,0,1-3.21,2.31c-6.42,3.26-12.93,6.29-20,7.76-2.28.47-3.44,0-4.3-2.11a14.64,14.64,0,0,1-.9-10.05C175,213.81,176,210.35,177.05,206.9Zm12.67,15.84c2.78-.6,4.95-2.39,7.32-3.78a2.1,2.1,0,0,0,.66-3,13.29,13.29,0,0,0-1.12-1.58c.37-3.48-.88-6.05-4.18-7.47-.41-.26-.84-.78-1.2-.73-2.8.34-5.36,1.13-6.31,4.24-1,.55-2,1.11-3,1.64a8.35,8.35,0,0,0-4.7,8.81c.32,2.63,2.07,4.09,4.66,3.8,1.13-.13,2.23-.44,3.34-.67l.1-.12,2.07-.43,1.26-.54Z" style="fill:#4a435b"/><path d="M158.82,203.37l-4.15-.18a14.91,14.91,0,0,1-2.48-8.16c-.11-1.6-.21-3.2-.32-4.79.12-2.93,1.46-4.8,4.46-5.43a8.05,8.05,0,0,0,2.59-1.25,45.32,45.32,0,0,1,10.53-4.74,28.5,28.5,0,0,1,3.86-.56c3,0,5.12,1.41,5.72,4.33a31.19,31.19,0,0,1,.53,7.29,5.21,5.21,0,0,1-1.56,2.91,10.36,10.36,0,0,1-3.12,2.34c-4.88,2.25-9.16,5.7-14.4,7.23A7,7,0,0,0,158.82,203.37Zm5.91-18.18a22.72,22.72,0,0,0-2.73,1c-5,2.6-7.39,4.78-5.52,11.6.24.56.35,1.44.75,1.6,1,.38,1.37-.53,1.76-1.26l2.36.06A10,10,0,0,0,167.9,195c2.19-.42,3.62-2.05,5.3-3.28,1.93-1.42,2.29-3.45,2.09-5.63a3.68,3.68,0,0,0-4.81-3.38,9.45,9.45,0,0,0-2.42,1.51Z" style="fill:#4a435b"/><path d="M285,137.26c-.12,1.3-.23,2.6-.37,3.9a10,10,0,0,1-3.61,6.73c-1.64,1.4-3.36,1.22-4.55-.55a5.1,5.1,0,0,1-.65-1.3q-1-3.27-2-6.56a10.21,10.21,0,0,1-.08-5.32,36.19,36.19,0,0,0,.62-12.66c-.47-4,.61-7.78,1-11.66.09-.91,1.45-1.39,2.39-1a7.2,7.2,0,0,1,3.79,4.25,12.21,12.21,0,0,0,.88,2.74c2.41,3.37,2.95,7.18,2.93,11.16,0,3.41,0,6.82,0,10.23Zm-5.14,6.66c.8-1.57,1.45-2.35,1.6-3.22a58.76,58.76,0,0,0,.51-16.64,17.64,17.64,0,0,0-1.66-5.07c-.26-.58-1.2-.86-2.26-1.56a16.29,16.29,0,0,0-.28,3.31,38.58,38.58,0,0,1-.44,11.25,30.07,30.07,0,0,0-.36,3.91A12.78,12.78,0,0,0,279.82,143.92Z" style="fill:#4a435b"/><path d="M347,187.36a60.54,60.54,0,0,0,1.79,17,8.73,8.73,0,0,1,.09,2.4c0,.29-.29.57-.47.89l-19.1,5.71c-1.44.44-2.87.85-4.12-.87,1-3.89,0-7.92-.2-12-.15-2.59-.09-5.21,0-7.81a2.1,2.1,0,0,1,2.23-2.15c2.75.29,5.08-.93,7.58-1.63,3-.85,6-1.55,9.05-2.13C344.68,186.68,345.66,187.12,347,187.36Zm-5.12,4.23a17,17,0,0,0-10.81,2.49A4.6,4.6,0,0,0,328.6,197c-.55,3.06-1.11,6.14-.14,9.23.57,1.85,1.22,2.55,3.12,2.52,4.32,0,8.46-.82,11.83-3.87a2,2,0,0,0,1.34-2.33,28.49,28.49,0,0,1-.27-7.32,6.51,6.51,0,0,0-.61-2.81A1.46,1.46,0,0,0,341.86,191.59Z" style="fill:#4a435b"/><path d="M307.19,213.86a3.77,3.77,0,0,1-2.65,2.82c-3.54,1.25-7.08,2.52-10.59,3.87-2.28.88-4.47,2-6.76,2.84a3,3,0,0,1-2.23-.29,1.86,1.86,0,0,1-.67-1.67c2.33-5.06.17-9.91-.59-14.82,0-.16-.1-.31-.12-.48-.24-1.38.11-2.32,1.39-2.78a48.56,48.56,0,0,1,7-2.18,16.9,16.9,0,0,0,6.78-2.64c2-1.42,3.8-.84,4.78,1.34a14.83,14.83,0,0,1,1.1,3.75c.48,3.07.71,6.19,2.34,9A3.54,3.54,0,0,1,307.19,213.86Zm-6.48-11.18c-3.52.88-7,1.65-10.37,2.63a3.31,3.31,0,0,0-2.22,3,16.38,16.38,0,0,0,.89,7.22c.6,1.9,1.91,2.59,3.79,1.82,3.14-1.29,6.21-2.75,9.42-4.19C302.07,209.6,302.15,206.21,300.71,202.68Z" style="fill:#4a435b"/><path d="M290.88,105.87l4.81-2.61c2.1.4,3.09,1.94,3.86,3.55a198.65,198.65,0,0,0,10.82,19.13,10,10,0,0,1,1.56,7,4.61,4.61,0,0,1-3.13,4,4.78,4.78,0,0,1-5.33-1.44c-4.54-5.06-8-10.65-9.55-17.39-.68-3-1.73-6-2.54-8.94A31.15,31.15,0,0,1,290.88,105.87Zm5.63,3.72-.93.31a7.2,7.2,0,0,0-.05,1.85,63.82,63.82,0,0,0,4.05,12.48,24.75,24.75,0,0,0,6.58,8.32,2.1,2.1,0,0,0,1.7.2c.29-.08.54-.79.57-1.23a8.83,8.83,0,0,0-1.62-5c-2.61-4.49-5.19-9-7.85-13.47C298.25,111.82,297.33,110.73,296.51,109.59Z" style="fill:#4a435b"/><path d="M223.48,190.85c1.15-1.57,1.82-2.49,2.5-3.39a2.31,2.31,0,0,1,3-1,6.21,6.21,0,0,0,4.31.05,4.45,4.45,0,0,1,1-.13c3.9-.24,7.77-.63,11.14-2.25a3.1,3.1,0,0,1,2.37,3.1,24.89,24.89,0,0,0,2,7.53c.66,1.53,1.12,3.12-.33,4.84a42.29,42.29,0,0,0-14.38,3.71c-1.49.65-2.87,1.54-4.35,2.22a2.61,2.61,0,0,1-4-2.08c-.4-2.25-.76-4.52-1-6.79S225.51,192.4,223.48,190.85Zm6.92,9.91a19.8,19.8,0,0,0,2.59-.42c2.35-.68,4.64-1.7,7-2.16,5.6-1.05,6.48-1.91,4.36-8-.09-.29-.39-.5-.73-.92-2.12-.74-4.39,0-6.62.26-8,.82-9.7,1.78-7.14,10.64C229.93,200.28,230.09,200.39,230.4,200.76Z" style="fill:#4a435b"/><path d="M370.56,86.68c.54.77,1.51,1.57,1.73,2.53,1.66,7.48,3.47,15,2.42,22.72-.33,2.42-.91,4.8-1.46,7.18-.7,3.06-3.09,4.5-5.73,5.53-2.26.87-5.18-1.59-5.11-4.45a35.57,35.57,0,0,1,.94-8.25,122.31,122.31,0,0,0,2.73-15.4c.28-2.1.71-4.18,1.14-6.26A4.12,4.12,0,0,1,370.56,86.68Zm-.84,9.89c-1.33,2.93-1.12,5.27-1.57,7.48s-.78,4.16-1.16,6.24c-.4,2.24-.82,4.48-1.17,6.74a7.05,7.05,0,0,0,.08,1.94,1.65,1.65,0,0,0,2.61,1.08,6,6,0,0,0,2.27-3.65,40.16,40.16,0,0,0,.39-17.92C371.05,98,370.49,97.55,369.72,96.57Z" style="fill:#4a435b"/><path d="M323.69,179.3a7.93,7.93,0,0,1-1.6-2.28c-1.39-5.05-.63-10.06.66-15a3.35,3.35,0,0,1,2.81-2.45c3.69-.69,7.37-1.43,11.08-2,2.74-.42,5.49-.55,8.16-1.55,2.11-.78,3.73.42,4.24,2.76.59,2.71,1.14,5.43,1.63,8.16.44,2.49-.32,3.72-2.64,4.49-.47.16-1,.19-1.44.33-3.76,1.07-7.56,2.06-11.28,3.28S328,177.72,323.69,179.3Zm9.52-17.59c-2.26.41-4.54.78-6.38,2.35l-1.73,1.68a3.13,3.13,0,0,0-1.25,2.94c.24,1.25.43,2.52.72,3.76s.72,1.42,3,1.23c2.62.3,5.28.47,7.5-1.28,2-1.6,4.39-2,6.81-2.4,3.35-.55,3.6-.88,4.29-4.75-.15-1.59,0-3.24-.95-4.77a6.21,6.21,0,0,0-1.93-.36C339.92,160.59,336.57,161.17,333.21,161.71Z" style="fill:#4a435b"/><path d="M235.43,241.9c-.94-3.84.67-8-2.7-10.83,1.83-3.43,4.27-5.2,8.15-5.5a22.81,22.81,0,0,0,10.65-3.37,9,9,0,0,1,1.75-.88,2.75,2.75,0,0,1,3.85,2.42c.08.81.05,1.63.1,2.45a12.13,12.13,0,0,0,2,5.46c1.06,1.78-.1,4.65-2,4.68-6.64.1-12.08,3.81-18.14,5.6a7.66,7.66,0,0,1-1.9.34A8.14,8.14,0,0,1,235.43,241.9Zm4-4.4a13.76,13.76,0,0,0,2.39-.34q4.38-1.42,8.72-3c3-1.08,3.71-2.23,3.5-5.52-.09-1.54-1.08-2.49-2.56-2.16-3,.65-6,1.41-8.95,2.24a11.49,11.49,0,0,0-2.57,1.35,3.28,3.28,0,0,0-1.7,2.79A5.83,5.83,0,0,0,239.42,237.5Z" style="fill:#4a435b"/><path d="M363,191.16c5.58-.49,10.32-3.37,15.19-5.92,2.17-1.14,3.73-.56,4.55,1.84a47.48,47.48,0,0,1,1.16,4.74c.6,2.54,1.16,5.08,1.77,7.62.46,1.91.09,2.7-1.78,3.33-1.7.57-3.46,1-5.13,1.59-2.6,1-5.12,2.12-7.71,3.11-2.8,1.07-3.54.79-5.25-1.77a20.66,20.66,0,0,1-3.43-13A6.08,6.08,0,0,1,363,191.16Zm9.84,11.76c1.7-.52,3.41-1,5.11-1.57a4.3,4.3,0,0,0,3.13-3.95,14.29,14.29,0,0,0-.53-4.77c-.51-1.85-1.8-2.37-3.79-2.08-3.19.45-5.62,2.46-8.22,4.06s-2.84,2.88-2,5.8a12.17,12.17,0,0,0,.8,1.77C369.83,204.58,369.83,204.58,372.83,202.92Z" style="fill:#4a435b"/><path d="M364.06,156.39c5.25-1.7,9.9-3.19,14.54-4.71,5.65-1.85,7-1.15,8.12,4.62.54,2.71.8,5.49,1.11,8.25a2.26,2.26,0,0,1-1.63,2.68c-5.31,1.62-10.62,3.2-15.94,4.79a13.94,13.94,0,0,1-1.91.45c-2,.25-3.11-.44-3.56-2.43a22.77,22.77,0,0,1-.87-7.27C364.12,160.68,364,158.56,364.06,156.39Zm4.67,3.36h0l-1.23,1.64c-.11,1.28-.3,2.56-.31,3.84,0,1.77.78,2.64,2.61,2.78a21.15,21.15,0,0,0,8.48-1.38c1.79-.6,3.83-.86,4.93-2.74.3-.37.76-.69.87-1.1.66-2.29-.22-4.45-.81-6.59a2.29,2.29,0,0,0-1.89-1.15c-3.31.34-6.84.11-9.48,2.79l-.25.14-1.84.89h0Z" style="fill:#4a435b"/><path d="M395.05,113.18c0,.32-.07.65-.09,1a4.4,4.4,0,0,1-3.34,4.33c-2.1.58-3.71-.26-5.15-1.92-3.79-4.37-5.52-9.56-6.34-15.12-.43-2.91-.56-5.84-1.65-8.63a2.34,2.34,0,0,1,.86-3,2.94,2.94,0,0,1,3.6.51,99,99,0,0,1,7.34,7.87A22,22,0,0,1,395.05,113.18Zm-4.12,1.62c1.88-4,.35-7-.5-10-1-3.45-3.2-5.83-6.52-7.84-1.22,4,.38,7.31,1.16,10.65C385.78,110.59,388.32,112.28,390.93,114.8Z" style="fill:#4a435b"/><path d="M416.7,164.68a3.64,3.64,0,0,1-1.34.32c-3.23-.51-6.47-1-9.67-1.67a4.85,4.85,0,0,0-4.19.61,6.56,6.56,0,0,1-1.55.69,2.19,2.19,0,0,1-1.52-2.91c.95-4,1.95-7.93,3.11-11.84.74-2.51,1.79-4.92,2.73-7.36a2.09,2.09,0,0,1,3.21-1,4.8,4.8,0,0,1,1,1,35.76,35.76,0,0,1,4.86,9.05c1,3.11,2.14,6.18,3.24,9.26C417,162,417.06,162,416.7,164.68Zm-8.25-4,0-.13a14,14,0,0,0,1.45.13c1.78,0,2.82-1.15,2.25-2.83a65.64,65.64,0,0,0-2.82-6.71,1.72,1.72,0,0,0-2.52-.58,8.4,8.4,0,0,0-3.76,5.47,3.32,3.32,0,0,0,2.06,3.94A26.32,26.32,0,0,0,408.45,160.67Z" style="fill:#4a435b"/><path d="M151.36,67a5.76,5.76,0,0,1,3.65,1.5c.71,4,1.57,8,2.09,12.08a10,10,0,0,1-4.29,9.83,6.08,6.08,0,0,1-8.1-.2,26.56,26.56,0,0,1-2.36-2.48l-3.55,1.47c.08-1.17-.11-2,.21-2.62,1.67-3,2.5-6.37,3.5-9.66.85-2.81,2-5.48,5.1-6.81C149,69.49,150.12,68.05,151.36,67Zm-1.29,5.93q-1.22,1.81-2.41,3.64c-.45.67-1.16,1.32-1.26,2a67.93,67.93,0,0,0-.76,8.29c0,1.92,1.41,3.55,2.68,3.7s3.12-1.27,3.76-2.76a9,9,0,0,0,.46-1.89,15.75,15.75,0,0,1,.42-2.41c1.32-3.51.46-6.7-1.24-9.81.75-.11,1.68-.06,1.66-1.16a1.82,1.82,0,0,0-.61-1.19c-.75-.64-1.49-.27-2.05.33A4.9,4.9,0,0,0,150.07,72.92Z" style="fill:#4a435b"/><path d="M385.34,43.28c-.38,7-7.43,10.64-12.92,7.09a10.67,10.67,0,0,1-4.51-11.55A59.36,59.36,0,0,1,370.62,32c1.51-3.62,4.86-4,8.11-4.42a2.88,2.88,0,0,1,1.77.7,8.31,8.31,0,0,1,2.88,3.88A32,32,0,0,1,385.34,43.28ZM377.15,32a22,22,0,0,0-2.43-.14A2.81,2.81,0,0,0,372,34.19c-.58,2.18.12,9,1.18,11a9.16,9.16,0,0,0,1.11,1.58,2.58,2.58,0,0,0,3.87.25,7.55,7.55,0,0,0,3-5.35c.19-1.93.33-3.87.48-5.81A4.47,4.47,0,0,0,380,31.06C379,30.22,378.28,30.47,377.15,32Z" style="fill:#4a435b"/><path d="M503.67,50.64c3-.39,4,2,4.59,4a17.14,17.14,0,0,1-.91,12,31.64,31.64,0,0,1-6.82,9.51c-3.06,3-6.62,2.68-9.18-.77-2.79-3.77-2.86-8-1.23-12.13a81.52,81.52,0,0,1,5.5-10.35,3,3,0,0,1,4.16-1.41c-1.22,1.67-2.61,3.19-2.72,5.49a10.24,10.24,0,0,1-1.18,3.11c-.61,1.48-1.25,2.95-1.88,4.42-.42.21-1.16.34-1.22.62a16.53,16.53,0,0,0-.68,4.78,5.62,5.62,0,0,0,4,5c-.14-1.18-.23-1.91-.32-2.64,1.41-1.17,3.07.2,4.38-.3l3.09-6c1.5.28,2.71-.31,3-1.75a48.91,48.91,0,0,0,.7-7.16c.05-1.49-1.18-1.71-2.41-1.62Z" style="fill:#4a435b"/><path d="M267.72,61.05c.4-1.88.79-3.3,1-4.75.31-2.14,1.11-3.56,3.52-4,1.15-.21,2.1-1.43,3.18-2.15,2.4-1.6,4.8-1.33,6.45,1,4.7,6.53,4,12.94-1.18,18.67a8.3,8.3,0,0,1-4.7,2.36c-3.82.53-7.49-.54-8-5.66C267.8,64.53,267.79,62.58,267.72,61.05Zm9.63-6.23-1.44.15c-4.94.54-5.6,1.16-6.47,6.15a6.51,6.51,0,0,0,.22,1.66c1.54.93,3.16,2,3.83,4a2.65,2.65,0,0,0,.57.78,3.56,3.56,0,0,0,5.52.37,5.51,5.51,0,0,0,1.62-5.34c-.41-2.72-1-5.44-3.08-7.51a9.36,9.36,0,0,0,1.64-.57c.07,0-.1-1-.36-1.1-.47-.23-1.27-.42-1.59-.17S277.49,54.27,277.35,54.82Z" style="fill:#5d536c"/><path d="M442.86,156.14c-.44,1.75-.91,4-1.58,6.18a8.24,8.24,0,0,1-3.51,4.57,6.43,6.43,0,0,1-8.45-1c-4.06-4.07-4.07-12.21-2.31-15.67,1-1.92,2.23-3.66,4.85-3.44a5.22,5.22,0,0,0,2.38-.36,4.7,4.7,0,0,1,4.61.67C442.62,149.46,443.52,151.31,442.86,156.14Zm-3.71.84a29,29,0,0,0,.26-2.93c0-2.35-1.34-3.59-3.72-3.53a4.61,4.61,0,0,0-4.57,3.1,13.07,13.07,0,0,0-.11,9.14,2.89,2.89,0,0,0,3.95,1.81c2-.89,3.61-2.27,3.9-4.65C439,158.94,439.05,158,439.15,157Z" style="fill:#4a435b"/><path d="M439.87,190.18a23.69,23.69,0,0,1-1.28,3.87,7.57,7.57,0,0,1-7.86,3.74c-2.83-.67-4.77-3.19-5-6.5A11.5,11.5,0,0,1,434,178.92a2.67,2.67,0,0,1,3.06,1A12,12,0,0,1,439.87,190.18Zm-3.78-.6a10.67,10.67,0,0,0-.44-2.39,2.18,2.18,0,0,0-1.44-1.12c-2.1-.36-5,2.47-4.76,4.49s1.36,3.55,2.67,3.65a4,4,0,0,0,3.75-3.22C436,190.68,436,190.35,436.09,189.58Z" style="fill:#4a435b"/><path d="M393.39,194.5c.41-.85.69-1.6,1.1-2.28a50.85,50.85,0,0,0,5.29-12.09,9.34,9.34,0,0,1,1-2.26,3,3,0,0,1,5.21-.36,7.69,7.69,0,0,1,.84,1.21c2.15,4,4.29,8,6.43,12a3.18,3.18,0,0,1-2.93,2.27,85,85,0,0,0-12.91,2.65A3.31,3.31,0,0,1,393.39,194.5Zm13.66-5.32a6.63,6.63,0,0,0-1.92-5.18,4.06,4.06,0,0,0-2.33-1.43c-1.07-.08-1.53,1-1.77,2-.16.64-.26,1.29-.44,1.91-1.33,4.53-.82,5.09,4,4.23a3.72,3.72,0,0,0,1.4-.38A6.43,6.43,0,0,0,407.05,189.18Z" style="fill:#4a435b"/><path d="M503.67,50.64l.81,4.75-1.26,10.53-3.09,6c-1.31.5-3-.87-4.38.3-1.34-2.42-1.42-5.13-1.75-7.79.63-1.47,1.27-2.94,1.88-4.42A10.24,10.24,0,0,0,497.06,57c.11-2.3,1.5-3.82,2.72-5.49Z" style="fill:#2f2e3a"/><path d="M461.35,195.49a9.51,9.51,0,0,1-1,1.67c-3.28,3.66-6.49,2.81-9.57-.39-1.91-2-1.43-5.86,1-7.85a17.47,17.47,0,0,1,5.05-2.84c2.92-1.07,5.55.82,5.81,3.95a15.22,15.22,0,0,1-.16,2.42A2.56,2.56,0,0,0,461.35,195.49Zm-4-6.7a4.16,4.16,0,0,0,.93,3.6c.25.32.94.69,1.17.57.49-.26,1.13-.84,1.12-1.28a5.18,5.18,0,0,0-.71-2.69A1.52,1.52,0,0,0,457.39,188.79Z" style="fill:#2f2e3a"/><path d="M463,164.72c0,2.71-2.37,4.51-4.79,6.18a3.17,3.17,0,0,1-4-.7c-2.69-2.65-2.36-8.16.7-10.34a16.51,16.51,0,0,1,3.88-2,3.05,3.05,0,0,1,4.09,2.32,5.32,5.32,0,0,1,.21,1.43C463.09,162.44,463,163.25,463,164.72Z" style="fill:#4a435b"/><path d="M427.82,268.59c-1.89,3.81-4.77,7-7.21,10.38-2,2.79-4,5.52-6.14,8.22-1.79,2.31-3.68,4.56-5.52,6.83l-3.6-.37a18.39,18.39,0,0,1,1.56-1.85,89.51,89.51,0,0,0,17.87-23.59,12.34,12.34,0,0,1,1.18-1.54C426.57,267.31,427.2,268,427.82,268.59Z" style="fill:#b0a79c"/><path d="M461.35,195.49a2.56,2.56,0,0,1,1.15-3C463.07,194.35,463.07,194.35,461.35,195.49Z" style="fill:#7d7285"/><path d="M154.41,96.28l.42.59a4.53,4.53,0,0,1-.69.28s-.24-.27-.21-.32A4.2,4.2,0,0,1,154.41,96.28Z" style="fill:#cfc6b9"/><path d="M397.81,218.54c1.08-.72,1.86.06,2.7.54Z" style="fill:#706578"/><path d="M111.67,158.84c-1.09,3.16-3.48,4.46-6.64,4.93a106,106,0,0,0-16.18,3.56c-7.37,2.29-13,6.45-16.43,13.51l-3.1.33c.59-1.66,1.19-3.32,1.78-5,.82-1,1.61-2,2.47-3A27.63,27.63,0,0,1,86,164.77c3.41-1.08,6.93-1.85,10.41-2.7,2.7-.66,5.43-1.15,8.11-1.86a14.66,14.66,0,0,0,2.85-1.7c-.72-.53-1.07-1-1.5-1.08-3.7-1.09-7.34-1.29-10.93.52-5,2.5-10,4.83-14.91,7.37-3.77,1.93-7.48,4-10.31,7.26a23,23,0,0,1-9.31,2.7c-1.46.1-2.93,0-4.39.06a56.24,56.24,0,0,0-5.81.54c-2,.33-2.5,1.5-1.4,3.08.65.93,1.41,1.79,2.07,2.71a26.68,26.68,0,0,1,4.93,11.07c.51,3,.71,6.13,1,9.19l-2.66,1.8c0-1.37-.07-2.74-.11-4.11a1.75,1.75,0,0,0-.3-2.91c-.36-1.09-.79-2.16-1.07-3.26a25.71,25.71,0,0,0-7.77-13.4c-1.07-1-2.28-1.94-2.27-3.84a11.43,11.43,0,0,1,10.59-4.58,46.4,46.4,0,0,0,9.77-.42,10,10,0,0,0,4.51-1.77,110.92,110.92,0,0,1,19.63-11.15,6.08,6.08,0,0,0,1.17-.88,36.82,36.82,0,0,0,4-1.83,16.34,16.34,0,0,1,11.75-2.2c1.12.21,2.26.28,3.4.41A7.21,7.21,0,0,1,111.67,158.84Z" style="fill:#4a435b"/><path d="M155.1,124.18a6.43,6.43,0,0,1,1.32,1.34c3,5.84,6,11.71,8.92,17.57l-2-.1a3.47,3.47,0,0,1-3.34-2.45,17,17,0,0,0-3.9-6.18,6.39,6.39,0,0,1-1.81-5.84C154.61,127.07,154.85,125.62,155.1,124.18Z" style="fill:#cfc7bd"/><path d="M170.12,148.27c3.36.86,5.75-1.2,8.29-2.79l1.49.93a7.19,7.19,0,0,1-3.11,4.42c-2.21,1.66-4,1.41-5.81-.85A8.3,8.3,0,0,1,170.12,148.27Z" style="fill:#cfc7bd"/><path d="M174.52,163a8,8,0,0,1-2.05,1.36c-.91.26-1.66-.79-1.48-1.9a3.26,3.26,0,0,1,.47-1.32c.27-.36.79-.84,1.09-.78a2.86,2.86,0,0,1,1.45,1A5.37,5.37,0,0,1,174.52,163Z" style="fill:#cfc7bd"/><path d="M34.41,217.54c-.52-2-1-4.08-1.55-6.13a19.11,19.11,0,0,1,.4-10.09c.73-2.45,2-4.43,4.51-5.36a10.93,10.93,0,0,0,1.69-1,4.93,4.93,0,0,1,5.33,2.72,26.84,26.84,0,0,1,3.53,17A14.87,14.87,0,0,1,45.94,220a5.34,5.34,0,0,1-4.08,2.47c-1.29.14-2.66.21-3.52-1.14,2.13-.08,4.29-.1,4.84-2.85l1.2-3c2.14-3.68,1.53-7.5.54-11.31-.36-1.42-.81-2.85-2.3-3.57h0l-.87-1.06v0c-.36-.61-.65-.43-.92.08a11.75,11.75,0,0,0-2.57,4c-1.41,3.51-1.23,7.25-1.93,10.86-.41.42-.67.85,0,1.31l0,0-.63,2.32C35.22,218,34.82,217.74,34.41,217.54Z" style="fill:#5d536c"/><path d="M54.16,203.73l2.66-1.8,1.07,1.48c.43-.34.78-.48.9-.73q4.74-9.93,9.46-19.89a14.17,14.17,0,0,1,1.07-1.62l3.1-.33c-2.61,5.94-5.08,11.95-7.87,17.81s-5.49,11.8-6.79,18.23c-.28.17-.55.37-.83.51-2.09,1.07-3.69.49-3.93-1.58a21.52,21.52,0,0,1,0-4.88C53.27,208.52,53.76,206.13,54.16,203.73Z" style="fill:#5d536c"/><path d="M43.18,218.52c-.55,2.75-2.71,2.77-4.84,2.85-1.27-.76-2.54-1.53-2.72-3.21l.63-2.32a5.13,5.13,0,0,1,1.71.75C39.41,218.11,41.24,218.42,43.18,218.52Z" style="fill:#2f2e3a"/><path d="M53.75,196.71a1.75,1.75,0,0,1,.3,2.91A2.72,2.72,0,0,1,53.75,196.71Z" style="fill:#5d536c"/><path d="M167.64,63.55c-2,.53-3.16.92-4.37,1.13A1.33,1.33,0,0,1,162.2,64a1.38,1.38,0,0,1,.53-1.2C164.08,61.9,165.46,62,167.64,63.55Z" style="fill:#cfc7bd"/><path d="M192.4,206.89c3.3,1.42,4.55,4,4.18,7.47a4.88,4.88,0,0,1-3.1,4.37c-1.7.76-3.39,1.85-3.76,4l-1.08.15-1.26.54-2.06.42-.11.13c-1.11.23-2.21.54-3.34.67-2.59.29-4.34-1.17-4.66-3.8a8.35,8.35,0,0,1,4.7-8.81c1-.53,2-1.09,3-1.64A12.57,12.57,0,0,0,192.4,206.89Z" style="fill:#a22818"/><path d="M189.72,222.74c.37-2.16,2.06-3.25,3.76-4a4.88,4.88,0,0,0,3.1-4.37,13.29,13.29,0,0,1,1.12,1.58,2.1,2.1,0,0,1-.66,3C194.67,220.35,192.5,222.14,189.72,222.74Z" style="fill:#7d7285"/><path d="M192.4,206.89a12.57,12.57,0,0,1-7.51,3.51c1-3.11,3.51-3.9,6.31-4.24C191.56,206.11,192,206.63,192.4,206.89Z" style="fill:#7d7285"/><path d="M187.38,223.43l1.26-.54Z" style="fill:#7d7285"/><path d="M185.21,224l.11-.13Z" style="fill:#7d7285"/><path d="M161.35,198.18l-2.36-.06-2.51-.34c-1.87-6.82.52-9,5.52-11.6a21.08,21.08,0,0,1,2.73-1,1.86,1.86,0,0,0,2.6,1.44c1.3-.38,1-1.43.73-2.4a9.45,9.45,0,0,1,2.42-1.51,3.68,3.68,0,0,1,4.81,3.38c.2,2.18-.16,4.21-2.09,5.63-1.68,1.23-3.11,2.86-5.3,3.28C165.09,194.78,162.44,194.88,161.35,198.18Z" style="fill:#a22818"/><path d="M161.35,198.18c1.09-3.3,3.74-3.4,6.55-3.16A10,10,0,0,1,161.35,198.18Z" style="fill:#7d7285"/><path d="M168.06,184.24c.29,1,.57,2-.73,2.4a1.86,1.86,0,0,1-2.6-1.44Z" style="fill:#b0a79c"/><path d="M156.48,197.78l2.51.34c-.39.73-.79,1.64-1.76,1.26C156.83,199.22,156.72,198.34,156.48,197.78Z" style="fill:#7d7285"/><path d="M343.41,204.89c-3.37,3.05-7.51,3.82-11.83,3.87-1.9,0-2.55-.67-3.12-2.52-1-3.09-.41-6.17.14-9.23a4.6,4.6,0,0,1,2.45-2.93,17,17,0,0,1,10.81-2.49c.88,4.23,1.74,8.47,1.41,12.84A1.42,1.42,0,0,0,343.41,204.89Z" style="fill:#a22818"/><path d="M343.41,204.89a1.42,1.42,0,0,1-.14-.46c.33-4.37-.53-8.61-1.41-12.84a1.46,1.46,0,0,1,2,.84,6.51,6.51,0,0,1,.61,2.81,28.49,28.49,0,0,0,.27,7.32A2,2,0,0,1,343.41,204.89Z" style="fill:#706578"/><path d="M346.17,165.24c-.69,3.87-.94,4.2-4.29,4.75-2.42.41-4.78.8-6.81,2.4-2.22,1.75-4.88,1.58-7.5,1.28-.16-.59-.13-1.42-.52-1.74a4.92,4.92,0,0,1-1.7-4.77,5.11,5.11,0,0,0-.25-1.42l1.73-1.68,3.63,1.59,2.53-3.54a16.7,16.7,0,0,0,8.16.15,3.39,3.39,0,0,1,4.05,1.9A5.16,5.16,0,0,0,346.17,165.24Z" style="fill:#a22818"/><path d="M346.17,165.24a5.16,5.16,0,0,1-1-1.08,3.39,3.39,0,0,0-4.05-1.9,16.7,16.7,0,0,1-8.16-.15l.22-.4c3.36-.54,6.71-1.12,10.08-1.6a6.21,6.21,0,0,1,1.93.36C346.13,162,346,163.65,346.17,165.24Z" style="fill:#b0a79c"/><path d="M325.1,165.74a5.11,5.11,0,0,1,.25,1.42,4.92,4.92,0,0,0,1.7,4.77c.39.32.36,1.15.52,1.74-2.28.19-2.69.05-3-1.23s-.48-2.51-.72-3.76A3.13,3.13,0,0,1,325.1,165.74Z" style="fill:#7d7285"/><path d="M333.21,161.71l-.22.4-2.53,3.54-3.63-1.59C328.67,162.49,331,162.12,333.21,161.71Z" style="fill:#7d7285"/><path d="M367.31,202.18a12.17,12.17,0,0,1-.8-1.77c-.82-2.92-.48-4.27,2-5.8s5-3.61,8.22-4.06c2-.29,3.28.23,3.79,2.08a14.29,14.29,0,0,1,.53,4.77,4.3,4.3,0,0,1-3.13,3.95c-1.7.54-3.41,1.05-5.11,1.57Z" style="fill:#a22818"/><path d="M367.31,202.18l5.52.74C369.83,204.58,369.83,204.58,367.31,202.18Z" style="fill:#b0a79c"/><path d="M383.19,163.88c-1.1,1.88-3.14,2.14-4.93,2.74a21.15,21.15,0,0,1-8.48,1.38c-1.83-.14-2.62-1-2.61-2.78,0-1.28.2-2.56.32-3.84.41-.54.81-1.09,1.22-1.64h0l1.08-.9h0l1.84-.89.25-.14c2.7-.22,5.4-.46,8.11-.66a2.43,2.43,0,0,1,2.87,2.46C383,161,383.08,162.46,383.19,163.88Z" style="fill:#a22818"/><path d="M383.19,163.88c-.11-1.42-.19-2.84-.33-4.25a2.43,2.43,0,0,0-2.87-2.46c-2.71.2-5.41.44-8.11.66,2.64-2.68,6.17-2.45,9.48-2.79a2.29,2.29,0,0,1,1.89,1.15c.59,2.14,1.47,4.3.81,6.59C384,163.19,383.49,163.51,383.19,163.88Z" style="fill:#7d7285"/><path d="M371.63,158l-1.84.89Z" style="fill:#7d7285"/><path d="M368.71,159.74c-.41.55-.81,1.1-1.22,1.64Z" style="fill:#7d7285"/><path d="M369.81,158.85l-1.08.9Z" style="fill:#7d7285"/><path d="M408.45,160.67a26.32,26.32,0,0,1-3.31-.71,3.32,3.32,0,0,1-2.06-3.94,8.4,8.4,0,0,1,3.76-5.47,1.72,1.72,0,0,1,2.52.58,65.64,65.64,0,0,1,2.82,6.71c.57,1.68-.47,2.84-2.25,2.83a14,14,0,0,1-1.45-.13Z" style="fill:#a22818"/><path d="M151.72,73.72c1.7,3.11,2.56,6.3,1.24,9.81a15.75,15.75,0,0,0-.42,2.41,9,9,0,0,1-.46,1.89c-.64,1.49-2.62,2.89-3.76,2.76s-2.71-1.78-2.68-3.7a67.93,67.93,0,0,1,.76-8.29c.1-.72.81-1.37,1.26-2q1.2-1.83,2.41-3.64Z" style="fill:#2f2e3a"/><path d="M151.72,73.72l-1.65-.8a4.9,4.9,0,0,1,.65-1.22c.56-.6,1.3-1,2.05-.33a1.82,1.82,0,0,1,.61,1.19C153.4,73.66,152.47,73.61,151.72,73.72Z" style="fill:#b0a79c"/><path d="M381.6,35.81c-.15,1.94-.29,3.88-.48,5.81a7.55,7.55,0,0,1-3,5.35,2.58,2.58,0,0,1-3.87-.25,9.16,9.16,0,0,1-1.11-1.58c-1.06-2-1.76-8.77-1.18-11a2.81,2.81,0,0,1,2.76-2.29,22,22,0,0,1,2.43.14Z" style="fill:#2f2e3a"/><path d="M381.6,35.81,377.15,32c1.13-1.57,1.89-1.82,2.89-1A4.47,4.47,0,0,1,381.6,35.81Z" style="fill:#7d7285"/><path d="M503.22,65.92l1.26-10.53c1.23-.09,2.46.13,2.41,1.62a48.91,48.91,0,0,1-.7,7.16C505.93,65.61,504.72,66.2,503.22,65.92Z" style="fill:#7d7285"/><path d="M494,64.48c.33,2.66.41,5.37,1.75,7.79.09.73.18,1.46.32,2.64a5.62,5.62,0,0,1-4-5,16.53,16.53,0,0,1,.68-4.78C492.84,64.82,493.58,64.69,494,64.48Z" style="fill:#7d7285"/><path d="M278.12,55.06c2.06,2.07,2.67,4.79,3.08,7.51a5.51,5.51,0,0,1-1.62,5.34,3.56,3.56,0,0,1-5.52-.37,2.65,2.65,0,0,1-.57-.78c-.67-2-2.29-3.05-3.83-4a6.51,6.51,0,0,1-.22-1.66c.87-5,1.53-5.61,6.47-6.15l1.44-.15A1.32,1.32,0,0,1,278.12,55.06Z" style="fill:#2f2e3a"/><path d="M278.12,55.06a1.32,1.32,0,0,0-.77-.24c.14-.55.1-1.33.46-1.6s1.12-.06,1.59.17c.26.13.43,1.06.36,1.1A9.36,9.36,0,0,1,278.12,55.06Z" style="fill:#cfc7bd"/><path d="M439.15,157c-.1,1-.17,2-.29,2.94-.29,2.38-1.86,3.76-3.9,4.65a2.89,2.89,0,0,1-3.95-1.81,13.07,13.07,0,0,1,.11-9.14,4.61,4.61,0,0,1,4.57-3.1c2.38-.06,3.72,1.18,3.72,3.53A29,29,0,0,1,439.15,157Z" style="fill:#a22818"/><path d="M436.09,189.58c-.12.77-.14,1.1-.22,1.41a4,4,0,0,1-3.75,3.22c-1.31-.1-2.43-1.63-2.67-3.65s2.66-4.85,4.76-4.49a2.18,2.18,0,0,1,1.44,1.12A10.67,10.67,0,0,1,436.09,189.58Z" style="fill:#a22818"/><path d="M407.05,189.18a6.43,6.43,0,0,1-1.11,1.16,3.72,3.72,0,0,1-1.4.38c-4.77.86-5.28.3-4-4.23.18-.62.28-1.27.44-1.91.24-1,.7-2.09,1.77-2a4.06,4.06,0,0,1,2.33,1.43A6.63,6.63,0,0,1,407.05,189.18Z" style="fill:#a22818"/><path d="M457.39,188.79a1.52,1.52,0,0,1,2.51.2,5.18,5.18,0,0,1,.71,2.69c0,.44-.63,1-1.12,1.28-.23.12-.92-.25-1.17-.57A4.16,4.16,0,0,1,457.39,188.79Z" style="fill:#7d7285"/><path d="M43.18,218.52c-1.94-.1-3.77-.41-5.22-1.93a5.13,5.13,0,0,0-1.71-.75l0,0,0-1.31c.7-3.61.52-7.35,1.93-10.86a11.89,11.89,0,0,1,2.57-4l.47.05.45-.12v0l.87,1.06h0a47.64,47.64,0,0,0,.63,5.25,37.26,37.26,0,0,1,1.13,9.63Z" style="fill:#a22818"/><path d="M44.38,215.56a37.26,37.26,0,0,0-1.13-9.63,47.64,47.64,0,0,1-.63-5.25c1.49.72,1.94,2.15,2.3,3.57C45.91,208.06,46.52,211.88,44.38,215.56Z" style="fill:#706578"/><path d="M36.32,214.56l0,1.31C35.65,215.41,35.91,215,36.32,214.56Z" style="fill:#2f2e3a"/><path d="M42.62,200.67l-.87-1.06Z" style="fill:#706578"/><path d="M41.74,199.63l-.45.12-.47-.05C41.09,199.2,41.38,199,41.74,199.63Z" style="fill:#706578"/></g></svg>