<svg xmlns="http://www.w3.org/2000/svg" width="239" height="275" viewBox="0 0 239 275">
  <title>fairemain</title>
  <g id="Layer_10" data-name="Layer 10">
    <path d="M219,294.58c-1.84-1.86-3.66-3.72-5.52-5.56s-3.44-3.51-5.3-5.1a7.45,7.45,0,0,0-6.92-1.6c-1.11.27-2.21.6-3.29,1a29.59,29.59,0,0,0-3.19,1.3c-8,3.91-16.13,3.62-24.33.56A30.08,30.08,0,0,1,156,273.83c-3.05-4.41-2.77-9.26.57-13.68,2.06-2.72,4.15-5.44,6.42-8a22.74,22.74,0,0,1,9.84-6.06c6.08-2.1,11.53-5.13,15.64-10.3A33.67,33.67,0,0,0,194.41,224c.32-1.1.42-2.27.79-3.35,1.8-5.13.33-9.37-3.67-12.75-6.2-5.23-12.4-10.49-19.84-14a317.87,317.87,0,0,1-30.95-17.1,108.13,108.13,0,0,1-18.28-13.64c-3.64-3.47-5.73-8-7.8-12.4a86.87,86.87,0,0,1-4.12-10.52,49.54,49.54,0,0,1,.38-31.4,20.73,20.73,0,0,1,4.22-7.15c5.27-6,12.93-6.8,19.32-2.06a35.31,35.31,0,0,1,9.36,10.65c2.47,4.23,4.56,8.7,6.72,13.11,1.29,2.64,2.46,5.36,3.59,8.08a49.39,49.39,0,0,1,2.2,6c2.75,10,7.94,18.62,14.78,26.33,1.95,2.21,3.75,4.55,5.71,6.76,5.7,6.42,12,12.08,19.83,15.86a24.6,24.6,0,0,0,14.79,2.43c10-1.54,13.83-9.2,8.93-18-2-3.62-4.87-6.57-7.68-9.56-1.22-1.29-2.29-2.72-3.43-4.09.49-.32.94-.65.07-1.06a2.25,2.25,0,0,0-.05.22c.6-1.21,1.32-2.22,2.92-1.66,0,.61-.21,1.41.09,1.8,1,1.28,2.24,2.37,3.33,3.59,2,2.19,4.06,4.29,5.78,6.65a18.86,18.86,0,0,1,3.51,15.31,8.69,8.69,0,0,1-3.93,6A24,24,0,0,1,211,192a25.32,25.32,0,0,1-14.76-2.55c-3.94-2-7.63-4.4-11.43-6.63a17.45,17.45,0,0,0-1.61-1.82c-5.85-5-10.78-10.89-15.74-16.71-5.84-6.88-10.58-14.45-13.17-23.21a25.52,25.52,0,0,0-1.61-3.54,31.16,31.16,0,0,0-1.17-4.21c-2-4.65-4-9.28-6.22-13.85a73,73,0,0,0-4.22-7.72,34.42,34.42,0,0,0-8-9.16c-5.57-4.21-12.22-3.29-16.33,2.3a15.71,15.71,0,0,0-2,3.38c-3.21,8-4.51,16.32-3,24.92a50.87,50.87,0,0,0,1.42,5.69c.46,1.5,1.68,1.87,3.13,1.63-.1,3.84.75,7.36,3.46,10.26a3.21,3.21,0,0,1,.43.87c-.92,1.54-.24,2.86.68,4.06a50.89,50.89,0,0,0,9.44,10,216.68,216.68,0,0,0,26.41,17c6.15,3.41,12.45,6.56,18.73,9.74,6.79,3.44,12.64,8.17,18.27,13.2a14,14,0,0,1,4.64,13.32,46.14,46.14,0,0,1-1.73,7.14c-3.49,10.72-10.13,18.71-20.94,22.51-7.38,2.58-12.39,7.73-16.77,13.77a7.23,7.23,0,0,0,0,9.13c3.88,5.46,8.52,9.8,15.28,11.65,6.07,1.67,11.9,2,17.72-.7,2.08-1,4.2-1.85,6.31-2.74,4.48-1.9,8.54-1.43,12.33,1.84a64.85,64.85,0,0,1,8.82,9.85C219.28,292.42,219.15,293.5,219,294.58Z" style="fill: #5d536c"/>
    <path d="M244.81,143c.24.65.47,1.29.7,1.94a63.88,63.88,0,0,0,11.57,20.27,29.2,29.2,0,0,0,7.76,6.66c6.71,3.79,13.51,4,20.47.29a41.4,41.4,0,0,0,6.27-4.53c2.28-1.87,2.84-4.64,2.58-7.55-.16-1.94-.3-3.87-.45-5.81,1.39,1.33,1.33,3.17,1.6,4.85a2.64,2.64,0,0,0,1.37,2.32c.5,3.6-1.21,6.34-3.56,8.74a22.23,22.23,0,0,1-3.83,3.07c-9.07,5.94-20.53,6.31-29.22-1a49,49,0,0,1-12.54-15.44c-3-6-5.54-12.23-8-18.47-1.79-4.56-3.13-9.3-4.63-14A183.23,183.23,0,0,1,229,102.08,91,91,0,0,0,218.35,73.7a23.83,23.83,0,0,0-11.16-10c-4.71-2.18-8.95-1.16-12.88,1.77a16.4,16.4,0,0,0-3,3.24c-4.8,6.17-7.73,13.27-10,20.66A62.29,62.29,0,0,0,179.51,99a17.62,17.62,0,0,0,1.05,8.19c.9-1.26,1.35-2,1.94-2.7.76-.85,1.68-1.56,2.41-2.43a19.37,19.37,0,0,0,1.64-2.45c1-1.68,2.13-3.32,4.18-4a14.15,14.15,0,0,1,2.38,1.65c2.95,3.16,3,7.11,2.86,11.09-.1,3-1.68,5.25-3.62,7.31a7.73,7.73,0,0,1-6.55,2.77c-.38,0-.8.36-1.22.56a5.75,5.75,0,0,0,.1,1.56c3.84,10.72,10.35,19.63,18.6,27.35a3.7,3.7,0,0,0,3.14,1.06l-1.59,4c-8.92-7.63-16.35-16.37-21.22-27.21a124.23,124.23,0,0,1-5.39-14.21,37.78,37.78,0,0,1-.17-21.31,98.5,98.5,0,0,1,7.44-18.67c1.07-2.15,2.64-4.12,2.64-6.7a2.24,2.24,0,0,0,2.53-.91,13.31,13.31,0,0,1,2.86-2.4c2-1.58,4.48-1.45,6.64-2.35,3.75-.14,7.17,1.09,10.51,2.6L212.46,63c.95,1.15,1.91,2.29,3.63,2.09l.08.1a4.92,4.92,0,0,0,.51,1.69c1.52,2,3.14,3.86,4.73,5.78,1.07,2.18,2.16,4.34,3.2,6.52a73.25,73.25,0,0,1,5.28,14.13,9.35,9.35,0,0,0,.82,1.76q1.2,5.48,2.38,11c.14.71.29,1.42.43,2.13a61.47,61.47,0,0,0,1.31,6.23c2.68,8.42,5.45,16.8,8.25,25.17A27,27,0,0,0,244.81,143ZM191,100.29a5.89,5.89,0,0,0-3.15,5.15,3.62,3.62,0,0,1-1.66,3.27c-1.41.94-1.29,2.51-.81,4,.61,1.87,2.34,2.49,3.84,1.34a8.44,8.44,0,0,0,3.4-6.26C192.84,105.25,193.46,102.59,191,100.29Z" style="fill: #5d536c"/>
    <path d="M204.83,153l1.59-4a20.67,20.67,0,0,1,2.73-.79c1.93-.27,3.91-.25,5.82-.64,3.82-.78,7.15-2.35,8.89-6.21a8.21,8.21,0,0,1,1.2-1.54,5.2,5.2,0,0,1,3.85,2.31,10.05,10.05,0,0,1,.17,8.23,21.93,21.93,0,0,0-.67,2.27l-3.1,2.91c-4.46,1.3-8.79.38-13.11-.79-1.6-.56-2.32.45-2.92,1.66C207.06,156.26,205.92,154.67,204.83,153Zm10-1.46c7.25,2.53,11.57.42,10.83-5Z" style="fill: #4a435b"/>
    <path d="M209.33,156.21c.87.41.42.74-.07,1.06C209.28,156.92,209.31,156.56,209.33,156.21Z" style="fill: #4a435b"/>
    <path d="M225,299l0,0c-.93-3.23-3.17-5.5-5.58-7.65a64.85,64.85,0,0,0-8.82-9.85c-3.79-3.27-7.85-3.74-12.33-1.84-2.11.89-4.23,1.78-6.31,2.74-5.82,2.71-11.65,2.37-17.72.7-6.76-1.85-11.4-6.19-15.28-11.65a7.23,7.23,0,0,1,0-9.13c4.38-6,9.39-11.19,16.77-13.77,10.81-3.8,17.45-11.79,20.94-22.51a46.14,46.14,0,0,0,1.73-7.14,14,14,0,0,0-4.64-13.32c-5.63-5-11.48-9.76-18.27-13.2-6.28-3.18-12.58-6.33-18.73-9.74a216.68,216.68,0,0,1-26.41-17,50.89,50.89,0,0,1-9.44-10c-.92-1.2-1.6-2.52-.68-4.07,4.47,1.07,6.48-.08,7.5-4.25a14.3,14.3,0,0,0-.65-9.07,9.56,9.56,0,0,0-2.51-3.48c-2.16-1.83-4.73-1.15-6,1.38-.75,1.43-1.46,2.87-2.19,4.3-1.45.24-2.67-.13-3.13-1.63a50.87,50.87,0,0,1-1.42-5.69c-1.53-8.6-.23-16.89,3-24.92a15.71,15.71,0,0,1,2-3.38c4.11-5.59,10.76-6.51,16.33-2.3a34.42,34.42,0,0,1,8,9.16,73,73,0,0,1,4.22,7.72c2.17,4.57,4.22,9.2,6.22,13.85a31.16,31.16,0,0,1,1.17,4.21,2.43,2.43,0,0,0-1.34,3.13c.41,1.67.66,3.37,1,5.06-.42-.23-1.11-.37-1.22-.71-1.2-3.46-3.3-6.71-2.65-10.64a4.26,4.26,0,0,0-.91-3.65c-1.34-1.5-2.17-3.58-4.58-4.26-.82,2.13-1.54,4.06-2.31,6-.65,1.61-2,2-3.56,1.79a14,14,0,0,0,.78-7.16c-.78-5.19-2.25-6.56-6.87-6a2.23,2.23,0,0,1,2-1.86c2.56-.31,3.26-2.55,3.16-4.31-.19-3.3-1.41-6.44-4.71-8.08a9.35,9.35,0,0,0-9.39.27c-2.58,1.57-5.38,3.21-5.29,7a11.34,11.34,0,0,1-.74,3.33c-1.16,3.81-.08,7.4,1.11,11a1.84,1.84,0,0,0,2.9.57,4.79,4.79,0,0,0,.93-1.13c1.3-2.51,3.43-2.76,5.86-2.22-1.16,2.67-.18,5,1.06,7.35,2,3.75,2.79,4.14,7.31,3.7l-.21,4.31c-2.69,1-3.26,1.73-2.15,3.68,2.1,3.68,4.41,7.24,6.75,10.76a8.62,8.62,0,0,0,2.53,2.27c1.83,1.17,3.63.89,5.42-.52,1.54-1.2,1.58-2.69,1.13-4.4a11.8,11.8,0,0,0-5.4-7.27c.3-.92.57-1.94,1.72-2.06s1.71.66,2.25,1.51a17.64,17.64,0,0,0,1.91,2.74,2,2,0,0,0,3,0c3.29,3.51,6.31,7.11,3.7,12.38-3-1.69-3.66-1.74-4.91.8-1.43,2.9-3.9,4.52-6.37,6.24-1-3.33-2.26-6.62-5.53-8.27a15.35,15.35,0,0,1-5.19-4.35,15.78,15.78,0,0,0-1.63-1.83A2.65,2.65,0,0,0,128,154a4.23,4.23,0,0,0,.59,3.74c.67.93,1.73,1.78,1.94,2.8.62,3,3,4.48,5,6.35s4.53,2.53,7,3.41a2.44,2.44,0,0,0,2.68-.76,14.52,14.52,0,0,1,6.49,3.17c2.24,1.7,3.61,1.65,5.45-.47,1.58-1.82,2.83-3.93,4.23-5.91l4.7,1.44c-.29,1.05-1.08,1.45-2,1.94-3.86,2-5.51,5.64-4.45,9.3a4,4,0,0,0,3.76,3.31c1,.08,1.95.22,2.93.3,2.45.2,4.4,1.11,5.47,3.52a3.83,3.83,0,0,0,1.52,1.81c3.89,2,7.55,4.62,12.27,4.5a4.28,4.28,0,0,1,3,1.27c2.47,3,6.06,5.09,7.24,9.22,4.22.45,5.6,3.52,6.74,6.93a14.14,14.14,0,0,1-.32,9.16c-.92,2.77-.89,5.86-2.78,8.32a1.91,1.91,0,0,0-.28,1.4c.67,3.07-1,4.91-3.2,6.62s-2.59,3.36-1.54,5.94a4.86,4.86,0,0,0,6.28,3.11,24.66,24.66,0,0,0,7.47-3.48c3.34-2.36,6.39-5.65,11.28-5.07,2,.24,3.52-1.8,3.58-3.94a11.85,11.85,0,0,0-.41-2.88c-1-4.44-3.3-8.56-3.32-13.26a4.69,4.69,0,0,0-.61-1.86c-1-2.07-1.88-4.16-3-6.16-.68-1.23-1.11-2.4-.51-3.71.69-1.51,2.16-1.93,3.61-2.25a2.69,2.69,0,0,1,3.28,1.49c-.35.75-.7,1.51-1,2.26a2.79,2.79,0,0,0,0,2.78c.61,1.5,1.27,3,1.75,4.53C226,222.77,229,232.7,232,242.63a9.53,9.53,0,0,0,.89,1.7c.08.63.16,1.26.25,1.88s.25,1.42.38,2.12l.21,1.88c-.79,4.06.94,7.25,3.59,10.06a4,4,0,0,0,5.28,1,19.85,19.85,0,0,0,4.72-3.32c1.52-1.64,2.78-3.66,1.4-6.11,0-.64,0-1.28-.08-1.92a4.86,4.86,0,0,0-1.88-4.66q-1.53-4.28-3.05-8.55c.71-1.64,0-3.17-.4-4.73q-.91-3.76-1.84-7.54l2.61-1.06c1.48-.6,2.41-.29,3.07,1.2a6.38,6.38,0,0,1,.21,1.88c-1.64.08-2.5,1.08-2.23,2.55.62,3.35,1.08,6.78,2.79,9.82,2.29,4.08,4.4,5.07,8.87,3.72,3.58-1.07,7.05-2.52,10.58-3.78s7.24-2.89,11.18-3.24a18.92,18.92,0,0,0,8,2.15c4.57.35,9.12.83,13.68,1.3,1.46.15,2.91.43,4.35.69,2.4.45,4.78,1,7.19,1.39,4.67.74,9.48.46,14.06,2,.56.19,1.42-.48,2.14-.76,1.43.72,2.67,1.78,4.49,1.68,2.89-.17,5.8-.09,8.71-.11l5.48-.48q2.94,5.05,5.9,10.11c.8,1.36,1.06,3.13,2.84,3.76.09.66.19,1.32.29,2,.62,1.3,1.23,2.61,1.84,3.92l1.64,3.19c0,.66.07,1.33.1,2-2.61,0-5.21.07-7.81,0-9.12-.38-18.25-.68-27.36-1.28-6.36-.42-12.71,0-19.06-.14-5.38-.1-10.76,0-16.13-.11l-.51-2.69a55.87,55.87,0,0,0-6.47.21c-3.95.6-7.88,1.41-11.11,4.05l-19.34.37a14.31,14.31,0,0,0-1.87-2.77,2.23,2.23,0,0,0-3.28.13,13.59,13.59,0,0,0,.79,5c1,2.09,2.1,4.11,2.17,6.5a1.21,1.21,0,0,0,.07,1.91,33,33,0,0,0,0,3.85c.83,7.7,1.71,15.39,2.58,23.08-.83,2-.27,4.05.14,6,.34,1.69.89,3.34,1.35,5-.61,1.67-1.28,3.3-2.93,4.26-.64-.07-1.28-.18-1.93-.21a12.29,12.29,0,0,1-9.49-5.17c-4.39-5.61-8.91-11.12-13.38-16.66A6.46,6.46,0,0,0,225,299Zm-15.43-55.42-15.7,6a7.64,7.64,0,0,0-2.33.39c-5.29,2.71-10.53,5.5-15.79,8.26-2.26.93-4.55,1.81-6.78,2.8a2.2,2.2,0,0,0-1.27,2.44,20.63,20.63,0,0,0,.87,3.81,4.9,4.9,0,0,0,3.93,3.32,22.75,22.75,0,0,0,3.41.09c3,.86,5.85.21,8.59-.86,3.5-1.38,7-2.89,10.35-4.5,1.89-.9,3.53-2.29,5.42-3.17,4.89-2.29,9.85-4.41,14.77-6.63a38.48,38.48,0,0,0,5.26-2.62,16.87,16.87,0,0,0,3.57-3.29,4.24,4.24,0,0,0,.73-4.17c-1.07-3.37-6.07-6.58-9.45-4.88C213.23,241.53,211.39,242.56,209.53,243.55Z" style="fill: #c3bbb2"/>
    <path d="M247.4,226.43a6.38,6.38,0,0,0-.21-1.88c-.66-1.49-1.59-1.8-3.07-1.2l-2.61,1.06c-.53-1.52-1.12-3-1.58-4.58-.78-2.65-1.46-5.32-2.2-8-.35-1.25-.66-2.53-1.92-3.26l-.75-2.42a2,2,0,0,0-1.14-2.52l-.46-1.58a9.48,9.48,0,0,0-2.41-6.83.79.79,0,0,0-.24-.61c-1.24-2-1.63-2-3.21-.37h0l-1.67,1a4.83,4.83,0,0,1-.95-.16,23.4,23.4,0,0,0-17.43,0c-1.86.76-4.13.63-6.21.67a47.76,47.76,0,0,1-5.32-.47,2,2,0,0,0-1.77-2.14h0a3.42,3.42,0,0,0-2.18-3.38c-2-.88-4.1-1.58-6.16-2.36l-1.59-4.1a3.17,3.17,0,0,0,.53-.57c3.8,2.23,7.49,4.67,11.43,6.63A25.32,25.32,0,0,0,211,192a24,24,0,0,0,9.95-3.88,8.69,8.69,0,0,0,3.93-6,18.86,18.86,0,0,0-3.51-15.31c-1.72-2.36-3.82-4.46-5.78-6.65-1.09-1.22-2.32-2.31-3.33-3.59-.3-.39-.07-1.19-.09-1.8,4.32,1.17,8.65,2.09,13.11.79l1.17.22c-.06,2.53-.61,4.81-2.75,6.52a2.23,2.23,0,0,0-.36,3.12c2,3.14,3.51,6.67,7.06,8.38,0,2.88.1,5.43-1.63,7.74a7.17,7.17,0,0,0-.92,6.56c.58,2,2.51,2.28,4.16,3.05a20.28,20.28,0,0,1,8.37,7.35,5,5,0,0,1,.7,4.63,43.3,43.3,0,0,0-1.29,6.23,4.13,4.13,0,0,0,.15,1.91,10.15,10.15,0,0,0,10.11,6.93c1.12-.07,2.12-.66,2-1.71-.32-3.63.79-7.63-2.47-10.6a2.66,2.66,0,0,1-.77-3.15c1.56-3.19,2.94-6.55,6-8.7,1.65-1.14,1.92-1.88,1.36-3.66-.44-1.4-.91-2.82-2.53-3.68-.64.18-1.4.44-2.18.58a.9.9,0,0,1-.8-.35,2.21,2.21,0,0,1-.09-1.36,1.65,1.65,0,0,1,1.92-1.17,41.18,41.18,0,0,1,4.73,1.25,4.46,4.46,0,0,1,3,3c.22.78.27,1.61.49,2.39a2.16,2.16,0,0,0,3.07,1.46c.89-.38,1.67-1,2.53-1.46,1.66-.86,2.75-.58,3.7,1.05s1.77,3.35,2.72,5.16c1.64-1.13,1.1-2.9,1.91-4.07a32.9,32.9,0,0,0,2.66-4.09,2.72,2.72,0,0,0-1.94-3.82,4.62,4.62,0,0,0-3.78.47c-.82.51-1.66,1-2.53,1.5a20.07,20.07,0,0,1-2.36-.9c-2.9-1.55-5.82-2.93-9.22-3-1.6,0-2.62-1.19-3.4-2.52s-1.27-2.74-2.31-3.65c-2.13-1.88-2.89-4.59-4.72-6.34a9.77,9.77,0,0,1,.49-1.25c2-3.39,1.85-4.63-.92-7.18-1.07-1-2.28-1.82-3.23-2.55-.43-1.72-.78-3.14-1.14-4.57a2,2,0,0,0-1.76-2.14c.48-4-2.36-6.6-4.23-9.58-.28-.45-1.1-.66-1.72-.79a28.2,28.2,0,0,0-2.91-.36l-2.81-.28a5.2,5.2,0,0,0-3.85-2.31,6.66,6.66,0,0,1,3.08-5.79,3.42,3.42,0,0,0,1.31-4.34c-1.58-3.58-1.36-7.71-3.53-11.13a7,7,0,0,1-.5-2.85c-.09-.81.21-1.81-.17-2.41-1.77-2.76-1.1-5.69-.76-8.57.49-4.14.63-8.17-2.18-11.68a1.88,1.88,0,0,1-.37-.9A8.4,8.4,0,0,0,218.11,86c-.57-2.72-.61-5-1.5-6.78-1.63-3.31-3.77-6.37-5.59-9.37a49.76,49.76,0,0,1-5.12-.11c-1.76-.22-3.49-.76-5.25-1.09a7,7,0,0,0-1.61,0c-1.24,1.41-.46,2.76-.65,4A2.84,2.84,0,0,1,197,74.42a6.83,6.83,0,0,1-2.39.28,4.27,4.27,0,0,0-4.13,3.52c-.41,1.58-1,3.11-1.39,4.69-1.29,5.08-1.27,5.08-5.2,7.51.77,2.88.8,2.92,2.89,2.79.48,0,1-.21,1.45-.23,1.89-.06,2,0,2.5,2.69-2,.63-3.13,2.27-4.18,4a19.37,19.37,0,0,1-1.64,2.45c-.73.87-1.65,1.58-2.41,2.43-.59.67-1,1.44-1.94,2.7A17.62,17.62,0,0,1,179.51,99a62.29,62.29,0,0,1,1.87-9.61c2.23-7.39,5.16-14.49,10-20.66a16.4,16.4,0,0,1,3-3.24c3.93-2.93,8.17-4,12.88-1.77a23.83,23.83,0,0,1,11.16,10A91,91,0,0,1,229,102.08a183.23,183.23,0,0,0,5.91,22.28c1.5,4.68,2.84,9.42,4.63,14,2.45,6.24,5,12.47,8,18.47a49,49,0,0,0,12.54,15.44c8.69,7.34,20.15,7,29.22,1a22.23,22.23,0,0,0,3.83-3.07c2.35-2.4,4.06-5.14,3.56-8.74.17-1.12.35-2.24.55-3.48.46,0,1-.21,1.35,0,4.82,2.59,9.22,1.35,13.26-1.65a53.08,53.08,0,0,0,6.58-5.87,39.55,39.55,0,0,1,5.69-5.27c2.84-2,2.78-6.24.22-8.57a3.34,3.34,0,0,0-5.39.62,10.22,10.22,0,0,0-1.55,2.49c-.72,2.15-2.4,3-4.34,3.57-3.76,1.08-7.51,2.34-11.53,1.83a5.68,5.68,0,0,0-3.75.77,15.89,15.89,0,0,1-3.2,1.1c-1.31-.29-1.73-1.43-2.22-2.44-2.87-5.94-6.77-11.2-10.67-16.47-3.51-4.74-7-9.47-8.67-15.3a36.54,36.54,0,0,1-1.07-15.53,69.94,69.94,0,0,1,4.87-17.46,60.06,60.06,0,0,1,8.81-15.24,28.16,28.16,0,0,1,8.65-7.18c8.77-4.49,17.78-8.44,27.62-9.92a83.16,83.16,0,0,1,12.23-.73c6.72,0,11.38,3.49,14.63,9.18A10.63,10.63,0,0,1,350.16,62a52.88,52.88,0,0,1-4,18.14c-2.64,6-5.39,11.93-7.85,18a124.54,124.54,0,0,0-4.46,13,18.66,18.66,0,0,0,0,9.73,53,53,0,0,0,7.71,16.9,14.15,14.15,0,0,0,5.88,5.07,9.88,9.88,0,0,0,9.41-.28,35.22,35.22,0,0,0,9.58-7.61c2.36-2.7,4.57-5.56,6.75-8.42,3.47-4.56,6.88-9.16,10.28-13.78a24.7,24.7,0,0,0,2.41-3.7c2.39-4.81,6-8.56,10-12a71,71,0,0,1,32.75-16,26.62,26.62,0,0,1,10.26.19,51.74,51.74,0,0,1,15.24,5.26c6.11,3.37,10.29,8.54,14.25,14a16.39,16.39,0,0,1,2.82,7.27c.43,2.92.84,5.84,1.32,8.75.62,3.69.27,7.17-2,10.28-.92.68-1.88,1.31-2.75,2.05-2.64,2.24-5.43,2.14-8.16.35s-5.34-3.8-8-5.75a23.46,23.46,0,0,1-1.77-1.69c-5-4.59-10.83-7.25-17.79-7.13-6.74.11-13.44.38-19.89,2.61a43.47,43.47,0,0,0-5,2,113,113,0,0,0-16.62,10.48,24.35,24.35,0,0,0-6.31,6.13,7.28,7.28,0,0,0-1.18.86c-4.32,4.69-8.6,9.41-12.94,14.07-3.11,3.35-6.52,6.46-9.4,10-4,4.94-7.87,10-11.42,15.32a53.51,53.51,0,0,0-9,25.13,103.42,103.42,0,0,0,.65,23,55.88,55.88,0,0,0,4.48,15.49c.52,1.18.86,2.43,1.29,3.66l-5.47.47c-2,.39-3.81-.7-5.72-1.05a3,3,0,0,1-2.47-2.69c-.37-1.93-.66-3.87-1.05-5.79a142.5,142.5,0,0,1-2.7-18,126.29,126.29,0,0,1,.75-28.43c0-.16,0-.33,0-.49a67.19,67.19,0,0,1,1.9-14.11,6.84,6.84,0,0,0,.14-2.43,1.52,1.52,0,0,0-.76-1.12,2.29,2.29,0,0,0-1.82.12,9.73,9.73,0,0,0-1.66,2.36c-2.06,3.47-5.05,5.81-9.05,6-5.58.21-11.21,0-15.81-4a5,5,0,0,0-1.64-1,2.74,2.74,0,0,0-1.87,0c-.49.23-.74.95-1.21,1.61a49.59,49.59,0,0,1,10.07,19.51,33.25,33.25,0,0,0,1.34,3.69c1.41,3.67,2.89,7.31,4.24,11,1.41,3.84,2.45,7.84,4.08,11.57,2.88,6.59,4.54,13.7,8.35,19.89-7-.16-13.9-1.72-20.7-3.18a129.44,129.44,0,0,0-14.45-2.14c-2.27-.23-4.56-.34-6.81-.69a14.85,14.85,0,0,1-3.08-1.22,11.47,11.47,0,0,1,1.59-1c1.82-.73,3.7-1.3,5.47-2.12,2.53-1.17,5-2.5,5.48-5.68.28-1.25.93-2.55.75-3.73a15.21,15.21,0,0,0-4.74-8.9,3.61,3.61,0,0,0-4.89-.46c-1.23.79-2.61,1.37-3.82,2.19a106.93,106.93,0,0,1-25.33,12.58c-1.53.53-3,1.24-4.51,1.86C250.07,227.29,249,226.22,247.4,226.43Zm209.39-118c.06-.22.17-.39.13-.52-3.22-11.08-11.21-15.62-21.79-14.74-6.37.53-11.83,3.59-17.32,6.52-5.19,2.77-10.43,5.44-15.57,8.31-3.42,1.91-6.71,4-10,6.17a14.58,14.58,0,0,0-2.21,2.34c1.21,1.65,1.83,3.48,3.36,5.11,2.19-.78,4.6-1.11,6.36-2.36a38,38,0,0,1,11.08-5.09c4.53-1.41,9-2.85,13.6-4.12a23.23,23.23,0,0,1,9.24-.83c3.4.44,6.82.86,10.19,1.48,3.11.57,6.11.77,9.13-.53C454.29,109.63,455.94,109.88,456.79,108.45ZM302.64,133.84c.88-3.49,1.71-6.64,2.43-9.82a18.42,18.42,0,0,0,.33-3.41c.23-5.75-1.4-11.32-1.67-17a2.64,2.64,0,0,0-.26-.94,3.51,3.51,0,0,0-3.67-1.86,2.38,2.38,0,0,0-2.17,2.27c-.22,1.28-.47,2.57-.79,3.83a61.37,61.37,0,0,0-1.3,20.92,18.9,18.9,0,0,0,1.15,4.73c.71,1.91,1.78,2.4,3.85,2.05A14.45,14.45,0,0,0,302.64,133.84Zm-24-42.06.26,0a36.71,36.71,0,0,0-.2,4.9,13.51,13.51,0,0,0,1.14,4.68c1.65,3.3,4.87,3.8,7.73,1.37a14.46,14.46,0,0,0,5-10.31c.24-3.09,0-6.21,0-9.32a8.58,8.58,0,0,0-.34-2.42c-1.23-3.8-5.56-5.29-8.59-2.4a11.88,11.88,0,0,0-3.55,5.77C279.49,86.62,279.11,89.21,278.63,91.78Zm29.1-10.35c-1.85,4.06-1.92,8.6-1.5,13.19a8.13,8.13,0,0,0,.61,2.36c1.32,3.27,3.51,4.56,7,3.88a8,8,0,0,0,3.45-1.66,12.71,12.71,0,0,0,4.67-8.91c.31-4.79-1.09-9.08-5.41-11.87a3.56,3.56,0,0,0-4.53.19C310.74,79.6,309.32,80.38,307.73,81.43Zm-77.17,53.68c-.46,1-.85,1.53-.84,2,0,.31.75.94.91.87.49-.23,1.14-.68,1.21-1.13S231.25,136,230.56,135.11Z" style="fill: #c8beb2"/>
    <path d="M155.86,160c2.61-5.27-.41-8.87-3.7-12.38.06-.65.13-1.3.19-1.95-.32-1.69-.57-3.39-1-5.06a2.43,2.43,0,0,1,1.34-3.13,25.52,25.52,0,0,1,1.61,3.54c2.59,8.76,7.33,16.33,13.17,23.21,5,5.82,9.89,11.71,15.74,16.71a17.45,17.45,0,0,1,1.61,1.82,3.17,3.17,0,0,1-.53.57c-.65-.07-1.29-.17-1.94-.19a7.12,7.12,0,0,1-5.46-2.67c-1.8-2-4.33-3.34-5.42-6-.1-.27-.46-.45-.73-.62a4.26,4.26,0,0,1-2.16-3.57c-.09-1.51-1.17-2.23-2.55-2.54l-4.7-1.44Z" style="fill: #c8beb2"/>
    <path d="M116.35,140.48c.73-1.43,1.44-2.87,2.19-4.3,1.31-2.53,3.88-3.21,6-1.38a9.56,9.56,0,0,1,2.51,3.48,14.3,14.3,0,0,1,.65,9.07c-1,4.17-3,5.32-7.5,4.25a3.3,3.3,0,0,0-.43-.86C117.1,147.84,116.25,144.32,116.35,140.48Zm6.23-3.43c-.69.66-1.16.91-1.33,1.3-1.3,3-.47,6-.29,9a1.78,1.78,0,0,0,1.41,1c.69-.1,1.69-.57,1.89-1.12C125.48,143.78,125.59,140.39,122.58,137.05Z" style="fill: #4a435b"/>
    <path d="M190.73,95.67c-.53-2.65-.61-2.75-2.5-2.69-.49,0-1,.2-1.45.23-2.09.13-2.12.09-2.89-2.79,3.93-2.43,3.91-2.43,5.2-7.51.4-1.58,1-3.11,1.39-4.69a4.27,4.27,0,0,1,4.13-3.52,6.83,6.83,0,0,0,2.39-.28,2.84,2.84,0,0,0,1.39-1.75c.19-1.23-.59-2.58.65-4a7,7,0,0,1,1.61,0c1.76.33,3.49.87,5.25,1.09a49.76,49.76,0,0,0,5.12.11c1.82,3,4,6.06,5.59,9.37.89,1.82.93,4.06,1.5,6.78a8.4,8.4,0,0,1,3.83,6.16,1.88,1.88,0,0,0,.37.9c2.81,3.51,2.67,7.54,2.18,11.68-.34,2.88-1,5.81.76,8.57.38.6.08,1.6.17,2.41a7,7,0,0,0,.5,2.85c2.17,3.42,2,7.55,3.53,11.13a3.42,3.42,0,0,1-1.31,4.34,6.66,6.66,0,0,0-3.08,5.79,8.21,8.21,0,0,0-1.2,1.54c-1.74,3.86-5.07,5.43-8.89,6.21-1.91.39-3.89.37-5.82.64a20.67,20.67,0,0,0-2.73.79,3.7,3.7,0,0,1-3.14-1.06c-8.25-7.72-14.76-16.63-18.6-27.35a5.75,5.75,0,0,1-.1-1.56c.42-.2.84-.59,1.22-.56a7.73,7.73,0,0,0,6.55-2.77c1.94-2.06,3.52-4.33,3.62-7.31.13-4,.09-7.93-2.86-11.09A14.15,14.15,0,0,0,190.73,95.67ZM215.43,133a16.84,16.84,0,0,0-.91-2.73c-2.46-4.25-4.89-8.52-7.5-12.68-1.56-2.48-3.37-4.83-5.17-7.15a2.35,2.35,0,0,0-3.08-.65,2.74,2.74,0,0,0-1.58,3.24c.22.78.65,1.5.92,2.26.48,1.39.94,2.78,1.36,4.19,1,3.45,2,6.92,3,10.34a11.28,11.28,0,0,0,1.54,3.06,6.23,6.23,0,0,0,8.61,1.93C213.51,134.39,214.29,133.79,215.43,133ZM200.9,94a4.89,4.89,0,0,0,.07,1.57,96.36,96.36,0,0,0,4,8.83c1,1.77,3.34,1.9,5.18.64,2.75-1.89,4.29-4.46,4-7.86a15.81,15.81,0,0,0-3.79-8.84c-1.74-2-4.42-2-6.49-.24C202,89.68,201.45,91.87,200.9,94Z" style="fill: #c4bbb0"/>
    <path d="M228.91,142.15l2.81.28a15.46,15.46,0,0,0,1,2.13c1.68,2.44,1.75,3.42.3,5.66a5.29,5.29,0,0,1-4.27,2.84l-.36-.41a21.93,21.93,0,0,1,.67-2.27A10.05,10.05,0,0,0,228.91,142.15Z" style="fill: #c3bbb2"/>
    <path d="M226.48,155.78l-1.17-.22,3.1-2.91.36.41C228.59,154.46,228.23,155.7,226.48,155.78Z" style="fill: #c3bbb2"/>
    <path d="M166.05,167.75c1.38.31,2.46,1,2.55,2.54a4.26,4.26,0,0,0,2.16,3.57c.27.17.63.35.73.62,1.09,2.67,3.62,4,5.42,6a7.12,7.12,0,0,0,5.46,2.67c.65,0,1.29.12,1.94.19l1.59,4.1a3.42,3.42,0,0,0,2.18,3.37c2,.88,4.1,1.59,6.16,2.37h0a2,2,0,0,0,1.77,2.14,47.76,47.76,0,0,0,5.32.47c2.08,0,4.35.09,6.21-.67a23.4,23.4,0,0,1,17.43,0,4.83,4.83,0,0,0,.95.16c.12.4.24.8.35,1.2-1.15,1.27-2.33,2.48-2.32,4.4a2.39,2.39,0,0,1-1.83,2.42,2.69,2.69,0,0,0-3.28-1.49c-1.45.32-2.92.74-3.61,2.25-.6,1.31-.17,2.48.51,3.71,1.1,2,2,4.09,3,6.16a4.69,4.69,0,0,1,.61,1.86c0,4.7,2.29,8.82,3.32,13.26a11.85,11.85,0,0,1,.41,2.88c-.06,2.14-1.59,4.18-3.58,3.94-4.89-.58-7.94,2.71-11.28,5.07a24.66,24.66,0,0,1-7.47,3.48,4.86,4.86,0,0,1-6.28-3.11c-1-2.58-.7-4.17,1.54-5.94s3.87-3.55,3.2-6.62a1.91,1.91,0,0,1,.28-1.4c1.89-2.46,1.86-5.55,2.78-8.32a14.14,14.14,0,0,0,.32-9.16c-1.14-3.41-2.52-6.48-6.74-6.93-1.18-4.13-4.77-6.22-7.24-9.22a4.28,4.28,0,0,0-3-1.27c-4.72.12-8.38-2.48-12.27-4.5a3.83,3.83,0,0,1-1.52-1.81c-1.07-2.41-3-3.32-5.47-3.52-1-.08-1.95-.22-2.93-.3A4,4,0,0,1,159.6,179c-1.06-3.66.59-7.27,4.45-9.3C165,169.2,165.76,168.8,166.05,167.75Z" style="fill: #c4bbb0"/>
    <path d="M222.12,203.28a2.39,2.39,0,0,0,1.83-2.42c0-1.92,1.17-3.13,2.32-4.4a2.05,2.05,0,0,0,1.32-2.2h0l3.21.37a.8.8,0,0,1,.24.62c-1.08,2.93.58,4.91,2.41,6.82.15.53.3,1.05.46,1.58a1.88,1.88,0,0,0,1.14,2.52l.75,2.42c-2.7,1.62-3.09,3.71-1.95,6.67,1.76,4.57,3,9.33,4.62,14a12.72,12.72,0,0,0,1.78,3.43c1,1.42,2.31,2.68,3.49,4q1.51,4.27,3.05,8.55c-.32,1.93,0,3.61,1.88,4.66,0,.64,0,1.28.08,1.92-2.07,2.08-5,1.77-7.4,3.07-1.66-1.12-3.12-2.14-4.62-3.09-1-.59-2-1.06-3-1.58l-.21-1.88c1.09-.92.61-1.57-.38-2.12-.09-.62-.17-1.25-.25-1.88.92-.81.6-1.74.27-2.68a23.93,23.93,0,0,1-1.28-9.6,19.62,19.62,0,0,0-2-9.43c-2.32-5-5.38-9.66-6.89-15-.22-.8-1.28-1.37-1.94-2C221.42,204.79,221.77,204,222.12,203.28Z" style="fill: #2f2e3a"/>
    <path d="M193.83,249.59l15.7-6,4.09,2.41H219a4.58,4.58,0,0,1-2.73,3.72c-1,.45-2,1.05-3,1.58-1.67.62-3.37,1.17-5,1.89s-3.13,1.79-4.79,2.44a14.35,14.35,0,0,0-4.94,3.1,14.45,14.45,0,0,1-5.95,3.16c-6.05,2-12.05,4.15-16.71,8.83a22.75,22.75,0,0,1-3.41-.09,4.9,4.9,0,0,1-3.93-3.32,20.63,20.63,0,0,1-.87-3.81,2.2,2.2,0,0,1,1.27-2.44c2.23-1,4.52-1.87,6.78-2.8,1.79,2.94,4.34,3.05,7.16,1.87a7.24,7.24,0,0,0,2.43-1.54,10.35,10.35,0,0,1,3.2-2.07C191.36,255.11,193.74,253.19,193.83,249.59Z" style="fill: #2f2e3a"/>
    <path d="M126.86,125.53c-2.43-.54-4.56-.29-5.86,2.22a4.79,4.79,0,0,1-.93,1.13,1.84,1.84,0,0,1-2.9-.57c-1.19-3.55-2.27-7.14-1.11-11a11.34,11.34,0,0,0,.74-3.33c-.09-3.79,2.71-5.43,5.29-7a9.35,9.35,0,0,1,9.39-.27c3.3,1.64,4.52,4.78,4.71,8.08.1,1.76-.6,4-3.16,4.31a2.23,2.23,0,0,0-2,1.86C129.55,122.43,129.07,124.78,126.86,125.53Z" style="fill: #c4bbb0"/>
    <path d="M219,246h-5.35l-4.09-2.41c1.86-1,3.7-2,5.58-3,3.38-1.7,8.38,1.51,9.45,4.88a4.24,4.24,0,0,1-.73,4.17,16.87,16.87,0,0,1-3.57,3.29,38.48,38.48,0,0,1-5.26,2.62c-4.92,2.22-9.88,4.34-14.77,6.63-1.89.88-3.53,2.27-5.42,3.17-3.39,1.61-6.85,3.12-10.35,4.5-2.74,1.07-5.61,1.72-8.59.86,4.66-4.68,10.66-6.87,16.71-8.83a14.45,14.45,0,0,0,5.95-3.16,14.35,14.35,0,0,1,4.94-3.1c1.66-.65,3.16-1.7,4.79-2.44s3.32-1.27,5-1.89c.5.34,1,1,1.51,1a7.65,7.65,0,0,0,6.47-4.14c.46-.8,0-1.55-.87-1.88A6.43,6.43,0,0,0,219,246Z" style="fill: #4a435b"/>
    <path d="M152.35,145.69c-.06.65-.13,1.3-.19,1.95a2,2,0,0,1-3,0,17.64,17.64,0,0,1-1.91-2.74c-.54-.85-1.15-1.63-2.25-1.51s-1.42,1.14-1.72,2.06L135,140.89l.21-4.3,1.89-2.41c1.6.24,2.91-.18,3.56-1.79.77-1.9,1.49-3.83,2.31-6,2.41.68,3.24,2.76,4.58,4.26a4.26,4.26,0,0,1,.91,3.65c-.65,3.93,1.45,7.18,2.65,10.64C151.24,145.32,151.93,145.46,152.35,145.69Z" style="fill: #c4bbb0"/>
    <path d="M145.18,169.52a2.44,2.44,0,0,1-2.68.76c-2.44-.88-5-1.55-7-3.41s-4.42-3.3-5-6.35c-.21-1-1.27-1.87-1.94-2.8A4.23,4.23,0,0,1,128,154a2.65,2.65,0,0,1,4.27-1.37,15.78,15.78,0,0,1,1.63,1.83,15.35,15.35,0,0,0,5.19,4.35c3.27,1.65,4.53,4.94,5.53,8.27Z" style="fill: #c4bbb0"/>
    <path d="M135,140.89l8.28,4.52a11.8,11.8,0,0,1,5.4,7.27c.45,1.71.41,3.2-1.13,4.4-1.79,1.41-3.59,1.69-5.42.52a8.62,8.62,0,0,1-2.53-2.27c-2.34-3.52-4.65-7.08-6.75-10.76C131.76,142.62,132.33,141.88,135,140.89Zm4.67,7.67c.92,2.16,2,4.13,4,5.29a1.08,1.08,0,0,0,1.58-1.35A5.92,5.92,0,0,0,139.69,148.56Z" style="fill: #4a435b"/>
    <path d="M145.18,169.52l-.6-2.46c2.47-1.72,4.94-3.34,6.37-6.24,1.25-2.54,1.91-2.49,4.91-.8l5.49,6.29c-1.4,2-2.65,4.09-4.23,5.91-1.84,2.12-3.21,2.17-5.45.47A14.52,14.52,0,0,0,145.18,169.52Zm8.19-5.36a8,8,0,0,0-1.39,2,2,2,0,0,0,1.71,2.44c1.16.25,2.66-.5,2.73-1.37C156.5,166.12,155,164.41,153.37,164.16Z" style="fill: #4a435b"/>
    <path d="M137.12,134.18l-1.89,2.41c-4.52.43-5.31,0-7.31-3.71-1.24-2.32-2.22-4.68-1.06-7.35,2.21-.75,2.69-3.1,4.17-4.52,4.62-.55,6.09.82,6.87,6A14,14,0,0,1,137.12,134.18Zm-2.59-2.68c-.08-2.27-.09-4.18-.24-6.08a1.38,1.38,0,0,0-.92-.93,1.34,1.34,0,0,0-1.15.55,19,19,0,0,0-1.45,4,4.27,4.27,0,0,0,.45,2.69,2.34,2.34,0,0,0,1.88,1C133.7,132.7,134.19,131.83,134.53,131.5Z" style="fill: #4a435b"/>
    <path d="M221.08,205.54c.66.67,1.72,1.24,1.94,2,1.51,5.38,4.57,10,6.89,15a19.62,19.62,0,0,1,2,9.43,23.93,23.93,0,0,0,1.28,9.6c.33.94.65,1.87-.27,2.68a9.53,9.53,0,0,1-.89-1.7c-3.07-9.93-6.09-19.86-9.16-29.78-.48-1.54-1.14-3-1.75-4.53A2.79,2.79,0,0,1,221.08,205.54Z" style="fill: #4a435b"/>
    <path d="M243.75,236.68c-1.18-1.33-2.45-2.59-3.49-4a12.72,12.72,0,0,1-1.78-3.43c-1.58-4.65-2.86-9.41-4.62-14-1.14-3-.75-5,1.95-6.67,1.26.73,1.57,2,1.92,3.26.74,2.66,1.42,5.33,2.2,8,.46,1.55,1,3.06,1.58,4.58q.93,3.78,1.84,7.54C243.73,233.51,244.46,235,243.75,236.68Z" style="fill: #5d536c"/>
    <path d="M233.77,250.21c1,.52,2,1,3,1.58,1.5,1,3,2,4.62,3.09,2.36-1.3,5.33-1,7.4-3.07,1.38,2.45.12,4.47-1.4,6.11a19.85,19.85,0,0,1-4.72,3.32,4,4,0,0,1-5.28-1C234.71,257.46,233,254.27,233.77,250.21Z" style="fill: #4a435b"/>
    <path d="M193.83,249.59c-.09,3.6-2.47,5.52-5.33,6.91a10.35,10.35,0,0,0-3.2,2.07,7.24,7.24,0,0,1-2.43,1.54c-2.82,1.18-5.37,1.07-7.16-1.87,5.26-2.76,10.5-5.55,15.79-8.26A7.64,7.64,0,0,1,193.83,249.59Z" style="fill: #4a435b"/>
    <path d="M233.18,246.21c1,.55,1.47,1.2.38,2.12C233.43,247.63,233.3,246.92,233.18,246.21Z" style="fill: #4a435b"/>
    <path d="M226.48,155.78c1.75-.08,2.11-1.32,2.29-2.72a5.29,5.29,0,0,0,4.27-2.84c1.45-2.24,1.38-3.22-.3-5.66a15.46,15.46,0,0,1-1-2.13,28.2,28.2,0,0,1,2.91.36c.62.13,1.44.34,1.72.79,1.87,3,4.71,5.56,4.23,9.58a2,2,0,0,0,1.76,2.14c.36,1.43.71,2.85,1.14,4.57,1,.73,2.16,1.56,3.23,2.55,2.77,2.55,2.9,3.79.92,7.18a9.77,9.77,0,0,0-.49,1.25c1.83,1.75,2.59,4.46,4.72,6.34,1,.91,1.58,2.4,2.31,3.65s1.8,2.49,3.4,2.52c3.4.07,6.32,1.45,9.22,3a20.07,20.07,0,0,0,2.36.9c.87-.51,1.71-1,2.53-1.5a4.62,4.62,0,0,1,3.78-.47,2.72,2.72,0,0,1,1.94,3.82,32.9,32.9,0,0,1-2.66,4.09c-.81,1.17-.27,2.94-1.91,4.07-.95-1.81-1.76-3.52-2.72-5.16s-2-1.91-3.7-1.05c-.86.44-1.64,1.08-2.53,1.46a2.16,2.16,0,0,1-3.07-1.46c-.22-.78-.27-1.61-.49-2.39a4.46,4.46,0,0,0-3-3,41.18,41.18,0,0,0-4.73-1.25,1.65,1.65,0,0,0-1.92,1.17,2.21,2.21,0,0,0,.09,1.36.9.9,0,0,0,.8.35c.78-.14,1.54-.4,2.18-.58,1.62.86,2.09,2.28,2.53,3.68.56,1.78.29,2.52-1.36,3.66-3.11,2.15-4.49,5.51-6,8.7a2.66,2.66,0,0,0,.77,3.15c3.26,3,2.15,7,2.47,10.6.1,1-.9,1.64-2,1.71A10.15,10.15,0,0,1,240,211.27a4.13,4.13,0,0,1-.15-1.91,43.3,43.3,0,0,1,1.29-6.23,5,5,0,0,0-.7-4.63,20.28,20.28,0,0,0-8.37-7.35c-1.65-.77-3.58-1.1-4.16-3.05a7.17,7.17,0,0,1,.92-6.56c1.73-2.31,1.65-4.86,1.63-7.74-3.55-1.71-5.07-5.24-7.06-8.38a2.23,2.23,0,0,1,.36-3.12C225.87,160.59,226.42,158.31,226.48,155.78Z" style="fill: #c4bbb0"/>
    <path d="M194.24,193.19c-2.06-.78-4.14-1.49-6.16-2.37a3.42,3.42,0,0,1-2.18-3.37c2.06.78,4.15,1.48,6.16,2.36A3.42,3.42,0,0,1,194.24,193.19Z" style="fill: #c3bbb2"/>
    <path d="M233.46,202.07c-1.83-1.91-3.49-3.89-2.41-6.82A9.44,9.44,0,0,1,233.46,202.07Z" style="fill: #5d536c"/>
    <path d="M230.56,135.11c.69.9,1.34,1.39,1.28,1.77s-.72.9-1.21,1.13c-.16.07-.91-.56-.91-.87C229.71,136.64,230.1,136.14,230.56,135.11Z" style="fill: #c4bbb0"/>
    <path d="M230.81,194.63l-3.21-.37C229.18,192.63,229.57,192.67,230.81,194.63Z" style="fill: #5d536c"/>
    <path d="M227.59,194.26a2.05,2.05,0,0,1-1.32,2.2c-.11-.4-.23-.8-.35-1.2Z" style="fill: #5d536c"/>
    <path d="M196,195.33a2,2,0,0,1-1.77-2.14A2,2,0,0,1,196,195.33Z" style="fill: #c3bbb2"/>
    <path d="M235.06,206.17a1.88,1.88,0,0,1-1.14-2.52A2,2,0,0,1,235.06,206.17Z" style="fill: #5d536c"/>
    <path d="M215.43,133c-1.14.75-1.92,1.35-2.77,1.81a6.23,6.23,0,0,1-8.61-1.93,11.28,11.28,0,0,1-1.54-3.06c-1.07-3.42-2-6.89-3-10.34-.42-1.41-.88-2.8-1.36-4.19-.27-.76-.7-1.48-.92-2.26a2.74,2.74,0,0,1,1.58-3.24,2.35,2.35,0,0,1,3.08.65c1.8,2.32,3.61,4.67,5.17,7.15,2.61,4.16,5,8.43,7.5,12.68A16.84,16.84,0,0,1,215.43,133Zm-12.91-14.9a28.92,28.92,0,0,0,3.3,11.68,7,7,0,0,0,2,2.06,1.36,1.36,0,0,0,1.33,0c.36-.4.73-1.21.54-1.59-1.7-3.52-3.49-7-5.32-10.46C204.14,119.33,203.52,119,202.52,118.14Z" style="fill: #4a435b"/>
    <path d="M200.9,94c.55-2.11,1.13-4.3,3-5.9,2.07-1.8,4.75-1.81,6.49.24a15.81,15.81,0,0,1,3.79,8.84c.32,3.4-1.22,6-4,7.86-1.84,1.26-4.21,1.13-5.18-.64a96.36,96.36,0,0,1-4-8.83A4.89,4.89,0,0,1,200.9,94Zm6.65,8.42c3.46-1.27,4.15-3.56,3.66-6.39a12.62,12.62,0,0,0-1-2.75c-.4-1-1.16-1.79-2.21-1.44A3.5,3.5,0,0,0,206,93.56,8.69,8.69,0,0,0,207.55,102.4Z" style="fill: #4a435b"/>
    <path d="M219,246a6.43,6.43,0,0,1,1.39.25c.86.33,1.33,1.08.87,1.88a7.65,7.65,0,0,1-6.47,4.14c-.48,0-1-.63-1.51-1,1-.53,2-1.13,3-1.58A4.58,4.58,0,0,0,219,246Z" style="fill: #706578"/>
  </g>
</svg>
