<svg xmlns="http://www.w3.org/2000/svg" width="238" height="56" viewBox="0 0 238 56">
  <title>fairemain</title>
  <g id="Layer_10" data-name="Layer 10">
    <path d="M217,19.58c-1.84-1.86-3.66-3.72-5.52-5.56s-3.44-3.51-5.3-5.1a7.45,7.45,0,0,0-6.92-1.6c-1.11.27-2.21.6-3.29,1a29.59,29.59,0,0,0-3.19,1.3c-8,3.91-16.13,3.62-24.33.56A30.08,30.08,0,0,1,154-1.17c-3.05-4.41-2.77-9.26.57-13.68,2.06-2.72,4.15-5.44,6.42-8a22.74,22.74,0,0,1,9.84-6.06c6.08-2.1,11.53-5.13,15.64-10.3A33.67,33.67,0,0,0,192.41-51c.32-1.1.42-2.27.79-3.35,1.8-5.13.33-9.37-3.67-12.75-6.2-5.23-12.4-10.49-19.84-14a317.87,317.87,0,0,1-30.95-17.1,108.13,108.13,0,0,1-18.28-13.64c-3.64-3.47-5.73-8-7.8-12.4a86.87,86.87,0,0,1-4.12-10.52,49.54,49.54,0,0,1,.38-31.4,20.73,20.73,0,0,1,4.22-7.15c5.27-6,12.93-6.8,19.32-2.06a35.31,35.31,0,0,1,9.36,10.65c2.47,4.23,4.56,8.7,6.72,13.11,1.29,2.64,2.46,5.36,3.59,8.08a49.39,49.39,0,0,1,2.2,6c2.75,10,7.94,18.62,14.78,26.33,1.95,2.21,3.75,4.55,5.71,6.76,5.7,6.42,12,12.08,19.83,15.86a24.6,24.6,0,0,0,14.79,2.43c10-1.54,13.83-9.2,8.93-18-2-3.62-4.87-6.57-7.68-9.56-1.22-1.29-2.29-2.72-3.43-4.09.49-.32.94-.65.07-1.06a2.25,2.25,0,0,0-.05.22c.6-1.21,1.32-2.22,2.92-1.66,0,.61-.21,1.41.09,1.8,1,1.28,2.24,2.37,3.33,3.59,2,2.19,4.06,4.29,5.78,6.65a18.86,18.86,0,0,1,3.51,15.31,8.69,8.69,0,0,1-3.93,6A24,24,0,0,1,209-83a25.32,25.32,0,0,1-14.76-2.55c-3.94-2-7.63-4.4-11.43-6.63A17.45,17.45,0,0,0,181.23-94c-5.85-5-10.78-10.89-15.74-16.71-5.84-6.88-10.58-14.45-13.17-23.21a25.52,25.52,0,0,0-1.61-3.54,31.16,31.16,0,0,0-1.17-4.21c-2-4.65-4-9.28-6.22-13.85a73,73,0,0,0-4.22-7.72,34.42,34.42,0,0,0-8-9.16c-5.57-4.21-12.22-3.29-16.33,2.3a15.71,15.71,0,0,0-2,3.38c-3.21,8-4.51,16.32-3,24.92a50.87,50.87,0,0,0,1.42,5.69c.46,1.5,1.68,1.87,3.13,1.63-.1,3.84.75,7.36,3.46,10.26a3.21,3.21,0,0,1,.43.87c-.92,1.54-.24,2.86.68,4.06a50.89,50.89,0,0,0,9.44,10,216.68,216.68,0,0,0,26.41,17c6.15,3.41,12.45,6.56,18.73,9.74,6.79,3.44,12.64,8.17,18.27,13.2a14,14,0,0,1,4.64,13.32A46.14,46.14,0,0,1,194.68-49c-3.49,10.72-10.13,18.71-20.94,22.51-7.38,2.58-12.39,7.73-16.77,13.77a7.23,7.23,0,0,0,0,9.13c3.88,5.46,8.52,9.8,15.28,11.65,6.07,1.67,11.9,2,17.72-.7,2.08-1,4.2-1.85,6.31-2.74,4.48-1.9,8.54-1.43,12.33,1.84a64.85,64.85,0,0,1,8.82,9.85C217.28,17.42,217.15,18.5,217,19.58Z" style="fill: #5d536c"/>
    <path d="M257.76,50.2c-.49-6.86-1.63-13.56-4.74-19.78a3,3,0,0,1-3.11.95c-.83,2-.27,4.05.14,6,.34,1.69.89,3.34,1.35,5a2.65,2.65,0,0,1,.17,3.57c-.8,1.1-1.93,1-3.1.69-.64-.07-1.28-.18-1.93-.21a12.29,12.29,0,0,1-9.49-5.17c-4.39-5.61-8.91-11.12-13.38-16.66A6.46,6.46,0,0,0,223,24c-.29,1.07-.57,2.14-.86,3.21q2.52,3.24,5.05,6.47a41.31,41.31,0,0,1,3.85,5,37.26,37.26,0,0,0,5.52,7.3l1.14,1.21a12.51,12.51,0,0,1-1.49.79,2.38,2.38,0,0,1-.91-.05c-1,0-2-.06-3-.09.18,1.08.37,2.15.56,3.23,2.75,0,5.5,0,8.25,0,1.62,0,3.25-.13,4.88-.26a13.37,13.37,0,0,1,8.45,1.8,7.18,7.18,0,0,0,1.32.61,1.58,1.58,0,0,0,1.92-1.06A9.64,9.64,0,0,0,257.76,50.2Z" style="fill: #4a435b"/>
    <path d="M217,19.58c.13-1.08.26-2.16.38-3.24,2.41,2.15,4.65,4.42,5.58,7.65l-2.84-.08Z" style="fill: #4a435b"/>
    <path d="M220.14,23.91,223,24l0,0c-.29,1.07-.57,2.14-.86,3.21C221.44,26.09,220.79,25,220.14,23.91Z" style="fill: #5d536c"/>
    <path d="M236.52,45.92l1.14,1.21a12.51,12.51,0,0,1-1.49.79,2.38,2.38,0,0,1-.91-.05Z" style="fill: #5d536c"/>
    <path d="M223,24l0,0c-.93-3.23-3.17-5.5-5.58-7.65a64.85,64.85,0,0,0-8.82-9.85c-3.79-3.27-7.85-3.74-12.33-1.84-2.11.89-4.23,1.78-6.31,2.74-5.82,2.71-11.65,2.37-17.72.7-6.76-1.85-11.4-6.19-15.28-11.65a7.23,7.23,0,0,1,0-9.13c4.38-6,9.39-11.19,16.77-13.77,10.81-3.8,17.45-11.79,20.94-22.51a46.14,46.14,0,0,0,1.73-7.14,14,14,0,0,0-4.64-13.32c-5.63-5-11.48-9.76-18.27-13.2-6.28-3.18-12.58-6.33-18.73-9.74a216.68,216.68,0,0,1-26.41-17,50.89,50.89,0,0,1-9.44-10c-.92-1.2-1.6-2.52-.68-4.07,4.47,1.07,6.48-.08,7.5-4.25a14.3,14.3,0,0,0-.65-9.07,9.56,9.56,0,0,0-2.51-3.48c-2.16-1.83-4.73-1.15-6,1.38-.75,1.43-1.46,2.87-2.19,4.3-1.45.24-2.67-.13-3.13-1.63a50.87,50.87,0,0,1-1.42-5.69c-1.53-8.6-.23-16.89,3-24.92a15.71,15.71,0,0,1,2-3.38c4.11-5.59,10.76-6.51,16.33-2.3a34.42,34.42,0,0,1,8,9.16,73,73,0,0,1,4.22,7.72c2.17,4.57,4.22,9.2,6.22,13.85a31.16,31.16,0,0,1,1.17,4.21,2.43,2.43,0,0,0-1.34,3.13c.41,1.67.66,3.37,1,5.06-.42-.23-1.11-.37-1.22-.71-1.2-3.46-3.3-6.71-2.65-10.64a4.26,4.26,0,0,0-.91-3.65c-1.34-1.5-2.17-3.58-4.58-4.26-.82,2.13-1.54,4.06-2.31,6-.65,1.61-2,2-3.56,1.79a14,14,0,0,0,.78-7.16c-.78-5.19-2.25-6.56-6.87-6a2.23,2.23,0,0,1,2-1.86c2.56-.31,3.26-2.55,3.16-4.31-.19-3.3-1.41-6.44-4.71-8.08a9.35,9.35,0,0,0-9.39.27c-2.58,1.57-5.38,3.21-5.29,7a11.34,11.34,0,0,1-.74,3.33c-1.16,3.81-.08,7.4,1.11,10.95a1.84,1.84,0,0,0,2.9.57,4.79,4.79,0,0,0,.93-1.13c1.3-2.51,3.43-2.76,5.86-2.22-1.16,2.67-.18,5,1.06,7.35,2,3.75,2.79,4.14,7.31,3.7l-.21,4.31c-2.69,1-3.26,1.73-2.15,3.68,2.1,3.68,4.41,7.24,6.75,10.76a8.62,8.62,0,0,0,2.53,2.27c1.83,1.17,3.63.89,5.42-.52,1.54-1.2,1.58-2.69,1.13-4.4a11.8,11.8,0,0,0-5.4-7.27c.3-.92.57-1.94,1.72-2.06s1.71.66,2.25,1.51a17.64,17.64,0,0,0,1.91,2.74,2,2,0,0,0,3,0c3.29,3.51,6.31,7.11,3.7,12.38-3-1.69-3.66-1.74-4.91.8-1.43,2.9-3.9,4.52-6.37,6.24-1-3.33-2.26-6.62-5.53-8.27a15.35,15.35,0,0,1-5.19-4.35,15.78,15.78,0,0,0-1.63-1.83A2.65,2.65,0,0,0,126-121a4.23,4.23,0,0,0,.59,3.74c.67.93,1.73,1.78,1.94,2.8.62,3,3,4.48,5,6.35s4.53,2.53,7,3.41a2.44,2.44,0,0,0,2.68-.76,14.52,14.52,0,0,1,6.49,3.17c2.24,1.7,3.61,1.65,5.45-.47,1.58-1.82,2.83-3.93,4.23-5.91l4.7,1.44c-.29,1-1.08,1.45-2,1.94-3.86,2-5.51,5.64-4.45,9.3a4,4,0,0,0,3.76,3.31c1,.08,1.95.22,2.93.3,2.45.2,4.4,1.11,5.47,3.52a3.83,3.83,0,0,0,1.52,1.81c3.89,2,7.55,4.62,12.27,4.5a4.28,4.28,0,0,1,3,1.27c2.47,3,6.06,5.09,7.24,9.22,4.22.45,5.6,3.52,6.74,6.93a14.14,14.14,0,0,1-.32,9.16c-.92,2.77-.89,5.86-2.78,8.32a1.91,1.91,0,0,0-.28,1.4c.67,3.07-1,4.91-3.2,6.62s-2.59,3.36-1.54,5.94a4.86,4.86,0,0,0,6.28,3.11,24.66,24.66,0,0,0,7.47-3.48c3.34-2.36,6.39-5.65,11.28-5.07,2,.24,3.52-1.8,3.58-3.94a11.85,11.85,0,0,0-.41-2.88c-1-4.44-3.3-8.56-3.32-13.26a4.69,4.69,0,0,0-.61-1.86c-1-2.07-1.88-4.16-3-6.16-.68-1.23-1.11-2.4-.51-3.71.69-1.51,2.16-1.93,3.61-2.25a2.69,2.69,0,0,1,3.28,1.49c-.35.75-.7,1.51-1,2.26a2.79,2.79,0,0,0,0,2.78c.61,1.5,1.27,3,1.75,4.53C224-52.23,227-42.3,230-32.37a9.53,9.53,0,0,0,.89,1.7c.08.63.16,1.26.25,1.88s.25,1.42.38,2.12l.21,1.88c-.79,4.06.94,7.25,3.59,10.06a4,4,0,0,0,5.28,1,19.85,19.85,0,0,0,4.72-3.32c1.52-1.64,2.78-3.66,1.4-6.11,0-.64,0-1.28-.08-1.92a4.86,4.86,0,0,0-1.88-4.66q-1.53-4.27-3.05-8.55c.71-1.64,0-3.17-.4-4.73q-.91-3.77-1.84-7.54l2.61-1.06c1.48-.6,2.41-.29,3.07,1.2a6.38,6.38,0,0,1,.21,1.88c-1.64.08-2.5,1.08-2.23,2.55.62,3.35,1.08,6.78,2.79,9.82,2.29,4.08,4.4,5.07,8.87,3.72,3.58-1.07,7-2.52,10.58-3.78s7.24-2.89,11.18-3.24a18.92,18.92,0,0,0,8,2.15c4.57.35,9.12.83,13.68,1.3,1.46.15,2.91.43,4.35.69,2.4.45,4.78,1,7.19,1.39,4.67.74,9.48.46,14.06,2,.56.19,1.42-.48,2.14-.76,1.43.72,2.67,1.78,4.49,1.68,2.89-.17,5.8-.09,8.71-.11l5.48-.48q2.94,5.06,5.9,10.11c.8,1.36,1.06,3.13,2.84,3.76.09.66.19,1.32.29,2,.62,1.3,1.23,2.61,1.84,3.92l1.64,3.19c0,.66.07,1.33.1,2-2.61,0-5.21.07-7.81,0-9.12-.38-18.25-.68-27.36-1.28-6.36-.42-12.71,0-19.06-.14-5.38-.1-10.76,0-16.13-.11l-.51-2.69a55.87,55.87,0,0,0-6.47.21c-3.95.6-7.88,1.41-11.11,4.05l-19.34.37a14.31,14.31,0,0,0-1.87-2.77,2.23,2.23,0,0,0-3.28.13,13.59,13.59,0,0,0,.79,5c1,2.09,2.1,4.11,2.17,6.5a1.21,1.21,0,0,0,.07,1.91,33,33,0,0,0,0,3.85c.83,7.7,1.71,15.39,2.58,23.08-.83,2-.27,4.05.14,6,.34,1.69.89,3.34,1.35,5-.61,1.67-1.28,3.3-2.93,4.26-.64-.07-1.28-.18-1.93-.21a12.29,12.29,0,0,1-9.49-5.17c-4.39-5.61-8.91-11.12-13.38-16.66A6.46,6.46,0,0,0,223,24ZM207.53-31.45l-15.7,6a7.64,7.64,0,0,0-2.33.39c-5.29,2.71-10.53,5.5-15.79,8.26-2.26.93-4.55,1.81-6.78,2.8a2.2,2.2,0,0,0-1.27,2.44,20.63,20.63,0,0,0,.87,3.81,4.9,4.9,0,0,0,3.93,3.32,22.75,22.75,0,0,0,3.41.09c3,.86,5.85.21,8.59-.86,3.5-1.38,7-2.89,10.35-4.5,1.89-.9,3.53-2.29,5.42-3.17,4.89-2.29,9.85-4.41,14.77-6.63a38.48,38.48,0,0,0,5.26-2.62,16.87,16.87,0,0,0,3.57-3.29,4.24,4.24,0,0,0,.73-4.17c-1.07-3.37-6.07-6.58-9.45-4.88C211.23-33.47,209.39-32.44,207.53-31.45Z" style="fill: #c3bbb2"/>
  </g>
</svg>
