<svg xmlns="http://www.w3.org/2000/svg" width="240" height="310" viewBox="0 0 240 310">
  <title>fairemain</title>
  <g id="Layer_13" data-name="Layer 13">
    <path d="M254.44,9.36C251.89,8.8,251,6.9,251,4.64c0-3.43.4-6.85.62-10.27a13.54,13.54,0,0,0,.19-3.89c-1.71-7.24-1.48-14.63-1.94-22-.33-5.21-.46-10.45-.49-15.68A119.61,119.61,0,0,0,248-64.29c-.49-3.23-.76-6.5-1-9.77-.54-9.31-1-18.63-1.5-27.95-.83-14.56-1.15-29.11.3-43.66.31-3.09.45-6.21.75-9.3a28.58,28.58,0,0,1,.73-3.38l3.58-.11c.13-1,.25-1.94.38-2.91-2.65-3.61-2-7.25-.08-10.89.84-2.86,1.69-5.71,2.53-8.57l-2.69-.37-.93,1.71c-.49,1-1,2-1.54,3.13-.7-1.79-.7-1.79-.38-4,.1-3.91.15-7.81.33-11.71.35-7.78.77-15.54,1.15-23.32a5.06,5.06,0,0,1-1.81.14,5.14,5.14,0,0,1-1.84-.52l0,.4c-.57,10.95-.79,21.93-1.24,32.88-.39,9.33-.87,18.64-1.37,28-.49,9.15-1.42,18.3-1.47,27.46-.06,10.3.62,20.61,1,30.91.32,8,.71,16,1.1,24a52.16,52.16,0,0,0,.44,5.87c1.41,8.78,1.29,17.61,1.49,26.46.16,7.51.77,15,1.36,22.53a79.36,79.36,0,0,1-.44,18.61,16.2,16.2,0,0,1,0,2.31c-.31,2.54-.61,2.74-3.66,2.77a24.38,24.38,0,0,0-3.22.94,7.4,7.4,0,0,1-6.06.06c-.32,1-.65,2.06-1,3.14a23.43,23.43,0,0,1-3.06.2c-3.2-.2-6.4-.49-9.59-.75-1.34-.11-2.56-.41-2.88-2a15.69,15.69,0,0,1-3.2.87c-7.66.42-15.33.48-23,.53-5.07,0-10.13.35-15.2.58-6.26.29-12.39-.8-18.57-1.52C153.76,8,150,7.69,146.27,7.31l-20.5-2.12c-3.08.81-6.13,0-9.18-.22-4.51-.34-9-.88-13.5-1.34L96.32,3.3A7.57,7.57,0,0,1,91.1,3c-12.77-.47-25.54-.72-38.32-.16-4.56.2-9.15-.07-13.73-.13l-3.14,0-12-.07a4.53,4.53,0,0,1,3.9,3.62c1.45,0,2.9,0,4.35.07s2.26,1.1,2.09,2.68A6.67,6.67,0,0,1,33.88,11a12,12,0,0,0-.65,6.25,25.86,25.86,0,0,1,.12,4.4,11.42,11.42,0,0,0,1.7,6.52c1.62,2.82,3.17,5.68,4.75,8.52l3.31,1.69,1.65-1.53c-1.06-.73-2.27-1.29-2.8-2.62A8.62,8.62,0,0,0,41,32.5c-4.94-7.19-5.56-14.84-2.44-22.89.23-.61.44-1.23.68-1.84a4.81,4.81,0,0,1,.59-.69,10.92,10.92,0,0,1,2.45-.55c12.28-.26,24.56-.66,36.83-.6,6.7,0,13.39,1,20.09,1.38,9.8.64,19.62,1.08,29.41,1.81,8.49.63,17,1.36,25.43,2.42A172.27,172.27,0,0,0,185.43,13a94.54,94.54,0,0,1,13.25.2c8,.66,16,.05,24,.38,1.8.07,3.6.14,5.39.32a58.63,58.63,0,0,0,13.24.24c1.6-.2,3.25-.44,4.81.38,2.44,1.29,4.05.23,5.23-1.93l.84-1.31c.45-.08.89-.17,1.34-.22C254.89,10.91,254.89,10.92,254.44,9.36Z" style="fill: #5d536c"/>
    <path d="M231.55,259.93c1.62-1,1.65-2.72,1.75-4.34a117.3,117.3,0,0,1,2.31-15.5,22.86,22.86,0,0,1,4.18-8.78,9.87,9.87,0,0,1,2.09-2,4.31,4.31,0,0,1,6.78,2.08,8.52,8.52,0,0,1,.47,2.39c.22,3.91.55,7.83.5,11.73a129.06,129.06,0,0,1-.81,14.18c-.56,4.53-1.78,9-2.58,13.46a25.31,25.31,0,0,1-3.06,8.74,11.37,11.37,0,0,1-1.25,1.46c-.33-2.35-.63-4.71-1-7.05a7.55,7.55,0,0,0-1-1.79c-1.42,2.26-2.49,4.37-5.16,4.32a27.1,27.1,0,0,1-1.2-9.34c0-1.47-.1-2.88-1.52-3.77C230.66,263.86,231.68,261.85,231.55,259.93Zm8.64,8.14c3.17-7.44,2.65-15.34,3.47-23,.14-1.36.54-2.81-.33-4.5a6.18,6.18,0,0,0-2.17,4.41C240.39,252.63,238.84,260.3,240.19,268.07Z" style="fill: #7d7285"/>
    <path d="M192.09,255.81c-.17.65-.34,1.29-.5,1.93-1.79.75-1.29,2.89-2.46,4a9.83,9.83,0,0,0-2.64,4,37.07,37.07,0,0,1-3.73,8.4c-2.21,3.3-2.68,6.84-2.93,10.57a12.49,12.49,0,0,1-.37,2.88c-.16.53-.8.9-1.23,1.35.05-3.24.1-6.47.15-10.11-1.75-1.14-3.75-2.63-4.38-5.12a10.13,10.13,0,0,1,.1-2.79,2.75,2.75,0,0,0,.85-.45c2-2.15,3.6-4.55,6.36-5.93a5.68,5.68,0,0,0,2.32-3c1.31-3.49,2.36-7.07,3.52-10.62,2.38-6.79,4.71-13.59,7.18-20.35,1.35-3.69,2.93-7.29,4.42-10.93,1.06-2.57,2-5.19,3.3-7.66a6,6,0,0,0,.32-4.74c1.07-1.26,2.11-2.49,3.3-3.87a7.5,7.5,0,0,1,1.8.19c4.2,1.46,5.09,2.93,3.6,7a67.6,67.6,0,0,1-4.77,10.75c-4.15,7.14-6.88,14.85-9.75,22.52-1.26,3.37-2.48,6.75-3.72,10.13C192,254.29,191.43,254.83,192.09,255.81Z" style="fill: #5d536c"/>
    <path d="M187.15,250.89c-1.16,3.55-2.21,7.13-3.52,10.62a5.68,5.68,0,0,1-2.32,3c-2.76,1.38-4.41,3.78-6.36,5.93a2.75,2.75,0,0,1-.85.45l-2.78-.16c.19-4.23.66-8.38,2.75-12.2.5-.9.43-2.11.68-3.5l-2.07,1a31.57,31.57,0,0,1,.74-3.78c1.45-4.5,3-9,4.53-13.44a10.44,10.44,0,0,1,1.29-2c.31.73.95,1.49.88,2.18-.27,2.91-.72,5.8-1.16,8.68-.29,1.92-.73,3.83-1,5.75-.07.5.36,1,.87,2.36a31.92,31.92,0,0,0,3.73-10.18,26.79,26.79,0,0,1,1.16-4.71,25.46,25.46,0,0,0,2-7,10.31,10.31,0,0,1,.9-2.77c1.42-3.64,2.82-7.28,4.31-10.89a8.18,8.18,0,0,1,1.45-1.81c.23,3.83-1.28,7.34-2.08,11-1.17,5.25-2.6,10.43-3.86,15.66a14,14,0,0,0-.47,3.86C186.06,249.56,186.76,250.22,187.15,250.89Zm-9.41,9.45a4.66,4.66,0,0,0-.66-.35c-.05,0-.27.24-.25.29a4,4,0,0,0,.41.6Z" style="fill: #706578"/>
    <path d="M178.23,288.94c.43-.45,1.07-.82,1.23-1.35a12.49,12.49,0,0,0,.37-2.88c.25-3.73.72-7.27,2.93-10.57a37.07,37.07,0,0,0,3.73-8.4,9.83,9.83,0,0,1,2.64-4c1.17-1.13.67-3.27,2.46-4,.54,1.73-.42,3.19-.88,4.73-1.6,5.32-3.46,10.57-4.83,15.95a66.34,66.34,0,0,0-1.51,10.64,11,11,0,0,0,.7,4.32,6.4,6.4,0,0,0,8.13,4.35A52.16,52.16,0,0,0,200,295c1.91-.83,3.56-2.27,6-2.76.08.82.35,1.48.17,1.95-3.19,8.16-13.82,12.18-21.26,7.86C180,299.18,177.56,294.78,178.23,288.94Z" style="fill: #7d7285"/>
    <path d="M172.68,256l2.07-1c-.25,1.39-.18,2.6-.68,3.5-2.09,3.82-2.56,8-2.75,12.2-.15.29-.31.58-.46.88a1.86,1.86,0,0,0-1.67,2.16,12.19,12.19,0,0,1-10.16,5,7.92,7.92,0,0,0-6.38,3.07c-1.93,2.19-2.45,3.75-2.34,7.36l3.95.38c.32.48.67.74.66,1a14.28,14.28,0,0,1-.35,3.83,3.25,3.25,0,0,1-5.48,1.61c-3.09-2.49-4.92-5.41-4-9.79a20.81,20.81,0,0,1,6.3-11.38c2.13-2,4.54-3.26,7.57-2.53s4.91-.57,6.69-2.88a43.07,43.07,0,0,0,5.74-10.22C171.85,258.15,172.26,257.09,172.68,256Z" style="fill: #5d536c"/>
    <path d="M192.45,218.4a8.18,8.18,0,0,0-1.45,1.81c-1.49,3.61-2.89,7.25-4.31,10.89a10.31,10.31,0,0,0-.9,2.77,25.46,25.46,0,0,1-2,7,26.79,26.79,0,0,0-1.16,4.71,31.92,31.92,0,0,1-3.73,10.18c-.51-1.31-.94-1.86-.87-2.36.23-1.92.67-3.83,1-5.75.44-2.88.89-5.77,1.16-8.68.07-.69-.57-1.45-.88-2.18.57-1.87,1.15-3.74,1.72-5.6.83-.4,1.21-1,.61-1.84.26-.66.51-1.32.77-2,.83-.41,1.17-1,.57-1.84,1.72-5.64,3.38-11.29,5.2-16.89a15,15,0,0,1,2.15-3.84c.94-1.34,2.24-1.63,3.92-1.12a2.36,2.36,0,0,1,1.88,2.52,7.77,7.77,0,0,1-.3,1.93C194.68,211.56,193.56,215,192.45,218.4Z" style="fill: #5d536c"/>
    <path d="M212.2,288.21c-2.24-.07-3.71-1.44-5-3-.81-.94-1.6-1.88-2.4-2.83l-.57-6.84a12,12,0,0,0,.76-6.16c-.34-1.61-1.4-1.49-2.58-1.05a10,10,0,0,0-2.05-1.66,2.94,2.94,0,0,1-1.83-2.38c2-3.37,5.42-3,8.83-3a8,8,0,0,1,1.36-1.92,5.39,5.39,0,0,1,2.5-1.2c2.1-.26,3.61,1,3.35,3.11-.45,3.69-1.25,7.34-1.93,11a67.25,67.25,0,0,0-1.22,6.67c-.19,2.42.35,2.88,3.21,4C214.39,284.92,214.57,287.14,212.2,288.21Z" style="fill: #5d536c"/>
    <path d="M231.55,259.93c.13,1.92-.89,3.93.46,5.75-.38,2.05-.75,4.1-1.13,6.15l-2.44-3.45c-1,3.22-2,5.69.64,7.89a6.06,6.06,0,0,1-2.74,4.67c-2.33-.8-2.35-.8-2.19-2.35.08-.72.26-1.43.43-2.36l-7.41,2.83c-1.51-4.28-1.21-8.53,0-12.85,1-3.7,3.57-6.06,6.52-8.15a5.87,5.87,0,0,1,4.66-.77A4.06,4.06,0,0,1,231.55,259.93Zm-4.86,3.13a12,12,0,0,0-4,8.8c0,.5.37,1,.88,2.36C225.88,270.63,227.52,267.75,226.69,263.06ZM217.91,273a5.05,5.05,0,0,0-.34,1.61c.08.37.52.66.8,1,.15-.41.45-.83.39-1.21S218.32,273.64,217.91,273Z" style="fill: #706578"/>
    <path d="M198.48,264.27a2.94,2.94,0,0,0,1.83,2.38,10,10,0,0,1,2.05,1.66c-.78,1.24-1.64,2.43-2.33,3.72-1.13,2.13-2.23,4.31-1.6,7.18a6.56,6.56,0,0,0,2-.58c1.31-1,2.53-2.06,3.79-3.11l.57,6.84c-1.43,1.05-2.73,2.4-4.32,3.08a6,6,0,0,1-8.49-4.63,10,10,0,0,1-.18-3.4C192.61,272.34,194.2,267.6,198.48,264.27Z" style="fill: #706578"/>
    <path d="M241.49,287.44c.34.89.72,1.76,1,2.66.52,1.53.91,3.12,1.52,4.61,1,2.56,2.78,4,5.72,3.11a3,3,0,0,1,1,.08c1.25,1.42.58,2.75-.25,4a3.86,3.86,0,0,1-3.32,1.72,6.93,6.93,0,0,1-5.63-2.44,47.46,47.46,0,0,1-3.84-5.57,39.92,39.92,0,0,1-2-4.24l-5.14,1.05a21.39,21.39,0,0,0,.17-3.19,20,20,0,0,0-.72-3l4-2.77a6.43,6.43,0,0,0,3.8,6.42Z" style="fill: #7d7285"/>
    <path d="M230,286.18a20,20,0,0,1,.72,3,21.39,21.39,0,0,1-.17,3.19.79.79,0,0,1-.66.18c-1.45-.57-2.9-.92-4.35,0a8.55,8.55,0,0,1-4.75-3,4.94,4.94,0,0,0-3.74-1.84c.34-2,.29-3.86-1.77-5a5.91,5.91,0,0,0,1.85-3.65l7.41-2.83c-.17.93-.35,1.64-.43,2.36-.16,1.55-.14,1.55,2.19,2.35-.33.71-.69,1.41-1,2.14-.87,2.17.44,4.7,3.37,3.61Z" style="fill: #5d536c"/>
    <path d="M241.49,287.44l-3.62,2.39a6.43,6.43,0,0,1-3.8-6.42l.66-4.62c2.67,0,3.74-2.06,5.16-4.32a7.55,7.55,0,0,1,1,1.79c.4,2.34.7,4.7,1,7.05C241.78,284.69,241.64,286.07,241.49,287.44Z" style="fill: #5d536c"/>
    <path d="M215.32,282.71c2.06,1.15,2.11,3,1.77,5-1.53,1.12-3.1,1.84-4.89.49,2.37-1.07,2.19-3.29,2.38-5.33A.7.7,0,0,1,215.32,282.71Z" style="fill: #706578"/>
    <path d="M225.58,292.57c1.45-.93,2.9-.58,4.35,0A3.06,3.06,0,0,1,225.58,292.57Z" style="fill: #7d7285"/>
    <path d="M182.91,225.52c.6.86.26,1.43-.57,1.84Z" style="fill: #706578"/>
    <path d="M181.57,229.35c.6.88.22,1.44-.61,1.84C181.16,230.57,181.37,230,181.57,229.35Z" style="fill: #706578"/>
    <path d="M169.19,273.8a1.86,1.86,0,0,1,1.67-2.16A2.15,2.15,0,0,1,169.19,273.8Z" style="fill: #706578"/>
    <path d="M192.09,255.81c-.66-1-.14-1.52.74-1.92A1.36,1.36,0,0,1,192.09,255.81Z" style="fill: #7d7285"/>
    <path d="M57.23,43.24l1.47-.5Z" style="fill: #d5cbbe"/>
    <path d="M435.24-130.86c.9-3.29,1.84-6.58,2.68-9.89.64-2.53,1-5.14,1.75-7.63.95-3.09,2.47-3.74,5.63-2.75a22.49,22.49,0,0,1,3.2,1.23c12.39,6.15,23.68,13.75,32.66,24.5a68.21,68.21,0,0,1,10,16.74c.34,1.42.63,2.86,1,4.27a93.3,93.3,0,0,1,3.71,24.67A79.48,79.48,0,0,1,492.35-56a57.64,57.64,0,0,1-15.44,24.75,93.26,93.26,0,0,1-31.86,19.92C436.65-8.11,428.18-5,419.8-1.74a101.74,101.74,0,0,0-35,23.07c-8.85,8.85-16.68,18.48-22.35,29.7a76.83,76.83,0,0,0-3.89,9c-3.05,8.72-1.46,17.15,2.18,25.3a58.63,58.63,0,0,0,8,13.43c-.31,1.1-.63,2.19-.94,3.29-.61,2.16-.31,3.1,1.82,3.76a8.76,8.76,0,0,1,5.54,4.46,13.44,13.44,0,0,0,2.52,2.68c0,.57,0,.89,0,1.21-.35,3.17.38,3.81,3.33,2.53a3.4,3.4,0,0,1,4.38.93c1.4,1.6,2.67,3.32,4.13,4.86a7.84,7.84,0,0,0,3,2.32c2.11.65,3.14,2.08,4.16,3.85,3,5.16,3,5.13-2.87,5.81-3.13.36-6.15.38-8.89-1.71a4.24,4.24,0,0,0-3.23-.49c-2.48.64-5.17,1.07-6.61,3.55l-6.4.26a5.83,5.83,0,0,1-2.63-3.58c-.77-2.59-2.52-3.62-5.11-3.7a21,21,0,0,1-3.4-.66c-1.13-3.17-3.53-4.66-6.58-5.28l.27-.28c.68-.91,1.45-1.77,2-2.75a3.1,3.1,0,0,0-.67-4.37c-1.09-1-2.29-1.83-3.45-2.74-.09-.62-.19-1.24-.29-1.86.77-.14,1.62-.34,1.49-1.33-.16-1.33-.18-2.79-1.64-3.54-.41-3.41-.89-6.81-1.2-10.23-.55-6-.92-12.06-1.49-18.08-.5-5.37-1.17-10.73-1.8-16.08a6.64,6.64,0,0,0-.55-1.88A2.39,2.39,0,0,0,340,58.44c-3.36,1.84-5.65,4.54-6,8.44a58.31,58.31,0,0,0,0,7.82c.51,10.29,1.09,20.58,1.62,30.87a14.37,14.37,0,0,1-.15,2.93,6.41,6.41,0,0,1-.67,1.6,3.77,3.77,0,0,1-3.64-1.53,55.52,55.52,0,0,1-5.53-6.84c-3.5-5.44-5.39-11.56-6.7-17.83-.9-4.32-1.37-8.72-2.13-13.07a57.92,57.92,0,0,0-1.61-7.16,2.2,2.2,0,0,0-3.65-.73c-3.54,3.73-6.52,7.76-6.92,13.18a26.9,26.9,0,0,0,.94,9.71,87.74,87.74,0,0,1,3.2,23.28,69.28,69.28,0,0,1-.4,7.34,6.92,6.92,0,0,1-.82,2,4.68,4.68,0,0,1-1.31,0,4.83,4.83,0,0,1-1.3-.66,22.27,22.27,0,0,1-8.32-11.26c-1-2.94-1.89-5.89-2.84-8.84-.21-4.83-.4-9.65-.66-14.48a11.22,11.22,0,0,0-4.79-9.05c-2.07-1.6-2.47-1.62-4.48-.25-1.64.79-2.85,2.56-5,2.19l-1.3,0-1.17,1.74.09,1.54c-.05,2.44-.23,4.9-.1,7.34.27,5.23.67,10.45,1.09,15.67.24,2.94.63,5.86,1,8.79.49,4.39,1,8.77,1.49,13.16-1.41-.22-2.9-1-4,.65s-.71,3.12.09,4.62c.69,1.31,1.44,2.58,2.2,3.84,7.39,12.2,11.76,25.56,15.09,39.3,1.54,6.36,2.8,12.8,4.15,19.21a59.77,59.77,0,0,0,9.68,21.87c2.81,4,5.54,8.12,8.4,12.11,1.34,1.86,2.92,3.54,4.37,5.32a3.17,3.17,0,0,0,4,.87,13.15,13.15,0,0,0,3.32-2c2.07-1.77,3-4.18,3.7-6.78a70.29,70.29,0,0,0,2.14-17.53c0-5.77,1.84-11,4.26-16,1.49-3.11,3.45-6,6.82-7.46,2.81,3,5,6.3,4.64,10.8-.23,2.79.35,3.3,3.18,4,1.41.33,3,.25,3.65,2.24-.56,1.14-1.6,2.38-1.75,3.73-.44,3.82-1.83,7.7.2,11.51a3.34,3.34,0,0,1,.25,1.91,10.87,10.87,0,0,0,1.84,8.3,5.44,5.44,0,0,1-.57,7.2,8,8,0,0,0-1.74,2.91,4.33,4.33,0,0,1-3.64,3.46,6.19,6.19,0,0,0-1.85.61c-1.36.75-2.5,1.84-2,3.51.63,2.19-.31,3.82-1.44,5.44-1.57,2.26-3.2,4.49-4.93,6.92a6.88,6.88,0,0,0-5.55.08,24.21,24.21,0,0,1-8.34-3.73c.91-1.46,1-2.34,0-2.72-1.18-.49-2.42-.84-3.56-1.23a7,7,0,0,1-.65-1.46,7.38,7.38,0,0,0-4.82-5.7c-3.45-1.37-7-2.51-10.57-3.55-.81-.23-1.86.37-2.81.58a56.5,56.5,0,0,1-11.16-10.23c-12.3-14-20.66-30.2-26-48a165.1,165.1,0,0,1-5.46-23.93,104.06,104.06,0,0,1-.39-25c.74-7.67,1.74-15.3,2.91-22.92,1.39-9.06,2.22-18.23,2.74-27.38a50.42,50.42,0,0,0-2.95-19.34,32.88,32.88,0,0,0-7.46-12,19.6,19.6,0,0,0-11.63-5.84c-7.51-1.14-14.72.12-21.72,2.68a58.82,58.82,0,0,0-21.26,13.77,113.36,113.36,0,0,0-19,25.55,71.45,71.45,0,0,0-8.55,26.51c-1,8.17-.64,16.36-.82,24.54-.23,10.34-.87,20.65-3.51,30.71a60.08,60.08,0,0,1-17.52,29.09,73.33,73.33,0,0,1-29.06,16.93,53.77,53.77,0,0,1-25.27,1.55,16.09,16.09,0,0,0-1.95-.29c-11.78-.64-22.32-5.26-32.38-10.81a85.43,85.43,0,0,1-21-16,136.8,136.8,0,0,1-19.44-25.24A77.52,77.52,0,0,1,14.52,142c-2-7.57-1.21-15,.87-22.31,3.36-11.91,10.19-21.56,19.67-29.35,3.79-3.12,7.75-6.07,11.83-8.8,7.19-4.81,15.32-7.36,23.66-9.31l29.68-6.94A39.65,39.65,0,0,0,118.43,55c6.23-5.87,7.47-14.14,3.18-21.52-3-5.15-7.25-8.9-13.17-10.32a19.44,19.44,0,0,0-6.3-.58,37.3,37.3,0,0,0-15.33,4.89c-5,2.88-10,5.55-15.1,8.24a39,39,0,0,1-12.66,3.78A20.19,20.19,0,0,1,48,38.1c-1.06-.45-2.13-.85-3.2-1.27-1.06-.73-2.27-1.29-2.8-2.62A8.62,8.62,0,0,0,41,32.5c-4.94-7.19-5.56-14.84-2.44-22.89.23-.61.44-1.23.68-1.84a4.81,4.81,0,0,1,.59-.69,10.92,10.92,0,0,1,2.45-.55c12.28-.26,24.56-.66,36.83-.6,6.7,0,13.39,1,20.09,1.38,9.8.64,19.62,1.08,29.41,1.81,8.49.63,17,1.36,25.43,2.42A172.27,172.27,0,0,0,185.43,13a94.54,94.54,0,0,1,13.25.2c8,.66,16,.05,24,.38,1.8.07,3.6.14,5.39.32a58.63,58.63,0,0,0,13.24.24c1.6-.2,3.25-.44,4.81.38,2.44,1.29,4.05.23,5.23-1.93l.84-1.31c.45-.08.89-.17,1.34-.22,1.32-.13,1.32-.12.87-1.68,1-4.27.47-8.81,2.28-13,.35-.81,0-1.92,0-2.89q-.13-6.57-.29-13.14c0-1.46-.11-2.92-.2-4.38-.16-2.75-.49-5.51-.5-8.27,0-4.71.16-9.42.24-14.13a3.16,3.16,0,0,0-.08-1,12.38,12.38,0,0,1,.56-7.67c-.77-2.09-1.88-3.74-1.88-5.39,0-5.68-.5-11.39.48-17.06.25-1.44.29-2.92.43-4.38,1-1.25.92-1.36-.73-2.06.08-1,.17-2,.25-2.94,1.62-1.49,1.44-3.47,1.24-5.35-.06-.58-1-1.07-1.52-1.6,0-.65.11-1.3.16-2A2.24,2.24,0,0,0,257-98.07c.16-2.76.35-5.52.32-8.29,0-1.18-.13-2.28.69-3.22,1.53-1.76,1.59-3.83,1.39-6a19,19,0,0,1,2.2-10.3c1.1-2.18,1.75-4.19,1.25-6.51a4.17,4.17,0,0,1,.68-3.72,9.3,9.3,0,0,0,1.9-7.78,4.54,4.54,0,0,1,.12-1.46,12,12,0,0,0-1-7.17,7.14,7.14,0,0,1-.67-5.24c.45-1.41.31-2.93.63-4.26.89-3.75,1.76-7.68,5.45-10a9.77,9.77,0,0,0,4.65-6.06,8.67,8.67,0,0,1,3.62-5.09,39.57,39.57,0,0,1,6.58-4.2c4.2-1.82,8.58-3.2,13.3-2.09,1.46.34,3,.68,3.54,2.24s-.62,2.74-1.79,3.7a2.91,2.91,0,0,1-.42.25c-4.53-2.54-8.46-1-12.17,1.84a27,27,0,0,0-2.16,2,54.47,54.47,0,0,1-4.89,4.73c-3.28,2.48-5.57,5.45-6,9.65l-.92,1.44c1,1.93.32,4,.45,6-.24,1.17-.45,2.34.37,3.39a116.74,116.74,0,0,0-1.72,18c0,10.87,1.4,21.56,2.94,32.25a176.39,176.39,0,0,0,7.4,29.52,28.45,28.45,0,0,0,7.1,11.63,8.49,8.49,0,0,0,12.64-.3,19.81,19.81,0,0,0,2.82-4,39.13,39.13,0,0,0,4.44-14c1.18-10.59,2.38-21.19.27-31.81-.1-.48-.08-1-.14-1.47-1.49-11.71-2-23.49-2.41-35.28-.19-5.73-.43-11.46-.64-17.18,1.26-.11,2.2-.6,2.28-2a2.35,2.35,0,0,0-1.24-2.44,12.62,12.62,0,0,0-2.32-.65l-4-9c5.72.09,5.72.09,7,5.32,2.32.5,4.51,1,6.7,1.46a1.87,1.87,0,0,0,2.37-1.8c0-.81-.25-1.62-.24-2.43a8.94,8.94,0,0,1,.29-3.37,22.63,22.63,0,0,0,1.37-7.2c.3-3.71,2.72-6.17,5-8.67.28-.3.93-.24,1.41-.34a23.76,23.76,0,0,1,.78,2.83,95.34,95.34,0,0,1-.37,33.65c-3.32,16.89-3.73,33.75-.28,50.64,1.84,9,4.7,17.66,9.88,25.41,8.71,13,25.23,18.74,39.59,13.05a51.89,51.89,0,0,0,6.08-1.8A78.45,78.45,0,0,0,399-84.58c4.11-3.26,8.21-6.54,12.11-10a91.32,91.32,0,0,0,21.39-27.89C433.79-125.1,434.35-128.06,435.24-130.86ZM208.72,28l-.05-.07c-.43-1.2-1.15-1.37-2.12-.57l-1.88.34-2.13.26-1.9.28a3,3,0,0,0-3.09.27l-2.82-.05a23.82,23.82,0,0,0-2.85-.63c-5.38-.52-10.78-.94-16.16-1.46-8.81-.85-17.63-1.63-26.41-2.67-6.51-.77-13-1.92-19.44-2.89a10.42,10.42,0,0,0-1.47-.13,2.26,2.26,0,0,0-2.33,2.55,18.09,18.09,0,0,0,1.39,4.15c1.44,3.12,3.15,6.13,4.48,9.29a59.85,59.85,0,0,1,3,8.82c1.11,4.5-1,8.31-3.24,12a2.25,2.25,0,0,1-1.1,1c-3.82,1.14-5.54,4.39-7.57,7.36-5.4,7.88-12.65,13.58-21,18.13a12.14,12.14,0,0,1-11.29.5c-3-1.29-6.12-2.34-9.23-3.38-9.19-3.07-16.65.43-23.44,6.3a5.77,5.77,0,0,0-.94,1.14c-1.61,2.28-1.59,4.22.39,6.16a25.22,25.22,0,0,0,4.66,3.56,54.11,54.11,0,0,0,5.33,2.51C72.48,103,75.39,107,77,112a7.7,7.7,0,0,1-1.17,7.46c-1.94,2.42-4,4.73-6.12,7-2.56,2.78-5.68,3.11-9,1.6a46.85,46.85,0,0,1-6.92-3.7,9.68,9.68,0,0,0-11.51-.17,68.85,68.85,0,0,0-9.89,7.25c-5.2,4.85-7.26,10.79-4.64,17.83a58,58,0,0,0,7.59,14.27c3.51,4.8,8.47,7.08,14.08,8.22a6,6,0,0,0,1.77-.13c.33-.4.66-.63.72-.91.3-1.43.61-2.87.79-4.33a48.16,48.16,0,0,1,2.39-10.52,27.63,27.63,0,0,1,9.4-12.32,6.55,6.55,0,0,1,8.81,1,10.16,10.16,0,0,1,2.57,6.73A23.59,23.59,0,0,1,74.25,159c-.86,2.5-1.57,5-1,7.7.4,2.06.46,4.26,1.26,6.15a40.74,40.74,0,0,0,8.94,13.31,34.12,34.12,0,0,0,20.06,9.3,39.24,39.24,0,0,0,21-3.43c4.14-.83,7.48-3.17,10.74-5.67,4.81-3.68,5.52-8.69,4.33-14.12a7.71,7.71,0,0,0-6.65-6.38c-1.13-.19-2.25-.43-3.38-.56q-9.27-1.08-18.54-2.11c-6.55-.72-10.42-5.09-9.81-11.66a26.27,26.27,0,0,1,7.39-16.21c1.24-1.29,2.62-2.45,3.94-3.68a21.5,21.5,0,0,1,13.59,3.09c2.9,1.77,5.82,3.66,9.28,4.28l3.65,1.4,1.25.53a11.09,11.09,0,0,0,5.87.56l1.27-.34c6.5-1.89,10.39-6.41,10.94-12.87.41-5-.06-9.83-2.5-14.31a76.44,76.44,0,0,0-4.88-8.5,42.17,42.17,0,0,1-6.19-12.74,21.25,21.25,0,0,1,1.77-17.54,67,67,0,0,1,7.4-10.36A97.56,97.56,0,0,1,172,49a236.25,236.25,0,0,1,20.62-12.37c1.68-.91,3.7-1.46,4.62-3.43l2.11-1-.15.08a6.9,6.9,0,0,1,4.53-1.26c1.12.05,2.24.07,3.36.09,1.09.69,1.85.47,2.21-.81.08-.39.17-.78.25-1.17ZM394.37-28.37a71.34,71.34,0,0,1-24.71,5.19c-1.3.05-2.6.08-3.89.25a1.61,1.61,0,0,0-1.43,1.69,1.41,1.41,0,0,0,1.5,1.56c3.25-.09,6.5-.19,9.72-.52,3.88-.41,7.76-.92,11.59-1.65A6.06,6.06,0,0,1,393.3-20L398-21.88a49.61,49.61,0,0,1,12.05.42,19.5,19.5,0,0,0,8.63-.19l2-.16,2-.29A8.19,8.19,0,0,0,425-22a121.66,121.66,0,0,0,11.79-3.28,70.28,70.28,0,0,0,23.58-14.67,33.81,33.81,0,0,0,8.28-10.77l.79-1.29a25.14,25.14,0,0,0,7.32-15.74c.24-1.56.48-3.12.73-4.67,1-4.35.27-8.7,0-13,0-.3-.28-.57-.43-.85,0-5-2.14-9.49-3.82-14a22.13,22.13,0,0,0-11-12.6c-.87-.44-1.68-1-2.51-1.5a16.22,16.22,0,0,0-6.16-3.56l-2.37-1.09c-1.66-1.4-3.39-2.53-5.73-1.65a8.06,8.06,0,0,1-.89,2.35c-1.48,1.81-1,3.56-.35,5.52a48.65,48.65,0,0,1,1.52,24.68c-.45,2.24-1.16,4.42-1.67,6.65A32,32,0,0,1,437.44-68c-3.34,4-6.83,7.92-10.38,11.75-7.56,8.16-15.29,16.14-24.19,22.87ZM333.61,19.71c-.05-2.18,0-3.82-.11-5.45C333.23,8.5,331.74,3,330.31-2.58a42.13,42.13,0,0,0-8.8-16.81,14.22,14.22,0,0,0-12.09-5.4,42.19,42.19,0,0,0-7.25,1c-4.46,1-8.82,2.71-13.32,3.34s-8.76,2.62-13.14,3.87a5.06,5.06,0,0,0-3.83,5.61c.2,3.1.39,6.2.84,9.26a13.63,13.63,0,0,1,0,4.85c-3.12,15.07.78,28.13,11.13,39.43A44.91,44.91,0,0,0,294.67,51,13.29,13.29,0,0,0,306,52.05a29.81,29.81,0,0,0,11.38-6.59c3.57-3.36,7.13-6.8,9.61-11.09,1.72-3,3.31-6,4.74-9.12A47.45,47.45,0,0,0,333.61,19.71ZM62.68,29.15a20.64,20.64,0,0,0,2.1-.06c3.87-.44,5.83-3,5.09-6.8a40,40,0,0,0-1.66-5.64,6.92,6.92,0,0,0-3-3.78c-1-.59-1.86-1.29-2.8-1.93-1.52-1-2.88-.94-3.83.46A19.41,19.41,0,0,0,55.07,21C54.75,25.56,57.66,28.74,62.68,29.15Zm209-191.59a4.57,4.57,0,0,0-.66-.47s-.29.2-.27.26a3.23,3.23,0,0,0,.33.64Z" style="fill: #d9d0c3"/>
    <path d="M177.74,260.34l-.5.54a4,4,0,0,1-.41-.6s.2-.31.25-.29A4.66,4.66,0,0,1,177.74,260.34Z" style="fill: #5d536c"/>
    <path d="M217.91,273c.41.64.8,1,.85,1.39s-.24.8-.39,1.21c-.28-.33-.72-.62-.8-1A5.05,5.05,0,0,1,217.91,273Z" style="fill: #5d536c"/>
    <path d="M73.23,166.67c-.55-2.68.16-5.2,1-7.7a23.59,23.59,0,0,0,1.59-7.66,10.16,10.16,0,0,0-2.57-6.73,6.55,6.55,0,0,0-8.81-1,27.63,27.63,0,0,0-9.4,12.32,48.16,48.16,0,0,0-2.39,10.52c-.18,1.46-.49,2.9-.79,4.33-.06.28-.39.51-.72.91a6,6,0,0,1-1.77.13c-5.61-1.14-10.57-3.42-14.08-8.22a58,58,0,0,1-7.59-14.27c-2.62-7-.56-13,4.64-17.83a68.85,68.85,0,0,1,9.89-7.25,9.68,9.68,0,0,1,11.51.17,46.85,46.85,0,0,0,6.92,3.7c3.31,1.51,6.43,1.18,9-1.6,2.1-2.29,4.18-4.6,6.12-7A7.7,7.7,0,0,0,77,112c-1.57-5.08-4.48-9.08-9.43-11.36a54.11,54.11,0,0,1-5.33-2.51,25.22,25.22,0,0,1-4.66-3.56c-2-1.94-2-3.88-.39-6.16a5.77,5.77,0,0,1,.94-1.14c6.79-5.87,14.25-9.37,23.44-6.3,3.11,1,6.22,2.09,9.23,3.38a12.14,12.14,0,0,0,11.29-.5c8.32-4.55,15.57-10.25,21-18.13,2-3,3.75-6.22,7.57-7.36a2.25,2.25,0,0,0,1.1-1c2.27-3.67,4.35-7.48,3.24-12a59.85,59.85,0,0,0-3-8.82c-1.33-3.16-3-6.17-4.48-9.29a18.09,18.09,0,0,1-1.39-4.15,2.26,2.26,0,0,1,2.33-2.55,10.42,10.42,0,0,1,1.47.13c6.47,1,12.93,2.12,19.44,2.89,8.78,1,17.6,1.82,26.41,2.67,5.38.52,10.78.94,16.16,1.46a23.82,23.82,0,0,1,2.85.63c.63,1.7.41,3.84,2.5,4.77-.92,2-2.94,2.52-4.62,3.43A236.25,236.25,0,0,0,172,49a97.56,97.56,0,0,0-18.05,15.81,67,67,0,0,0-7.4,10.36,21.25,21.25,0,0,0-1.77,17.54A42.17,42.17,0,0,0,151,105.45a76.44,76.44,0,0,1,4.88,8.5c2.44,4.48,2.91,9.34,2.5,14.31-.55,6.46-4.44,11-10.94,12.87l-1.27.34a11.09,11.09,0,0,1-5.87-.56l-1.25-.53-3.64-1.4,1.88-1.67a48.92,48.92,0,0,0,6.7,1.39,8.51,8.51,0,0,0,4.71-.9c3.66-2.14,6.45-5.11,6.68-9.68a33.2,33.2,0,0,0-.14-5.37c-.63-5.37-3.26-9.94-6.22-14.29a52.59,52.59,0,0,1-6.54-12.06c-2.84-8.14-2.66-16.1,2-23.61a84.59,84.59,0,0,1,17.25-19.38,105.1,105.1,0,0,1,18.95-13.15c3.77-2,7.39-4.25,11.05-6.43.83-.49,1.7-1.1,1-2.47-1.87-.89-4-.74-6.13-1q-20.06-2.08-40.11-4.13c-3.26-.34-6.51-.76-9.78-1-1.73-.14-3.58-.55-5.07.75,0,.3-.1.48-.05.62,2,5.18,4,10.32,5.91,15.54,2.23,6.21.72,12-2.68,17.31a5.49,5.49,0,0,1-2.49,2.27c-3.54,1.17-5.58,3.89-7.61,6.69A65.49,65.49,0,0,1,108,84.18a80.6,80.6,0,0,1-7.28,4.06,8.4,8.4,0,0,1-6.21.7c-1.58-.4-3.11-1-4.65-1.52-3.71-1.29-7.35-2.82-11.13-3.87-7.15-2-12.73,1.36-17.8,5.87a2.21,2.21,0,0,0-.15,3.48,14.88,14.88,0,0,0,3,2.49,42.91,42.91,0,0,0,4.4,2.19c6.08,2.77,9.62,7.66,11.62,13.86a10.12,10.12,0,0,1-1.42,9.34A60.08,60.08,0,0,1,70.29,130a7.64,7.64,0,0,1-4.83,2.12,12.09,12.09,0,0,1-7.12-1.46c-2-1.09-4.07-2.12-6-3.35a8.68,8.68,0,0,0-10.56.44,78.64,78.64,0,0,0-9,7.63,10.09,10.09,0,0,0-3,9.9A44.32,44.32,0,0,0,31,150a47.61,47.61,0,0,0,7.22,12.23,17.36,17.36,0,0,0,7.52,5.34c2,.82,3.21.25,3.7-1.81.57-2.39,1-4.82,1.43-7.23,1.51-8.1,6.45-13.84,12.9-18.45a7.07,7.07,0,0,1,8.75.06c4.15,3.06,7,7,6.17,12.53-.23,1.62-.42,3.25-.73,4.85-.59,3-1.25,6.08-1.89,9.12Z" style="fill: #5d536c"/>
    <path d="M112.49,131.61c-1.32,1.23-2.7,2.39-3.94,3.68a26.27,26.27,0,0,0-7.39,16.21c-.61,6.57,3.26,10.94,9.81,11.66q9.27,1,18.54,2.11c1.13.13,2.25.37,3.38.56a7.71,7.71,0,0,1,6.65,6.38c1.19,5.43.48,10.44-4.33,14.12-3.26,2.5-6.6,4.84-10.74,5.67a1.64,1.64,0,0,1,.38-2.06,7.26,7.26,0,0,0,1-1.5,21.85,21.85,0,0,0,8.87-6c4.72-5.13,2.47-12.05-4.29-13.5q-1.44-.3-2.91-.48c-5.19-.63-10.38-1.22-15.57-1.86-1.3-.16-2.58-.47-3.88-.63a10.36,10.36,0,0,1-7.22-4.64A14.31,14.31,0,0,1,98,151.67a30.28,30.28,0,0,1,5.8-15.43c2-2.8,4-5.64,7.38-7l2.44.58C113.25,130.43,112.87,131,112.49,131.61Z" style="fill: #706578"/>
    <path d="M62.68,29.15c-5-.41-7.93-3.59-7.61-8.19A19.41,19.41,0,0,1,58.6,11.4c.95-1.4,2.31-1.5,3.83-.46.94.64,1.83,1.34,2.8,1.93a6.92,6.92,0,0,1,3,3.78,40,40,0,0,1,1.66,5.64c.74,3.83-1.22,6.36-5.09,6.8A20.64,20.64,0,0,1,62.68,29.15Z" style="fill: #4a435b"/>
    <path d="M125.85,188.44a7.26,7.26,0,0,1-1,1.5,1.64,1.64,0,0,0-.38,2.06,39.24,39.24,0,0,1-21,3.43,34.12,34.12,0,0,1-20.06-9.3,40.74,40.74,0,0,1-8.94-13.31c-.8-1.89-.86-4.09-1.26-6.15h2.86a28.57,28.57,0,0,0,11.35,18.77c7.36,5.37,15.71,8.4,25.25,6.55C117.19,191.12,121.47,189.66,125.85,188.44Z" style="fill: #7d7285"/>
    <path d="M112.49,131.61c.38-.59.76-1.18,1.13-1.77l.07-.05c1.23.13,2.45.27,3.68.38a2,2,0,0,0,2.22-1.29,9.66,9.66,0,0,1,2.8.52c5,2.58,9.91,5.26,14.86,7.91L135.37,139c-3.47-.62-6.39-2.51-9.29-4.28A21.5,21.5,0,0,0,112.49,131.61Z" style="fill: #7d7285"/>
    <path d="M197.23,33.2c-2.09-.93-1.87-3.07-2.5-4.77l2.82.05c1.14,1.18,2.15.83,3.09-.27l1.9-.28c.84,1,1.52.64,2.13-.26l1.88-.34,2.12.57.05.07.82,1.2c-.08.39-.17.78-.25,1.17a2.13,2.13,0,0,0-2.21.81c-1.12,0-2.24,0-3.36-.09a6.9,6.9,0,0,0-4.53,1.26l.15-.08Z" style="fill: #2f2e3a"/>
    <path d="M200.64,28.21c-.94,1.1-1.95,1.45-3.09.27A3,3,0,0,1,200.64,28.21Z" style="fill: #5d536c"/>
    <path d="M207.08,31.15a2.13,2.13,0,0,1,2.21-.81C208.93,31.62,208.17,31.84,207.08,31.15Z" style="fill: #5d536c"/>
    <path d="M208.67,27.9l-2.12-.57C207.52,26.53,208.24,26.7,208.67,27.9Z" style="fill: #5d536c"/>
    <path d="M204.67,27.67c-.61.9-1.29,1.22-2.13.26Z" style="fill: #5d536c"/>
    <path d="M139,140.38l1.25.53Z" style="fill: #7d7285"/>
    <path d="M146.13,141.47l1.27-.34Z" style="fill: #7d7285"/>
    <path d="M209.54,29.17l-.82-1.2Z" style="fill: #5d536c"/>
    <path d="M199.34,32.24l-.15.08Z" style="fill: #5d536c"/>
    <path d="M111.18,129.26a2.59,2.59,0,0,1,2.67-1c0,.51-.1,1-.16,1.54l-.07.05Z" style="fill: #7d7285"/>
    <path d="M113.69,129.79c.06-.52.11-1,.16-1.54a9.35,9.35,0,0,1,5.74.63,2,2,0,0,1-2.22,1.29C116.14,130.06,114.92,129.92,113.69,129.79Z" style="fill: #706578"/>
  </g>
</svg>
