<svg xmlns="http://www.w3.org/2000/svg" viewBox="0 0 299 309"><title>fairemain</title><g id="Layer_16" data-name="Layer 16"><path d="M299.21,10.84a5.9,5.9,0,0,1-1.27,0,4.53,4.53,0,0,1-3.8-2.49,24.39,24.39,0,0,1-4.67-.17,10.37,10.37,0,0,1-2.21-.82l-6.41-.85c-1.91,1.12-4.08,1-6.12,1-9.55.29-19.11.44-28.66.63a4.66,4.66,0,0,1-4.32.78l-7-.31L232,8.4l-13.92-.46-2.83-.19a17.67,17.67,0,0,1-8.69-.42,39,39,0,0,0-14-1.23c-4.05.36-8.15.08-12.22.05-6.85-.05-13.7-.09-20.55-.19a144.85,144.85,0,0,1-24.34-2c-3.58-.33-7.15-.8-10.74-1C112.1,2.43,99.53,1.89,87,1.57c-7.18-.18-14.37.18-21.55.11q-7.94-.07-15.85-.23l-.31,3.24c5.26.07,10.51.17,15.76.18,6.2,0,12.4-.14,18.6-.22.82,0,1.63,0,2.45,0,12.07.43,24.15.85,36.22,1.33,2.12.08,4.22.42,6.33.63,8.78.85,17.55,1.87,26.34,2.48,4.71.33,9.46-.06,14.19-.09,1.14,0,2.27.12,3.41.19l6.79.28c3-.87,6-.22,9,.38l3.84-.26,2.13-.21c2.12-.28,4.21-.46,5.75,1.49l4.92.55,8.77.4a7.71,7.71,0,0,1,5-.13l3.86,0a7,7,0,0,1,1.87-.33c4.65.46,9.29,1,13.94,1.49l3.88-.23c4.63-1.28,9.41-1,14.14-1.42,1-.55,1.91-1.5,2.91-1.57,4.54-.31,9.11-.46,13.66-.48,1.62,0,2,1.39,2,2.83l.36,4a5.23,5.23,0,0,0,.86.17c.09-1.08.11-2.17.27-3.23.21-1.4,1.16-1.69,2.4-1.36a8.54,8.54,0,0,1,.5-.82c.62-.89,1.19-2.1,2.55-1.61s.89,1.79.71,2.85c0,.16-.09.31-.13.46l.29.32c1-1.18,2.27-1.2,3.58-1a40.11,40.11,0,0,0,11.21-.34l1.33-.17C299.06,11.09,299.13,11,299.21,10.84Z" style="fill:#5d536c"/><path d="M210.32,129.37a7.68,7.68,0,0,1,.5,1.36c1.49,9.19,7,15.56,14.63,20.21a31.53,31.53,0,0,0,8.6,3.3c5.65,1.45,11.4,2.53,17.11,3.77,8.12,2.19,15.18,6.62,22.4,10.7A58.82,58.82,0,0,1,284.43,177c1.54,1.43,3.21,2.73,4.82,4.09a.48.48,0,0,0,.53.57,22.13,22.13,0,0,0,1.73,2.95,28.46,28.46,0,0,1,5.94,14.81c1,9.13-1.48,17.06-8.68,23.24-5.22,4.48-11.47,6.25-18,6.64-9.67.57-19.23-.35-28.42-3.79-1.37-.51-2.8-.85-4.2-1.27l-1.74-1.05c-4.24-2.35-8.46-4.72-12.72-7a3.59,3.59,0,0,0-1.41-.09l-.08.08c.07-1.18-.83-1.6-1.65-2.08a58,58,0,0,1-18.17-21.56,38.15,38.15,0,0,1-2.78-7.32c-1.05-4.12-1.77-8.31-2.59-12.48-1.29-6.59-2.52-13.19-3.84-19.77a21.4,21.4,0,0,0-1.31-4.21,8.08,8.08,0,0,0-1.58-1.85c-2,.93-2.63,2.69-3.42,4.23-1.8,3.49-3.58,7-5.23,10.56a17.08,17.08,0,0,0-1.45,4.63,89.54,89.54,0,0,0,.44,27.39c1.32,7.91,2.6,15.83,3.56,23.79,1.15,9.48,3.56,18.66,6.09,27.8a28.35,28.35,0,0,1-2.5,22.29,15.92,15.92,0,0,1-3.9,5c-1.92,1.54-3.83,3.08-5.73,4.64-4.39,3.62-9.46,4.27-14.83,3.27a30.74,30.74,0,0,1-6.12-1.8c-12-5-23.36-11.11-33.33-19.54a17.3,17.3,0,0,1-3.63-4c-2.74-4.41-6.07-8.5-7.73-13.54a58.63,58.63,0,0,1-1.71-5.62,95.83,95.83,0,0,1-2.14-32.68,51.49,51.49,0,0,1,5.12-16.83c3.91-7.93,8-15.8,11.91-23.7.5-1,.85-2.08,1.37-3.37l-2.4-.85c1.49-1.81,3-3.57,6-4.07a14.33,14.33,0,0,0-.56,2.62,10.93,10.93,0,0,0,.48,2.21c-.25.6-.45,1.22-.75,1.79-4.22,8.32-8.54,16.6-12.68,25s-6.71,17.05-6.13,26.49c.07,1.14,0,2.29,0,3.44a78.82,78.82,0,0,0,3.85,23.67,41.23,41.23,0,0,0,11.74,17.86,61.51,61.51,0,0,0,14.11,9.75q8.59,4.22,17.25,8.32a23.71,23.71,0,0,0,11,2.2,8.7,8.7,0,0,0,5.49-1.8c2.15-1.75,4.44-3.36,6.52-5.2,5.64-5,8.24-11.27,7.32-18.79-.4-3.24-1.21-6.43-1.91-9.62-1.26-5.76-2.75-11.48-3.8-17.27-1.32-7.25-2-14.61-3.47-21.83A175.21,175.21,0,0,1,176,177.44l.39-5.92c.22-1.79.49-3.57.65-5.36a15.64,15.64,0,0,1,2.38-7.42,67.16,67.16,0,0,0,5.5-11,65.88,65.88,0,0,1,3.54-7,13.29,13.29,0,0,1,2.37-2.37l2.39,1.25c1,4.3,2,8.59,3,12.9.75,3.35,1.54,6.7,2.1,10.08,1.06,6.28,1.87,12.59,3.35,18.82a49.54,49.54,0,0,0,19.11,28.82c6.18,4.67,13.14,8,20.05,11.36a38.05,38.05,0,0,0,13.59,3.94c3.59.3,7.17.7,10.76.93a34.64,34.64,0,0,0,16.31-2.85c6.69-2.93,11.12-8,12.67-15.22,2.12-10-1.05-18.56-7.77-25.72-7.72-8.21-17.32-13.87-27.51-18.55-6-2.76-12.39-4.11-18.82-5.4-4.16-.83-8.29-1.91-12.36-3.11a24,24,0,0,1-4.76-2.43c-4.69-2.67-7.79-6.89-10.95-11.09a18.74,18.74,0,0,1-4.14-10.81Z" style="fill:#706578"/><path d="M24.58,171.29,12.49,165a23.39,23.39,0,0,1-6.92-6A18.28,18.28,0,0,1,1.33,147.9c-.12-2.08-.52-4.15-.78-6.24-.15-.41-.32-.82-.48-1.23.59-.47,1.56-.85,1.7-1.42,1.2-5,4-9.06,6.93-13.09.21-.22.42-.45.64-.67l2.73-3,1.66-1.37a19.34,19.34,0,0,0,2.17-1.12c10.54-7.23,22.17-10,34.88-8.88,5.69.5,11.42.54,17.14.67,5.23.13,10.46,0,15.68.14A58.4,58.4,0,0,1,99,114.28a42.06,42.06,0,0,0,10.6,1.77c4.76.11,9.55-.46,12.55-5.07a5.7,5.7,0,0,0,1.35-4.81c0-.81,0-1.63,0-2.44-.14-7.4-3.67-12.71-10-16.29-1.85-1-3.67-2.16-5.55-3.14C96.81,78.45,85.59,72.71,74.47,66.78c-4.18-2.23-8.21-4.76-12.19-7.34-3.83-2.5-7.62-5.11-11.24-7.91-6.39-5-9-11.44-7.18-19.51a11.09,11.09,0,0,1,3.82-6.62,31.66,31.66,0,0,1,13.19-6c3.67-.83,7.4-1.36,11.11-2l7.94-.48c8.77-.46,17.35,1.22,25.74,3.21,7,1.66,13.69,4.47,20.3,7.3,7.6,3.25,13.9,8.56,20,14q4,3.59,8.3,6.9c3.48,2.71,7,5.33,10.62,7.92,6.76,4.88,13.23,10.22,21.19,13.19,2.6,1,5.21,1.93,7.79,3A27.33,27.33,0,0,1,196.84,74l-3,1.37-2,.14-4.75-1.75-10.36-5-5.49-3.6A4,4,0,0,0,168.38,63a.81.81,0,0,0-.55-.31,2.8,2.8,0,0,0-2.24-1.82l-2.39-1.57A2.89,2.89,0,0,0,161,57.47L156.37,54A17.06,17.06,0,0,0,150,49.38l-.07-.05a3.58,3.58,0,0,0-2.7-2.19l0,0a5.9,5.9,0,0,0-3.64-3.2l-.06-.06a3.78,3.78,0,0,0-2.66-2.25l-1.55-1.32a6.13,6.13,0,0,0-4-3.19.68.68,0,0,0-.56-.27,2.89,2.89,0,0,0-2.26-1.8c-2.42-1.86-4.9-3.58-8-4.2-.64-1.29-1.92-1.72-3.1-2.25a106.82,106.82,0,0,0-37.49-9,18.42,18.42,0,0,0-3.36.39l-3.89.21c-2.45-.65-4.77-.07-7.07.71l-1.94.25a8.34,8.34,0,0,0-5.1,1.05l-3,.79a7,7,0,0,0-5.17,2.39l0,0c-2.83.92-5.19,2.39-6.21,5.39-.36,1.59-.81,3.17-1.06,4.78-.83,5.19,1.07,9.31,5.11,12.53C54.07,49.62,56,51.2,58,52.6c13.76,9.57,28.56,17.32,43.53,24.78,5.12,2.56,10.32,5,15.16,8.06A20.89,20.89,0,0,1,127,103.87c0,1.15.11,2.29.1,3.44a10.06,10.06,0,0,1-4.28,8.4,18.78,18.78,0,0,1-11,3.79A35.64,35.64,0,0,1,99.69,118c-9.17-2.94-18.59-3.61-28.16-3.5-6.54.08-13.09-.37-19.64-.52a82.54,82.54,0,0,0-10.78,0c-11.37,1.22-21.67,4.78-29.55,13.74a27.83,27.83,0,0,0-6.63,12.42C2.87,149.3,6.21,158,14.77,162.54,21.32,166,28,169,34.8,171.89a88.86,88.86,0,0,0,22.66,6.34c6.76.92,13.42.12,20.09-.59a54.75,54.75,0,0,0,20.59-6.19q6-3.3,12.16-6.44c1.44-.74,3-1.27,4.5-1.9l.36,2.14c-1.27,2.08-3.59,2.7-5.49,3.89-1.51,1-3.22,1.59-4.76,2.51-9.89,5.86-20.68,8.72-32.07,9.51-3.73.25-7.49.4-11.24.42a29,29,0,0,1-6.32-.57c-8.6-1.89-17.2-3.83-25.24-7.62C28.28,172.56,26.4,172,24.58,171.29Z" style="fill:#706578"/><path d="M130.55,159.27a10.93,10.93,0,0,1-.48-2.21,14.33,14.33,0,0,1,.56-2.62c-3,.5-4.54,2.26-6,4.07l-5.75,4.22-1.08-1.44c1.59-1.38,3.21-2.71,4.75-4.14s3.26-3.11,4.77-4.78c2.7-3,5.35-6.05,6.38-10.15a1.79,1.79,0,0,1,1.51-.85,3,3,0,0,1,2,1,3.37,3.37,0,0,1,.33,2.29c-.24,1.43-.71,2.81-1.09,4.21-.85,1.71-1.64,3.45-2.58,5.11S131.65,157.52,130.55,159.27Z" style="fill:#4a435b"/><path d="M115.16,165.25l-.36-2.14,1.87-1.08,1.19,1.52Z" style="fill:#4a435b"/><path d="M118.85,162.73l-1,.82L116.67,162l1.1-.74Z" style="fill:#4a435b"/><path d="M210.32,129.37l-2.53,1.95c-.56-2.39-1.15-4.77-1.66-7.16a4.56,4.56,0,0,1,1.37-4.5c2.05-1.87,4.1-3.74,6.3-5.42a56.6,56.6,0,0,1,5-3,18.22,18.22,0,0,1,6.89-2.37c7.93-1.19,15.67-2.91,23-6.59,11.24-5.66,18.85-14.56,24-25.63a106.92,106.92,0,0,0,7.7-22.23c2.94-13.2,3.52-26.2-1.16-39.13a9.84,9.84,0,0,1-.17-2.89l3.45.05.29.32a118.83,118.83,0,0,1,2.81,21.89,59.81,59.81,0,0,1-.85,11.71,115.59,115.59,0,0,1-3.12,14.9c-3.2,10.87-7.4,21.28-14.4,30.44-5.59,7.33-13,11.67-21.29,15.2-6.53,2.79-13.49,3.94-20.2,6a45.76,45.76,0,0,0-13,6.74,6.36,6.36,0,0,0-2.78,6.84C210.23,127.4,210.23,128.39,210.32,129.37Z" style="fill:#5d536c"/><path d="M279.13,12.36a9.84,9.84,0,0,0,.17,2.89c4.68,12.93,4.1,25.93,1.16,39.13a106.92,106.92,0,0,1-7.7,22.23c-5.2,11.07-12.81,20-24,25.63-7.31,3.68-15.05,5.4-23,6.59a18.22,18.22,0,0,0-6.89,2.37,56.6,56.6,0,0,0-5,3c-2.2,1.68-4.25,3.55-6.3,5.42a4.56,4.56,0,0,0-1.37,4.5c.51,2.39,1.1,4.77,1.66,7.16a18.74,18.74,0,0,0,4.14,10.81c3.16,4.2,6.26,8.42,10.95,11.09a24,24,0,0,0,4.76,2.43c4.07,1.2,8.2,2.28,12.36,3.11,6.43,1.29,12.82,2.64,18.82,5.4,10.19,4.68,19.79,10.34,27.51,18.55,6.72,7.16,9.89,15.74,7.77,25.72-1.55,7.27-6,12.29-12.67,15.22a34.64,34.64,0,0,1-16.31,2.85c-3.59-.23-7.17-.63-10.76-.93a38.05,38.05,0,0,1-13.59-3.94c-6.91-3.38-13.87-6.69-20.05-11.36a49.54,49.54,0,0,1-19.11-28.82c-1.48-6.23-2.29-12.54-3.35-18.82-.56-3.38-1.35-6.73-2.1-10.08-1-4.31-2-8.6-3-12.9,1.58-.09,3.24.56,4.57-.3.28-.27.48-.37.5-.49.57-4.83,1.18-9.65,1.67-14.49a2.86,2.86,0,0,0-2-3c-.75-.3-1.53-.53-2.3-.8l9.52-7.37,1.09-1.06,3-1.89c1-.48,2.06-.9,3-1.45,2.83-1.61,5.5-3.63,8.49-4.83a129.23,129.23,0,0,0,12.38-5.81c2.7-1.44,5.59-2.64,7.62-5.1l4.07-2.81a20.66,20.66,0,0,0,2.94-1.67c4.46-3.59,8.82-7.31,13.31-10.87A17,17,0,0,0,265.64,72c.82-1.6,1.67-3.2,2.34-4.86,3-7.6,6.17-15.17,9-22.86a30.65,30.65,0,0,0-.12-21.17l-.51-5c0-.65,0-1.31-.05-2,.09-1.08.11-2.17.27-3.23.21-1.4,1.16-1.69,2.4-1.36A1.35,1.35,0,0,0,279.13,12.36ZM201.3,164a7.26,7.26,0,0,0-.14,1.45c1,9.68,6.41,16.6,13.76,22.31a12.52,12.52,0,0,0,7.41,2.28,8.11,8.11,0,0,0,8.68-8.53,14.86,14.86,0,0,0-2.48-8.37,47.63,47.63,0,0,0-6.25-7.52,78.33,78.33,0,0,1-11.58-13.29,21.45,21.45,0,0,0-2.23-2.45,43.78,43.78,0,0,0-2.57-4.16c-1.2-1.55-.69-3.42-1-5.12-4.15.78-4.6,1.28-5,4.75-.14,1.29-.54,2.54-.78,3.81a6.46,6.46,0,0,0-.33,2.38C199.68,155.71,199.54,160.06,201.3,164Zm67.89,33.3c1-6.6-1.26-11.82-6.62-15.8-4.52-3.35-6.71-3.09-10.19,1.49-1.08,1.43-1.83,3.19-3.14,4.33-3.16,2.73-4.57,6.3-5.43,10.16-1.06,4.71.11,8.92,4,11.79s8.27,3.86,12.82,1.16c1-.58,2-1.08,3-1.71a11.43,11.43,0,0,0,4.87-7.08C268.83,200.24,269,198.77,269.19,197.32Z" style="fill:#d2cabd"/><path d="M244.83,90.23,240.76,93a4.39,4.39,0,0,0-4.89-2.33,2.28,2.28,0,0,1-2.39-1.28c2.09-1.59,4.13-3.23,6.26-4.74A49.89,49.89,0,0,0,250.08,75c3.28-2.14,5.15-5.44,6.88-8.76A162.33,162.33,0,0,0,267.59,41c2.27-7.07,2.45-14.11,1.58-21.32a3.38,3.38,0,0,0-1.8-2.74,18.55,18.55,0,0,1-2-1.53c.78-1.15,1.4-2.05,2-3l1.85-.94,5.86.5c.12,1.32.24,2.65.37,4-2,1-2,1.19-.73,2.89-.32,1.37-.74,2.76.48,3.95.2.93.41,1.85.59,2.78.11.6.47,1.54.21,1.78-2,1.86-.75,4.3-1.32,6.39A3.35,3.35,0,0,0,272.22,36q-2.1,5.48-4.1,11c-.55,1.53-.83,3.16-1.43,4.68-1.86,4.72-3.79,9.41-5.74,14.09a12.59,12.59,0,0,1-1.39,2.58c-2.09,2.92-4.29,5.77-6.37,8.71a22.84,22.84,0,0,0-1.55,3A17.17,17.17,0,0,0,244.83,90.23Z" style="fill:#2f2e3a"/><path d="M275.06,12l-5.86-.5c-.57-.85-1.23-1.08-2-.26-1.68-.05-3.43-.58-5.18.82.3,1.5.61,3,.91,4.49l-1.49,2.16-4-5.55-.93-1.94c1-.55,1.91-1.5,2.91-1.57,4.54-.31,9.11-.46,13.66-.48C274.64,9.15,275.06,10.54,275.06,12Z" style="fill:#4a435b"/><path d="M279.13,12.36a1.35,1.35,0,0,1-.18-.83,8.54,8.54,0,0,1,.5-.82c.62-.89,1.19-2.1,2.55-1.61s.89,1.79.71,2.85c0,.16-.09.31-.13.46Z" style="fill:#4a435b"/><path d="M274.71,18.84c-1.31-1.7-1.26-1.93.72-2.89a4.92,4.92,0,0,0,.85.17c0,.65,0,1.31.05,2Z" style="fill:#4a435b"/><path d="M250.08,75a49.89,49.89,0,0,1-10.34,9.71c-2.13,1.51-4.17,3.15-6.26,4.74-1.36.52-2.77,1-4.09,1.58A49.54,49.54,0,0,1,212,95.79a27,27,0,0,1-7.78-.5,32.44,32.44,0,0,1-10.88-4.39c-2.45-1.64-4.76-3.64-7.44-4.72-4.06-1.65-6.58-4.73-9-8-.69-.91-1.23-1.94-2-2.8a2.19,2.19,0,0,0-3-.64,2.22,2.22,0,0,0-.47,3.07c.62,1,1.44,1.79,2.08,2.73,2.65,3.9,6,7.42,6.88,12.3L175.93,92a6.83,6.83,0,0,0-.56,2c.21,3.73.43,7.47.83,11.19a35.72,35.72,0,0,1,.3,7.31c-.35,3.71.75,5.37,4.21,6.79a19.09,19.09,0,0,0,2.85.68l-1.23,6.54-5.17-1c-1.56,3.14-1.5,3.85.5,5.57.61.53,1.38.91,1.94,1.49,1.07,1.11,1.85,2.57,1.13,4-1.17,2.3-.74,4.74-.9,7.4l-6,1.37c-.72,2.62-1.46,4.95-2,7.32a7.52,7.52,0,0,0,0,3.37c.66,2.61-.23,4.85-1.35,7.05-.51,1-1.18,1.91-1.83,3,.55.91,1,1.75,1.57,2.54s1.14,1.56,1.85,2.52l4.33.42-.39,5.92c-.54.32-1.39.53-1.57,1-1.06,2.86-3.32,5.23-3.25,8.59,0,1.21-.84,2.45-1.34,3.65-.69,1.65-1.41,3.28-2.11,4.9a18.53,18.53,0,0,1,1.61,2.7c.33.88.78,2.07.44,2.78a7.76,7.76,0,0,0,.23,7.48,2.55,2.55,0,0,1,.08,1.46,5.3,5.3,0,0,0,2.33,5.54,4.09,4.09,0,0,1,1.69,4.3,16.75,16.75,0,0,1-.64,3.85,5.73,5.73,0,0,0,.24,4.73,10.63,10.63,0,0,1,1,6.21,18.52,18.52,0,0,0,.87,10.12,13.45,13.45,0,0,1,.3,7.75,4,4,0,0,1-5.09,3.26,7.86,7.86,0,0,1-1.37-.52,2.68,2.68,0,0,0-3.47.95c-1.19,1.56-2.32,3.16-3.44,4.76a56.1,56.1,0,0,1-3.35,4.79c-2.55,2.87-4.94,3.28-8.29,1.42a5,5,0,0,0-3.64-.9c-1.48.3-2.49-.62-3.19-1.81a25.68,25.68,0,0,1-1.2-2.56c-.45,0-.82-.09-1.06,0-.92.51-1.87.87-2.7,0a6.11,6.11,0,0,1-1.25-2,4.32,4.32,0,0,1-.08-1.45,2.84,2.84,0,0,0-2.22-2.88,4.86,4.86,0,0,1-3.11-2.19,4.81,4.81,0,0,0-3.55-2.39c-2.37-.28-3.12-1.78-3.85-3.81a22.31,22.31,0,0,0-3.43-6.42c-3.76-4.71-3.35-4.2-2.86-9.81.07-.81.15-1.63.23-2.44.67-6.84.61-5.57-3.24-10.06a4.38,4.38,0,0,1-.29-1c1.78-1.3,1.58-3.76,2.41-5.82,1.2-3,1.32-5.58-.35-8.39a5.57,5.57,0,0,1,.22-6.08,12.86,12.86,0,0,0,1.93-6.5,4.15,4.15,0,0,1,2.56-3.84c2.14-1,3.33-2.88,4.63-4.84a22.85,22.85,0,0,0,3.73-12.49c0-.81.17-1.62.23-2.44a5.38,5.38,0,0,1,2.33-4.11,13.94,13.94,0,0,0,3.1-3c2.06-3,2-6.46,1.66-9.9,0-.45-.92-.81-1.41-1.21.38-1.4.85-2.78,1.09-4.21a3.37,3.37,0,0,0-.33-2.29,3,3,0,0,0-2-1,1.79,1.79,0,0,0-1.51.85c-1,4.1-3.68,7.15-6.38,10.15-1.51,1.67-3.13,3.24-4.77,4.78s-3.16,2.76-4.75,4.14l-1.1.74-1.87,1.08c-1.5.63-3.06,1.16-4.5,1.9q-6.12,3.15-12.16,6.44a54.75,54.75,0,0,1-20.59,6.19c-6.67.71-13.33,1.51-20.09.59a88.86,88.86,0,0,1-22.66-6.34C28,169,21.32,166,14.77,162.54,6.21,158,2.87,149.3,4.93,140.09a27.83,27.83,0,0,1,6.63-12.42c7.88-9,18.18-12.52,29.55-13.74a82.54,82.54,0,0,1,10.78,0c6.55.15,13.1.6,19.64.52,9.57-.11,19,.56,28.16,3.5a35.64,35.64,0,0,0,12.14,1.51,18.78,18.78,0,0,0,11-3.79,10.06,10.06,0,0,0,4.28-8.4c0-1.15-.09-2.29-.1-3.44a20.89,20.89,0,0,0-10.31-18.43c-4.84-3-10-5.5-15.16-8.06C86.54,69.92,71.74,62.17,58,52.6c-2-1.4-3.91-3-5.83-4.51-4-3.22-5.94-7.34-5.11-12.53.25-1.61.7-3.19,1.06-4.78,2.91-.83,5.17-2.41,6.21-5.39l0,0c2.22.29,4.44.54,5.17-2.39l3-.79c2.11,1.08,3.19.86,5.1-1.05l1.94-.25c3.13,1.82,4.09,1.73,7.07-.71L80.57,20c1.35,1.56,3.26,1.27,5,1.48,3.86.46,7.8.48,11.48,2.06a9.1,9.1,0,0,0,6.15.86,5.41,5.41,0,0,1,2.86.35c3.85,1.28,7.66,2.7,11.51,4,2.29.78,4.63,1.41,7,2.11,3.07.62,5.55,2.34,8,4.2a1.86,1.86,0,0,0,2.26,1.8.68.68,0,0,1,.56.27c.25,2.39,1.95,3,4,3.19l1.55,1.32c0,1.77,1.23,2.14,2.66,2.25l.06.06c.05,2.38,1.55,3.13,3.64,3.2l0,0c.49,1.87.49,1.87,2.7,2.19l.07.05a2.84,2.84,0,0,0,1.36,2.87c1.46.83,2.58,2.49,4.61,2,.14,0,.26-.17.4-.26L161,57.47a1.87,1.87,0,0,0,2.22,1.86l2.39,1.57a1.87,1.87,0,0,0,2.24,1.82.81.81,0,0,1,.55.31c.11,1.82,1.37,2.15,2.85,2.18l5.49,3.6c.39.64.64,1.58,1.22,1.88,2.39,1.23,4.87,2.32,7.36,3.34.48.2,1.18-.15,1.78-.24l4.75,1.75c1,2.24,3.17,2.22,5.17,2.4.22,0,.48-.36.72-.56l1.8.68c.53,1.65.67,1.71,2,.75l1.84.55a2.61,2.61,0,0,0,1.78,2.12,21.52,21.52,0,0,0,11,1.47c.29,0,.55-.33.82-.5l1.92.16c4.47,2.57,6.06,2.74,10.4,1.34,1.11-.35,2.2-.59,2.53-1.91.09-.23.17-.45.24-.67l2.48-.32c2.44.59,4.49-.29,6.37-1.73,1.29-1,2.58-2,3.78-3.1A5.46,5.46,0,0,1,250.08,75ZM30.13,158.83a2.17,2.17,0,0,0,2.47,1.27c1.87.92,3.83.46,5.76.42,5.41-.21,8-2.51,8.19-7.45a37,37,0,0,0-1.83-13.48,14.82,14.82,0,0,0-13.34-10.5c-3.85-.29-5.79,1.2-6.29,5.12-.45,3.55-.82,7.13-1,10.7a33.56,33.56,0,0,0,.55,6.31,6.85,6.85,0,0,0,1.15,2.06C26.64,155.6,27.65,157.79,30.13,158.83Zm122.81,42.92-.05,0c3.47.45,6.78-.67,10.15-1.12a2.59,2.59,0,0,0,1.56-4.19,24.43,24.43,0,0,1-1.9-2.21c-.37-.65-.75-1.78-.44-2.25a8.24,8.24,0,0,0,.61-8.67c-.19-.39,0-1,0-1.45,0-.77.2-1.67-1.3-2.2a4.52,4.52,0,0,1-4.87,1.86c-.13-1-.25-2-.38-3,2.67-1.17,4.1-3.62,5.27-5.95,1-2,1.87-3.67,3.71-4.94,1.28-.89,1.09-2.17-.2-3.24-.37-.32-.83-.53-1.19-.86-1-1-2.12-2-3.1-3.07s-2.06-2.39-3.13-3.64c1.17-1.88,3.75-2.07,4-4.36.26-2.1.55-4.18-1.37-5.72l-6.77,4a3.7,3.7,0,0,0-3.85,2.81c-1.4.5-1.9,1.67-2.24,3-.79,3-1.58,6-2.38,9q-2.22,3.85-4.45,7.71c-3.2,0-4,.62-3.77,3.32a7.84,7.84,0,0,0,1.21,2.51l-.66,1.59c-2.11.18-4.22.29-6.32.54a2,2,0,0,0-1.24,3.33,15,15,0,0,0,1.35,1.42,4.41,4.41,0,0,1,.74,5.21c-.84.41-1.88.86-2.85,1.42a4.19,4.19,0,0,0-2.09,3.14c-.3,1.87,1.45,10.38,2.49,11.81a4,4,0,0,0,.3.39l5.31,4.92c1.44-.4,2.68-.82,3.94-1.07a2.08,2.08,0,0,1,2.3,1.43c-2.7,3.55-4.15,7.7-5.58,11.84a17.37,17.37,0,0,0,0,11.54c1.53,4.45,4,8.17,8.39,10.35a7,7,0,0,0,7.41-.44,11.88,11.88,0,0,0,4.45-5.67c.71-1.64,1.33-3.32,2-5,1.43.32,3,.46,3.46,2.25a3.76,3.76,0,0,0,.66,1.29,2.2,2.2,0,0,0,3.42.21,5.65,5.65,0,0,0,1.78-5.32,14.39,14.39,0,0,0-2.25-5.36c-1.6-2.3-2.72-4.82-2.06-7.8.6-2.69-.7-4.43-3.1-5.38a25.45,25.45,0,0,1-8.07-5.43c-.2-.19-.61-.15-1-.23a4.17,4.17,0,0,0-3,3.52l-4.83-.92c0-3.2,0-3.18-2.65-4.07a12.72,12.72,0,0,1-1.69-.85c3.52.36,6.86,0,9.72-2.39C152.24,205.39,152.35,205.31,152.94,201.75ZM83.64,51.15c4-2.46,5.54-5.65,4.45-10.21a48.38,48.38,0,0,0-2.84-8.3,11.28,11.28,0,0,0-6.5-6.29,4.22,4.22,0,0,0-2.81-.18c-1.94.84-3.88,2-4.54,4.17A61.07,61.07,0,0,0,69,40.26c-.35,2.67-.18,5.52,1.68,7.86l.93,1.8c.38,2.34,2.33,2.89,4.12,3.52a6.58,6.58,0,0,0,6-.41,4.58,4.58,0,0,0,.9-1.08Zm15.07,74.39c-2.3,0-5.89-.12-9.48,0s-7.18.59-10.76.53a39.49,39.49,0,0,0-13,2.14A10.28,10.28,0,0,0,58.16,140c.59,3.7,1.53,7.36,2.47,11a9.14,9.14,0,0,0,4.95,5.79,13,13,0,0,0,9,1.33,17.75,17.75,0,0,0,8.79-4.13c3.67-3.48,7.6-6.67,10.87-10.6,4-4.79,8.48-9.08,14.16-12a5.24,5.24,0,0,0,2-2,1.75,1.75,0,0,0-.41-1.67,4.94,4.94,0,0,0-2.25-.83C105.19,126.45,102.59,126.11,98.71,125.54Zm2.14-61.27a3.88,3.88,0,0,0,1-.09,15.79,15.79,0,0,1,15,1.52c2.75,1.78,5.47,3.61,8.27,5.3,3.5,2.12,7.06,4.13,10.61,6.17a1.72,1.72,0,0,0,2.24-.13,2.39,2.39,0,0,0,.64-2.7,13.89,13.89,0,0,0-1-1.66l-5-7.88a140.69,140.69,0,0,0-12.16-17.22,20.34,20.34,0,0,0-13.93-7.38c-4.3-.45-7.36,1.15-9.37,4.8-2.85,5.16-2.3,10.4.07,15.55A6.27,6.27,0,0,0,100.85,64.27Z" style="fill:#cfc6b9"/><path d="M136.4,148.91c.49.4,1.37.76,1.41,1.21.37,3.44.4,6.9-1.66,9.9a13.94,13.94,0,0,1-3.1,3,5.38,5.38,0,0,0-2.33,4.11c-.06.82-.21,1.63-.23,2.44a22.85,22.85,0,0,1-3.73,12.49c-1.3,2-2.49,3.82-4.63,4.84a4.15,4.15,0,0,0-2.56,3.84,12.86,12.86,0,0,1-1.93,6.5,5.57,5.57,0,0,0-.22,6.08c1.67,2.81,1.55,5.42.35,8.39-.83,2.06-.63,4.52-2.41,5.82a4.38,4.38,0,0,0,.29,1c3.85,4.49,3.91,3.22,3.24,10.06-.08.81-.16,1.63-.23,2.44-.49,5.61-.9,5.1,2.86,9.81a22.31,22.31,0,0,1,3.43,6.42c.73,2,1.48,3.53,3.85,3.81a4.81,4.81,0,0,1,3.55,2.39,4.86,4.86,0,0,0,3.11,2.19,2.84,2.84,0,0,1,2.22,2.88,4.32,4.32,0,0,0,.08,1.45,6.11,6.11,0,0,0,1.25,2c.83.83,1.78.47,2.7,0,.24-.13.61,0,1.06,0a25.68,25.68,0,0,0,1.2,2.56c.7,1.19,1.71,2.11,3.19,1.81a5,5,0,0,1,3.64.9c3.35,1.86,5.74,1.45,8.29-1.42a56.1,56.1,0,0,0,3.35-4.79c1.12-1.6,2.25-3.2,3.44-4.76a2.68,2.68,0,0,1,3.47-.95,7.86,7.86,0,0,0,1.37.52,4,4,0,0,0,5.09-3.26,13.45,13.45,0,0,0-.3-7.75,18.52,18.52,0,0,1-.87-10.12,10.63,10.63,0,0,0-1-6.21,5.73,5.73,0,0,1-.24-4.73,16.75,16.75,0,0,0,.64-3.85,4.09,4.09,0,0,0-1.69-4.3,5.3,5.3,0,0,1-2.33-5.54,2.55,2.55,0,0,0-.08-1.46,7.76,7.76,0,0,1-.23-7.48c.34-.71-.11-1.9-.44-2.78a18.53,18.53,0,0,0-1.61-2.7c.7-1.62,1.42-3.25,2.11-4.9.5-1.2,1.37-2.44,1.34-3.65-.07-3.36,2.19-5.73,3.25-8.59.18-.47,1-.68,1.57-1a175.21,175.21,0,0,0,3.11,25.81c1.45,7.22,2.15,14.58,3.47,21.83,1.05,5.79,2.54,11.51,3.8,17.27.7,3.19,1.51,6.38,1.91,9.62.92,7.52-1.68,13.8-7.32,18.79-2.08,1.84-4.37,3.45-6.52,5.2a8.7,8.7,0,0,1-5.49,1.8,23.71,23.71,0,0,1-11-2.2q-8.64-4.12-17.25-8.32a61.51,61.51,0,0,1-14.11-9.75,41.23,41.23,0,0,1-11.74-17.86A78.82,78.82,0,0,1,111,216c0-1.15.07-2.3,0-3.44-.58-9.44,2-18.17,6.13-26.49s8.46-16.65,12.68-25c.3-.57.5-1.19.75-1.79,1.1-1.75,2.25-3.46,3.27-5.25S135.55,150.62,136.4,148.91Zm32.93,114.71c-2.07-1-2.47-1-3.49-.38a3.36,3.36,0,0,0-1.93,3.12,1.94,1.94,0,0,0,.92,1.49,2.76,2.76,0,0,0,2.22-.17A5.59,5.59,0,0,0,169.33,263.62Zm7.34-1.78c-.15-.28-.22-.65-.45-.83a2.94,2.94,0,0,0-4.71,1.36,1.7,1.7,0,0,0,.3,1.33,2.36,2.36,0,0,0,2.56,1A3.2,3.2,0,0,0,176.67,261.84Z" style="fill:#d2cabd"/><path d="M176.35,171.52,172,171.1c-.71-1-1.31-1.72-1.85-2.52s-1-1.63-1.57-2.54c.65-1,1.32-2,1.83-3,1.12-2.2,2-4.44,1.35-7.05a7.52,7.52,0,0,1,0-3.37c.53-2.37,1.27-4.7,2-7.32l6-1.37c.16-2.66-.27-5.1.9-7.4.72-1.43-.06-2.89-1.13-4-.56-.58-1.33-1-1.94-1.49-2-1.72-2.06-2.43-.5-5.57l5.17,1c1.85,1.08,3.54,1.37,5.28-.44a19.53,19.53,0,0,1,3.63-2.4c.27.92.53,1.85.81,2.76.64,2.09.8,4-.83,5.87a3.89,3.89,0,0,0-.44,2.24c-.06,1.28,0,2.56,0,3.83a13.29,13.29,0,0,0-2.37,2.37,65.88,65.88,0,0,0-3.54,7,67.16,67.16,0,0,1-5.5,11,15.64,15.64,0,0,0-2.38,7.42C176.84,168,176.57,169.73,176.35,171.52Z" style="fill:#d2cabd"/><path d="M190.79,138.4c0-1.27-.07-2.55,0-3.83a3.89,3.89,0,0,1,.44-2.24c1.63-1.82,1.47-3.78.83-5.87-.28-.91-.54-1.84-.81-2.76l.24-1,4.13-2.14c.77.27,1.55.5,2.3.8a2.86,2.86,0,0,1,2,3c-.49,4.84-1.1,9.66-1.67,14.49,0,.12-.22.22-.5.49-1.33.86-3,.21-4.57.3Z" style="fill:#cfc6b9"/><path d="M218.84,82.61l-1.92-.16-13.56-3.09-1.84-.55-2-.75-1.8-.68-3.87-2,3-1.37,1.9.59a1.93,1.93,0,0,0,2.53,1l1.39.47c.42.92,1,1.25,1.91.57l1.81.6c.44,1,1,1.47,2.05.65l7.89.81a11.44,11.44,0,0,0,8.78.6c1.23.12,2.41.09,3.19-1.1l3.76,1,0,2.14c-.07.22-.15.44-.24.67-3.19.48-6.33,1.43-9.62.23C221.21,81.93,220,82.47,218.84,82.61Z" style="fill:#4a435b"/><path d="M124.52,30.81c-2.32-.7-4.66-1.33-7-2.11-3.85-1.29-7.66-2.71-11.51-4a5.41,5.41,0,0,0-2.86-.35,9.1,9.1,0,0,1-6.15-.86c-3.68-1.58-7.62-1.6-11.48-2.06-1.74-.21-3.65.08-5-1.48a18.42,18.42,0,0,1,3.36-.39,106.82,106.82,0,0,1,37.49,9C122.6,29.09,123.88,29.52,124.52,30.81Z" style="fill:#bdb4ab"/><path d="M187.08,73.79c-.6.09-1.3.44-1.78.24-2.49-1-5-2.11-7.36-3.34-.58-.3-.83-1.24-1.22-1.88Z" style="fill:#bdb4ab"/><path d="M54.31,25.39c-1,3-3.3,4.56-6.21,5.39C49.12,27.78,51.48,26.31,54.31,25.39Z" style="fill:#bdb4ab"/><path d="M156.37,54c-.14.09-.26.23-.4.26-2,.45-3.15-1.21-4.61-2A2.84,2.84,0,0,1,150,49.38,17.06,17.06,0,0,1,156.37,54Z" style="fill:#bdb4ab"/><path d="M76.68,20.17c-3,2.44-3.94,2.53-7.07.71C71.91,20.1,74.23,19.52,76.68,20.17Z" style="fill:#bdb4ab"/><path d="M193.85,75.4l3.87,2c-.24.2-.5.59-.72.56-2-.18-4.12-.16-5.17-2.4Z" style="fill:#bdb4ab"/><path d="M59.53,23c-.73,2.93-3,2.68-5.17,2.39A7,7,0,0,1,59.53,23Z" style="fill:#bdb4ab"/><path d="M67.67,21.13c-1.91,1.91-3,2.13-5.1,1.05A8.34,8.34,0,0,1,67.67,21.13Z" style="fill:#bdb4ab"/><path d="M139.27,40.27c-2-.21-3.71-.8-4-3.19A6.13,6.13,0,0,1,139.27,40.27Z" style="fill:#bdb4ab"/><path d="M147.18,47.1c-2.09-.07-3.59-.82-3.64-3.2A5.9,5.9,0,0,1,147.18,47.1Z" style="fill:#bdb4ab"/><path d="M171.23,65.21c-1.48,0-2.74-.36-2.85-2.18A4,4,0,0,1,171.23,65.21Z" style="fill:#bdb4ab"/><path d="M149.93,49.33c-2.21-.32-2.21-.32-2.7-2.19A3.58,3.58,0,0,1,149.93,49.33Z" style="fill:#bdb4ab"/><path d="M143.48,43.84c-1.43-.11-2.64-.48-2.66-2.25A3.78,3.78,0,0,1,143.48,43.84Z" style="fill:#bdb4ab"/><path d="M167.83,62.72a1.87,1.87,0,0,1-2.24-1.82A2.8,2.8,0,0,1,167.83,62.72Z" style="fill:#bdb4ab"/><path d="M163.2,59.33A1.87,1.87,0,0,1,161,57.47,2.89,2.89,0,0,1,163.2,59.33Z" style="fill:#bdb4ab"/><path d="M134.75,36.81a1.86,1.86,0,0,1-2.26-1.8A2.89,2.89,0,0,1,134.75,36.81Z" style="fill:#bdb4ab"/><path d="M232,81.37l0-2.14c1.94-1.18,3.91-2.3,5.81-3.54a46.23,46.23,0,0,0,8.77-7.75c6.2-6.79,11.85-13.95,14.06-23.14,1.87-7.82,3.08-15.69,1-23.69a14,14,0,0,1-.24-2.42l1.49-2.16c4.07,9.7,2.87,19.52.37,29.25a44.89,44.89,0,0,1-9.48,17.5c-4.27,5.14-8.45,10.38-14.08,14.18-1.75,1.19-3.48,2.39-5.23,3.59Z" style="fill:#5d536c"/><path d="M225.1,79.3a11.44,11.44,0,0,1-8.78-.6,16.32,16.32,0,0,1,3.21-.54c1.9,0,3.8.26,5.71.41A5.88,5.88,0,0,1,225.1,79.3Z" style="fill:#706578"/><path d="M225.1,79.3a5.88,5.88,0,0,0,.14-.73,2.75,2.75,0,0,1,3-.37C227.51,79.39,226.33,79.42,225.1,79.3Z" style="fill:#5d536c"/><path d="M201.27,75.6a1.93,1.93,0,0,1-2.53-1A2,2,0,0,1,201.27,75.6Z" style="fill:#706578"/><path d="M204.57,76.64c-.9.68-1.49.35-1.91-.57A1.24,1.24,0,0,1,204.57,76.64Z" style="fill:#706578"/><path d="M208.43,77.89c-1,.82-1.61.32-2.05-.65Z" style="fill:#706578"/><path d="M191.48,122.69l-.24,1a19.53,19.53,0,0,0-3.63,2.4c-1.74,1.81-3.43,1.52-5.28.44l1.23-6.54c1.92-2.35,1.92-5.23,1.62-7.91-.74-6.61-2-13.16-4.88-19.25-.88-4.88-4.23-8.4-6.88-12.3-.64-.94-1.46-1.77-2.08-2.73a2.22,2.22,0,0,1,.47-3.07,2.19,2.19,0,0,1,3,.64c.73.86,1.27,1.89,2,2.8,2.47,3.27,5,6.35,9,8,2.68,1.08,5,3.08,7.44,4.72a32.44,32.44,0,0,0,10.88,4.39,27,27,0,0,0,7.78.5A49.54,49.54,0,0,0,229.39,91c1.32-.61,2.73-1.06,4.09-1.58a2.28,2.28,0,0,0,2.39,1.28A4.39,4.39,0,0,1,240.76,93c-2,2.46-4.92,3.66-7.62,5.1A129.23,129.23,0,0,1,220.76,104c-3,1.2-5.66,3.22-8.49,4.83-1,.55-2,1-3,1.45.15-1.11.29-2.23.44-3.34a4,4,0,0,1,2.58-2.07,13.41,13.41,0,0,0,6.91-5.67,10.68,10.68,0,0,0-2.63-.65c-2.45.12-4.88.45-7.33.57a12.67,12.67,0,0,1-4.36-.23,49.79,49.79,0,0,1-12.51-5.51,25.85,25.85,0,0,0-6.93-3c-.42,1-.77,1.81-1.13,2.65a21.73,21.73,0,0,0,.6,4.31A55.63,55.63,0,0,1,188.18,116a11.64,11.64,0,0,0,.94,3.18,1.8,1.8,0,0,1,.5.69A2.15,2.15,0,0,0,191.48,122.69Z" style="fill:#4a435b"/><path d="M269.19,197.32c-.23,1.45-.36,2.92-.71,4.34a11.43,11.43,0,0,1-4.87,7.08c-.95.63-2,1.13-3,1.71-4.55,2.7-8.93,1.69-12.82-1.16s-5.07-7.08-4-11.79c.86-3.86,2.27-7.43,5.43-10.16,1.31-1.14,2.06-2.9,3.14-4.33,3.48-4.58,5.67-4.84,10.19-1.49C267.93,185.5,270.15,190.72,269.19,197.32Zm-17.62,9.05c2.22,2.08,4.68,1.68,7.2.71,1.55.68,2.75.07,4-.88,5.63-4.29,6.6-16.47-.68-21.87-3.14-2.33-4.86-2.91-8.1,1.1a6.71,6.71,0,0,0-.72,2.28c-.77,1.91-1.56,3.82-2.3,5.75-.63,1.62-1.21,3.26-1.81,4.9-2.49.66-3.11,1.28-2.83,3a7.13,7.13,0,0,0,3.09,5.35A1.5,1.5,0,0,0,251.57,206.37Z" style="fill:#5d536c"/><path d="M208.47,149.9a21.45,21.45,0,0,1,2.23,2.45,78.33,78.33,0,0,0,11.58,13.29,47.63,47.63,0,0,1,6.25,7.52,14.86,14.86,0,0,1,2.48,8.37,8.11,8.11,0,0,1-8.68,8.53,12.52,12.52,0,0,1-7.41-2.28c-7.35-5.71-12.81-12.63-13.76-22.31a7.26,7.26,0,0,1,.14-1.45l2.37,2.24,1.74,3.54c.51,3.69,1.82,6.92,5.2,8.95l0,0,1.72,2.58c.45.47.89.95,1.35,1.42a13.94,13.94,0,0,0,7.33,3.71c4.08.82,7-2,6.58-6.21A15.9,15.9,0,0,0,221,168.76c-5.49-4.08-9.31-9.53-13-15.16C208.18,152.37,208.32,151.13,208.47,149.9Z" style="fill:#4a435b"/><path d="M274.66,33.74c.57-2.09-.67-4.53,1.32-6.39.26-.24-.1-1.18-.21-1.78-.18-.93-.39-1.85-.59-2.77l1.66.29A30.65,30.65,0,0,1,277,44.26C274.15,52,271,59.52,268,67.12c-.67,1.66-1.52,3.26-2.34,4.86a17,17,0,0,1-4.56,5.71c-4.49,3.56-8.85,7.28-13.31,10.87a20.66,20.66,0,0,1-2.94,1.67,17.23,17.23,0,0,1,6.81-10.18A22.2,22.2,0,0,0,256,78c1.82-1.33,3.31-3.11,5.05-4.57a13.06,13.06,0,0,0,4.33-7c1.58-6.34,4.24-12.3,6.35-18.44A48.34,48.34,0,0,0,274.66,33.74Z" style="fill:#4a435b"/><path d="M208.47,149.9c-.15,1.23-.29,2.47-.43,3.7a14.35,14.35,0,0,1-1.87-1.28c-.78-.72-1.45-1.55-2.09-2.24A2.61,2.61,0,0,0,202.3,153a60.51,60.51,0,0,0,1,8.08c.39,1.75.95,3.4.33,5.18L201.3,164c-1.76-4-1.62-8.31-2.49-12.46a6.46,6.46,0,0,1,.33-2.38c.24-1.27.64-2.52.78-3.81.38-3.47.83-4,5-4.75.31,1.7-.2,3.57,1,5.12A43.78,43.78,0,0,1,208.47,149.9Z" style="fill:#2f2e3a"/><path d="M191.48,122.69a2.16,2.16,0,0,1-1.86-2.82c5.57-3.38,11.53-6.14,16.27-10.8,1-1,2.51-1.47,3.78-2.18-.15,1.11-.29,2.23-.44,3.34l-3,1.89-1.09,1.06-9.52,7.37Z" style="fill:#2f2e3a"/><path d="M276.84,23.09l-1.66-.29c-1.22-1.2-.8-2.59-.48-4l1.63-.76Z" style="fill:#5d536c"/><path d="M205.13,113.18l1.09-1.06Z" style="fill:#4a435b"/><path d="M234.49,81.05c1.75-1.2,3.48-2.4,5.23-3.59,5.63-3.8,9.81-9,14.08-14.18a44.89,44.89,0,0,0,9.48-17.5c2.5-9.73,3.7-19.55-.37-29.25-.3-1.49-.61-3-.91-4.49,1.75-1.4,3.5-.87,5.18-.82.06.4.12.8.17,1.2-.61.91-1.23,1.81-2,3a18.55,18.55,0,0,0,2,1.53,3.38,3.38,0,0,1,1.8,2.74c.87,7.21.69,14.25-1.58,21.32A162.33,162.33,0,0,1,257,66.22c-1.73,3.32-3.6,6.62-6.88,8.76a5.46,5.46,0,0,0-5.44,1.24c-1.2,1.1-2.49,2.11-3.78,3.1C239,80.76,236.93,81.64,234.49,81.05Z" style="fill:#bdb4ab"/><path d="M274.66,33.74a48.34,48.34,0,0,1-2.9,14.31c-2.11,6.14-4.77,12.1-6.35,18.44a13.06,13.06,0,0,1-4.33,7c-1.74,1.46-3.23,3.24-5.05,4.57a22.2,22.2,0,0,1-4.39,2,23.34,23.34,0,0,1,1.55-3c2.08-2.94,4.28-5.79,6.37-8.71A12.59,12.59,0,0,0,261,65.73c1.95-4.68,3.88-9.37,5.74-14.09.6-1.52.88-3.15,1.43-4.68q2-5.52,4.1-11A3.35,3.35,0,0,1,274.66,33.74Z" style="fill:#a22818"/><path d="M267.35,12.42c-.05-.4-.11-.8-.17-1.2.79-.82,1.45-.59,2,.26Z" style="fill:#5d536c"/><path d="M98.71,125.54c3.88.57,6.48.91,9.06,1.34a4.94,4.94,0,0,1,2.25.83,1.75,1.75,0,0,1,.41,1.67,5.24,5.24,0,0,1-2,2c-5.68,2.87-10.17,7.16-14.16,12-3.27,3.93-7.2,7.12-10.87,10.6a17.75,17.75,0,0,1-8.79,4.13,13,13,0,0,1-9-1.33,9.14,9.14,0,0,1-4.95-5.79c-.94-3.63-1.88-7.29-2.47-11a10.28,10.28,0,0,1,7.3-11.77,39.49,39.49,0,0,1,13-2.14c3.58.06,7.17-.44,10.76-.53S96.41,125.53,98.71,125.54Zm-34.06,8.39-.2.11a3,3,0,0,0-3,2.66,18,18,0,0,0,1,10.5c.72,1.7.56,4,2.83,4.85a5.82,5.82,0,0,0,4,2.39c1.26.18,2.51.47,3.76.7,5.57-.33,9.45-3.35,12.42-7.81l1-.28c4.25-3.06,7.11-7.4,10.42-11.32a8.1,8.1,0,0,0,.92-2.21l.37,0c3.33-1.1,3.33-1.1,4.65-3.58H99.94a29.46,29.46,0,0,0-5.78-.67,141,141,0,0,1-19,.17l-3.74.45a7.26,7.26,0,0,0-4.58,2.17,2.35,2.35,0,0,1-.64.24C65.19,132.31,64.76,133,64.65,133.93Z" style="fill:#4a435b"/><path d="M100.85,64.27a6.27,6.27,0,0,1-3.67-3.72C94.81,55.4,94.26,50.16,97.11,45c2-3.65,5.07-5.25,9.37-4.8a20.34,20.34,0,0,1,13.93,7.38A140.69,140.69,0,0,1,132.57,64.8l5,7.88a13.89,13.89,0,0,1,1,1.66,2.39,2.39,0,0,1-.64,2.7,1.72,1.72,0,0,1-2.24.13c-3.55-2-7.11-4-10.61-6.17-2.8-1.69-5.52-3.52-8.27-5.3a15.79,15.79,0,0,0-15-1.52A3.88,3.88,0,0,1,100.85,64.27ZM126.93,63l0,0a30.67,30.67,0,0,0-8.65-12.63,36.66,36.66,0,0,1-3.8-3.07c-2.51-2.65-5.77-2.83-9-3.09a4.63,4.63,0,0,0-4.48,2.46c-1.82,2.94-2,6.19-1.58,9.5a2.74,2.74,0,0,0,2.19,2.38q3.8,1,7.62,1.82c1.28.27,2.77.06,3.85.65,3.72,2,8,3.08,11.22,6,1,.84,1.92,1.83,3.66,1.36.1-.53.22-1.14.34-1.75l-.14-.12c-.12-.64-.24-1.29-.35-1.93Z" style="fill:#4a435b"/><path d="M140.65,173.21q2.23-3.86,4.45-7.71l2,1.38a8.7,8.7,0,0,1-.31,1.87c-1.13,2.81-2.33,5.58-3.5,8.37-.42.23-1.07.37-1.21.71-2.14,5.32-4.74,10.49-5.13,16.35a34.52,34.52,0,0,0-.15,5.37c.36,3,2.79,5.69,6.63,4.56.94-.27,1.85-.62,2.78-.93,4.16-2.54,6.69-6.09,6.86-11.09.05-1,.1-2,.14-3.05,0-4.15,0-8.3,0-12.44a16.26,16.26,0,0,0-.41-3.82c-.17-.68-.87-1.23-1.33-1.84.09-.66.17-1.32.26-2a3.47,3.47,0,0,0,.26-3.54l-1.12-2.76c-.61-3,.17-6.18-1.12-9.1a3.7,3.7,0,0,1,3.85-2.81l1.41,4,.39,1.41a134.53,134.53,0,0,0,1,22.34c.13,1,.25,2,.38,3-.05,1.78-.05,3.57-.14,5.34-.27,5.2-.6,10.39-3.68,14.89l.06,0-4.43,3.57c-2.86,2.36-6.2,2.75-9.72,2.39-4.18-1.17-5.3-4.39-5.5-8.22a25.42,25.42,0,0,1,1.78-11.94c1-2.22,1.58-4.61,2.35-6.92l.66-1.59Z" style="fill:#5d536c"/><path d="M143.14,212.63l4.83.91a12.47,12.47,0,0,1,7.37,8.42,30.32,30.32,0,0,0,2,5.93,9.84,9.84,0,0,1,.67,7.91c-.67,1.67-1.29,3.35-2,5a11.88,11.88,0,0,1-4.45,5.67,7,7,0,0,1-7.41.44c-4.38-2.18-6.86-5.9-8.39-10.35a17.37,17.37,0,0,1,0-11.54c1.43-4.14,2.88-8.29,5.58-11.84Zm4.93,31.31c1.67.5,2.85-.39,3.76-1.55a16,16,0,0,0,3.25-11.76,2.62,2.62,0,0,0-1.91-2.53c-.42-1.21-.91-2.4-1.26-3.63a7.49,7.49,0,0,0-7.29-5.86,2.14,2.14,0,0,0-2.29,1.43c-.64,1.82-1.17,3.68-1.75,5.53-1.86-.11-2.66,1-2.73,2.64-.06,1.43.33,2.89.24,4.31-.2,2.95,1.21,5.26,2.75,7.52a1.12,1.12,0,0,0,1.66.37,7.8,7.8,0,0,0,5.58,2.5l0,1c-.07.13-.13.25-.19.38Z" style="fill:#5d536c"/><path d="M25.81,153.28a6.85,6.85,0,0,1-1.15-2.06,33.56,33.56,0,0,1-.55-6.31c.16-3.57.53-7.15,1-10.7.5-3.92,2.44-5.41,6.29-5.12a14.82,14.82,0,0,1,13.34,10.5,37,37,0,0,1,1.83,13.48c-.24,4.94-2.78,7.24-8.19,7.45.22-1.15.43-2.29.65-3.44,2.43.27,3.76-1.11,4.18-3.22a22.39,22.39,0,0,0-2-15.29,16.89,16.89,0,0,0-2.72-3.44c-.85-.9-1.79-.47-2.62.19l-3.07-.53c.22-.9.57-1.89-.64-2.34a2.12,2.12,0,0,0-2.51.67c-.61.8,0,1.43.44,2-2.4,2.94-2,6.4-1.81,9.82.13,2.11.23,4.22.34,6.33Z" style="fill:#5d536c"/><path d="M71.59,49.92l-.93-1.8a13.14,13.14,0,0,0,3-7.49,16.58,16.58,0,0,1,1.89-6c1-2.1,3.27-2.68,5.41-2.57,1.77.09,2.84,1.34,3.16,3.18A7.37,7.37,0,0,0,85,37.5a3.92,3.92,0,0,1,.19,3.75,5.75,5.75,0,0,0,.37,5.67l-1.88,4.23-1,.8c-5.49.48-5.49.48-10.56-2A1.51,1.51,0,0,0,71.59,49.92Z" style="fill:#2f2e3a"/><path d="M158.06,235.8a9.84,9.84,0,0,0-.67-7.91,30.32,30.32,0,0,1-2-5.93,12.47,12.47,0,0,0-7.37-8.42,4.17,4.17,0,0,1,3-3.51c.34.08.75,0,1,.23a25.45,25.45,0,0,0,8.07,5.43c2.4.95,3.7,2.69,3.1,5.38-.66,3,.46,5.5,2.06,7.8a14.39,14.39,0,0,1,2.25,5.36,5.65,5.65,0,0,1-1.78,5.32,2.2,2.2,0,0,1-3.42-.21,3.76,3.76,0,0,1-.66-1.29C161,236.26,159.49,236.12,158.06,235.8Z" style="fill:#d2cabd"/><path d="M180.3,92.84c2.93,6.09,4.14,12.64,4.88,19.25.3,2.68.3,5.56-1.62,7.91a19.09,19.09,0,0,1-2.85-.68c-3.46-1.42-4.56-3.08-4.21-6.79a35.72,35.72,0,0,0-.3-7.31c-.4-3.72-.62-7.46-.83-11.19a6.83,6.83,0,0,1,.56-2Z" style="fill:#d2cabd"/><path d="M83.64,51.15l1.88-4.23a5.75,5.75,0,0,1-.37-5.67A3.92,3.92,0,0,0,85,37.5a7.37,7.37,0,0,1-.86-2.24c-.32-1.84-1.39-3.09-3.16-3.18-2.14-.11-4.37.47-5.41,2.57a16.58,16.58,0,0,0-1.89,6,13.14,13.14,0,0,1-3,7.49c-1.86-2.34-2-5.19-1.68-7.86a61.07,61.07,0,0,1,2.42-9.92c.66-2.14,2.6-3.33,4.54-4.17a4.22,4.22,0,0,1,2.81.18,11.28,11.28,0,0,1,6.5,6.29,48.38,48.38,0,0,1,2.84,8.3C89.18,45.5,87.65,48.69,83.64,51.15Z" style="fill:#5d536c"/><path d="M156.33,178.5a134.53,134.53,0,0,1-1-22.34l-.39-1.41-1.41-4,6.77-4c1.92,1.54,1.63,3.62,1.37,5.72-.27,2.29-2.85,2.48-4,4.36,1.07,1.25,2.05,2.48,3.13,3.64s2.05,2.07,3.1,3.07c.36.33.82.54,1.19.86,1.29,1.07,1.48,2.35.2,3.24-1.84,1.27-2.73,3-3.71,4.94C160.43,174.88,159,177.33,156.33,178.5Z" style="fill:#d2cabd"/><path d="M143.14,212.63l-1.78.54a2.08,2.08,0,0,0-2.3-1.43c-1.26.25-2.5.67-3.94,1.07l-5.31-4.92a4,4,0,0,1-.3-.39c-1-1.43-2.79-9.94-2.49-11.81a4.19,4.19,0,0,1,2.09-3.14c1-.56,2-1,2.85-1.42a4.41,4.41,0,0,0-.74-5.21,15,15,0,0,1-1.35-1.42,2,2,0,0,1,1.24-3.33c2.1-.25,4.21-.36,6.32-.54-.77,2.31-1.37,4.7-2.35,6.92a25.42,25.42,0,0,0-1.78,11.94c.2,3.83,1.32,7,5.5,8.22a12.72,12.72,0,0,0,1.69.85C143.1,209.45,143.11,209.43,143.14,212.63Z" style="fill:#d2cabd"/><path d="M152.89,201.72c3.08-4.5,3.41-9.69,3.68-14.89.09-1.77.09-3.56.14-5.34a4.52,4.52,0,0,0,4.87-1.86c1.5.53,1.27,1.43,1.3,2.2,0,.49-.2,1.06,0,1.45a8.24,8.24,0,0,1-.61,8.67c-.31.47.07,1.6.44,2.25a24.43,24.43,0,0,0,1.9,2.21A2.59,2.59,0,0,1,163,200.6C159.67,201.05,156.36,202.17,152.89,201.72Z" style="fill:#d2cabd"/><path d="M25.81,153.28l2.82-2a34.56,34.56,0,0,1,2.49,2.94c1.57,2.27,3.48,3.41,6.28,2.34a7.57,7.57,0,0,1,1.45-.25,1.23,1.23,0,0,1,.16.73c-.22,1.15-.43,2.29-.65,3.44-1.93,0-3.89.5-5.76-.42a2,2,0,0,0-2.47-1.27C27.65,157.79,26.64,155.6,25.81,153.28Z" style="fill:#4a435b"/><path d="M149.72,153.56c1.29,2.92.51,6.1,1.12,9.1a3.33,3.33,0,0,0-2.24,1.72,29,29,0,0,1-1.5,2.5l-2-1.38c.8-3,1.59-6,2.38-9C147.82,155.23,148.32,154.06,149.72,153.56Z" style="fill:#2f2e3a"/><path d="M203.36,79.36l13.56,3.09c-.27.17-.53.47-.82.5a21.52,21.52,0,0,1-11-1.47A2.61,2.61,0,0,1,203.36,79.36Z" style="fill:#bdb4ab"/><path d="M218.84,82.61c1.11-.14,2.37-.68,3.31-.34,3.29,1.2,6.43.25,9.62-.23-.33,1.32-1.42,1.56-2.53,1.91C224.9,85.35,223.31,85.18,218.84,82.61Z" style="fill:#bdb4ab"/><path d="M71.59,49.92a1.51,1.51,0,0,1,.48.08c5.07,2.43,5.07,2.43,10.56,2a4.58,4.58,0,0,1-.9,1.08,6.58,6.58,0,0,1-6,.41C73.92,52.81,72,52.26,71.59,49.92Z" style="fill:#5d536c"/><path d="M140.65,173.21,138.09,179a7.84,7.84,0,0,1-1.21-2.51C136.64,173.83,137.45,173.2,140.65,173.21Z" style="fill:#d2cabd"/><path d="M148.52,205.32l4.43-3.57C152.35,205.31,152.24,205.39,148.52,205.32Z" style="fill:#d2cabd"/><path d="M30.13,158.83a2,2,0,0,1,2.47,1.27A2.17,2.17,0,0,1,30.13,158.83Z" style="fill:#5d536c"/><path d="M199.52,78.06l2,.75C200.19,79.77,200.05,79.71,199.52,78.06Z" style="fill:#bdb4ab"/><path d="M169.33,263.62a5.59,5.59,0,0,1-2.28,4.06,2.76,2.76,0,0,1-2.22.17,1.94,1.94,0,0,1-.92-1.49,3.36,3.36,0,0,1,1.93-3.12C166.86,262.6,167.26,262.64,169.33,263.62Z" style="fill:#cfc6b9"/><path d="M176.66,261.84a3.17,3.17,0,0,1-2.29,2.82,2.36,2.36,0,0,1-2.56-1,1.7,1.7,0,0,1-.3-1.33,2.94,2.94,0,0,1,4.71-1.36C176.45,261.19,176.52,261.56,176.66,261.84Z" style="fill:#cfc6b9"/><path d="M209.67,106.89c-1.27.71-2.78,1.19-3.78,2.18-4.74,4.66-10.7,7.42-16.27,10.8a1.74,1.74,0,0,0-.5-.67c.95-4,1.73-8,0-12a10.94,10.94,0,0,1-.38-2.4c-.45-2.57-.86-5.16-1.41-7.71-.39-1.77-1-3.48-3-4.12.36-.84.71-1.68,1.13-2.65a25.85,25.85,0,0,1,6.93,3,49.79,49.79,0,0,0,12.51,5.51,12.67,12.67,0,0,0,4.36.23c2.45-.12,4.88-.45,7.33-.57a10.68,10.68,0,0,1,2.63.65,13.41,13.41,0,0,1-6.91,5.67A4,4,0,0,0,209.67,106.89ZM192.08,111c3.72-2.1,4.41-3.4,3.95-6.75l-4.28,2.6C191.85,108.06,191.94,109.25,192.08,111Z" style="fill:#a22818"/><path d="M184.27,93c2,.64,2.64,2.35,3,4.12.55,2.55,1,5.14,1.41,7.71a10.94,10.94,0,0,0,.38,2.4c1.76,4,1,8,0,12a11.8,11.8,0,0,1-.94-3.19,55.63,55.63,0,0,0-3.31-18.72A21.73,21.73,0,0,1,184.27,93Z" style="fill:#7d7285"/><path d="M249.16,198.36c.6-1.64,1.18-3.28,1.81-4.9.74-1.93,1.53-3.84,2.3-5.75a29,29,0,0,1,4-1.67,3.72,3.72,0,0,1,4.75,2.32c1.59,3.52,2.14,7.16.51,10.83-1.19,2.66-2.51,5.26-3.77,7.89-2.52,1-5,1.37-7.2-.71A17.84,17.84,0,0,1,249.16,198.36Z" style="fill:#2f2e3a"/><path d="M203.67,166.26c.62-1.78.06-3.43-.33-5.18a60.51,60.51,0,0,1-1-8.08,2.61,2.61,0,0,1,1.78-2.92c.64.69,1.31,1.52,2.09,2.24A14.35,14.35,0,0,0,208,153.6c3.65,5.63,7.47,11.08,13,15.16a15.9,15.9,0,0,1,6.63,11.53c.42,4.17-2.5,7-6.58,6.21a13.94,13.94,0,0,1-7.33-3.71c-.46-.47-.9-.95-1.35-1.42.17-1.37-.08-2.44-1.72-2.58l0,0c-.27-3.84-2.35-6.62-5.2-8.95Z" style="fill:#a22818"/><path d="M205.41,169.8c2.85,2.33,4.93,5.11,5.2,8.95C207.23,176.72,205.92,173.49,205.41,169.8Z" style="fill:#7d7285"/><path d="M210.65,178.79c1.64.14,1.89,1.21,1.72,2.58C211.79,180.51,211.22,179.65,210.65,178.79Z" style="fill:#7d7285"/><path d="M73.05,155.14c-1.25-.23-2.5-.52-3.76-.7a5.82,5.82,0,0,1-4-2.39,18.1,18.1,0,0,0-.48-2.76c-1.68-5-2.39-10.11-.38-15.25l.2-.11,1.6-1.64a2.35,2.35,0,0,0,.64-.24c.11,1.09.2,2.19.38,3.26,0,.21.46.36,1,.7l2.08-3.21a23.34,23.34,0,0,0,3.32-.41,2,2,0,0,0,1.58-3,141,141,0,0,0,19-.17,30,30,0,0,1,5.77.66c-.59,1.19-1.15,2.39-1.72,3.58l-.38,0c-1.72-.27-2.66.75-3.63,2-1.9,2.44-3.88,4.83-6,7.12a6,6,0,0,0-1.73,4.42l-1,.28c-1.62-.36-2.8.54-4,1.39-2.65,1.87-5.32,3.71-8,5.6C73.28,154.48,73.2,154.86,73.05,155.14Z" style="fill:#a22818"/><path d="M64.45,134c-2,5.14-1.3,10.2.38,15.25a18.1,18.1,0,0,1,.48,2.76c-2.27-.82-2.11-3.15-2.83-4.85a18,18,0,0,1-1-10.5A3,3,0,0,1,64.45,134Z" style="fill:#706578"/><path d="M86.5,147.05a6,6,0,0,1,1.73-4.42c2.09-2.29,4.07-4.68,6-7.12,1-1.24,1.91-2.26,3.63-2a7.79,7.79,0,0,1-.91,2.21C93.61,139.65,90.75,144,86.5,147.05Z" style="fill:#7d7285"/><path d="M75.21,129.43a2,2,0,0,1-1.58,3,23.34,23.34,0,0,1-3.32.41L68.23,136c-.5-.34-.92-.49-1-.7-.18-1.07-.27-2.17-.38-3.26a7.26,7.26,0,0,1,4.58-2.17Z" style="fill:#706578"/><path d="M73.05,155.14c.15-.28.23-.66.46-.82,2.64-1.89,5.31-3.73,8-5.6,1.2-.85,2.38-1.75,4-1.39C82.5,151.79,78.62,154.81,73.05,155.14Z" style="fill:#7d7285"/><path d="M98.21,133.5c.57-1.19,1.13-2.39,1.72-3.58h2.93C101.54,132.4,101.54,132.4,98.21,133.5Z" style="fill:#7d7285"/><path d="M66.25,132.29l-1.6,1.64C64.76,133,65.19,132.31,66.25,132.29Z" style="fill:#706578"/><path d="M127.75,64.49c.11.64.23,1.29.34,1.93l.15.12c-.12.61-.24,1.22-.34,1.75-1.74.47-2.7-.52-3.66-1.36C121,64.06,116.74,63,113,61c-1.08-.59-2.57-.38-3.85-.65q-3.83-.84-7.62-1.82a2.74,2.74,0,0,1-2.19-2.38c-.4-3.31-.24-6.56,1.58-9.5a4.63,4.63,0,0,1,4.48-2.46c3.27.26,6.53.44,9,3.09a36.66,36.66,0,0,0,3.8,3.07c.07.79-.12,1.75.27,2.34,1.92,3,3.93,5.88,6,8.71A8.76,8.76,0,0,0,126.91,63v0C127.2,63.49,127.47,64,127.75,64.49Z" style="fill:#a22818"/><path d="M126.91,63a8.76,8.76,0,0,1-2.33-1.58c-2.12-2.83-4.13-5.75-6-8.71-.39-.59-.2-1.55-.27-2.34A30.67,30.67,0,0,1,126.91,63Z" style="fill:#706578"/><path d="M127.75,64.49c-.28-.5-.55-1-.83-1.49C127.2,63.49,127.47,64,127.75,64.49Z" style="fill:#706578"/><path d="M128.24,66.54l-.15-.12Z" style="fill:#706578"/><path d="M147.1,166.88a29,29,0,0,0,1.5-2.5,3.33,3.33,0,0,1,2.24-1.72c.37.92.75,1.84,1.11,2.76-.08,1.18-.17,2.36-.25,3.54-.09.66-.17,1.32-.26,2-1.25,4.07-.13,8.09.34,12.09.23,2-.07,4.26,1.43,6,0,1-.09,2-.14,3.05-.58.52-1.38.93-1.7,1.58a31.68,31.68,0,0,1-4.63,7.27c-.45.5-.37,1.48-.53,2.24-.93.31-1.84.66-2.78.93-3.84,1.13-6.27-1.51-6.63-4.56a34.52,34.52,0,0,1,.15-5.37c1.83-1.29,2.67-3.23,3.35-5.25.77-2.32,1.54-4.65,2.16-7,.41-1.56.56-3.2.83-4.8,1.17-2.79,2.37-5.56,3.5-8.37A8.7,8.7,0,0,0,147.1,166.88Z" style="fill:#a22818"/><path d="M143.29,177.12c-.27,1.6-.42,3.24-.83,4.8-.62,2.36-1.39,4.69-2.16,7-.68,2-1.52,4-3.35,5.25.39-5.86,3-11,5.13-16.35C142.22,177.49,142.87,177.35,143.29,177.12Z" style="fill:#7d7285"/><path d="M153.21,189c-1.5-1.75-1.2-4-1.43-6-.47-4-1.59-8-.34-12.09.46.61,1.16,1.16,1.33,1.84a16.26,16.26,0,0,1,.41,3.82C153.23,180.74,153.21,184.89,153.21,189Z" style="fill:#7d7285"/><path d="M146.21,203.18c.16-.76.08-1.74.53-2.24a31.68,31.68,0,0,0,4.63-7.27c.32-.65,1.12-1.06,1.7-1.58C152.9,197.09,150.37,200.64,146.21,203.18Z" style="fill:#7d7285"/><path d="M151.7,169c.08-1.18.17-2.36.25-3.54A3.44,3.44,0,0,1,151.7,169Z" style="fill:#7d7285"/><path d="M155,154.75l.39,1.41Z" style="fill:#cfc6b9"/><path d="M140.58,225.57c.58-1.85,1.11-3.71,1.75-5.53a2.14,2.14,0,0,1,2.29-1.43,7.49,7.49,0,0,1,7.29,5.86c.35,1.23.84,2.42,1.26,3.63.58,5.72-.58,10.84-5.09,14.81a7.8,7.8,0,0,1-5.58-2.5,29,29,0,0,1-1.89-14.35A2.69,2.69,0,0,0,140.58,225.57Z" style="fill:#2f2e3a"/><path d="M140.58,225.57a2.69,2.69,0,0,1,0,.49,29,29,0,0,0,1.89,14.35,1.12,1.12,0,0,1-1.66-.37c-1.54-2.26-3-4.57-2.75-7.52.09-1.42-.3-2.88-.24-4.31C137.92,226.59,138.72,225.46,140.58,225.57Z" style="fill:#7d7285"/><path d="M148.07,243.94l-.21.35.19-.38Z" style="fill:#b0a79c"/><path d="M38.85,156.35a7.57,7.57,0,0,0-1.45.25c-2.8,1.07-4.71-.07-6.28-2.34a34.56,34.56,0,0,0-2.49-2.94c-.1-2.11-.2-4.22-.33-6.33-.19-3.42-.59-6.88,1.81-9.82l2.71-.38,3.07.53c1.65,3.37,3.32,6.72,4.94,10.1a8.47,8.47,0,0,1-.55,8.41C39.79,154.66,39.32,155.51,38.85,156.35Z" style="fill:#2f2e3a"/></g></svg>